<?xml version="1.0" encoding="utf-8"?>
<!-- Generator: Adobe Illustrator 25.4.1, SVG Export Plug-In . SVG Version: 6.00 Build 0)  -->
<svg version="1.1" id="Capa_1" xmlns="http://www.w3.org/2000/svg" xmlns:xlink="http://www.w3.org/1999/xlink" x="0px" y="0px"
	 viewBox="0 0 135 46" style="enable-background:new 0 0 135 46;" xml:space="preserve">
<style type="text/css">
	.st0{fill:#FFED00;}
</style>
<g>
	<polygon class="st0" points="99,14.4 91.5,14.4 82.6,23.3 84.6,14.4 77.9,14.4 73.4,34.6 80.1,34.6 82,26.1 86.9,34.6 94.5,34.6 
		88.9,24.6 	"/>
	<path class="st0" d="M63.1,10.9c-6.6,0-10.3,3.1-11.7,9.5c-0.4,1.7-1.2,5.3-1.2,5.3s-4.2-7.5-6.1-11.3h-6.6L33,34.6h6.5l2.6-11.3
		l6.2,11.3h6.3c0,0,2.2-9.7,3.2-14c1-4.7,4-7.9,10.3-7.9h32l1.9-1.9C102,10.9,69.8,10.9,63.1,10.9"/>
	<path class="st0" d="M62.1,16.3c-1.5,1.7-2.5,4.4-1,7.1c0.8,1.4,2.3,2.5,4.1,3.6c0.8,0.5,1.4,1.1,1,2.1c-0.2,0.6-0.9,1.4-2.6,1.1
		c-1.8-0.3-3.8-1.4-5.3-2.3l-1.2,5.4c5.4,2.3,11.9,2.9,14.9-1.7c1.6-2.4,0.8-5-0.3-6.5c-0.9-1.3-2.4-2.3-3.9-3.1
		c-1.1-0.6-1.4-1.6-0.9-2.3c1.2-2.1,5-0.3,7.3,1.7l1.2-5.3C73.5,14.8,71,14,68.5,14C65.5,14,63.5,14.8,62.1,16.3"/>
</g>
</svg>
