<?xml version="1.0" encoding="utf-8"?>
<!-- Generator: Adobe Illustrator 25.4.1, SVG Export Plug-In . SVG Version: 6.00 Build 0)  -->
<svg version="1.1" id="Capa_1" xmlns="http://www.w3.org/2000/svg" xmlns:xlink="http://www.w3.org/1999/xlink" x="0px" y="0px"
	 viewBox="0 0 135 46" style="enable-background:new 0 0 135 46;" xml:space="preserve">
<style type="text/css">
	.st0{fill:#FFED00;}
</style>
<path class="st0" d="M46.6,23.8c0-0.3,0-0.5,0-0.8c0-5.8-4.2-10.7-9.8-11.7C41,15,45.3,21.7,46.6,23.8"/>
<path class="st0" d="M31.6,34.5c1,0.3,2.1,0.4,3.2,0.4c4.5,0,8.4-2.5,10.5-6.2C41,31.4,34.5,33.6,31.6,34.5"/>
<path class="st0" d="M27.3,28c-0.3,0-1.6-0.3-1.6-2.2c0-1.9,1.1-3.8,1.1-3.8c0.3-0.5,0.3,0,0.2,0.1c-0.2,2.5,1.1,3.6,1.1,4.6
	C28.2,27.8,27.6,28,27.3,28 M33.5,16c-1.3,0.7-5,3.2-5.8,3.7c-0.8,0.5-1.3,0.7-0.2-1c0.9-1.4,3.7-5.4,6-7.6
	c-6,0.6-10.7,5.7-10.7,11.9c0,3.5,1.5,6.7,4,8.9c1.8-3.6,7.2-14.2,7.6-15.1C35,15.7,34.8,15.3,33.5,16"/>
<path class="st0" d="M111.3,28.4h0.8v-0.8h-0.8V28.4z M108.6,28.4h2.3v-0.8h-1.4v-3.8h-0.9V28.4z M106.8,28.4h0.8v-0.8h-0.8V28.4z
	 M103.2,27.1c0,0.8,0.7,1.4,1.5,1.4c0.8,0,1.5-0.6,1.5-1.5c0-0.4-0.2-0.8-0.5-1c-0.3-0.2-0.6-0.3-0.9-0.4c-0.3-0.1-0.6-0.2-0.6-0.6
	c0-0.3,0.2-0.5,0.5-0.5c0.3,0,0.5,0.2,0.5,0.5h0.9c0-0.7-0.6-1.3-1.3-1.3c-0.7,0-1.4,0.6-1.4,1.3c0,0.3,0.1,0.7,0.4,0.9
	c0.2,0.2,0.5,0.3,0.8,0.4c0.4,0.1,0.8,0.3,0.8,0.8c0,0.3-0.3,0.6-0.6,0.6c-0.3,0-0.6-0.2-0.6-0.6H103.2z M98,28.4h0.8v-1.6
	c0-0.3,0-0.6,0.1-0.9c0.1-0.2,0.4-0.3,0.6-0.3c0.2,0,0.4,0.1,0.5,0.3c0.1,0.2,0.1,0.6,0.1,0.8v1.6h0.8v-1.8c0-0.4,0-0.9-0.3-1.2
	c0,0-0.1-0.1-0.1-0.1c-0.2-0.3-0.6-0.4-1-0.4s-0.7,0.1-0.9,0.4h0v-0.3H98V28.4z M94.7,26.3c0.1-0.4,0.5-0.7,1-0.7
	c0.4,0,0.8,0.2,0.9,0.7H94.7z M97.4,27c0-0.1,0-0.3,0-0.4c0-1-0.8-1.8-1.8-1.8c-1,0-1.8,0.8-1.8,1.9c0,1,0.8,1.8,1.8,1.8
	c0.7,0,1.4-0.5,1.7-1.1h-0.9c-0.2,0.2-0.5,0.3-0.8,0.3c-0.4,0-0.8-0.3-0.9-0.7H97.4z M91.7,25.6c0.6,0,1,0.5,1,1c0,0.6-0.4,1-1,1
	c-0.6,0-1-0.5-1-1.1C90.7,26,91.2,25.6,91.7,25.6 M89.9,28.4h0.8v-0.5h0c0.3,0.4,0.7,0.6,1.2,0.6c0.5,0,1-0.2,1.3-0.6
	c0.3-0.3,0.4-0.8,0.4-1.3c0-1-0.7-1.8-1.7-1.8c-0.4,0-0.8,0.1-1.1,0.5h0v-1.5h-0.8V28.4z M87.9,28.4h0.8v-1.9c0-0.3,0-0.5,0.2-0.7
	c0.1-0.1,0.3-0.2,0.5-0.2v-0.8h-0.1c-0.3,0-0.6,0.1-0.7,0.4h0v-0.3h-0.8V28.4z M86.5,26.6c0,0.6-0.4,1-1,1c-0.6,0-1-0.4-1-1
	c0-0.6,0.4-1.1,1-1.1C86.1,25.6,86.5,26,86.5,26.6 M87.3,24.9h-0.8v0.5c-0.3-0.4-0.7-0.6-1.2-0.6c-0.5,0-0.9,0.2-1.3,0.6
	c-0.3,0.4-0.4,0.8-0.4,1.2c0,0.5,0.2,0.9,0.4,1.3c0.3,0.4,0.7,0.6,1.3,0.6c0.4,0,0.9-0.2,1.2-0.6h0v0.5h0.8V24.9z M82.3,28.4h0.8
	v-4.6h-0.8V28.4z M80.8,27.1c-0.3,0.3-0.7,0.5-1.2,0.5c-0.8,0-1.5-0.7-1.5-1.6c0-0.9,0.7-1.6,1.5-1.6c0.5,0,0.9,0.2,1.2,0.6h1
	c-0.4-0.9-1.3-1.4-2.2-1.4c-1.3,0-2.4,1.1-2.4,2.4c0,1.3,1.1,2.4,2.4,2.4c0.9,0,1.8-0.5,2.1-1.4H80.8z M73,27.4c0,0.6,0.5,1.1,1,1.1
	c0.6,0,1.1-0.4,1.1-1.1c0-0.6-0.4-0.8-1-1c-0.3-0.1-0.6-0.2-0.6-0.6c0-0.3,0.2-0.5,0.5-0.5c0.3,0,0.5,0.2,0.5,0.5h0.5
	c0-0.5-0.4-0.9-0.9-0.9c-0.5,0-1,0.4-1,1c0,0.2,0.1,0.5,0.3,0.6c0.2,0.2,0.4,0.2,0.6,0.3c0.3,0.1,0.7,0.2,0.7,0.7
	c0,0.3-0.3,0.6-0.6,0.6c-0.3,0-0.6-0.3-0.6-0.6H73z M70.9,25.3c0.3,0,0.7,0.1,0.9,0.4c0.3,0.3,0.4,0.6,0.4,0.9
	c0,0.7-0.5,1.4-1.3,1.4c-0.7,0-1.3-0.6-1.3-1.3C69.6,25.9,70.1,25.3,70.9,25.3 M70.9,24.9c-1,0-1.8,0.8-1.8,1.8c0,1,0.8,1.8,1.8,1.8
	c1,0,1.8-0.8,1.8-1.8C72.7,25.7,71.8,24.9,70.9,24.9 M68,24.5h0.5v-0.8H68V24.5z M68,28.4h0.5v-3.4H68V28.4z M66.1,28.4h0.5v-1.9
	c0-0.4,0-0.6,0.3-0.9c0.2-0.2,0.4-0.2,0.6-0.2v-0.5c-0.4,0-0.8,0.2-1,0.6h0v-0.5h-0.4V28.4z M63.7,25.3c0.3,0,0.7,0.1,0.9,0.4
	c0.3,0.3,0.4,0.6,0.4,0.9c0,0.7-0.5,1.4-1.3,1.4c-0.7,0-1.3-0.6-1.3-1.3C62.4,25.9,62.9,25.3,63.7,25.3 M63.7,24.9
	c-1,0-1.8,0.8-1.8,1.8c0,1,0.8,1.8,1.8,1.8c1,0,1.8-0.8,1.8-1.8C65.5,25.7,64.6,24.9,63.7,24.9 M60.3,28.4h0.5v-3h0.8v-0.4h-0.8
	v-1.2h-0.5v1.2h-0.7v0.4h0.7V28.4z M57.3,25.3c0.8,0,1.3,0.6,1.3,1.4c0,0.7-0.6,1.3-1.3,1.3c-0.7,0-1.4-0.6-1.4-1.3
	C56,25.9,56.6,25.3,57.3,25.3 M59.1,24.9h-0.4v0.6h0c-0.2-0.5-0.8-0.7-1.3-0.7c-0.6,0-1,0.2-1.3,0.6c-0.3,0.3-0.5,0.7-0.5,1.2
	c0,0.5,0.2,0.9,0.3,1.1c0.4,0.5,1,0.7,1.5,0.7c0.5,0,1.1-0.2,1.3-0.7h0v0.6h0.4V24.9z M53.8,28.4h0.5v-1.9c0-0.4,0-0.6,0.3-0.9
	c0.2-0.2,0.4-0.2,0.6-0.2v-0.5c-0.4,0-0.8,0.2-1,0.6h0v-0.5h-0.4V28.4z M51.3,25.3c0.3,0,0.7,0.1,0.9,0.4c0.3,0.3,0.4,0.6,0.4,0.9
	c0,0.7-0.5,1.4-1.3,1.4c-0.7,0-1.3-0.6-1.3-1.3C50,25.9,50.6,25.3,51.3,25.3 M51.3,24.9c-1,0-1.8,0.8-1.8,1.8c0,1,0.8,1.8,1.8,1.8
	c1,0,1.8-0.8,1.8-1.8C53.1,25.7,52.3,24.9,51.3,24.9 M47.2,25.3c0.8,0,1.4,0.6,1.4,1.3c0,0.7-0.6,1.3-1.3,1.3
	c-0.7,0-1.4-0.6-1.4-1.3c0-0.4,0.1-0.7,0.4-1C46.5,25.5,46.8,25.3,47.2,25.3 M45.4,28.4h0.4v-0.6c0.3,0.4,0.9,0.7,1.4,0.7
	c0.5,0,0.9-0.1,1.4-0.7c0.2-0.2,0.4-0.6,0.4-1.1c0-1-0.9-1.8-1.8-1.8c-0.5,0-1.1,0.2-1.3,0.7v-1.8h-0.5V28.4z M42.9,25.3
	c0.8,0,1.3,0.6,1.3,1.4c0,0.7-0.6,1.3-1.3,1.3c-0.7,0-1.4-0.6-1.4-1.3C41.5,25.9,42.1,25.3,42.9,25.3 M44.6,24.9h-0.4v0.6h0
	c-0.2-0.5-0.8-0.7-1.3-0.7c-0.6,0-1,0.2-1.3,0.6c-0.3,0.3-0.5,0.7-0.5,1.2c0,0.5,0.2,0.9,0.3,1.1c0.4,0.5,1,0.7,1.5,0.7
	c0.5,0,1.1-0.2,1.3-0.7h0v0.6h0.4V24.9z M38.4,28.4h2.4v-0.4h-1.9v-4.2h-0.5V28.4z"/>
</svg>
