<?xml version="1.0" encoding="utf-8"?>
<!-- Generator: Adobe Illustrator 25.4.1, SVG Export Plug-In . SVG Version: 6.00 Build 0)  -->
<svg version="1.1" id="Capa_1" xmlns="http://www.w3.org/2000/svg" xmlns:xlink="http://www.w3.org/1999/xlink" x="0px" y="0px"
	 viewBox="0 0 135 46" style="enable-background:new 0 0 135 46;" xml:space="preserve">
<style type="text/css">
	.st0{fill:#FFEC00;}
</style>
<path class="st0" d="M63.5,32.8L63.5,32.8L63.5,32.8L63.5,32.8c-0.4,0-0.7-0.1-0.9-0.4c-0.2-0.2-0.4-0.6-0.4-0.9v0v-17c0,0,0,0,0,0
	c0-0.3,0.1-0.7,0.4-0.9c0.2-0.2,0.6-0.4,0.9-0.4h0h0.8h0.1v-0.1v-1.9v-0.1h-0.1H56h-0.1v0.1v1.9v0.1H56h0.8h0c0.3,0,0.6,0.1,0.9,0.4
	c0.2,0.2,0.4,0.6,0.4,0.9v0v17v0c0,0.7-0.6,1.3-1.3,1.3h0h0l0,0l0,0h-1.2h-0.1v0.1v1.9v0.1h0.1h9h0.1v-0.1v-1.9v-0.1h-0.1L63.5,32.8
	"/>
<path class="st0" d="M50.1,14.4l-3.7,14.4l-3.8-14l0,0l0,0l0,0c0-0.1,0-0.2,0-0.3c0-0.3,0.1-0.6,0.4-0.9c0.2-0.2,0.6-0.4,0.9-0.4
	l0.9,0v-2.1h-9.2v2.1h1.1c0,0,0,0,0,0c0.6,0,1.1,0.4,1.2,0.9l0,0l0,0l5.6,20.6l0,0.1h0.1h3.6h0.1c0,0,0-0.1,0-0.1l5.3-20.5"/>
<path class="st0" d="M52.6,14.2c0.1-0.6,0.6-1,1.2-1h1.1v-2.1H48v2.1h1.2h0c0.2,0,0.5,0.1,0.6,0.3c0.2,0.2,0.3,0.4,0.3,0.6
	c0,0.1,0,0.2,0,0.2"/>
<path class="st0" d="M80.9,11.2H65.5h-0.1v0.1v5.4v0.1h0.1h2.2h0.1v-0.1v-2.2v0c0-0.3,0.1-0.7,0.4-0.9c0.2-0.2,0.6-0.4,0.9-0.4h0
	h2.1v18.2v0c0,0.7-0.6,1.3-1.3,1.3h0h0l0,0h-1.2h-0.1v0.1v1.9v0.1h0.1h9h0.1v-0.1v-1.9v-0.1h-0.1h-1.1l0,0h0h0
	c-0.3,0-0.6-0.1-0.9-0.4c-0.2-0.2-0.4-0.6-0.4-0.9v0V13.2h2.1h0c0.3,0,0.6,0.1,0.9,0.4c0.2,0.2,0.4,0.5,0.4,0.9c0,0,0,0,0,0v2.1v0.1
	h0.1h2.2H81v-0.1L80.9,11.2L80.9,11.2"/>
<path class="st0" d="M85,24.4L85,24.4l2.9-11.1l0,0h0l0,0l3,11.1l0,0L85,24.4 M97.4,31.7l-5.6-20.5l0-0.1h-0.1h-5.7h-0.1l0,0.1
	l-5.3,20.5c0,0,0,0,0,0c-0.2,0.6-0.7,1-1.2,1h-0.7h-0.1v0.1v1.9v0.1h0.1h6.8h0.1v-0.1v-1.9v-0.1h-0.1h-1h-0.1
	c-0.3,0-0.6-0.1-0.9-0.4c-0.2-0.2-0.4-0.6-0.4-0.9c0-0.1,0-0.2,0-0.3c0,0,0,0,0,0c0,0,1.1-4.1,1.2-4.7h7l0.2,0.9l1,3.8c0,0,0,0,0,0
	c0,0.1,0,0.2,0,0.3c0,0.7-0.6,1.3-1.3,1.3h-0.1h-0.9h-0.1h-0.1v0.1v1.9v0.1h0.1h0.1h8.9h0.1v-0.1v-1.9v-0.1h-0.1h-0.7
	C98.1,32.8,97.6,32.4,97.4,31.7L97.4,31.7z"/>
</svg>
