<?xml version="1.0" encoding="utf-8"?>
<!-- Generator: Adobe Illustrator 25.4.1, SVG Export Plug-In . SVG Version: 6.00 Build 0)  -->
<svg version="1.1" id="Capa_1" xmlns="http://www.w3.org/2000/svg" xmlns:xlink="http://www.w3.org/1999/xlink" x="0px" y="0px"
	 viewBox="0 0 135 46" style="enable-background:new 0 0 135 46;" xml:space="preserve">
<style type="text/css">
	.st0{fill:#FFED00;stroke:#FFED00;stroke-width:0.5669;}
	.st1{fill:#FFED00;}
	.st2{fill:none;stroke:#FFED00;stroke-width:0.3289;}
	.st3{fill:none;stroke:#FFED00;stroke-width:0.2268;}
</style>
<polygon class="st0" points="35.7,30.1 36.2,30.1 38.4,38.2 38.4,38.2 40.5,30.1 41.1,30.1 38.7,38.8 38.1,38.8 "/>
<polygon class="st0" points="41.8,30.1 45.9,30.1 45.9,30.5 42.3,30.5 42.3,34 45.7,34 45.7,34.5 42.3,34.5 42.3,38.3 46.1,38.3 
	46.1,38.8 41.8,38.8 "/>
<path class="st0" d="M49.1,34.3c1,0,2-0.3,2-2c0-1.2-0.7-1.9-1.7-1.9h-2v3.8L49.1,34.3L49.1,34.3z M47,30.1h2.5
	c1.2,0,2.2,0.7,2.2,2.3c0,1.1-0.6,2-1.7,2.2l0,0c1.4,0.1,1.7,1,1.7,2.2v0.9c0,0.5,0.1,0.8,0.3,1.2h-0.6c-0.1-0.3-0.2-0.7-0.2-1.2
	v-0.9c0-1.2-0.3-2-1.7-2h-1.9v4H47V30.1z"/>
<polygon class="st0" points="54.4,30.5 52.1,30.5 52.1,30.1 57.2,30.1 57.2,30.5 54.9,30.5 54.9,38.8 54.4,38.8 "/>
<polygon class="st0" points="59.7,35.2 57.3,30.1 57.9,30.1 60,34.6 62.1,30.1 62.6,30.1 60.2,35.2 60.2,38.8 59.7,38.8 "/>
<path class="st0" d="M63.6,36.5c0,1.1,0.7,2,2,2c1.2,0,2-0.9,2-2S67,35,66,34.6l-1-0.3c-1.1-0.4-1.8-0.9-1.8-2.1
	c0-1.4,1-2.3,2.3-2.3c1.6,0,2.3,0.9,2.3,2.4h-0.5c0-1.2-0.5-1.9-1.8-1.9c-1,0-1.9,0.5-1.9,1.8c0,1,0.5,1.4,1.3,1.7l1.3,0.4
	c1.1,0.4,1.8,0.9,1.8,2.2c0,1.5-1.1,2.4-2.5,2.4c-2,0-2.5-1.4-2.5-2.2v-0.6h0.5L63.6,36.5L63.6,36.5z"/>
<polygon class="st0" points="70.9,35.2 68.6,30.1 69.1,30.1 71.2,34.6 73.3,30.1 73.8,30.1 71.5,35.2 71.5,38.8 70.9,38.8 "/>
<path class="st0" d="M74.8,36.5c0,1.1,0.7,2,2,2c1.2,0,2-0.9,2-2s-0.6-1.5-1.6-1.9l-1-0.3c-1.1-0.4-1.8-0.9-1.8-2.1
	c0-1.4,1-2.3,2.3-2.3c1.6,0,2.3,0.9,2.3,2.4h-0.5c0-1.2-0.5-1.9-1.8-1.9c-1,0-1.9,0.5-1.9,1.8c0,1,0.5,1.4,1.3,1.7l1.3,0.4
	c1.1,0.4,1.8,0.9,1.8,2.2c0,1.5-1.1,2.4-2.5,2.4c-2,0-2.5-1.4-2.5-2.2v-0.6h0.5L74.8,36.5L74.8,36.5z"/>
<polygon class="st0" points="82.1,30.5 79.8,30.5 79.8,30.1 84.9,30.1 84.9,30.5 82.6,30.5 82.6,38.8 82.1,38.8 "/>
<polygon class="st0" points="85.7,30.1 89.8,30.1 89.8,30.5 86.2,30.5 86.2,34 89.6,34 89.6,34.5 86.2,34.5 86.2,38.3 89.9,38.3 
	89.9,38.8 85.7,38.8 "/>
<polygon class="st0" points="96.8,30.7 96.8,30.7 94.3,38.8 93.8,38.8 91.3,30.7 91.3,30.7 91.3,38.8 90.7,38.8 90.7,30.1 
	91.6,30.1 94,37.9 94.1,37.9 96.5,30.1 97.3,30.1 97.3,38.8 96.8,38.8 "/>
<path class="st1" d="M68.4,19.5c-0.5,0.5-1.2,0.5-1.7,0s-0.5-1.2,0-1.7s1.2-0.5,1.7,0S68.9,19,68.4,19.5 M75.2,25.8
	c3.7-4,3.7-10.2,0-14.2l-4.3,4.3l-0.5-0.5l4.3-4.3c-4-3.7-10.2-3.7-14.2,0l4.2,4.2l-0.5,0.5L60,11.6c-3.7,4-3.7,10.2,0,14.2l4.3-4.3
	l0.5,0.5l-4.3,4.3c4,3.7,10.2,3.7,14.2,0l-4.2-4.2l0.5-0.5L75.2,25.8z"/>
<path class="st1" d="M46.3,26.5H45l-5-14.3h1.1l4.5,13.4h0.1l4.5-13.4h1.1L46.3,26.5z M45.7,8.2c-5.8,0-10.4,4.7-10.4,10.4
	C35.3,24.4,40,29,45.7,29c5.8,0,10.4-4.7,10.4-10.4C56.1,12.9,51.5,8.2,45.7,8.2"/>
<path class="st1" d="M89.3,26.3c-4,0-4.9-2.4-4.9-3.8v-1h1v0.8c0,1.9,1.4,3.3,3.9,3.3c2.4,0,4-1.5,4-3.4s-1.2-2.6-3.1-3.2l-2-0.6
	c-2.3-0.7-3.5-1.6-3.5-3.6c0-2.4,1.9-3.9,4.6-3.9c3.2,0,4.6,1.6,4.6,4h-1c0-2-1.1-3.3-3.5-3.3c-1.9,0-3.7,0.8-3.7,3.1
	c0,1.6,1,2.4,2.5,2.9l2.6,0.8c2.2,0.7,3.5,1.6,3.5,3.8C94.3,24.8,92,26.3,89.3,26.3 M89.3,8.2c-5.8,0-10.4,4.7-10.4,10.4
	c0,5.8,4.7,10.4,10.4,10.4c5.8,0,10.4-4.7,10.4-10.4C99.7,12.9,95.1,8.2,89.3,8.2"/>
<circle class="st2" cx="99.1" cy="30.4" r="0.8"/>
<line class="st3" x1="98.9" y1="29.9" x2="98.9" y2="30.7"/>
<polyline class="st3" points="99,30.1 99.4,30.1 99.4,30.4 99,30.4 99.4,30.7 "/>
</svg>
