<?xml version="1.0" encoding="utf-8"?>
<!-- Generator: Adobe Illustrator 25.4.1, SVG Export Plug-In . SVG Version: 6.00 Build 0)  -->
<svg version="1.1" id="Capa_1" xmlns="http://www.w3.org/2000/svg" xmlns:xlink="http://www.w3.org/1999/xlink" x="0px" y="0px"
	 viewBox="0 0 135 46" style="enable-background:new 0 0 135 46;" xml:space="preserve">
<style type="text/css">
	.st0{fill:#FFED00;}
</style>
<path class="st0" d="M25.4,23.3l41.8-12.6l42.5,12.6L67,35.3L25.4,23.3z M42,19.2c-4,1.4-3.7,6.8-0.1,8c17.3,5,34.4,4.6,50.3,0
	c4.6-1.3,4.7-6.5,0.1-8.3C77,14.3,59.2,14.2,42,19.2"/>
<path class="st0" d="M52.5,23.4h-2.1c-0.2,0-0.2,0.1-0.2,0.2V27c0,0.1,0,0.3-0.2,0.3h-1.5c0,0-0.2-0.1-0.2-0.2v-8.2
	c0-0.1,0.1-0.2,0.2-0.2h1.5c0.1,0,0.2,0.2,0.2,0.2v2.4c0,0.1,0,0.2,0.2,0.2h2.1c0.1,0,0.2-0.1,0.2-0.2v-2.4c0-0.1,0.1-0.2,0.2-0.2
	h1.5c0.1,0,0.2,0.2,0.2,0.2V27c0,0.1-0.2,0.2-0.2,0.2h-1.5c0,0-0.2-0.1-0.2-0.2v-3.5C52.7,23.4,52.6,23.4,52.5,23.4"/>
<path class="st0" d="M71.2,18.6h1.4c0.1,0,0.2,0.1,0.2,0.2V27c0,0.1-0.1,0.2-0.2,0.2h-1.4c-0.1,0-0.2-0.1-0.2-0.2v-8.2
	C71,18.7,71.1,18.6,71.2,18.6"/>
<path class="st0" d="M59.3,18.4c2.3,0,4.2,2,4.2,4.5s-1.9,4.5-4.2,4.5c-2.3,0-4.2-2-4.2-4.5S57,18.4,59.3,18.4 M59.3,20.6
	c-1.2,0-2.1,1-2.1,2.3c0,1.3,0.9,2.3,2.1,2.3c1.2,0,2.1-1,2.1-2.3C61.4,21.6,60.5,20.6,59.3,20.6"/>
<path class="st0" d="M83.4,18.4c2.3,0,4.2,2,4.2,4.5s-1.9,4.5-4.2,4.5c-2.3,0-4.2-2-4.2-4.5S81.1,18.4,83.4,18.4 M83.4,20.6
	c-1.2,0-2.1,1-2.1,2.3c0,1.3,0.9,2.3,2.1,2.3c1.2,0,2.1-1,2.1-2.3C85.5,21.6,84.5,20.6,83.4,20.6"/>
<path class="st0" d="M79.2,25l0.1,2c-0.6,0.2-1.1,0.4-1.7,0.4c-2.4,0-4.2-2-4.2-4.5c0-2.5,1.8-4.5,4.2-4.5c0.5,0,0.9,0,1.3,0.2
	c0.1,0.1,0.2,0.1,0.2,0.3L79,20.6c0,0.3-0.2,0.4-0.4,0.3c-0.3-0.2-0.6-0.3-1-0.3c-1.4,0-2,1.1-2,2.3c0,1.3,0.7,2.3,2,2.3
	c0.4,0,0.8,0,1.1-0.3C78.8,24.7,79.2,24.5,79.2,25"/>
<path class="st0" d="M65.7,18.5c1.4,0,2.8-0.1,4,1.2c1.4,1.7,0.4,3.9-1.1,4.8c-0.1,0.1-0.1,0.4,0.1,0.5c0.4,0.2,0.7,0.3,1.1,0.4
	c0.1,0,0.2,0,0.2,0.2V27c0,0.2-0.1,0.2-0.2,0.2c-1.3,0-2.4-0.6-3.2-1.4c-0.3-0.3-0.7-0.1-0.7,0.3v0.8c0,0.2-0.1,0.3-0.3,0.2h-1.3
	c-0.2,0-0.3-0.1-0.3-0.3v-8.1c0-0.2,0.1-0.3,0.3-0.3H65.7z M65.9,22.6c0,0.2,0.1,0.4,0.2,0.4h1.2c1.5,0,1.5-2.4,0-2.5h-1.1
	c-0.2,0-0.3,0.1-0.3,0.3V22.6"/>
<path class="st0" d="M97.2,13.8c0,0,0-0.1,0-0.1c0,0,0-0.1-0.1-0.1c0,0-0.1,0-0.1-0.1c0,0-0.1,0-0.2,0h-0.2v0.6h0.2
	c0.1,0,0.2,0,0.3-0.1C97.1,14,97.2,13.9,97.2,13.8 M98,15.5C98,15.5,98,15.5,98,15.5C98,15.5,98,15.5,98,15.5
	c-0.1,0.1-0.2,0.1-0.2,0.1c-0.1,0-0.1,0-0.2,0c-0.1,0-0.2,0-0.2,0c-0.1,0-0.1,0-0.1,0c0,0-0.1,0-0.1,0c0,0,0,0,0-0.1L97.1,15
	c0-0.1-0.1-0.2-0.1-0.3c0,0-0.1-0.1-0.2-0.1h-0.1v0.8c0,0.1,0,0.1-0.1,0.1c0,0-0.1,0-0.3,0c-0.2,0-0.3,0-0.3,0
	c-0.1,0-0.1-0.1-0.1-0.1v-2.1c0-0.1,0-0.2,0.1-0.3C95.9,13,96,13,96.1,13h0.8c0.1,0,0.3,0,0.4,0c0.1,0,0.2,0.1,0.3,0.1
	c0.1,0.1,0.2,0.1,0.2,0.2c0.1,0.1,0.1,0.2,0.1,0.3c0,0.2-0.1,0.3-0.2,0.4c-0.1,0.1-0.2,0.2-0.4,0.2c0.1,0,0.2,0.1,0.3,0.2
	c0.1,0.1,0.1,0.2,0.2,0.3l0.1,0.4C98,15.3,98,15.4,98,15.5 M98.7,14.4c0-0.3,0-0.5-0.1-0.7c-0.1-0.2-0.2-0.4-0.4-0.6
	c-0.2-0.2-0.3-0.3-0.6-0.4c-0.2-0.1-0.5-0.1-0.7-0.1c-0.3,0-0.5,0-0.7,0.1c-0.2,0.1-0.4,0.2-0.6,0.4c-0.2,0.2-0.3,0.4-0.4,0.6
	c-0.1,0.2-0.1,0.5-0.1,0.7c0,0.3,0,0.5,0.1,0.7c0.1,0.2,0.2,0.4,0.4,0.6c0.2,0.2,0.3,0.3,0.6,0.4c0.2,0.1,0.5,0.1,0.7,0.1
	c0.3,0,0.5,0,0.7-0.1c0.2-0.1,0.4-0.2,0.6-0.4c0.2-0.2,0.3-0.4,0.4-0.6C98.6,14.9,98.7,14.6,98.7,14.4 M99.4,14.3
	c0,0.3-0.1,0.7-0.2,1c-0.1,0.3-0.3,0.6-0.5,0.8c-0.2,0.2-0.5,0.4-0.8,0.5c-0.3,0.1-0.6,0.2-1,0.2c-0.4,0-0.7-0.1-1-0.2
	c-0.3-0.1-0.6-0.3-0.8-0.5c-0.2-0.2-0.4-0.5-0.5-0.8c-0.1-0.3-0.2-0.6-0.2-1c0-0.3,0.1-0.7,0.2-1c0.1-0.3,0.3-0.6,0.5-0.8
	c0.2-0.2,0.5-0.4,0.8-0.5c0.3-0.1,0.6-0.2,1-0.2c0.4,0,0.7,0.1,1,0.2c0.3,0.1,0.6,0.3,0.8,0.5c0.2,0.2,0.4,0.5,0.5,0.8
	C99.3,13.7,99.4,14,99.4,14.3"/>
</svg>
