<?xml version="1.0" encoding="utf-8"?>
<!-- Generator: Adobe Illustrator 25.4.1, SVG Export Plug-In . SVG Version: 6.00 Build 0)  -->
<svg version="1.1" id="Capa_1" xmlns="http://www.w3.org/2000/svg" xmlns:xlink="http://www.w3.org/1999/xlink" x="0px" y="0px"
	 viewBox="0 0 135 46" style="enable-background:new 0 0 135 46;" xml:space="preserve">
<style type="text/css">
	.st0{fill:#FFEC00;}
	.st1{fill-rule:evenodd;clip-rule:evenodd;fill:#FFEC00;}
	.st2{fill-rule:evenodd;clip-rule:evenodd;}
	.st3{fill:none;stroke:#000000;stroke-width:0.141;stroke-linejoin:bevel;stroke-miterlimit:22.926;}
	.st4{fill:none;stroke:#000000;stroke-width:0.1491;stroke-miterlimit:22.926;}
</style>
<polygon class="st0" points="50,14.5 52,15.7 54.7,15.5 54.9,16.4 62.7,16.4 67.2,13.9 73.4,16.7 77.5,15.3 75.4,14.2 69.6,8.9 
	68.6,7.6 68,9.2 65.5,6.3 60.1,12.7 58.9,14.2 56.7,12.7 54.2,14.2 53.1,10.9 "/>
<g>
	<path class="st1" d="M97.9,35.1c0-0.1,0-0.2,0-0.2c0,0-0.1-0.1-0.1-0.1c-0.1,0-0.3-0.1-0.4-0.1H97v-0.4h3.2v0.4h-0.5
		c-0.1,0-0.2,0-0.3,0.1c0,0-0.1,0.1-0.1,0.3v4.2c0,0.1,0,0.2,0.1,0.2c0.1,0.1,0.2,0.1,0.4,0.1c0.2,0,0.3,0,0.4,0
		c0.4,0,0.7-0.1,0.9-0.1c0.2-0.1,0.5-0.3,0.6-0.5c0.2-0.3,0.3-0.6,0.4-1.1h0.4l-0.1,2.2H97v-0.4c0.3,0,0.5,0,0.6,0
		c0.1,0,0.2,0,0.2-0.1c0,0,0.1-0.1,0.1-0.3V35.1z M92.4,35.8l-0.8,2h1.6L92.4,35.8z M90.6,38.6l2-4.5h0.6l2.1,5.1
		c0.1,0.1,0.2,0.3,0.3,0.3c0.1,0.1,0.3,0.1,0.5,0.1V40h-2.8v-0.5h0.3c0.2,0,0.4-0.1,0.4-0.2c0-0.1,0-0.1,0-0.2l-0.4-0.9h-2.1
		c-0.1,0.3-0.2,0.5-0.2,0.7c0,0.3,0.3,0.5,0.8,0.5V40h-2.3v-0.4C90,39.5,90.4,39.2,90.6,38.6 M85.6,34.9c0-0.2-0.1-0.2-0.3-0.2
		c-0.3,0-0.5,0.1-0.7,0.3c-0.2,0.2-0.3,0.4-0.4,0.7c-0.1,0.3-0.2,0.5-0.2,0.8h-0.4l0.1-2.2H89l0.1,2.2h-0.4c0-0.3-0.1-0.5-0.2-0.8
		c-0.1-0.3-0.3-0.5-0.5-0.7c-0.2-0.2-0.4-0.3-0.7-0.3c-0.2,0-0.3,0.1-0.3,0.2v4.4c0,0.1,0,0.2,0.1,0.2c0.1,0,0.3,0.1,0.5,0.1
		c0.1,0,0.2,0,0.3,0V40h-3.3v-0.5c0.3,0,0.5,0,0.6,0c0.1,0,0.2,0,0.2-0.1c0,0,0.1-0.1,0.1-0.2V34.9z M76.7,35.1
		c-0.2-0.3-0.5-0.4-0.9-0.4v-0.4h2l3.2,3.7v-2.4c0-0.3-0.1-0.6-0.2-0.7c-0.1-0.1-0.4-0.2-0.7-0.2v-0.4h2.3v0.4
		c-0.3,0-0.4,0.1-0.6,0.2c-0.1,0.1-0.2,0.2-0.2,0.3c0,0.1,0,0.3,0,0.5v4.4h-0.5l-3.8-4.5v3.1c0,0.4,0.1,0.6,0.3,0.7
		c0.1,0.1,0.4,0.2,0.7,0.2V40h-2.3v-0.5c0.2,0,0.4,0,0.5-0.1c0.1,0,0.2-0.1,0.3-0.2c0.1-0.1,0.1-0.3,0.1-0.5V35.1z M69.6,39.2v-4.1
		c0-0.1,0-0.2,0-0.3c0,0-0.1-0.1-0.1-0.1c0,0-0.1,0-0.3,0h-0.4v-0.4l5.4,0l0.1,2.1h-0.4c-0.1-0.2-0.2-0.5-0.3-0.7
		c-0.1-0.2-0.2-0.4-0.4-0.5c-0.1-0.1-0.3-0.3-0.6-0.3c-0.3-0.1-0.6-0.1-0.9-0.1c-0.2,0-0.4,0-0.5,0.1C71.1,34.9,71,35,71,35.1v1.7
		h0.2c0.3,0,0.6-0.1,0.7-0.3c0.2-0.2,0.3-0.5,0.4-0.8h0.4l0,2.8h-0.5c0-0.3-0.1-0.4-0.1-0.6c-0.1-0.2-0.3-0.3-0.4-0.4
		c-0.2-0.1-0.4-0.2-0.7-0.2v1.9c0,0.1,0,0.2,0,0.3c0,0,0.1,0.1,0.2,0.1c0.1,0,0.3,0,0.5,0c0.4,0,0.8-0.1,1.1-0.2
		c0.3-0.1,0.5-0.3,0.6-0.5c0.1-0.2,0.3-0.6,0.4-1l0.4,0L74.2,40h-5.5v-0.5c0.1,0,0.3,0,0.3,0c0.2,0,0.4,0,0.4-0.1
		C69.5,39.4,69.6,39.3,69.6,39.2 M63.3,39.1c0,0.2,0,0.4,0.1,0.4c0,0.1,0.2,0.1,0.4,0.1c0.1,0,0.3,0,0.4,0c0.5,0,0.9-0.2,1.2-0.7
		c0.2-0.4,0.4-1,0.4-1.8c0-0.5-0.1-0.9-0.1-1.2c-0.1-0.3-0.3-0.7-0.5-0.9c-0.3-0.2-0.6-0.3-1-0.3h-0.1c-0.4,0-0.6,0.1-0.6,0.4V39.1z
		 M61.9,39.2v-4c0-0.1,0-0.3,0-0.3c0,0-0.1-0.1-0.1-0.1c-0.1,0-0.2,0-0.4,0H61v-0.5h3.1c0.6,0,1.1,0.1,1.5,0.2
		c0.4,0.1,0.7,0.4,1,0.6c0.3,0.3,0.4,0.6,0.6,0.9c0.1,0.3,0.2,0.7,0.2,1.2c0,0.6-0.1,1.2-0.4,1.6c-0.3,0.4-0.6,0.7-1,0.9
		c-0.4,0.2-1,0.3-1.6,0.3H61v-0.4c0.1,0,0.2,0,0.3,0c0.1,0,0.3,0,0.3,0c0.1,0,0.1-0.1,0.1-0.1C61.9,39.4,61.9,39.3,61.9,39.2"/>
	<rect x="27.5" y="17.2" class="st1" width="80" height="15.8"/>
	<path class="st2" d="M46.7,18.7c0.6-0.4,1.2-0.9,1.8-1.4c0.6-0.5,1.2-1,1.8-1.6c0.1,0.1,0.2,0.2,0.2,0.2c-0.6,0.6-1.1,1.1-1.7,1.6
		c-0.6,0.5-1.2,1-1.8,1.4L46.7,18.7z"/>
	<path d="M73.3,21.2l-2.2-2.3l0.2-0.2l2.3,2.2C73.5,21,73.4,21.1,73.3,21.2"/>
	<path d="M74.6,18.4c-0.9-1.1-1.9-2.2-2.9-3.3c-1-1.2-1.9-2.4-2.9-3.6l0.3-0.2c1,1.2,1.9,2.3,2.9,3.4c1,1.1,2,2.2,3,3.2
		C74.9,18.1,74.8,18.2,74.6,18.4"/>
	<path d="M64.3,13.9c-0.3,0.6-0.6,1.1-0.9,1.6c-0.3,0.5-0.6,1-1,1.4c-0.2-0.1-0.3-0.2-0.4-0.4c0.4-0.4,0.7-0.9,1.1-1.4
		c0.3-0.5,0.7-0.9,1-1.5L64.3,13.9z"/>
	<path d="M56,16.7L56,16.7z M78.9,16.2c1.3,2,2.8,2.8,4.5,3.8c0.4,0.2,0.9,0.5,1.3,0.7l0,0l0,0c0.3,0.5,0.7,0.9,1,1.3
		c0.3,0.4,0.6,0.7,0.9,1.2c0,0,0.1,0.1,0.2,0.1c0.1,0.1,0.3,0.2,0.5,0.3c1.1,0.5,3.1,1.3,4.5,1.5l0,0l0,0c1.3,0.8,2.5,1.5,3.6,2
		c1.2,0.6,2.3,1,3.5,1.5c0.6,0.2,1.2,0.3,1.9,0.4c0.6,0.1,1.2,0.3,1.8,0.4l-0.1,0.3c-0.6-0.2-1.2-0.3-1.8-0.4
		c-0.6-0.1-1.3-0.3-1.9-0.4l0,0c-1.3-0.4-2.4-0.9-3.6-1.5c-1.2-0.6-2.3-1.2-3.6-2c-1.4-0.2-3.5-1-4.6-1.5c-0.2-0.1-0.4-0.2-0.5-0.3
		c-0.1-0.1-0.3-0.1-0.3-0.2l0,0l0,0l0,0c-0.3-0.4-0.6-0.8-0.9-1.2c-0.4-0.4-0.7-0.8-1-1.3c-0.4-0.3-0.9-0.5-1.3-0.7
		c-1.7-0.9-3.1-1.7-4.4-3.5c-0.1-0.1-0.2-0.3-0.3-0.5c-0.1-0.2-0.2-0.4-0.3-0.6c-0.1-0.1-0.2-0.3-0.3-0.4c-0.2,0-0.3,0-0.4,0
		c-0.2,0-0.4,0-0.7,0l0,0l0,0c-1.6-1-3.1-2.2-4.4-3.5c-1.3-1.2-2.5-2.5-3.5-3.7c-0.1,0.2-0.2,0.3-0.3,0.5c-0.1,0.2-0.2,0.4-0.3,0.6
		l0.4,0.5l2.5,3.2l-2.8-3c-0.5-0.6-1-1.2-1.5-1.8C66.4,7.6,66,7,65.5,6.5c-0.9,1.3-1.9,2.6-2.9,3.8c-1.1,1.3-2.2,2.5-3.4,3.6l0,0h0
		L59.1,14l0,0l-0.2,0.1c-0.4,0.4-1,0.9-1.5,1.3c-0.1,0.1-0.3,0.2-0.4,0.4l0,0c-0.7,0.6-0.2,0.2-0.9,0.8l0,0l-0.2-0.2l-0.1-0.1l0,0
		l0,0l0,0l0,0c0.3-0.2,0.6-0.5,0.9-0.8l0.1-0.1c0.6-0.5,1.3-1.1,1.8-1.6c-0.2-0.2-0.4-0.3-0.7-0.5c-0.4-0.3-0.8-0.6-1.2-0.9
		c-0.3,0.3-0.7,0.5-1,0.8v0c-0.3,0.3-0.7,0.5-1,0.8c0.1,0.3,0.3,0.7,0.4,1c0.1,0.2,0.2,0.4,0.2,0.6L55,16.1l-0.2,0v0l0,0
		c-0.1-0.2-0.1-0.4-0.2-0.6c0-0.1-0.1-0.2-0.1-0.3l-0.3-0.9l0,0l0-0.1l0,0l0-0.1c-0.3-0.9-0.7-1.9-1-2.8c-0.7,0.8-1.3,1.5-2,2.3
		c-0.8,0.8-1.6,1.6-2.4,2.4c0,0-0.2,0.2-0.2,0.3c-1.1,1.1-2.3,2.1-3.6,3.1c-1.3,1-2.6,1.9-3.9,2.9l0,0c-1,0.9-2,1.7-3,2.6l0,0l0,0
		c-0.4,0.3-0.8,0.6-1.1,0.9c-0.4,0.3-0.7,0.6-1.2,0.9l0,0l0,0c-0.1,0-0.2,0.1-0.2,0.1c-0.8,0.3-1.6,0.7-2.4,0.8l0-0.3
		c0.7-0.1,1.5-0.4,2.3-0.7l0.2-0.1c0.4-0.3,0.7-0.5,1.1-0.8c0.4-0.3,0.7-0.6,1.1-0.9c1-0.8,2-1.7,3-2.6l0,0l0,0l0,0
		c1.3-0.9,2.7-1.9,3.9-2.9c1.3-1,2.4-2,3.5-3.1c0,0,0,0,0,0c0,0,0.2-0.2,0.2-0.2v0l0,0c0.8-0.8,1.6-1.5,2.3-2.3
		c0.8-0.8,1.5-1.6,2.2-2.5l0.2-0.2l0.1,0.3c0.3,1,0.7,2,1.1,3l0,0c0.3-0.2,0.6-0.5,1-0.7v0c0.4-0.3,0.8-0.6,1.1-0.9l0,0h0l0.1-0.1
		l0.1,0.1c0.4,0.3,0.8,0.6,1.3,0.9c0.2,0.2,0.5,0.4,0.7,0.5l0.2-0.2c1.2-1.2,2.3-2.4,3.4-3.6c1.1-1.3,2.1-2.6,3-4l0.1-0.2l0.1,0.2
		c0.5,0.6,1,1.2,1.5,1.8c0.3,0.3,0.6,0.7,0.9,1.1c0.1-0.2,0.2-0.3,0.3-0.5c0.1-0.3,0.2-0.5,0.4-0.8v0v0l0.1-0.2l0.2,0.2
		c1.1,1.2,2.3,2.6,3.7,3.8c1.3,1.3,2.8,2.5,4.4,3.5c0.3,0,0.4,0,0.6,0c0.2,0,0.3,0,0.5,0l0.1,0l0,0.1c0.1,0.2,0.2,0.3,0.3,0.5
		C78.6,15.8,78.8,16,78.9,16.2"/>
	<polygon class="st2" points="65.7,8.9 65.7,8.9 67.8,11.4 69.7,13.1 69.5,13.2 69.4,13.3 67.5,11.9 67.4,11.8 67.4,11.8 65.4,9.1 
		65.6,9 65.7,8.9 65.7,8.9 	"/>
	<rect x="74.9" y="14.9" transform="matrix(0.7805 -0.6251 0.6251 0.7805 6.6774 50.3544)" width="0.3" height="1.6"/>
	<polygon points="54.3,17.2 55.3,15.3 55.5,14.9 55.6,15.3 56.8,18.8 56.5,18.9 55.4,15.8 54.6,17.4 	"/>
	<path d="M56,19.6L56,19.6L56,19.6c0.2-0.3,0.4-0.6,0.7-0.9c2.1-2.2,4.3-4.3,6-7L63,12l0,0l0,0c-1.7,2.7-3.8,4.9-6,7.1
		c-0.3,0.3-0.5,0.5-0.8,0.8L56,19.6z"/>
	<path class="st2" d="M43.3,23.3"/>
	<path class="st3" d="M43.3,23.3L43.3,23.3z M44.2,25.3L44.2,25.3z"/>
	<path class="st2" d="M43.3,23.3l0.9,2c-0.3-0.3-0.7-0.4-1.2-0.4l-0.9-2C42.5,22.7,43,22.9,43.3,23.3"/>
	<path class="st3" d="M43.3,23.3l0.9,2c-0.3-0.3-0.7-0.4-1.2-0.4l-0.9-2C42.5,22.7,43,22.9,43.3,23.3z"/>
	<polygon class="st2" points="46.3,23.1 47.2,25.1 47.2,25.1 46.3,23.1 	"/>
	<polygon class="st3" points="46.3,23.1 47.2,25.1 47.2,25.1 46.3,23.1 	"/>
	<polygon class="st2" points="46.3,26.6 47.2,28.6 44.2,25.3 43.3,23.3 	"/>
	<polygon class="st3" points="46.3,26.6 47.2,28.6 44.2,25.3 43.3,23.3 	"/>
	<polygon class="st2" points="47.4,22.8 48.3,24.9 48,24.9 47.8,24.9 47.6,24.9 47.5,24.9 47.3,25 47.2,25 47.2,25 47.2,25.1 
		46.3,23.1 46.3,23 46.3,23 46.4,22.9 46.6,22.9 46.7,22.9 46.9,22.9 47.1,22.8 	"/>
	<polygon class="st3" points="47.4,22.8 48.3,24.9 48,24.9 47.8,24.9 47.6,24.9 47.5,24.9 47.3,25 47.2,25 47.2,25 47.2,25.1 
		46.3,23.1 46.3,23 46.3,23 46.4,22.9 46.6,22.9 46.7,22.9 46.9,22.9 47.1,22.8 	"/>
	<polygon class="st2" points="47.4,22.2 48.3,24.3 48.3,24.8 47.4,22.8 	"/>
	<polygon class="st3" points="47.4,22.2 48.3,24.3 48.3,24.8 47.4,22.8 	"/>
	<polygon class="st2" points="46.3,23.2 47.2,25.2 47.3,25.3 46.4,23.3 	"/>
	<polygon class="st3" points="46.3,23.2 47.2,25.2 47.3,25.3 46.4,23.3 	"/>
	<polygon class="st2" points="49,26.4 49.9,28.4 49.9,30.6 49.9,30.7 49.9,30.8 50,30.9 49.1,28.9 49.1,28.8 49,28.7 49,28.6 	"/>
	<polygon class="st3" points="49,26.4 49.9,28.4 49.9,30.6 49.9,30.7 49.9,30.8 50,30.9 49.1,28.9 49.1,28.8 49,28.7 49,28.6 	"/>
	<polygon class="st2" points="50.2,23.3 51.1,25.3 51.1,25.2 51,25.1 50.8,25 50.6,25 50.3,24.9 50.1,24.9 49.7,24.9 48.8,22.9 
		49.2,22.8 49.5,22.9 49.7,22.9 49.9,23 50.1,23.1 50.2,23.2 	"/>
	<polygon class="st3" points="50.2,23.3 51.1,25.3 51.1,25.2 51,25.1 50.8,25 50.6,25 50.3,24.9 50.1,24.9 49.7,24.9 48.8,22.9 
		49.2,22.8 49.5,22.9 49.7,22.9 49.9,23 50.1,23.1 50.2,23.2 	"/>
	<path class="st2" d="M50.2,23.7"/>
	<path class="st3" d="M50.2,23.7L50.2,23.7z M51.1,25.7L51.1,25.7z"/>
	<polygon class="st2" points="50.7,29 51.6,31.1 51.6,31.6 50.7,29.6 	"/>
	<polygon class="st3" points="50.7,29 51.6,31.1 51.6,31.6 50.7,29.6 	"/>
	<polygon class="st2" points="50.7,29.6 51.6,31.7 45.6,31.7 44.7,29.7 	"/>
	<polygon class="st3" points="50.7,29.6 51.6,31.7 45.6,31.7 44.7,29.7 	"/>
	<polygon class="st2" points="53.3,22.2 54.1,24.3 54.1,24.8 53.2,22.8 	"/>
	<polygon class="st3" points="53.3,22.2 54.1,24.3 54.1,24.8 53.2,22.8 	"/>
	<path class="st2" d="M53.2,22.8l0.9,2c-0.6,0-1.5,0.4-1.9,0.9l-2.3,2.7l-0.9-2l2.3-2.7c0.4-0.5,1.2-0.8,1.8-0.9H53.2z"/>
	<path class="st3" d="M53.2,22.8l0.9,2c-0.6,0-1.5,0.4-1.9,0.9l-2.3,2.7l-0.9-2l2.3-2.7c0.4-0.5,1.2-0.8,1.8-0.9H53.2z"/>
	<path class="st2" d="M55.9,23l0.9,2c-0.3-0.2-1.1-0.2-1.6-0.2l-0.9-2C54.6,22.9,55.5,22.8,55.9,23"/>
	<path class="st3" d="M55.9,23l0.9,2c-0.3-0.2-1.1-0.2-1.6-0.2l-0.9-2C54.6,22.9,55.5,22.8,55.9,23z"/>
	<path class="st2" d="M58.6,26.1l0.9,2v2.4v0.1l0,0.1l0,0.1v0l-0.9-2c0-0.1,0-0.2,0-0.4V26.1z"/>
	<path class="st3" d="M58.6,26.1l0.9,2v2.4v0.1l0,0.1l0,0.1v0l-0.9-2c0-0.1,0-0.2,0-0.4V26.1z"/>
	<path class="st2" d="M63.4,24.4l0.9,2l0-0.1c-0.6-0.9-1.4-1.1-2.4-1.4c-0.6-0.1-1.8-0.2-2.2,0.2c-0.1,0.1-0.1,0.2-0.1,0.3v2.2
		l-0.9-2v-2.2c0.1-0.8,1.6-0.6,2.1-0.5C61.8,23,62.9,23.4,63.4,24.4"/>
	<path class="st3" d="M63.4,24.4l0.9,2l0-0.1c-0.6-0.9-1.4-1.1-2.4-1.4c-0.6-0.1-1.8-0.2-2.2,0.2c-0.1,0.1-0.1,0.2-0.1,0.3v2.2
		l-0.9-2v-2.2c0.1-0.8,1.6-0.6,2.1-0.5C61.8,23,62.9,23.4,63.4,24.4z"/>
	<path class="st2" d="M60.7,27l0.9,2L61.6,29l0-0.1c-0.3-0.6-1.4-0.8-2-0.8l-0.9-2C59.6,26.1,60.2,26.3,60.7,27"/>
	<path class="st3" d="M60.7,27l0.9,2L61.6,29l0-0.1c-0.3-0.6-1.4-0.8-2-0.8l-0.9-2C59.6,26.1,60.2,26.3,60.7,27z"/>
	<polygon class="st2" points="61.7,24.1 62.6,26.2 62.7,29.7 61.8,27.7 	"/>
	<polygon class="st3" points="61.7,24.1 62.6,26.2 62.7,29.7 61.8,27.7 	"/>
	<polygon class="st2" points="60.8,27.3 61.7,29.3 61.7,29.2 60.8,27.2 	"/>
	<polygon class="st3" points="60.8,27.3 61.7,29.3 61.7,29.2 60.8,27.2 	"/>
	<polygon class="st2" points="61.8,27.7 62.7,29.7 61.8,29.7 60.9,27.7 	"/>
	<polygon class="st3" points="61.8,27.7 62.7,29.7 61.8,29.7 60.9,27.7 	"/>
	<polygon class="st2" points="63.5,24.6 64.4,26.6 64.3,26.5 63.5,24.5 	"/>
	<polygon class="st3" points="63.5,24.6 64.4,26.6 64.3,26.5 63.5,24.5 	"/>
	<polygon class="st2" points="64.4,22.2 65.2,24.3 65.4,27 64.5,25 	"/>
	<polygon class="st3" points="64.4,22.2 65.2,24.3 65.4,27 64.5,25 	"/>
	<polygon class="st2" points="64.5,25 65.4,27 64.6,27 63.7,25 	"/>
	<polygon class="st3" points="64.5,25 65.4,27 64.6,27 63.7,25 	"/>
	<polygon class="st2" points="64.5,29.6 65.4,31.7 55.2,31.7 54.3,29.7 	"/>
	<polygon class="st3" points="64.5,29.6 65.4,31.7 55.2,31.7 54.3,29.7 	"/>
	<polygon class="st2" points="64.6,27 65.5,29 65.4,31.6 64.5,29.6 	"/>
	<polygon class="st3" points="64.6,27 65.5,29 65.4,31.6 64.5,29.6 	"/>
	<polygon class="st2" points="66.3,25.1 67.2,27.1 66.5,27.1 65.7,25.1 	"/>
	<polygon class="st3" points="66.3,25.1 67.2,27.1 66.5,27.1 65.7,25.1 	"/>
	<path class="st2" d="M69.4,23.1l0.9,2l0-0.1l-0.1-0.1c-0.7-0.2-1.5,0-2,0.6c-0.4,0.4-0.8,1-0.9,1.6l-0.9-2c0.1-0.6,0.6-1.4,1.1-1.8
		c0.5-0.4,1.2-0.5,1.8-0.4L69.4,23.1L69.4,23.1z"/>
	<path class="st3" d="M69.4,23.1l0.9,2l0-0.1l-0.1-0.1c-0.7-0.2-1.5,0-2,0.6c-0.4,0.4-0.8,1-0.9,1.6l-0.9-2c0.1-0.6,0.6-1.4,1.1-1.8
		c0.5-0.4,1.2-0.5,1.8-0.4L69.4,23.1L69.4,23.1z"/>
	<polygon class="st2" points="73.8,29 74.7,31.1 74.7,31.6 73.8,29.6 	"/>
	<polygon class="st3" points="73.8,29 74.7,31.1 74.7,31.6 73.8,29.6 	"/>
	<path class="st2" d="M74.8,24.2l0.9,2l-0.1-0.1c-0.3-0.6-0.8-1-1.4-1.1c-0.4-0.1-0.7-0.1-1.1,0C73.1,24.9,73,25,73,25
		c0,0,0,0.1,0,0.1v5.6l0,0.1l-0.9-2l0-0.1v-5.6l0-0.1l0.1-0.1l0.2,0l0.2,0h0.2l0.2,0l0.2,0l0.2,0l0.2,0l0.1,0l0.2,0.1l0.1,0.1
		l0.1,0.1l0.1,0.1l0.1,0.1l0.1,0.1l0.1,0.1l0.1,0.1l0.1,0.1l0.1,0.1L74.8,24.2z"/>
	<path class="st3" d="M74.8,24.2l0.9,2l-0.1-0.1c-0.3-0.6-0.8-1-1.4-1.1c-0.4-0.1-0.7-0.1-1.1,0C73.1,24.9,73,25,73,25
		c0,0,0,0.1,0,0.1v5.6l0,0.1l-0.9-2l0-0.1v-5.6l0-0.1l0.1-0.1l0.2,0l0.2,0h0.2l0.2,0l0.2,0l0.2,0l0.2,0l0.1,0l0.2,0.1l0.1,0.1
		l0.1,0.1l0.1,0.1l0.1,0.1l0.1,0.1l0.1,0.1l0.1,0.1l0.1,0.1l0.1,0.1L74.8,24.2z"/>
	<polygon class="st2" points="73.8,29.6 74.7,31.7 68.6,31.7 67.7,29.7 	"/>
	<polygon class="st3" points="73.8,29.6 74.7,31.7 68.6,31.7 67.7,29.7 	"/>
	<polygon class="st2" points="75,24.6 75.9,26.6 75.9,26.5 75.8,26.3 74.9,24.3 75,24.4 	"/>
	<polygon class="st3" points="75,24.6 75.9,26.6 75.9,26.5 75.8,26.3 74.9,24.3 75,24.4 	"/>
	<polygon class="st2" points="75.8,22.2 76.6,24.3 76.9,27.1 76,25.1 	"/>
	<polygon class="st3" points="75.8,22.2 76.6,24.3 76.9,27.1 76,25.1 	"/>
	<polygon class="st2" points="76,25.1 76.9,27.1 76.1,27.1 75.2,25.1 	"/>
	<polygon class="st3" points="76,25.1 76.9,27.1 76.1,27.1 75.2,25.1 	"/>
	<path class="st2" d="M78,23l0.9,2l0,0l-0.1,0l-0.1,0l-0.1,0h-0.1l-0.1,0h-0.1H78h-0.5l-0.9-2C77,22.8,77.6,22.8,78,23"/>
	<path class="st3" d="M78,23l0.9,2l0,0l-0.1,0l-0.1,0l-0.1,0h-0.1l-0.1,0h-0.1H78h-0.5l-0.9-2C77,22.8,77.6,22.8,78,23z"/>
	<polygon class="st2" points="78.1,23.1 79,25.1 79,25 78.9,25 78,23 78.1,23 	"/>
	<polygon class="st3" points="78.1,23.1 79,25.1 79,25 78.9,25 78,23 78.1,23 	"/>
	<path class="st2" d="M81,23l0.9,2c-0.1,0.1-0.1,0.2-0.1,0.3v5.4l0,0.1l0,0.1l-0.9-2l0-0.1l0-0.1v-5.4l0-0.1l0-0.1L81,23L81,23z"/>
	<path class="st3" d="M81,23l0.9,2c-0.1,0.1-0.1,0.2-0.1,0.3v5.4l0,0.1l0,0.1l-0.9-2l0-0.1l0-0.1v-5.4l0-0.1l0-0.1L81,23L81,23z"/>
	<polygon class="st2" points="82.4,22.2 83.3,24.3 83.3,24.8 82.4,22.8 	"/>
	<polygon class="st3" points="82.4,22.2 83.3,24.3 83.3,24.8 82.4,22.8 	"/>
	<path class="st2" d="M82.4,22.8l0.9,2c-0.3,0-0.5,0-0.8,0c-0.2,0-0.6,0-0.7,0.2L81,23c0.1-0.2,0.7-0.2,0.8-0.2H82.4z"/>
	<path class="st3" d="M82.4,22.8l0.9,2c-0.3,0-0.5,0-0.8,0c-0.2,0-0.6,0-0.7,0.2L81,23c0.1-0.2,0.7-0.2,0.8-0.2H82.4z"/>
	<polygon class="st2" points="82.4,29 83.3,31.1 83.3,31.6 82.4,29.6 	"/>
	<polygon class="st3" points="82.4,29 83.3,31.1 83.3,31.6 82.4,29.6 	"/>
	<polygon class="st2" points="82.4,29.6 83.3,31.7 77.5,31.7 76.6,29.7 	"/>
	<polygon class="st3" points="82.4,29.6 83.3,31.7 77.5,31.7 76.6,29.7 	"/>
	<path class="st1" d="M78.2,28.6v-5.2c0-0.2-0.1-0.3-0.2-0.4c-0.1-0.1-0.5-0.1-0.9-0.1h-0.5v-0.6h5.8v0.6c-0.4,0-1,0-1.1,0
		c-0.2,0-0.4,0.1-0.4,0.4v5.4c0,0.2,0.1,0.3,0.2,0.3c0.1,0,0.4,0.1,0.8,0.1h0.5v0.6h-5.8v-0.6h0.5c0.4,0,0.7,0,0.9-0.1
		C78.1,29,78.2,28.8,78.2,28.6L78.2,28.6z M69.4,23.1c0-0.1-0.2-0.3-0.6-0.3c-0.5,0-0.9,0.1-1.3,0.4c-0.3,0.2-0.6,0.6-0.8,0.9
		c-0.2,0.3-0.4,0.7-0.4,1h-0.7l0.2-2.8h9.9l0.2,2.8h-0.8c-0.1-0.3-0.3-0.7-0.4-1c-0.2-0.3-0.5-0.7-0.8-0.9c-0.4-0.2-0.9-0.4-1.3-0.4
		c-0.4,0-0.5,0.1-0.5,0.3v5.5c0,0.1,0.1,0.3,0.2,0.3c0.1,0.1,0.2,0.1,0.4,0.1c0.4,0,0.8,0,1.2,0v0.6h-6.1v-0.6h1.1
		c0.3,0,0.4-0.1,0.5-0.1c0.1,0,0.1-0.2,0.1-0.3V23.1z M55.9,28.6v-5.2c0-0.2,0-0.3,0-0.3c-0.2-0.2-1.3-0.2-1.6-0.2v-0.5l10,0
		l0.1,2.7h-0.8c-0.3-0.7-0.5-1.1-1.1-1.5c-0.8-0.5-1.8-0.6-2.7-0.6c-0.4,0-0.7,0-0.9,0.1c-0.2,0.1-0.3,0.3-0.3,0.4v2.2h0.3
		c0.5,0,1-0.1,1.4-0.4c0.4-0.3,0.6-0.7,0.7-1.1h0.8l0,3.5H61c0-0.3-0.2-0.6-0.3-0.8c-0.1-0.2-0.4-0.4-0.8-0.6
		c-0.4-0.1-0.8-0.2-1.3-0.2v2.5c0,0.2,0,0.3,0,0.3C58.7,29,58.9,29,59,29c0.1,0,0.5,0,0.9,0c0.8,0,1.5-0.1,2-0.2
		c0.5-0.2,1-0.4,1.2-0.7c0.2-0.3,0.6-0.7,0.9-1.2l0.7,0l-0.1,2.7H54.3v-0.6c0.5,0,0.9,0,1.4,0C55.8,28.9,55.9,28.8,55.9,28.6
		 M43.3,23.3L43.3,23.3c-0.3-0.3-0.6-0.4-1-0.4h-0.2v-0.6h5.3v0.6c-0.7,0-1.1,0.1-1.1,0.2c0,0,0,0,0,0.1c0,0,0,0.1,0.1,0.1l2.1,2.4
		l1.7-2c0,0,0,0,0-0.1c0,0,0-0.1,0-0.2c0-0.4-0.5-0.6-1.4-0.6v-0.6h4.4v0.6c-0.4,0-0.7,0.1-1.1,0.3c-0.4,0.2-0.7,0.4-0.8,0.6
		L49,26.4v2.2c0,0.2,0.1,0.3,0.1,0.3c0,0,0.2,0.1,0.3,0.1c0.2,0,0.6,0,1.2,0v0.6h-6v-0.6h0.6h0.5c0.1,0,0.3-0.1,0.4-0.1
		c0.1,0,0.1-0.2,0.1-0.3v-2.1L43.3,23.3z"/>
	<path class="st4" d="M78.2,28.6v-5.2c0-0.2-0.1-0.3-0.2-0.4c-0.1-0.1-0.5-0.1-0.9-0.1h-0.5v-0.6h5.8v0.6c-0.4,0-1,0-1.1,0
		c-0.2,0-0.4,0.1-0.4,0.4v5.4c0,0.2,0.1,0.3,0.2,0.3c0.1,0,0.4,0.1,0.8,0.1h0.5v0.6h-5.8v-0.6h0.5c0.4,0,0.7,0,0.9-0.1
		C78.1,29,78.2,28.8,78.2,28.6L78.2,28.6z M69.4,23.1c0-0.1-0.2-0.3-0.6-0.3c-0.5,0-0.9,0.1-1.3,0.4c-0.3,0.2-0.6,0.6-0.8,0.9
		c-0.2,0.3-0.4,0.7-0.4,1h-0.7l0.2-2.8h9.9l0.2,2.8h-0.8c-0.1-0.3-0.3-0.7-0.4-1c-0.2-0.3-0.5-0.7-0.8-0.9c-0.4-0.2-0.9-0.4-1.3-0.4
		c-0.4,0-0.5,0.1-0.5,0.3v5.5c0,0.1,0.1,0.3,0.2,0.3c0.1,0.1,0.2,0.1,0.4,0.1c0.4,0,0.8,0,1.2,0v0.6h-6.1v-0.6h1.1
		c0.3,0,0.4-0.1,0.5-0.1c0.1,0,0.1-0.2,0.1-0.3V23.1z M55.9,28.6v-5.2c0-0.2,0-0.3,0-0.3c-0.2-0.2-1.3-0.2-1.6-0.2v-0.5l10,0
		l0.1,2.7h-0.8c-0.3-0.7-0.5-1.1-1.1-1.5c-0.8-0.5-1.8-0.6-2.7-0.6c-0.4,0-0.7,0-0.9,0.1c-0.2,0.1-0.3,0.3-0.3,0.4v2.2h0.3
		c0.5,0,1-0.1,1.4-0.4c0.4-0.3,0.6-0.7,0.7-1.1h0.8l0,3.5H61c0-0.3-0.2-0.6-0.3-0.8c-0.1-0.2-0.4-0.4-0.8-0.6
		c-0.4-0.1-0.8-0.2-1.3-0.2v2.5c0,0.2,0,0.3,0,0.3C58.7,29,58.9,29,59,29c0.1,0,0.5,0,0.9,0c0.8,0,1.5-0.1,2-0.2
		c0.5-0.2,1-0.4,1.2-0.7c0.2-0.3,0.6-0.7,0.9-1.2l0.7,0l-0.1,2.7H54.3v-0.6c0.5,0,0.9,0,1.4,0C55.8,28.9,55.9,28.8,55.9,28.6z
		 M43.3,23.3L43.3,23.3c-0.3-0.3-0.6-0.4-1-0.4h-0.2v-0.6h5.3v0.6c-0.7,0-1.1,0.1-1.1,0.2c0,0,0,0,0,0.1c0,0,0,0.1,0.1,0.1l2.1,2.4
		l1.7-2c0,0,0,0,0-0.1c0,0,0-0.1,0-0.2c0-0.4-0.5-0.6-1.4-0.6v-0.6h4.4v0.6c-0.4,0-0.7,0.1-1.1,0.3c-0.4,0.2-0.7,0.4-0.8,0.6
		L49,26.4v2.2c0,0.2,0.1,0.3,0.1,0.3c0,0,0.2,0.1,0.3,0.1c0.2,0,0.6,0,1.2,0v0.6h-6v-0.6h0.6h0.5c0.1,0,0.3-0.1,0.4-0.1
		c0.1,0,0.1-0.2,0.1-0.3v-2.1L43.3,23.3z"/>
</g>
</svg>
