<?xml version="1.0" encoding="utf-8"?>
<!-- Generator: Adobe Illustrator 25.4.1, SVG Export Plug-In . SVG Version: 6.00 Build 0)  -->
<svg version="1.1" id="Capa_1" xmlns="http://www.w3.org/2000/svg" xmlns:xlink="http://www.w3.org/1999/xlink" x="0px" y="0px"
	 viewBox="0 0 136 46" style="enable-background:new 0 0 136 46;" xml:space="preserve">
<style type="text/css">
	.st0{fill:#FFED00;}
</style>
<g>
	<g>
		<g>
			<path class="st0" d="M39.4,31.7l-0.3,1.2c0,0,0,0.1-0.1,0.1c0,0,0,0-0.1,0h-0.3c0,0-0.1,0-0.1,0c0,0,0-0.1,0-0.1L38,30.3
				c0,0,0,0,0,0c0,0,0-0.1,0-0.1c0,0,0,0,0.1,0h0.3c0,0,0.1,0,0.1,0c0,0,0,0,0,0.1l0.3,1.7l0.3-1.1c0,0,0,0,0-0.1c0,0,0.1,0,0.1,0
				h0.3c0,0,0.1,0,0.1,0c0,0,0,0.1,0,0.1L40,32l0.3-1.7c0,0,0-0.1,0-0.1c0,0,0,0,0.1,0h0.3c0,0,0.1,0,0.1,0c0,0,0,0,0,0.1
				c0,0,0,0,0,0l-0.5,2.6c0,0,0,0.1,0,0.1c0,0-0.1,0-0.1,0h-0.3c0,0-0.1,0-0.1,0c0,0,0-0.1-0.1-0.1L39.4,31.7z"/>
			<path class="st0" d="M44.1,32.5C44.2,32.5,44.2,32.5,44.1,32.5c0.1,0.1,0.1,0.1,0.1,0.1v0.3c0,0,0,0.1,0,0.1c0,0,0,0-0.1,0h-1.8
				c0,0-0.1,0-0.1,0c0,0,0,0,0-0.1v-2.7c0,0,0-0.1,0-0.1c0,0,0,0,0.1,0h1.7c0,0,0.1,0,0.1,0c0,0,0,0,0,0.1v0.3c0,0,0,0.1,0,0.1
				c0,0,0,0-0.1,0h-1.3v0.7H44c0,0,0.1,0,0.1,0c0,0,0,0,0,0.1v0.3c0,0,0,0.1,0,0.1c0,0,0,0-0.1,0h-1.2v0.7H44.1z"/>
			<path class="st0" d="M49.3,30.2C49.4,30.2,49.4,30.2,49.3,30.2c0.1,0.1,0.1,0.1,0.1,0.1v0.3c0,0,0,0.1,0,0.1c0,0,0,0-0.1,0h-0.7
				v2.3c0,0,0,0.1,0,0.1c0,0,0,0-0.1,0h-0.3c0,0-0.1,0-0.1,0c0,0,0,0,0-0.1v-2.3h-0.7c0,0-0.1,0-0.1,0c0,0,0,0,0-0.1v-0.3
				c0,0,0-0.1,0-0.1c0,0,0,0,0.1,0H49.3z"/>
			<path class="st0" d="M52.1,32l-0.4-1.2L51.2,32H52.1z M51.8,30.2C51.9,30.2,51.9,30.2,51.8,30.2c0.1,0.1,0.1,0.1,0.2,0.1l1,2.6
				c0,0,0,0,0,0c0,0,0,0.1,0,0.1c0,0,0,0-0.1,0h-0.3c-0.1,0-0.1,0-0.1,0c0,0,0,0,0-0.1l-0.2-0.5H51l-0.2,0.5c0,0,0,0,0,0.1
				c0,0-0.1,0-0.1,0h-0.3c0,0-0.1,0-0.1,0c0,0,0,0,0-0.1c0,0,0,0,0,0l1-2.6c0,0,0-0.1,0.1-0.1c0,0,0.1,0,0.1,0H51.8z"/>
			<path class="st0" d="M56.4,32.9C56.4,32.9,56.4,32.9,56.4,32.9C56.4,32.9,56.4,32.9,56.4,32.9c0,0.1,0,0.1,0,0.1c0,0,0,0-0.1,0
				H56c-0.1,0-0.1,0-0.1,0c0,0-0.1,0-0.1-0.1l-0.9-1.1v1.1c0,0,0,0.1,0,0.1c0,0,0,0-0.1,0h-0.3c0,0-0.1,0-0.1,0c0,0,0,0,0-0.1v-2.7
				c0,0,0-0.1,0-0.1c0,0,0,0,0.1,0h0.3c0,0,0.1,0,0.1,0c0,0,0,0,0,0.1v1l0.9-1c0,0,0,0,0.1-0.1c0,0,0.1,0,0.1,0h0.4c0,0,0.1,0,0.1,0
				c0,0,0,0,0,0.1c0,0,0,0,0,0.1l-1.1,1.2L56.4,32.9z"/>
			<path class="st0" d="M59.6,32.5C59.6,32.5,59.7,32.5,59.6,32.5c0.1,0.1,0.1,0.1,0.1,0.1v0.3c0,0,0,0.1,0,0.1c0,0,0,0-0.1,0h-1.8
				c0,0-0.1,0-0.1,0c0,0,0,0,0-0.1v-2.7c0,0,0-0.1,0-0.1c0,0,0,0,0.1,0h1.7c0,0,0.1,0,0.1,0c0,0,0,0,0,0.1v0.3c0,0,0,0.1,0,0.1
				c0,0,0,0-0.1,0h-1.3v0.7h1.2c0,0,0.1,0,0.1,0c0,0,0,0,0,0.1v0.3c0,0,0,0.1,0,0.1c0,0,0,0-0.1,0h-1.2v0.7H59.6z"/>
			<path class="st0" d="M64.8,32.1C64.8,32.1,64.8,32.1,64.8,32.1c0.1-0.1,0.1-0.1,0.1-0.1h0.3c0,0,0.1,0,0.1,0c0,0,0,0,0,0.1
				c0,0.1,0,0.2-0.1,0.3c0,0.1-0.1,0.2-0.2,0.3c-0.1,0.1-0.2,0.2-0.4,0.2c-0.1,0.1-0.3,0.1-0.5,0.1c-0.2,0-0.3,0-0.5-0.1
				c-0.1-0.1-0.3-0.1-0.4-0.2c-0.1-0.1-0.2-0.2-0.2-0.4C63,32.3,63,32.1,63,31.9c0-0.1,0-0.2,0-0.3c0-0.1,0-0.2,0-0.3
				c0-0.2,0-0.3,0.1-0.5c0.1-0.1,0.1-0.3,0.2-0.4c0.1-0.1,0.2-0.2,0.4-0.2c0.1-0.1,0.3-0.1,0.5-0.1c0.2,0,0.4,0,0.5,0.1
				c0.1,0.1,0.3,0.1,0.4,0.2c0.1,0.1,0.2,0.2,0.2,0.3c0,0.1,0.1,0.2,0.1,0.3c0,0,0,0.1,0,0.1c0,0,0,0-0.1,0h-0.3c0,0-0.1,0-0.1,0
				c0,0,0,0,0-0.1c0-0.1,0-0.1-0.1-0.2c0-0.1-0.1-0.1-0.1-0.1c-0.1,0-0.1-0.1-0.2-0.1c-0.1,0-0.2,0-0.3,0c-0.1,0-0.2,0-0.3,0.1
				c-0.1,0-0.1,0.1-0.2,0.1c-0.1,0.1-0.1,0.1-0.1,0.2c0,0.1,0,0.2,0,0.2c0,0.1,0,0.2,0,0.3c0,0.1,0,0.2,0,0.3c0,0.1,0,0.2,0,0.2
				c0,0.1,0.1,0.1,0.1,0.2c0.1,0.1,0.1,0.1,0.2,0.1c0.1,0,0.2,0,0.3,0c0.1,0,0.2,0,0.3,0c0.1,0,0.1-0.1,0.2-0.1
				c0.1,0,0.1-0.1,0.1-0.1C64.7,32.2,64.8,32.2,64.8,32.1"/>
			<path class="st0" d="M68.2,32l-0.4-1.2L67.4,32H68.2z M68,30.2C68.1,30.2,68.1,30.2,68,30.2c0.1,0.1,0.1,0.1,0.2,0.1l1,2.6
				c0,0,0,0,0,0c0,0,0,0.1,0,0.1c0,0,0,0-0.1,0h-0.3c-0.1,0-0.1,0-0.1,0c0,0,0,0,0-0.1l-0.2-0.5h-1.3L67,32.9c0,0,0,0,0,0.1
				c0,0-0.1,0-0.1,0h-0.3c0,0-0.1,0-0.1,0c0,0,0,0,0-0.1c0,0,0,0,0,0l1-2.6c0,0,0-0.1,0.1-0.1c0,0,0.1,0,0.1,0H68z"/>
			<path class="st0" d="M71,31.5h0.6c0.2,0,0.3,0,0.4-0.1c0.1-0.1,0.1-0.2,0.1-0.3c0-0.2,0-0.3-0.1-0.3c-0.1-0.1-0.2-0.1-0.4-0.1H71
				V31.5z M71.6,30.2c0.3,0,0.6,0.1,0.8,0.2c0.2,0.2,0.3,0.4,0.3,0.7c0,0.2,0,0.4-0.1,0.5c-0.1,0.1-0.2,0.2-0.4,0.3l0.6,1
				c0,0,0,0,0,0c0,0,0,0,0,0.1c0,0,0,0-0.1,0h-0.3c-0.1,0-0.1,0-0.1,0c0,0,0-0.1-0.1-0.1l-0.5-1H71v1c0,0,0,0.1,0,0.1c0,0,0,0-0.1,0
				h-0.3c0,0-0.1,0-0.1,0c0,0,0,0,0-0.1v-2.7c0,0,0-0.1,0-0.1c0,0,0,0,0.1,0H71.6z"/>
			<path class="st0" d="M76,32.5C76,32.5,76,32.5,76,32.5c0.1,0.1,0.1,0.1,0.1,0.1v0.3c0,0,0,0.1,0,0.1c0,0,0,0-0.1,0h-1.8
				c0,0-0.1,0-0.1,0c0,0,0,0,0-0.1v-2.7c0,0,0-0.1,0-0.1c0,0,0,0,0.1,0h1.7c0,0,0.1,0,0.1,0c0,0,0,0,0,0.1v0.3c0,0,0,0.1,0,0.1
				c0,0,0,0-0.1,0h-1.3v0.7h1.2c0,0,0.1,0,0.1,0c0,0,0,0,0,0.1v0.3c0,0,0,0.1,0,0.1c0,0,0,0-0.1,0h-1.2v0.7H76z"/>
			<path class="st0" d="M81.1,31.2c0-0.2-0.1-0.4-0.2-0.5c-0.1-0.1-0.3-0.2-0.4-0.2c-0.2,0-0.3,0.1-0.4,0.2
				c-0.1,0.1-0.2,0.3-0.2,0.5c0,0.1,0,0.2,0,0.3c0,0.1,0,0.2,0,0.3c0,0.2,0.1,0.4,0.2,0.5c0.1,0.1,0.3,0.2,0.4,0.2
				c0.2,0,0.3-0.1,0.4-0.2c0.1-0.1,0.2-0.3,0.2-0.5c0-0.1,0-0.2,0-0.3C81.1,31.5,81.1,31.4,81.1,31.2 M79.3,31.2
				c0-0.2,0-0.3,0.1-0.4c0-0.1,0.1-0.3,0.2-0.4c0.1-0.1,0.2-0.2,0.4-0.2c0.1-0.1,0.3-0.1,0.5-0.1c0.2,0,0.4,0,0.5,0.1
				c0.1,0.1,0.3,0.1,0.4,0.2c0.1,0.1,0.2,0.2,0.2,0.4c0.1,0.1,0.1,0.3,0.1,0.4c0,0.1,0,0.1,0,0.2c0,0.1,0,0.1,0,0.2
				c0,0.1,0,0.1,0,0.2c0,0.1,0,0.1,0,0.2c0,0.2,0,0.3-0.1,0.4c0,0.1-0.1,0.3-0.2,0.4c-0.1,0.1-0.2,0.2-0.4,0.2
				c-0.1,0.1-0.3,0.1-0.5,0.1c-0.2,0-0.4,0-0.5-0.1s-0.3-0.1-0.4-0.2c-0.1-0.1-0.2-0.2-0.2-0.4c0-0.1-0.1-0.3-0.1-0.4
				c0-0.1,0-0.1,0-0.2c0-0.1,0-0.1,0-0.2c0-0.1,0-0.1,0-0.2C79.3,31.3,79.3,31.3,79.3,31.2"/>
			<path class="st0" d="M85,30.2C85,30.2,85,30.2,85,30.2c0.1,0.1,0.1,0.1,0.1,0.1v0.3c0,0,0,0.1,0,0.1c0,0,0,0-0.1,0h-1.3v0.8h1.2
				c0,0,0.1,0,0.1,0c0,0,0,0,0,0.1v0.3c0,0,0,0.1,0,0.1c0,0,0,0-0.1,0h-1.2v0.9c0,0,0,0.1,0,0.1c0,0,0,0-0.1,0h-0.3c0,0-0.1,0-0.1,0
				c0,0,0,0,0-0.1v-2.7c0,0,0-0.1,0-0.1c0,0,0,0,0.1,0H85z"/>
			<path class="st0" d="M90.3,30.2C90.3,30.2,90.4,30.2,90.3,30.2c0.1,0.1,0.1,0.1,0.1,0.1c0,0,0,0,0,0L89.5,32v0.9c0,0,0,0.1,0,0.1
				c0,0,0,0-0.1,0H89c0,0-0.1,0-0.1,0c0,0,0,0,0-0.1V32L88,30.3c0,0,0,0,0,0c0,0,0-0.1,0-0.1c0,0,0,0,0.1,0h0.3c0.1,0,0.1,0,0.1,0
				c0,0,0,0,0,0.1l0.6,1.2l0.6-1.2c0,0,0,0,0-0.1c0,0,0.1,0,0.1,0H90.3z"/>
			<path class="st0" d="M93.4,31.2c0-0.2-0.1-0.4-0.2-0.5c-0.1-0.1-0.3-0.2-0.4-0.2c-0.2,0-0.3,0.1-0.4,0.2
				c-0.1,0.1-0.2,0.3-0.2,0.5c0,0.1,0,0.2,0,0.3c0,0.1,0,0.2,0,0.3c0,0.2,0.1,0.4,0.2,0.5c0.1,0.1,0.3,0.2,0.4,0.2
				c0.2,0,0.3-0.1,0.4-0.2c0.1-0.1,0.2-0.3,0.2-0.5c0-0.1,0-0.2,0-0.3C93.4,31.5,93.4,31.4,93.4,31.2 M91.6,31.2
				c0-0.2,0-0.3,0.1-0.4c0-0.1,0.1-0.3,0.2-0.4c0.1-0.1,0.2-0.2,0.4-0.2c0.1-0.1,0.3-0.1,0.5-0.1c0.2,0,0.4,0,0.5,0.1
				c0.1,0.1,0.3,0.1,0.4,0.2c0.1,0.1,0.2,0.2,0.2,0.4c0.1,0.1,0.1,0.3,0.1,0.4c0,0.1,0,0.1,0,0.2c0,0.1,0,0.1,0,0.2
				c0,0.1,0,0.1,0,0.2c0,0.1,0,0.1,0,0.2c0,0.2,0,0.3-0.1,0.4c0,0.1-0.1,0.3-0.2,0.4c-0.1,0.1-0.2,0.2-0.4,0.2
				c-0.1,0.1-0.3,0.1-0.5,0.1c-0.2,0-0.4,0-0.5-0.1c-0.1-0.1-0.3-0.1-0.4-0.2c-0.1-0.1-0.2-0.2-0.2-0.4c0-0.1-0.1-0.3-0.1-0.4
				c0-0.1,0-0.1,0-0.2c0-0.1,0-0.1,0-0.2c0-0.1,0-0.1,0-0.2C91.6,31.3,91.6,31.3,91.6,31.2"/>
			<path class="st0" d="M97.6,30.2C97.6,30.2,97.6,30.2,97.6,30.2c0.1,0.1,0.1,0.1,0.1,0.1V32c0,0.2,0,0.3-0.1,0.5
				c0,0.1-0.1,0.3-0.2,0.4c-0.1,0.1-0.2,0.2-0.4,0.2c-0.1,0.1-0.3,0.1-0.5,0.1c-0.2,0-0.4,0-0.5-0.1c-0.1-0.1-0.3-0.1-0.4-0.2
				c-0.1-0.1-0.2-0.2-0.2-0.4c0-0.1-0.1-0.3-0.1-0.5v-1.7c0,0,0-0.1,0-0.1c0,0,0,0,0.1,0h0.3c0,0,0.1,0,0.1,0c0,0,0,0,0,0.1v1.7
				c0,0.1,0,0.2,0,0.3c0,0.1,0.1,0.1,0.1,0.2c0.1,0.1,0.1,0.1,0.2,0.1c0.1,0,0.2,0,0.2,0c0.1,0,0.2,0,0.2,0c0.1,0,0.1-0.1,0.2-0.1
				c0.1-0.1,0.1-0.1,0.1-0.2c0-0.1,0-0.2,0-0.3v-1.7c0,0,0-0.1,0-0.1c0,0,0,0,0.1,0H97.6z"/>
			<path class="st0" d="M99.8,31.5h0.6c0.2,0,0.3,0,0.4-0.1c0.1-0.1,0.1-0.2,0.1-0.3c0-0.2,0-0.3-0.1-0.3c-0.1-0.1-0.2-0.1-0.4-0.1
				h-0.6V31.5z M100.4,30.2c0.3,0,0.6,0.1,0.8,0.2c0.2,0.2,0.3,0.4,0.3,0.7c0,0.2,0,0.4-0.1,0.5c-0.1,0.1-0.2,0.2-0.4,0.3l0.6,1
				c0,0,0,0,0,0c0,0,0,0,0,0.1c0,0,0,0-0.1,0H101c-0.1,0-0.1,0-0.1,0c0,0,0-0.1-0.1-0.1l-0.5-1h-0.5v1c0,0,0,0.1,0,0.1
				c0,0,0,0-0.1,0h-0.3c0,0-0.1,0-0.1,0c0,0,0,0,0-0.1v-2.7c0,0,0-0.1,0-0.1c0,0,0,0,0.1,0H100.4z"/>
			<path class="st0" d="M105.7,30.1c0.2,0,0.3,0,0.5,0.1c0.1,0,0.2,0.1,0.3,0.2c0.1,0.1,0.2,0.2,0.2,0.2c0,0.1,0.1,0.2,0.1,0.3
				c0,0,0,0.1,0,0.1c0,0,0,0-0.1,0h-0.3c0,0-0.1,0-0.1,0c0,0,0,0-0.1-0.1c0-0.1-0.1-0.1-0.2-0.2c-0.1-0.1-0.2-0.1-0.4-0.1
				c-0.1,0-0.1,0-0.2,0c-0.1,0-0.1,0-0.2,0.1c0,0-0.1,0.1-0.1,0.1c0,0,0,0.1,0,0.1c0,0.1,0,0.1,0,0.2c0,0,0.1,0.1,0.1,0.1
				c0.1,0,0.1,0.1,0.2,0.1c0.1,0,0.2,0.1,0.4,0.1c0.2,0,0.3,0.1,0.4,0.1c0.1,0,0.2,0.1,0.3,0.2c0.1,0.1,0.1,0.1,0.2,0.2
				c0,0.1,0.1,0.2,0.1,0.3c0,0.1,0,0.2-0.1,0.3c-0.1,0.1-0.1,0.2-0.2,0.3c-0.1,0.1-0.2,0.1-0.4,0.2c-0.1,0-0.3,0.1-0.5,0.1
				c-0.1,0-0.3,0-0.4-0.1c-0.1,0-0.3-0.1-0.4-0.2c-0.1-0.1-0.2-0.2-0.3-0.3c-0.1-0.1-0.1-0.2-0.1-0.3c0,0,0-0.1,0-0.1c0,0,0,0,0.1,0
				h0.3c0,0,0.1,0,0.1,0c0,0,0,0,0.1,0.1c0,0,0,0.1,0.1,0.1c0,0,0.1,0.1,0.1,0.1c0,0,0.1,0,0.2,0.1c0.1,0,0.2,0,0.3,0
				c0.1,0,0.2,0,0.2,0c0.1,0,0.1,0,0.2-0.1c0.1,0,0.1-0.1,0.1-0.1c0,0,0.1-0.1,0.1-0.2c0-0.1,0-0.1-0.1-0.1c0,0-0.1-0.1-0.2-0.1
				c-0.1,0-0.2-0.1-0.3-0.1c-0.1,0-0.2-0.1-0.4-0.1c-0.1,0-0.2-0.1-0.3-0.1c-0.1,0-0.2-0.1-0.2-0.2c-0.1-0.1-0.1-0.1-0.1-0.2
				c0-0.1,0-0.2,0-0.3c0-0.1,0-0.2,0.1-0.3c0.1-0.1,0.1-0.2,0.2-0.3c0.1-0.1,0.2-0.1,0.3-0.2C105.4,30.1,105.5,30.1,105.7,30.1"/>
			<path class="st0" d="M109.6,31.6l0.8-1.4c0,0,0,0,0.1-0.1c0,0,0.1,0,0.1,0h0.3c0,0,0.1,0,0.1,0c0,0,0,0,0,0.1v2.7
				c0,0,0,0.1,0,0.1c0,0,0,0-0.1,0h-0.3c0,0-0.1,0-0.1,0c0,0,0,0,0-0.1v-1.6l-0.5,0.9c0,0,0,0-0.1,0.1c0,0-0.1,0-0.1,0h-0.2
				c0,0-0.1,0-0.1,0c0,0,0,0-0.1-0.1l-0.5-0.9v1.6c0,0,0,0.1,0,0.1c0,0,0,0-0.1,0h-0.3c0,0-0.1,0-0.1,0c0,0,0,0,0-0.1v-2.7
				c0,0,0-0.1,0-0.1c0,0,0,0,0.1,0h0.3c0.1,0,0.1,0,0.1,0c0,0,0,0.1,0.1,0.1L109.6,31.6z"/>
			<path class="st0" d="M112.6,33C112.6,33,112.5,33,112.6,33c-0.1-0.1-0.1-0.1-0.1-0.1v-2.7c0,0,0-0.1,0-0.1c0,0,0,0,0.1,0h0.3
				c0,0,0.1,0,0.1,0c0,0,0,0,0,0.1v2.7c0,0,0,0.1,0,0.1c0,0,0,0-0.1,0H112.6z"/>
			<path class="st0" d="M116.5,32.5C116.5,32.5,116.5,32.5,116.5,32.5c0.1,0.1,0.1,0.1,0.1,0.1v0.3c0,0,0,0.1,0,0.1c0,0,0,0-0.1,0
				h-1.7c0,0-0.1,0-0.1,0c0,0,0,0,0-0.1v-2.7c0,0,0-0.1,0-0.1c0,0,0,0,0.1,0h0.3c0,0,0.1,0,0.1,0c0,0,0,0,0,0.1v2.3H116.5z"/>
			<path class="st0" d="M119.8,32.5C119.8,32.5,119.8,32.5,119.8,32.5c0.1,0.1,0.1,0.1,0.1,0.1v0.3c0,0,0,0.1,0,0.1c0,0,0,0-0.1,0
				H118c0,0-0.1,0-0.1,0c0,0,0,0,0-0.1v-2.7c0,0,0-0.1,0-0.1c0,0,0,0,0.1,0h1.7c0,0,0.1,0,0.1,0c0,0,0,0,0,0.1v0.3c0,0,0,0.1,0,0.1
				c0,0,0,0-0.1,0h-1.3v0.7h1.2c0,0,0.1,0,0.1,0c0,0,0,0,0,0.1v0.3c0,0,0,0.1,0,0.1c0,0,0,0-0.1,0h-1.2v0.7H119.8z"/>
			<path class="st0" d="M40.5,15.6v3.6h3c0.6,0,1-0.1,1.3-0.2c0.5-0.3,0.8-0.8,0.8-1.5c0-0.8-0.3-1.4-0.8-1.6
				c-0.3-0.2-0.7-0.2-1.3-0.2H40.5z M46.3,13.6c0.5,0.2,0.9,0.5,1.3,0.9c0.3,0.3,0.5,0.7,0.7,1.1c0.2,0.4,0.2,0.9,0.2,1.4
				c0,0.6-0.2,1.3-0.5,1.9c-0.3,0.6-0.8,1-1.6,1.3c0.6,0.2,1.1,0.6,1.3,1.1c0.3,0.5,0.4,1.2,0.4,2.1v0.9c0,0.6,0,1,0.1,1.2
				c0.1,0.3,0.2,0.6,0.5,0.8v0.3h-3.1c-0.1-0.3-0.1-0.5-0.2-0.7c-0.1-0.4-0.1-0.8-0.1-1.2l0-1.2c0-0.9-0.2-1.4-0.4-1.7
				c-0.3-0.3-0.8-0.4-1.6-0.4h-2.7v5.2h-2.7V13.3h6.4C45.1,13.3,45.8,13.4,46.3,13.6"/>
			<path class="st0" d="M52.6,16.8v6c0,0.6,0.1,1,0.2,1.3c0.2,0.5,0.7,0.8,1.4,0.8c0.9,0,1.5-0.4,1.8-1.1c0.2-0.4,0.3-0.9,0.3-1.5
				v-5.4h2.6v9.9h-2.5v-1.4c0,0-0.1,0.1-0.2,0.3c-0.1,0.2-0.2,0.3-0.3,0.4c-0.4,0.4-0.8,0.6-1.2,0.7c-0.4,0.1-0.8,0.2-1.3,0.2
				c-1.5,0-2.4-0.5-2.9-1.6c-0.3-0.6-0.4-1.4-0.4-2.6v-6H52.6z"/>
			<path class="st0" d="M59.4,18.7v-1.8h1.4v-2.8h2.6v2.8H65v1.8h-1.6v5.2c0,0.4,0.1,0.7,0.2,0.8c0.1,0.1,0.4,0.1,0.9,0.1
				c0.1,0,0.2,0,0.2,0c0.1,0,0.2,0,0.3,0v1.9l-1.2,0c-1.2,0-2.1-0.2-2.5-0.6c-0.3-0.3-0.4-0.8-0.4-1.4v-6.1H59.4z"/>
			<path class="st0" d="M72.8,16.8c0.5,0.2,0.9,0.5,1.2,1c0.3,0.4,0.4,0.7,0.5,1.1c0.1,0.4,0.1,1,0.1,1.9v5.8H72v-6
				c0-0.5-0.1-1-0.3-1.3c-0.2-0.5-0.7-0.7-1.3-0.7c-0.7,0-1.2,0.2-1.5,0.7c-0.4,0.5-0.5,1.1-0.5,2v5.4h-2.6V13.3h2.6V18
				c0.4-0.6,0.8-1,1.3-1.2c0.5-0.2,1-0.3,1.5-0.3C71.8,16.5,72.3,16.6,72.8,16.8"/>
		</g>
		<path class="st0" d="M76.2,16.8h2.6v9.9h-2.6V16.8z M78.8,15.6h-2.6v-2.4h2.6V15.6z"/>
		<g>
			<path class="st0" d="M88.4,17.3c0.6,0.5,1,1.4,1,2.7v6.7h-2.6v-6c0-0.5-0.1-0.9-0.2-1.2c-0.3-0.5-0.7-0.8-1.4-0.8
				c-0.9,0-1.5,0.4-1.8,1.1c-0.2,0.4-0.3,0.9-0.3,1.5v5.3h-2.6v-9.9h2.5v1.4c0.3-0.5,0.6-0.9,0.9-1.1c0.5-0.4,1.2-0.6,2-0.6
				C86.9,16.5,87.7,16.8,88.4,17.3"/>
		</g>
		<path class="st0" d="M90.8,16.8h2.6v9.9h-2.6V16.8z M93.5,15.6h-2.6v-2.4h2.6V15.6z"/>
		<g>
			<path class="st0" d="M97.6,16.8v6c0,0.6,0.1,1,0.2,1.3c0.2,0.5,0.7,0.8,1.4,0.8c0.9,0,1.5-0.4,1.8-1.1c0.2-0.4,0.3-0.9,0.3-1.5
				v-5.4h2.6v9.9h-2.5v-1.4c0,0-0.1,0.1-0.2,0.3c-0.1,0.2-0.2,0.3-0.3,0.4c-0.4,0.4-0.8,0.6-1.2,0.7c-0.4,0.1-0.8,0.2-1.3,0.2
				c-1.5,0-2.4-0.5-2.9-1.6c-0.3-0.6-0.4-1.4-0.4-2.6v-6H97.6z"/>
			<path class="st0" d="M117.8,16.8c0.4,0.2,0.8,0.5,1.2,0.9c0.3,0.3,0.5,0.8,0.6,1.3c0.1,0.3,0.1,0.8,0.1,1.5l0,6.2H117v-6.3
				c0-0.4-0.1-0.7-0.2-0.9c-0.2-0.5-0.7-0.7-1.3-0.7c-0.7,0-1.2,0.3-1.5,0.9c-0.1,0.3-0.2,0.7-0.2,1.1v5.9h-2.6v-5.9
				c0-0.6-0.1-1-0.2-1.3c-0.2-0.5-0.6-0.7-1.3-0.7c-0.7,0-1.2,0.2-1.5,0.7c-0.1,0.3-0.2,0.7-0.2,1.2v5.9h-2.6v-9.9h2.5v1.4
				c0.3-0.5,0.6-0.9,0.9-1.1c0.5-0.4,1.2-0.6,1.9-0.6c0.8,0,1.4,0.2,1.8,0.5c0.4,0.3,0.7,0.7,0.9,1.2c0.3-0.6,0.8-1,1.3-1.3
				c0.5-0.3,1.1-0.4,1.8-0.4C117,16.5,117.4,16.6,117.8,16.8"/>
			<path class="st0" d="M121.4,15.8c-0.1,0-0.1,0-0.2,0H121v0.5h0.2c0.1,0,0.2,0,0.2-0.1c0.1,0,0.1-0.1,0.1-0.2
				C121.5,15.9,121.4,15.8,121.4,15.8 M120.6,17.1v-1.6c0.1,0,0.2,0,0.4,0c0.2,0,0.3,0,0.3,0c0.1,0,0.2,0,0.3,0.1
				c0.1,0.1,0.2,0.2,0.2,0.4c0,0.1,0,0.2-0.1,0.3c-0.1,0.1-0.2,0.1-0.3,0.1c0.1,0,0.2,0.1,0.2,0.1c0.1,0.1,0.1,0.2,0.1,0.4v0.1
				c0,0,0,0,0,0c0,0,0,0,0,0l0,0h-0.4c0-0.1,0-0.1,0-0.2c0-0.1,0-0.2,0-0.2c0-0.1-0.1-0.1-0.1-0.1c0,0-0.1,0-0.1,0l-0.1,0H121v0.6
				H120.6z M120.4,15.4c-0.2,0.2-0.3,0.5-0.3,0.8c0,0.3,0.1,0.6,0.3,0.9c0.2,0.2,0.5,0.4,0.8,0.4c0.3,0,0.6-0.1,0.8-0.4
				c0.2-0.2,0.3-0.5,0.3-0.9c0-0.3-0.1-0.6-0.3-0.8c-0.2-0.2-0.5-0.4-0.8-0.4C120.9,15.1,120.6,15.2,120.4,15.4 M122.2,17.3
				c-0.3,0.3-0.6,0.4-1,0.4c-0.4,0-0.7-0.1-1-0.4c-0.3-0.3-0.4-0.6-0.4-1c0-0.4,0.1-0.8,0.4-1.1c0.3-0.3,0.6-0.4,1-0.4
				c0.4,0,0.7,0.1,1,0.4c0.3,0.3,0.4,0.6,0.4,1C122.6,16.7,122.5,17,122.2,17.3"/>
			<path class="st0" d="M31.5,23.7h-3c0.1-1.6-0.4-4.4-2-6c-1.5-1.5-3.8-2.1-5.8-2v-3c2.8-0.1,5.8,0.7,7.9,2.8
				C30.6,17.7,31.5,21,31.5,23.7 M30,32.8c-0.7,0-1.3-0.6-1.3-1.3s0.6-1.3,1.3-1.3c0.7,0,1.3,0.6,1.3,1.3S30.8,32.8,30,32.8
				 M27.3,30.1c-0.7,0-1.3-0.6-1.3-1.3c0-0.7,0.6-1.3,1.3-1.3c0.7,0,1.3,0.6,1.3,1.3C28.6,29.5,28,30.1,27.3,30.1 M24.6,27.4
				c-0.7,0-1.3-0.6-1.3-1.3s0.6-1.3,1.3-1.3c0.7,0,1.3,0.6,1.3,1.3S25.3,27.4,24.6,27.4 M21.9,24.4c-0.7,0-1.3-0.6-1.3-1.3
				c0-0.7,0.6-1.3,1.3-1.3c0.7,0,1.3,0.6,1.3,1.3C23.3,23.8,22.7,24.4,21.9,24.4 M13.4,33.4h20.7V12.6H13.4V33.4z"/>
		</g>
	</g>
</g>
</svg>
