<?xml version="1.0" encoding="utf-8"?>
<!-- Generator: Adobe Illustrator 25.4.1, SVG Export Plug-In . SVG Version: 6.00 Build 0)  -->
<svg version="1.1" id="Capa_1" xmlns="http://www.w3.org/2000/svg" xmlns:xlink="http://www.w3.org/1999/xlink" x="0px" y="0px"
	 viewBox="0 0 136 46" style="enable-background:new 0 0 136 46;" xml:space="preserve">
<style type="text/css">
	.st0{fill:#FFED00;}
</style>
<g>
	<path class="st0" d="M26.6,13.3c0,0,22.3-6.3,41.4-6.3c27,0,41.4,6.7,41.4,6.7h-9.5c0,0-12.9-3.9-31.9-3.9
		C46.4,9.8,26.6,13.3,26.6,13.3"/>
	<path class="st0" d="M109.4,32.3c0,0-22.3,6.7-41.4,6.7c-27,0-41.4-6.7-41.4-6.7H36c0,0,13,3.9,32,3.9
		C89.6,36.2,109.4,32.3,109.4,32.3"/>
	<path class="st0" d="M53.1,22.4h-4.4c0.2-1,0.9-1.5,2.2-1.5C52.2,20.9,53.1,21.6,53.1,22.4 M56.6,24.3c0.1-4-2.5-5.1-6-5.1
		c-3.5,0-5.6,1.5-5.6,4.3c0,2.9,2.1,4.3,5.9,4.3c1.6,0,2.9-0.3,3.8-0.7c0.9-0.5,1.5-1,1.8-1.8h-3.8c-0.4,0.5-0.9,0.7-1.9,0.7
		c-1.6,0-2.2-1-2.2-1.6H56.6z"/>
	<path class="st0" d="M57.8,19.4h3.5v1h0c0.4-0.5,1.5-1.2,3.2-1.2c2,0,3.5,0.9,3.5,3.1v5.1h-3.6v-4.1c0-1-0.5-1.4-1.4-1.4
		c-0.9,0-1.7,0.6-1.7,1.9v3.7h-3.6V19.4z"/>
	<path class="st0" d="M70.7,21.6h-1.7v-2.1h1.7v-0.9c0.1-1.3,0.9-2,3.2-2c0.7,0,1.6,0,2.3,0.1v1.7h-1.1c-0.7,0-0.9,0.3-0.9,0.9v0.3
		h1.9v2.1h-1.9v5.8h-3.6V21.6z"/>
	<path class="st0" d="M89.5,19.4h3.5V21h0c0.9-1.2,2.1-1.7,3.3-1.7c0.4,0,0.9,0.1,1.3,0.2l-0.5,3.2c-0.8-0.3-0.9-0.5-1.6-0.5
		c-1.3,0-2.5,0.3-2.5,2v3.3h-3.6V19.4z"/>
	<path class="st0" d="M98.2,19.5h1.7v-1.1l3.6-1.5v2.6h1.9v2.2h-1.9v2.9c0,0.7,0.3,0.8,1.1,0.8c0.3,0,0.6,0,1,0v2.1
		c-0.6,0.1-1.5,0.2-2.6,0.2c-2.2,0-3-0.4-3-2.6v-3.3h-1.7V19.5z"/>
	<path class="st0" d="M84.9,22.4h-4.4c0.2-1,0.9-1.5,2.2-1.5C84,20.9,84.9,21.6,84.9,22.4 M88.4,24.2c0.1-4-2.5-5.1-6-5.1
		c-3.5,0-5.6,1.5-5.6,4.3c0,2.9,2.1,4.3,5.9,4.3c1.6,0,2.9-0.3,3.8-0.7c0.9-0.5,1.5-1,1.8-1.8h-3.8c-0.4,0.5-0.9,0.7-1.9,0.7
		c-1.6,0-2.2-1-2.2-1.6H88.4z"/>
	<path class="st0" d="M40.1,20.6c0,0.7-0.2,1.2-1.2,1.2H36v-2.3h2.8C39.5,19.5,40.1,19.8,40.1,20.6 M44.4,20.1
		c-0.2-1.3-0.7-1.8-1.4-2.3C42.5,17.4,41,17,39.9,17H32v10.4h4v-3.3l2.7,0l1.5,3.3h4.5l-2.2-3.7C44,22.9,44.5,21.3,44.4,20.1"/>
</g>
</svg>
