<?xml version="1.0" encoding="utf-8"?>
<!-- Generator: Adobe Illustrator 25.4.1, SVG Export Plug-In . SVG Version: 6.00 Build 0)  -->
<svg version="1.1" id="Capa_1" xmlns="http://www.w3.org/2000/svg" xmlns:xlink="http://www.w3.org/1999/xlink" x="0px" y="0px"
	 viewBox="0 0 135 46" style="enable-background:new 0 0 135 46;" xml:space="preserve">
<style type="text/css">
	.st0{fill:#FFED00;}
</style>
<g>
	<g>
		<path class="st0" d="M13.4,20.9v-1h1.5v-1.6c0-0.8,0.2-1.4,0.5-1.9s0.9-0.7,1.6-0.7c0.2,0,0.3,0,0.5,0s0.3,0,0.5,0.1v1.1
			c-0.3-0.1-0.5-0.1-0.7-0.1c-0.3,0-0.5,0.1-0.7,0.2c-0.2,0.1-0.3,0.3-0.4,0.4c-0.1,0.2-0.1,0.4-0.1,0.6c0,0.2,0,0.4,0,0.7v1.2H18v1
			h-1.9v8.9h-1.1v-8.9H13.4z"/>
		<path class="st0" d="M21,29.8h-1.1v-9.9H21v1.9h0c0.3-0.8,0.7-1.3,1.2-1.7c0.5-0.3,1.2-0.5,2-0.5v1.2c-0.6,0-1.2,0.1-1.6,0.3
			c-0.4,0.2-0.8,0.5-1,0.9c-0.2,0.4-0.4,0.8-0.5,1.3C21,23.9,21,24.4,21,25V29.8z"/>
		<path class="st0" d="M30.7,24.1c0.2,0,0.5-0.1,0.8-0.1s0.5-0.1,0.7-0.2c0.2-0.1,0.3-0.2,0.4-0.4c0-0.2,0.1-0.4,0.1-0.6
			c0-0.6-0.2-1.1-0.6-1.4c-0.4-0.4-1-0.6-1.9-0.6c-0.4,0-0.8,0-1.1,0.1c-0.3,0.1-0.6,0.2-0.9,0.4c-0.2,0.2-0.5,0.4-0.6,0.7
			s-0.3,0.6-0.3,1.1h-1.2c0-0.6,0.2-1.1,0.4-1.5c0.2-0.4,0.5-0.8,0.9-1c0.4-0.3,0.8-0.5,1.3-0.6c0.5-0.1,1-0.2,1.5-0.2
			c0.5,0,1,0.1,1.4,0.2s0.8,0.3,1.1,0.5c0.3,0.2,0.6,0.6,0.8,0.9s0.3,0.9,0.3,1.5v5.4c0,0.4,0.1,0.7,0.2,0.8c0.2,0.1,0.5,0.1,1-0.1
			v0.9c-0.1,0-0.2,0.1-0.4,0.1S34.2,30,34,30c-0.2,0-0.4,0-0.5-0.1c-0.2,0-0.3-0.1-0.5-0.2s-0.2-0.2-0.3-0.3
			c-0.1-0.1-0.1-0.3-0.1-0.4c0-0.2,0-0.3,0-0.5c-0.5,0.5-1,0.9-1.7,1.2c-0.6,0.3-1.3,0.4-2,0.4c-0.4,0-0.9-0.1-1.3-0.2
			c-0.4-0.1-0.8-0.3-1.1-0.5s-0.5-0.5-0.7-0.9c-0.2-0.3-0.3-0.8-0.3-1.3c0-1.7,1.2-2.7,3.5-3L30.7,24.1z M32.6,24.6
			c-0.5,0.2-1,0.3-1.5,0.4c-0.5,0.1-1,0.1-1.5,0.2c-0.9,0.1-1.6,0.3-2.1,0.6s-0.7,0.8-0.7,1.5c0,0.3,0.1,0.6,0.2,0.8
			s0.3,0.4,0.5,0.6c0.2,0.1,0.4,0.3,0.7,0.3s0.5,0.1,0.8,0.1c0.5,0,0.9-0.1,1.3-0.2c0.4-0.1,0.8-0.3,1.2-0.5
			c0.3-0.2,0.6-0.5,0.8-0.9c0.2-0.4,0.3-0.8,0.3-1.3V24.6z"/>
		<path class="st0" d="M37.9,29.8h-1.1v-9.9h1.1v1.4c0.5-0.5,0.9-0.9,1.4-1.2c0.5-0.3,1.1-0.5,1.8-0.5c0.6,0,1.2,0.1,1.7,0.3
			c0.5,0.2,1,0.6,1.3,1.1c0.2,0.4,0.4,0.7,0.4,1.1s0.1,0.8,0.1,1.2v6.5h-1.1v-6.5c0-0.9-0.2-1.6-0.6-2c-0.4-0.4-1.1-0.7-2-0.7
			c-0.4,0-0.7,0.1-1,0.2c-0.3,0.1-0.6,0.3-0.8,0.4c-0.2,0.2-0.4,0.4-0.6,0.6s-0.3,0.5-0.4,0.7c-0.1,0.3-0.2,0.6-0.2,0.9
			c0,0.3,0,0.6,0,1V29.8z"/>
		<path class="st0" d="M47.3,29.8V16.1h1.1v8.6l4.9-4.7h1.6l-3.7,3.6l4.1,6.3H54l-3.7-5.5l-1.9,1.8v3.7H47.3z"/>
		<path class="st0" d="M70.9,19.8c0.5,0.3,0.9,0.6,1.2,1.1v-4.9h2.7v13.7h-2.6v-1.4c-0.4,0.6-0.8,1-1.3,1.3
			c-0.5,0.3-1.1,0.4-1.8,0.4c-1.2,0-2.2-0.5-3-1.4c-0.8-1-1.2-2.2-1.2-3.7c0-1.7,0.4-3.1,1.2-4.1c0.8-1,1.9-1.5,3.2-1.5
			C69.9,19.4,70.4,19.6,70.9,19.8z M71.5,27.1c0.4-0.6,0.6-1.3,0.6-2.2c0-1.2-0.3-2.1-0.9-2.7c-0.4-0.3-0.8-0.5-1.3-0.5
			c-0.8,0-1.3,0.3-1.7,0.9c-0.4,0.6-0.5,1.3-0.5,2.2c0,0.9,0.2,1.7,0.6,2.3c0.4,0.6,0.9,0.8,1.7,0.8C70.6,27.9,71.1,27.6,71.5,27.1z
			"/>
		<path class="st0" d="M84.3,19.9c0.7,0.3,1.3,0.8,1.8,1.5c0.4,0.6,0.7,1.3,0.8,2.1c0.1,0.5,0.1,1.1,0.1,2h-7.4c0,1,0.4,1.7,1.1,2.1
			C81,27.9,81.5,28,82,28c0.6,0,1.1-0.2,1.5-0.5c0.2-0.2,0.4-0.4,0.5-0.7h2.7c-0.1,0.6-0.4,1.2-1,1.8c-0.9,1-2.2,1.5-3.8,1.5
			c-1.4,0-2.5-0.4-3.6-1.3c-1-0.8-1.6-2.2-1.6-4.1c0-1.8,0.5-3.1,1.4-4.1c0.9-0.9,2.1-1.4,3.6-1.4C82.8,19.4,83.6,19.6,84.3,19.9z
			 M80.3,22.2c-0.4,0.4-0.6,0.9-0.7,1.6h4.6c0-0.7-0.3-1.2-0.7-1.6c-0.4-0.4-1-0.5-1.6-0.5C81.2,21.6,80.7,21.8,80.3,22.2z"/>
		<path class="st0" d="M96.9,20.3c0.7,0.6,1,1.5,1,2.7v6.8h-2.7v-6.2c0-0.5-0.1-0.9-0.2-1.2c-0.3-0.5-0.8-0.8-1.5-0.8
			c-0.9,0-1.5,0.4-1.8,1.1c-0.2,0.4-0.3,0.9-0.3,1.5v5.5h-2.7V19.7h2.6v1.5c0.3-0.5,0.7-0.9,1-1.1c0.5-0.4,1.2-0.6,2.1-0.6
			C95.4,19.4,96.3,19.7,96.9,20.3z"/>
		<path class="st0" d="M99.9,21.7v-1.9h1.4v-2.8h2.6v2.8h1.7v1.9h-1.7V27c0,0.4,0.1,0.7,0.2,0.8c0.1,0.1,0.4,0.2,1,0.2
			c0.1,0,0.2,0,0.3,0c0.1,0,0.2,0,0.3,0v2l-1.3,0c-1.3,0-2.1-0.2-2.6-0.7c-0.3-0.3-0.4-0.8-0.4-1.4v-6.3H99.9z"/>
		<path class="st0" d="M111.8,23.7c0.5-0.1,0.8-0.1,1.1-0.2c0.4-0.2,0.6-0.4,0.6-0.8c0-0.4-0.1-0.7-0.4-0.9
			c-0.3-0.2-0.7-0.2-1.3-0.2c-0.6,0-1.1,0.2-1.4,0.5c-0.2,0.2-0.3,0.5-0.4,0.9h-2.6c0.1-0.9,0.3-1.6,0.8-2.2
			c0.7-0.9,1.9-1.3,3.6-1.3c1.1,0,2.1,0.2,3,0.7s1.3,1.3,1.3,2.5v4.7c0,0.3,0,0.7,0,1.2c0,0.3,0.1,0.6,0.2,0.7
			c0.1,0.1,0.2,0.2,0.4,0.3v0.4h-2.9c-0.1-0.2-0.1-0.4-0.2-0.6c0-0.2-0.1-0.4-0.1-0.6c-0.4,0.4-0.8,0.7-1.3,1
			c-0.6,0.3-1.2,0.5-2,0.5c-0.9,0-1.7-0.3-2.3-0.8c-0.6-0.5-0.9-1.3-0.9-2.2c0-1.2,0.5-2.2,1.5-2.7c0.5-0.3,1.3-0.5,2.4-0.7
			L111.8,23.7z M113.4,24.9c-0.2,0.1-0.3,0.2-0.5,0.3c-0.2,0.1-0.4,0.1-0.7,0.2l-0.6,0.1c-0.6,0.1-1,0.2-1.2,0.4
			c-0.4,0.2-0.6,0.6-0.6,1.1c0,0.5,0.1,0.8,0.4,1s0.6,0.3,0.9,0.3c0.6,0,1.1-0.2,1.6-0.5c0.5-0.3,0.7-0.9,0.8-1.8V24.9z"/>
		<path class="st0" d="M121.6,29.8h-2.7V16.1h2.7V29.8z"/>
	</g>
	<circle class="st0" cx="60" cy="27.8" r="2.4"/>
</g>
</svg>
