<?xml version="1.0" encoding="utf-8"?>
<!-- Generator: Adobe Illustrator 25.4.1, SVG Export Plug-In . SVG Version: 6.00 Build 0)  -->
<svg version="1.1" id="Capa_1" xmlns="http://www.w3.org/2000/svg" xmlns:xlink="http://www.w3.org/1999/xlink" x="0px" y="0px"
	 viewBox="0 0 135 46" style="enable-background:new 0 0 135 46;" xml:space="preserve">
<style type="text/css">
	.st0{fill:#FFED00;}
</style>
<path class="st0" d="M26.4,14.3c0,0,2.9-3.3,8.3-3.3s8.3,3.3,8.3,3.3H26.4z"/>
<path class="st0" d="M24,17.2c0,0,0.6-0.9,1.1-1.6c0.5-0.7,0.8-0.9,0.8-0.9l17.3,0c0,0,0.5,0.5,0.9,1.1c0.4,0.6,1.1,1.5,1.1,1.5
	h-4.9c0,0-0.8-1.5-2.2-1.6c-1.4-0.2-2.9,0.5-3.1,0.5h-0.7c0,0-2.3-0.6-3-0.5c-0.8,0.1-1.6,0.4-2.4,1.6H24z"/>
<polygon class="st0" points="28.9,17.3 28.7,17.5 40.5,17.5 40.2,17.3 "/>
<path class="st0" d="M23.9,17.5c0,0-0.2,0.3-0.4,0.8c-0.3,0.6-0.4,1.1-0.4,1.1h4.8c0,0,0.1-0.4,0.3-0.9c0.2-0.5,0.5-1,0.5-1H23.9z"
	/>
<path class="st0" d="M45.3,17.5c0,0,0.2,0.3,0.4,0.8c0.3,0.6,0.4,1.1,0.4,1.1h-4.8c0,0-0.1-0.4-0.3-0.9c-0.2-0.5-0.4-1-0.4-1H45.3z"
	/>
<path class="st0" d="M27.9,19.9h-5c0,0-0.1,0.4-0.2,0.8c-0.1,0.3-0.1,0.8-0.1,0.8h5.2v-0.8C27.9,20.4,27.9,19.9,27.9,19.9"/>
<path class="st0" d="M41.4,19.9h5c0,0,0.1,0.4,0.2,0.8c0.1,0.3,0.1,0.8,0.1,0.8h-5.2v-0.8C41.4,20.4,41.4,19.9,41.4,19.9"/>
<polygon class="st0" points="28.1,19.4 28,19.6 28,19.9 41.3,19.9 41.3,19.6 41.3,19.4 "/>
<polygon class="st0" points="28,22.3 22.6,22.3 22.6,22.8 22.6,23.4 28.1,23.4 "/>
<polygon class="st0" points="41.2,22.3 46.7,22.3 46.7,22.8 46.7,23.4 41.1,23.4 "/>
<polygon class="st0" points="27.9,21.5 28,22.3 41.2,22.3 41.3,21.5 "/>
<path class="st0" d="M28.4,24.7h-5.7l0.1,0.4c0,0.2,0.1,0.3,0.1,0.3h5.7L28.4,24.7z"/>
<path class="st0" d="M40.9,24.7h5.7c0,0,0,0.2-0.1,0.4c0,0.2-0.1,0.3-0.1,0.3h-5.7L40.9,24.7z"/>
<path class="st0" d="M28.1,23.5h12.9c0,0,0,0.5-0.1,0.6c0,0.2-0.1,0.5-0.1,0.5H28.4c0,0-0.2-0.4-0.2-0.6
	C28.2,23.8,28.1,23.5,28.1,23.5"/>
<polygon class="st0" points="28.6,25.5 40.7,25.5 40.2,26.9 28.9,26.9 "/>
<polygon class="st0" points="23.3,27 23.5,27.6 29.1,27.6 28.9,27 "/>
<polygon class="st0" points="40.3,27 40.1,27.6 45.7,27.6 46,27 "/>
<path class="st0" d="M29.2,27.6h11c0,0,0,0.3-0.2,0.8s-0.3,1-0.3,1h-4.3c0,0-0.2-1.5-0.6-1.5s-0.6,1.4-0.6,1.4h-4.4
	c0,0-0.2-0.7-0.3-0.9C29.3,28.2,29.2,27.6,29.2,27.6"/>
<polygon class="st0" points="24.5,29.4 24.7,29.8 29.8,29.8 29.7,29.4 "/>
<polygon class="st0" points="39.6,29.4 39.4,29.8 44.5,29.8 44.8,29.4 "/>
<polygon class="st0" points="34.1,29.4 34,29.8 35.3,29.8 35.2,29.4 "/>
<polygon class="st0" points="26.3,31.8 26.7,32 30.7,32 30.6,31.8 "/>
<polygon class="st0" points="38.7,31.8 38.6,32 42.6,32 42.9,31.8 "/>
<polygon class="st0" points="33.8,31.8 33.7,32.1 35.6,32.1 35.5,31.8 "/>
<path class="st0" d="M29.9,29.9H34l-0.2,1.8h-3.2c0,0-0.2-0.5-0.4-1S29.9,29.9,29.9,29.9"/>
<path class="st0" d="M39.4,29.9h-4.1l0.2,1.8h3.2c0,0,0.2-0.5,0.4-1S39.4,29.9,39.4,29.9"/>
<path class="st0" d="M33.7,32.2h-2.9c0,0,0.2,0.4,0.5,1.2c0.4,0.8,0.6,1.1,0.6,1.1s0.3,0.3,0.5,0.3c0.2,0,0.6-0.1,0.7-0.5
	C33.4,33.8,33.7,32.2,33.7,32.2"/>
<path class="st0" d="M35.7,32.2h2.9c0,0-0.2,0.4-0.5,1.2c-0.4,0.8-0.6,1.1-0.6,1.1s-0.3,0.3-0.5,0.3c-0.2,0-0.6-0.1-0.7-0.5
	C36,33.8,35.7,32.2,35.7,32.2"/>
<path class="st0" d="M33,34.9c-0.1-0.1-0.1-0.2-0.1-0.2h3.5c0,0,0,0.1-0.1,0.2c0,0-0.9,0.1-1.7,0.1C33.8,35,33,34.9,33,34.9"/>
<polygon class="st0" points="59.7,25.2 63.3,25.2 63.3,12.6 59.7,12.6 59.7,17.1 55.2,17.1 55.2,12.6 51.6,12.6 51.6,25.2 
	55.2,25.2 55.2,20.2 59.7,20.2 "/>
<polygon class="st0" points="99.5,25.1 99.5,22.2 92.4,22.2 92.4,20.2 97,20.2 98.7,17.4 92.4,17.4 92.4,15.5 99.5,15.5 99.5,12.6 
	88.8,12.6 88.8,25.1 "/>
<path class="st0" d="M86.4,15.5l1.8-3h-2.3h-7.2c-1.9,0-2.2,0.9-2.2,2.1v7.8c0,2.1,1.3,2.6,2.5,2.6h6.5c1.6,0,2.5-0.8,2.5-2.5
	c0-1.4,0-5.3,0-5.3H82l-1.6,3h4.1v1.1c0,0.5-0.4,0.8-0.9,0.8H80v-6.6H86.4z"/>
<path class="st0" d="M103.8,17.9v-2.4h3.4c0,0,0.8,0.2,0.8,1.2c0,0.9-0.9,1.2-0.9,1.2H103.8z M107.6,25.2h4.9l-4.6-4.6
	c1.2,0,3.5-0.5,3.5-3.2v-1.9c0-2.6-1.9-2.8-3.3-2.8h-7.9v12.6l3.6,0l0-4.4L107.6,25.2z"/>
<path class="st0" d="M72.1,20.3h-4.4v1.1c0,0.5,0.4,0.8,0.9,0.8h3.6L72.1,20.3z M72.1,17.3l0-1.8h-6.4l-1.8-3h2.3h7.2
	c1.9,0,2.2,0.9,2.2,2.1v7.8c0,2.1-1.3,2.6-2.5,2.6h-6.5c-1.6,0-2.5-0.8-2.5-2.5c0-1.4,0-5.3,0-5.3L72.1,17.3z"/>
<path class="st0" d="M76.7,30.8v-1.3h1.5c0.6,0,0.9,0.1,0.9,0.6c0,0.6-0.1,0.7-0.9,0.7H76.7z M74.7,34.8h2v-2.4l2.3,2.4h2.3
	l-2.4-2.5c1.7,0,2.1-0.9,2.1-2.3c0-1.7-0.7-2.2-2.4-2.2h-3.9V34.8z"/>
<polygon class="st0" points="59.2,33.2 59.1,33.2 57.8,27.8 55.8,27.8 54.4,33.2 54.3,33.2 53.3,27.8 51.3,27.8 52.9,34.8 
	55.7,34.8 56.7,30.4 56.8,30.4 57.8,34.8 60.6,34.8 62.3,27.8 60.3,27.8 "/>
<polygon class="st0" points="67.2,29.4 71,29.4 71,27.8 65.2,27.8 65.2,34.8 71.1,34.8 71.1,33.3 67.2,33.3 67.2,32 70.3,32 
	70.8,30.6 67.2,30.6 "/>
<polygon class="st0" points="86.5,27.8 84.5,27.8 84.5,34.8 86.5,34.8 86.5,32.1 89.1,34.8 91.5,34.8 88.2,31.2 91.3,27.8 89,27.8 
	86.5,30.4 "/>
<polygon class="st0" points="96.3,29.4 100.1,29.4 100.1,27.8 94.3,27.8 94.3,34.8 100.2,34.8 100.2,33.3 96.3,33.3 96.3,32 
	99.4,32 99.9,30.6 96.3,30.6 "/>
<polygon class="st0" points="105.6,29.4 105.7,29.4 107.8,34.8 111.1,34.8 111.1,27.8 109.1,27.8 109.2,33.2 109.2,33.2 107.1,27.8 
	103.8,27.8 103.8,34.8 105.7,34.8 "/>
</svg>
