<?xml version="1.0" encoding="utf-8"?>
<!-- Generator: Adobe Illustrator 25.4.1, SVG Export Plug-In . SVG Version: 6.00 Build 0)  -->
<svg version="1.1" id="Capa_1" xmlns="http://www.w3.org/2000/svg" xmlns:xlink="http://www.w3.org/1999/xlink" x="0px" y="0px"
	 viewBox="0 0 136 46" style="enable-background:new 0 0 136 46;" xml:space="preserve">
<style type="text/css">
	.st0{fill:#FFED00;}
</style>
<g>
	<polygon class="st0" points="56.7,16.6 56.7,13.6 56.2,12.5 44.7,12.5 44.7,34.9 56.7,34.9 56.7,30.9 48.8,30.9 48.8,25.7 
		56.4,25.7 56.4,21.7 48.8,21.7 48.8,16.6 	"/>
	<polygon class="st0" points="75.2,9.3 68,24.6 68,24.6 68,24.6 60.8,9.3 54.6,9.3 68,36.7 81.5,9.3 	"/>
	<path class="st0" d="M91.3,16.6v-4H79.9l-0.6,1.1v21.2h12v-4h-7.9v-5.1H91v-4h-7.5v-5.1H91.3z"/>
	<polygon class="st0" points="62,9.3 68,22.5 73.9,9.3 	"/>
</g>
</svg>
