<?xml version="1.0" encoding="utf-8"?>
<!-- Generator: Adobe Illustrator 25.4.1, SVG Export Plug-In . SVG Version: 6.00 Build 0)  -->
<svg version="1.1" id="Capa_1" xmlns="http://www.w3.org/2000/svg" xmlns:xlink="http://www.w3.org/1999/xlink" x="0px" y="0px"
	 viewBox="0 0 136 46" style="enable-background:new 0 0 136 46;" xml:space="preserve">
<style type="text/css">
	.st0{fill:#FFED00;}
</style>
<path class="st0" d="M36.7,14.8c-0.6,0-1.3,0-1.7,0l-2,11.3c0.3,0,1.1,0,1.7,0c2.3,0,3.6-0.9,4.2-4.1l0.5-3.1c0.1-0.5,0.1-1,0.1-1.4
	C39.6,15.4,38.4,14.8,36.7,14.8 M43.5,18.9L42.9,22c-0.9,5.5-3.6,7.7-8.8,7.7c-2,0-4-0.2-4.9-0.4c-0.4-0.1-0.7-0.2-0.7-0.2
	s0.1-0.5,0.2-1.4l2.8-16l0.7-0.1c0,0,3.1-0.4,5.1-0.4c3.9,0,6.4,2.2,6.4,5.9C43.7,17.7,43.6,18.3,43.5,18.9"/>
<path class="st0" d="M36.7,14.8c-0.6,0-1.3,0-1.7,0l-2,11.3c0.3,0,1.1,0,1.7,0c2.3,0,3.6-0.9,4.2-4.1l0.5-3.1c0.1-0.5,0.1-1,0.1-1.4
	C39.6,15.4,38.4,14.8,36.7,14.8z M43.5,18.9L42.9,22c-0.9,5.5-3.6,7.7-8.8,7.7c-2,0-4-0.2-4.9-0.4c-0.4-0.1-0.7-0.2-0.7-0.2
	s0.1-0.5,0.2-1.4l2.8-16l0.7-0.1c0,0,3.1-0.4,5.1-0.4c3.9,0,6.4,2.2,6.4,5.9C43.7,17.7,43.6,18.3,43.5,18.9z"/>
<path class="st0" d="M56.1,16.3l-2.1,13.2h-3.2l0.2-1c-1,0.7-1.9,1.2-3.3,1.2c-2.1,0-3.3-1.4-3.3-3.8c0-0.4,0-0.9,0.1-1.4l1.3-8.2
	h3.4l-1.3,8.2c-0.1,0.4-0.1,0.8-0.1,1.1c0,0.8,0.3,1.1,1.3,1.1c0.4,0,1.5-0.3,2.1-0.8l1.5-9.6H56.1z"/>
<path class="st0" d="M56.1,16.3l-2.1,13.2h-3.2l0.2-1c-1,0.7-1.9,1.2-3.3,1.2c-2.1,0-3.3-1.4-3.3-3.8c0-0.4,0-0.9,0.1-1.4l1.3-8.2
	h3.4l-1.3,8.2c-0.1,0.4-0.1,0.8-0.1,1.1c0,0.8,0.3,1.1,1.3,1.1c0.4,0,1.5-0.3,2.1-0.8l1.5-9.6H56.1z"/>
<path class="st0" d="M72.8,21.2l-1.3,8.2H68l1.3-8.2c0.1-0.4,0.1-0.7,0.1-1c0-0.6-0.3-0.9-1.1-0.9c-0.3,0-1.1,0.1-1.7,0.4
	c0,0.5-0.1,1-0.1,1.5l-1.3,8.2c0,0-3.4,0-3.4,0l1.3-8.2c0.1-0.4,0.1-0.8,0.1-1.1c0-0.5-0.2-0.8-0.8-0.8c-0.5,0-1.2,0.3-1.9,0.7
	L59,29.5h-3.4l2.1-13.2h3.1l-0.2,1.1c0.8-0.6,1.8-1.2,3-1.2c1.2,0,2,0.4,2.4,1c1.2-0.8,2.3-1,3.7-1c2.3,0,3.1,1.7,3.1,3.6
	C72.9,20.3,72.9,20.8,72.8,21.2"/>
<path class="st0" d="M72.8,21.2l-1.3,8.2H68l1.3-8.2c0.1-0.4,0.1-0.7,0.1-1c0-0.6-0.3-0.9-1.1-0.9c-0.3,0-1.1,0.1-1.7,0.4
	c0,0.5-0.1,1-0.1,1.5l-1.3,8.2c0,0-3.4,0-3.4,0l1.3-8.2c0.1-0.4,0.1-0.8,0.1-1.1c0-0.5-0.2-0.8-0.8-0.8c-0.5,0-1.2,0.3-1.9,0.7
	L59,29.5h-3.4l2.1-13.2h3.1l-0.2,1.1c0.8-0.6,1.8-1.2,3-1.2c1.2,0,2,0.4,2.4,1c1.2-0.8,2.3-1,3.7-1c2.3,0,3.1,1.7,3.1,3.6
	C72.9,20.3,72.9,20.8,72.8,21.2z"/>
<path class="st0" d="M79.9,19.4c-1.2,0-2,0.8-2.3,2.8l-0.3,1.6c-0.1,0.4-0.1,0.8-0.1,1.1c0,1.2,0.5,1.7,1.6,1.7c1.4,0,2-1,2.3-2.8
	l0.3-1.6c0.1-0.4,0.1-0.8,0.1-1.1C81.4,19.9,80.9,19.4,79.9,19.4 M84.7,22.2l-0.3,1.6c-0.7,3.9-2.5,5.9-6.2,5.9
	c-2.9,0-4.4-2-4.4-4.7c0-0.4,0-0.8,0.1-1.3l0.3-1.6c0.7-4.1,2.7-5.9,6.2-5.9c2.8,0,4.4,1.8,4.4,4.6C84.8,21.3,84.8,21.9,84.7,22.2"
	/>
<path class="st0" d="M79.9,19.4c-1.2,0-2,0.8-2.3,2.8l-0.3,1.6c-0.1,0.4-0.1,0.8-0.1,1.1c0,1.2,0.5,1.7,1.6,1.7c1.4,0,2-1,2.3-2.8
	l0.3-1.6c0.1-0.4,0.1-0.8,0.1-1.1C81.4,19.9,80.9,19.4,79.9,19.4z M84.7,22.2l-0.3,1.6c-0.7,3.9-2.5,5.9-6.2,5.9
	c-2.9,0-4.4-2-4.4-4.7c0-0.4,0-0.8,0.1-1.3l0.3-1.6c0.7-4.1,2.7-5.9,6.2-5.9c2.8,0,4.4,1.8,4.4,4.6C84.8,21.3,84.8,21.9,84.7,22.2z"
	/>
<path class="st0" d="M97,21.4l-1.3,8h-3.4l1.3-8c0.1-0.4,0.1-0.7,0.1-1c0-0.8-0.5-1.1-1.1-1.1c-0.8,0-1.8,0.4-2.3,0.7l-1.5,9.4h-3.4
	l2.1-13.2h3.1l-0.2,1.1c0.9-0.8,2.2-1.2,3.3-1.2c1.8,0,3.4,1.1,3.4,3.8C97.1,20.5,97.1,20.9,97,21.4"/>
<path class="st0" d="M97,21.4l-1.3,8h-3.4l1.3-8c0.1-0.4,0.1-0.7,0.1-1c0-0.8-0.5-1.1-1.1-1.1c-0.8,0-1.8,0.4-2.3,0.7l-1.5,9.4h-3.4
	l2.1-13.2h3.1l-0.2,1.1c0.9-0.8,2.2-1.2,3.3-1.2c1.8,0,3.4,1.1,3.4,3.8C97.1,20.5,97.1,20.9,97,21.4z"/>
<path class="st0" d="M107,19.2h-2.8l-1.1,6.6c0,0.3-0.1,0.5-0.1,0.6c0,0.3,0.1,0.4,0.6,0.4l1.8-0.3l0.2,2.7c0,0-1.2,0.2-1.4,0.3
	c-0.7,0.1-1.1,0.2-1.7,0.2c-1.9,0-3-0.8-3-2.7c0-0.3,0-0.7,0.1-1.2l1.1-6.6l-2.3,0l0.5-2.8h2.3l3.9-2.7l-0.5,2.7h2.8L107,19.2z"/>
<path class="st0" d="M107,19.2h-2.8l-1.1,6.6c0,0.3-0.1,0.5-0.1,0.6c0,0.3,0.1,0.4,0.6,0.4l1.8-0.3l0.2,2.7c0,0-1.2,0.2-1.4,0.3
	c-0.7,0.1-1.1,0.2-1.7,0.2c-1.9,0-3-0.8-3-2.7c0-0.3,0-0.7,0.1-1.2l1.1-6.6l-2.3,0l0.5-2.8h2.3l3.9-2.7l-0.5,2.7h2.8L107,19.2z"/>
<polygon class="st0" points="101.1,14.9 105.2,12 102.6,9.2 "/>
<rect x="28.6" y="32.8" class="st0" width="1.4" height="3.9"/>
<polygon class="st0" points="30.6,32.8 32,32.8 33.2,34.7 33.2,34.7 33.2,32.8 34.5,32.8 34.5,36.7 33.1,36.7 31.9,34.8 31.9,34.8 
	31.9,36.7 30.6,36.7 "/>
<path class="st0" d="M36.5,36.8c-0.2,0-0.3,0-0.5,0c-0.2,0-0.3-0.1-0.5-0.1c-0.2-0.1-0.3-0.1-0.4-0.2c-0.1-0.1-0.3-0.2-0.4-0.2
	l0.9-0.9c0.1,0.1,0.2,0.2,0.4,0.3c0.2,0.1,0.3,0.1,0.5,0.1c0.1,0,0.2,0,0.2,0c0.1,0,0.1-0.1,0.1-0.1c0,0,0-0.1,0-0.1
	c0,0-0.1-0.1-0.1-0.1c-0.1,0-0.1-0.1-0.2-0.1c-0.1,0-0.2-0.1-0.4-0.1c-0.1,0-0.3-0.1-0.4-0.2c-0.1-0.1-0.2-0.1-0.4-0.2
	c-0.1-0.1-0.2-0.2-0.2-0.3c-0.1-0.1-0.1-0.3-0.1-0.4c0-0.2,0.1-0.4,0.2-0.6c0.1-0.2,0.2-0.3,0.4-0.4c0.2-0.1,0.4-0.2,0.6-0.2
	c0.2,0,0.4-0.1,0.6-0.1c0.3,0,0.6,0,0.9,0.1c0.3,0.1,0.5,0.2,0.8,0.4l-0.9,0.8c-0.1-0.1-0.2-0.2-0.4-0.3c-0.1-0.1-0.3-0.1-0.4-0.1
	c-0.1,0-0.2,0-0.3,0c-0.1,0-0.1,0.1-0.1,0.1c0,0.1,0,0.1,0.1,0.1c0.1,0,0.2,0.1,0.3,0.1c0.2,0,0.3,0.1,0.5,0.2
	c0.2,0.1,0.3,0.1,0.5,0.2c0.1,0.1,0.3,0.2,0.4,0.3c0.1,0.1,0.1,0.3,0.1,0.5c0,0.2-0.1,0.4-0.2,0.6c-0.1,0.2-0.2,0.3-0.4,0.4
	c-0.2,0.1-0.4,0.2-0.6,0.3C36.9,36.7,36.7,36.8,36.5,36.8"/>
<polygon class="st0" points="40.7,36.7 39.3,36.7 39.3,33.9 38.3,33.9 38.3,32.8 41.8,32.8 41.8,33.9 40.7,33.9 "/>
<path class="st0" d="M43.3,34.4h0.3c0,0,0.1,0,0.2,0c0.1,0,0.1,0,0.2,0c0.1,0,0.1-0.1,0.1-0.1c0,0,0.1-0.1,0.1-0.2
	c0-0.1,0-0.1,0-0.2c0,0-0.1-0.1-0.1-0.1c0,0-0.1,0-0.1,0c-0.1,0-0.1,0-0.1,0h-0.3V34.4z M41.9,32.8h1.8c0.2,0,0.4,0,0.6,0.1
	c0.2,0,0.4,0.1,0.6,0.2c0.2,0.1,0.3,0.2,0.4,0.4c0.1,0.2,0.2,0.4,0.2,0.6c0,0.2-0.1,0.5-0.2,0.6c-0.1,0.2-0.3,0.3-0.6,0.4l1.1,1.6
	h-1.6l-0.8-1.4h0v1.4h-1.4V32.8z"/>
<path class="st0" d="M47.8,36.8c-0.3,0-0.6,0-0.9-0.1c-0.2-0.1-0.5-0.2-0.6-0.3c-0.2-0.1-0.3-0.3-0.4-0.5c-0.1-0.2-0.1-0.4-0.1-0.6
	v-2.4h1.4V35c0,0.2,0,0.3,0.1,0.4c0.1,0.1,0.2,0.2,0.4,0.2c0.2,0,0.3-0.1,0.4-0.2c0.1-0.1,0.1-0.3,0.1-0.4v-2.2h1.4v2.4
	c0,0.2,0,0.4-0.1,0.6c-0.1,0.2-0.2,0.4-0.4,0.5c-0.2,0.1-0.4,0.3-0.6,0.3C48.4,36.7,48.1,36.8,47.8,36.8"/>
<polygon class="st0" points="51.5,34.5 51.6,36.7 50.3,36.7 50.3,32.8 52.1,32.8 52.9,34.9 52.9,34.9 53.6,32.8 55.6,32.8 
	55.6,36.7 54.1,36.7 54.2,34.5 54.2,34.5 53.4,36.7 52.3,36.7 51.6,34.5 "/>
<polygon class="st0" points="56.1,32.8 59,32.8 59,33.8 57.4,33.8 57.4,34.2 58.9,34.2 58.9,35.2 57.4,35.2 57.4,35.6 59.1,35.6 
	59.1,36.7 56.1,36.7 "/>
<polygon class="st0" points="59.5,32.8 60.9,32.8 62.1,34.7 62.2,34.7 62.1,32.8 63.5,32.8 63.5,36.7 62,36.7 60.8,34.8 60.8,34.8 
	60.8,36.7 59.5,36.7 "/>
<polygon class="st0" points="66,36.7 64.6,36.7 64.6,33.9 63.6,33.9 63.6,32.8 67.1,32.8 67.1,33.9 66,33.9 "/>
<path class="st0" d="M68.7,36.8c-0.2,0-0.3,0-0.5,0c-0.2,0-0.3-0.1-0.5-0.1c-0.2-0.1-0.3-0.1-0.4-0.2c-0.1-0.1-0.3-0.2-0.4-0.2
	l0.9-0.9c0.1,0.1,0.2,0.2,0.4,0.3c0.2,0.1,0.3,0.1,0.5,0.1c0.1,0,0.2,0,0.2,0c0.1,0,0.1-0.1,0.1-0.1c0,0,0-0.1,0-0.1
	c0,0-0.1-0.1-0.1-0.1c-0.1,0-0.1-0.1-0.2-0.1c-0.1,0-0.2-0.1-0.4-0.1c-0.1,0-0.3-0.1-0.4-0.2c-0.1-0.1-0.2-0.1-0.4-0.2
	c-0.1-0.1-0.2-0.2-0.2-0.3s-0.1-0.3-0.1-0.4c0-0.2,0.1-0.4,0.2-0.6c0.1-0.2,0.2-0.3,0.4-0.4c0.2-0.1,0.4-0.2,0.6-0.2
	c0.2,0,0.4-0.1,0.6-0.1c0.3,0,0.6,0,0.9,0.1c0.3,0.1,0.5,0.2,0.8,0.4l-0.9,0.8c-0.1-0.1-0.2-0.2-0.4-0.3c-0.1-0.1-0.3-0.1-0.4-0.1
	c-0.1,0-0.2,0-0.3,0c-0.1,0-0.1,0.1-0.1,0.1c0,0.1,0,0.1,0.1,0.1c0.1,0,0.2,0.1,0.3,0.1c0.2,0,0.3,0.1,0.5,0.2
	c0.2,0.1,0.3,0.1,0.5,0.2c0.1,0.1,0.3,0.2,0.4,0.3c0.1,0.1,0.1,0.3,0.1,0.5c0,0.2-0.1,0.4-0.2,0.6c-0.1,0.2-0.2,0.3-0.4,0.4
	c-0.2,0.1-0.4,0.2-0.6,0.3C69.1,36.7,68.9,36.8,68.7,36.8"/>
<path class="st0" d="M73.7,33.5c-0.1,0-0.2,0-0.2,0.1c0,0.1-0.1,0.1-0.1,0.2c0,0.1,0,0.1,0.1,0.2c0,0.1,0.1,0.1,0.2,0.2
	c0.1,0,0.2-0.1,0.2-0.1c0.1-0.1,0.1-0.1,0.1-0.2c0-0.1,0-0.1-0.1-0.2C73.9,33.5,73.8,33.5,73.7,33.5 M73.3,35.2
	c-0.1,0-0.1,0.1-0.2,0.1c-0.1,0-0.1,0.1-0.1,0.2c0,0.1,0,0.1,0,0.1c0,0,0.1,0.1,0.1,0.1s0.1,0,0.1,0.1c0,0,0.1,0,0.1,0
	c0.1,0,0.1,0,0.2,0c0.1,0,0.1-0.1,0.1-0.1L73.3,35.2z M74.6,36.4c-0.1,0.1-0.3,0.2-0.5,0.3c-0.2,0.1-0.4,0.1-0.7,0.1
	c-0.2,0-0.4,0-0.6-0.1c-0.2,0-0.4-0.1-0.5-0.2c-0.2-0.1-0.3-0.2-0.4-0.4c-0.1-0.2-0.2-0.3-0.2-0.6c0-0.1,0-0.2,0.1-0.4
	c0-0.1,0.1-0.2,0.2-0.3c0.1-0.1,0.2-0.2,0.3-0.2c0.1-0.1,0.2-0.1,0.3-0.2c-0.1-0.1-0.2-0.2-0.3-0.3c-0.1-0.1-0.1-0.3-0.1-0.5
	c0-0.2,0-0.4,0.1-0.5c0.1-0.1,0.2-0.2,0.4-0.3c0.1-0.1,0.3-0.1,0.5-0.2c0.2,0,0.4-0.1,0.5-0.1c0.2,0,0.4,0,0.5,0.1
	c0.2,0,0.3,0.1,0.5,0.2c0.1,0.1,0.3,0.2,0.3,0.3c0.1,0.1,0.1,0.3,0.1,0.5c0,0.1,0,0.2-0.1,0.3s-0.1,0.2-0.2,0.3
	c-0.1,0.1-0.2,0.2-0.3,0.2c-0.1,0.1-0.2,0.1-0.3,0.2l0.3,0.3l0.3-0.4h1.5l-1,1.1l1.2,1h-1.7L74.6,36.4z"/>
<path class="st0" d="M77.7,34.7c0-0.3,0.1-0.6,0.2-0.9c0.1-0.3,0.3-0.5,0.5-0.7c0.2-0.2,0.5-0.3,0.7-0.4c0.3-0.1,0.6-0.1,0.9-0.1
	c0.3,0,0.6,0,0.9,0.1c0.3,0.1,0.5,0.2,0.7,0.4l-0.9,1c-0.1-0.1-0.2-0.2-0.3-0.2c-0.1,0-0.3-0.1-0.4-0.1c-0.1,0-0.2,0-0.3,0.1
	c-0.1,0-0.2,0.1-0.3,0.2c-0.1,0.1-0.1,0.2-0.2,0.3c0,0.1-0.1,0.2-0.1,0.4c0,0.1,0,0.2,0.1,0.3c0,0.1,0.1,0.2,0.2,0.3
	c0.1,0.1,0.2,0.1,0.3,0.2c0.1,0,0.2,0.1,0.3,0.1c0.2,0,0.3,0,0.4-0.1c0.1-0.1,0.2-0.1,0.3-0.2l0.9,1c-0.2,0.2-0.4,0.3-0.7,0.4
	c-0.3,0.1-0.6,0.2-1,0.2c-0.3,0-0.6-0.1-0.9-0.1c-0.3-0.1-0.5-0.2-0.7-0.4c-0.2-0.2-0.4-0.4-0.5-0.7C77.7,35.3,77.7,35,77.7,34.7"/>
<path class="st0" d="M83,34.7c0,0.1,0,0.2,0.1,0.4c0,0.1,0.1,0.2,0.2,0.3c0.1,0.1,0.2,0.1,0.3,0.2c0.1,0,0.2,0.1,0.3,0.1
	c0.1,0,0.2,0,0.3-0.1c0.1,0,0.2-0.1,0.3-0.2c0.1-0.1,0.1-0.2,0.2-0.3c0-0.1,0.1-0.2,0.1-0.4c0-0.1,0-0.2-0.1-0.3
	c0-0.1-0.1-0.2-0.2-0.3c-0.1-0.1-0.2-0.1-0.3-0.2c-0.1,0-0.2-0.1-0.3-0.1c-0.1,0-0.2,0-0.3,0.1c-0.1,0-0.2,0.1-0.3,0.2
	c-0.1,0.1-0.1,0.2-0.2,0.3C83,34.4,83,34.6,83,34.7 M81.4,34.7c0-0.3,0.1-0.6,0.2-0.8c0.1-0.3,0.3-0.5,0.5-0.6
	c0.2-0.2,0.5-0.3,0.8-0.4c0.3-0.1,0.6-0.1,0.9-0.1c0.3,0,0.7,0,0.9,0.1c0.3,0.1,0.5,0.2,0.8,0.4c0.2,0.2,0.4,0.4,0.5,0.6
	c0.1,0.3,0.2,0.5,0.2,0.8c0,0.3-0.1,0.6-0.2,0.9c-0.1,0.3-0.3,0.5-0.5,0.7c-0.2,0.2-0.5,0.3-0.8,0.4c-0.3,0.1-0.6,0.1-0.9,0.1
	c-0.3,0-0.7,0-0.9-0.1c-0.3-0.1-0.5-0.2-0.8-0.4c-0.2-0.2-0.4-0.4-0.5-0.7C81.5,35.3,81.4,35,81.4,34.7"/>
</svg>
