<svg id="Capa_1" data-name="Capa 1" xmlns="http://www.w3.org/2000/svg" viewBox="0 0 135 46"><defs><style>.cls-1{fill:#e42e38;}.cls-2{fill:none;stroke:#fff;stroke-miterlimit:10;stroke-width:0.31px;}</style></defs><polygon class="cls-1" points="96.71 28.85 100.64 28.85 100.64 19.99 104.17 19.99 104.17 17.03 93.22 17.03 93.22 19.99 96.71 19.99 96.71 28.85"/><polygon class="cls-2" points="96.71 28.85 100.64 28.85 100.64 19.99 104.17 19.99 104.17 17.03 93.22 17.03 93.22 19.99 96.71 19.99 96.71 28.85"/><polygon class="cls-1" points="72.42 28.9 80.91 28.9 80.91 26.36 76.31 26.36 76.31 24.15 80.46 24.15 80.46 21.69 76.31 21.69 76.31 19.57 80.86 19.57 80.86 17.08 72.42 17.08 72.42 28.9"/><polygon class="cls-2" points="72.42 28.9 80.91 28.9 80.91 26.36 76.31 26.36 76.31 24.15 80.46 24.15 80.46 21.69 76.31 21.69 76.31 19.57 80.86 19.57 80.86 17.08 72.42 17.08 72.42 28.9"/><path class="cls-1" d="M53.48,24.85l1.73-4.68L57,24.85Zm-5.37,4H52L52.7,27h5.13l.74,1.92h3.9L57.28,17.08H53.16Z"/><path class="cls-2" d="M53.48,24.85l1.73-4.68L57,24.85Zm-5.37,4H52L52.7,27h5.13l.74,1.92h3.9L57.28,17.08H53.16Z"/><path class="cls-1" d="M30.83,28.25a8.63,8.63,0,0,0,3.72.81,4.19,4.19,0,0,0,3.07-.92,3.3,3.3,0,0,0,1.17-2.56,3.13,3.13,0,0,0-.86-2.24,5.84,5.84,0,0,0-1.83-1.27c-1.38-.74-1.68-1-1.68-1.45s.43-.84,1.14-.84a4.39,4.39,0,0,1,2.78,1.53V18.19a5.37,5.37,0,0,0-3.49-1.25c-2.39,0-4,1.42-4,3.54A3.34,3.34,0,0,0,31.88,23a7,7,0,0,0,1.91,1.27c1,.54,1.21.76,1.21,1.16s-.43.82-1.14.82a5.49,5.49,0,0,1-3-1.18Z"/><path class="cls-2" d="M30.83,28.25a8.63,8.63,0,0,0,3.72.81,4.19,4.19,0,0,0,3.07-.92,3.3,3.3,0,0,0,1.17-2.56,3.13,3.13,0,0,0-.86-2.24,5.84,5.84,0,0,0-1.83-1.27c-1.38-.74-1.68-1-1.68-1.45s.43-.84,1.14-.84a4.39,4.39,0,0,1,2.78,1.53V18.19a5.37,5.37,0,0,0-3.49-1.25c-2.39,0-4,1.42-4,3.54A3.34,3.34,0,0,0,31.88,23a7,7,0,0,0,1.91,1.27c1,.54,1.21.76,1.21,1.16s-.43.82-1.14.82a5.49,5.49,0,0,1-3-1.18Z"/><polygon class="cls-1" points="45.11 28.9 53.46 28.9 53.46 25.94 49.04 25.94 49.04 17.08 45.11 17.08 45.11 28.9"/><polygon class="cls-2" points="45.11 28.9 53.46 28.9 53.46 25.94 49.04 25.94 49.04 17.08 45.11 17.08 45.11 28.9"/><path class="cls-1" d="M65.58,26.08V19.89h.92c1.94,0,2.93,1,2.93,3.12s-.91,3.07-2.82,3.07ZM61.64,28.9h6.11a5.85,5.85,0,0,0,2.9-.62,5.75,5.75,0,0,0,2.72-5.13,6.12,6.12,0,0,0-1.6-4.25,6,6,0,0,0-4.68-1.82H61.64Z"/><path class="cls-2" d="M65.58,26.08V19.89h.92c1.94,0,2.93,1,2.93,3.12s-.91,3.07-2.82,3.07ZM61.64,28.9h6.11a5.85,5.85,0,0,0,2.9-.62,5.75,5.75,0,0,0,2.72-5.13,6.12,6.12,0,0,0-1.6-4.25,6,6,0,0,0-4.68-1.82H61.64Z"/><polygon class="cls-1" points="82.04 28.9 86.01 28.9 85.76 22.84 91.47 28.9 94.87 28.9 94.87 17.03 90.88 17.03 91.13 23.16 85.41 17.08 82.04 17.08 82.04 28.9"/><polygon class="cls-2" points="82.04 28.9 86.01 28.9 85.76 22.84 91.47 28.9 94.87 28.9 94.87 17.03 90.88 17.03 91.13 23.16 85.41 17.08 82.04 17.08 82.04 28.9"/><path class="cls-1" d="M40.52,19.16a1.29,1.29,0,1,0,1.28-1.28,1.28,1.28,0,0,0-1.28,1.28m-.71-2.08h3.94V28.9H39.81Z"/><path class="cls-2" d="M40.52,19.16a1.29,1.29,0,1,0,1.28-1.28,1.28,1.28,0,0,0-1.28,1.28m-.71-2.08h3.94V28.9H39.81Z"/></svg>