<svg id="Capa_1" data-name="Capa 1" xmlns="http://www.w3.org/2000/svg" viewBox="0 0 135 46"><defs><style>.cls-1{fill:#134a83;}.cls-2{fill:#b51975;}</style></defs><rect class="cls-1" x="43.67" y="32.06" width="23.37" height="2.29"/><path class="cls-2" d="M88.16,7.14l0,0v0h.06v.06ZM89,8.41h0V8.35H89v0Zm-17.32.66h.06v.06h-.06Zm4.65-1.84h.06v.06h-.06ZM58.61,17.64v-.09h0l0,0v0l0,0Zm4.64,6.06,0,0h0v.09h0l0,0Zm24-16.26h.06v.09H87.2Zm-21.63,5h.06v.09h-.06Zm12.7,2.08h.09v.06h-.09Zm13-6.73h.09V7.68h-.09Zm-11.95,3.5h.09v-.09h-.09Zm-10.91-.6v-.06h.12v.09h-.06Zm11.1.48h.12V11h-.12Zm.42-4.34H80V6.9H79.9Zm-19.39,7.3,0,0h.09v.09h-.15v0Zm-3.26,3.13,0,0h.06l0,0v.07l0,0h-.06l0,0ZM89,7.74l0,0h.06l0,0V7.65H89Zm-19.94,4.8h.15v.09h-.15ZM59.75,16.1h.15v.09h-.15Zm18.76-1.69v-.06h.18v.06l-.06,0h-.06ZM62.35,13.17v-.09h.15l0,0v.06Zm15-7,0,0h.06l0,0,0,0v0h-.07v.06h-.09ZM71,8.8l0,0h.09l0,0v.09H71ZM88.16,6l0,0h.12v.16h-.12V6.06h-.06V6ZM77.39,15.41v-.1h.16l0,0,0,0v0h-.06v.05h-.09v-.05Zm.64-1,0,0h.15v.09l0,0,0,0h-.06l0,0,0,0Zm-8.39-2.26,0,0h.06l0,0,0,0v.06l0,0h-.15v-.09Zm6.94-5.88h.06V6.21h.12l0,0V6.3l0,0-.06,0h-.06l0,0,0,0Zm-5.85,6.39.06,0h.12l0,0v.09h-.21Zm-4.86-3,0,0h.15l0,0V9.7l0,0h-.18Zm16.2,2.18,0-.06h.06v.06h.09l0,0v.06l-.09,0h-.06l-.06,0Zm6.69-6.07,0,0v.06l0,0h.16l0,0V5.72h-.16ZM77,7.68l.12,0h.09V7.8H77l0,0Zm4.62,4.44,0,0h.12l0,0,0,0v0l0,0,0,0h-.15l0,0v-.06Zm6.87-6.21,0,0h.15V6l-.09,0h-.09ZM60.32,15.46l.09,0h.1v.09l0,0,0,0-.07,0h-.12v0l0,0ZM86.23,7.65l0-.06h.15l0,.06v.09l0,0h-.15l0,0Zm-.66,2.69,0,0h.27v.09l0,0h-.27ZM62.38,12.69l0,0h.13l0,0,0,0v0h-.06v.06l-.06,0h-.12l0,0v-.06l0,0ZM83.06,5v.06l.06,0h.22l.06,0V5l-.06,0h-.22ZM64.67,10.49l.06,0h.06l0,0v.12l0,0-.09,0h-.09v-.12l0,0Zm24-3,0,0,0,0,0,0v.06h.18l.06,0,0,0V7.53l0,0,0,0H88.7ZM70,12l.06,0h.09V12l0,0H70v.06l-.1,0h-.06V12l0,0Zm11.46-6h.06V5.87h.15l0,0V6l-.06,0H81.5l-.06,0ZM74.92,8.65l.06,0H75l.06,0v.12l0,0H75v.06h0l0,0-.06,0V8.71Zm-3.71,7.84.09,0h.09l.06,0,0,0v0h-.06v.06l0,0h-.18Zm8-2.32.09,0h.12v.15l0,0H79.2l0,0V14.2ZM89.82,5.3v.06l0,.06h.21l0,0,0,0V5.27h-.27ZM71,11.27v-.12h.24l0,0v.06l0,0,0,0-.06,0h-.09l0,0Zm10.25,1.66v-.15h.28v.09l0,0,0,0-.06,0h-.06ZM68.71,9.4h.06V9.34H69v.15h-.12v.06h-.12l0,0Zm-3.95,3.8h.09v-.06H65l0,0v.12l-.06,0-.06,0,0,0h-.09l0-.06v-.06Zm15.5.34,0,0h0v.07h.06v.09h-.06v.06h-.24l0,0v-.06l0,0,0,0ZM89,8.11l0,0,0,0v.06l0,.06H89V8.23h.12l0,0,.09,0V8.08H89ZM76.46,7l.06,0h.12l.06,0v.12l0,0-.06,0-.09,0h-.06l0,0V7.08ZM63,11.76l.06,0h.15l0,0v.12l0,.06h-.27v-.12H63ZM87.65,8.29l0,0h.24l0,0v.12l-.09,0-.12,0h-.06l0,0ZM82.88,7l0-.06h.31V7l0,0-.09,0h-.22Zm.06.45,0,0h.15l0,0v0l0,0,0,.06,0,0,0,0,0,0h-.24V7.56l.06,0,0,0,0,0,0,0Zm-.09,1.21.09,0H83l.1,0,0,0,0,0v0H83.1v.06l0,0h-.24l0,0V8.65ZM63,12.54l0,0h.06v.18l0,0,0,0H63v.06l0,0h-.18v-.15l.09,0,.06,0H63ZM77,6.66l0,0h.18l.09,0v.12l0,0-.09,0H77l-.06,0V6.69ZM89.19,5.33l-.06,0-.09,0v.15h.12l.21,0,0,0,0,0V5.36l0,0,0,0h-.15ZM73.56,7.77h.09V7.71h.22v.12l0,0-.09,0,0,.06-.16,0h-.12V7.86l0,0,.06,0ZM77.12,9h.21V9h.13l0,0v.06l0,0,0,0,0,0H77.3v.06l-.15,0H77l0,0V9.16l0,0,0,0,0,0Zm-6.18.39,0,0H71l.12,0,0,0v.06h.06l0,0v.06h-.09v.06h-.33V9.52l0-.06Zm-.51.4,0-.06h.21l0,.06v0l0,.09-.09,0h-.09V10l-.06,0h-.15l0,0,0,0V10l0,0,0,0,.06,0ZM74.2,7.32l0-.09h.06l.06,0,0,0,0,0V7.5l0,0h-.06v.06l0,0-.09,0h-.15l0,0V7.53l0,0,0,0,0,0,0,0,0,0Zm-3.74,4.25,0,0h.15l0,0v.16l0,0,0,0,0,0h-.21v.06l0,0-.12,0h-.06l-.06,0v-.09h.12v-.09l.06,0,.06,0,0,0,0,0Zm-1.09-1.11,0,0h.36l0,0v.06l0,0h-.09v.06l0,0-.06,0-.06,0,0,0h-.24l0-.06v-.06l0,0,0,0h.06v-.06ZM87.2,9h.09V8.89h.21V9l0,0,0,0-.06,0-.12,0,0,0,0,0-.06,0H87V9.16l0-.09.06,0,.06,0,0,0ZM76.85,15.68l.12,0h.21v.15l-.09,0-.06,0H77v.06l-.06,0-.12,0H76.7l-.06,0v-.12h-.12v-.06l.06,0,.24,0Zm-3.77,2.41.09,0h.15l.09,0,.09,0v.12l0,0,0,0,0,0-.06,0-.12,0h-.12l-.06,0-.09,0v-.15l0,0,0,0Zm-2.89,2.32,0,0h.24l0,0v.06h.06v.15l0,0,0,0-.06,0H70l-.06,0v-.15l.06,0,.06,0h.09ZM75.28,7.77h.09V7.71h.12l0,0V7.9h-.06V8l0,0-.09,0,0,.06-.12,0h-.06v.06h-.21V8l.09,0,0,0h.09V7.83l.06,0ZM63,12.12l.06,0h.27v.09h.06l.06,0v.15l-.06,0-.06,0,0,0-.15,0H63l0,0v-.09h-.06l0,0v-.12l0-.06ZM81.62,7.68l0,0H82v.09l0,0h-.09v.06l-.06,0-.09,0h-.06V8l0,0H81.5v.06h-.22V8h-.09V7.9h.06V7.8l.28,0,0,0,0,0ZM78.06,6.09l0,0h.09l.06,0v.12l-.09,0h-.06V6.3l0,0,0,0-.06,0h-.06v.06l-.06,0-.06,0h-.3V6.39l0,0,0,0,0,0,0,0h.12V6.21l.12,0,.12,0,0,0ZM70.28,8.38l0,0h.15v.12l0,0,0,0,0,0h-.09v.09l0,0,0,0h-.09v.06L70,8.8h-.13v.06h-.09V8.8h-.09V8.68l0,0,0,0,0,0h.09V8.53l0,0,.09,0,.18,0,0,0Zm3.77,9,.06,0h.09l0,0,0,0v0H74.2v.06l-.15,0,0,0,0,0,0,0h-.09v.15h.06v.09h-.37l-.06,0v-.21l0,0,.09,0,.07,0,0,0,0,0,.06,0,.21,0ZM79.75,7.2l0-.06h.12l0,0,0,0v.12h-.09v.06l-.06,0h-.06v.06l0,0-.09,0-.15,0,0,0h-.12V7.53h-.1l0,0V7.41h-.15V7.32h.12l0,0h.06l.15,0,.16,0,0,0,.09,0Zm5.31,1,.06,0h.18l0,0,0,0v0H85.3v.06l0,0,0,0h-.15v.06l0,0,0,0H85v.06l0,0-.09,0h-.12v.06h-.18V8.59h-.09V8.5l.06,0,0,0,0,0,.06,0,.09,0,.06,0,0,0h.06l.09,0,0,0,0,0Zm-4.2-2.48H81V5.63h.21l0,0v.12l-.06,0-.06,0,0,0-.06,0-.09,0H80.8V6l-.06,0h-.06v.06l-.06,0-.12,0,0,0-.12,0H80.2l0,0V6.12l0,0,0,0,0,0,0,0,.09,0,.06,0h.12V5.87l.06,0,.09,0h.09V5.75l0,0Zm3.8,4.56.09,0H85v.15l-.09,0-.06,0,0,0,0,0,0,0-.06,0h-.09v.06l0,0-.09,0h-.24v.15l0,0,0,0-.18,0,0,0h-.18l0,0,0,0v-.09l.06,0,0,0,.06,0,.21,0h.09v-.06l0-.06h.09v-.06l.06,0,.09,0h.09v-.06l0,0,0,0h.09ZM69.46,9l0,0h.39l0,0v.18l0,0,0,0-.06,0-.06,0h-.09v.06l-.06,0,0,0,0,0,0,0,0,0-.06,0,0,0-.06,0,0,0h-.06v.06h-.15l0,0V9.49l0,0,0,0,0,0h.09V9.34l0,0,0,0h.06V9.22l0-.15,0,0h.06Zm19-3.86,0,0-.15,0,0,0-.06,0-.09,0L88,5.3l0,0-.12,0-.15,0,0,0,0,0-.06,0-.09,0v.12l0,0h.09l.12,0,0,0,.06,0,.06,0,.33,0,0,0,.09,0,.06,0V5.36h.06l.06,0,.06,0V5.24h.12l.13,0,0,0V5.12l0,0,0,0h-.28v.06ZM74.83,16.76l0,0H75l0,0v.12H75v.06L75,17l0,0,0,0,0,.06,0,.06h-.06v.1l0,0-.18,0,0,.06,0,0h-.18l0,0,0,0-.06,0-.06,0v0l.06,0h.12v-.06l.06,0,.06,0,.06,0,0,0,0-.09,0,0,0-.06,0,0,0,0,.06,0Zm3.38-8.41h.21V8.29h.09l0,0v.06l0,0,0,0,0,0h-.09v.06l-.06,0-.06,0,0,.06-.18,0,0,.09,0,0h-.06v.06l0,0,0,0h-.06V9H77.7l0-.06V8.77h-.06l0-.06-.07,0V8.59h.07V8.53l0,0,.18,0,0-.06.12,0Zm.3-.58h.09V7.71h.24l0,0,.06,0v.09l0,0,0,0,0,0-.06,0-.12,0,0,0,0,0v.06l0,0,0,0,0,0h-.39V8.17h-.27V8.11h-.09V8h.09V8l.09,0,.18,0h.18V7.83l0,0Zm-10,2,.09,0H69v0l0,0,0,.06,0,.09,0,0h-.09V10l-.12,0,0,0H68.5v.06l-.09,0,0,0,0,0-.06,0H68.2l0,0,0,0-.06,0h0l-.15,0,0,0h0v-.06h-.09V10.1l0,0,0,0,0,0,0-.09.13,0,.12,0h.09V9.8l.06,0h.3ZM76,16l.09,0h.12l.06,0v.06h.18v.12l0,0-.12,0-.18,0h-.21v.06H75.8l0,.12v.15l0,0h-.09v.06h-.19c0-.1-.23-.1-.27,0h-.12v-.12l0-.06h.09v-.06l.06,0,.06,0,0-.06,0,0,.09,0,0,0,.07,0,.09,0,.06,0,0,0,0,0,.12,0,0,0ZM71.94,7.23l.09,0h.09l0,0,0,0v.06h-.06v.06l0,0-.12,0,0,.09h-.06v.06l0,0-.07,0-.06,0,0,0-.06,0-.09,0-.06,0,0,0,0,.07,0,.06,0,.06h-.09v.06l-.09,0,0,0,0,0-.06,0,0,0-.24,0,0,0h0l0,0,0,0h-.06V8.17l.06,0h.06V8.08l0,0,.09,0H71V8l.09,0,0,0,.06,0,0,0,0,0h.09V7.68l0-.09,0,0h.06V7.5l.09,0,.09,0,.12,0,0,0h0v.06h.12V7.32Zm12.33.57.06,0h.21l.06,0,0,0,0,0,.15,0,0,0v.15l0,0,0,0,0,0h-.18l0,0-.12,0h-.18l0,0,0,0,0,0,0,0H84v.06l-.12,0h-.48l-.09,0V8.23h-.06V8.17l.06,0h.15V8.08l.33,0,.06,0L84,8l0,0,.06,0,.12,0,0,0,0,0Zm-11,1.84.06,0h.12l.09,0v.13l0,0,0,0-.06,0h-.06v.06l-.12,0,0,0h-.09V10l-.09,0,0,0h-.09v.09l-.06,0,0,0-.06,0-.09,0,0,0v.06l0,0-.09,0,0,0-.06,0,0,0-.12,0,0,0-.06,0-.09,0,0,.06,0,0-.09,0,0,0h-.16v-.06h-.06v0l0,0,0,0,0,0,0-.06.18,0,0,0,0,0,0,0,.06,0h.06v-.06l0,0,.09,0,0-.06.21,0,0-.09h.06V10l0-.06.15,0,0,0,0,0,0,0h.09V9.8l0,0,.12,0,0,0,0,0Zm16-2.8,0,0h.27v.06h.06v0l0,0,0,0,0,0,0,0,0,0-.06,0h-.09v.06l-.12,0-.15,0H89v.06l-.12,0-.13,0h-.24v.06h-.06v.09l0,0-.09,0,0,0,0,0-.15,0-.18,0h-.06v.06l-.06,0h-.15l0,0V7.59l0,0h.09V7.5l.09,0,.06,0,.12,0,0,0,.06,0h.09V7.23l.18,0h.18V7.14l0,0,0,0h.09V7l.09,0,.09,0H89V6.9l.15,0ZM83.4,6.15l0,0h.15v.06h.06v.06l-.06,0,0,.06-.06,0,0,0h-.12v.06l-.06,0-.09,0,0,0,0,0-.06,0-.09,0h-.12v.06l-.09,0-.15,0,0,0-.06,0-.06,0H82.4V6.9l-.09,0-.06,0h-.09V7l-.18,0-.06,0h-.09v.06l-.06,0-.09,0h-.09v.06l-.15,0h-.28V7.14l.16,0,.06,0,.06,0,0,0,0,0,0,0,0,0,0,0,.09,0h.06V6.81l.12,0,0,0H82V6.69l.06,0,.06,0h.21V6.57l.12,0,.09,0,0-.06.12,0,0,0h.09V6.33l.12,0,.09,0,.06,0,0,0,.15,0Zm-7.18.57,0,0h.15v.06h.09V6.9l-.06,0-.06,0h-.09V7l-.12,0H76v.06l0,0,0,0,0,.09-.09,0-.06,0h-.09v.06l0,0h0v.06l0,0-.09,0-.06,0,0,0,0,0,0,0h-.06v.06l-.06,0-.09,0,0,0,0,0,0,0,0,0,0,0,0,0,0,0,0,0h-.12v.06l-.09,0h-.09v.06l0,0,0,0h-.06v.06l0,0,0,0H74.2v.06h-.36l0,0V8.32l0,0h.06V8.17l0,0,.21,0,0,0,.06,0,0,0h.09V8l0-.12h-.09l0,0V7.68l.06,0h.36V7.59l.12,0h.12V7.5l.06,0,.06,0,.12,0,0,0,.09,0,0,0h.06V7.26l0,0,.09,0,0,0,0,0,.07,0,.09,0,.06,0,0,0,.06,0H76V6.9l0,0h.06V6.78l.06,0ZM72.63,18.51l-.09,0-.09,0,0,0,0,0,0,0,0,0,0,0,0,0v.12h-.12l-.25,0,0,0,0,0v.12h-.13l0,0,0,0v.05H71.6l0,.07v.06h-.09l0,0-.12,0,0,.06-.06,0,0,0v.06h-.06l0,.09-.12,0,0,0v.06h-.06l0,0,0,0v.06h-.12l0,.06,0,0,0,0-.09,0,0,0v.06h-.06l0,0,0,.09v.09h.27l.06,0,0,0,0,0,0,0,.06,0,0,0,.12,0,0,0,0,0V20h.06l.09,0,0-.06.09,0,0,0,0,0v-.06h.06l0,0,.12,0,0-.06.06,0,0,0,0-.09v-.09h.1l.06,0,0,0,.09,0,0,0,.06,0,0,0,0,0,0-.05v-.07h.06l.06,0v-.12h.18v-.06h.09l.06,0,0,0,0,0,0-.06.06,0,0,0,0,0v-.12l0,0,0,0h-.09v.06ZM62,12.9l.06,0h.15l0,0,.09,0v.15l0,0,0,0-.06,0,0,0,0,0,0,0,0,0,0,0H62v.06l0,0,0,0h-.06v.06l0,.09-.06,0,0,0-.06,0,0,0,0,0,0,0,0,0,0,0,0,.06,0,0,0,.18-.18,0h-.09v.18l-.18,0-.09,0,0,.12,0,0,0,.06,0,0,0,.06-.06,0,0,.21h-.09V15l-.09,0H60.2l0,0,0,0V14.8l0,0,0,0,0-.15,0,0,0,0,0,0,0,0,0,0,0,0,0,0,0,0,0,0,0,0,0,0,0,0,0,0,.09,0,.06,0,0-.06v-.24l.09,0,0,0H61v-.06l0,0,0,0,0,0,0,0,0-.12,0,0,.12,0,0,0,.06,0,.06,0,0-.06.09,0,0,0,0,0,0,0,.06,0,0-.06,0,0h.06V13l0,0Zm25.94-7,0,0H88l0,0,.06,0v.34l0,0,0,0-.06,0-.12,0-.15,0,0,0h-.06l0,0h-.21l0,0h-.06V6.6l-.09,0H87l0,0h0l-.12,0,0,0,0,0,0,0-.06,0v.09h-.06v.09l0,.06,0,0-.09,0-.09,0-.12,0,0,0h-.06V7.2l-.06,0,0,0-.09,0-.06,0,0,.06-.09,0h-.09v.06l-.12,0-.06,0-.09,0,0,0-.06,0-.06,0-.09,0,0,0-.1,0-.18,0h-.09l0,0V7.68l0,0,0,0,0,0,0,0,0-.06.09,0,.13,0,.06,0,0,0,.12,0,.06,0h.09l0-.06V7.11l0,0h.12V7l.09,0,.12,0,.06,0,0,0,0,0,0,0,0,0,.06,0,.09,0,0-.06,0,0,.09,0,0,0,0,0,.09,0,.18,0,.06,0,0,0h.25V6.39l0-.06,0,0,.09,0h.21V6.21h.06V6.15l0,0,0,0,0,0,.12,0,0,0,.12,0,.06,0Zm-4,2.83-.09,0v.06h-.06l0,0,0,0V9h-.36l-.12,0V9h-.07l0,0v.12h-.24l-.09,0v.12h-.06l0,0-.15,0-.12,0v.21h-.09l-.24,0v.06H82l-.09,0,0,0,0,.06v.06h-.09V10h-.09l0,0v.06h-.06l0,0-.12,0v.06h-.09l-.07,0v.06h-.09l-.09,0-.12,0v.06H80.8l-.06,0-.06,0v.06h-.06l0,0v.06l0,.06,0,0,0,0h.18l.15,0v-.06h.18l.06,0,0,0,0,0,.06,0,.06,0,0,0v-.06h.09l0,0,.06,0,0,0,0,0,.09,0,.09,0,0,0,0,0,0,0,0,0,.39,0,.06,0,0,0,0-.09,0,0,0,0,0,0,.12,0,.12,0V9.73H83l0,0,.1,0V9.61h.05l0,0V9.4h.09l.36,0,0,0V9.25h.09V9.16h.12l.09,0,0-.06.12,0,0,0,.12,0V8.92h.06l0,0V8.83l0-.09-.09,0h-.3Zm3.08-3,0,0,0,0v.07l0,0h-.1l-.27,0v.06h-.12l-.12,0,0,0,0,0,0,0,0,0v.06h-.12L86,6.3l-.06,0v.06h-.09l-.09,0-.09,0,0,0-.15,0-.09,0-.09,0,0,0-.15,0-.1,0v.09H84.9l-.06,0-.09,0v.06h-.18l0,0V7h-.09l0,0,0,0v.06h-.06l0,0,0,0V7.2h-.06l0,0-.12,0v.06h-.12l-.09,0,0,0v.06h-.06l-.06,0-.21,0v.06h-.06V7.5h-.09v.06h-.09l0,0v.06h-.07l-.09,0,0,0v.06h-.09l-.15,0-.06,0,0,0,0,0,0,0,0,0,0,0v.06h-.06l-.12,0,0,0-.06,0-.12,0,0,0,0,0-.06,0-.09,0v.06h-.42l-.18,0h-.1l-.12,0v.12l0,0h.06l.13,0V8.47h.24v.06l0,.06h-.09l0,0-.12,0v.06h-.09l0,0,0,0,0,0-.06,0-.18,0-.15,0V8.8h.06l0,0V8.71H81l.09,0,0,0V8.59l0-.06h-.33l0-.06.06,0,0,0V8.35H81v0l0,0,0,0h-.21l-.09,0v.06h-.12l0,0-.09,0v.06h-.12l-.09,0-.06,0,0,0,0,.06,0,0v.06h-.12l-.09,0-.12,0,0,.09,0,0,0,.06,0,0V9h-.09l-.22,0,0,0v.06h-.09l0,0,0,0v.06H79l-.06,0-.12,0,0,0-.12,0,0,0-.06,0,0,0-.06,0-.12,0v.06h-.15l0,0,0,.09-.06,0L78,9.8v.06H78l0,0,0,0V10h-.12l-.06,0-.06,0v.06h-.06l0,0-.07,0,0,0-.13,0,0,0v.06h-.09l-.09,0H77l0-.06.06,0,0,0v-.06l0,0H77v.09h-.21l0-.06,0-.06.06,0L77,10V10h.12l.09,0h.31l0-.06,0,0,.06,0,0-.19,0,0,.09,0,0,0V9.49h.06l0,0,0-.06.12,0,.18,0,0-.06.06,0,0-.06,0,0,.06,0,.06,0V9h.18l.06,0,.09,0V8.8h.06l.27,0V8.71h.09l0,0,0,0V8.59h.12l.16,0,.06,0V8.47h.12l.06,0,0-.06,0,0,0,0,.09,0V8.23h.09l.09,0,.06,0,0,0,.12,0,0,0,0-.06.09,0,0,0V7.9h.09V7.77l.09,0,.21,0,0,0V7.59l-.09,0h-.27l-.06,0v.06h-.27l-.06,0-.09,0,0,.06-.06,0,0,0,0,.07V8H79.9l0,.06-.09,0-.15,0,0,0-.12,0-.07,0-.15,0,0,0-.06,0-.06,0,0,.06-.09,0,0,0v.06H78.9l-.06,0-.06,0,0,0-.09,0,0,0-.06,0,0,0-.06,0-.09,0-.15,0,0,0-.06,0-.09,0,0,0V9H78l0,0,0,.06V9.1h-.09v.06h-.09l-.06,0-.09,0v.06h-.07l0,0,0,0V9.4h-.07l-.06,0-.06,0,0,0-.12,0-.12,0v.06h-.27V9.52l0,0,0,0,0,0h-.33l-.15,0,0,0-.06,0-.15,0,0,0,0,0-.09,0,0,0,0,.1-.09,0v.06h-.34l-.24,0h0l0-.19h.27l0,0,0,0,.24,0,.07,0,.06,0V9.43l-.09,0,0-.09V9.25l.07,0,0,0,.13,0,.12,0V9l-.06,0,0-.06h-.13l0-.12V8.71h.06l.15,0h.18l0,0h.48V8.65h.12c0-.1.11-.1.15,0H77V8.59h.09v0l0,0L77,8.5h-.15V8.44h.12l.06,0,0,.06h.06v.06h.27l0,0,.1,0,0,0V8.08l0-.06,0-.06,0,0,0,0,.12,0,.06,0,0,0,.12,0,.06,0,0,0,0,0,0,0,0,0,0,0,0,0,.09,0,.06,0,.06,0,0,0,.12,0,.12,0V7.32h.09l0,0,0,0,0,0,0,0,0,0,0,0,0,0,.06,0,.09,0,.06,0,0,0,.06,0,0,0,.08,0V6.84h.16l0,0,0,0V6.72h.06l0,0V6.51l0,0,0,0H79.6l0,0-.12,0-.12,0,0,0v.06H79.2l-.09,0,0,0,0,.06-.09,0,0,0,0,0-.06,0,0,0,0,0-.06,0L78.6,7l0,0,0,0-.06,0-.12,0-.09,0V7.2h-.09l-.06,0-.09,0v.06l0,0V7.14h0l0,0-.15,0-.06,0-.09,0,0,0-.1,0,0,0,0,0v.06h-.1l-.06,0,0,0,0,0v.12h.25l0,0v.09h-.07l-.06,0-.15,0v0l-.1.12H77l0-.19h-.3l0,.06-.09,0-.09,0L76.4,8V8h-.09l0,0,0,0,0,0,0,0,0,0,0,0,0,0v.06H76l0,.06-.06,0,0,.06-.09,0-.06,0-.12,0v.06h-.07l-.06,0,0,0,0,0-.15,0-.09,0v.12H75.1l-.06,0V9H75l-.06,0V9h-.27V9l-.06,0H74.5l-.15,0V9h-.09l0,0,0,0v.06h-.06v.09h.18l.24,0a.13.13,0,0,1,.24,0h.12v.1l-.27,0h-.18l-.06,0-.06,0V9.4h-.09l0,0,0,0v.06h-.06l0,0v.06h-.06l-.06,0-.09,0,0,.06-.12,0,0,0,0,0-.07,0-.06,0-.06,0V10h-.09l-.09,0,0,0v.06H73.2l-.06,0,0,0,0,0,0,0-.15,0,0,0,0,0,0,0-.09,0,0,.06-.06,0-.06,0,0,0,0,0-.09,0,0,.06,0,0,0,0-.09,0v.06h-.09v.06h-.06l0,0-.12,0,0,0V11h-.05l0,0v.06h-.09l-.18,0,0,0,0,0v.06h-.06l0,0,0,0,0,0,0,0v.09h-.06l0,0-.06,0,0,0-.09,0-.09,0,0,0-.12,0-.06,0-.06,0,0,.06v.06h-.06l0,0-.15,0-.09,0-.12,0,0,.12v.06h-.09l0,0v.12H70v.06h-.1l0,0-.12,0v.09h-.06l-.06,0v.06h-.06l0,0,0,0v.06H69.4l-.06,0v.09h-.09l0,0,0,0,0,0,0,0,0,0,0,0,0,0,0,0-.39,0,0,0,0,0v.24h-.12l-.21,0,0,0v.09l0,0,0,0,.09,0h-.21v-.12l0,0v-.19h-.09l0,0,0,0-.15,0-.15,0-.15,0,0-.06,0-.06,0,0,0-.06,0,0V13.2h.06l0,0,.06,0,0,0,0,0V13H68l0,0,.07,0,.09,0,.12,0,0-.09,0,0,0,0,.09,0,0,0v-.06h.09l0,0,.06,0,0,0,.06,0,0,0,.06,0,0-.09,0,0,0,0,.21,0,0,0,0-.12v-.06h.06l0,0,0,0v-.06h.06l0,0,0,0v-.09h.09l.15,0,0,0,.06,0,0,0,0,0,0-.06.07,0,0,0,0,0,.09,0,.06,0v-.06h.06l.06,0,0,0,0,0,0-.06,0,0,0,0,.18,0,0,0,.09,0V11h.09l0-.06v-.18h.06l.06,0h.3l0-.06.09,0,0,0v-.06h.06l0,0v-.09h.09l0,0,.06,0,0,0,.06,0,.1,0,.12,0v-.06h.09l0-.09.09,0,.12,0V10h.09l0,0,0,0V9.83h.06l.21,0,0,0,.09,0,0,0,0-.09,0-.15,0,0,0,0,0,0V9.28h.18l.09,0,.06,0V9.13h.09l.12,0V9h.1l0,0,.12,0V8.92H74l0,0,0,0,0,0,.09,0,.06,0V8.71h.09l0,0V8.53l-.06,0h-.12l-.18,0,0,0-.06,0V8.53l0,0,0,0h-.06V8.41h-.28l0,0,0,0,0,.06,0,0v.06h-.06l-.06,0,0,0,0,0-.09,0-.06,0,0,0-.18,0-.09,0V9H72.6l0,0,0,0-.15,0,0,0v.12h-.51l0,.06-.09,0H71.6l-.21,0,0,0h-.09l0,0,0,0V9.4h.09v.06h.19l0,0v.09h.12v.12l-.09,0,0,0v.06h-.09l-.06,0h-.54l0,0v.15l0,0,0,0v.06l-.18,0-.06,0,0,.06v.12h-.06l0,0,0,0v.06h-.06l0,0-.15,0v.06h-.25l-.06,0v.09l0,0,0,.09H69.7l0,0,0,0,0,0h-.93l-.21,0-.06,0,0,0,0,.06,0,0v.06h-.06l-.06,0,0,0,0,0,0,0-.07,0-.05,0v.06h-.1l0,0-.06,0,0,0-.09,0,0,0v.07h-.09l0,.06v.06h-.12l-.09,0,0,0v.06H67.2l0,0v.09h-.09v.06H67l0,0-.06,0-.12,0-.06,0,0,0-.12,0,0,0v.06h-.06l0,0,0,0v.06h-.09l-.09,0,0,.09,0,0,0,0,0,0,0,0v.12h-.07l-.06,0-.15,0,0,0-.21,0,0,0v.06h-.12l-.09,0-.06,0v.06h-.06l-.06,0,0,0,0,0-.06,0-.06,0,0,0,0,.09,0,0,0,0,0,0,0,0-.09,0v.06h-.06l0,0v.06h-.09l-.06,0,0,0,0,0-.06,0-.1,0,0,0,0,0,0,0,0,0-.06,0,0,0,0,0,0,0,0,0,0,0,0,0,0,0,0,0-.06,0-.06,0,0,0,0,.06-.09,0,0,0,0,0,0,0,0,.06v.06h-.12l0,0-.09,0,0,.09,0,0,0,.06-.06,0,0,0,0,.06,0,0v.09h-.06l0,0v.06H62.8l0,0v.1h-.06v.05h-.06v.07h-.06l-.06,0v.09h-.06l0,0,0,.06,0,0,0,0,0,.06-.06,0,0,0,0,.06-.06,0,0,0,0,.09,0,0,0,0-.12,0-.06,0-.27,0,.06,0v-.18h.06l0,0,0-.06,0-.15,0,0,0-.06.09,0,0,0,0-.06.24,0,.09,0V15.5h.07v-.19l0-.15.12,0,0,0V15h.09l0,0,0,0,0,0,0,0,0,0,0,0,0,0,0,0,0,0,0,0,0-.15,0,0,0,0,0,0,.06,0,0,0,.06,0v-.06h.09l0,0,0-.12v-.09h.06l.12,0,0-.06,0-.06,0,0,0-.06,0-.09,0,0,.09,0v-.06h.06l.27,0,0,0,0,0V13.5l0,0,0-.06h.1l.15,0v-.06h.24l.06,0,0,0v-.15h-.22l.07,0,.12,0,.09,0,0,0,0,0v-.12h.36l.12,0v-.06h.06l.06,0,.09,0v-.06h.09v-.09l0,0-.27,0,0,0,0,0,0,0,0,0,.09,0v-.06h.09l0,0,.06,0,0,0,0-.06v-.06h.06l.06,0L66,12l0-.06.06,0,0,0v-.06h.09l.12,0,.06,0,0,0,0,0,0,0,0,0,0,0,0,0,0,0,.09,0,0-.06.06,0,0-.06,0,0,0,0,0,0,0,0,.06,0,.06,0v-.06h.09l0,0V11h.06l.06,0,.09,0v-.06h.09l.06,0,.06,0v-.06h.12l.06,0,0,0,0,0,.12,0,0,0v-.09H68v-.09H68v-.09l-.06,0h-.06l-.15,0-.06,0v.06h-.06l-.18,0v.12h-.09l-.24,0v.06H67l-.15,0,0,0,0,0-.06,0,0,0-.06,0v.06h-.09v.18h.12v.06h-.06l0,0,0,0-.21,0h-.16l0,0-.22,0v.06h-.09l-.06,0,0,0,0,0,0,0,0,.06,0,0v.06h-.06v.07h-.06l-.06,0-.09,0v.09l0,0h.15v-.06h.06v-.06h.06V11.7h.06l.15,0,0,0h-.06l0,0-.09,0,0,.06-.06,0,0,.09-.12,0H65.3l-.06,0h-.18L65,12l-.06,0,0,0,0,.06v.06l0,0,0,0,0,0h.15v.06h-.45l0,0v.06h-.09l-.12,0,0,0v.06h-.06l0,0v.15l0,0,.09,0h-.34l0,0v.12h-.15l-.12,0,0,0,0,0-.09,0v.06h-.09l-.06,0,0,0,0,0,0,0-.12,0,0,0v.06h-.06l0,0,0,0v.06H63v.06H63v.07h-.06l0,0,0,0v.06h-.09v.09h-.06l0,0,0,0v.06h-.06l0,0-.12,0,0,.06,0,.06,0,0,0,0,0,0,0,0,0,0-.06,0-.06,0v.06H62l0,0v.09h-.09l-.06,0,0,0,0,0,0,0,0,.06v.06h-.06l-.06,0v.09h-.06l0,0-.06,0,0,0,0,0V15h-.09l0,0,0,0,0,0-.06,0,0,.06,0,0,0,.06,0,.1-.09,0,0,0v.07h-.09l0,0v.12h-.06l0,.06v.09H61l0,.06,0,0-.15,0,0-.06h-.24l-.07,0,0,0,0,0,0,.06,0,.09,0,0,0,.06,0,0,0,0,0,0,0,0-.09,0,0,.06-.09,0-.06,0,0,0,0,0,0,0,0,0,0,0,0,.06,0,0v.06h-.06l0,0,0,0v.06h-.06l0,0,0,0V17h-.06v.09h-.09l0,0,0,0v.06h-.06l0,.09,0,0,0,0-.06,0,0,.09,0,0,0,0,0,.06,0,0v.06h-.06l-.06,0v.06h-.06l0,0v.09h-.07l0,.09,0,0-.09,0,0,0h-.12v.06h-.18l0,.06v.09l0,0h.06v.06h-.06l0,0v.06h-.09l0,0-.06,0,0,0,0,.06,0,0,0,0,0,.06-.06,0,0,0,0,0,0,0v.18h-.06l0,0,0,0v.05h-.06l-.06,0v.09h-.06l0,.06v.06h-.06l0,.09,0,.06v.09H57l0,0v.06h-.09l-.06,0,0,0,0,0h0l0,0,0-.18,0-.06v-.06h.06l0,0,0-.09V19.2H57l0,0,0,0,0,0,0-.06,0,0V19h.06l0,0,0-.09,0,0,0,0,0,0,0-.06v-.06h.06l0-.15,0-.09.06,0,0,0,0-.06.06,0,0-.06,0-.06,0,0,0-.06,0,0v-.06h.06l0,0,0,0v-.06h.06l0,0,0,0,0-.09,0,0,0-.06,0-.09.06,0,.06,0v-.06h.06l0,0v-.09h.06l0-.09,0-.06,0,0,0,0,0,0,0,0,0,0,0,0,0,0,0-.12v-.09h.09l0,0,0,0,0,0,0,0,0,0v-.21h.06v-.12h.09l.06,0V16.1h.06l0,0,0-.12v-.09h.06l.06,0,0,0,0,0,.06,0,.09,0,0-.09,0-.06,0,0,0,0,.12,0v-.21H60l0-.09v-.09l0,0H59.9l0,0-.09,0v.06h-.12l-.09,0,0,0,0,.09,0,0,0,0,0,0,0,0,0,0,0,0,0,0,0,0,0,0,0,.09,0,.09H59l0,0,0,.06,0,.06,0,0,0,0,0,0,0,0,0,0-.06,0-.06,0v.09h-.1l-.09,0-.09,0v.06H58.3l0,0v.09h-.09l0,0,0,.12v.06h-.06l-.06,0,0,0,0,0-.09,0,0,0,0,.09,0,0,0,0,0,0,0,0v.12h-.06l0,.06,0,.07v.09h-.06l0,0,0,0v.09h-.06l0,.09v.06h-.06l0,0-.12,0-.06,0,0,0h-.12l-.06,0v.15H57v-.09H57L57,18l-.12,0-.09,0,0,0,0,.06,0,.06,0,0,0,0-.09,0v.06h-.09v.12H56.4l0,.06,0,0,0,0,0,.12,0,0-.09,0v.06H56.1l0,.06,0,.18v.09H56l0,0,0,0v.06h-.06l0,.06,0,.09,0,0,0,.09,0,.09-.09,0,0,.06,0,.06,0,0,0,.12,0,.06v.09h-.06l0,0,0,.12,0,0,0,0-.06,0v.09h-.06v0l0,0,0,.06h-.06l0,0v.09h-.06l0,0-.15,0v.06h-.06l0,0,0,0v.28h-.05l0,.12,0,0v.09h-.06l0,.24V22l0,.12,0,.06,0,0,0,.18v.39l0,.09h.33v.06l0,0,0,0,.18,0v.15l0,.09,0,.06,0,0,0,.06,0,.09,0,0,0,0,0,0,0,.06v.21h-.05l0,.09,0,.12v.27l0,.06,0,0,0,0,0,0,0,0,0,0,0,0,0,0,0,.06,0,0,.06,0,.24,0,0,0,0,0,0,.7,0,.06v.27l.06,0,.06,0,0,0,0,0,0,0,.06,0,.06,0v.36l0,0,0,0h.06v.06l.09,0,.27,0h.09v.06h.27l0,0h.09l0,0,.09,0,.09,0,.12,0,0,.06.06,0,0,.1,0,.06,0,0,0,0,0,0,0,0,0,.12,0,.06,0,0,0,0,0,0,0,0,0,0,0,0,.06,0,.09,0,0,.09.09,0,0,.09,0,.06,0,0,0,.15,0,0,0,0,0,0,0,.33,0,0h.06v.09l0,.09.06,0,.06,0,0,0,0,0,0,.18,0,.06,0,0h.06v.12l0,0,0,0,0,0,0,0,0,0,0,0,.06,0,0,0h.06v.06l.06,0,.09,0,0,0,0,0,0,0,.06,0h.09v.06l.12,0h.06v.06l0,0,0,.06,0,0,0,.12,0,.06,0,0,0,0h.24v-.06h.21l.06,0,0,0,0-.06.06,0,0,0,0-.09,0-.09v-.09h.06l0,0,.1,0,0-.06,0,0,0-.15,0,0,0-.09,0-.09,0,0,0,0,0,0h.48v.27h-.09l0,.09,0,.15,0,0v.09l0,0,0,0,0,.09,0,.09,0,0,0,.09,0,.06,0,.15,0,0,0,0,0,0h.06v.21l0,.06,0,.07h.06v.06h.48l0,0,.12,0h.13l.12,0,0,0,0,0,0,0h.09v.06h.15l0,0,.12,0,.09,0,0-.09,0-.19v-.06h.06l0,0,0-.06.06,0,0-.09,0,0,0,0,0,0,0,0,0,0,0,0,0,0,0,0,0,0,0,0,0,0,0,0,0-.06,0,0,0-.06,0-.09v-.45l0-.06,0,0,0,0,0-.21v-.12H64l0-.28,0,0v-.06h.06l0-.09.06,0,0-.06,0-.09,0-.12,0,0,0-.24,0,0V27.5h.06l0-.21,0-.06v-.06h.06l0,0,0,0V27h.06l0-.12,0-.07,0,0,0,0,0-.07,0,0,0,0,0,0,0-.06v-.06H65l0-.09,0,0,0,0,0,0,0-.06,0,0,0-.12,0,0,0-.06v-.12h.09l0,0,0-.06v-.06h.09l0-.09,0,0,0-.15,0,0,.12,0v-.06h.06l0,0,0,0v-.06H66l0,0,.1,0,0-.18.06,0,0-.1v-.09h.06l0,0,.06,0,0,0,.12,0,0,0,0,0v-.06h.06l0-.18v-.06h.12l.09,0,0-.06,0-.06,0,0V24h-.52l0-.06,0,0,0,0,0,0,0,0,.06,0,0-.09v-.09H67l0,.06h-.06l0,0,0,0,0,0v.09l0,0,0,0h.18l0,0,0,0,0-.06,0,0,0,0,0,0v-.06h.06l0,0,0,0v-.06h.06l0,0,0-.09,0-.06,0,0,.09,0,0,0,0,0v-.06h.06l0,0,0,0V23h.06v-.1H68l.06,0,0,0,0-.09,0,0,0,0,0,0,0,0,.09,0v-.06h.09l0,0,0-.15,0,0,.06,0,0,0,0,0,0,0,0,0,0,0,0,0,.06,0,0-.06,0,0,0,0,0,0,.09,0v-.06h.09l0,0,0,0,0,0,0,0,0-.06v-.06h.06l.06,0v-.06h.06l0,0,0-.09.06,0,0,0v-.06h.09l0,0,0,0,0,0,0,0,0,0,0,0,0,0,0,0,0,0,0,0,0,0,0,0,0,0v-.15l0,0h-.25l-.06,0,0,0,0,0v.06h-.06V21h-.06l0,0-.06,0,0,0-.06,0-.06,0,0,.07-.09,0,0,0v.21H69l0,0,0,0-.09,0,0,0,0,0v.09h-.09l0,.09-.06,0,0,.06,0,0,0,0,0,0,0,.06-.12,0v.06h-.18l0,0,0,.15v.06H68l0,0,0,0v.09h-.06v.06h-.06l-.06,0,0,0v.06h-.06l0,0,0,.09,0,0,0,0,0,0-.12,0-.09,0v-.18h.06l.09,0v-.06h.09l0,0,0,0,0,0,0-.06,0,0,0-.09,0,0,0,0,.09,0,.06,0v-.06H68l0,0,0,0V22h.09l.06,0,0,0,0-.06,0,0,0,0,0,0,.06,0,0,0,0,0,0,0,.09,0v-.06h.09l0-.12,0,0v-.09h.06l0,0,0-.09.09,0,0,0,0,0,.12,0,0,0,0,0v-.06h.06l.06,0v-.06h.06l.06,0,.09,0,0-.06v-.12h.06l.12,0,0,0v-.09h.09l0,0v-.06H70l0,0,0-.12v-.06h.06l.06,0,0,0,0,0,.12,0,.09,0,.06,0V19.9h.06l0,0,0-.09,0,0,0,0,0,0,0-.06.09,0,0-.06,0,0,0,0,0-.06,0,0v-.06H71l.06,0,0,0,0,0,0,0,0,0,.09,0v-.07h.09l.12,0,.12,0V19h.09l.06,0v-.18h.07l0,0,0,0,0,0,0,0,0,0,0,0,0,0,0-.12,0,0,.09,0,.06,0,0,0,0,0,.15,0v-.06h.06l.09,0,.06,0v-.06h.09l0,0,.09,0,0-.09,0-.24h.45l0,0,0-.06,0,0v-.06h.12l.07,0,.12,0v-.06h.06l.06,0,.06,0,0,0v-.07l0,0,0,0v-.06l.06,0,0,0,0,0,0-.06,0,0,0,0,0,0v-.06h.12l.06,0,0,0,0-.06.09,0,.06,0,0,0,0,0,.09,0,0,0v-.06h.06l.06,0v-.09H75l.06,0,.09,0v-.06h.09l0,0V16.1h.06l0,0,.12,0V16h.06l0,0,0,0v-.06h0l0,0,.06,0,0,0,.06,0,.12,0,.09,0v-.06h.06l.09,0,.09,0,0-.1,0,0v-.07h.06l.12,0v-.06h.18l0,0,0,0,0,0,0,0,0-.06V15h.06L77,15l0,0,0,0,.09,0,0,0v-.06h.09l0,0,0,0v-.06h.06l0,0,0,0,0,0,.06,0,.06,0,.06,0v-.06h.09l0,0,0,0,0,0,0,0,.09,0,0,0,0-.06.06,0,0-.06,0-.06,0,0,0,0,.12,0,.09,0,0,0,.09,0,.06,0,.09,0v-.06h.09l.06,0,.09,0v-.06H79l0,0,0,0v-.05h.06v-.1h.06l.09,0,0,0v-.06h.09l.1,0,.09,0,0,0,0,0,.09,0,0,0v-.06h.09l0,0,0,0,0,0L80,13l0,0,.06,0,0-.06.24,0,0,0,.12,0h.3l.09,0,0,0,0,0,0,0,.12,0,0,0v-.15H81l-.15,0v.06h-.12l-.06,0-.09,0v-.18h.21l.06,0,.09,0,0-.09,0,0,0,0,0,0,.15,0,0,0,.19,0,.06,0,0,0v-.06h.09l.15,0,.06,0,0,0,0,0,.09,0,0,0,0-.09.09,0v-.06h.06l0-.06,0-.06v-.09h.06l.06,0,.12,0,0,0,.06,0,.09,0,.06,0,0,0,.06,0,.09,0,0,0V11h.06L83,11l.12,0,0,0,0,0,0,0,.06,0,0,0,.27,0,.06,0,0-.06,0,0,0,0,0,0,.09,0,.06,0,.12,0v-.06h.06l.06,0v-.09h.06v-.06h.18v-.06h.09l.09,0V10.1h.09l.12,0,.09,0,0,0,0,0V9.89l-.09,0-.12,0h.37l.09,0V9.73h.09l.06,0,.09,0V9.61h.09l.27,0,0,0,0,0,0,0,0,0,0,0,0,0,.09,0,.09,0,0,0,0,0v0l0,0-.09,0,0,0-.06,0h.21l.12,0V9h-.09l.06,0,.06,0V8.8h.06l.06,0V8.71h.12v.06h.24l0,0,0,0v0l0,0,0,0,0,0V8.47l0,0,0-.06-.06,0v0l.06,0,0,0,.12,0,.07,0,.05,0,0-.06V8h.18l0,.09,0,0,0,0,0,0,0,0-.12,0-.1,0v.09l0,0,0,0h.24l.09,0V8.35h.09l.06,0,0,0,0,0,0-.06.06,0,0,0,0,0,.3,0V8H88l.06,0,.12,0V7.9h.21l.09,0,0-.09V7.68l0,0h-.24l-.06,0-.09,0v.06H88l-.12,0,0,0,0,0-.12,0-.12,0h-.09V7.86l0-.06-.06,0h-.15l-.12,0,0,.06L87,7.9V8h-.1l0,0L86.8,8l-.09,0,0,0,0,0,0,0-.18,0-.12,0,0,0,0,0,0,0v.06h-.12l-.15,0-.06,0v.06h-.09v.06h-.06l0,0,0,0,0,0,0,0,0,0-.06,0,0,0,0,0v0h.09v.06h-.15l-.12,0,0,0-.06,0-.15,0,0,0-.18,0-.21,0,0,0,0,0,0,0,0,.06v.06h-.12l-.12,0-.09,0v.12l0,0h.06v.18h.4l0,.05-.09,0-.39,0V9.73h.06V9.64l-.06,0,0-.06,0,0-.12,0,0,0h-.06l0,0,0,0-.06,0v.06H83.7l-.12,0-.12,0v.06h-.09l0,.07v.06h-.12l-.1,0,0,0,0,0L83,10l0,0-.12,0,0,0-.06,0,0,0-.06,0v.06h-.09l-.06,0v.06h-.15l-.06,0-.09,0,0,.06-.09,0,0,0v.09H82l-.12,0v.06h-.09l-.12,0-.06,0,0,0,0,0,0,0-.09,0,0,.09V11h-.1l-.12,0,0,0v.06H81l-.12,0-.06,0v.06h-.09l0,.06v.06h-.09l0,0,0,0,0,0,0,0-.09,0-.18,0,0,0-.18,0-.12,0v.19h-.15v-.09l0,0,0,0,0,0v0c-.1,0-.1-.11,0-.15l0,0v-.06h.09l.12,0,0,0,0-.09v-.09h.27l.06,0,.06,0,0,0,.09,0,0,0v-.18h-.3l-.15,0-.15,0H80v-.06l0,0-.12,0h-.09v-.06l0,0-.09,0h.09l0,0,0,0,0,0V10.4l0,0,0,0,0,0h-.16l0-.09.09,0,0,0V10.1h.09v.06h.12v.06l0,0,0,0,0,0,0,0,0,0h.06l0,0,.09,0,.09,0,.12,0,0,0,.06,0V10.1h.06l.06,0,.09,0V10h.09l0,0,0,0,0,0,0,0,.09,0,.18,0V9.73h.1V9.49h.27l.21,0V9.4h.09l.09,0,0,0,0-.06.06,0,0,0,0-.06V9.07H82.1L82,9.1l0,0-.39,0-.09,0-.06,0,0,0-.06,0,0,0H81l0-.06h.09l.06,0,0,0,.16,0,.12,0h.09l.06,0V9h.06l.06,0,0,0,0,0,0,0,.12,0,.09,0V8.8h.09l.06,0V8.71h.09l.09,0,0,0V8.59h.06l0,0,0,0,.18,0h-.12v.09h.24l.12,0,0,0V8.47l0,0,0,0-.09,0,0,0,0,0,.09,0V8.2h.09l0,0V8.11h.05l.07,0V8h.06l.06,0,.12,0V7.9h.09l.09,0,.09,0,0,0,0,0,.09,0,.06,0,0,0,.06,0,0,0,.06,0V7.53h.09l.06,0,.09,0V7.41h.09l0,0V7.32h.09l.09,0,.06,0V7.2h.09l.09,0,.06,0V7.08h.19l.12,0,0,0V7h.06l.09,0,.12,0,0,0,.06,0,.06,0,0,0,0-.06.18,0V6.63h.12l0,0,.06,0,0,0,.09,0,.06,0,.09,0V6.39h.09l0,0,0,0,0,0,.15,0,.12,0,.07,0,0,0,.06,0,.18,0V6.06h.09l0,0,0,0V5.93h.18l.12,0,0,0,0-.06V5.75h-.21l0,.06h-.33l0-.06H87Zm-9.5,1.87v0l0,0Zm3.07,1.51H80.5l-.09,0,0,0V9h.24v.12Zm-1,.06v.06h-.06l0,0,0,0v.09h-.08l-.07,0,0,0-.06,0-.06,0v.06H79l-.09,0,0-.06.12,0V9.49h.06l0,0V9.37h.09l.15,0,0-.06.07,0,0,0,.06,0Zm.15.39h-.06l0,0,.09,0,0,0,.18,0,0,.06v.06Zm-.91.22,0,0-.09,0,0,.12-.12,0v.06h-.09v.12l-.12,0,0,0-.06,0v0l0-.06V10h.06l.06,0,0,0,0,0,0,0,.09,0,.15,0V9.73h.16l0,.06ZM76.16,10c0-.13.21-.25.36-.25h0c.07,0,.09,0,.09.1a1.48,1.48,0,0,1-.48.27h-.09v.06H76c-.09,0-.06,0-.09-.06l.18,0Zm7.78,0-.09,0v.06l0,.09-.06,0h-.16l0-.06V10h.09l.18,0,0,0,.09,0,0,.06V10Zm-9.41.39.06,0h.06l.12,0v.06h.36l.06,0,0,0,0-.27h-.19l0,0,0,0L75,10h-.15l-.09,0,0-.06-.15,0-.06,0h-.06V10l-.12,0-.06,0-.12,0,0,0-.06,0H74v.09l0,0h-.06v.06l0,0-.22,0H73.5v.06l-.06,0-.06,0-.06,0,0,0,0,0h-.09v.09l0,.15,0,0,0,0L73,11l-.12,0,0,0,0,0,0,0-.06,0-.09,0,0,.06-.18,0h-.09v.06l0,0,0,0h-.06v.06l0,0,0,0,0,0,0,0,0,0-.15,0,0,0,0,0,0,0h-.07v.12l.07,0,0,0v.06h.48v-.06l0,0,0-.06,0,0,.09,0,.27,0h.12v-.07l0,0,0,0,0,0,0-.06.06,0,0,0,0-.09h-.07v-.09h-.06v-.09l0,0h.45v-.06l0,0,.37,0H74v-.06l.12,0h.09l0-.06,0,0,0,0-.09,0-.06,0v-.15l.12,0h.09v-.06h0l0,0h.12l0,0,0-.06.06,0Zm3.5.12,0,0v-.09H78l0,0-.06,0v.07l-.21,0,0,0,0,0,0,0h.09v.06h.09l0,0h.12l.06,0H78Zm-.45,0v0l0,0Zm-1,.18h0l0,0Zm6,0h-.24v0l.18,0h.15v0Zm-6.09,0v.06H76.4l-.09,0-.06,0H76v-.06H76v-.06H76l0-.06h.3v.06h.09l0,0,.12,0-.09,0Zm3.17.21,0,.06h.21L80,11l0,0h-.06v.06h-.12v.06h-.06l-.09,0-.06,0,0,0,0,0-.06,0,0,.06,0,0-.21,0,0,0v.06h-.06l0,0,0,0v.06H78.9l0,0,.09,0,0,0v-.12l0,0H78.9l0,0,0,0v.06h-.12l-.12,0-.09,0v.06h-.12l0,0v.07H78.3v.12h.24l.09,0,.06,0V11.7h.09l0,.06v.06l0,.09h.76l0,0V12l0,0,0,0-.1,0v.06h-.3l-.06,0-.12,0,0,0-.09,0v-.06h-.09v.06h-.06l-.06,0v.06h-.06v.12h.06v.12h-.06l-.06,0-.09,0v.09H78.3l0,0v.06h-.18l0,0-.06,0,0,0h-.21l0-.09-.06,0h.09l.09,0v.06l0,0h.06l0,0,0,0v-.12h.24l.09,0V12.6l0,0-.09,0v-.06l.06,0,0,0,0,0,0-.06v-.06h.06l.15,0,0,0v-.06h.06v-.09H78.6V12h-.12v.06H78.3v.06h-.09l0,0-.09,0v.06H78v.06h-.09l0,0v.06h-.09l-.09,0,0,0v.06h-.09l-.1,0v-.09h.07l0,0,.06,0,.09,0,0,0v-.06h.06l.06,0,.09,0,0-.06V12h-.21l0,.06-.06,0,0,0v.06h-.12l0,0,0,0,0,0,0,0v.09h-.22l-.12,0,0,0v.06H77l0,0h-.15l0-.06h.09l.09,0v-.06H77v0l0,0,0,0,0-.06H77l.09,0v-.06h.12l.09,0v-.06h.09l0,0,.09,0,0-.06.09,0,.06,0,0,0,0,0,0-.06,0-.09h.33l.09,0v-.06h.12l0-.06,0,0v-.15h.06l.15,0,0,0,.06,0v-.12h-.06v-.06h.09l0,0,0,0,.09,0,.06,0,0,0v-.06h.21l.4,0v0Zm-2.3.06,0,.06L77,11H77V11Zm-1.62.12c.11,0,.13,0,.15.12-.16,0-.26.07-.27-.12Zm-1.39.09h.12l-.06,0-.12,0v-.06Zm-5.52.21v.09h-.06l-.06,0v.06h-.09l0,0v.1h-.12l-.21,0v.06h-.1l0-.05,0-.13v-.06h.09l0,0,.12,0,0,0,0,0,0-.09.24,0,.12,0v.06h-.06Zm6,.06-.06,0-.06,0,0-.06v-.06h.15v-.06h.36l.18,0v.09h-.06v.06Zm2.63.15v.07h-.07l-.18,0-.09,0v.06h-.21l0,0,0,0V11.7h.09l0,0,.09,0,0-.06.06,0,.06,0v-.06h.16v.12Zm1.32.07v0l0,0Zm2.29.06v.06H81v-.06l0,0,0,0h.27l-.09,0Zm-9.32.48.06,0h.13v-.09h-.06l0,0-.09,0v.07l-.12,0h-.09v.06h-.21c0-.1-.11-.1-.15,0l-.12,0,0,0H71v.06l-.12,0,0,0h-.09v.06l0,0,0,0h-.06v.06l0,0,0,.09h-.06v.06l0,.06-.3,0-.06,0,0,0-.06,0,0,0h-.07v.15l0,0,0,0,0,0,0,0v.09l0,.12,0,0H70l0,0,0,0,0,0,.12,0,0,0,0,0,0-.06.06,0,0,0,0,0,.21,0,.12,0h.09V12.9l.09,0h.12v-.06l.12,0,0,0c.1,0,.1-.11,0-.15v-.18l.06,0h.15v-.06l.24,0,0,0Zm1.69.21.18,0h.13l.09,0c0,.1.14.1.18,0l.12,0h.06v-.06h-.06l0,0v-.06h-.06l0,0V12l-.15,0h-.06v.06l-.09,0,0,0,0,0,0,0-.06,0H73.5v.06l-.09,0-.06,0,0,0,0,0,0,.06h.18Zm1,.21-.25,0,0-.12v-.06l.18,0,0,0h.12v-.06l.18,0v.09Zm2.17.15,0,0-.09,0-.06,0,0,0,0,0,0,0-.09,0v.06H76V13h.09l0,0,0,0,0,0v-.06h.06v-.06h.3l0,0Zm.3.27,0-.06H77V13l-.27,0,0,0,0,0-.12,0,0,.06,0,.06-.09,0,0,.06-.06,0,0,.06,0,0,0,0h.21v-.06l0,0,.12,0h.06l.12,0,0,0h.06l.3,0,0-.06,0,0,.06,0h.13V13l-.1,0-.33,0,0,0,0,0h-.12Zm-1,.21,0-.06H76l-.09,0-.15,0h-.16l0,0-.09,0,0,.06-.06,0,0,.09-.06,0,0,.15,0,0-.06,0,0,.06H75v.06h.12v-.06l.06,0,.09,0,0,0,0,0,0,0,0,0,0,0,0,0,.06,0h.19v-.06l.09,0,0,0Zm-3.47,0,0,0,0,0,0,0-.15,0,0,0,0,0H72l-.13,0h-.06l0-.06,0,0,0,0,.06,0,.09,0,.12,0V13.2l.21,0v.06Zm-8.72,0,.15,0v.06h-.09l-.09,0Zm12.58.09v0l0,0Zm1.54.09v-.06l0,0,0,0,.21,0v.06l0,.06H78Zm-8,.22,0,.09-.12,0-.06,0,0,0-.06,0-.06,0,0,0V14h-.12l0,.06v.06h-.06l-.06,0-.12,0v-.09H69V14h.12l0,0,.09,0,0,0,0-.06v-.09h.06l.06,0,.12,0v-.06h.15l.06,0v-.09h.09l0,.05v.1Zm-2.47.09,0,0v.09H67.2l0,0,0,0V14H67l-.06,0,0,0,0,0,0,0v.06h-.06l0,0,0,0,0,0v.06h-.06l0,0,0,0v.06h-.06l0,.06v.06l0,0h.27c0,.11-.08.11-.21.12l-.1.14-.09,0,.12-.15,0-.08H66.3l0,.06-.09,0,0,0,0,0v.06H66l0,0-.06,0,0,.06-.09,0,0,.06-.15,0,0,0,0,.06-.15,0,0-.09V15h.09l.09,0,.06,0,0,0,.06,0,0,0,0,0,0-.06.06,0,0,0,0,0,0,0v-.09h.06l0,0,0,0v-.09h.06l.09,0,0,0,.09,0,0,0,.06,0,0,0,.06,0,0,0,0,0,0,0,0,0,.06,0,0-.06,0,0,.09,0V13.9H67l.12,0,0,0v-.06h.09l0,0,0,0,0,0,.06,0,.06,0,.06,0v.13h-.12v.06Zm.85-.09v0l0,0Zm8.68.15,0,0-.09,0-.06,0,0,0,0,0,0,0-.06,0-.09,0v.06h-.06l0,0H76v-.06H76l.06,0,0,0,0,0v-.15h.36l.06,0,0,0,.15,0,.15,0v.06ZM62.89,14h0l0-.06,0,0,.06,0h0V14Zm11.79,0-.12,0v.06h-.09l0,.06v.24h.24v0l-.06,0,0,.06-.09,0,0,0v.1l-.09,0v-.06l0,0V14.5l-.12,0h-.06l-.21,0-.06,0,0,0-.12,0,0,0,0,0v.06h-.06l0,0,0,0v.06h-.09l0,0h-.18l0,0,0,0,0,0,0,0,0-.06,0-.09.09,0,0,0v-.06h.07l0-.12.24,0,.12,0v-.06h.06l0,0,0-.06.06,0,.06,0V14h.18l.15,0,.1,0,0,.06Zm-12.3.39h0Zm6.15.15,0,.06,0,0,0,0-.09,0-.09,0,0,0-.12,0-.07,0v-.18h.13l0,0v-.06h.15l0,0,.06,0,0,0,.06,0h.15l0,.06h-.06v.06Zm5.28.45v0l0,0Zm-.09.18,0-.06h.06V15h-.06v.06l0,0-.13,0-.12,0,0,0h-.21l0,0V15l-.15,0H72.9v.06h-.09l0,0,0,0-.09,0-.09,0,0,0,0,0,0,0,0,0,0,.12h.4v-.07l0,0,0-.06,0,0,.06,0h.15l0,0,0,.06v.06l0,0-.09,0,0,.05-.09,0,0,.06-.06,0,0,0,0,0,0,0,0,0,0,.06-.24.17-.3.07v.18H72v.06l-.12,0,0,0-.13,0,0,0h-.15v-.06h-.36v.06l-.09,0,0,0H71v.06l-.09,0,0,.15h.21l.09,0,.06,0h.06l.3,0,0,0,.09,0,0-.06.06,0,.07,0,0,0,0,0,.1,0h.06v-.06l.06,0h.06v-.15h0c.17,0,.33-.26.48-.36v0l.12,0,.06,0h.06v-.06l.12,0,0,0,0,0,.15,0,0,0,0,0,0,0,0,0,0,0h.09v-.07h.09l0,.07h.13v-.13h-.06v0Zm-6.19.15-.21,0,0-.06,0-.06h.18v0Zm-2.44.28,0,0v.06h-.33v-.06l0,0,0,0,0,0v0l0,0,.36,0,.18,0,0,.06v.12Zm2.08,0,0,0h.06v-.09l-.09,0,0,0-.15,0,0,.09H66.9v.06l0,0,.12,0h.12Zm-.27.12v0l0,0ZM64,16.55l0,0,0,.09h-.15v-.06h.06l0,0,.06,0,.06,0,0,0,0-.06.07,0,0,.06v.09Zm8.78,0-.18,0v-.09h.09l0,0v-.06h.09l.18,0v.15h-.09ZM63.52,17V17H63.4l-.06,0v.06h-.06l0-.12v-.06h.06l0,0,.09,0,.1,0,0,.09Zm8.66,0,0,0,0,0v.06h-.46v-.06l0,0h-.09V17h.24l.12,0H72l.18,0h.06Zm-2,.15.09,0h.24l0,0,0,0v.06h.06v.09l0,0,0-.07h.15v-.06l0,0,.09,0,0-.05h-.15V17h-.09l-.06,0,0,0,0,0,0,0h-.39v.06h-.09V17H70v.06l0,.06,0,.09h-.07v.1l0,0-.09,0-.06,0,0,0,0,0-.09,0,0,.06,0,0-.12,0,0,0,0,0-.06,0h-.06v.06l0,0,0,0H69.1v.06l0,0,0,0H69V18l-.09,0-.06,0h-.06v.06l0,.06,0,.09-.07,0h.16l.12,0,0,0,0,0,0-.09,0,0,.09,0h.09V18l0,0,0,0h.06v-.06l.06,0,.09,0,0,0,0,0h.06V17.7l0-.09h.06v-.06l0-.06h.09v-.06l.09,0,0-.09,0,0,.09,0h.12v-.06Zm.45.18v0l0,0Zm-.76.64,0,0,0,0-.18,0v-.12h.09l0,0,.12,0v-.06H70v.12H70Zm.64.18,0,0v-.06h.12l.06,0v.09h-.12v.06h-.16Zm-.24.27,0,0v.06h-.09l-.12,0-.12,0v.06h-.16v-.12h.06l0,0,.07,0,0,0,0,0,.12,0,.27,0v.06h-.06Zm-1.18.12.12,0h.09v-.06h-.18v.06H69.1v.06l0,0-.09,0,0,0,0,0,0,0-.12,0v.12l.18,0,0,0,0-.06v-.09l0,0h.09Zm-1,.27,0,0v-.06H68l0,0H68v.06l-.06,0-.06,0,0,.06,0,.06,0,0,0,0-.06,0h-.06v.07l0,0-.06,0-.06,0,0,0,0,0,0,0h-.09v.06l0,0h-.12v.09l0,.09,0,0,0,0,0,0,0,0,0,0,0,0,0,0,0,0,0,0,0,0h-.09V20l0,0,0,0-.09,0,0,.06-.06,0,0,.06,0,.06,0,0,0,0,0,.06,0,0,0,0,0,0h-.09v.06l0,0,0,0H66v.09l-.06,0h-.06v.06l0,0,0,0h-.06v.06l0,.06,0,.09-.09,0,0,0,0,0-.06,0h-.06v.09l0,0,0,0,0,0,0,0,0,.12h.33l0,0h0l0,0,0,0,0,.12v.06h.06l0,0,.06,0v-.06l.06,0H66v-.06l0,0,0,0,0,0,0-.09v-.15l0,0-.13,0,0-.09,0,0V21l0,0,0,0,0,0h.58v-.06h.09v-.06l0,0,0,0,.09,0h.09v-.09l-.06,0-.12,0h-.06v.06h-.21v-.06h-.12l-.06,0v-.12l0,0,0,0,.12,0h.09v-.06l.06,0h.06v-.06l0,0,0,0,.09,0,0,0h.06v-.06l.06,0,0,0,.06,0,.09,0,0,0,0,0,0-.06h-.1v-.12l0-.09h.06v-.06l.21,0,.09,0v-.24h.06v-.06l.12,0,.09,0v-.09l0,0,0-.06L68,19h.19v-.12h-.06Zm1.35.06V19l-.09,0,0,0-.12,0,0-.06Zm-1.41.76v.06H68l-.06,0v.06h-.06l0,0-.09,0v.06h-.09l0,.09-.09,0-.06,0,0,0V20l0,0,0-.12,0,0,.09,0,.06,0v-.12h.12l.12,0v-.06H68l.1,0,0,.09ZM67,20.41h.12c.08,0,.07,0,.09.09l-.1.09-.2,0,0-.16h0Zm-1.9,1.48h.09v-.21l0-.06h-.06v.06l-.12,0-.12,0,0,0,0,0,0,0h-.06v.06l0,0,0,0h-.06V22l0,0,0,0,0,.09,0,0-.06,0,0,.06,0,0h-.06v.06l0,0,0,0h-.06v.06l0,0,0,0h-.06v.09l0,0H64v.06l0,0-.06,0,0,.06,0,.06h-.06V23l0,0,0,0,0,0,0,0h-.06v.06l0,0,0,0,0,.06,0,0-.06,0,0,0h-.06v.06l0,.06,0,.09-.06,0,0,.06,0,0H63.1V24l0,.06,0,0,0,0H63v.12l0,.06,0,0,0,0,0,0-.12,0,0,0,0,0,0,0v.12h.18v-.06l.09,0,0-.09.09,0,0,0,0,0,0-.09H63v0l0,0,0,0,0-.09,0,0,.09,0,0,0,.06,0,.06,0h.21l.12,0,0,0v.12h0l0,0,0,0,.09,0,0-.09H64v-.06l0,0h.09v-.09l.07,0h0v-.09l0-.06,0,0,0-.06,0-.06,0-.06h.06v-.06h.06v-.06h-.18v.06h-.12v.06l0,.09,0,0h-.06v.06l-.09,0,0,0h-.09v.06h-.09l0-.06v-.12l0-.18,0-.06h.09v-.06h.12v-.06l0,0,0,0h.06V23l0-.07h.09l0-.06v-.06l0,0h.06v-.06l.06,0,.06,0,.06,0,0,0,0,0,0,0,0,0v-.06l0,0v-.06l0-.06,0,0,0,0,.06,0H65v-.06l0-.09,0,0,0,0,0-.09Zm-1.63,2.5.1,0h-.07l0,.09,0,0v.09H63.4l0-.06v-.06l0-.09h-.06v-.06Zm-.93.82,0,0,0,0,0,0-.16,0,0,0,0,0,0,0v.09l.06,0,.07,0,0,0,0,0v.06l0,0h.06l0,0,.06,0v-.09h.18l0-.06v-.06h.06l0-.09,0,0v.15H62.8l0,0v.09h-.09l0,.09,0,0,0,0,0,.06,0,.21-.15,0v-.3l-.07,0h0l0,0,0,0v.12h.07l0,.06,0,0,0,.06-.12,0v.06H62l-.06,0-.09,0v.06h-.06l0,.15,0,.09-.24,0,0-.09,0,0,0-.06,0,0v-.09h.06l0-.24,0,0V25.9h.06l0-.06,0-.06v-.12h.06l0-.09,0,0,.06,0,0-.12,0-.12,0,0,.06,0,0,0,0,0,0,0,0,0,0,0,.07,0,0-.09v-.07h.07l0,0,.06,0,0,0,.06,0v.46Z"/><path class="cls-1" d="M43.67,10.73a9.84,9.84,0,0,1,0,19.68Z"/><path class="cls-1" d="M68.13,40.93H67.2l-.48-1.29H65.16l-.46,1.29h-.88l1.71-4.51h.79Zm-1.67-2-.54-1.43-.51,1.43Zm-4.33-1.09a1.43,1.43,0,0,0-.12-.31.8.8,0,0,0-.22-.23.87.87,0,0,0-.29-.14,1,1,0,0,0-.35,0,1.27,1.27,0,0,0-.52.1,1.14,1.14,0,0,0-.39.3A1.61,1.61,0,0,0,60,38a2.67,2.67,0,0,0-.08.67,2.76,2.76,0,0,0,.08.68,1.61,1.61,0,0,0,.25.49,1.05,1.05,0,0,0,.39.31,1.19,1.19,0,0,0,.51.1A1,1,0,0,0,61.8,40a.9.9,0,0,0,.33-.61H63a1.88,1.88,0,0,1-.2.67,1.62,1.62,0,0,1-.4.49,1.57,1.57,0,0,1-.55.31,2.5,2.5,0,0,1-.69.1,2.35,2.35,0,0,1-.86-.16,1.85,1.85,0,0,1-.66-.47,2.16,2.16,0,0,1-.41-.73,3.18,3.18,0,0,1,0-1.93,2.18,2.18,0,0,1,.42-.73,1.9,1.9,0,0,1,.65-.47,2.2,2.2,0,0,1,.86-.16,2,2,0,0,1,.65.11,1.72,1.72,0,0,1,.55.3,1.7,1.7,0,0,1,.41.47,1.78,1.78,0,0,1,.22.61ZM58,40.93h-.83v-4.5H58ZM55.5,38.65a2.87,2.87,0,0,0-.06-.61,1.2,1.2,0,0,0-.23-.45,1,1,0,0,0-.44-.29,2,2,0,0,0-.7-.1h-.63v2.95h.63a1.94,1.94,0,0,0,.69-.1,1,1,0,0,0,.44-.29,1.08,1.08,0,0,0,.23-.48,2.38,2.38,0,0,0,.07-.63m.85,0a2,2,0,0,1-2.27,2.28H52.61v-4.5h1.47a2,2,0,0,1,2.27,2.22m-4.61,2.28h-3.4v-4.5h3.3v.77H49.17v1h2.31V39H49.17v1.17h2.57Zm-3.85,0h-.81V38l-1,2.89h-.69l-1-2.89v2.89h-.81v-4.5h1.08l1,3.21,1-3.21h1.08Z"/><path class="cls-1" d="M89,40.93h-3.4l1-4.5h3.3l-.17.77H87.27l-.22,1h2.31l-.17.76H86.88l-.25,1.17H89.2Zm-6.26,0H82l-1.33-3-.65,3h-.8l1-4.5H81l1.32,3,.65-3h.81Zm-6.42,0h-.82l1-4.5h.83Zm-3.41,0H70.07l1-4.5h.82l-.8,3.72h2Z"/></svg>