<?xml version="1.0" encoding="utf-8"?>
<!-- Generator: Adobe Illustrator 25.4.1, SVG Export Plug-In . SVG Version: 6.00 Build 0)  -->
<svg version="1.1" id="Capa_1" xmlns="http://www.w3.org/2000/svg" xmlns:xlink="http://www.w3.org/1999/xlink" x="0px" y="0px"
	 viewBox="0 0 135 46" style="enable-background:new 0 0 135 46;" xml:space="preserve">
<style type="text/css">
	.st0{fill:#38444E;}
	.st1{fill:#E64860;}
	.st2{fill:#808791;}
	.st3{clip-path:url(#SVGID_00000103956591978037337340000017784005450880214960_);fill:#E64860;}
	.st4{fill:none;stroke:#E64860;stroke-width:0.6287;stroke-miterlimit:10;}
	.st5{fill:#194374;}
	.st6{fill:#00659B;}
	.st7{fill:#DC0D6E;}
	.st8{fill:#004D80;}
	.st9{fill:#7EA9D6;}
	.st10{fill:#B6D4EF;}
	.st11{fill:#058DC7;}
	.st12{fill:#00559F;}
	.st13{fill:#134A83;}
	.st14{fill:#B51975;}
	.st15{fill:#2497D0;}
	.st16{fill:#D80F3B;}
	.st17{fill:#9BC338;}
	.st18{fill:#008541;}
	.st19{fill:#9DC438;}
	
		.st20{clip-path:url(#SVGID_00000025411706857629381960000016972790180511158681_);fill:url(#SVGID_00000129926847545166182040000010910285790458670013_);}
	
		.st21{clip-path:url(#SVGID_00000105419717791799012840000002722376090993052319_);fill:url(#SVGID_00000149383712985204561150000005915571812984781960_);}
	
		.st22{clip-path:url(#SVGID_00000003784258923585740840000002998960689989104012_);fill:url(#SVGID_00000070087255895286097530000005452971520851387824_);}
	.st23{fill:#F9BE12;}
	.st24{clip-path:url(#SVGID_00000124876579308725035350000014311070645243199414_);}
	.st25{clip-path:url(#SVGID_00000114770300834071914640000006641368737968129201_);}
	.st26{clip-path:url(#SVGID_00000044865265145968374380000006772884755966724743_);}
	.st27{clip-path:url(#SVGID_00000155106747048121419820000006219189028765597574_);}
	.st28{clip-path:url(#SVGID_00000040561881104317706660000016928751427957848452_);}
	.st29{clip-path:url(#SVGID_00000073688882346811823600000003852322433886126015_);}
	.st30{clip-path:url(#SVGID_00000105428703043173267330000005123825360822415257_);}
	.st31{clip-path:url(#SVGID_00000170236315792203233990000013857217942617015471_);}
	.st32{clip-path:url(#SVGID_00000111174229158846209430000014033727464239177132_);}
	
		.st33{clip-path:url(#SVGID_00000083066222893762415520000015858940760168074912_);fill:url(#SVGID_00000169537521138052673000000012043848556793313697_);}
	.st34{clip-path:url(#SVGID_00000013178047057168912060000013807658224544020628_);}
	.st35{clip-path:url(#SVGID_00000081607660713431574270000015065240186080593843_);}
	.st36{clip-path:url(#SVGID_00000029005470485845488420000015903593216421513653_);}
	.st37{clip-path:url(#SVGID_00000072278094214656722740000002442616221497760935_);}
	.st38{clip-path:url(#SVGID_00000140697718035767322290000016439333616071624347_);}
	.st39{clip-path:url(#SVGID_00000035519514225222028050000006231254052978784955_);}
	.st40{fill:#009BDA;}
	.st41{fill:#CE1620;}
	.st42{fill:#171915;}
	.st43{fill:#E30750;}
	.st44{fill:#5775B5;}
	.st45{fill:none;stroke:#5775B5;stroke-width:0.5802;}
	.st46{fill:#5A595C;}
	.st47{fill:#FFFFFF;}
	.st48{fill:#364F8F;}
	.st49{fill:none;stroke:#364F8F;stroke-width:0.3873;}
	.st50{fill:none;stroke:#364F8F;stroke-width:1.3345;stroke-linecap:round;}
	.st51{fill:#656362;}
	.st52{fill:#C8D44A;}
	.st53{fill:#E42E38;}
	.st54{fill:none;stroke:#FFFFFF;stroke-width:0.4523;stroke-miterlimit:10;}
	.st55{fill:#51B054;}
	.st56{fill:#0079BB;}
	.st57{fill:#086EB0;}
	.st58{fill:#99A4AB;}
	.st59{fill:#B2A7A5;}
	.st60{fill:#931340;}
	.st61{fill:#DFDCD9;}
	.st62{fill:#27A1D7;}
	.st63{fill:none;stroke:#000000;stroke-width:0.1494;stroke-linejoin:bevel;stroke-miterlimit:22.926;}
	.st64{fill:none;stroke:#000000;stroke-width:0.1585;stroke-miterlimit:22.926;}
	.st65{fill:#EA3D36;stroke:#ED1C24;stroke-width:0.1417;stroke-linejoin:round;}
	.st66{fill:#EA3D36;}
</style>
<g>
	<polygon class="st1" points="50.8,17.2 46.4,17.2 43.8,28.6 43.8,28.6 41.2,17.2 36.8,17.2 36.8,31.6 39.6,31.6 39.6,19.6 
		39.7,19.6 42.3,31.6 45.2,31.6 47.9,19.6 48,19.6 48,31.6 50.8,31.6 	"/>
	<polygon class="st1" points="64.2,17.2 53.7,17.2 53.7,31.6 64.6,31.6 64.6,29.1 56.6,29.1 56.6,25.4 63.6,25.4 63.6,22.8 
		56.6,22.8 56.6,19.8 64.2,19.8 	"/>
	<path class="st1" d="M66.3,27.2c0,1.8,0.9,4.8,6.2,4.8c1.3,0,5.7-0.4,5.7-4.7c0-2.6-1.8-3.4-3.8-3.9l-3.5-0.9
		c-0.6-0.1-1.5-0.4-1.5-1.5c0-1.3,1.4-1.7,2.5-1.7c2.6,0,2.9,1.5,2.9,2.2h2.9c0-1.8-1.2-4.7-5.6-4.7c-4.7,0-5.5,2.8-5.5,4.4
		c0,3.2,2.2,3.7,4.6,4.2l1.5,0.4c1.5,0.4,2.6,0.7,2.6,1.8c0,1.5-1.6,1.9-3,1.9c-2.6,0-3-1.5-3-2.3H66.3z"/>
	<polygon class="st1" points="86.5,19.8 90.9,19.8 90.9,17.2 79.2,17.2 79.2,19.8 83.5,19.8 83.5,31.6 86.5,31.6 	"/>
	<path class="st1" d="M95.6,23.6v-3.9h3.7c1.8,0,2.1,1.1,2.1,1.9c0,1.4-0.8,2-2.3,2H95.6z M92.7,31.6h2.9V26h3.1
		c2.2,0,2.3,0.8,2.3,2.7c0,1.5,0.1,2.2,0.3,2.9h3.3v-0.4c-0.6-0.2-0.6-0.8-0.6-2.9c0-2.7-0.6-3.1-1.8-3.6c1.4-0.5,2.2-1.8,2.2-3.4
		c0-1.2-0.7-4.1-4.5-4.1h-7.3V31.6z"/>
	<path class="st1" d="M112.8,20.5L112.8,20.5l1.8,5.7H111L112.8,20.5z M110.2,28.7h5.3l0.9,3h3.3l-5.1-14.4h-3.5L106,31.6h3.2
		L110.2,28.7z"/>
	<path class="st1" d="M124.9,20.5c0,1.7-1.2,2.9-2.7,2.9v0c-1.5,0-2.7-1.2-2.7-2.9c0-1.7,1.2-2.9,2.7-2.9
		C123.7,17.6,124.9,18.8,124.9,20.5 M126,20.5c0-2.4-1.8-3.8-3.8-3.8c-2,0-3.8,1.4-3.8,3.8c0,2.4,1.8,3.8,3.8,3.8
		C124.2,24.3,126,22.9,126,20.5 M121.6,20.1v-1h0.6c0.3,0,0.8,0,0.8,0.4c0,0.4-0.2,0.5-0.6,0.5H121.6z M121.6,20.8h0.4l0.9,1.7h1
		l-1-1.8c0.5,0,1-0.3,1-1.1c0-0.9-0.6-1.2-1.7-1.2h-1.5v4h0.9V20.8z"/>
	<path class="st2" d="M20,12c6.1,0,11,4.9,11,11c0,6.1-4.9,11-11,11c-6.1,0-11-4.9-11-11C9,16.9,13.9,12,20,12"/>
	<g>
		<defs>
			<path id="SVGID_1_" d="M9,23c0,6.1,4.9,11,11,11c6.1,0,11-4.9,11-11c0-6.1-4.9-11-11-11C13.9,12,9,16.9,9,23"/>
		</defs>
		<clipPath id="SVGID_00000107556220215716764560000005057821660128565172_">
			<use xlink:href="#SVGID_1_"  style="overflow:visible;"/>
		</clipPath>
		<polygon style="clip-path:url(#SVGID_00000107556220215716764560000005057821660128565172_);fill:#E64860;" points="6.6,35 
			17.3,35.5 17.3,22.6 23.2,28.5 31.6,19.7 27.1,12.5 23.3,17 15.7,9.7 6.5,9.7 		"/>
	</g>
	<path class="st4" d="M20,12c6.1,0,11,4.9,11,11c0,6.1-4.9,11-11,11c-6.1,0-11-4.9-11-11C9,16.9,13.9,12,20,12z"/>
</g>
</svg>
