<?xml version="1.0" encoding="utf-8"?>
<!-- Generator: Adobe Illustrator 25.4.1, SVG Export Plug-In . SVG Version: 6.00 Build 0)  -->
<svg version="1.1" id="Capa_1" xmlns="http://www.w3.org/2000/svg" xmlns:xlink="http://www.w3.org/1999/xlink" x="0px" y="0px"
	 viewBox="0 0 135 46" style="enable-background:new 0 0 135 46;" xml:space="preserve">
<style type="text/css">
	.st0{fill:#38444E;}
	.st1{fill:#E64860;}
	.st2{fill:#808791;}
	.st3{clip-path:url(#SVGID_00000023255646231362888570000000115468928150463645_);fill:#E64860;}
	.st4{fill:none;stroke:#E64860;stroke-width:0.6287;stroke-miterlimit:10;}
	.st5{fill:#194374;}
	.st6{fill:#00659B;}
	.st7{fill:#DC0D6E;}
	.st8{fill:#004D80;}
	.st9{fill:#7EA9D6;}
	.st10{fill:#B6D4EF;}
	.st11{fill:#058DC7;}
	.st12{fill:#00559F;}
	.st13{fill:#134A83;}
	.st14{fill:#B51975;}
	.st15{fill:#2497D0;}
	.st16{fill:#D80F3B;}
	.st17{fill:#9BC338;}
	.st18{fill:#008541;}
	.st19{fill:#9DC438;}
	
		.st20{clip-path:url(#SVGID_00000075124207230915299540000016567566357543624834_);fill:url(#SVGID_00000077309748927218511560000010381978167157579907_);}
	
		.st21{clip-path:url(#SVGID_00000150812306492999525640000012168868452061014422_);fill:url(#SVGID_00000162332390716200302630000011395238307070598555_);}
	
		.st22{clip-path:url(#SVGID_00000181774629429150991900000002406675714120293286_);fill:url(#SVGID_00000062193706924518184300000002424124263239701170_);}
	.st23{fill:#F9BE12;}
	.st24{clip-path:url(#SVGID_00000139259772025886797210000006096838310356588672_);}
	.st25{clip-path:url(#SVGID_00000118392913576423709400000001228503596628046494_);}
	.st26{clip-path:url(#SVGID_00000048490686940125069040000008513937138623500672_);}
	.st27{clip-path:url(#SVGID_00000015345100428707153310000018419528176706977968_);}
	.st28{clip-path:url(#SVGID_00000020395535851044180600000003509351358208524422_);}
	.st29{clip-path:url(#SVGID_00000111187118883533323690000001259838529599641231_);}
	.st30{clip-path:url(#SVGID_00000017506465809808887240000008842782467919690928_);}
	.st31{clip-path:url(#SVGID_00000058570772373605145550000000631721731475508134_);}
	.st32{clip-path:url(#SVGID_00000111907915557888313810000000518467061427983279_);}
	
		.st33{clip-path:url(#SVGID_00000083084396521376066230000015950270325821307048_);fill:url(#SVGID_00000125587818270643053490000013355072110787442833_);}
	.st34{clip-path:url(#SVGID_00000108299343418486717770000011530701419246173881_);}
	.st35{clip-path:url(#SVGID_00000090284815138776371000000005529352597466411395_);}
	.st36{clip-path:url(#SVGID_00000065761714995904146930000015694931090857681567_);}
	.st37{clip-path:url(#SVGID_00000042737781906922289210000016354335901993995670_);}
	.st38{clip-path:url(#SVGID_00000086649317489611336590000005645770071022784924_);}
	.st39{clip-path:url(#SVGID_00000172398724477337168530000011883838358220213633_);}
	.st40{fill:#009BDA;}
	.st41{fill:#CE1620;}
	.st42{fill:#171915;}
	.st43{fill:#E30750;}
	.st44{fill:#5775B5;}
	.st45{fill:none;stroke:#5775B5;stroke-width:0.5802;}
	.st46{fill:#5A595C;}
	.st47{fill:#FFFFFF;}
	.st48{fill:#364F8F;}
	.st49{fill:none;stroke:#364F8F;stroke-width:0.3873;}
	.st50{fill:none;stroke:#364F8F;stroke-width:1.3345;stroke-linecap:round;}
	.st51{fill:#656362;}
	.st52{fill:#C8D44A;}
	.st53{fill:#E42E38;}
	.st54{fill:none;stroke:#FFFFFF;stroke-width:0.4523;stroke-miterlimit:10;}
	.st55{fill:#51B054;}
	.st56{fill:#0079BB;}
	.st57{fill:#086EB0;}
	.st58{fill:#99A4AB;}
	.st59{fill:#B2A7A5;}
	.st60{fill:#931340;}
	.st61{fill:#DFDCD9;}
	.st62{fill:#27A1D7;}
	.st63{fill:none;stroke:#000000;stroke-width:0.1494;stroke-linejoin:bevel;stroke-miterlimit:22.926;}
	.st64{fill:none;stroke:#000000;stroke-width:0.1585;stroke-miterlimit:22.926;}
	.st65{fill:#EA3D36;stroke:#ED1C24;stroke-width:0.1417;stroke-linejoin:round;}
	.st66{fill:#EA3D36;}
</style>
<g>
	<path class="st47" d="M83.9,21.4h4.5c0-1.4,2.1-2.5,4.6-2.5c2.5,0,4.6,1.1,4.6,2.5c0,1.4-2.1,2.5-4.6,2.5L87,24v2.8h6
		c2.6,0,4.6,1.1,4.6,2.5c0,1.4-2.1,2.5-4.6,2.5c-2.5,0-4.6-1.1-4.6-2.5h-4.5c0,2.6,4.1,4.8,9.1,4.8s9.1-2.1,9.1-4.7
		c0-1.7-1.7-3.2-4.3-4l-0.1,0.1c2.6-0.8,4.4-2.3,4.4-4c0-2.6-4.1-4.7-9.1-4.7S83.9,18.8,83.9,21.4"/>
	<path class="st47" d="M73.9,26.8c-2.5,0-4.6,1.1-4.6,2.5c0,1.4,2,2.5,4.6,2.5c2.5,0,4.6-1.1,4.6-2.5C78.4,28,76.4,26.8,73.9,26.8
		 M73.9,18.8c-2.5,0-4.6,1.1-4.6,2.5c0,1.4,2,2.5,4.6,2.5c2.5,0,4.6-1.1,4.6-2.5C78.4,20,76.4,18.8,73.9,18.8 M78.7,25.4
		c2.6,0.8,4.3,2.3,4.3,4c0,2.6-4.1,4.7-9.2,4.7c-5.1,0-9.2-2.1-9.2-4.7c0-1.7,1.8-3.2,4.4-4l-0.1,0c-2.6-0.8-4.2-2.3-4.2-4
		c0-2.6,4.1-4.7,9.2-4.7c5.1,0,9.2,2.1,9.2,4.7c0,1.7-1.8,3.2-4.4,4L78.7,25.4z"/>
	<path class="st23" d="M72.8,25.5c-2.5,0-4.6,1.1-4.6,2.5c0,1.4,2,2.5,4.6,2.5c2.5,0,4.6-1.1,4.6-2.5C77.3,26.6,75.3,25.5,72.8,25.5
		 M72.8,17.5c-2.5,0-4.6,1.1-4.6,2.5c0,1.4,2,2.5,4.6,2.5c2.5,0,4.6-1.1,4.6-2.5C77.3,18.6,75.3,17.5,72.8,17.5 M77.6,24
		c2.6,0.8,4.3,2.3,4.3,4c0,2.6-4.1,4.7-9.2,4.7c-5.1,0-9.2-2.1-9.2-4.7c0-1.7,1.8-3.2,4.4-4l-0.1,0c-2.6-0.8-4.2-2.3-4.2-4
		c0-2.6,4.1-4.7,9.2-4.7c5.1,0,9.2,2.1,9.2,4.7c0,1.7-1.8,3.2-4.4,4L77.6,24z"/>
	<g>
		<path class="st48" d="M65.7,23.4c0.2,0.3,0.5,0.5,0.8,0.7c0.1,0,0.2-0.1,0.3-0.1C66.4,23.8,66,23.6,65.7,23.4z"/>
		<path class="st48" d="M72.8,17.9c-2.3,0-4.2,1-4.2,2.1c0,0.4,0.3,0.8,0.7,1.2c0.2-1.3,2.1-2.3,4.5-2.3c1.1,0,2.1,0.2,2.9,0.6
			C76.2,18.5,74.6,17.9,72.8,17.9z"/>
		<path class="st48" d="M82.3,19.5c0,0.2,0,0.3,0,0.5c0,1.6-1.3,3-3.6,4c0.5,0.2,1,0.5,1.4,0.8c1.7-0.9,2.8-2.1,2.8-3.4
			C83.1,20.7,82.8,20.1,82.3,19.5z"/>
		<path class="st48" d="M82.4,28c0,2.9-4.2,5.1-9.6,5.1c-2.9,0-5.4-0.6-7.1-1.7c1.5,1.6,4.6,2.6,8.2,2.6c5.1,0,9.2-2.1,9.2-4.7
			c0-0.7-0.3-1.3-0.8-1.9C82.3,27.7,82.4,27.8,82.4,28z"/>
		<path class="st48" d="M69.3,29.2c0.2-1.3,2.1-2.3,4.5-2.3c1.1,0,2.1,0.2,2.9,0.6c-0.5-0.9-2.1-1.5-4-1.5c-2.3,0-4.2,1-4.2,2.1
			C68.6,28.4,68.9,28.8,69.3,29.2z"/>
	</g>
	<path class="st23" d="M83.1,20.1h4.5c0-1.4,2.1-2.5,4.6-2.5c2.5,0,4.6,1.1,4.6,2.5c0,1.4-2.1,2.5-4.6,2.5l-6.1,0.1v2.8h6
		c2.5,0,4.6,1.1,4.6,2.5c0,1.4-2.1,2.5-4.6,2.5c-2.5,0-4.6-1.1-4.6-2.5h-4.5c0,2.6,4.1,4.8,9.1,4.8c5,0,9.1-2.1,9.1-4.7
		c0-1.7-1.7-3.2-4.3-4l-0.1,0.1c2.6-0.8,4.4-2.3,4.4-4c0-2.6-4.1-4.7-9.1-4.7C87.2,15.4,83.1,17.5,83.1,20.1"/>
	<g>
		<path class="st48" d="M88.4,21.4c0-1.4,2.1-2.5,4.6-2.5c1.3,0,2.4,0.3,3.2,0.7c-0.4-0.9-2.1-1.6-4.1-1.6c-2.3,0-4.2,1-4.2,2.1v0.4
			h-3.9c-0.1,0.3-0.2,0.6-0.2,0.9H88.4z"/>
		<path class="st48" d="M83.9,21.4C83.9,21.4,83.9,21.4,83.9,21.4L83.9,21.4L83.9,21.4z"/>
		<path class="st48" d="M101.6,20c0,0.1,0,0.1,0,0.2c0,1.6-1.3,3-3.5,4c0.5,0.2,0.9,0.4,1.2,0.7c1.6-0.9,2.7-2,2.7-3.3
			C102.1,20.9,101.9,20.4,101.6,20z"/>
		<path class="st48" d="M101.6,28.1c0,2.9-4.2,5.1-9.5,5.1c-3.1,0-5.8-0.8-7.6-2.1c1.4,1.7,4.6,3,8.4,3c5,0,9.1-2.1,9.1-4.7
			c0-0.5-0.2-1-0.4-1.4C101.6,28,101.6,28,101.6,28.1z"/>
		<path class="st48" d="M92.2,25.9H87v0.9h6c1.3,0,2.4,0.3,3.3,0.7C95.8,26.6,94.1,25.9,92.2,25.9z"/>
	</g>
	<path class="st49" d="M108.1,14.4c0,1.4-1.1,2.5-2.5,2.5c-1.4,0-2.5-1.1-2.5-2.5c0-1.4,1.1-2.5,2.5-2.5
		C106.9,11.9,108.1,13,108.1,14.4z"/>
	<path class="st48" d="M104.8,14.2h0.8c0.2,0,0.3,0,0.4-0.1c0.1-0.1,0.2-0.2,0.2-0.4c0-0.2-0.1-0.3-0.2-0.4
		c-0.1-0.1-0.2-0.1-0.4-0.1h-0.9V14.2z M104.4,12.9h1.2c0.2,0,0.4,0,0.6,0.1c0.3,0.1,0.4,0.4,0.4,0.7c0,0.5-0.3,0.7-0.8,0.8v0
		c0.1,0.1,0.3,0.2,0.5,0.5l0.5,0.8h-0.5l-0.4-0.6c-0.4-0.6-0.5-0.7-0.8-0.7h-0.4v1.2h-0.4V12.9z"/>
	<g>
		<path class="st48" d="M114.3,30.6c-0.2,0-0.5-0.2-0.5-0.5v-4.6c0-0.2,0.2-0.5,0.5-0.5c0.2,0,0.5,0.2,0.5,0.5v4.6
			C114.7,30.4,114.5,30.6,114.3,30.6z"/>
	</g>
	<g>
		<path class="st48" d="M114.3,27.7c-0.1,0-0.1,0-0.2,0c-0.2-0.1-0.3-0.4-0.2-0.6c0.8-1.7,2.3-1.8,3-1.6c0.2,0.1,0.4,0.3,0.3,0.6
			c-0.1,0.2-0.3,0.4-0.6,0.3c-0.1,0-1.3-0.3-2,1.1C114.6,27.6,114.4,27.7,114.3,27.7z"/>
	</g>
	<g>
		<path class="st48" d="M119.4,30.7c-0.2,0-0.5-0.2-0.5-0.5v-6.6c0-0.2,0.2-0.5,0.5-0.5s0.5,0.2,0.5,0.5v6.6
			C119.8,30.5,119.6,30.7,119.4,30.7z"/>
	</g>
	<g>
		<path class="st48" d="M18.5,31.9c-0.4,0-0.7-0.3-0.7-0.7V26c-1.5,0-1.6,0-1.6,0c-0.4,0-0.7-0.3-0.7-0.7c0-0.4,0.3-0.7,0.7-0.7h1.5
			v-1.5h-1.5c-0.4,0-0.7-0.3-0.7-0.7c0-0.4,0.3-0.7,0.7-0.7h1.5v-2.9c0-0.5,0.3-1.3,1.3-1.4l10.4,0c2.4,0,4.3,2,4.3,4.3
			c0,2.3-1.8,4.2-4.1,4.3l3.5,4.2c0.3,0.3,0.2,0.7-0.1,1c-0.3,0.3-0.7,0.2-1-0.1L27.9,26c-4.3,0-7,0-8.7,0l0,5.1
			C19.3,31.6,18.9,31.9,18.5,31.9z M28.6,24.6h0.9c1.6,0,2.9-1.3,2.9-2.9c0-1.6-1.3-2.9-2.9-2.9H19.2l0,2.9h5.5
			c1.5-0.1,2.1,0.8,2.2,0.9L28.6,24.6z M19.2,24.6h7.5l-1-1.2c0,0-0.3-0.4-1-0.3h-5.5L19.2,24.6z M35.9,30.4c-1.2,0-2.2-1-2.2-2.2
			v-1.4c0-0.1,0-0.2,0.1-0.3c0.3-0.9,1.1-1.2,1.9-1.2l1.1,0v-3.7c0-0.4,0.3-0.7,0.7-0.7s0.7,0.3,0.7,0.7v3.7l4.3,0v-3.8
			c0-0.4,0.3-0.7,0.7-0.7s0.7,0.3,0.7,0.7v8.2c0,0.4-0.3,0.7-0.7,0.7s-0.7-0.3-0.7-0.7v-2.9h-4.3v1.4C38.1,29.4,37.1,30.4,35.9,30.4
			z M35.1,26.9v1.2c0,0.5,0.4,0.8,0.8,0.8c0.4,0,0.8-0.4,0.8-0.8v-1.4h-1.2C35.5,26.7,35.2,26.7,35.1,26.9
			C35.1,26.9,35.1,26.9,35.1,26.9z M51.9,30.3h-3.6c-1.2,0-1.7-1-1.7-1.7v-2.1c-0.1-0.1-0.2-0.3-0.2-0.5s0.1-0.4,0.2-0.5l0-3
			c0-1,0.8-1.5,1.4-1.6l3.9,0c0.4,0,0.7,0.3,0.7,0.7c0,0.4-0.3,0.7-0.7,0.7h-3.8c-0.1,0-0.1,0.1-0.1,0.2v2.8h3.8
			c0.4,0,0.7,0.3,0.7,0.7c0,0.4-0.3,0.7-0.7,0.7H48v1.9c0,0.3,0.2,0.3,0.2,0.3h3.6c0.4,0,0.7,0.3,0.7,0.7
			C52.6,30,52.3,30.3,51.9,30.3z"/>
	</g>
	<path class="st48" d="M48.1,26.7c0,0.8-0.6,1.4-1.4,1.4s-1.4-0.6-1.4-1.4c0-0.8,0.6-1.4,1.4-1.4S48.1,25.9,48.1,26.7"/>
	<path class="st50" d="M16.7,25.4c-0.8,0-1.5-0.7-1.5-1.5c0-0.8,0.7-1.5,1.5-1.5"/>
	<g>
		<path class="st48" d="M56.2,30.4c-0.4,0-0.7-0.3-0.7-0.7v-8.2c0-0.4,0.3-0.7,0.7-0.7s0.7,0.3,0.7,0.7v8.2
			C56.9,30,56.6,30.4,56.2,30.4z"/>
	</g>
	<path class="st48" d="M56.1,23.8C56,23.8,56,23.8,56.1,23.8c-0.9,0-1.6-0.7-1.6-1.5c0-0.8,0.7-1.6,1.6-1.6"/>
	<g>
		<path class="st48" d="M59.8,30.6c-0.4,0-0.7-0.3-0.7-0.7v-8.5c0-0.4,0.3-0.7,0.7-0.7c0.1,0,0.3,0,0.4,0.1c0.1,0,0.2,0.1,0.2,0.2
			l4.4,4.4v-3.8c0-0.4,0.3-0.7,0.7-0.7c0.4,0,0.7,0.3,0.7,0.7v5.2l1,1c0.3,0.3,0.3,0.7,0,1c-0.3,0.3-0.7,0.3-1,0l-0.1-0.1v0.1
			c0,0.4-0.3,0.7-0.7,0.7c-0.4,0-0.7-0.3-0.7-0.7v-1.5l-4.4-4.3v6.8C60.5,30.3,60.2,30.6,59.8,30.6z"/>
	</g>
	<path class="st48" d="M67.8,28.9c0,0.8-0.7,1.5-1.5,1.5c-0.8,0-1.5-0.7-1.5-1.5c0-0.8,0.7-1.5,1.5-1.5
		C67.2,27.4,67.8,28.1,67.8,28.9"/>
	<path class="st48" d="M106.3,29.4c0-0.1-0.1-0.1-0.1-0.2c0-0.3,0.2-0.5,0.5-0.5c0.1,0,0.2,0,0.3,0.1l0,0c0.4,0.8,1.5,0.9,2,0.9
		c1,0,1.9-0.4,1.9-1.2c0-0.9-0.8-1-2.3-1.4c-1-0.2-2.4-0.6-2.4-2c0-1.1,1-2,2.6-2c1.2,0,2.2,0.4,2.6,1.2l0,0c0,0.1,0.1,0.2,0.1,0.2
		c0,0.3-0.2,0.5-0.5,0.5c-0.2,0-0.4-0.1-0.4-0.3l-0.1-0.1c-0.2-0.4-0.7-0.7-1.6-0.7c-0.6,0-1.7,0.2-1.7,1.1c0,0.6,0.4,0.9,1.8,1.2
		c1.4,0.3,2.9,0.6,2.9,2.2c0,1.2-1.1,2.2-2.8,2.2C107.6,30.6,106.8,30.1,106.3,29.4"/>
</g>
</svg>
