<?xml version="1.0" encoding="utf-8"?>
<!-- Generator: Adobe Illustrator 25.4.1, SVG Export Plug-In . SVG Version: 6.00 Build 0)  -->
<svg version="1.1" id="Capa_1" xmlns="http://www.w3.org/2000/svg" xmlns:xlink="http://www.w3.org/1999/xlink" x="0px" y="0px"
	 viewBox="0 0 135 46" style="enable-background:new 0 0 135 46;" xml:space="preserve">
<style type="text/css">
	.st0{fill:none;}
	.st1{fill:none;stroke:#FFED00;stroke-width:1.4173;stroke-miterlimit:10;}
	.st2{fill:#FFED00;}
</style>
<g>
	<path class="st0" d="M67.5,37.8c21.6,0,39.1-6.6,39.1-14.8S89.1,8.2,67.5,8.2S28.4,14.8,28.4,23C28.4,31.2,45.9,37.8,67.5,37.8"/>
	<path class="st1" d="M67.5,37.8c21.6,0,39.1-6.6,39.1-14.8S89.1,8.2,67.5,8.2S28.4,14.8,28.4,23C28.4,31.2,45.9,37.8,67.5,37.8"/>
	<path class="st2" d="M102.1,25.9v-1h-3V20h-1.2v6h4.2V25.9z M92.4,23.6l0.8-2.2l0.8,2.2H92.4z M93.9,19.9h-1.3l-2.3,6h1.3l0.5-1.4
		h2.4l0.5,1.4h1.3L93.9,19.9z M88,25.9v-5h1.8v-1H85v1h1.8v5H88z M79.6,25.9V22l2.4,3.9h1.2v-6h-1.1v4l-2.5-4h-1.2v6H79.6z
		 M76.6,25.9v-1h-3.4v-1.6h3v-1h-3V21h3.2v-1H72v6h4.6V25.9z M66.8,21c0.5,0,0.8,0,1,0.1c0.2,0,0.4,0.1,0.6,0.3
		c0.1,0.1,0.3,0.3,0.3,0.6c0.1,0.2,0.1,0.6,0.1,1.1s0,0.8-0.1,1.1c-0.1,0.3-0.2,0.5-0.3,0.6c-0.1,0.1-0.3,0.2-0.5,0.2
		s-0.4,0.1-0.7,0.1h-0.9v-4h0.5V21z M65,25.9h2.3c0.4,0,0.8,0,1.1-0.1c0.4-0.1,0.6-0.3,0.9-0.5c0.3-0.3,0.5-0.6,0.6-1.1
		c0.1-0.4,0.2-0.8,0.2-1.3c0-0.6-0.1-1-0.2-1.4s-0.3-0.7-0.6-1c-0.3-0.3-0.6-0.4-0.9-0.6c-0.3-0.1-0.6-0.1-1.1-0.1H65V25.9z
		 M63.5,23.2h-2.3v1.2h2.3V23.2z M55.9,23.6l0.8-2.2l0.8,2.2H55.9z M57.4,19.9h-1.3l-2.3,6h1.3l0.5-1.4H58l0.5,1.4h1.3L57.4,19.9z
		 M48.7,21h0.9c0.5,0,0.8,0,0.9,0c0.2,0,0.3,0.1,0.5,0.2c0.1,0.1,0.2,0.3,0.2,0.5s0,0.3-0.1,0.4s-0.2,0.2-0.3,0.3
		c-0.1,0-0.5,0.1-1.1,0.1h-0.9V21H48.7z M48.7,25.9v-2.5h0.2c0.3,0,0.5,0,0.6,0.1c0.1,0,0.2,0.1,0.4,0.2c0.1,0.1,0.3,0.4,0.6,0.9
		l0.9,1.3h1.4l-0.7-1.2c-0.3-0.5-0.5-0.8-0.7-1s-0.4-0.4-0.6-0.5c0.5-0.1,0.9-0.3,1.2-0.6c0.3-0.3,0.4-0.7,0.4-1.1s-0.1-0.7-0.3-0.9
		c-0.2-0.3-0.4-0.5-0.7-0.6s-0.8-0.2-1.4-0.2h-2.6v6h1.3V25.9z M40.5,23.1c0,0.7,0,1.2,0.1,1.5c0.1,0.2,0.2,0.5,0.3,0.7
		c0.2,0.2,0.4,0.4,0.7,0.5s0.7,0.2,1.3,0.2c0.5,0,0.9-0.1,1.2-0.2s0.5-0.3,0.7-0.5s0.3-0.5,0.4-0.8c0.1-0.3,0.1-0.8,0.1-1.5v-3.2
		h-1.2v3.3c0,0.5,0,0.8-0.1,1c0,0.2-0.1,0.4-0.3,0.5s-0.4,0.2-0.8,0.2c-0.3,0-0.6-0.1-0.8-0.2s-0.3-0.3-0.4-0.6c0-0.2,0-0.5,0-1
		v-3.3h-1.2V23.1z M35.1,23.6l0.8-2.2l0.8,2.2H35.1z M36.5,19.9h-1.3l-2.3,6h1.3l0.5-1.4h2.4l0.5,1.4h1.3L36.5,19.9z"/>
</g>
</svg>
