<svg id="Capa_1" data-name="Capa 1" xmlns="http://www.w3.org/2000/svg" viewBox="0 0 135 46"><defs><style>.cls-1{fill:#7ea9d6;}.cls-2{fill:#b6d4ef;}.cls-3{fill:#058dc7;}.cls-4{fill:#00559f;}</style></defs><path class="cls-1" d="M50,23.07c0-.22,0-.45,0-.68a10,10,0,0,0-8.2-9.84c3.46,3.11,7.09,8.76,8.18,10.52"/><path class="cls-2" d="M37.33,32A10.26,10.26,0,0,0,40,32.4a10,10,0,0,0,8.79-5.22c-3.53,2.27-9,4.1-11.47,4.86"/><path class="cls-3" d="M33.74,26.61c-.22,0-1.3-.21-1.3-1.82a7.73,7.73,0,0,1,.9-3.23c.27-.41.21,0,.2.11-.17,2.08.94,3.06.94,3.9s-.52,1-.74,1m5.22-10c-1.08.61-4.22,2.7-4.87,3.14s-1.09.61-.13-.87a44.72,44.72,0,0,1,5-6.39,10,10,0,0,0-5.65,17.41c1.53-3,6.06-11.92,6.42-12.68.43-.91.3-1.22-.79-.61"/><path class="cls-4" d="M104.3,26.92h.7v-.7h-.7Zm-2.32,0h1.9v-.7H102.7V23.05H102Zm-1.45,0h.7v-.7h-.7Zm-3-1.09A1.23,1.23,0,0,0,98.76,27,1.24,1.24,0,0,0,100,25.79a1.06,1.06,0,0,0-.4-.88,2.53,2.53,0,0,0-.76-.36c-.23-.08-.49-.18-.49-.47a.38.38,0,0,1,.39-.41.43.43,0,0,1,.43.41h.74A1.12,1.12,0,0,0,98.79,23a1.11,1.11,0,0,0-1.14,1.1,1.09,1.09,0,0,0,.3.74,1.51,1.51,0,0,0,.67.36c.32.1.68.23.68.65a.5.5,0,0,1-.51.49.5.5,0,0,1-.54-.49Zm-4.4,1.09h.69V25.61a1.47,1.47,0,0,1,.12-.75.6.6,0,0,1,.49-.25.55.55,0,0,1,.46.24,1.39,1.39,0,0,1,.12.7v1.37h.69v-1.5a1.67,1.67,0,0,0-.23-1.05.27.27,0,0,0-.07-.08,1.13,1.13,0,0,0-.83-.36,1,1,0,0,0-.79.36h0V24h-.64Zm-2.75-1.76a.85.85,0,0,1,.8-.55.81.81,0,0,1,.79.55Zm2.26.62c0-.11,0-.22,0-.33a1.52,1.52,0,0,0-1.49-1.52,1.55,1.55,0,0,0,0,3.09,1.52,1.52,0,0,0,1.39-.94h-.77a.9.9,0,0,1-.65.25.79.79,0,0,1-.76-.55Zm-4.79-1.17a.83.83,0,0,1,.83.87.81.81,0,0,1-.83.85.86.86,0,0,1-.88-.9.84.84,0,0,1,.88-.82M86.3,26.92h.64v-.39h0a1.1,1.1,0,0,0,1,.49A1.38,1.38,0,0,0,89,26.53a1.78,1.78,0,0,0,.38-1.06,1.49,1.49,0,0,0-1.46-1.54,1.1,1.1,0,0,0-.9.39h0V23.05H86.3Zm-1.68,0h.7V25.35a.65.65,0,0,1,.2-.61.71.71,0,0,1,.42-.14v-.67h0a.66.66,0,0,0-.62.35h0V24h-.64Zm-1.18-1.46a.82.82,0,0,1-.84.87.83.83,0,0,1-.86-.83.84.84,0,0,1,.87-.89.81.81,0,0,1,.83.85M84.1,24h-.64v.41a1.14,1.14,0,0,0-1-.5,1.37,1.37,0,0,0-1.08.5,1.46,1.46,0,0,0-.37,1,1.68,1.68,0,0,0,.36,1.06,1.36,1.36,0,0,0,1.07.49,1.24,1.24,0,0,0,1-.49h0v.39h.64Zm-4.19,2.9h.69V23.05h-.69Zm-1.24-1.05a1.35,1.35,0,0,1-1,.45,1.33,1.33,0,1,1,1-2.16h.82A2,2,0,0,0,77.68,23a2,2,0,0,0,0,4,2,2,0,0,0,1.8-1.15Zm-6.52.21a.9.9,0,1,0,1.8,0c0-.52-.37-.7-.8-.84-.26-.08-.51-.16-.51-.48a.4.4,0,0,1,.4-.4.42.42,0,0,1,.45.41h.38a.81.81,0,0,0-1.61,0,.71.71,0,0,0,.23.55,1.22,1.22,0,0,0,.51.25c.29.08.56.21.56.55a.48.48,0,0,1-.5.48.52.52,0,0,1-.52-.54Zm-1.8-1.72a1.14,1.14,0,0,1,.76.32,1,1,0,0,1,.34.79,1.11,1.11,0,1,1-2.22,0,1.13,1.13,0,0,1,1.12-1.15m0-.37a1.5,1.5,0,1,0,1.49,1.48A1.5,1.5,0,0,0,70.35,24m-2.44-.28h.39v-.66h-.39Zm0,3.21h.39V24.06h-.39Zm-1.58,0h.39v-1.6a.83.83,0,0,1,.29-.75.91.91,0,0,1,.52-.2V24a.84.84,0,0,0-.82.48h0v-.41h-.37Zm-2-2.56a1.14,1.14,0,0,1,.76.32,1,1,0,0,1,.34.79,1.11,1.11,0,1,1-1.1-1.11m0-.37a1.5,1.5,0,1,0,1.48,1.48A1.51,1.51,0,0,0,64.3,24m-2.84,2.93h.38V24.41h.67v-.35h-.67v-1h-.38v1h-.6v.35h.6ZM59,24.36a1.13,1.13,0,0,1,1.13,1.15A1.14,1.14,0,1,1,59,24.36m1.5-.3H60.1v.54h0A1.2,1.2,0,0,0,59,24a1.53,1.53,0,0,0-1.12.47,1.48,1.48,0,0,0-.41,1,1.53,1.53,0,0,0,.28.91A1.7,1.7,0,0,0,59,27a1.2,1.2,0,0,0,1.1-.61h0v.54h.37ZM56,26.92h.39v-1.6a.83.83,0,0,1,.29-.75.91.91,0,0,1,.52-.2V24a.84.84,0,0,0-.82.48h0v-.41H56Zm-2-2.56a1.14,1.14,0,0,1,.76.32,1,1,0,0,1,.34.79,1.11,1.11,0,1,1-1.1-1.11m0-.37a1.5,1.5,0,1,0,1.48,1.48A1.51,1.51,0,0,0,53.94,24m-3.49.37a1.13,1.13,0,1,1,0,2.26,1.12,1.12,0,0,1-1.15-1.11,1.05,1.05,0,0,1,.31-.8,1.12,1.12,0,0,1,.81-.35M49,26.92h.37v-.49a1.37,1.37,0,0,0,1.14.56,1.42,1.42,0,0,0,1.17-.56,1.49,1.49,0,0,0,.34-.95A1.51,1.51,0,0,0,50.44,24a1.19,1.19,0,0,0-1.08.6V23.05H49Zm-2.15-2.56a1.12,1.12,0,0,1,1.12,1.15,1.13,1.13,0,0,1-1.11,1.11,1.13,1.13,0,1,1,0-2.26m1.49-.3h-.37v.54h0A1.21,1.21,0,0,0,46.82,24a1.52,1.52,0,0,0-1.54,1.48,1.45,1.45,0,0,0,.29.91,1.67,1.67,0,0,0,1.26.61,1.22,1.22,0,0,0,1.1-.61h0v.54h.37ZM43,26.92h2v-.35h-1.6V23.05H43Z"/></svg>