<?xml version="1.0" encoding="utf-8"?>
<!-- Generator: Adobe Illustrator 25.4.1, SVG Export Plug-In . SVG Version: 6.00 Build 0)  -->
<svg version="1.1" id="Capa_1" xmlns="http://www.w3.org/2000/svg" xmlns:xlink="http://www.w3.org/1999/xlink" x="0px" y="0px"
	 viewBox="0 0 135 46" style="enable-background:new 0 0 135 46;" xml:space="preserve">
<style type="text/css">
	.st0{fill:#38444E;}
	.st1{fill:#E64860;}
	.st2{fill:#808791;}
	.st3{clip-path:url(#SVGID_00000003817217756874983800000002833671928788905661_);fill:#E64860;}
	.st4{fill:none;stroke:#E64860;stroke-width:0.6287;stroke-miterlimit:10;}
	.st5{fill:#194374;}
	.st6{fill:#00659B;}
	.st7{fill:#DC0D6E;}
	.st8{fill:#004D80;}
	.st9{fill:#7EA9D6;}
	.st10{fill:#B6D4EF;}
	.st11{fill:#058DC7;}
	.st12{fill:#00559F;}
	.st13{fill:#134A83;}
	.st14{fill:#B51975;}
	.st15{fill:#2497D0;}
	.st16{fill:#D80F3B;}
	.st17{fill:#9BC338;}
	.st18{fill:#008541;}
	.st19{fill:#9DC438;}
	
		.st20{clip-path:url(#SVGID_00000160190539410785888530000004856776715464179893_);fill:url(#SVGID_00000054982826921780089740000007337917082718026401_);}
	
		.st21{clip-path:url(#SVGID_00000027575362556893677790000011836715788750408846_);fill:url(#SVGID_00000056406672523182131100000002692668566783786408_);}
	
		.st22{clip-path:url(#SVGID_00000145746872395805588890000015727138486409797797_);fill:url(#SVGID_00000057845177177511310180000008310455716460070272_);}
	.st23{fill:#F9BE12;}
	.st24{clip-path:url(#SVGID_00000039837897683659771100000011875990935520543144_);}
	.st25{clip-path:url(#SVGID_00000117645109474100049690000005963562067095934341_);}
	.st26{clip-path:url(#SVGID_00000074435334470893978580000007281464449484581298_);}
	.st27{clip-path:url(#SVGID_00000041273450347435171210000014311417550193632156_);}
	.st28{clip-path:url(#SVGID_00000076602014270973269800000015820522676655386275_);}
	.st29{clip-path:url(#SVGID_00000066514393185620517300000006031697538550134966_);}
	.st30{clip-path:url(#SVGID_00000101821520871627525030000018255657267647614143_);}
	.st31{clip-path:url(#SVGID_00000043425370637437982990000013022410865931581324_);}
	.st32{clip-path:url(#SVGID_00000088097755214772573980000004118921719224086201_);}
	
		.st33{clip-path:url(#SVGID_00000116918756653978244710000012339985565540596368_);fill:url(#SVGID_00000080906910718160802320000013852488637974452869_);}
	.st34{clip-path:url(#SVGID_00000155847666468952237950000008212291085304886194_);}
	.st35{clip-path:url(#SVGID_00000094600379763165836110000010063642962072424635_);}
	.st36{clip-path:url(#SVGID_00000040545250493115260180000017749370031010365841_);}
	.st37{clip-path:url(#SVGID_00000112609868583350039290000007974819609761143942_);}
	.st38{clip-path:url(#SVGID_00000171680212964802903280000010772476723524325548_);}
	.st39{clip-path:url(#SVGID_00000149347209387539674250000000116800886578720141_);}
	.st40{fill:#009BDA;}
	.st41{fill:#CE1620;}
	.st42{fill:#171915;}
	.st43{fill:#E30750;}
	.st44{fill:#5775B5;}
	.st45{fill:none;stroke:#5775B5;stroke-width:0.5802;}
	.st46{fill:#5A595C;}
	.st47{fill:#FFFFFF;}
	.st48{fill:#364F8F;}
	.st49{fill:none;stroke:#364F8F;stroke-width:0.3873;}
	.st50{fill:none;stroke:#364F8F;stroke-width:1.3345;stroke-linecap:round;}
	.st51{fill:#656362;}
	.st52{fill:#C8D44A;}
	.st53{fill:#E42E38;}
	.st54{fill:none;stroke:#FFFFFF;stroke-width:0.4523;stroke-miterlimit:10;}
	.st55{fill:#51B054;}
	.st56{fill:#0079BB;}
	.st57{fill:#086EB0;}
	.st58{fill:#99A4AB;}
	.st59{fill:#B2A7A5;}
	.st60{fill:#931340;}
	.st61{fill:#DFDCD9;}
	.st62{fill:#27A1D7;}
	.st63{fill:none;stroke:#000000;stroke-width:0.1494;stroke-linejoin:bevel;stroke-miterlimit:22.926;}
	.st64{fill:none;stroke:#000000;stroke-width:0.1585;stroke-miterlimit:22.926;}
	.st65{fill:#EA3D36;stroke:#ED1C24;stroke-width:0.1417;stroke-linejoin:round;}
	.st66{fill:#EA3D36;}
</style>
<g>
	<path class="st57" d="M98.6,18.5c0,8.8-13.9,15.9-31.1,15.9c-17.2,0-31.1-7.1-31.1-15.9c0-8.8,13.9-15.9,31.1-15.9
		C84.7,2.7,98.6,9.8,98.6,18.5"/>
	<polygon class="st47" points="55.1,24.7 90.6,24.7 91.7,22.5 91.4,22.5 76.2,22.5 47.8,22.5 47.9,22.1 53.1,9.1 48.3,9.1 
		42.2,24.6 42.1,24.7 43.1,24.7 	"/>
	<path class="st47" d="M72.4,21.2l3.2,0l1.9-4.5c0,0,0.2-0.6,1-0.8l0.9-0.3c0,0,0.7-0.1,0.4,0.5l-2,5v0.1h3.6l2.3-6.1
		c0,0,0.6-1.8-0.9-1.9c0,0-1.1-0.1-2,0.3l-1.8,0.8l-0.4,0.1l0.5-1.2h-3.4l-3.3,7.9H72.4z"/>
	<path class="st47" d="M55.5,16.6l0.1-0.2l0.7-1.5c0,0-0.1-0.2,0.6-0.1h1.3h0.2c0,0,0.2,0,0.1,0.4l-0.7,1.5l-0.1,0.1
		c0,0-0.2,0.1-0.3,0.1h-1.7h-0.1C55.6,16.9,55.5,16.7,55.5,16.6 M51.1,19.6c-0.2,1.5,1.2,1.6,1.2,1.6l7.1,0l0.2-0.4
		c0.3-0.7,0.3-1,0.3-1h-0.5h-4.8C54,19.2,55,18.5,55,18.5h4.9c0.9,0,0.9-0.6,0.9-0.6l1-2.8c0.4-1.9-1.6-1.7-1.6-1.7h-4.7
		c-1.6-0.2-2.2,1-2.2,1l-2,4.9L51.1,19.6z"/>
	<path class="st47" d="M65.2,19.4l1.7-4.2c0,0,0.1-0.3,0.6-0.3h1.1h0.2c0,0,0.3,0,0.1,0.4l-1.8,4.3c0,0,0,0.3-0.5,0.3h-1.3
		c0,0-0.2-0.1-0.2-0.2l0-0.1L65.2,19.4z M63,21.3h1h4.2c0,0,1.6,0.3,2.3-1.4l2-5c0,0,0.3-1.4-1.3-1.6h-5.6c0,0-1.2,0.1-1.8,1.2
		l-2.1,4.9C61.9,19.4,61.3,21,63,21.3"/>
	<path class="st47" d="M88.1,16.5l0.1-0.2l0.7-1.5c0,0-0.1-0.2,0.6-0.1h1.3H91c0,0,0.2,0,0.1,0.4l-0.7,1.5l-0.1,0.1
		c0,0-0.2,0.1-0.3,0.1h-1.7h-0.1C88.2,16.8,88,16.7,88.1,16.5 M84.9,21.2l7.1,0l0.2-0.4c0.3-0.7,0.3-1,0.3-1H92h-4.8
		c-0.5-0.7,0.4-1.4,0.4-1.4h4.9c0.9,0,0.9-0.6,0.9-0.6l1-2.8c0.4-1.9-1.6-1.7-1.6-1.7h-4.7c-1.6-0.2-2.2,1-2.2,1l-2,4.9l-0.1,0.4
		C83.5,21.1,84.9,21.2,84.9,21.2"/>
	<path class="st57" d="M34.8,39.7c-0.2,0.2-0.3,0.4-0.3,0.7c0,0.3,0.1,0.5,0.3,0.7c0.2,0.2,0.4,0.3,0.7,0.3c0.3,0,0.5-0.1,0.7-0.3
		c0.2-0.2,0.3-0.4,0.3-0.7c0-0.3-0.1-0.5-0.3-0.7c-0.2-0.2-0.5-0.3-0.7-0.3C35.2,39.4,34.9,39.5,34.8,39.7 M36.9,41.7
		c-0.4,0.3-0.9,0.5-1.4,0.5c-0.5,0-1-0.2-1.4-0.5c-0.4-0.4-0.6-0.9-0.6-1.3c0-0.5,0.2-1,0.6-1.3c0.4-0.3,0.9-0.5,1.4-0.5
		c0.5,0,1,0.2,1.4,0.5c0.4,0.4,0.6,0.9,0.6,1.3C37.4,40.8,37.2,41.3,36.9,41.7"/>
	<path class="st57" d="M37.9,39.8h0.8v0.4c0.1-0.2,0.2-0.3,0.3-0.3c0.1-0.1,0.3-0.1,0.4-0.1c0,0,0.1,0,0.2,0v0.8
		c0,0-0.2-0.1-0.4-0.1c-0.1,0-0.3,0-0.4,0.1c-0.2,0.2-0.2,0.4-0.2,0.5v1h-0.8V39.8z"/>
	<polygon class="st57" points="41.1,40.5 41.1,42.1 40.3,42.1 40.3,40.5 40,40.5 40,39.8 40.3,39.8 40.3,39 41.1,39 41.1,39.8 
		41.6,39.8 41.6,40.5 	"/>
	<path class="st57" d="M42.9,40.6c-0.1,0.1-0.2,0.2-0.2,0.4c0,0.1,0.1,0.3,0.2,0.4c0.1,0.1,0.2,0.2,0.4,0.2c0.1,0,0.3-0.1,0.4-0.2
		c0.1-0.1,0.2-0.2,0.2-0.4c0-0.1-0.1-0.3-0.2-0.4c-0.1-0.1-0.2-0.2-0.4-0.2C43.1,40.4,43,40.5,42.9,40.6 M44.3,41.8
		c-0.3,0.3-0.7,0.4-1.1,0.4c-0.3,0-0.7-0.1-1.1-0.4c-0.3-0.3-0.4-0.6-0.4-0.9c0-0.4,0.2-0.7,0.4-0.9c0.2-0.2,0.5-0.4,1.1-0.4
		c0.5,0,0.9,0.2,1.1,0.4c0.2,0.2,0.4,0.4,0.4,0.9C44.7,41.3,44.6,41.6,44.3,41.8"/>
	<path class="st57" d="M46.8,41.4c0.1-0.1,0.2-0.3,0.2-0.4c0-0.1-0.1-0.3-0.2-0.4c-0.1-0.1-0.2-0.2-0.4-0.2c-0.2,0-0.3,0.1-0.4,0.2
		c-0.1,0.1-0.2,0.2-0.2,0.4c0,0.1,0.1,0.3,0.2,0.4c0.1,0.1,0.3,0.2,0.4,0.2C46.6,41.5,46.7,41.4,46.8,41.4 M47.8,42.1H47v-0.3
		c-0.2,0.3-0.6,0.3-0.7,0.3c-0.3,0-0.6-0.1-0.8-0.3c-0.2-0.2-0.4-0.6-0.4-0.9c0-0.4,0.2-0.7,0.4-0.9c0.2-0.2,0.5-0.3,0.8-0.3
		c0.3,0,0.5,0.1,0.7,0.3v-1.7h0.8V42.1z"/>
	<path class="st57" d="M49.4,40.6c-0.1,0.1-0.2,0.2-0.2,0.4c0,0.1,0.1,0.3,0.2,0.4c0.1,0.1,0.2,0.2,0.4,0.2c0.1,0,0.3-0.1,0.4-0.2
		c0.1-0.1,0.2-0.2,0.2-0.4c0-0.1-0.1-0.3-0.2-0.4c-0.1-0.1-0.2-0.2-0.4-0.2C49.6,40.4,49.5,40.5,49.4,40.6 M50.8,41.8
		c-0.3,0.3-0.7,0.4-1.1,0.4c-0.3,0-0.7-0.1-1.1-0.4c-0.3-0.3-0.4-0.6-0.4-0.9c0-0.4,0.2-0.7,0.4-0.9c0.2-0.2,0.5-0.4,1.1-0.4
		c0.5,0,0.9,0.2,1.1,0.4c0.2,0.2,0.4,0.4,0.4,0.9C51.2,41.3,51.1,41.6,50.8,41.8"/>
	<path class="st57" d="M51.6,39.8h0.8v0.3c0.2-0.3,0.5-0.3,0.8-0.3c0.2,0,0.5,0.1,0.7,0.3c0.2,0.2,0.2,0.4,0.2,0.7v1.5h-0.8v-1.2
		c0-0.1,0-0.3-0.1-0.5c-0.1-0.1-0.2-0.1-0.3-0.1c-0.1,0-0.2,0-0.3,0.1c-0.1,0.1-0.1,0.2-0.1,0.4v1.3h-0.8V39.8z"/>
	<path class="st57" d="M56.5,42.1c-0.2,0.1-0.4,0.1-0.6,0.1c-0.5,0-0.8-0.2-0.9-0.4c-0.2-0.2-0.4-0.5-0.4-0.9s0.1-0.7,0.4-0.9
		c0.2-0.2,0.6-0.4,1-0.4c0.1,0,0.3,0,0.6,0.1v0.7c-0.1-0.1-0.3-0.2-0.4-0.2c-0.2,0-0.3,0.1-0.4,0.2c-0.1,0.1-0.2,0.3-0.2,0.4
		c0,0.1,0,0.3,0.1,0.4c0.1,0.1,0.2,0.2,0.4,0.2c0.1,0,0.3,0,0.4-0.2V42.1z"/>
	<path class="st57" d="M57.9,42.1H57v-2.4h0.8V42.1z M57.4,38.3c0.3,0,0.5,0.2,0.5,0.5c0,0.3-0.2,0.5-0.5,0.5
		c-0.3,0-0.5-0.2-0.5-0.5C57,38.5,57.2,38.3,57.4,38.3"/>
	<path class="st57" d="M59.4,40.6c-0.1,0.1-0.2,0.3-0.2,0.4c0,0.1,0.1,0.3,0.2,0.4c0.1,0.1,0.2,0.2,0.4,0.2c0.1,0,0.3-0.1,0.4-0.2
		c0.1-0.1,0.2-0.2,0.2-0.4c0-0.1,0-0.3-0.2-0.4c-0.1-0.1-0.2-0.2-0.4-0.2C59.6,40.4,59.5,40.4,59.4,40.6 M60.3,39.8h0.8v2.4h-0.8
		v-0.3c-0.2,0.3-0.5,0.3-0.7,0.3c-0.3,0-0.6-0.1-0.9-0.4c-0.2-0.2-0.3-0.5-0.3-0.9c0-0.4,0.2-0.8,0.4-0.9c0.2-0.2,0.5-0.3,0.9-0.3
		c0.4,0,0.6,0.2,0.7,0.3V39.8z"/>
	<path class="st57" d="M64.7,40.6c0-0.1-0.1-0.2-0.1-0.3c-0.1-0.1-0.3-0.1-0.3-0.1c-0.1,0-0.3,0-0.3,0.1c-0.1,0.1-0.1,0.1-0.1,0.3
		H64.7z M65.4,41.1h-1.8c0,0.1,0,0.3,0.1,0.4c0.1,0.1,0.2,0.1,0.4,0.1c0,0,0.2,0,0.3-0.1c0.1,0,0.1-0.1,0.1-0.2h0.8
		c0,0.1-0.1,0.3-0.3,0.5c-0.2,0.2-0.5,0.3-1,0.3c-0.3,0-0.7-0.1-1-0.4c-0.2-0.2-0.3-0.4-0.3-0.9c0-0.4,0.1-0.7,0.4-0.9
		c0.2-0.2,0.5-0.3,1-0.3c0.3,0,0.6,0.1,0.9,0.3C65.4,40.3,65.4,40.8,65.4,41.1L65.4,41.1z"/>
	<rect x="67.2" y="38.6" class="st57" width="0.9" height="3.5"/>
	<path class="st57" d="M68.8,39.8h0.8v0.3c0.2-0.2,0.5-0.3,0.7-0.3c0.2,0,0.3,0,0.5,0.1c0.2,0.1,0.3,0.2,0.3,0.3
		c0.1-0.2,0.2-0.3,0.3-0.3c0.2-0.1,0.3-0.1,0.5-0.1c0.2,0,0.5,0,0.7,0.2c0.2,0.2,0.2,0.5,0.2,0.7v1.5H72V41c0-0.2,0-0.4-0.1-0.5
		c0,0-0.1-0.1-0.2-0.1c-0.1,0-0.2,0-0.2,0.1c-0.1,0.1-0.2,0.3-0.2,0.4v1.2h-0.8V41c0-0.2,0-0.4-0.1-0.5c-0.1-0.1-0.2-0.1-0.3-0.1
		c-0.1,0-0.2,0-0.2,0.1c-0.1,0.1-0.1,0.4-0.1,0.5v1.2h-0.8V39.8z"/>
	<path class="st57" d="M74.4,40.6c-0.1,0.1-0.2,0.3-0.2,0.4c0,0.1,0.1,0.3,0.2,0.4c0.1,0.1,0.2,0.2,0.4,0.2c0.1,0,0.3-0.1,0.4-0.2
		c0.1-0.1,0.2-0.2,0.2-0.4c0-0.1-0.1-0.3-0.2-0.4c-0.1-0.1-0.2-0.2-0.4-0.2C74.7,40.4,74.5,40.5,74.4,40.6 M74.3,43.3h-0.8v-3.6h0.8
		V40c0.1-0.2,0.4-0.3,0.7-0.3c0.4,0,0.7,0.2,0.8,0.3c0.2,0.2,0.4,0.5,0.4,0.9c0,0.4-0.2,0.7-0.4,0.9c-0.3,0.3-0.6,0.3-0.8,0.3
		c-0.2,0-0.5,0-0.7-0.3V43.3z"/>
	<rect x="76.7" y="38.3" class="st57" width="0.8" height="3.9"/>
	<path class="st57" d="M79.1,40.6c-0.1,0.1-0.2,0.3-0.2,0.4c0,0.1,0.1,0.3,0.2,0.4c0.1,0.1,0.2,0.2,0.4,0.2c0.1,0,0.3-0.1,0.4-0.2
		c0.1-0.1,0.2-0.2,0.2-0.4c0-0.1,0-0.3-0.2-0.4c-0.1-0.1-0.2-0.2-0.4-0.2C79.3,40.4,79.2,40.4,79.1,40.6 M80,39.8h0.8v2.4H80v-0.3
		c-0.2,0.3-0.5,0.3-0.7,0.3c-0.3,0-0.6-0.1-0.9-0.4C78.2,41.6,78,41.3,78,41c0-0.4,0.2-0.8,0.4-0.9c0.2-0.2,0.5-0.3,0.9-0.3
		c0.4,0,0.6,0.2,0.7,0.3V39.8z"/>
	<path class="st57" d="M81.4,39.8h0.8v0.3c0.2-0.3,0.5-0.3,0.8-0.3c0.2,0,0.5,0.1,0.7,0.3c0.2,0.2,0.2,0.4,0.2,0.7v1.5h-0.8v-1.2
		c0-0.1,0-0.3-0.1-0.5c-0.1-0.1-0.2-0.1-0.3-0.1c-0.1,0-0.2,0-0.3,0.1c-0.1,0.1-0.1,0.2-0.1,0.4v1.3h-0.8V39.8z"/>
	<polygon class="st57" points="85.4,40.5 85.4,42.1 84.6,42.1 84.6,40.5 84.3,40.5 84.3,39.8 84.6,39.8 84.6,39 85.4,39 85.4,39.8 
		85.9,39.8 85.9,40.5 	"/>
	<path class="st57" d="M87.2,40.6C87.1,40.7,87,40.8,87,41c0,0.1,0.1,0.3,0.2,0.4c0.1,0.1,0.2,0.2,0.4,0.2c0.1,0,0.3-0.1,0.4-0.2
		c0.1-0.1,0.2-0.2,0.2-0.4c0-0.1-0.1-0.3-0.2-0.4c-0.1-0.1-0.2-0.2-0.4-0.2C87.4,40.4,87.3,40.5,87.2,40.6 M88.6,41.8
		c-0.3,0.3-0.7,0.4-1.1,0.4c-0.3,0-0.7-0.1-1.1-0.4c-0.3-0.3-0.4-0.6-0.4-0.9c0-0.4,0.2-0.7,0.4-0.9c0.2-0.2,0.5-0.4,1.1-0.4
		c0.5,0,0.9,0.2,1.1,0.4c0.2,0.2,0.4,0.4,0.4,0.9C89,41.3,88.9,41.6,88.6,41.8"/>
	<rect x="89.5" y="38.3" class="st57" width="0.8" height="3.9"/>
	<path class="st57" d="M91.8,40.6c-0.1,0.1-0.2,0.2-0.2,0.4c0,0.1,0.1,0.3,0.2,0.4c0.1,0.1,0.2,0.2,0.4,0.2c0.1,0,0.3-0.1,0.4-0.2
		c0.1-0.1,0.2-0.2,0.2-0.4c0-0.1-0.1-0.3-0.2-0.4c-0.1-0.1-0.2-0.2-0.4-0.2C92.1,40.4,91.9,40.5,91.8,40.6 M93.3,41.8
		c-0.3,0.3-0.7,0.4-1.1,0.4c-0.3,0-0.7-0.1-1.1-0.4c-0.3-0.3-0.4-0.6-0.4-0.9c0-0.4,0.2-0.7,0.4-0.9c0.2-0.2,0.5-0.4,1.1-0.4
		c0.5,0,0.9,0.2,1.1,0.4c0.2,0.2,0.4,0.4,0.4,0.9C93.6,41.3,93.5,41.6,93.3,41.8"/>
	<path class="st57" d="M95.1,40.6c-0.1,0.1-0.2,0.3-0.2,0.4c0,0.1,0.1,0.3,0.2,0.4c0.1,0.1,0.3,0.2,0.4,0.2c0.1,0,0.3-0.1,0.4-0.2
		c0.1-0.1,0.2-0.3,0.2-0.4c0-0.1-0.1-0.3-0.2-0.4c-0.1-0.1-0.2-0.2-0.4-0.2C95.3,40.4,95.2,40.5,95.1,40.6 M96.8,39.8V42
		c0,0.4,0,0.7-0.3,1c-0.3,0.3-0.7,0.4-1,0.4c-0.4,0-0.8-0.1-1.1-0.4c-0.1-0.1-0.2-0.3-0.3-0.5H95c0,0.1,0.1,0.2,0.4,0.2
		c0.1,0,0.3,0,0.4-0.1c0.1-0.1,0.2-0.3,0.2-0.4v-0.2c-0.3,0.3-0.5,0.3-0.7,0.3c-0.4,0-0.7-0.2-0.9-0.3C94.2,41.6,94,41.3,94,41
		c0-0.4,0.1-0.7,0.3-0.9c0.2-0.2,0.5-0.4,0.9-0.4c0.1,0,0.5,0,0.7,0.3v-0.2H96.8z"/>
	<path class="st57" d="M98.6,38.7l-0.8,0.7l-0.4-0.3l0.7-0.8L98.6,38.7z M98.2,42.1h-0.8v-2.4h0.8V42.1z"/>
	<path class="st57" d="M99.7,40.6c-0.1,0.1-0.2,0.3-0.2,0.4c0,0.1,0.1,0.3,0.2,0.4c0.1,0.1,0.2,0.2,0.4,0.2c0.1,0,0.3-0.1,0.4-0.2
		c0.1-0.1,0.2-0.2,0.2-0.4c0-0.1,0-0.3-0.2-0.4c-0.1-0.1-0.2-0.2-0.4-0.2C100,40.4,99.9,40.4,99.7,40.6 M100.6,39.8h0.8v2.4h-0.8
		v-0.3c-0.2,0.3-0.5,0.3-0.7,0.3c-0.3,0-0.6-0.1-0.9-0.4c-0.2-0.2-0.3-0.5-0.3-0.9c0-0.4,0.2-0.8,0.4-0.9c0.2-0.2,0.5-0.3,0.9-0.3
		c0.4,0,0.6,0.2,0.7,0.3V39.8z"/>
	<path class="st57" d="M97.5,9.9c-0.1,0-0.1,0-0.2,0h-0.1v0.4h0.1c0.1,0,0.1,0,0.2-0.1c0,0,0.1-0.1,0.1-0.2
		C97.6,10,97.6,9.9,97.5,9.9 M96.9,11V9.6c0.1,0,0.2,0,0.4,0c0.2,0,0.3,0,0.3,0c0.1,0,0.2,0,0.3,0.1C97.9,9.7,98,9.9,98,10
		c0,0.1,0,0.2-0.1,0.3c-0.1,0.1-0.1,0.1-0.2,0.1c0.1,0,0.2,0,0.2,0.1c0.1,0.1,0.1,0.2,0.1,0.3v0.1c0,0,0,0,0,0c0,0,0,0,0,0l0,0h-0.3
		c0,0,0-0.1,0-0.2c0-0.1,0-0.1,0-0.2c0,0-0.1-0.1-0.1-0.1c0,0-0.1,0-0.1,0l-0.1,0h-0.1V11H96.9z M96.7,9.6c-0.2,0.2-0.3,0.4-0.3,0.7
		c0,0.3,0.1,0.5,0.3,0.7c0.2,0.2,0.4,0.3,0.7,0.3c0.3,0,0.5-0.1,0.7-0.3c0.2-0.2,0.3-0.4,0.3-0.7c0-0.3-0.1-0.5-0.3-0.7
		c-0.2-0.2-0.4-0.3-0.7-0.3C97.1,9.3,96.9,9.4,96.7,9.6 M98.3,11.2c-0.2,0.2-0.5,0.4-0.9,0.4c-0.3,0-0.6-0.1-0.9-0.4
		c-0.2-0.2-0.4-0.5-0.4-0.9c0-0.4,0.1-0.7,0.4-0.9c0.2-0.2,0.5-0.3,0.9-0.3c0.3,0,0.6,0.1,0.9,0.4c0.2,0.2,0.4,0.5,0.4,0.9
		C98.7,10.6,98.5,10.9,98.3,11.2"/>
</g>
</svg>
