<svg xmlns="http://www.w3.org/2000/svg" viewBox="0 0 70.76 20.64"><defs><style>.cls-1{fill:#0079bb;}.cls-2{fill:#fff;}</style></defs><g id="Capa_2" data-name="Capa 2"><g id="Capa_1-2" data-name="Capa 1"><polygon class="cls-1" points="0 10.57 35.05 0 70.76 10.55 34.98 20.64 0 10.57"/><path class="cls-2" d="M14,7.09A75.88,75.88,0,0,1,56.2,6.88c3.94,1.47,3.79,5.86,0,6.94a75.27,75.27,0,0,1-42.24,0A3.56,3.56,0,0,1,14,7.09"/><path class="cls-1" d="M22.79,10.62H21c-.16,0-.21.07-.21.18v2.85c0,.12,0,.21-.18.21H19.34s-.18-.07-.18-.18V6.79a.17.17,0,0,1,.18-.18h1.29c.11,0,.18.15.18.18v2c0,.11,0,.19.17.19h1.78a.14.14,0,0,0,.17-.17v-2a.17.17,0,0,1,.18-.18H24.4a.21.21,0,0,1,.18.18v6.89a.32.32,0,0,1-.18.18H23.11s-.18,0-.18-.18V10.77a.13.13,0,0,0-.14-.15"/><path class="cls-1" d="M38.48,6.59h1.14a.19.19,0,0,1,.18.2v6.87a.19.19,0,0,1-.18.19H38.48a.19.19,0,0,1-.18-.19V6.79a.19.19,0,0,1,.18-.2"/><path class="cls-1" d="M28.53,6.47A3.63,3.63,0,0,1,32,10.22a3.5,3.5,0,1,1-7,0,3.63,3.63,0,0,1,3.49-3.75"/><path class="cls-2" d="M28.51,8.28a1.86,1.86,0,0,1,1.77,2,1.77,1.77,0,1,1-3.53,0,1.86,1.86,0,0,1,1.76-2"/><path class="cls-1" d="M48.73,6.47a3.63,3.63,0,0,1,3.49,3.75,3.5,3.5,0,1,1-7,0,3.63,3.63,0,0,1,3.49-3.75"/><path class="cls-2" d="M48.71,8.28a1.86,1.86,0,0,1,1.77,2,1.77,1.77,0,1,1-3.53,0,1.86,1.86,0,0,1,1.76-2"/><path class="cls-1" d="M45.16,12l.1,1.68a3.73,3.73,0,0,1-1.41.32,3.59,3.59,0,0,1-3.49-3.75,3.59,3.59,0,0,1,3.49-3.75A1.91,1.91,0,0,1,45,6.68c.08,0,.14.08.13.26L45,8.27c0,.26-.16.32-.37.24a1.5,1.5,0,0,0-.82-.23c-1.19,0-1.7.89-1.7,2a1.69,1.69,0,0,0,1.69,1.89,1.14,1.14,0,0,0,.91-.29c.1-.09.44-.28.41.14"/><path class="cls-1" d="M33.88,6.58c1.19,0,2.37-.06,3.34,1a2.73,2.73,0,0,1-.95,4.06.28.28,0,0,0,.08.43,2.32,2.32,0,0,0,1,.32c.12,0,.17,0,.17.18v1.1c0,.14,0,.14-.17.14a3.65,3.65,0,0,1-2.68-1.15c-.27-.24-.58-.1-.58.27v.66c0,.15,0,.22-.22.21H32.75c-.19,0-.24-.07-.24-.26V6.81c0-.15.05-.21.21-.23Z"/><path class="cls-2" d="M34.06,10V8.46c0-.16.07-.22.24-.25h1a1,1,0,0,1,0,2.07h-1c-.13,0-.18-.14-.18-.32"/><path class="cls-1" d="M60.13,2.87a.06.06,0,0,0,0,0s0,0,0,0l0,0h-.14V3H60a.13.13,0,0,0,.1,0,.11.11,0,0,0,0-.08m.33.6v0h-.27l0,0v0l0-.15a.19.19,0,0,0-.05-.1.1.1,0,0,0-.08,0h0v.29s0,0,0,0h-.22s0,0,0,0V2.69a.12.12,0,0,1,0-.09.13.13,0,0,1,.09,0H60l.15,0,.13,0a.24.24,0,0,1,.08.09.26.26,0,0,1,0,.29.27.27,0,0,1-.15.09.19.19,0,0,1,.1.05.36.36,0,0,1,.08.12l0,.13a.45.45,0,0,1,0,.08m.22-.4a.66.66,0,0,0,0-.28.57.57,0,0,0-.13-.21.69.69,0,0,0-1,0,.67.67,0,0,0-.13.22.71.71,0,0,0,0,.26.76.76,0,0,0,0,.27.55.55,0,0,0,.14.22.66.66,0,0,0,.2.14.69.69,0,0,0,.75-.14.83.83,0,0,0,.14-.22.75.75,0,0,0,0-.26m.27,0a1,1,0,0,1-.07.36,1,1,0,0,1-.2.29A1,1,0,0,1,60,4a.87.87,0,0,1-.37-.07.79.79,0,0,1-.29-.18.81.81,0,0,1-.19-.29.86.86,0,0,1-.07-.36.86.86,0,0,1,.07-.36.84.84,0,0,1,.2-.29.81.81,0,0,1,.29-.19A.9.9,0,0,1,60,2.16a1.15,1.15,0,0,1,.37.06,1,1,0,0,1,.29.19,1,1,0,0,1,.19.29.86.86,0,0,1,.07.36"/></g></g></svg>