<?xml version="1.0" encoding="utf-8"?>
<!-- Generator: Adobe Illustrator 25.4.1, SVG Export Plug-In . SVG Version: 6.00 Build 0)  -->
<svg version="1.1" id="Capa_1" xmlns="http://www.w3.org/2000/svg" xmlns:xlink="http://www.w3.org/1999/xlink" x="0px" y="0px"
	 viewBox="0 0 135 46" style="enable-background:new 0 0 135 46;" xml:space="preserve">
<style type="text/css">
	.st0{fill:#38444E;}
	.st1{fill:#E64860;}
	.st2{fill:#808791;}
	.st3{clip-path:url(#SVGID_00000119837824486147867770000010587281102757778097_);fill:#E64860;}
	.st4{fill:none;stroke:#E64860;stroke-width:0.6287;stroke-miterlimit:10;}
	.st5{fill:#194374;}
	.st6{fill:#00659B;}
	.st7{fill:#DC0D6E;}
	.st8{fill:#004D80;}
	.st9{fill:#7EA9D6;}
	.st10{fill:#B6D4EF;}
	.st11{fill:#058DC7;}
	.st12{fill:#00559F;}
	.st13{fill:#134A83;}
	.st14{fill:#B51975;}
	.st15{fill:#2497D0;}
	.st16{fill:#D80F3B;}
	.st17{fill:#9BC338;}
	.st18{fill:#008541;}
	.st19{fill:#9DC438;}
	.st20{fill:#009BDA;}
	.st21{fill:#CE1620;}
	.st22{fill:#171915;}
	.st23{fill:#E30750;}
	.st24{fill:#5775B5;}
	.st25{fill:none;stroke:#5775B5;stroke-width:0.5802;}
	.st26{fill:#5A595C;}
	.st27{fill:#FFFFFF;}
	.st28{fill:#F9BE12;}
	.st29{fill:#364F8F;}
	.st30{fill:none;stroke:#364F8F;stroke-width:0.3873;}
	.st31{fill:none;stroke:#364F8F;stroke-width:1.3345;stroke-linecap:round;}
	.st32{fill:#656362;}
	.st33{fill:#C8D44A;}
	.st34{fill:#E42E38;}
	.st35{fill:none;stroke:#FFFFFF;stroke-width:0.4523;stroke-miterlimit:10;}
	.st36{fill:#51B054;}
	.st37{fill:#0079BB;}
	.st38{fill:#086EB0;}
	.st39{fill:#99A4AB;}
	.st40{fill:#B2A7A5;}
	.st41{fill:#931340;}
	.st42{fill:#DFDCD9;}
	.st43{fill:#27A1D7;}
	.st44{fill:none;stroke:#000000;stroke-width:0.1494;stroke-linejoin:bevel;stroke-miterlimit:22.926;}
	.st45{fill:none;stroke:#000000;stroke-width:0.1585;stroke-miterlimit:22.926;}
	.st46{fill:#EA3D36;stroke:#ED1C24;stroke-width:0.1417;stroke-linejoin:round;}
	.st47{fill:#EA3D36;}
	.st48{fill:url(#SVGID_00000101798807135266796520000016066194683525325983_);}
	.st49{fill:url(#SVGID_00000144326191728713092400000013982107369799627393_);}
	.st50{fill:url(#SVGID_00000174584711408656093270000009104693000201624249_);}
	.st51{fill:#0071B6;}
	.st52{fill:#FBCF0D;}
</style>
<linearGradient id="SVGID_00000148652966387801525630000015464519674016786571_" gradientUnits="userSpaceOnUse" x1="45.1557" y1="15.9329" x2="45.1557" y2="36.998">
	<stop  offset="0" style="stop-color:#0072B6"/>
	<stop  offset="8.829139e-02" style="stop-color:#036EAE"/>
	<stop  offset="0.413" style="stop-color:#0B6097"/>
	<stop  offset="0.7172" style="stop-color:#105889"/>
	<stop  offset="0.978" style="stop-color:#125584"/>
	<stop  offset="1" style="stop-color:#125584"/>
</linearGradient>
<path style="fill:url(#SVGID_00000148652966387801525630000015464519674016786571_);" d="M37.4,38.4h15.5v-5.2H42.8v-6.6h9.7v-1
	c-5.4-0.4-10.5-1.1-15.1-2V38.4z"/>
<linearGradient id="SVGID_00000168085918745726910850000006807690110498047116_" gradientUnits="userSpaceOnUse" x1="89.843" y1="15.9689" x2="89.843" y2="37.1282">
	<stop  offset="0" style="stop-color:#0072B6"/>
	<stop  offset="8.829139e-02" style="stop-color:#036EAE"/>
	<stop  offset="0.413" style="stop-color:#0B6097"/>
	<stop  offset="0.7172" style="stop-color:#105889"/>
	<stop  offset="0.978" style="stop-color:#125584"/>
	<stop  offset="1" style="stop-color:#125584"/>
</linearGradient>
<path style="fill:url(#SVGID_00000168085918745726910850000006807690110498047116_);" d="M82.1,25.5L82.1,25.5l0,12.8h15.5v-5.2
	H87.4v-6.6h9.7v-3C92.6,24.4,87.5,25.1,82.1,25.5"/>
<linearGradient id="SVGID_00000149346132676889416660000004150473089473211779_" gradientUnits="userSpaceOnUse" x1="63.7603" y1="10.8293" x2="63.7603" y2="40.7188">
	<stop  offset="0" style="stop-color:#0072B6"/>
	<stop  offset="8.829139e-02" style="stop-color:#036EAE"/>
	<stop  offset="0.413" style="stop-color:#0B6097"/>
	<stop  offset="0.7172" style="stop-color:#105889"/>
	<stop  offset="0.978" style="stop-color:#125584"/>
	<stop  offset="1" style="stop-color:#125584"/>
</linearGradient>
<path style="fill:url(#SVGID_00000149346132676889416660000004150473089473211779_);" d="M52.9,10.9l14.6,29.8l7.1-14.5
	c-1.9,0.1-3.9,0.1-5.8,0.1c-2.9,0-5.7-0.1-8.4-0.2L52.9,10.9L52.9,10.9z"/>
<path class="st51" d="M97.6,14.7V9.5H82.8l2.1-4.2h-8.1L67.5,25l0,0l0,0L58.2,5.3h-8.1l2.1,4.2l0,0l0,0H37.4v14
	c4.6,0.9,9.7,1.5,15.1,2v-4.2h-9.7v-6.6h10.1v-3.8l0-0.1l0,0l7.5,15.3c2.7,0.1,5.5,0.2,8.4,0.2c2,0,3.9,0,5.8-0.1l6.6-13.4l0.9-1.8
	v14.6c1.5-0.1,2.9-0.3,4.4-0.4c3.8-0.4,7.4-0.9,10.7-1.6v-2.2h-9.7v-6.6H97.6z M82.1,11L82.1,11L82.1,11L82.1,11z"/>
<polygon class="st52" points="59.7,5.3 67.5,22.4 75.2,5.3 "/>
</svg>
