<svg xmlns="http://www.w3.org/2000/svg" viewBox="0 0 51.48 19.05"><defs><style>.cls-1{fill:#dc0d6e;}</style></defs><g id="Capa_2" data-name="Capa 2"><g id="Capa_1-2" data-name="Capa 1"><path class="cls-1" d="M22.48,17.39h0a1,1,0,0,1-.71-.29,1,1,0,0,1-.3-.71V2.68h0a1,1,0,0,1,1-1h.71V0H16.41V1.66h.72a1,1,0,0,1,1,1V16.38a1,1,0,0,1-1,1H16.05v1.67h7.36V17.38h-.93"/><path class="cls-1" d="M11.75,2.57l-3,11.6-3-11.23h0a1.15,1.15,0,0,1,0-.26A1,1,0,0,1,6,2a1,1,0,0,1,.71-.3h.75V0H0V1.66H.93a1,1,0,0,1,1,.74v0h0L6.41,19V19h3V19L13.72,2.45"/><path class="cls-1" d="M13.72,2.45a1,1,0,0,1,.94-.79h.85V0H10.06V1.66h1a.72.72,0,0,1,.72.72,1.1,1.1,0,0,1,0,.18"/><path class="cls-1" d="M36.5,0H24.05V4.49H26V2.67A1,1,0,0,1,26.24,2a1,1,0,0,1,.72-.3h1.7V16.38a1,1,0,0,1-1,1H26.56v1.67h7.35V17.38H33a1,1,0,0,1-.72-.29,1,1,0,0,1-.29-.71V1.66h1.7a1,1,0,0,1,.72.3,1,1,0,0,1,.29.71V4.49h1.9V0"/><path class="cls-1" d="M39.85,10.67h0l2.32-8.95h0l2.42,9H39.85m10,5.89L45.35.05V0H40.67V.05L36.38,16.57v0a1,1,0,0,1-1,.77h-.67V19h5.61V17.38h-.91a1,1,0,0,1-1-1,1.09,1.09,0,0,1,0-.26h0s.86-3.31,1-3.76H45l.2.72.79,3h0a1.09,1.09,0,0,1,0,.26,1,1,0,0,1-1,1h-.92V19h7.34V17.38h-.64a1,1,0,0,1-1-.77Z"/></g></g></svg>