<svg xmlns="http://www.w3.org/2000/svg" viewBox="0 0 68.18 23.62"><defs><style>.cls-1{fill:#5775b5;}.cls-2{fill:none;stroke:#5775b5;stroke-width:0.4px;}.cls-3{fill:#5a595c;}</style></defs><g id="Capa_2" data-name="Capa 2"><g id="Capa_1-2" data-name="Capa 1"><path class="cls-1" d="M7.23,4.76c-.51,0-1.15,0-1.44,0L4.12,14.51c.28,0,.93,0,1.43,0,1.94,0,3.11-.75,3.6-3.56l.46-2.68a6.44,6.44,0,0,0,.13-1.23c0-1.8-1-2.32-2.51-2.32m5.84,3.55L12.6,11c-.8,4.7-3.09,6.57-7.57,6.57a29.19,29.19,0,0,1-4.25-.31,2.83,2.83,0,0,1-.56-.18s.08-.47.21-1.2L2.8,2.13l.59-.08s2.69-.31,4.37-.31c3.35,0,5.45,1.85,5.45,5.07a7.91,7.91,0,0,1-.14,1.5"/><path class="cls-2" d="M7.23,4.76c-.51,0-1.15,0-1.44,0L4.12,14.51c.28,0,.93,0,1.43,0,1.94,0,3.11-.75,3.6-3.56l.46-2.68a6.44,6.44,0,0,0,.13-1.23C9.74,5.28,8.75,4.76,7.23,4.76Zm5.84,3.55L12.6,11c-.8,4.7-3.09,6.57-7.57,6.57a29.19,29.19,0,0,1-4.25-.31,2.83,2.83,0,0,1-.56-.18s.08-.47.21-1.2L2.8,2.13l.59-.08s2.69-.31,4.37-.31c3.35,0,5.45,1.85,5.45,5.07A7.91,7.91,0,0,1,13.07,8.31Z"/><path class="cls-1" d="M23.87,6.06,22,17.36H19.29l.15-.84a4.5,4.5,0,0,1-2.87,1c-1.78,0-2.81-1.21-2.81-3.27a7.42,7.42,0,0,1,.11-1.19l1.13-7h2.92l-1.13,7a5.35,5.35,0,0,0-.09.9c0,.66.27.94,1.12.94a4.66,4.66,0,0,0,1.8-.65L21,6.06Z"/><path class="cls-2" d="M23.87,6.06,22,17.36H19.29l.15-.84a4.5,4.5,0,0,1-2.87,1c-1.78,0-2.81-1.21-2.81-3.27a7.42,7.42,0,0,1,.11-1.19l1.13-7h2.92l-1.13,7a5.35,5.35,0,0,0-.09.9c0,.66.27.94,1.12.94a4.66,4.66,0,0,0,1.8-.65L21,6.06Z"/><path class="cls-1" d="M38.18,10.3l-1.14,7H34.12l1.14-7a4.92,4.92,0,0,0,.09-.84c0-.55-.21-.79-.94-.79A3.77,3.77,0,0,0,33,9a8.29,8.29,0,0,1-.12,1.31l-1.14,7s-2.93,0-2.93,0l1.15-7a7.49,7.49,0,0,0,.1-.92c0-.45-.14-.71-.72-.71a4.1,4.1,0,0,0-1.64.59l-1.3,8.08H23.43L25.26,6H28L27.8,7a4.44,4.44,0,0,1,2.54-1,2.43,2.43,0,0,1,2.09.88A5.5,5.5,0,0,1,35.62,6c2,0,2.67,1.43,2.67,3.09a6.09,6.09,0,0,1-.11,1.2"/><path class="cls-2" d="M38.18,10.3l-1.14,7H34.12l1.14-7a4.92,4.92,0,0,0,.09-.84c0-.55-.21-.79-.94-.79A3.77,3.77,0,0,0,33,9a8.29,8.29,0,0,1-.12,1.31l-1.14,7s-2.93,0-2.93,0l1.15-7a7.49,7.49,0,0,0,.1-.92c0-.45-.14-.71-.72-.71a4.1,4.1,0,0,0-1.64.59l-1.3,8.08H23.43L25.26,6H28L27.8,7a4.44,4.44,0,0,1,2.54-1,2.43,2.43,0,0,1,2.09.88A5.5,5.5,0,0,1,35.62,6c2,0,2.67,1.43,2.67,3.09A6.09,6.09,0,0,1,38.18,10.3Z"/><path class="cls-1" d="M44.29,8.71c-1,0-1.71.67-2,2.39l-.23,1.37a5.8,5.8,0,0,0-.1.94c0,1,.44,1.47,1.34,1.47,1.17,0,1.71-.82,2-2.41l.24-1.37a6.5,6.5,0,0,0,.09-.9c0-1-.44-1.49-1.32-1.49m4.13,2.39-.23,1.37c-.58,3.33-2.15,5.09-5.34,5.09-2.45,0-3.79-1.68-3.79-4a5.9,5.9,0,0,1,.09-1.1l.24-1.37C40,7.56,41.73,6,44.72,6c2.44,0,3.81,1.57,3.81,4a8,8,0,0,1-.11,1.13"/><path class="cls-2" d="M44.29,8.71c-1,0-1.71.67-2,2.39l-.23,1.37a5.8,5.8,0,0,0-.1.94c0,1,.44,1.47,1.34,1.47,1.17,0,1.71-.82,2-2.41l.24-1.37a6.5,6.5,0,0,0,.09-.9C45.61,9.18,45.17,8.71,44.29,8.71Zm4.13,2.39-.23,1.37c-.58,3.33-2.15,5.09-5.34,5.09-2.45,0-3.79-1.68-3.79-4a5.9,5.9,0,0,1,.09-1.1l.24-1.37C40,7.56,41.73,6,44.72,6c2.44,0,3.81,1.57,3.81,4A8,8,0,0,1,48.42,11.1Z"/><path class="cls-1" d="M59,10.45l-1.11,6.89H54.94l1.11-6.89a6.14,6.14,0,0,0,.09-.86.87.87,0,0,0-1-1,4.36,4.36,0,0,0-1.95.63l-1.3,8.08H49L50.83,6h2.68l-.15,1a4.52,4.52,0,0,1,2.81-1c1.55,0,2.91.94,2.91,3.25A7.42,7.42,0,0,1,59,10.45"/><path class="cls-2" d="M59,10.45l-1.11,6.89H54.94l1.11-6.89a6.14,6.14,0,0,0,.09-.86.87.87,0,0,0-1-1,4.36,4.36,0,0,0-1.95.63l-1.3,8.08H49L50.83,6h2.68l-.15,1a4.52,4.52,0,0,1,2.81-1c1.55,0,2.91.94,2.91,3.25A7.42,7.42,0,0,1,59,10.45Z"/><path class="cls-1" d="M67.57,8.54H65.21l-.94,5.69a3.24,3.24,0,0,0,0,.55c0,.29.12.37.5.37l1.58-.29.21,2.3s-1,.21-1.23.24a7.58,7.58,0,0,1-1.46.16c-1.64,0-2.56-.64-2.56-2.35a6.48,6.48,0,0,1,.09-1l.92-5.67h-2l.41-2.36h1.93L66,3.83l-.39,2.34h2.35Z"/><path class="cls-2" d="M67.57,8.54H65.21l-.94,5.69a3.24,3.24,0,0,0,0,.55c0,.29.12.37.5.37l1.58-.29.21,2.3s-1,.21-1.23.24a7.58,7.58,0,0,1-1.46.16c-1.64,0-2.56-.64-2.56-2.35a6.48,6.48,0,0,1,.09-1l.92-5.67h-2l.41-2.36h1.93L66,3.83l-.39,2.34h2.35Z"/><polygon class="cls-3" points="62.49 4.86 65.99 2.41 63.72 0 62.49 4.86"/><rect class="cls-3" x="0.3" y="20.17" width="1.24" height="3.35"/><polygon class="cls-3" points="1.98 20.17 3.21 20.17 4.25 21.87 4.27 21.87 4.22 20.17 5.39 20.17 5.39 23.52 4.13 23.52 3.12 21.92 3.1 21.92 3.15 23.52 1.98 23.52 1.98 20.17"/><path class="cls-3" d="M7,23.62a2.12,2.12,0,0,1-.44,0,2.73,2.73,0,0,1-.41-.1l-.38-.16a1.41,1.41,0,0,1-.31-.21l.75-.74a1.34,1.34,0,0,0,.34.23,1.13,1.13,0,0,0,.44.1.58.58,0,0,0,.19,0,.12.12,0,0,0,.09-.12.11.11,0,0,0,0-.08.29.29,0,0,0-.1-.07L7,22.31l-.32-.1-.36-.13a1.57,1.57,0,0,1-.3-.2.71.71,0,0,1-.21-.27.86.86,0,0,1-.08-.38,1,1,0,0,1,.14-.53,1.23,1.23,0,0,1,.36-.36,1.59,1.59,0,0,1,.5-.2,2.48,2.48,0,0,1,.54-.06A2.43,2.43,0,0,1,8,20.2a2.13,2.13,0,0,1,.66.37l-.77.72a.73.73,0,0,0-.3-.22A.85.85,0,0,0,7.25,21,.48.48,0,0,0,7,21a.12.12,0,0,0-.08.11.14.14,0,0,0,.09.12l.27.09.42.13a2.14,2.14,0,0,1,.4.2,1.18,1.18,0,0,1,.3.29.78.78,0,0,1,.12.44,1.12,1.12,0,0,1-.13.53,1.24,1.24,0,0,1-.35.37,1.32,1.32,0,0,1-.48.22,2.09,2.09,0,0,1-.55.08"/><polygon class="cls-3" points="10.71 23.52 9.48 23.52 9.48 21.12 8.58 21.12 8.58 20.17 11.62 20.17 11.62 21.12 10.71 21.12 10.71 23.52"/><path class="cls-3" d="M12.88,21.59h.38l.14,0a.31.31,0,0,0,.11-.09.27.27,0,0,0,0-.28.14.14,0,0,0-.09-.08.42.42,0,0,0-.12,0h-.42ZM11.7,20.17h1.58a3.17,3.17,0,0,1,.53,0,1.26,1.26,0,0,1,.48.18,1,1,0,0,1,.34.33,1.06,1.06,0,0,1,.13.53.89.89,0,0,1-.17.54,1,1,0,0,1-.47.36l.93,1.36H13.63l-.7-1.19h0v1.19H11.7Z"/><path class="cls-3" d="M16.74,23.62a2.42,2.42,0,0,1-.75-.11,1.44,1.44,0,0,1-.53-.3,1.17,1.17,0,0,1-.31-.45,1.42,1.42,0,0,1-.11-.55v-2h1.23v1.91a.54.54,0,0,0,.13.38.49.49,0,0,0,.36.14.46.46,0,0,0,.36-.14.5.5,0,0,0,.13-.38V20.17h1.22v2a1.26,1.26,0,0,1-.11.55,1.12,1.12,0,0,1-.33.45,1.41,1.41,0,0,1-.54.3,2.37,2.37,0,0,1-.75.11"/><polygon class="cls-3" points="19.97 21.63 20.02 23.52 18.88 23.52 18.88 20.17 20.49 20.17 21.15 21.98 21.18 21.98 21.75 20.17 23.41 20.17 23.41 23.52 22.21 23.52 22.25 21.64 22.22 21.63 21.54 23.52 20.67 23.52 19.99 21.63 19.97 21.63"/><polygon class="cls-3" points="23.85 20.17 26.37 20.17 26.37 21.11 25.01 21.11 25.01 21.4 26.29 21.4 26.29 22.27 25.01 22.27 25.01 22.59 26.46 22.59 26.46 23.52 23.85 23.52 23.85 20.17"/><polygon class="cls-3" points="26.78 20.17 28.01 20.17 29.05 21.87 29.08 21.87 29.02 20.17 30.19 20.17 30.19 23.52 28.94 23.52 27.92 21.92 27.9 21.92 27.95 23.52 26.78 23.52 26.78 20.17"/><polygon class="cls-3" points="32.41 23.52 31.18 23.52 31.18 21.12 30.27 21.12 30.27 20.17 33.31 20.17 33.31 21.12 32.41 21.12 32.41 23.52"/><path class="cls-3" d="M34.66,23.62a2.12,2.12,0,0,1-.44,0,2.86,2.86,0,0,1-.42-.1l-.37-.16a1.77,1.77,0,0,1-.32-.21l.75-.74a1.41,1.41,0,0,0,.35.23,1.13,1.13,0,0,0,.44.1.58.58,0,0,0,.19,0,.11.11,0,0,0,.08-.12.19.19,0,0,0,0-.08.35.35,0,0,0-.11-.07l-.19-.08-.32-.1a3,3,0,0,1-.36-.13,1.57,1.57,0,0,1-.3-.2.71.71,0,0,1-.21-.27.86.86,0,0,1-.08-.38,1,1,0,0,1,.14-.53,1,1,0,0,1,.36-.36,1.63,1.63,0,0,1,.49-.2,2.64,2.64,0,0,1,.55-.06,2.37,2.37,0,0,1,.73.12,2.13,2.13,0,0,1,.66.37l-.76.72a.77.77,0,0,0-.31-.22.84.84,0,0,0-.32-.07.48.48,0,0,0-.22,0,.11.11,0,0,0-.08.11.14.14,0,0,0,.08.12l.28.09.41.13a1.66,1.66,0,0,1,.4.2,1.08,1.08,0,0,1,.31.29.78.78,0,0,1,.12.44A1,1,0,0,1,36,23a1.09,1.09,0,0,1-.34.37,1.45,1.45,0,0,1-.49.22,2,2,0,0,1-.54.08"/><path class="cls-3" d="M39,20.8a.21.21,0,0,0-.17.07.2.2,0,0,0-.06.15.23.23,0,0,0,0,.15.44.44,0,0,0,.14.13.64.64,0,0,0,.2-.11A.23.23,0,0,0,39.2,21a.28.28,0,0,0-.05-.16A.24.24,0,0,0,39,20.8m-.32,1.43a.51.51,0,0,0-.13.09.21.21,0,0,0-.07.17.21.21,0,0,0,0,.12.24.24,0,0,0,.09.08l.11,0h.12a.48.48,0,0,0,.18,0,.32.32,0,0,0,.13-.07Zm1.12,1.05a1.38,1.38,0,0,1-.42.22,1.87,1.87,0,0,1-.61.09,2.39,2.39,0,0,1-.53-.06,1.43,1.43,0,0,1-.46-.18,1,1,0,0,1-.33-.32.82.82,0,0,1-.13-.48.8.8,0,0,1,.06-.3A.73.73,0,0,1,37.5,22a1.14,1.14,0,0,1,.23-.2,1.22,1.22,0,0,1,.28-.14,1.08,1.08,0,0,1-.26-.3.81.81,0,0,1-.1-.39.74.74,0,0,1,.12-.42.94.94,0,0,1,.32-.27,1.6,1.6,0,0,1,.42-.16,2.45,2.45,0,0,1,.46,0,1.73,1.73,0,0,1,.45.05,1.09,1.09,0,0,1,.4.16.89.89,0,0,1,.3.28.77.77,0,0,1,.11.42.66.66,0,0,1-.21.51,2.13,2.13,0,0,1-.22.18,2.49,2.49,0,0,1-.28.15l.26.22.28-.37h1.29l-.88,1,1,.86H40Z"/><path class="cls-3" d="M42.38,21.85a1.6,1.6,0,0,1,.16-.73,1.56,1.56,0,0,1,.42-.56,2.16,2.16,0,0,1,.63-.36,2.54,2.54,0,0,1,.78-.12,2.63,2.63,0,0,1,.8.12,2,2,0,0,1,.64.34l-.76.83a.68.68,0,0,0-.26-.18.78.78,0,0,0-.35-.07.93.93,0,0,0-.29.05.7.7,0,0,0-.23.15.63.63,0,0,0-.16.23.73.73,0,0,0-.06.3.65.65,0,0,0,.06.29.79.79,0,0,0,.16.23.72.72,0,0,0,.24.14.66.66,0,0,0,.28,0,.7.7,0,0,0,.37-.08.65.65,0,0,0,.24-.19l.76.83a1.88,1.88,0,0,1-.62.36,2.31,2.31,0,0,1-.82.14,2.28,2.28,0,0,1-.78-.13,2,2,0,0,1-.63-.36,1.65,1.65,0,0,1-.42-.56,1.58,1.58,0,0,1-.16-.72"/><path class="cls-3" d="M46.93,21.83a.73.73,0,0,0,0,.3,1,1,0,0,0,.15.24.61.61,0,0,0,.23.15.73.73,0,0,0,.58,0,.83.83,0,0,0,.23-.15,1,1,0,0,0,.15-.24.92.92,0,0,0,0-.6.71.71,0,0,0-.15-.22.83.83,0,0,0-.23-.15.87.87,0,0,0-.58,0,.61.61,0,0,0-.23.15.71.71,0,0,0-.15.22.73.73,0,0,0,0,.3m-1.31,0a1.73,1.73,0,0,1,.15-.73,1.64,1.64,0,0,1,.43-.55,1.88,1.88,0,0,1,.64-.35,2.79,2.79,0,0,1,1.62,0,2,2,0,0,1,.64.35,1.53,1.53,0,0,1,.43.55,1.72,1.72,0,0,1-.43,2,2,2,0,0,1-.64.36,2.59,2.59,0,0,1-1.62,0,1.9,1.9,0,0,1-.64-.36,1.66,1.66,0,0,1-.58-1.3"/></g></g></svg>