<?xml version="1.0" encoding="utf-8"?>
<!-- Generator: Adobe Illustrator 25.4.1, SVG Export Plug-In . SVG Version: 6.00 Build 0)  -->
<svg version="1.1" id="Capa_1" xmlns="http://www.w3.org/2000/svg" xmlns:xlink="http://www.w3.org/1999/xlink" x="0px" y="0px"
	 viewBox="0 0 135 46" style="enable-background:new 0 0 135 46;" xml:space="preserve">
<style type="text/css">
	.st0{fill:#FFED00;}
</style>
<polygon class="st0" points="39.5,12.7 44.2,12.7 44.2,20.5 50.2,12.7 56.1,12.7 49.4,20.7 56.9,32.9 51.1,32.9 46.2,24.4 
	44.2,26.6 44.2,32.9 39.5,32.9 "/>
<path class="st0" d="M60.1,24c0.3-1.8,1.3-3,2.8-3c1.4,0,2.5,1.4,2.6,3H60.1z M69.8,26.7c0.2-5-2.2-8.9-6.9-8.9
	c-3.9,0-7.1,3.2-7.1,7.7c0,4.9,2.9,7.8,7.2,7.8c2.9,0,5.8-1.5,6.6-4.9h-4c-0.4,1.1-1.4,1.6-2.5,1.6c-1.8,0-2.9-1.3-2.9-3.4H69.8z"/>
<path class="st0" d="M71.3,18.2h4.2v2.6h0.1c0.6-1.9,2.1-2.9,4-2.9c0.3,0,0.7,0,1,0.1v4.4c-0.6-0.2-1.1-0.3-1.7-0.3
	c-2.1,0-3.3,1.6-3.3,3.5v7.3h-4.3V18.2z"/>
<path class="st0" d="M81.8,18.2H86v2.6h0.1c0.6-1.9,2.1-2.9,4-2.9c0.3,0,0.7,0,1,0.1v4.4c-0.6-0.2-1.1-0.3-1.7-0.3
	c-2.1,0-3.3,1.6-3.3,3.5v7.3h-4.3V18.2z"/>
<path class="st0" d="M93.4,17.1h-0.5v1.4h-0.3v-1.4H92v-0.2h1.3V17.1z M95.5,18.5h-0.3v-1.4h0l-0.5,1.4h-0.2L94,17.1h0v1.4h-0.3
	v-1.7h0.4l0.5,1.3l0.5-1.3h0.4V18.5z"/>
</svg>
