<svg id="Capa_1" data-name="Capa 1" xmlns="http://www.w3.org/2000/svg" viewBox="0 0 135 46"><defs><style>.cls-1{fill:#99a4ab;}.cls-2{fill:#b2a7a5;}.cls-3{fill:#931340;}.cls-4{fill:#dfdcd9;}</style></defs><polygon class="cls-1" points="35.62 29.54 36.13 29.54 38.3 37.65 38.33 37.65 40.49 29.54 41 29.54 38.63 38.23 38 38.23 35.62 29.54"/><polygon class="cls-1" points="41.76 29.54 45.91 29.54 45.91 30.01 42.27 30.01 42.27 33.47 45.66 33.47 45.66 33.94 42.27 33.94 42.27 37.77 46.02 37.77 46.02 38.23 41.76 38.23 41.76 29.54"/><path class="cls-1" d="M49.08,33.79a1.79,1.79,0,0,0,2.05-2A1.65,1.65,0,0,0,49.41,30h-2v3.83Zm-2.14-4.25h2.55a2,2,0,0,1,2.15,2.28A2,2,0,0,1,49.9,34v0c1.42.08,1.68,1,1.68,2.15v.91a2,2,0,0,0,.29,1.17h-.58a2.57,2.57,0,0,1-.22-1.18v-.89c0-1.24-.34-1.95-1.74-1.95H47.45v4h-.51Z"/><polygon class="cls-1" points="54.4 30.01 52.09 30.01 52.09 29.54 57.23 29.54 57.23 30.01 54.91 30.01 54.91 38.23 54.4 38.23 54.4 30.01"/><polygon class="cls-1" points="59.7 34.66 57.32 29.54 57.88 29.54 59.95 34.12 62.07 29.54 62.58 29.54 60.21 34.66 60.21 38.23 59.7 38.23 59.7 34.66"/><path class="cls-1" d="M63.59,36a1.86,1.86,0,0,0,2,2,1.93,1.93,0,0,0,2-2c0-1.13-.61-1.52-1.58-1.86l-1-.34c-1.14-.39-1.76-.95-1.76-2.13a2.16,2.16,0,0,1,2.32-2.26,2.1,2.1,0,0,1,2.33,2.36h-.51c0-1.17-.54-2-1.77-2a1.66,1.66,0,0,0-1.86,1.8A1.63,1.63,0,0,0,65,33.29l1.29.45A2.14,2.14,0,0,1,68.08,36a2.36,2.36,0,0,1-2.52,2.42,2.22,2.22,0,0,1-2.48-2.25v-.57h.51Z"/><polygon class="cls-1" points="70.95 34.66 68.58 29.54 69.14 29.54 71.21 34.12 73.33 29.54 73.84 29.54 71.47 34.66 71.47 38.23 70.95 38.23 70.95 34.66"/><path class="cls-1" d="M74.85,36a1.86,1.86,0,0,0,2,2,1.93,1.93,0,0,0,2-2c0-1.13-.61-1.52-1.58-1.86l-1-.34c-1.14-.39-1.76-.95-1.76-2.13a2.16,2.16,0,0,1,2.32-2.26,2.1,2.1,0,0,1,2.33,2.36h-.52c0-1.17-.53-2-1.76-2A1.66,1.66,0,0,0,75,31.61a1.63,1.63,0,0,0,1.28,1.68l1.29.45A2.14,2.14,0,0,1,79.34,36a2.36,2.36,0,0,1-2.52,2.42,2.21,2.21,0,0,1-2.48-2.25v-.57h.51Z"/><polygon class="cls-1" points="82.1 30.01 79.79 30.01 79.79 29.54 84.93 29.54 84.93 30.01 82.61 30.01 82.61 38.23 82.1 38.23 82.1 30.01"/><polygon class="cls-1" points="85.69 29.54 89.84 29.54 89.84 30.01 86.2 30.01 86.2 33.47 89.6 33.47 89.6 33.94 86.2 33.94 86.2 37.77 89.95 37.77 89.95 38.23 85.69 38.23 85.69 29.54"/><polygon class="cls-1" points="96.85 30.2 96.83 30.2 94.33 38.23 93.82 38.23 91.33 30.2 91.3 30.2 91.3 38.23 90.79 38.23 90.79 29.54 91.62 29.54 94.09 37.36 94.12 37.36 96.53 29.54 97.36 29.54 97.36 38.23 96.85 38.23 96.85 30.2"/><path class="cls-2" d="M98.54,29.84h.3c.19,0,.32-.06.32-.22s-.12-.23-.29-.23h-.33Zm-.11-.55h.45c.27,0,.39.12.39.33a.32.32,0,0,1-.3.32l.35.53H99.2l-.35-.54h-.31v.54h-.11Zm.37,1.48a.89.89,0,1,0-.89-.89.89.89,0,0,0,.89.89m0-1.88a1,1,0,1,1-1,1,1,1,0,0,1,1-1"/><rect class="cls-2" x="84.13" y="10.24" width="10.2" height="15.76"/><path class="cls-1" d="M68.39,18.94a1.22,1.22,0,1,1,0-1.72,1.23,1.23,0,0,1,0,1.72m6.8,6.26a10.46,10.46,0,0,0,0-14.24l-4.26,4.27-.55-.54,4.27-4.27a10.46,10.46,0,0,0-14.24,0l4.24,4.24-.54.54L59.87,11a10.46,10.46,0,0,0,0,14.24l4.27-4.27.54.54-4.27,4.27a10.46,10.46,0,0,0,14.24,0L70.41,21.5,71,21Z"/><path class="cls-3" d="M46.27,26H45L40,11.63h1.07L45.58,25h.05l4.53-13.41h1.06Zm-.6-18.37A10.46,10.46,0,1,0,56.12,18.1,10.46,10.46,0,0,0,45.67,7.64"/><path class="cls-4" d="M89.3,25.78c-4,0-5-2.42-5-3.85V21h1v.77c0,1.89,1.43,3.35,3.93,3.35s4-1.48,4-3.37-1.21-2.6-3.15-3.18l-2-.59c-2.28-.66-3.52-1.62-3.52-3.64,0-2.39,1.92-3.87,4.64-3.87,3.2,0,4.63,1.56,4.63,4h-1c0-2-1.07-3.33-3.52-3.33-1.94,0-3.71.77-3.71,3.08,0,1.64,1,2.43,2.55,2.87l2.57.77c2.23.67,3.52,1.6,3.52,3.79,0,2.64-2.28,4.14-5,4.14m0-18.16A10.46,10.46,0,1,0,99.79,18.08,10.46,10.46,0,0,0,89.33,7.62"/></svg>