<svg xmlns="http://www.w3.org/2000/svg" viewBox="0 0 75 18.75"><defs><style>.cls-1{fill:#656362;}.cls-2{fill:#c8d44a;}.cls-3{fill:#fff;}</style></defs><g id="Capa_2" data-name="Capa 2"><g id="Capa_1-2" data-name="Capa 1"><rect class="cls-1" x="19.81" width="0.19" height="18.75"/><path class="cls-1" d="M39.56,5.19v4.2a6.06,6.06,0,0,1-.16,1.86,1.75,1.75,0,0,1-1.92,1.2h0a1.82,1.82,0,0,1-2-1.45,8.12,8.12,0,0,1-.07-1.61V5.19H33.77v5.19c0,1.89,1.18,3.45,3.71,3.45h0c2.53,0,3.71-1.6,3.71-3.45V5.19Z"/><polygon class="cls-1" points="58.01 13.75 50.72 13.75 50.72 12.37 56.01 6.56 50.85 6.56 50.85 5.19 58.01 5.19 58.01 6.49 52.82 12.38 58.01 12.38 58.01 13.75"/><polygon class="cls-1" points="27.34 18.2 27.34 16.34 27.33 16.34 26.76 18.2 26.58 18.2 26.01 16.34 26 16.34 26 18.2 25.8 18.2 25.8 16.17 26.15 16.17 26.67 17.82 26.67 17.82 27.18 16.17 27.54 16.17 27.54 18.2 27.34 18.2"/><rect class="cls-1" x="28.34" y="16.17" width="0.23" height="2.04"/><polygon class="cls-1" points="29.96 16.36 29.96 18.2 29.73 18.2 29.73 16.36 29.13 16.36 29.13 16.17 30.57 16.17 30.57 16.36 29.96 16.36"/><path class="cls-1" d="M32,16.69a.46.46,0,0,0-.48-.36c-.23,0-.38.12-.38.32,0,.44,1.15.33,1.15,1,0,.29-.17.59-.69.59a.75.75,0,0,1-.73-.53l.21-.07a.55.55,0,0,0,.53.41c.3,0,.45-.16.45-.36,0-.52-1.14-.37-1.14-1a.55.55,0,0,1,.61-.53.68.68,0,0,1,.67.5Z"/><path class="cls-1" d="M33.17,16.17v1.44a.49.49,0,0,0,1,0V16.17h.23v1.42a.63.63,0,0,1-.71.64.64.64,0,0,1-.72-.64V16.17Z"/><rect class="cls-1" x="35.17" y="16.17" width="0.23" height="2.04"/><path class="cls-1" d="M38.51,17.6a.71.71,0,0,1-.72.63c-.45,0-.78-.33-.78-1s.29-1.05.78-1.05a.67.67,0,0,1,.69.59l-.21.07c-.07-.29-.2-.47-.5-.47s-.53.27-.53.86.23.85.57.85.43-.23.5-.48Z"/><polygon class="cls-1" points="40.49 16.17 40.49 18.2 40.27 18.2 40.27 17.24 39.29 17.24 39.29 18.2 39.07 18.2 39.07 16.17 39.29 16.17 39.29 17.04 40.27 17.04 40.27 16.17 40.49 16.17"/><polygon class="cls-1" points="42.46 16.17 42.46 16.36 41.47 16.36 41.47 17.04 42.18 17.04 42.18 17.24 41.47 17.24 41.47 18.01 42.52 18.01 42.52 18.2 41.24 18.2 41.24 16.17 42.46 16.17"/><polygon class="cls-1" points="44.64 18.2 44.64 16.34 44.64 16.34 44.07 18.2 43.89 18.2 43.32 16.34 43.31 16.34 43.31 18.2 43.11 18.2 43.11 16.17 43.46 16.17 43.98 17.82 43.98 17.82 44.49 16.17 44.85 16.17 44.85 18.2 44.64 18.2"/><rect class="cls-1" x="45.65" y="16.17" width="0.23" height="2.04"/><path class="cls-1" d="M48,17.6a.71.71,0,0,1-.72.63c-.46,0-.78-.33-.78-1s.29-1.05.78-1.05a.67.67,0,0,1,.69.59l-.21.07c-.07-.29-.2-.47-.51-.47s-.52.27-.52.86.23.85.57.85.43-.23.49-.48Z"/><path class="cls-1" d="M48.79,17.38h.62l-.3-1.05h0Zm-.48.83.62-2h.34l.62,2h-.23l-.2-.64h-.73l-.19.64Z"/><polygon class="cls-1" points="50.41 18.2 50.41 16.17 50.63 16.17 50.63 18.01 51.6 18.01 51.6 18.2 50.41 18.2"/><path class="cls-1" d="M53.07,16.69a.46.46,0,0,0-.47-.36c-.24,0-.38.12-.38.32,0,.44,1.14.33,1.14,1,0,.29-.16.59-.68.59A.74.74,0,0,1,52,17.7l.21-.07a.55.55,0,0,0,.53.41c.3,0,.45-.16.45-.36,0-.52-1.15-.37-1.15-1a.56.56,0,0,1,.62-.53.68.68,0,0,1,.67.5Z"/><path class="cls-1" d="M56.33,17.23v1h-.18V18h0a.65.65,0,0,1-.53.21c-.46,0-.8-.33-.8-1s.34-1.05.8-1.05a.72.72,0,0,1,.73.6l-.21,0c-.11-.32-.27-.45-.51-.45s-.58.21-.58.86.28.85.58.85a.44.44,0,0,0,.49-.45v-.17h-.46v-.19Z"/><path class="cls-1" d="M57.21,17.09h.41c.31,0,.47-.12.47-.37s-.19-.36-.48-.36h-.4ZM57,18.2v-2h.66c.43,0,.67.2.67.54a.53.53,0,0,1-.4.53l.43,1h-.25l-.41-.92h-.47v.92Z"/><path class="cls-1" d="M59.66,18c.36,0,.57-.27.57-.85s-.21-.86-.57-.86-.57.28-.57.86.21.85.57.85m0-1.9c.5,0,.8.37.8,1.05s-.3,1-.8,1-.79-.36-.79-1,.29-1.05.79-1.05"/><path class="cls-1" d="M61.27,16.17v1.44a.49.49,0,0,0,1,0V16.17h.22v1.42a.71.71,0,0,1-1.42,0V16.17Z"/><path class="cls-1" d="M63.43,17.11h.38c.38,0,.5-.13.5-.38s-.14-.37-.45-.37h-.43Zm-.23,1.1v-2h.71a.55.55,0,0,1,.63.57c0,.34-.24.56-.75.56h-.36v.91Z"/><polygon class="cls-1" points="60.88 12.35 60.88 10.25 65.89 10.25 65.89 8.95 60.88 8.95 60.88 6.59 66.29 6.59 66.29 5.19 59.28 5.19 59.28 13.75 60.88 13.75 66.41 13.75 66.41 12.35 60.88 12.35"/><path class="cls-1" d="M73.12,9.94a2.1,2.1,0,0,0,1.56-2.19A2.42,2.42,0,0,0,72,5.19H67.71V6.51h4c.94,0,1.38.43,1.38,1.24S72.66,9,71.38,9H67.71v4.8h1.63v-3.5h2.23l1.62,3.5H75Z"/><rect class="cls-1" x="25.8" y="5.19" width="1.63" height="8.56"/><polygon class="cls-1" points="42.72 13.75 42.72 5.19 44.35 5.19 44.35 12.38 49.57 12.38 49.57 13.75 42.72 13.75"/><polygon class="cls-1" points="29.81 9.4 32.63 5.19 30.88 5.19 28.35 9.02 28.35 9.78 31.36 13.75 33.17 13.75 29.81 9.4"/><path class="cls-2" d="M7.08,16.32a7.08,7.08,0,1,1,7.08-7.08,7.09,7.09,0,0,1-7.08,7.08"/><path class="cls-3" d="M7.07,6.46c-.6,0-1.31-.35-2.05-.35A1.16,1.16,0,0,0,3.7,7a9.84,9.84,0,0,0,.36,5.52c.57,1.36,2-2,3-2s2.54,3.33,3.11,2a9.75,9.75,0,0,0,.24-5.58c-.24-.65-.6-.8-1.34-.8s-1.41.35-2,.35"/></g></g></svg>