<svg id="Capa_1" data-name="Capa 1" xmlns="http://www.w3.org/2000/svg" viewBox="0 0 135 46"><defs><style>.cls-1{fill:#38444e;}</style></defs><path class="cls-1" d="M59.36,32.65h-.28l.15-.57h.27a.33.33,0,0,1,.25.09.2.2,0,0,1,.06.15c0,.21-.18.33-.45.33m.15-.93h-.58l-.49,1.85h.4L59,33h.35c.5,0,.89-.26.89-.72a.55.55,0,0,0-.14-.39.79.79,0,0,0-.58-.18m-1.41,0-.28,1a.82.82,0,0,1-.17.35.41.41,0,0,1-.3.12.29.29,0,0,1-.32-.31.6.6,0,0,1,0-.2l.26-1h-.4l-.25,1a1,1,0,0,0-.05.3.6.6,0,0,0,.69.62.79.79,0,0,0,.62-.23,1.14,1.14,0,0,0,.28-.55l.29-1.1Zm-2.81,1.51a.43.43,0,0,1-.46-.47.68.68,0,0,1,.63-.7.44.44,0,0,1,.47.47.69.69,0,0,1-.64.7m.22-1.55a1.1,1.1,0,0,0-1.1,1.1.8.8,0,0,0,.84.83,1.11,1.11,0,0,0,1.1-1.1.8.8,0,0,0-.84-.83m-1.76.82a.51.51,0,0,1-.37.12H53l.14-.54h.34a.38.38,0,0,1,.27.08.2.2,0,0,1,0,.15.29.29,0,0,1-.07.19m-.23-.78h-.66l-.5,1.85h.41l.15-.59h.3l.29.59H54l-.32-.63a.88.88,0,0,0,.43-.22.66.66,0,0,0,.16-.44.52.52,0,0,0-.14-.38.79.79,0,0,0-.58-.18m-1.94.34a.6.6,0,0,1,.48.21l.3-.27a.92.92,0,0,0-.75-.32,1.14,1.14,0,0,0-1.14,1.12.8.8,0,0,0,.86.81,1.32,1.32,0,0,0,.66-.18l.26-.93h-.8l-.09.36h.41l-.09.3a.74.74,0,0,1-.33.07.43.43,0,0,1-.47-.44.72.72,0,0,1,.7-.73m9.5-2.87h-.4l-.49,1.86H61.5l.1-.37h-.91Zm-1.72.47.08.61H59Zm-.64,1h.77l.06.42H60l-.29-1.87h-.39L58,31.05h.44Zm-1.16.42L58,29.57h.56l.1-.38H57.09l-.1.38h.56l-.39,1.48Zm-2-1.86h-.37l-.49,1.86h.4l.32-1.22L56,31.05h.34l.5-1.86h-.4l-.32,1.18Zm-2.11,1.49.11-.39h.85l.09-.36h-.85l.1-.38h1l.1-.36H53.47L53,31.05h1.38l.1-.37Zm-1-.69a.68.68,0,0,1-.18.46.86.86,0,0,1-.62.23h-.22l.29-1.12h.2a.57.57,0,0,1,.42.13.41.41,0,0,1,.11.3m-1-.8L51,31.05h.68a1.27,1.27,0,0,0,1-.35,1,1,0,0,0,.3-.73.77.77,0,0,0-.2-.54,1,1,0,0,0-.72-.24Zm13.5-5.31v0h0Zm3.29,3.55,1.14-5a.34.34,0,0,0,0-.1.42.42,0,0,0-.42-.43H64.85a.3.3,0,0,0-.28.21.34.34,0,0,0,0,.09l.32,1.41.05.22a.37.37,0,0,0,.38.22h1c.1,0,.22.11.19.22h0l-.34,1.49a.51.51,0,0,1-.33.34,3,3,0,0,1-1.22.24,2.59,2.59,0,0,1-1.12-.24c-1-.5-1.17-1.92-.89-3.14.49-2.13,1.29-3.22,3.23-3.22h3a1,1,0,0,0,.88-.44l.1-.2.64-1.21a.2.2,0,0,0,0-.09.21.21,0,0,0-.22-.21H66.31c-4.11,0-5.52,2.4-6.18,5.36A4.37,4.37,0,0,0,62,27.88a5.48,5.48,0,0,0,2.73.59,7.49,7.49,0,0,0,3-.6.71.71,0,0,0,.43-.44m1.74,1h2a.33.33,0,0,0,.3-.21L74,20.44s0-.05.05-.05a0,0,0,0,1,0,.05l.36,5.6c0,.13.07.21.19.21h2.19a1,1,0,0,0,.6-.22,1.32,1.32,0,0,0,.38-.43l.11-.21,2.48-4.73.11-.2h0s0-.05,0-.05,0,0,0,.05l0,.21L78.86,28l0,.16a.19.19,0,0,0,.2.22h2a.32.32,0,0,0,.3-.22l0-.21,2.27-9.9,0-.21c0-.11-.08-.21-.2-.21H80.17a1.07,1.07,0,0,0-.6.21,1.31,1.31,0,0,0-.38.43l-.09.18-2.3,4.37a.06.06,0,0,1,0,0,.07.07,0,0,1-.06-.07l-.27-4.08,0-.24a.81.81,0,0,0-.23-.56,1.08,1.08,0,0,0-.8-.28h-3a.28.28,0,0,0-.26.21l0,.22L69.77,28.18a.19.19,0,0,0,.2.22m-.48-15.62h.18a.21.21,0,0,0,.21-.17.13.13,0,0,0-.13-.16h-.2c-.67,0-1.34,0-2,0-12.86,0-23.29,4.7-23.31,10.55,0,2,1.17,3.81,3.22,5.4l0,0a.09.09,0,0,0,.07,0,.17.17,0,0,0,.15-.13.12.12,0,0,0,0-.1l-.06-.05A5.41,5.41,0,0,1,45.81,23c1.27-5.59,11.84-10.11,23.68-10.17M57.94,23.85Zm2.71-5.93a.2.2,0,0,0,0-.09.21.21,0,0,0-.22-.21h-.21l-5.66,0h-.3a.57.57,0,0,0-.53.43l-2.27,9.9,0,.21a.19.19,0,0,0,.2.22h1.95a.33.33,0,0,0,.3-.21v-.08l.88-3.83a.28.28,0,0,1,.25-.18h2.47a.54.54,0,0,0,.45-.22l.12-.23.73-1.4a.24.24,0,0,0,0-.09.21.21,0,0,0-.21-.21H55.52a.16.16,0,0,1-.16-.22v0l.39-1.7a.26.26,0,0,1,.25-.2h3a1,1,0,0,0,.88-.43l.1-.2Zm26.92-.29,0,0a.09.09,0,0,0-.07,0,.16.16,0,0,0-.15.12.13.13,0,0,0,0,.11l.06.05A5.41,5.41,0,0,1,89.19,23c-1.27,5.59-11.84,10.11-23.68,10.17h-.19a.22.22,0,0,0-.2.17.13.13,0,0,0,.13.17h.2c.67,0,1.34,0,2,0,12.86,0,23.29-4.69,23.31-10.55,0-2-1.17-3.81-3.22-5.39"/></svg>