<svg id="Capa_1" data-name="Capa 1" xmlns="http://www.w3.org/2000/svg" viewBox="0 0 135 46"><defs><style>.cls-1{fill:#171915;}.cls-2{fill:#fff;}.cls-3{fill:#51b054;}</style></defs><path class="cls-1" d="M97.91,34.26a9.16,9.16,0,0,1-2.79-.5A1.72,1.72,0,0,1,94,32.43a1.37,1.37,0,0,1,.37-1.1,5.15,5.15,0,0,1,3.52-1v.79a2.15,2.15,0,0,0-.68.1.89.89,0,0,0-.58.74c0,.52,0,1.09.49,1.34a2.12,2.12,0,0,0,.77.17Zm3-.54a7.07,7.07,0,0,1-3,.54v-.77a1.52,1.52,0,0,0,1-.33,1.52,1.52,0,0,0,0-1.64,1.27,1.27,0,0,0-1-.38v-.79h.77c1.22.16,2.74.35,3.12,1.8a1.63,1.63,0,0,1-.87,1.57"/><path class="cls-1" d="M59.16,31.26V33c.3.44,1,.23,1.56.26v.82c-1.35,0-2.78.26-3.65-.29a.75.75,0,0,1-.33-.48v-2s-1.22,0-1.22,0v-.91h1.22v-.56l2.41-.51v1.07h1.57v.87Z"/><path class="cls-1" d="M92.9,34.17s-2.44,0-2.44,0V32.08a1.17,1.17,0,0,0-.45-.75,2.68,2.68,0,0,0-1.38.05.9.9,0,0,0-.35.77v2H85.84V31.38c0-.31,0-.64-.09-.94h2.44l0,.59a4.51,4.51,0,0,1,4.22-.15c.86.8.3,2.19.47,3.29"/><path class="cls-1" d="M82,34.09a16.08,16.08,0,0,0-.1-2.53c-.35-.4-1-.32-1.52-.23a.7.7,0,0,0-.47.38,21.75,21.75,0,0,0-.09,2.39H77.41V28.84h2.43v2a3.12,3.12,0,0,1,1-.37,4.59,4.59,0,0,1,3.1.31,1.58,1.58,0,0,1,.56,1v2.24Z"/><path class="cls-1" d="M73.85,31.68a.65.65,0,0,0-.5-.59,1.42,1.42,0,0,0-1.26.24,1.66,1.66,0,0,0-.17,1.6c.17.44.64.48,1,.53a1,1,0,0,0,.74-.3.56.56,0,0,0,.15-.43h2.41a.83.83,0,0,1-.35.71c-1.19.91-3,.84-4.41.66a3.07,3.07,0,0,1-2.11-1.22,1.77,1.77,0,0,1,.07-1.41c1.2-1.43,3.33-1.26,5.09-1a2.1,2.1,0,0,1,1.74,1.27Z"/><path class="cls-1" d="M46.85,31.47c-.82,0-1.85,0-2.27.82,0,.56,0,1.8,0,1.76H42.15c0-1.24.06-2.53-.08-3.7l2.4,0v.78a3.14,3.14,0,0,1,2.38-.82v1.12Z"/><path class="cls-1" d="M37,34.09a4.53,4.53,0,0,1-1.19-.42v1.78H33.31V31.09c0-.3-.09-.56-.12-.79l2.51,0v.52A3.72,3.72,0,0,1,37,30.37v.72a1.27,1.27,0,0,0-1.08.47A1.37,1.37,0,0,0,36.08,33a1.29,1.29,0,0,0,.91.28Zm2.91-.37a4.61,4.61,0,0,1-2.91.37V33.3a1.92,1.92,0,0,0,.72-.14c.66-.26.52-1,.34-1.6a1,1,0,0,0-.82-.47H37v-.72a5.14,5.14,0,0,1,3,.37,1.7,1.7,0,0,1-.09,3"/><path class="cls-1" d="M51.19,34.17A7.47,7.47,0,0,1,48,33.53,1.64,1.64,0,0,1,47.37,32c.61-1.59,2.27-1.64,3.82-1.66V31a1.33,1.33,0,0,0-1,.35A1.92,1.92,0,0,0,50,32.59c.11.26.19.55.49.64a1.74,1.74,0,0,0,.75.16Zm3-.59a7.27,7.27,0,0,1-3,.59v-.78a1.69,1.69,0,0,0,1-.32,1.54,1.54,0,0,0,.14-1.39c0-.3-.31-.47-.56-.56s-.38-.07-.59-.09v-.71l.86,0c1.15.14,2.66.35,3,1.68a1.63,1.63,0,0,1-.82,1.6"/><path class="cls-1" d="M63.86,32.55a.54.54,0,0,0,0,.47,1.33,1.33,0,0,0,1.12.46v.71a5,5,0,0,1-2.9-.73,1.62,1.62,0,0,1-.49-1.64c.51-1.4,2-1.48,3.39-1.52V31a1.55,1.55,0,0,0-1,.33c-.13.14-.25.28-.18.44H65v.77ZM65,30.3h0c1.24.05,2.58.05,3.25,1.22a1.82,1.82,0,0,1,.2,1H65v-.77l1.15,0v-.19a.75.75,0,0,0-.44-.49A2.46,2.46,0,0,0,65,31Zm0,3.18a5.85,5.85,0,0,0,.59,0,.8.8,0,0,0,.64-.51h2.2c-.21.68-.94.91-1.5,1.09a14.89,14.89,0,0,1-1.93.17Z"/><path class="cls-1" d="M77.38,23.18a53.87,53.87,0,0,1-16,3.23,1.92,1.92,0,0,1-1.57-1.06c-.64-2.43-3.44-2.08-5-3.49-1.29-.91-2.37-2.29-2-3.93s2.06-2.69,3.44-3.28c2-.84,3.66-1.34,5.53-2a77.74,77.74,0,0,1,11.89-2.15,1.9,1.9,0,0,1,1.56,1.12c.34,2.69,3.35,2.28,4.93,3.71a4.27,4.27,0,0,1,2.17,2.9c0,2.67-2.9,4-4.92,4.9"/><path class="cls-2" d="M67.75,21.74a6,6,0,0,1-1.92-.67v3H61.64s0-5,0-5-2.2,0-3.19,0V18.4h3.21s0-2.81,0-2.81h3.87a5.61,5.61,0,0,1,0,.82,10,10,0,0,1,2.22-.78v1.22a2,2,0,0,0-1.66.65A2.55,2.55,0,0,0,66,19.66a1.58,1.58,0,0,0,1,.73,4.12,4.12,0,0,0,.7.05ZM74,19.08a3.11,3.11,0,0,1-2.29,2.39,8.74,8.74,0,0,1-3.92.27v-1.3a2.23,2.23,0,0,0,1.62-.57,2.06,2.06,0,0,0,.31-1.43A1.68,1.68,0,0,0,68.81,17a3.73,3.73,0,0,0-1.06-.17V15.63a1.45,1.45,0,0,1,.29,0c2.08-.17,4.28-.05,5.55,1.64A3.28,3.28,0,0,1,74,18.35h3.8a5.57,5.57,0,0,0,0,.73Z"/><path class="cls-3" d="M67.15,21.21a6.51,6.51,0,0,1-1.92-.66V23.5H61.05V18.56s-2.2,0-3.19,0v-.65h3.22s0-2.81,0-2.81h3.86a6.93,6.93,0,0,1,0,.79,11.12,11.12,0,0,1,2.21-.79v1.22a2.19,2.19,0,0,0-1.65.65,2.52,2.52,0,0,0-.09,2.16,1.43,1.43,0,0,0,1.06.73,2.67,2.67,0,0,0,.68.07Zm6.23-2.68A3.15,3.15,0,0,1,71.1,21a8.74,8.74,0,0,1-3.95.26V19.9a2.19,2.19,0,0,0,1.63-.55,2.4,2.4,0,0,0,.33-1.47,1.66,1.66,0,0,0-.89-1.41,3.29,3.29,0,0,0-1.07-.18V15.07l.32,0c2.07-.14,4.27,0,5.53,1.67a2.86,2.86,0,0,1,.38,1.12l3.79,0a4.36,4.36,0,0,0,0,.74Z"/></svg>