<svg xmlns="http://www.w3.org/2000/svg" viewBox="0 0 49.07 29.39"><defs><style>.cls-1{fill:#086eb0;}.cls-2{fill:#fff;}</style></defs><g id="Capa_2" data-name="Capa 2"><g id="Capa_1-2" data-name="Capa 1"><path class="cls-1" d="M47,11.47C47,17.8,37,22.93,24.56,22.93S2.1,17.8,2.1,11.47,12.16,0,24.56,0,47,5.13,47,11.47"/><polygon class="cls-2" points="15.56 15.92 41.22 15.92 42.01 14.33 41.83 14.33 30.82 14.33 10.33 14.33 10.39 14.02 14.16 4.68 10.64 4.68 6.27 15.83 6.21 15.92 6.88 15.92 15.56 15.92"/><path class="cls-2" d="M28.06,13.37h2.33l1.36-3.28a.93.93,0,0,1,.68-.58l.65-.25s.53-.08.26.4l-1.46,3.63v.11h2.57L36.1,9s.41-1.33-.66-1.37A3.23,3.23,0,0,0,34,7.87l-1.3.6-.31.06.37-.89H30.31L27.9,13.37Z"/><path class="cls-2" d="M15.87,10.06l.05-.13.52-1.07s-.11-.12.44-.1H18s.14,0,.05.27l-.5,1.06-.1.1a.49.49,0,0,1-.21.08h-1.3a.27.27,0,0,1-.06-.21m-3.16,2.19a1,1,0,0,0,.88,1.18h5.12l.12-.27a1.54,1.54,0,0,0,.19-.7H15.19c-.38-.49.29-1.05.29-1.05H19c.63,0,.67-.42.67-.42l.7-2c.29-1.4-1.15-1.26-1.15-1.26H15.86a1.66,1.66,0,0,0-1.61.7l-1.47,3.53Z"/><path class="cls-2" d="M22.9,12.07,24.14,9s.06-.22.43-.2h1s.18,0,0,.32l-1.26,3.07s0,.2-.34.2H23s-.14-.05-.15-.17l0-.08Zm-1.64,1.36H25a1.59,1.59,0,0,0,1.7-1L28.2,8.83a.94.94,0,0,0-.93-1.14h-4a1.63,1.63,0,0,0-1.3.87l-1.49,3.56a1,1,0,0,0,.81,1.31"/><path class="cls-2" d="M39.39,10l0-.13L40,8.82s-.11-.12.44-.1h1.12s.13,0,0,.27l-.5,1.06-.09.1a.56.56,0,0,1-.22.08h-1.3a.27.27,0,0,1-.06-.21M37.11,13.4h5.12l.12-.27a1.54,1.54,0,0,0,.19-.7H38.71c-.38-.49.29-1,.29-1h3.56c.62,0,.66-.43.66-.43l.7-2c.29-1.4-1.15-1.26-1.15-1.26H39.38a1.67,1.67,0,0,0-1.61.7L36.31,11.9l-.08.31a1,1,0,0,0,.88,1.19"/><path class="cls-1" d="M.89,26.75a.68.68,0,0,0-.2.5.65.65,0,0,0,.2.47.73.73,0,0,0,.52.21.7.7,0,0,0,.51-.2.71.71,0,0,0,.21-.49.68.68,0,0,0-.21-.49.73.73,0,0,0-.51-.2.72.72,0,0,0-.52.2m1.52,1.44a1.43,1.43,0,0,1-1,.38,1.46,1.46,0,0,1-1-.38,1.34,1.34,0,0,1,0-1.91,1.46,1.46,0,0,1,1-.38,1.43,1.43,0,0,1,1,.38,1.34,1.34,0,0,1,0,1.91"/><path class="cls-1" d="M3.18,26.8h.61v.28A.61.61,0,0,1,4,26.84a.66.66,0,0,1,.32-.07h.12v.58a.47.47,0,0,0-.26-.06.41.41,0,0,0-.28.09.52.52,0,0,0-.14.39v.73H3.18Z"/><polygon class="cls-1" points="5.48 27.3 5.48 28.51 4.87 28.51 4.87 27.3 4.67 27.3 4.67 26.8 4.87 26.8 4.87 26.24 5.48 26.24 5.48 26.8 5.83 26.8 5.83 27.3 5.48 27.3"/><path class="cls-1" d="M6.74,27.38a.37.37,0,0,0-.12.27.4.4,0,0,0,.12.28A.39.39,0,0,0,7,28a.38.38,0,0,0,.39-.39.4.4,0,0,0-.11-.27.38.38,0,0,0-.55,0m1,.91a1,1,0,0,1-.77.28,1,1,0,0,1-.76-.28A.87.87,0,0,1,6,27.65.82.82,0,0,1,6.25,27,1.05,1.05,0,0,1,7,26.74a1.08,1.08,0,0,1,.77.29.86.86,0,0,1,.26.62.91.91,0,0,1-.26.64"/><path class="cls-1" d="M9.6,28a.4.4,0,0,0,0-.57.38.38,0,0,0-.28-.12.35.35,0,0,0-.27.12.37.37,0,0,0,0,.55.35.35,0,0,0,.27.12A.43.43,0,0,0,9.6,28m.73.56H9.72v-.19a.62.62,0,0,1-.52.25.8.8,0,0,1-.6-.24,1,1,0,0,1-.28-.68A1,1,0,0,1,8.6,27a.9.9,0,0,1,.61-.23.7.7,0,0,1,.51.23V25.72h.61Z"/><path class="cls-1" d="M11.43,27.38a.42.42,0,0,0-.12.27.4.4,0,0,0,.12.28.41.41,0,0,0,.28.11.39.39,0,0,0,.27-.11.39.39,0,0,0,.12-.28.37.37,0,0,0-.12-.27.38.38,0,0,0-.55,0m1,.91a1.19,1.19,0,0,1-1.53,0,.91.91,0,0,1-.26-.64.86.86,0,0,1,.26-.62,1.15,1.15,0,0,1,1.53,0,.86.86,0,0,1,.26.62.87.87,0,0,1-.26.64"/><path class="cls-1" d="M13.08,26.8h.62V27a.62.62,0,0,1,.54-.26.68.68,0,0,1,.5.19.56.56,0,0,1,.16.47v1.09h-.61v-.86a.51.51,0,0,0-.07-.34.27.27,0,0,0-.2-.07.31.31,0,0,0-.32.35v.92h-.62Z"/><path class="cls-1" d="M16.61,28.47a.88.88,0,0,1-.42.1.93.93,0,0,1-.67-.26.92.92,0,0,1-.27-.64,1,1,0,0,1,.28-.66,1,1,0,0,1,.69-.26.93.93,0,0,1,.39.09v.52a.5.5,0,0,0-.31-.11.4.4,0,0,0-.3.11.41.41,0,0,0-.12.3A.44.44,0,0,0,16,28a.39.39,0,0,0,.31.13.44.44,0,0,0,.31-.12Z"/><path class="cls-1" d="M17.57,28.51H17V26.8h.61Zm-.3-2.76a.34.34,0,1,1-.34.34.34.34,0,0,1,.34-.34"/><path class="cls-1" d="M18.67,27.38a.41.41,0,0,0-.12.27.41.41,0,0,0,.39.4.39.39,0,0,0,.28-.12.39.39,0,0,0,.11-.28.37.37,0,0,0-.11-.27.38.38,0,0,0-.55,0m.64-.58h.62v1.71h-.62v-.19a.62.62,0,0,1-.53.25.79.79,0,0,1-.61-.27.85.85,0,0,1-.25-.63.92.92,0,0,1,.27-.68.85.85,0,0,1,.61-.25.66.66,0,0,1,.51.23Z"/><path class="cls-1" d="M22.49,27.42a.44.44,0,0,0-.1-.19.35.35,0,0,0-.25-.09.33.33,0,0,0-.25.09.38.38,0,0,0-.09.19Zm.56.35H21.78a.46.46,0,0,0,.1.29.41.41,0,0,0,.26.08.42.42,0,0,0,.2-.05.27.27,0,0,0,.1-.11H23a.74.74,0,0,1-.21.35.91.91,0,0,1-.69.24,1,1,0,0,1-.71-.26.9.9,0,0,1-.25-.65.92.92,0,0,1,.25-.66,1,1,0,0,1,.7-.25.91.91,0,0,1,.66.24.93.93,0,0,1,.27.71Z"/><rect class="cls-1" x="24.35" y="25.96" width="0.66" height="2.55"/><path class="cls-1" d="M25.49,26.8h.61V27a.67.67,0,0,1,.52-.24.73.73,0,0,1,.33.08.52.52,0,0,1,.23.24.58.58,0,0,1,.24-.23.68.68,0,0,1,.35-.09.69.69,0,0,1,.48.16.64.64,0,0,1,.16.47v1.11h-.62v-.84a.56.56,0,0,0-.08-.37.24.24,0,0,0-.16-.06.24.24,0,0,0-.18.07.42.42,0,0,0-.12.32v.88h-.61v-.84a.54.54,0,0,0-.08-.37.22.22,0,0,0-.18-.07.21.21,0,0,0-.17.06.5.5,0,0,0-.11.38v.84h-.61Z"/><path class="cls-1" d="M29.54,27.38a.46.46,0,0,0-.12.28.42.42,0,0,0,.12.27.36.36,0,0,0,.28.12.36.36,0,0,0,.27-.12.4.4,0,0,0,.12-.27.41.41,0,0,0-.12-.28.4.4,0,0,0-.27-.12.4.4,0,0,0-.28.12m-.1,2h-.61V26.8h.61V27a.66.66,0,0,1,.53-.25.86.86,0,0,1,.6.25.89.89,0,0,1,.26.66.94.94,0,0,1-.27.68.81.81,0,0,1-.59.24.72.72,0,0,1-.53-.22Z"/><rect class="cls-1" x="31.19" y="25.72" width="0.61" height="2.79"/><path class="cls-1" d="M32.9,27.38a.38.38,0,0,0-.13.27.41.41,0,0,0,.4.4.36.36,0,0,0,.27-.12.35.35,0,0,0,.12-.28.34.34,0,0,0-.12-.27.39.39,0,0,0-.28-.12.36.36,0,0,0-.26.12m.64-.58h.61v1.71h-.61v-.19a.62.62,0,0,1-.53.25.81.81,0,0,1-.62-.27.88.88,0,0,1-.24-.63.91.91,0,0,1,.26-.68.88.88,0,0,1,.62-.25.68.68,0,0,1,.51.23Z"/><path class="cls-1" d="M34.57,26.8h.61V27a.64.64,0,0,1,.55-.26.7.7,0,0,1,.5.19.56.56,0,0,1,.16.47v1.09h-.61v-.86a.52.52,0,0,0-.08-.34.24.24,0,0,0-.19-.07.37.37,0,0,0-.23.08.41.41,0,0,0-.1.27v.92h-.61Z"/><polygon class="cls-1" points="37.49 27.3 37.49 28.51 36.88 28.51 36.88 27.3 36.68 27.3 36.68 26.8 36.88 26.8 36.88 26.24 37.49 26.24 37.49 26.8 37.83 26.8 37.83 27.3 37.49 27.3"/><path class="cls-1" d="M38.75,27.38a.37.37,0,0,0-.12.27.4.4,0,0,0,.12.28A.39.39,0,0,0,39,28a.38.38,0,0,0,.39-.39.4.4,0,0,0-.11-.27.42.42,0,0,0-.28-.12.4.4,0,0,0-.27.12m1,.91a1,1,0,0,1-.76.28,1,1,0,0,1-.76-.28.87.87,0,0,1-.26-.64.82.82,0,0,1,.26-.62,1.05,1.05,0,0,1,.76-.29,1,1,0,0,1,.76.29.82.82,0,0,1,.27.62.88.88,0,0,1-.27.64"/><rect class="cls-1" x="40.4" y="25.72" width="0.61" height="2.79"/><path class="cls-1" d="M42.11,27.38a.4.4,0,0,0-.11.27.44.44,0,0,0,.11.28.43.43,0,0,0,.28.11.39.39,0,0,0,.27-.11.39.39,0,0,0,.12-.28.37.37,0,0,0-.12-.27.38.38,0,0,0-.55,0m1,.91a1,1,0,0,1-.76.28,1.06,1.06,0,0,1-.77-.28.91.91,0,0,1-.26-.64.86.86,0,0,1,.26-.62,1.08,1.08,0,0,1,.77-.29,1.05,1.05,0,0,1,.76.29.82.82,0,0,1,.26.62.87.87,0,0,1-.26.64"/><path class="cls-1" d="M44.44,27.38a.43.43,0,0,0-.12.27.44.44,0,0,0,.12.28.4.4,0,0,0,.28.11.4.4,0,0,0,.27-.11.41.41,0,0,0,.12-.28.44.44,0,0,0-.12-.28.39.39,0,0,0-.28-.11.37.37,0,0,0-.27.12m1.25-.58v1.6a.91.91,0,0,1-.23.71,1.18,1.18,0,0,1-1.56,0,.57.57,0,0,1-.18-.35h.68a.25.25,0,0,0,.28.18.37.37,0,0,0,.28-.1.43.43,0,0,0,.12-.32v-.17a.67.67,0,0,1-.51.23.91.91,0,0,1-.64-.24.94.94,0,0,1-.23-.63A1,1,0,0,1,44,27a.85.85,0,0,1,.62-.26.65.65,0,0,1,.51.23V26.8Z"/><path class="cls-1" d="M47,26l-.59.52-.28-.21.49-.59Zm-.29,2.51H46.1V26.8h.62Z"/><path class="cls-1" d="M47.81,27.38a.41.41,0,0,0-.12.27.41.41,0,0,0,.39.4.39.39,0,0,0,.28-.12.39.39,0,0,0,.11-.28.37.37,0,0,0-.11-.27.38.38,0,0,0-.55,0m.65-.58h.61v1.71h-.61v-.19a.65.65,0,0,1-.54.25.79.79,0,0,1-.61-.27.85.85,0,0,1-.25-.63.92.92,0,0,1,.27-.68.85.85,0,0,1,.61-.25.7.7,0,0,1,.52.23Z"/><path class="cls-1" d="M46.22,5.21l-.15,0H46v.29h.1a.29.29,0,0,0,.14,0,.17.17,0,0,0,0-.12.13.13,0,0,0-.08-.12M45.75,6V5h.48a.53.53,0,0,1,.19.06.23.23,0,0,1,.13.23c0,.09,0,.15-.07.18a.29.29,0,0,1-.17.07.23.23,0,0,1,.14.06.27.27,0,0,1,.09.22V6h-.25a.57.57,0,0,1,0-.14.71.71,0,0,0,0-.12.14.14,0,0,0-.07-.08H46V6Zm-.14-1a.72.72,0,0,0-.21.52.71.71,0,0,0,.22.53.73.73,0,0,0,.52.22.74.74,0,0,0,.52-.22.76.76,0,0,0,.21-.53A.73.73,0,0,0,46.66,5a.7.7,0,0,0-.52-.23.72.72,0,0,0-.53.23m1.15,1.16a.91.91,0,0,1-1.26,0,.86.86,0,0,1-.26-.63.91.91,0,0,1,.28-.66.89.89,0,0,1,.62-.24.88.88,0,0,1,.63.26.91.91,0,0,1,0,1.28"/></g></g></svg>