<svg id="Capa_1" data-name="Capa 1" xmlns="http://www.w3.org/2000/svg" viewBox="0 0 135 46"><defs><style>.cls-1{fill:#99a4ab;}.cls-2{fill:#b2a7a5;}.cls-3{fill:#931340;}.cls-4{fill:#dfdcd9;}</style></defs><polygon class="cls-1" points="40.94 28.45 41.36 28.45 43.17 35.21 43.19 35.21 44.99 28.45 45.42 28.45 43.44 35.7 42.91 35.7 40.94 28.45"/><polygon class="cls-1" points="46.05 28.45 49.51 28.45 49.51 28.84 46.47 28.84 46.47 31.73 49.3 31.73 49.3 32.12 46.47 32.12 46.47 35.31 49.6 35.31 49.6 35.7 46.05 35.7 46.05 28.45"/><path class="cls-1" d="M52.15,32a1.49,1.49,0,0,0,1.71-1.64,1.38,1.38,0,0,0-1.43-1.55H50.79V32Zm-1.78-3.54h2.12a1.69,1.69,0,0,1,1.79,1.9,1.63,1.63,0,0,1-1.45,1.79v0c1.19.08,1.4.81,1.4,1.8v.76a1.58,1.58,0,0,0,.25,1H54a2.22,2.22,0,0,1-.18-1V34c0-1-.29-1.63-1.45-1.63H50.79v3.35h-.42Z"/><polygon class="cls-1" points="56.59 28.84 54.66 28.84 54.66 28.45 58.94 28.45 58.94 28.84 57.01 28.84 57.01 35.69 56.59 35.69 56.59 28.84"/><polygon class="cls-1" points="61 32.71 59.02 28.45 59.49 28.45 61.21 32.27 62.98 28.45 63.4 28.45 61.42 32.71 61.42 35.7 61 35.7 61 32.71"/><path class="cls-1" d="M64.24,33.84a1.55,1.55,0,0,0,1.65,1.63,1.6,1.6,0,0,0,1.67-1.64c0-.95-.51-1.27-1.32-1.55L65.42,32c-1-.32-1.47-.79-1.47-1.77a1.8,1.8,0,0,1,1.94-1.89,1.75,1.75,0,0,1,1.93,2H67.4c0-1-.45-1.62-1.47-1.62a1.48,1.48,0,0,0-.49,2.9l1.07.37c.94.33,1.48.78,1.48,1.85a2,2,0,0,1-2.1,2,1.85,1.85,0,0,1-2.07-1.88v-.48h.42Z"/><polygon class="cls-1" points="70.38 32.71 68.4 28.45 68.87 28.45 70.59 32.27 72.36 28.45 72.78 28.45 70.81 32.71 70.81 35.7 70.38 35.7 70.38 32.71"/><path class="cls-1" d="M73.62,33.84a1.55,1.55,0,0,0,1.65,1.63,1.6,1.6,0,0,0,1.67-1.64c0-.95-.51-1.27-1.32-1.55L74.8,32c-1-.32-1.47-.79-1.47-1.77a1.8,1.8,0,0,1,1.94-1.89,1.74,1.74,0,0,1,1.93,2h-.42c0-1-.45-1.62-1.47-1.62a1.38,1.38,0,0,0-1.55,1.5,1.36,1.36,0,0,0,1.06,1.4L75.9,32c.93.33,1.47.78,1.47,1.85a2,2,0,0,1-2.1,2,1.85,1.85,0,0,1-2.07-1.88v-.48h.42Z"/><polygon class="cls-1" points="79.67 28.84 77.74 28.84 77.74 28.45 82.02 28.45 82.02 28.84 80.09 28.84 80.09 35.69 79.67 35.69 79.67 28.84"/><polygon class="cls-1" points="82.66 28.45 86.12 28.45 86.12 28.84 83.09 28.84 83.09 31.73 85.92 31.73 85.92 32.12 83.09 32.12 83.09 35.31 86.21 35.31 86.21 35.7 82.66 35.7 82.66 28.45"/><polygon class="cls-1" points="91.96 29 91.94 29 89.86 35.7 89.44 35.7 87.36 29 87.34 29 87.34 35.7 86.91 35.7 86.91 28.45 87.6 28.45 89.66 34.97 89.68 34.97 91.69 28.45 92.39 28.45 92.39 35.7 91.96 35.7 91.96 29"/><path class="cls-2" d="M93.37,28.7h.25c.15,0,.26-.05.26-.18s-.1-.2-.24-.2h-.27Zm-.09-.45h.37q.33,0,.33.27c0,.17-.12.24-.26.26l.29.44h-.1l-.29-.44h-.25v.44h-.09Zm.31,1.23a.74.74,0,1,0-.74-.74.74.74,0,0,0,.74.74m0-1.57a.83.83,0,1,1-.83.83.83.83,0,0,1,.83-.83"/><rect class="cls-2" x="81.36" y="12.37" width="8.5" height="13.14"/><path class="cls-1" d="M68.24,19.62a1,1,0,0,1-1.43,0,1,1,0,0,1,0-1.44,1,1,0,1,1,1.43,1.44m5.67,5.21a8.7,8.7,0,0,0,0-11.86l-3.56,3.55-.45-.45,3.56-3.55a8.72,8.72,0,0,0-11.87,0l3.54,3.53-.45.45L61.14,13a8.72,8.72,0,0,0,0,11.86l3.56-3.55.45.45-3.56,3.55a8.72,8.72,0,0,0,11.87,0l-3.53-3.53.45-.45Z"/><path class="cls-3" d="M49.81,25.51H48.7l-4.13-12h.89L49.23,24.7h.05l3.77-11.18h.89ZM49.3,10.2A8.72,8.72,0,1,0,58,18.92,8.71,8.71,0,0,0,49.3,10.2"/><path class="cls-4" d="M85.66,25.31c-3.33,0-4.12-2-4.12-3.2v-.82h.85v.64c0,1.58,1.19,2.79,3.27,2.79S89,23.49,89,21.92s-1-2.17-2.63-2.66l-1.64-.48c-1.9-.56-2.93-1.36-2.93-3,0-2,1.6-3.22,3.86-3.22,2.67,0,3.87,1.3,3.87,3.36h-.85c0-1.66-.89-2.77-2.93-2.77-1.62,0-3.1.64-3.1,2.56,0,1.37.87,2,2.13,2.4l2.14.64c1.86.55,2.93,1.33,2.93,3.15,0,2.21-1.9,3.45-4.19,3.45m0-15.13a8.72,8.72,0,1,0,8.72,8.72,8.72,8.72,0,0,0-8.72-8.72"/></svg>