<?xml version="1.0" encoding="utf-8"?>
<!-- Generator: Adobe Illustrator 25.4.1, SVG Export Plug-In . SVG Version: 6.00 Build 0)  -->
<svg version="1.1" id="Capa_1" xmlns="http://www.w3.org/2000/svg" xmlns:xlink="http://www.w3.org/1999/xlink" x="0px" y="0px"
	 viewBox="0 0 135 46" style="enable-background:new 0 0 135 46;" xml:space="preserve">
<style type="text/css">
	.st0{fill:#FFED00;}
</style>
<path class="st0" d="M56,36.7h-0.4l0.2-0.8h0.4c0.2,0,0.3,0,0.4,0.1c0.1,0.1,0.1,0.1,0.1,0.2C56.6,36.5,56.4,36.7,56,36.7
	 M56.2,35.3h-0.8L54.7,38h0.6l0.2-0.8H56c0.7,0,1.3-0.4,1.3-1c0-0.2-0.1-0.4-0.2-0.5C56.8,35.4,56.6,35.3,56.2,35.3 M54.2,35.3
	l-0.4,1.5c-0.1,0.2-0.1,0.4-0.3,0.5c-0.1,0.1-0.3,0.2-0.4,0.2c-0.3,0-0.5-0.2-0.5-0.4c0-0.1,0-0.2,0-0.3l0.4-1.4h-0.6l-0.4,1.4
	c0,0.1-0.1,0.3-0.1,0.4c0,0.6,0.4,0.9,1,0.9c0.4,0,0.7-0.1,0.9-0.3c0.2-0.2,0.3-0.4,0.4-0.8l0.4-1.6H54.2z M50.3,37.5
	c-0.4,0-0.7-0.3-0.7-0.7c0-0.5,0.4-1,0.9-1c0.4,0,0.7,0.3,0.7,0.7C51.2,36.9,50.8,37.5,50.3,37.5 M50.6,35.3c-0.9,0-1.6,0.8-1.6,1.6
	c0,0.7,0.5,1.2,1.2,1.2c0.9,0,1.6-0.8,1.6-1.6C51.7,35.8,51.3,35.3,50.6,35.3 M48.1,36.4c-0.1,0.1-0.3,0.2-0.5,0.2H47l0.2-0.8h0.5
	c0.2,0,0.3,0,0.4,0.1c0.1,0.1,0.1,0.1,0.1,0.2C48.2,36.3,48.1,36.4,48.1,36.4 M47.8,35.3h-0.9L46.1,38h0.6l0.2-0.8h0.4l0.4,0.8h0.6
	l-0.4-0.9c0.3-0.1,0.5-0.2,0.6-0.3c0.2-0.2,0.2-0.4,0.2-0.6c0-0.2-0.1-0.4-0.2-0.5C48.4,35.4,48.1,35.3,47.8,35.3 M45,35.8
	c0.3,0,0.5,0.1,0.7,0.3l0.4-0.4c-0.2-0.2-0.5-0.5-1.1-0.5c-0.9,0-1.6,0.8-1.6,1.6c0,0.8,0.6,1.1,1.2,1.1c0.4,0,0.7-0.1,0.9-0.2
	l0.4-1.3h-1.1l-0.1,0.5h0.6l-0.1,0.4c-0.1,0.1-0.3,0.1-0.5,0.1c-0.4,0-0.7-0.2-0.7-0.6C44,36.3,44.5,35.8,45,35.8 M58.4,31.8h-0.6
	l-0.7,2.6H59l0.1-0.5h-1.3L58.4,31.8z M56,32.4l0.1,0.9h-0.7L56,32.4z M55.1,33.8h1.1l0.1,0.6h0.6l-0.4-2.6h-0.5l-1.8,2.6h0.6
	L55.1,33.8z M53.5,34.4l0.6-2.1h0.8l0.1-0.5h-2.1l-0.1,0.5h0.8l-0.6,2.1H53.5z M50.7,31.8h-0.5l-0.7,2.6H50l0.5-1.7l0.8,1.7h0.5
	l0.7-2.6h-0.6l-0.4,1.7L50.7,31.8z M47.7,33.9l0.1-0.6H49l0.1-0.5H48l0.1-0.5h1.4l0.1-0.5h-1.9L47,34.4h2l0.1-0.5H47.7z M46.3,32.9
	c0,0.3-0.1,0.5-0.3,0.7c-0.2,0.2-0.5,0.3-0.9,0.3h-0.3l0.4-1.6h0.3c0.3,0,0.5,0.1,0.6,0.2C46.2,32.6,46.3,32.7,46.3,32.9 M44.8,31.8
	l-0.7,2.6h1c0.6,0,1-0.2,1.4-0.5c0.3-0.3,0.4-0.6,0.4-1c0-0.3-0.1-0.6-0.3-0.8c-0.2-0.2-0.5-0.3-1-0.3H44.8z M63.9,24.3L63.9,24.3
	C63.9,24.2,63.9,24.2,63.9,24.3L63.9,24.3z M68.5,29.3l1.6-7c0,0,0-0.1,0-0.1c0-0.3-0.3-0.6-0.6-0.6l-1,0l-4.5,0l-0.4,0
	c-0.2,0-0.3,0.1-0.4,0.3c0,0,0,0.1,0,0.1l0.5,2l0.1,0.3c0.1,0.2,0.3,0.3,0.5,0.3h0.4l0.7,0l0.3,0c0.1,0,0.3,0.1,0.3,0.3c0,0,0,0,0,0
	L65.6,27c-0.1,0.2-0.2,0.4-0.5,0.5c-0.5,0.2-1.1,0.3-1.7,0.3c-0.6,0-1.2-0.1-1.6-0.3c-1.4-0.7-1.7-2.7-1.3-4.4
	c0.7-3,1.8-4.6,4.6-4.5l0.7,0l2.1,0l1.4,0c0.5,0,1-0.2,1.2-0.6l0.1-0.3l0.9-1.7c0,0,0-0.1,0-0.1c0-0.2-0.1-0.3-0.3-0.3l-0.3,0
	l-4.8,0l-0.4,0c-5.8,0-7.8,3.4-8.7,7.6c-0.7,3,0.5,5.7,2.7,6.9c0.9,0.5,2.3,0.8,3.9,0.8c1.6,0,3.2-0.3,4.3-0.8
	C68.3,29.7,68.5,29.5,68.5,29.3 M71,30.6l0.3,0l2.1,0h0.3c0.2,0,0.4-0.1,0.4-0.3l2.5-10.9c0,0,0-0.1,0.1-0.1c0,0,0.1,0,0.1,0.1
	l0.5,7.9c0,0.2,0.1,0.3,0.3,0.3l0.3,0l2.4,0l0.3,0c0.3,0,0.6-0.1,0.8-0.3c0.2-0.2,0.4-0.4,0.5-0.6l0.2-0.3l3.5-6.7l0.2-0.3l0,0
	c0,0,0-0.1,0.1-0.1c0,0,0.1,0,0,0.1l-0.1,0.3l-2.4,10.4l-0.1,0.2c0,0.2,0.1,0.3,0.3,0.3h0.3l2.1,0l0.3,0c0.2,0,0.4-0.1,0.4-0.3
	l0.1-0.3l3.2-14l0.1-0.3c0-0.2-0.1-0.3-0.3-0.3l-0.3,0l-3.8,0l-0.5,0c-0.3,0-0.6,0.1-0.8,0.3c-0.2,0.2-0.4,0.4-0.5,0.6l-0.1,0.3
	l-3.2,6.2c0,0,0,0-0.1,0c0,0-0.1,0-0.1-0.1L80.1,17l0-0.3c0-0.3-0.1-0.6-0.3-0.8c-0.3-0.3-0.6-0.4-1.1-0.4l-0.3,0l-3.5,0l-0.4,0
	c-0.2,0-0.3,0.1-0.4,0.3L74,16.1l-3.3,14.3C70.7,30.5,70.8,30.6,71,30.6 M70.3,8.6c0.1,0,0.2,0,0.3,0c0.1,0,0.3-0.1,0.3-0.2
	c0-0.1-0.1-0.2-0.2-0.2c-0.1,0-0.2,0-0.3,0c-0.9,0-1.9-0.1-2.9-0.1c-18.2,0-32.9,6.6-32.9,14.9c0,2.8,1.7,5.4,4.5,7.6
	c0,0,0,0,0.1,0.1c0,0,0.1,0,0.1,0c0.1,0,0.2-0.1,0.2-0.2c0-0.1,0-0.1,0-0.1c0,0-0.1-0.1-0.1-0.1c-2.2-2.1-3.1-4.6-2.5-7.3
	C38.6,15,53.6,8.7,70.3,8.6 M54,24.2C54,24.2,54,24.2,54,24.2L54,24.2L54,24.2z M57.8,15.8c0,0,0-0.1,0-0.1c0-0.2-0.1-0.3-0.3-0.3
	l-0.3,0l-8,0l-0.4,0c-0.3,0-0.7,0.3-0.7,0.6l-3.2,14l-0.1,0.3c0,0.2,0.1,0.3,0.3,0.3l0.3,0l2.1,0l0.3,0c0.2,0,0.4-0.1,0.4-0.3l0-0.1
	l1.2-5.4c0-0.1,0.2-0.2,0.3-0.2h0l0.4,0l1.2,0l1.8,0c0.2,0,0.5-0.1,0.6-0.3l0.2-0.3l1-2c0,0,0-0.1,0-0.1c0-0.2-0.1-0.3-0.3-0.3h-0.3
	l-3.7,0l-0.4,0c-0.2,0-0.3-0.1-0.2-0.3l0-0.1l0.6-2.4c0-0.2,0.2-0.3,0.4-0.3l0.4,0l2.5,0l1.4,0c0.5,0,1-0.2,1.2-0.6l0.1-0.3
	L57.8,15.8z M95.9,15.4C95.8,15.4,95.8,15.4,95.9,15.4c-0.1-0.1-0.1-0.1-0.2-0.1c-0.1,0-0.2,0.1-0.2,0.2c0,0.1,0,0.1,0,0.1
	c0,0,0.1,0.1,0.1,0.1c2.2,2.1,3.1,4.6,2.5,7.3c-1.8,7.9-16.7,14.3-33.5,14.4c-0.1,0-0.2,0-0.3,0c-0.1,0-0.3,0.1-0.3,0.2
	s0.1,0.2,0.2,0.2c0.1,0,0.2,0,0.3,0c0.9,0,1.9,0.1,2.9,0.1c18.2,0,32.9-6.6,32.9-14.9C100.4,20.3,98.7,17.7,95.9,15.4"/>
</svg>
