<svg id="Capa_1" data-name="Capa 1" xmlns="http://www.w3.org/2000/svg" viewBox="0 0 135 46"><defs><style>.cls-1{fill:#9bc338;}.cls-2{fill:#008541;}.cls-3{fill:#9dc438;}</style></defs><path class="cls-1" d="M76.11,34.7v4c-.27,0-.54,0-.81,0a.4.4,0,0,1-.39-.19c-.5-.67-1-1.33-1.53-2l-.12-.14v2.31H72.1V34.69h.58a1.09,1.09,0,0,1,.48,0c.12.06.2.23.29.35l1.39,1.8A.88.88,0,0,1,75,37V34.7Z"/><path class="cls-1" d="M66.62,34.7v4h-1.2V37.18H64v1.56H62.74v-4h1.2v1.53h1.47V34.7Z"/><path class="cls-1" d="M80.71,35.93l-.65.07-.45,0a.14.14,0,0,1-.12-.06.62.62,0,0,0-.6-.43.79.79,0,0,0-.76.33,1.42,1.42,0,0,0-.2.67,1.84,1.84,0,0,0,.11.87.75.75,0,0,0,.65.49,2.06,2.06,0,0,0,.82-.06c.08,0,.11-.06.1-.15v-.38h-.74v-.82h1.87s0,.08,0,.12c0,.52,0,1,0,1.56,0,0,0,.13-.06.15a3.16,3.16,0,0,1-2.47.43A1.92,1.92,0,0,1,76.7,37a2.35,2.35,0,0,1,.36-1.53,1.86,1.86,0,0,1,1.32-.79,2.24,2.24,0,0,1,1.62.28A1.67,1.67,0,0,1,80.71,35.93Z"/><path class="cls-1" d="M62.36,38.76H61.19a.16.16,0,0,1-.09-.09c-.08-.21-.16-.41-.23-.62a.13.13,0,0,0-.14-.1H59.39a.13.13,0,0,0-.14.1c-.07.21-.15.41-.23.61a.21.21,0,0,1-.11.1h-1.1a1.09,1.09,0,0,1,0-.14c.51-1.28,1-2.55,1.52-3.82a.14.14,0,0,1,.16-.11c.36,0,.73,0,1.09,0,.07,0,.11,0,.14.08l1.57,3.93S62.35,38.72,62.36,38.76ZM59.64,37h.86l-.42-1.15Z"/><path class="cls-1" d="M56.89,38.75H55.66V37.22a.52.52,0,0,0-.07-.21c-.48-.72-1-1.45-1.45-2.17l-.09-.15h.28c.31,0,.62,0,.93,0a.23.23,0,0,1,.22.12l.81,1.28a1.25,1.25,0,0,1,.09-.12l.74-1.18a.18.18,0,0,1,.18-.1c.39,0,.78,0,1.2,0l-.09.14L57,37a.51.51,0,0,0-.07.24C56.88,37.73,56.89,38.23,56.89,38.75Z"/><path class="cls-1" d="M71.1,37.56a3.42,3.42,0,0,0-.64-.9l-.19-.16a1.84,1.84,0,0,1-.11.92.89.89,0,0,1-1.6,0,1.73,1.73,0,0,1-.16-.66,1.3,1.3,0,0,1,.16-.73.85.85,0,0,1,.79-.5,1,1,0,0,1,.39.07h0l.08,0,0,0a2.48,2.48,0,0,1,.93.73,3.53,3.53,0,0,1,.58,1.08.64.64,0,0,1,0,.07,2.63,2.63,0,0,0,.14-.8,2.06,2.06,0,0,0-.56-1.5,2,2,0,0,0-1.34-.6,2.35,2.35,0,0,0-1.55.34,2,2,0,0,0-.87,1.79,2.08,2.08,0,0,0,.54,1.44,2.05,2.05,0,0,0,1.36.62,2.3,2.3,0,0,0,1.7-.45,1.85,1.85,0,0,0,.42-.51C71.18,37.76,71.15,37.66,71.1,37.56Z"/><ellipse class="cls-2" cx="68.9" cy="21.55" rx="7.23" ry="4.2"/><path class="cls-2" d="M81,20c0,7.09-6,12.84-13.45,12.84S54.05,27.09,54.05,20s6-12.84,13.45-12.84S81,12.91,81,20ZM67.42,28.43c5.88,0,10.65-2.73,10.65-6.1s-4.77-6.1-10.65-6.1S56.76,19,56.76,22.33,61.53,28.43,67.42,28.43ZM61.1,12.87l1,2s.34.37.38-.12,0-1,.26-1,.61.7.66.8.41.25.41-.3v-2s-.11-.74-1.62-.36S61.1,12.87,61.1,12.87Z"/><path class="cls-3" d="M67.42,15.82l.87,0,1-4.46a.4.4,0,0,0-.39-.49H66.7a.4.4,0,0,0-.39.31L65.22,16A19.56,19.56,0,0,1,67.42,15.82Z"/><path class="cls-3" d="M64.6,18.63l-1.18,5.11a.4.4,0,0,0,.39.49H66a.4.4,0,0,0,.39-.31l1.41-6.11A10.07,10.07,0,0,0,64.6,18.63Z"/><path class="cls-3" d="M70,17.81l-1.07,4.66a.4.4,0,0,0,.39.49h2.23a.41.41,0,0,0,.39-.31l1-4.15A10.38,10.38,0,0,0,70,17.81Z"/><path class="cls-3" d="M73.29,16.83l1.55-6.71a.41.41,0,0,0-.39-.49H72.22a.4.4,0,0,0-.39.31l-1.42,6.13A15.56,15.56,0,0,1,73.29,16.83Z"/></svg>