<svg xmlns="http://www.w3.org/2000/svg" viewBox="0 0 56.42 24.09"><defs><style>.cls-1{fill:#27a1d7;}.cls-2{fill:#fff;}.cls-3,.cls-4{fill:none;stroke:#000;}.cls-3{stroke-linejoin:bevel;stroke-width:0.1px;}.cls-4{stroke-miterlimit:22.93;stroke-width:0.11px;}</style></defs><g id="Capa_2" data-name="Capa 2"><g id="Capa_1-2" data-name="Capa 1"><path d="M24.25,23.45V20.63a.81.81,0,0,0,0-.22s-.06-.08-.11-.08a1,1,0,0,0-.3,0h-.16V20h2.17a3.47,3.47,0,0,1,1,.15,1.77,1.77,0,0,1,.68.43,1.46,1.46,0,0,1,.39.65,2.66,2.66,0,0,1,.12.84,2.35,2.35,0,0,1-.25,1.12,1.68,1.68,0,0,1-.74.66,2.47,2.47,0,0,1-1.09.23H23.65v-.32l.21,0c.1,0,.19,0,.24,0s.09,0,.1-.08a.31.31,0,0,0,.05-.19m1-.08c0,.15,0,.26.08.29a.33.33,0,0,0,.25.09,1.06,1.06,0,0,1,.29,0,.88.88,0,0,0,.82-.48A2.61,2.61,0,0,0,27,22a4.76,4.76,0,0,0-.11-.85,1.28,1.28,0,0,0-.35-.62,1.1,1.1,0,0,0-.71-.24h-.09c-.29,0-.44.11-.44.29Zm4.42.08V20.59a.31.31,0,0,0,0-.18.12.12,0,0,0-.09-.08l-.18,0h-.31V20l3.84,0,0,1.45h-.28c-.06-.16-.12-.33-.18-.46a2.45,2.45,0,0,0-.26-.35,1,1,0,0,0-.4-.22,2.13,2.13,0,0,0-.65-.09,1.07,1.07,0,0,0-.36.06.3.3,0,0,0-.12.25v1.17h.12a.69.69,0,0,0,.53-.21,1,1,0,0,0,.25-.57h.3l0,1.95h-.33a1.49,1.49,0,0,0-.1-.45.78.78,0,0,0-.3-.3,1.15,1.15,0,0,0-.5-.12v1.35a.85.85,0,0,0,0,.2.24.24,0,0,0,.12.07l.33,0a1.88,1.88,0,0,0,.78-.14,1,1,0,0,0,.45-.37,2.71,2.71,0,0,0,.32-.68l.28,0-.06,1.5H29.06v-.33h.22a.78.78,0,0,0,.32-.06.32.32,0,0,0,.07-.22m5-2.86a.71.71,0,0,0-.6-.32V20h1.42l2.25,2.59V20.89a.63.63,0,0,0-.16-.5.81.81,0,0,0-.48-.12V20h1.61v.3a.79.79,0,0,0-.4.12.34.34,0,0,0-.16.24,1.73,1.73,0,0,0,0,.37v3.09h-.37l-2.7-3.18v2.16a.63.63,0,0,0,.18.51.77.77,0,0,0,.47.14v.33H34.07v-.33a.94.94,0,0,0,.34,0,.38.38,0,0,0,.21-.16.69.69,0,0,0,.08-.36ZM41,20.43c0-.12-.08-.16-.23-.16a.65.65,0,0,0-.48.2,1.37,1.37,0,0,0-.31.49,1.62,1.62,0,0,0-.15.55h-.27L39.59,20h3.77l.08,1.54h-.29A1.62,1.62,0,0,0,43,21a1.18,1.18,0,0,0-.33-.48.68.68,0,0,0-.51-.21c-.12,0-.19.06-.19.16v3.09a.15.15,0,0,0,.09.15.92.92,0,0,0,.37.06h.2v.33H40.32v-.33l.42,0a.19.19,0,0,0,.21-.22Zm3.58,2.64,1.38-3.2h.44l1.5,3.58a.5.5,0,0,0,.19.21.78.78,0,0,0,.33.06v.33h-2v-.33h.18c.17,0,.26,0,.26-.12a.35.35,0,0,0,0-.12l-.26-.65H45a1.64,1.64,0,0,0-.16.53c0,.24.21.36.57.36v.33H43.81v-.32q.45,0,.72-.66m1.26-2-.58,1.41h1.15Zm3.86-.5a.34.34,0,0,0,0-.16.24.24,0,0,0-.11-.08.74.74,0,0,0-.3,0h-.17V20h2.24v.3h-.36a.44.44,0,0,0-.21,0,.28.28,0,0,0-.06.19v3c0,.07,0,.15.05.16a.34.34,0,0,0,.25.08h.27a2,2,0,0,0,.65-.1,1.09,1.09,0,0,0,.45-.36,2.54,2.54,0,0,0,.3-.75h.3l-.08,1.53h-3.8v-.3c.21,0,.34,0,.4,0a.19.19,0,0,0,.15-.06.34.34,0,0,0,0-.21Z"/><path d="M24.25,23.45V20.63a.81.81,0,0,0,0-.22s-.06-.08-.11-.08a1,1,0,0,0-.3,0h-.16V20h2.17a3.47,3.47,0,0,1,1,.15,1.77,1.77,0,0,1,.68.43,1.46,1.46,0,0,1,.39.65,2.66,2.66,0,0,1,.12.84,2.35,2.35,0,0,1-.25,1.12,1.68,1.68,0,0,1-.74.66,2.47,2.47,0,0,1-1.09.23H23.65v-.32l.21,0c.1,0,.19,0,.24,0s.09,0,.1-.08a.31.31,0,0,0,.05-.19m1-.08c0,.15,0,.26.08.29a.33.33,0,0,0,.25.09,1.06,1.06,0,0,1,.29,0,.88.88,0,0,0,.82-.48A2.61,2.61,0,0,0,27,22a4.76,4.76,0,0,0-.11-.85,1.28,1.28,0,0,0-.35-.62,1.1,1.1,0,0,0-.71-.24h-.09c-.29,0-.44.11-.44.29Zm4.42.08V20.59a.31.31,0,0,0,0-.18.12.12,0,0,0-.09-.08l-.18,0h-.31V20l3.84,0,0,1.45h-.28c-.06-.16-.12-.33-.18-.46a2.45,2.45,0,0,0-.26-.35,1,1,0,0,0-.4-.22,2.13,2.13,0,0,0-.65-.09,1.07,1.07,0,0,0-.36.06.3.3,0,0,0-.12.25v1.17h.12a.69.69,0,0,0,.53-.21,1,1,0,0,0,.25-.57h.3l0,1.95h-.33a1.49,1.49,0,0,0-.1-.45.78.78,0,0,0-.3-.3,1.15,1.15,0,0,0-.5-.12v1.35a.85.85,0,0,0,0,.2.24.24,0,0,0,.12.07l.33,0a1.88,1.88,0,0,0,.78-.14,1,1,0,0,0,.45-.37,2.71,2.71,0,0,0,.32-.68l.28,0-.06,1.5H29.06v-.33h.22a.78.78,0,0,0,.32-.06.32.32,0,0,0,.07-.22m5-2.86a.71.71,0,0,0-.6-.32V20h1.42l2.25,2.59V20.89a.63.63,0,0,0-.16-.5.81.81,0,0,0-.48-.12V20h1.61v.3a.79.79,0,0,0-.4.12.34.34,0,0,0-.16.24,1.73,1.73,0,0,0,0,.37v3.09h-.37l-2.7-3.18v2.16a.63.63,0,0,0,.18.51.77.77,0,0,0,.47.14v.33H34.07v-.33a.94.94,0,0,0,.34,0,.38.38,0,0,0,.21-.16.69.69,0,0,0,.08-.36ZM41,20.43c0-.12-.08-.16-.23-.16a.65.65,0,0,0-.48.2,1.37,1.37,0,0,0-.31.49,1.62,1.62,0,0,0-.15.55h-.27L39.59,20h3.77l.08,1.54h-.29A1.62,1.62,0,0,0,43,21a1.18,1.18,0,0,0-.33-.48.68.68,0,0,0-.51-.21c-.12,0-.19.06-.19.16v3.09a.15.15,0,0,0,.09.15.92.92,0,0,0,.37.06h.2v.33H40.32v-.33l.42,0a.19.19,0,0,0,.21-.22Zm3.58,2.64,1.38-3.2h.44l1.5,3.58a.5.5,0,0,0,.19.21.78.78,0,0,0,.33.06v.33h-2v-.33h.18c.17,0,.26,0,.26-.12a.35.35,0,0,0,0-.12l-.26-.65H45a1.64,1.64,0,0,0-.16.53c0,.24.21.36.57.36v.33H43.81v-.32q.45,0,.72-.66m1.26-2-.58,1.41h1.15Zm3.86-.5a.34.34,0,0,0,0-.16.24.24,0,0,0-.11-.08.74.74,0,0,0-.3,0h-.17V20h2.24v.3h-.36a.44.44,0,0,0-.21,0,.28.28,0,0,0-.06.19v3c0,.07,0,.15.05.16a.34.34,0,0,0,.25.08h.27a2,2,0,0,0,.65-.1,1.09,1.09,0,0,0,.45-.36,2.54,2.54,0,0,0,.3-.75h.3l-.08,1.53h-3.8v-.3c.21,0,.34,0,.4,0a.19.19,0,0,0,.15-.06.34.34,0,0,0,0-.21Z"/><rect class="cls-1" y="7.97" width="56.42" height="11.15"/><path class="cls-2" d="M14.77,7.2l.26.33,1.56-.39.62.27h1.71l.66.45,1.68-.81,1.36.87,1.53-.64h1.94l1.14-.39L30,7.38l1.12,0,.6,0,.7-.75L35.15,7l1,.3c-.12-.27-.3-.48-.45-.76-.37,0-.46,0-.82,0a28.44,28.44,0,0,1-5.72-5.17c-.19.3-.33.72-.51,1l.29.42c-.72-.87-1.38-1.63-2.1-2.5A36.35,36.35,0,0,1,22.29,5.6L20,7.56c.57-.51,1.47-1.26,2.05-1.78-.48-.36-1-.75-1.51-1.11L19,5.93c.09.36.38.87.46,1.23-.37-1.11-.93-2.42-1.26-3.56A40.15,40.15,0,0,1,14.94,7c-.09.09-.12.06-.17.18"/><path d="M13.52,9c.43-.31.85-.62,1.26-1A13.78,13.78,0,0,0,16,6.93c.05.06.12.11.17.17-.4.42-.81.8-1.21,1.16s-.82.69-1.25,1Z"/><path d="M32.3,10.79,30.75,9.17,30.91,9l1.61,1.56a2.34,2.34,0,0,1-.22.23"/><path d="M33.25,8.81c-.67-.75-1.36-1.55-2-2.36s-1.34-1.68-2-2.51l.19-.15c.67.82,1.37,1.63,2.08,2.42s1.41,1.55,2.1,2.28l-.31.32"/><path d="M26,5.63c-.21.4-.42.77-.64,1.11s-.46.69-.72,1l-.31-.25c.28-.32.53-.63.77-1a11.72,11.72,0,0,0,.69-1Z"/><path d="M36.24,7.25a7.57,7.57,0,0,0,3.2,2.66l.92.51,0,0v0a10.42,10.42,0,0,0,.74.93c.22.26.44.52.66.83l.14.08.38.19a12.37,12.37,0,0,0,3.18,1h0c.91.56,1.73,1,2.55,1.43a20.52,20.52,0,0,0,2.5,1l1.32.31c.43.09.85.19,1.28.3l0,.23c-.43-.11-.85-.21-1.28-.3s-.9-.2-1.34-.32h0A20.73,20.73,0,0,1,48,15.18c-.81-.4-1.64-.86-2.54-1.42a12.5,12.5,0,0,1-3.23-1.06l-.39-.19a1.38,1.38,0,0,1-.2-.13h0c-.21-.29-.43-.55-.65-.81s-.5-.59-.74-.93c-.31-.19-.6-.35-.89-.5a8,8,0,0,1-3.09-2.46A3.7,3.7,0,0,1,36,7.33c-.07-.13-.15-.25-.24-.41l-.2-.31-.29,0a4.29,4.29,0,0,1-.47,0h0a23.69,23.69,0,0,1-3.13-2.48c-.92-.86-1.76-1.75-2.5-2.59-.06.11-.12.24-.18.37a3.29,3.29,0,0,1-.21.42l.25.36,1.8,2.28-2-2.13-1-1.25-1-1.14a32.12,32.12,0,0,1-2,2.68C24,4,23.2,4.82,22.37,5.65h0l-.09.08h0l-.11.09-1.07.93L20.8,7l0,0-.67.58h0L20,7.49l0,0h0l.61-.53,0,0L21.9,5.75l-.48-.35c-.29-.21-.57-.41-.84-.62l-.73.57-.73.58c.09.24.18.48.26.72a2.45,2.45,0,0,1,.16.45l-.12.06h-.11a3.52,3.52,0,0,0-.15-.42c0-.06-.05-.12-.07-.19l-.24-.63,0-.07h0l0-.09c-.24-.65-.5-1.32-.69-1.95-.46.56-.94,1.09-1.43,1.6S15.58,6.52,15,7.07c0,0-.14.16-.17.18a25.45,25.45,0,0,1-2.52,2.18c-.89.7-1.83,1.36-2.77,2h0L7.4,13.33h0a8.18,8.18,0,0,0-.79.6,10.08,10.08,0,0,1-.81.61h0l-.17.07a7.38,7.38,0,0,1-1.67.54l0-.23a8,8,0,0,0,1.61-.53l.16-.06a7.68,7.68,0,0,0,.78-.6c.25-.2.51-.41.8-.61.68-.57,1.41-1.21,2.14-1.85h0c.95-.67,1.88-1.34,2.77-2a29,29,0,0,0,2.49-2.16h0l.16-.17h0c.57-.54,1.12-1.09,1.66-1.65s1.06-1.14,1.56-1.76l.14-.17.06.22c.2.67.48,1.41.75,2.14h0l.67-.52.8-.63h0l.07,0,.07,0,.9.67c.18.12.35.24.53.38l.12-.11c.84-.82,1.63-1.67,2.38-2.56A34.77,34.77,0,0,0,26.71.13L26.79,0l.1.12,1.05,1.25.63.75c.06-.11.12-.24.18-.37A3.89,3.89,0,0,1,29,1.21l.09-.13.1.12C30,2.07,30.84,3,31.8,3.89a22,22,0,0,0,3.08,2.44,2.18,2.18,0,0,0,.41,0,2.62,2.62,0,0,1,.37,0h.07l0,.06c.07.12.14.24.22.36l.26.45"/><polygon points="26.95 2.1 26.95 2.11 28.42 3.88 29.73 5.04 29.65 5.13 29.58 5.22 28.18 4.19 28.16 4.18 28.15 4.16 26.76 2.24 26.86 2.17 26.95 2.1 26.95 2.1"/><rect x="33.42" y="6.31" width="0.24" height="1.13" transform="translate(3.07 22.5) rotate(-38.74)"/><polygon points="18.91 7.97 19.61 6.59 19.74 6.33 19.83 6.61 20.65 9.11 20.42 9.18 19.69 6.95 19.13 8.08 18.91 7.97"/><path d="M20.13,9.66h0l-.05-.05.54-.55a29.67,29.67,0,0,0,4.24-4.92l.2.13h0a29.84,29.84,0,0,1-4.22,5l-.54.55Z"/><path d="M11.13,12.23l.63,1.43a1,1,0,0,0-.84-.3L10.29,12a.82.82,0,0,1,.84.25"/><path class="cls-3" d="M11.13,12.23l.63,1.43a1,1,0,0,0-.84-.3L10.29,12A.82.82,0,0,1,11.13,12.23Z"/><polygon points="13.24 12.11 13.87 13.54 13.87 13.52 13.24 12.1 13.24 12.11"/><polygon class="cls-3" points="13.24 12.1 13.87 13.52 13.87 13.54 13.24 12.11 13.24 12.1"/><polygon points="13.28 14.55 13.91 15.98 11.77 13.66 11.13 12.23 13.28 14.55"/><polygon class="cls-3" points="13.28 14.55 13.91 15.98 11.77 13.66 11.13 12.23 13.28 14.55"/><polygon points="14.02 11.93 14.65 13.36 14.47 13.36 14.32 13.37 14.19 13.39 14.07 13.41 13.99 13.42 13.92 13.46 13.89 13.49 13.87 13.52 13.24 12.1 13.26 12.06 13.29 12.03 13.36 12 13.44 11.98 13.56 11.96 13.69 11.95 13.84 11.93 14.02 11.93"/><polygon class="cls-3" points="14.02 11.93 14.65 13.36 14.47 13.36 14.32 13.37 14.19 13.39 14.07 13.41 13.99 13.42 13.92 13.46 13.89 13.49 13.87 13.52 13.24 12.1 13.26 12.06 13.29 12.03 13.36 12 13.44 11.98 13.56 11.96 13.69 11.95 13.84 11.93 14.02 11.93"/><polygon points="14.02 11.93 14.65 13.33 14.65 12.96 14.05 11.51 14.02 11.93"/><polygon class="cls-3" points="14.05 11.51 14.65 12.96 14.65 13.34 14.02 11.93 14.05 11.51"/><polygon points="13.31 12.24 13.94 13.67 13.92 13.62 13.29 12.2 13.31 12.24"/><polygon class="cls-3" points="13.29 12.2 13.92 13.62 13.94 13.67 13.31 12.24 13.29 12.2"/><polygon points="15.17 16 15.18 16.08 15.2 16.15 15.22 16.21 15.85 17.64 15.83 17.57 15.81 17.51 15.8 17.42 15.8 15.88 15.17 14.45 15.17 16"/><polygon class="cls-3" points="15.17 14.45 15.8 15.88 15.8 17.42 15.81 17.51 15.83 17.57 15.85 17.64 15.22 16.21 15.2 16.15 15.18 16.08 15.17 16 15.17 14.45"/><polygon points="16.03 12.24 16.66 13.67 16.61 13.59 16.55 13.52 16.43 13.46 16.3 13.42 16.11 13.39 15.91 13.36 15.68 13.36 15.06 11.98 15.28 11.93 15.48 11.96 15.66 12 15.8 12.03 15.91 12.1 15.98 12.16 16.03 12.24"/><polygon class="cls-3" points="16.03 12.24 16.66 13.67 16.61 13.59 16.55 13.52 16.43 13.46 16.3 13.42 16.11 13.39 15.91 13.36 15.68 13.36 15.06 11.98 15.28 11.93 15.48 11.96 15.66 12 15.8 12.03 15.91 12.1 15.98 12.16 16.03 12.24"/><polygon points="16.35 16.73 16.97 18.13 16.98 17.74 16.36 16.29 16.35 16.73"/><polygon class="cls-3" points="16.36 16.29 16.98 17.74 16.97 18.13 16.35 16.73 16.36 16.29"/><polygon points="16.35 16.73 16.98 18.15 12.78 18.15 12.15 16.75 16.35 16.73"/><polygon class="cls-3" points="16.35 16.73 16.98 18.15 12.78 18.15 12.15 16.75 16.35 16.73"/><polygon points="18.16 11.93 18.78 13.34 18.79 12.96 18.18 11.51 18.16 11.93"/><polygon class="cls-3" points="18.18 11.51 18.79 12.96 18.78 13.34 18.16 11.93 18.18 11.51"/><path d="M18.15,11.93l.64,1.43a2,2,0,0,0-1.35.61L15.8,15.88l-.63-1.43,1.64-1.91a2.15,2.15,0,0,1,1.25-.61Z"/><path class="cls-3" d="M18.15,11.93l.64,1.43a2,2,0,0,0-1.35.61L15.8,15.88l-.63-1.43,1.64-1.91a2.15,2.15,0,0,1,1.25-.61Z"/><path d="M20,12.08l.63,1.43a2.43,2.43,0,0,0-1.09-.15L18.93,12a2.78,2.78,0,0,1,1.08.11"/><path class="cls-3" d="M20,12.08l.63,1.43a2.43,2.43,0,0,0-1.09-.15L18.93,12A2.78,2.78,0,0,1,20,12.08Z"/><path d="M21.94,14.24l.63,1.42v1.81l0,.09v.08L22,16.21c0-.08,0-.16,0-.25Z"/><path class="cls-3" d="M21.94,14.24l.63,1.42v1.81l0,.09v.08L22,16.21c0-.08,0-.16,0-.25Z"/><path d="M25.32,13,26,14.44l0-.07a2.31,2.31,0,0,0-1.71-1c-.42-.06-1.23-.18-1.57.16a.37.37,0,0,0-.07.19v1.52l-.63-1.42V12.33c.09-.55,1.14-.41,1.51-.37a2.27,2.27,0,0,1,1.87,1"/><path class="cls-3" d="M25.32,13,26,14.44l0-.07a2.31,2.31,0,0,0-1.71-1c-.42-.06-1.23-.18-1.57.16a.37.37,0,0,0-.07.19v1.52l-.63-1.42V12.33c.09-.55,1.14-.41,1.51-.37A2.27,2.27,0,0,1,25.32,13Z"/><path d="M23.45,14.9l.63,1.43,0-.07,0-.06c-.23-.46-1-.54-1.43-.54l-.63-1.42a1.6,1.6,0,0,1,1.51.66"/><path class="cls-3" d="M23.45,14.9l.63,1.43,0-.07,0-.06c-.23-.46-1-.54-1.43-.54l-.63-1.42A1.6,1.6,0,0,1,23.45,14.9Z"/><polygon points="24.16 15.33 24.79 16.76 24.76 14.27 24.13 12.84 24.16 15.33"/><polygon class="cls-3" points="24.13 12.84 24.76 14.27 24.79 16.76 24.16 15.33 24.13 12.84"/><polygon points="24.11 16.41 24.15 16.48 23.52 15.05 23.48 14.98 24.11 16.41"/><polygon class="cls-3" points="23.52 15.05 24.15 16.48 24.11 16.41 23.48 14.98 23.52 15.05"/><polygon points="23.58 15.33 24.21 16.76 24.79 16.76 24.16 15.33 23.58 15.33"/><polygon class="cls-3" points="24.16 15.33 24.79 16.76 24.21 16.76 23.58 15.33 24.16 15.33"/><polygon points="25.99 14.52 26.04 14.6 25.41 13.18 25.36 13.09 25.99 14.52"/><polygon class="cls-3" points="25.41 13.18 26.04 14.6 25.99 14.52 25.36 13.09 25.41 13.18"/><polygon points="26.07 13.42 26.7 14.83 26.6 12.96 26 11.51 26.07 13.42"/><polygon class="cls-3" points="26 11.51 26.6 12.96 26.7 14.83 26.07 13.42 26 11.51"/><polygon points="25.51 13.42 26.14 14.85 26.7 14.85 26.07 13.42 25.51 13.42"/><polygon class="cls-3" points="26.07 13.42 26.7 14.85 26.14 14.85 25.51 13.42 26.07 13.42"/><polygon points="26.07 16.73 26.7 18.15 19.55 18.15 18.93 16.76 26.07 16.73"/><polygon class="cls-3" points="26.07 16.73 26.7 18.15 19.55 18.15 18.93 16.76 26.07 16.73"/><polygon points="26.07 16.73 26.7 18.13 26.77 16.26 26.14 14.83 26.07 16.73"/><polygon class="cls-3" points="26.14 14.83 26.77 16.26 26.7 18.13 26.07 16.73 26.14 14.83"/><polygon points="26.91 13.55 27.53 14.93 28 14.93 27.37 13.51 26.91 13.55"/><polygon class="cls-3" points="27.37 13.51 28 14.93 27.53 14.93 26.91 13.55 27.37 13.51"/><path d="M29.54,12.1l.63,1.42,0-.06-.08-.07a1.51,1.51,0,0,0-1.45.42,2.24,2.24,0,0,0-.62,1.1l-.62-1.4a2.16,2.16,0,0,1,.79-1.28A1.47,1.47,0,0,1,29.42,12l.09.07Z"/><path class="cls-3" d="M29.54,12.1l.63,1.42,0-.06-.08-.07a1.51,1.51,0,0,0-1.45.42,2.24,2.24,0,0,0-.62,1.1l-.62-1.4a2.16,2.16,0,0,1,.79-1.28A1.47,1.47,0,0,1,29.42,12l.09.07Z"/><polygon points="32.66 16.73 33.29 18.13 33.29 17.74 32.69 16.29 32.66 16.73"/><polygon class="cls-3" points="32.69 16.29 33.29 17.74 33.29 18.13 32.66 16.73 32.69 16.29"/><path d="M33.39,12.88,34,14.3,34,14.21a1.67,1.67,0,0,0-1-.8,1.38,1.38,0,0,0-.78,0,.12.12,0,0,0-.07.07.19.19,0,0,0,0,.1v4l0,.07-.63-1.43,0-.06v-4l0-.08.08-.09.12,0,.16,0H32l.13,0,.12,0,.13,0,.12,0,.09,0,.12,0,.1.06.08.07.09.07.08.08.08.06.09.09.06.1,0,.08.05.08Z"/><path class="cls-3" d="M33.39,12.88,34,14.3,34,14.21a1.67,1.67,0,0,0-1-.8,1.38,1.38,0,0,0-.78,0,.12.12,0,0,0-.07.07.19.19,0,0,0,0,.1v4l0,.07-.63-1.43,0-.06v-4l0-.08.08-.09.12,0,.16,0H32l.13,0,.12,0,.13,0,.12,0,.09,0,.12,0,.1.06.08.07.09.07.08.08.08.06.09.09.06.1,0,.08.05.08Z"/><polygon points="32.66 16.73 33.29 18.15 29.01 18.15 28.39 16.76 32.66 16.73"/><polygon class="cls-3" points="32.66 16.73 33.29 18.15 29.01 18.15 28.39 16.76 32.66 16.73"/><polygon points="34.05 14.39 34.1 14.49 34.16 14.57 33.52 13.14 33.47 13.06 33.42 12.96 34.05 14.39"/><polygon class="cls-3" points="33.52 13.14 34.15 14.57 34.1 14.49 34.05 14.39 33.42 12.96 33.47 13.06 33.52 13.14"/><polygon points="34.19 13.51 34.81 14.92 34.65 12.96 34.03 11.51 34.19 13.51"/><polygon class="cls-3" points="34.03 11.51 34.65 12.96 34.81 14.92 34.19 13.51 34.03 11.51"/><polygon points="33.64 13.51 34.27 14.93 34.82 14.93 34.19 13.51 33.64 13.51"/><polygon class="cls-3" points="34.19 13.51 34.82 14.93 34.27 14.93 33.64 13.51 34.19 13.51"/><path d="M35.6,12l.63,1.43,0,0h-.05l-.07,0-.08,0h-.77L34.61,12a1.85,1.85,0,0,1,1,0"/><path class="cls-3" d="M35.6,12l.63,1.43,0,0h-.05l-.07,0-.08,0h-.77L34.61,12A1.85,1.85,0,0,1,35.6,12Z"/><polygon points="36.23 13.44 36.3 13.47 36.33 13.54 35.7 12.11 35.67 12.05 35.6 12.01 36.23 13.44"/><polygon class="cls-3" points="35.7 12.11 36.33 13.54 36.3 13.47 36.23 13.44 35.6 12.01 35.66 12.05 35.7 12.11"/><path d="M37.72,12.05l.63,1.42a.54.54,0,0,0-.1.2v3.79l0,.08,0,.07-.63-1.43,0-.07,0-.08V12.25l0-.05,0,0,0-.05Z"/><path class="cls-3" d="M37.72,12.05l.63,1.42a.54.54,0,0,0-.1.2v3.79l0,.08,0,.07-.63-1.43,0-.07,0-.08V12.25l0-.05,0,0,0-.05Z"/><polygon points="38.72 11.93 39.35 13.34 39.35 12.96 38.75 11.51 38.72 11.93"/><polygon class="cls-3" points="38.74 11.51 39.35 12.96 39.35 13.34 38.72 11.93 38.74 11.51"/><path d="M38.72,11.93l.63,1.43h-.53c-.11,0-.41,0-.47.12l-.63-1.43c.06-.12.47-.12.58-.12Z"/><path class="cls-3" d="M38.72,11.93l.63,1.43h-.53c-.11,0-.41,0-.47.12l-.63-1.43c.06-.12.47-.12.58-.12Z"/><polygon points="38.72 16.73 39.35 18.13 39.35 17.74 38.75 16.29 38.72 16.73"/><polygon class="cls-3" points="38.74 16.29 39.35 17.74 39.34 18.13 38.72 16.73 38.74 16.29"/><polygon points="38.72 16.73 39.35 18.15 35.23 18.15 34.61 16.76 38.72 16.73"/><polygon class="cls-3" points="38.72 16.73 39.35 18.15 35.23 18.15 34.61 16.76 38.72 16.73"/><path class="cls-2" d="M11.15,12.23h0a1,1,0,0,0-.72-.29H10.3v-.4H14v.4c-.5,0-.79.06-.79.17l0,.07a.22.22,0,0,0,.05.08l1.51,1.66L16,12.51l0-.06a.5.5,0,0,0,0-.12c0-.25-.35-.39-1-.39v-.4h3.11v.4a1.67,1.67,0,0,0-.75.19,1.8,1.8,0,0,0-.6.41l-1.64,1.92V16a.32.32,0,0,0,.09.24.53.53,0,0,0,.24.06h.84v.41H12.16v-.41H13a.53.53,0,0,0,.25-.07.24.24,0,0,0,.09-.18V14.55ZM20.06,16V12.32a1.14,1.14,0,0,0,0-.24c-.11-.15-.94-.14-1.1-.14v-.37l7.06,0,.09,1.89h-.55a2.13,2.13,0,0,0-.79-1.07,3.55,3.55,0,0,0-1.89-.42,2.2,2.2,0,0,0-.65.08.33.33,0,0,0-.24.31v1.53h.21a1.78,1.78,0,0,0,1-.25,1.17,1.17,0,0,0,.47-.75h.55l0,2.49H23.6a1.52,1.52,0,0,0-.21-.57,1,1,0,0,0-.54-.41,3.4,3.4,0,0,0-.89-.13V16a1.09,1.09,0,0,0,0,.24.39.39,0,0,0,.26.09h.6a4.31,4.31,0,0,0,1.38-.16,1.86,1.86,0,0,0,.83-.5,4.58,4.58,0,0,0,.6-.85l.5,0-.08,1.89H18.93v-.41a7.7,7.7,0,0,0,1,0,.36.36,0,0,0,.17-.31m9.5-3.87c0-.11-.16-.2-.42-.2a1.55,1.55,0,0,0-.88.26,2.08,2.08,0,0,0-.59.63,2.29,2.29,0,0,0-.28.72h-.47l.12-2h7l.17,2h-.54a3,3,0,0,0-.3-.72,1.86,1.86,0,0,0-.59-.63,1.71,1.71,0,0,0-.93-.26c-.25,0-.37.09-.37.23V16a.34.34,0,0,0,.11.24.42.42,0,0,0,.25,0h.85v.41H28.39v-.41h.75a.73.73,0,0,0,.35-.07.29.29,0,0,0,.07-.21ZM35.76,16V12.29a.27.27,0,0,0-.14-.27,1.65,1.65,0,0,0-.63-.08h-.37v-.4h4.12v.4c-.27,0-.67,0-.8,0s-.3.1-.3.29V16a.23.23,0,0,0,.14.24,2.26,2.26,0,0,0,.58,0h.38v.41H34.62v-.41H35a2.86,2.86,0,0,0,.6,0,.31.31,0,0,0,.17-.27Z"/><path class="cls-4" d="M11.15,12.23h0a1,1,0,0,0-.72-.29H10.3v-.4H14v.4c-.5,0-.79.06-.79.17l0,.07a.22.22,0,0,0,.05.08l1.51,1.66L16,12.51l0-.06a.5.5,0,0,0,0-.12c0-.25-.35-.39-1-.39v-.4h3.11v.4a1.67,1.67,0,0,0-.75.19,1.8,1.8,0,0,0-.6.41l-1.64,1.92V16a.32.32,0,0,0,.09.24.53.53,0,0,0,.24.06h.84v.41H12.16v-.41H13a.53.53,0,0,0,.25-.07.24.24,0,0,0,.09-.18V14.55ZM20.06,16V12.32a1.14,1.14,0,0,0,0-.24c-.11-.15-.94-.14-1.1-.14v-.37l7.06,0,.09,1.89h-.55a2.13,2.13,0,0,0-.79-1.07,3.55,3.55,0,0,0-1.89-.42,2.2,2.2,0,0,0-.65.08.33.33,0,0,0-.24.31v1.53h.21a1.78,1.78,0,0,0,1-.25,1.17,1.17,0,0,0,.47-.75h.55l0,2.49H23.6a1.52,1.52,0,0,0-.21-.57,1,1,0,0,0-.54-.41,3.4,3.4,0,0,0-.89-.13V16a1.09,1.09,0,0,0,0,.24.39.39,0,0,0,.26.09h.6a4.31,4.31,0,0,0,1.38-.16,1.86,1.86,0,0,0,.83-.5,4.58,4.58,0,0,0,.6-.85l.5,0-.08,1.89H18.93v-.41a7.7,7.7,0,0,0,1,0A.36.36,0,0,0,20.06,16Zm9.5-3.87c0-.11-.16-.2-.42-.2a1.55,1.55,0,0,0-.88.26,2.08,2.08,0,0,0-.59.63,2.29,2.29,0,0,0-.28.72h-.47l.12-2h7l.17,2h-.54a3,3,0,0,0-.3-.72,1.86,1.86,0,0,0-.59-.63,1.71,1.71,0,0,0-.93-.26c-.25,0-.37.09-.37.23V16a.34.34,0,0,0,.11.24.42.42,0,0,0,.25,0h.85v.41H28.39v-.41h.75a.73.73,0,0,0,.35-.07.29.29,0,0,0,.07-.21ZM35.76,16V12.29a.27.27,0,0,0-.14-.27,1.65,1.65,0,0,0-.63-.08h-.37v-.4h4.12v.4c-.27,0-.67,0-.8,0s-.3.1-.3.29V16a.23.23,0,0,0,.14.24,2.26,2.26,0,0,0,.58,0h.38v.41H34.62v-.41H35a2.86,2.86,0,0,0,.6,0,.31.31,0,0,0,.17-.27Z"/></g></g></svg>