<?xml version="1.0" encoding="utf-8"?>
<!-- Generator: Adobe Illustrator 25.4.1, SVG Export Plug-In . SVG Version: 6.00 Build 0)  -->
<svg version="1.1" id="Capa_1" xmlns="http://www.w3.org/2000/svg" xmlns:xlink="http://www.w3.org/1999/xlink" x="0px" y="0px"
	 viewBox="0 0 135 46" style="enable-background:new 0 0 135 46;" xml:space="preserve">
<style type="text/css">
	.st0{fill:#38444E;}
	.st1{fill:#E64860;}
	.st2{fill:#808791;}
	.st3{clip-path:url(#SVGID_00000003102609171433928500000015299564322000486063_);fill:#E64860;}
	.st4{fill:none;stroke:#E64860;stroke-width:0.6287;stroke-miterlimit:10;}
	.st5{fill:#194374;}
	.st6{fill:#00659B;}
	.st7{fill:#DC0D6E;}
	.st8{fill:#004D80;}
	.st9{fill:#7EA9D6;}
	.st10{fill:#B6D4EF;}
	.st11{fill:#058DC7;}
	.st12{fill:#00559F;}
	.st13{fill:#134A83;}
	.st14{fill:#B51975;}
	.st15{fill:#2497D0;}
	.st16{fill:#D80F3B;}
	.st17{fill:#9BC338;}
	.st18{fill:#008541;}
	.st19{fill:#9DC438;}
	
		.st20{clip-path:url(#SVGID_00000112601154334887835690000009319721693654500487_);fill:url(#SVGID_00000006666535164344800920000009474518864683975596_);}
	
		.st21{clip-path:url(#SVGID_00000137103995803860648920000000085769322205015690_);fill:url(#SVGID_00000147194601549471514510000008170701086309305018_);}
	
		.st22{clip-path:url(#SVGID_00000151532101176734010110000003926235802644580025_);fill:url(#SVGID_00000102535929437691847950000018290102993903623846_);}
	.st23{fill:#F9BE12;}
	.st24{clip-path:url(#SVGID_00000020363561428775341040000002161369972728631192_);}
	.st25{clip-path:url(#SVGID_00000119078432717498132730000009319963000164760239_);}
	.st26{clip-path:url(#SVGID_00000164480088781021109280000011312312841449161601_);}
	.st27{clip-path:url(#SVGID_00000060735439495175515920000001470990865885014682_);}
	.st28{clip-path:url(#SVGID_00000045618591448653001980000012432903922612877979_);}
	.st29{clip-path:url(#SVGID_00000011731133433548129290000006431366937644936085_);}
	.st30{clip-path:url(#SVGID_00000062158256109236388740000011762422424325604029_);}
	.st31{clip-path:url(#SVGID_00000109027735307122544030000001391796108673329333_);}
	.st32{clip-path:url(#SVGID_00000065067898021370355690000015372689647965917622_);}
	
		.st33{clip-path:url(#SVGID_00000075162176952002309180000015265024082209239466_);fill:url(#SVGID_00000172419068341324752530000009667085851268645011_);}
	.st34{clip-path:url(#SVGID_00000137847423065669184850000016630278231802154169_);}
	.st35{clip-path:url(#SVGID_00000045614905007768535040000009548377303042058655_);}
	.st36{clip-path:url(#SVGID_00000093142161118783922120000015509446239058367629_);}
	.st37{clip-path:url(#SVGID_00000068638435543280503190000014300359213263206027_);}
	.st38{clip-path:url(#SVGID_00000067939759940747080090000018059433586839024296_);}
	.st39{clip-path:url(#SVGID_00000165217990735052446790000015222862054551882893_);}
	.st40{fill:#009BDA;}
	.st41{fill:#CE1620;}
	.st42{fill:#171915;}
	.st43{fill:#E30750;}
	.st44{fill:#5775B5;}
	.st45{fill:none;stroke:#5775B5;stroke-width:0.5802;}
	.st46{fill:#5A595C;}
	.st47{fill:#FFFFFF;}
	.st48{fill:#364F8F;}
	.st49{fill:none;stroke:#364F8F;stroke-width:0.3873;}
	.st50{fill:none;stroke:#364F8F;stroke-width:1.3345;stroke-linecap:round;}
	.st51{fill:#656362;}
	.st52{fill:#C8D44A;}
	.st53{fill:#E42E38;}
	.st54{fill:none;stroke:#FFFFFF;stroke-width:0.4523;stroke-miterlimit:10;}
	.st55{fill:#51B054;}
	.st56{fill:#0079BB;}
	.st57{fill:#086EB0;}
	.st58{fill:#99A4AB;}
	.st59{fill:#B2A7A5;}
	.st60{fill:#931340;}
	.st61{fill:#DFDCD9;}
	.st62{fill:#27A1D7;}
	.st63{fill:none;stroke:#000000;stroke-width:0.1494;stroke-linejoin:bevel;stroke-miterlimit:22.926;}
	.st64{fill:none;stroke:#000000;stroke-width:0.1585;stroke-miterlimit:22.926;}
	.st65{fill:#EA3D36;stroke:#ED1C24;stroke-width:0.1417;stroke-linejoin:round;}
	.st66{fill:#EA3D36;}
</style>
<g>
	<path class="st5" d="M21.9,12.4c0,0,3.3-3.7,9.3-3.7s9.4,3.7,9.4,3.7H21.9z"/>
	<path class="st5" d="M19.2,15.7c0,0,0.7-1,1.2-1.8c0.5-0.8,0.9-1.1,0.9-1.1l19.4,0c0,0,0.6,0.6,1,1.2c0.5,0.6,1.2,1.6,1.2,1.6h-5.5
		c0,0-0.9-1.6-2.5-1.8c-1.6-0.2-3.3,0.6-3.5,0.6h-0.8c0,0-2.6-0.7-3.4-0.6c-0.9,0.1-1.8,0.5-2.6,1.8H19.2z"/>
	<polygon class="st5" points="24.7,15.8 24.5,16.1 37.8,16.1 37.5,15.8 	"/>
	<path class="st5" d="M19.1,16.1c0,0-0.2,0.4-0.5,0.9c-0.3,0.7-0.4,1.2-0.4,1.2h5.4c0,0,0.1-0.4,0.3-1c0.2-0.6,0.5-1.1,0.5-1.1H19.1
		z"/>
	<path class="st5" d="M43.2,16.1c0,0,0.2,0.4,0.5,0.9c0.3,0.7,0.4,1.2,0.4,1.2h-5.4c0,0-0.1-0.4-0.3-1c-0.2-0.6-0.5-1.1-0.5-1.1
		H43.2z"/>
	<path class="st5" d="M23.6,18.8h-5.6c0,0-0.1,0.5-0.2,0.9c-0.1,0.4-0.1,0.9-0.1,0.9h5.8v-0.9C23.6,19.3,23.6,18.8,23.6,18.8"/>
	<path class="st5" d="M38.8,18.8h5.6c0,0,0.1,0.5,0.2,0.9c0.1,0.4,0.1,0.9,0.1,0.9h-5.8v-0.9C38.8,19.3,38.8,18.8,38.8,18.8"/>
	<polygon class="st5" points="23.8,18.1 23.7,18.4 23.7,18.8 38.7,18.8 38.7,18.4 38.6,18.1 	"/>
	<polygon class="st5" points="23.7,21.5 17.6,21.5 17.6,22.1 17.6,22.7 23.8,22.7 	"/>
	<polygon class="st5" points="38.6,21.5 44.7,21.5 44.7,22.1 44.7,22.7 38.5,22.7 	"/>
	<polygon class="st5" points="23.6,20.6 23.7,21.5 38.6,21.5 38.7,20.6 	"/>
	<path class="st5" d="M24.1,24.1h-6.4l0.1,0.5c0,0.2,0.1,0.4,0.1,0.4h6.4L24.1,24.1z"/>
	<path class="st5" d="M38.3,24.1h6.4c0,0,0,0.2-0.1,0.5c0,0.2-0.1,0.4-0.1,0.4h-6.4L38.3,24.1z"/>
	<path class="st5" d="M23.9,22.8h14.6c0,0,0,0.5-0.1,0.7c0,0.2-0.1,0.6-0.1,0.6h-14c0,0-0.2-0.5-0.2-0.7
		C23.9,23.2,23.9,22.8,23.9,22.8"/>
	<polygon class="st5" points="24.4,25 38,25 37.5,26.7 24.8,26.7 	"/>
	<polygon class="st5" points="18.4,26.7 18.6,27.4 25,27.4 24.7,26.7 	"/>
	<polygon class="st5" points="37.6,26.7 37.4,27.4 43.7,27.4 43.9,26.7 	"/>
	<path class="st5" d="M25,27.5h12.4c0,0,0,0.3-0.2,0.9c-0.2,0.6-0.4,1.1-0.4,1.1h-4.9c0,0-0.2-1.7-0.7-1.7c-0.5,0-0.7,1.6-0.7,1.6
		h-4.9c0,0-0.2-0.8-0.3-1C25.2,28.1,25,27.5,25,27.5"/>
	<polygon class="st5" points="19.7,29.4 20,29.9 25.8,29.9 25.6,29.4 	"/>
	<polygon class="st5" points="36.7,29.4 36.6,29.9 42.3,29.9 42.6,29.4 	"/>
	<polygon class="st5" points="30.6,29.4 30.5,29.9 31.9,29.9 31.9,29.4 	"/>
	<polygon class="st5" points="21.8,32.1 22.3,32.4 26.8,32.4 26.6,32.1 	"/>
	<polygon class="st5" points="35.8,32.1 35.6,32.4 40.1,32.4 40.5,32.1 	"/>
	<polygon class="st5" points="30.2,32.2 30.2,32.5 32.3,32.5 32.2,32.2 	"/>
	<path class="st5" d="M25.8,30h4.6l-0.2,2.1h-3.5c0,0-0.2-0.6-0.4-1.1C26.1,30.5,25.8,30,25.8,30"/>
	<path class="st5" d="M36.6,30h-4.6l0.2,2.1h3.6c0,0,0.2-0.6,0.4-1.1C36.3,30.5,36.6,30,36.6,30"/>
	<path class="st5" d="M30.1,32.6h-3.2c0,0,0.2,0.5,0.6,1.3c0.4,0.9,0.7,1.3,0.7,1.3s0.4,0.3,0.6,0.3c0.2,0,0.7-0.1,0.8-0.6
		C29.7,34.4,30.1,32.6,30.1,32.6"/>
	<path class="st5" d="M32.3,32.6h3.2c0,0-0.2,0.5-0.6,1.3c-0.4,0.9-0.7,1.3-0.7,1.3s-0.4,0.3-0.6,0.3c-0.2,0-0.7-0.1-0.8-0.6
		C32.7,34.4,32.3,32.6,32.3,32.6"/>
	<path class="st5" d="M29.3,35.7c-0.1-0.1-0.1-0.2-0.1-0.2h4c0,0,0,0.1-0.1,0.2c0,0-1,0.2-1.9,0.2C30.3,35.8,29.4,35.7,29.3,35.7"/>
	<polygon class="st5" points="59.4,24.7 63.4,24.7 63.4,10.5 59.4,10.5 59.4,15.6 54.3,15.6 54.3,10.5 50.3,10.5 50.3,24.7 
		54.3,24.7 54.3,19.1 59.4,19.1 	"/>
	<polygon class="st5" points="104.3,24.7 104.3,21.3 96.3,21.3 96.3,19.1 101.4,19.1 103.4,15.9 96.3,15.9 96.3,13.8 104.3,13.8 
		104.3,10.5 92.2,10.5 92.2,24.7 	"/>
	<path class="st5" d="M89.5,13.8l2-3.3h-2.6h-8.1c-2.2,0-2.4,1-2.4,2.4v8.8c0,2.3,1.4,3,2.8,3h7.3c1.8,0,2.8-0.9,2.8-2.8
		c0-1.6,0-6,0-6h-6.7l-1.8,3.4h4.6v1.2c0,0.5-0.5,0.9-1,0.9h-4v-7.5H89.5z"/>
	<path class="st5" d="M109.1,16.5v-2.7h3.8c0,0,0.9,0.3,0.9,1.3c0,1-1,1.4-1,1.4H109.1z M113.3,24.7h5.5l-5.2-5.2c1.4,0,4-0.5,4-3.6
		v-2.2c0-2.9-2.2-3.2-3.7-3.2H105v14.2l4.1,0l0-5L113.3,24.7z"/>
	<path class="st5" d="M73.4,19.2h-5v1.2c0,0.5,0.5,0.9,1,0.9h4L73.4,19.2z M73.4,15.8l0-2h-7.2l-2-3.3h2.6h8.1c2.2,0,2.4,1,2.4,2.4
		v8.8c0,2.3-1.4,3-2.8,3h-7.3c-1.8,0-2.8-0.9-2.8-2.8c0-1.6,0-6,0-6L73.4,15.8z"/>
	<path class="st5" d="M78.5,31v-1.5h1.7c0.7,0,1,0.1,1,0.7c0,0.6-0.2,0.8-1,0.8H78.5z M76.3,35.5h2.2v-2.7l2.6,2.7h2.6L81,32.7
		c1.9,0,2.4-1,2.4-2.6c0-1.9-0.8-2.5-2.7-2.5h-4.4V35.5z"/>
	<polygon class="st5" points="58.9,33.7 58.8,33.7 57.3,27.7 55,27.7 53.5,33.7 53.4,33.7 52.2,27.7 50,27.7 51.7,35.5 54.9,35.5 
		56.1,30.6 56.2,30.6 57.3,35.5 60.5,35.5 62.3,27.7 60.1,27.7 	"/>
	<polygon class="st5" points="67.8,29.4 72.2,29.4 72.2,27.7 65.6,27.7 65.6,35.5 72.2,35.5 72.2,33.8 67.8,33.8 67.8,32.4 
		71.4,32.4 71.9,30.8 67.8,30.8 	"/>
	<polygon class="st5" points="89.6,27.7 87.4,27.7 87.4,35.5 89.6,35.5 89.6,32.4 92.6,35.5 95.3,35.5 91.5,31.5 95.1,27.7 
		92.4,27.7 89.6,30.6 	"/>
	<polygon class="st5" points="100.6,29.4 104.9,29.4 104.9,27.7 98.4,27.7 98.4,35.5 105,35.5 105,33.8 100.6,33.8 100.6,32.4 
		104.2,32.4 104.7,30.8 100.6,30.8 	"/>
	<polygon class="st5" points="111.1,29.5 111.2,29.5 113.6,35.5 117.3,35.5 117.3,27.7 115.1,27.7 115.2,33.7 115.2,33.7 
		112.8,27.7 109.1,27.7 109.1,35.5 111.3,35.5 	"/>
</g>
</svg>
