<?xml version="1.0" encoding="utf-8"?>
<!-- Generator: Adobe Illustrator 25.4.1, SVG Export Plug-In . SVG Version: 6.00 Build 0)  -->
<svg version="1.1" id="Capa_1" xmlns="http://www.w3.org/2000/svg" xmlns:xlink="http://www.w3.org/1999/xlink" x="0px" y="0px"
	 viewBox="0 0 135 46" style="enable-background:new 0 0 135 46;" xml:space="preserve">
<style type="text/css">
	.st0{fill:#38444E;}
	.st1{fill:#E64860;}
	.st2{fill:#808791;}
	.st3{clip-path:url(#SVGID_00000071525169668044753130000012408204732191518389_);fill:#E64860;}
	.st4{fill:none;stroke:#E64860;stroke-width:0.6287;stroke-miterlimit:10;}
	.st5{fill:#194374;}
	.st6{fill:#00659B;}
	.st7{fill:#DC0D6E;}
	.st8{fill:#004D80;}
	.st9{fill:#7EA9D6;}
	.st10{fill:#B6D4EF;}
	.st11{fill:#058DC7;}
	.st12{fill:#00559F;}
	.st13{fill:#134A83;}
	.st14{fill:#B51975;}
	.st15{fill:#2497D0;}
	.st16{fill:#D80F3B;}
	.st17{fill:#9BC338;}
	.st18{fill:#008541;}
	.st19{fill:#9DC438;}
	
		.st20{clip-path:url(#SVGID_00000036216113851546957730000000375182663282568882_);fill:url(#SVGID_00000134953965418918727810000014409380352577543865_);}
	
		.st21{clip-path:url(#SVGID_00000060728336559488303020000003727855053104954500_);fill:url(#SVGID_00000174589021063927099700000009263885294076638366_);}
	
		.st22{clip-path:url(#SVGID_00000046340251040909599950000011894933393633101479_);fill:url(#SVGID_00000049940273486794327530000003136689920010167470_);}
	.st23{fill:#F9BE12;}
	.st24{clip-path:url(#SVGID_00000164493443064422105970000000094794845073492615_);}
	.st25{clip-path:url(#SVGID_00000133489756483030667820000004979226795328194728_);}
	.st26{clip-path:url(#SVGID_00000003800195836623104810000012997890558355184051_);}
	.st27{clip-path:url(#SVGID_00000072965604309192245010000007874395545163265185_);}
	.st28{clip-path:url(#SVGID_00000076592721206406270300000004758639111312282767_);}
	.st29{clip-path:url(#SVGID_00000049902994176996462070000016777435387503905698_);}
	.st30{clip-path:url(#SVGID_00000085217927921364651030000000440532962241562034_);}
	.st31{clip-path:url(#SVGID_00000128457213030396427380000004686492306472612283_);}
	.st32{clip-path:url(#SVGID_00000106834304510860234840000004724289164783704193_);}
	
		.st33{clip-path:url(#SVGID_00000137097419882575584430000016575664109745749949_);fill:url(#SVGID_00000057869851148182085900000014559642779280192668_);}
	.st34{clip-path:url(#SVGID_00000089557006955162514480000014036920812444328621_);}
	.st35{clip-path:url(#SVGID_00000109727680186175531530000001629344641734897066_);}
	.st36{clip-path:url(#SVGID_00000130628552342772490840000004416436477305788547_);}
	.st37{clip-path:url(#SVGID_00000060711175299682166590000009542461009035017119_);}
	.st38{clip-path:url(#SVGID_00000100379370925036230570000013210528823924756404_);}
	.st39{clip-path:url(#SVGID_00000091723727495206033850000017622880651271081400_);}
	.st40{fill:#009BDA;}
	.st41{fill:#CE1620;}
	.st42{fill:#171915;}
	.st43{fill:#E30750;}
	.st44{fill:#5775B5;}
	.st45{fill:none;stroke:#5775B5;stroke-width:0.5802;}
	.st46{fill:#5A595C;}
	.st47{fill:#FFFFFF;}
	.st48{fill:#364F8F;}
	.st49{fill:none;stroke:#364F8F;stroke-width:0.3873;}
	.st50{fill:none;stroke:#364F8F;stroke-width:1.3345;stroke-linecap:round;}
	.st51{fill:#656362;}
	.st52{fill:#C8D44A;}
	.st53{fill:#E42E38;}
	.st54{fill:none;stroke:#FFFFFF;stroke-width:0.4523;stroke-miterlimit:10;}
	.st55{fill:#51B054;}
	.st56{fill:#0079BB;}
	.st57{fill:#086EB0;}
	.st58{fill:#99A4AB;}
	.st59{fill:#B2A7A5;}
	.st60{fill:#931340;}
	.st61{fill:#DFDCD9;}
	.st62{fill:#27A1D7;}
	.st63{fill:none;stroke:#000000;stroke-width:0.1494;stroke-linejoin:bevel;stroke-miterlimit:22.926;}
	.st64{fill:none;stroke:#000000;stroke-width:0.1585;stroke-miterlimit:22.926;}
	.st65{fill:#EA3D36;stroke:#ED1C24;stroke-width:0.1417;stroke-linejoin:round;}
	.st66{fill:#EA3D36;}
</style>
<g>
	<path d="M61.6,40.1v-4.2c0-0.2,0-0.3,0-0.3c0,0-0.1-0.1-0.2-0.1c-0.1,0-0.2,0-0.5,0h-0.2v-0.5h3.3c0.6,0,1.1,0.1,1.6,0.2
		c0.4,0.2,0.8,0.4,1,0.7c0.3,0.3,0.5,0.6,0.6,1c0.1,0.4,0.2,0.8,0.2,1.3c0,0.7-0.1,1.2-0.4,1.7c-0.3,0.4-0.7,0.8-1.1,1
		c-0.5,0.2-1,0.3-1.6,0.3h-3.5v-0.5c0.1,0,0.2,0,0.3,0c0.2,0,0.3,0,0.4,0c0.1,0,0.1-0.1,0.2-0.1C61.5,40.3,61.6,40.2,61.6,40.1
		 M63.1,40c0,0.2,0,0.4,0.1,0.4c0,0.1,0.2,0.1,0.4,0.1c0.2,0,0.3,0,0.4,0c0.6,0,1-0.2,1.2-0.7c0.2-0.5,0.4-1.1,0.4-1.9
		c0-0.5-0.1-0.9-0.2-1.3c-0.1-0.4-0.3-0.7-0.5-0.9c-0.3-0.2-0.6-0.4-1.1-0.4h-0.1c-0.4,0-0.7,0.2-0.7,0.4V40z M69.7,40.1v-4.3
		c0-0.1,0-0.2,0-0.3c0,0-0.1-0.1-0.1-0.1c0,0-0.2,0-0.3,0h-0.5v-0.5l5.8,0l0.1,2.2h-0.4c-0.1-0.2-0.2-0.5-0.3-0.7
		c-0.1-0.2-0.2-0.4-0.4-0.5c-0.2-0.1-0.4-0.3-0.6-0.3c-0.3-0.1-0.6-0.1-1-0.1c-0.2,0-0.4,0-0.5,0.1c-0.1,0.1-0.2,0.2-0.2,0.4v1.8
		h0.2c0.3,0,0.6-0.1,0.8-0.3c0.2-0.2,0.3-0.5,0.4-0.9H73l0,2.9h-0.5c0-0.3-0.1-0.5-0.2-0.7c-0.1-0.2-0.3-0.4-0.4-0.5
		c-0.2-0.1-0.5-0.2-0.7-0.2v2c0,0.1,0,0.2,0,0.3c0,0,0.1,0.1,0.2,0.1c0.1,0,0.3,0,0.5,0c0.5,0,0.9-0.1,1.2-0.2
		c0.3-0.1,0.5-0.3,0.7-0.6c0.2-0.2,0.3-0.6,0.5-1l0.4,0L74.6,41h-5.8v-0.5c0.1,0,0.3,0,0.3,0c0.2,0,0.4,0,0.5-0.1
		C69.6,40.4,69.7,40.3,69.7,40.1 M77.2,35.8c-0.2-0.3-0.5-0.5-0.9-0.5v-0.5h2.1l3.4,3.9v-2.5c0-0.4-0.1-0.6-0.2-0.7
		c-0.2-0.1-0.4-0.2-0.7-0.2v-0.5h2.4v0.5c-0.3,0-0.5,0.1-0.6,0.2c-0.1,0.1-0.2,0.2-0.2,0.4c0,0.1,0,0.3,0,0.6v4.6h-0.6l-4-4.8v3.2
		c0,0.4,0.1,0.7,0.3,0.8c0.2,0.1,0.4,0.2,0.7,0.2V41h-2.5v-0.5c0.2,0,0.4,0,0.5-0.1c0.1,0,0.2-0.1,0.3-0.2c0.1-0.1,0.1-0.3,0.1-0.5
		V35.8z M86.6,35.6c0-0.2-0.1-0.2-0.3-0.2c-0.3,0-0.5,0.1-0.7,0.3c-0.2,0.2-0.4,0.4-0.5,0.7c-0.1,0.3-0.2,0.6-0.2,0.8h-0.4l0.1-2.3
		h5.7l0.1,2.3h-0.4c0-0.3-0.1-0.6-0.2-0.8c-0.1-0.3-0.3-0.5-0.5-0.7c-0.2-0.2-0.5-0.3-0.8-0.3c-0.2,0-0.3,0.1-0.3,0.2v4.6
		c0,0.1,0,0.2,0.1,0.2c0.1,0,0.3,0.1,0.6,0.1c0.1,0,0.2,0,0.3,0V41h-3.5v-0.5c0.3,0,0.5,0,0.6,0c0.1,0,0.2,0,0.2-0.1
		c0,0,0.1-0.1,0.1-0.2V35.6z M92,39.5l2.1-4.8h0.7l2.2,5.4c0.1,0.2,0.2,0.3,0.3,0.3c0.1,0.1,0.3,0.1,0.5,0.1V41h-3v-0.5H95
		c0.2,0,0.4-0.1,0.4-0.2c0-0.1,0-0.1,0-0.2l-0.4-1h-2.2c-0.1,0.3-0.2,0.6-0.2,0.8c0,0.4,0.3,0.5,0.9,0.5V41h-2.5v-0.5
		C91.4,40.5,91.7,40.1,92,39.5 M93.9,36.5L93,38.6h1.7L93.9,36.5z M99.6,35.8c0-0.1,0-0.2,0-0.2c0,0-0.1-0.1-0.2-0.1
		c-0.1,0-0.3-0.1-0.4-0.1h-0.3v-0.5h3.4v0.5h-0.5c-0.1,0-0.2,0-0.3,0.1c0,0-0.1,0.1-0.1,0.3v4.5c0,0.1,0,0.2,0.1,0.2
		c0.1,0.1,0.2,0.1,0.4,0.1c0.2,0,0.3,0,0.4,0c0.4,0,0.7-0.1,1-0.2c0.2-0.1,0.5-0.3,0.7-0.5c0.2-0.3,0.3-0.7,0.4-1.1h0.4l-0.1,2.3
		h-5.7v-0.4c0.3,0,0.5,0,0.6,0c0.1,0,0.2,0,0.2-0.1c0,0,0.1-0.2,0.1-0.3V35.8z"/>
	<path d="M61.6,40.1v-4.2c0-0.2,0-0.3,0-0.3c0,0-0.1-0.1-0.2-0.1c-0.1,0-0.2,0-0.5,0h-0.2v-0.5h3.3c0.6,0,1.1,0.1,1.6,0.2
		c0.4,0.2,0.8,0.4,1,0.7c0.3,0.3,0.5,0.6,0.6,1c0.1,0.4,0.2,0.8,0.2,1.3c0,0.7-0.1,1.2-0.4,1.7c-0.3,0.4-0.7,0.8-1.1,1
		c-0.5,0.2-1,0.3-1.6,0.3h-3.5v-0.5c0.1,0,0.2,0,0.3,0c0.2,0,0.3,0,0.4,0c0.1,0,0.1-0.1,0.2-0.1C61.5,40.3,61.6,40.2,61.6,40.1
		 M63.1,40c0,0.2,0,0.4,0.1,0.4c0,0.1,0.2,0.1,0.4,0.1c0.2,0,0.3,0,0.4,0c0.6,0,1-0.2,1.2-0.7c0.2-0.5,0.4-1.1,0.4-1.9
		c0-0.5-0.1-0.9-0.2-1.3c-0.1-0.4-0.3-0.7-0.5-0.9c-0.3-0.2-0.6-0.4-1.1-0.4h-0.1c-0.4,0-0.7,0.2-0.7,0.4V40z M69.7,40.1v-4.3
		c0-0.1,0-0.2,0-0.3c0,0-0.1-0.1-0.1-0.1c0,0-0.2,0-0.3,0h-0.5v-0.5l5.8,0l0.1,2.2h-0.4c-0.1-0.2-0.2-0.5-0.3-0.7
		c-0.1-0.2-0.2-0.4-0.4-0.5c-0.2-0.1-0.4-0.3-0.6-0.3c-0.3-0.1-0.6-0.1-1-0.1c-0.2,0-0.4,0-0.5,0.1c-0.1,0.1-0.2,0.2-0.2,0.4v1.8
		h0.2c0.3,0,0.6-0.1,0.8-0.3c0.2-0.2,0.3-0.5,0.4-0.9H73l0,2.9h-0.5c0-0.3-0.1-0.5-0.2-0.7c-0.1-0.2-0.3-0.4-0.4-0.5
		c-0.2-0.1-0.5-0.2-0.7-0.2v2c0,0.1,0,0.2,0,0.3c0,0,0.1,0.1,0.2,0.1c0.1,0,0.3,0,0.5,0c0.5,0,0.9-0.1,1.2-0.2
		c0.3-0.1,0.5-0.3,0.7-0.6c0.2-0.2,0.3-0.6,0.5-1l0.4,0L74.6,41h-5.8v-0.5c0.1,0,0.3,0,0.3,0c0.2,0,0.4,0,0.5-0.1
		C69.6,40.4,69.7,40.3,69.7,40.1 M77.2,35.8c-0.2-0.3-0.5-0.5-0.9-0.5v-0.5h2.1l3.4,3.9v-2.5c0-0.4-0.1-0.6-0.2-0.7
		c-0.2-0.1-0.4-0.2-0.7-0.2v-0.5h2.4v0.5c-0.3,0-0.5,0.1-0.6,0.2c-0.1,0.1-0.2,0.2-0.2,0.4c0,0.1,0,0.3,0,0.6v4.6h-0.6l-4-4.8v3.2
		c0,0.4,0.1,0.7,0.3,0.8c0.2,0.1,0.4,0.2,0.7,0.2V41h-2.5v-0.5c0.2,0,0.4,0,0.5-0.1c0.1,0,0.2-0.1,0.3-0.2c0.1-0.1,0.1-0.3,0.1-0.5
		V35.8z M86.6,35.6c0-0.2-0.1-0.2-0.3-0.2c-0.3,0-0.5,0.1-0.7,0.3c-0.2,0.2-0.4,0.4-0.5,0.7c-0.1,0.3-0.2,0.6-0.2,0.8h-0.4l0.1-2.3
		h5.7l0.1,2.3h-0.4c0-0.3-0.1-0.6-0.2-0.8c-0.1-0.3-0.3-0.5-0.5-0.7c-0.2-0.2-0.5-0.3-0.8-0.3c-0.2,0-0.3,0.1-0.3,0.2v4.6
		c0,0.1,0,0.2,0.1,0.2c0.1,0,0.3,0.1,0.6,0.1c0.1,0,0.2,0,0.3,0V41h-3.5v-0.5c0.3,0,0.5,0,0.6,0c0.1,0,0.2,0,0.2-0.1
		c0,0,0.1-0.1,0.1-0.2V35.6z M92,39.5l2.1-4.8h0.7l2.2,5.4c0.1,0.2,0.2,0.3,0.3,0.3c0.1,0.1,0.3,0.1,0.5,0.1V41h-3v-0.5H95
		c0.2,0,0.4-0.1,0.4-0.2c0-0.1,0-0.1,0-0.2l-0.4-1h-2.2c-0.1,0.3-0.2,0.6-0.2,0.8c0,0.4,0.3,0.5,0.9,0.5V41h-2.5v-0.5
		C91.4,40.5,91.7,40.1,92,39.5 M93.9,36.5L93,38.6h1.7L93.9,36.5z M99.6,35.8c0-0.1,0-0.2,0-0.2c0,0-0.1-0.1-0.2-0.1
		c-0.1,0-0.3-0.1-0.4-0.1h-0.3v-0.5h3.4v0.5h-0.5c-0.1,0-0.2,0-0.3,0.1c0,0-0.1,0.1-0.1,0.3v4.5c0,0.1,0,0.2,0.1,0.2
		c0.1,0.1,0.2,0.1,0.4,0.1c0.2,0,0.3,0,0.4,0c0.4,0,0.7-0.1,1-0.2c0.2-0.1,0.5-0.3,0.7-0.5c0.2-0.3,0.3-0.7,0.4-1.1h0.4l-0.1,2.3
		h-5.7v-0.4c0.3,0,0.5,0,0.6,0c0.1,0,0.2,0,0.2-0.1c0,0,0.1-0.2,0.1-0.3V35.8z"/>
	<rect x="25.2" y="16.9" class="st62" width="84.6" height="16.7"/>
	<path class="st47" d="M47.3,15.7l0.4,0.5l2.3-0.6L51,16h2.6l1,0.7l2.5-1.2l2,1.3l2.3-1h2.9l1.7-0.6l4.1,0.7l1.7-0.1l0.9,0l1-1.1
		l4.2,0.7l1.4,0.4c-0.2-0.4-0.5-0.7-0.7-1.1c-0.5,0-0.7,0-1.2-0.1c-3.3-2.2-6.3-5.1-8.6-7.8c-0.3,0.5-0.5,1.1-0.8,1.5
		c0.2,0.3,0.2,0.4,0.4,0.6c-1.1-1.3-2.1-2.5-3.1-3.8c-2,2.9-4.3,5.6-6.8,8.1c-1,0.9-2.4,2.1-3.4,2.9c0.9-0.8,2.2-1.9,3.1-2.7
		c-0.7-0.5-1.6-1.1-2.3-1.7c-0.8,0.6-1.6,1.3-2.4,1.9c0.1,0.5,0.6,1.3,0.7,1.8c-0.6-1.7-1.4-3.6-1.9-5.3c-1.5,1.8-3.1,3.5-4.8,5.1
		C47.5,15.6,47.4,15.6,47.3,15.7"/>
	<path d="M45.5,18.4c0.6-0.5,1.3-0.9,1.9-1.4c0.6-0.5,1.2-1,1.9-1.7c0.1,0.1,0.2,0.2,0.3,0.2c-0.6,0.6-1.2,1.2-1.8,1.7
		c-0.6,0.5-1.2,1-1.9,1.5L45.5,18.4z"/>
	<path d="M73.6,21.1l-2.3-2.4l0.2-0.3l2.4,2.3C73.8,20.9,73.8,21,73.6,21.1"/>
	<path d="M75.1,18.1c-1-1.1-2-2.3-3.1-3.5c-1-1.2-2-2.5-3-3.8l0.3-0.2c1,1.2,2.1,2.5,3.1,3.6c1.1,1.2,2.1,2.3,3.2,3.4
		C75.3,17.8,75.2,18,75.1,18.1"/>
	<path d="M64.1,13.4c-0.3,0.6-0.6,1.1-1,1.7c-0.3,0.5-0.7,1-1.1,1.5c-0.2-0.1-0.3-0.2-0.5-0.4c0.4-0.5,0.8-0.9,1.1-1.4
		c0.4-0.5,0.7-1,1-1.6L64.1,13.4z"/>
	<path d="M79.5,15.8c1.4,2.1,3,3,4.8,4c0.4,0.2,0.9,0.5,1.4,0.8l0,0l0,0c0.3,0.5,0.7,1,1.1,1.4c0.3,0.4,0.7,0.8,1,1.2
		c0,0,0.1,0.1,0.2,0.1c0.1,0.1,0.3,0.2,0.6,0.3c1.2,0.6,3.3,1.4,4.8,1.6l0,0l0,0c1.4,0.8,2.6,1.5,3.8,2.1c1.2,0.6,2.4,1.1,3.7,1.6
		c0.7,0.2,1.3,0.3,2,0.5c0.6,0.1,1.3,0.3,1.9,0.5l-0.1,0.3c-0.6-0.2-1.3-0.3-1.9-0.4c-0.7-0.1-1.3-0.3-2-0.5l0,0
		c-1.3-0.5-2.6-1-3.8-1.6c-1.2-0.6-2.5-1.3-3.8-2.1c-1.5-0.2-3.7-1-4.9-1.6c-0.2-0.1-0.4-0.2-0.6-0.3c-0.2-0.1-0.3-0.2-0.3-0.2l0,0
		l0,0l0,0c-0.3-0.4-0.7-0.8-1-1.2c-0.4-0.4-0.8-0.9-1.1-1.4c-0.5-0.3-0.9-0.5-1.3-0.7c-1.8-1-3.3-1.8-4.6-3.7
		c-0.1-0.2-0.2-0.3-0.3-0.5c-0.1-0.2-0.2-0.4-0.4-0.6c-0.1-0.2-0.2-0.3-0.3-0.5c-0.2,0-0.3,0-0.4,0c-0.2,0-0.4,0-0.7,0l0,0l0,0
		c-1.7-1.1-3.3-2.4-4.7-3.7c-1.4-1.3-2.6-2.6-3.7-3.9c-0.1,0.2-0.2,0.4-0.3,0.6c-0.1,0.2-0.2,0.4-0.3,0.6l0.4,0.5l2.7,3.4l-3-3.2
		c-0.6-0.7-1.1-1.3-1.6-1.9c-0.5-0.6-0.9-1.1-1.4-1.7c-1,1.4-2,2.7-3.1,4c-1.1,1.3-2.3,2.6-3.6,3.9l0,0l-0.1,0.1l0,0l-0.2,0.1
		c-0.4,0.4-1,0.9-1.6,1.4c-0.1,0.1-0.3,0.3-0.4,0.4l0,0c-0.7,0.6-0.2,0.2-1,0.9l0,0l-0.2-0.2l-0.1-0.1h0v0h0l0,0
		c0.3-0.2,0.6-0.5,0.9-0.8l0.1-0.1c0.7-0.6,1.4-1.2,1.9-1.7c-0.2-0.2-0.5-0.3-0.7-0.5c-0.4-0.3-0.9-0.6-1.3-0.9
		c-0.4,0.3-0.7,0.6-1.1,0.9c-0.3,0.3-0.7,0.5-1.1,0.9c0.1,0.4,0.3,0.7,0.4,1.1c0.1,0.2,0.2,0.5,0.2,0.7l-0.2,0.1l-0.2,0l0,0
		c-0.1-0.2-0.1-0.4-0.2-0.6c0-0.1-0.1-0.2-0.1-0.3l-0.4-1l0-0.1h0l0-0.1c-0.4-1-0.7-2-1-2.9c-0.7,0.8-1.4,1.6-2.1,2.4
		c-0.8,0.8-1.6,1.7-2.5,2.5c0,0-0.2,0.2-0.3,0.3C46.3,17,45,18,43.7,19.1c-1.3,1-2.7,2-4.2,3l0,0c-1,0.9-2.1,1.8-3.2,2.8l0,0l0,0
		c-0.4,0.3-0.8,0.6-1.2,0.9c-0.4,0.3-0.8,0.6-1.2,0.9l0,0l0,0c-0.1,0-0.2,0.1-0.3,0.1c-0.8,0.3-1.7,0.7-2.5,0.8l0-0.4
		c0.7-0.1,1.6-0.5,2.4-0.8l0.2-0.1c0.4-0.3,0.8-0.6,1.2-0.9c0.4-0.3,0.8-0.6,1.2-0.9c1-0.9,2.1-1.8,3.2-2.8l0,0l0,0l0,0
		c1.4-1,2.8-2,4.1-3c1.3-1,2.6-2.1,3.7-3.2c0,0,0,0,0,0c0,0,0.2-0.2,0.2-0.3v0l0,0c0.8-0.8,1.7-1.6,2.5-2.5c0.8-0.8,1.6-1.7,2.3-2.6
		l0.2-0.3l0.1,0.3c0.3,1,0.7,2.1,1.1,3.2l0,0c0.3-0.2,0.7-0.5,1-0.8c0.4-0.3,0.8-0.7,1.2-0.9l0,0l0.1-0.1l0.1,0.1
		c0.4,0.3,0.9,0.7,1.4,1c0.3,0.2,0.5,0.4,0.8,0.6l0.2-0.2c1.2-1.2,2.4-2.5,3.6-3.8c1.1-1.3,2.2-2.7,3.2-4.2l0.1-0.2l0.2,0.2
		c0.6,0.7,1.1,1.3,1.6,1.9c0.3,0.4,0.6,0.7,0.9,1.1c0.1-0.2,0.2-0.4,0.3-0.5c0.1-0.3,0.3-0.6,0.4-0.8l0.1-0.2L69,6.7
		c1.1,1.3,2.4,2.7,3.9,4c1.4,1.3,3,2.6,4.6,3.7c0.3,0,0.4,0,0.6,0c0.2,0,0.3,0,0.6,0l0.1,0l0,0.1c0.1,0.2,0.2,0.4,0.3,0.5
		C79.3,15.4,79.4,15.6,79.5,15.8"/>
	<polygon points="65.6,8.1 65.6,8.1 67.8,10.7 69.8,12.5 69.7,12.6 69.6,12.8 67.4,11.2 67.4,11.2 67.4,11.2 65.3,8.3 65.5,8.2 
		65.6,8.1 	"/>
	<rect x="75.3" y="14.4" transform="matrix(0.78 -0.6257 0.6257 0.78 7.0653 50.5858)" width="0.4" height="1.7"/>
	<polygon points="53.6,16.9 54.6,14.8 54.8,14.4 54.9,14.8 56.2,18.6 55.8,18.7 54.7,15.4 53.9,17 	"/>
	<path d="M55.4,19.4L55.4,19.4L55.4,19.4c0.2-0.4,0.5-0.6,0.7-0.9c2.3-2.3,4.5-4.5,6.4-7.4l0.3,0.2l0,0l0,0
		c-1.8,2.9-4.1,5.2-6.3,7.5c-0.3,0.3-0.5,0.5-0.8,0.8L55.4,19.4z"/>
	<path d="M41.9,23.3l0.9,2.1C42.5,25,42.1,25,41.6,25l-0.9-2.1C41.1,22.7,41.6,22.9,41.9,23.3"/>
	<path class="st63" d="M41.9,23.3l0.9,2.1C42.5,25,42.1,25,41.6,25l-0.9-2.1C41.1,22.7,41.6,22.9,41.9,23.3z"/>
	<polygon points="45,23.1 46,25.2 46,25.2 45,23.1 	"/>
	<polygon class="st63" points="45,23.1 46,25.2 46,25.2 45,23.1 	"/>
	<polygon points="45.1,26.8 46,28.9 42.8,25.4 41.9,23.3 	"/>
	<polygon class="st63" points="45.1,26.8 46,28.9 42.8,25.4 41.9,23.3 	"/>
	<polygon points="46.2,22.8 47.2,25 46.9,25 46.7,25 46.5,25 46.3,25 46.2,25.1 46.1,25.1 46,25.2 46,25.2 45,23.1 45.1,23 45.1,23 
		45.2,22.9 45.3,22.9 45.5,22.9 45.7,22.9 45.9,22.8 	"/>
	<polygon class="st63" points="46.2,22.8 47.2,25 46.9,25 46.7,25 46.5,25 46.3,25 46.2,25.1 46.1,25.1 46,25.2 46,25.2 45,23.1 
		45.1,23 45.1,23 45.2,22.9 45.3,22.9 45.5,22.9 45.7,22.9 45.9,22.8 	"/>
	<polygon points="46.2,22.8 47.2,24.9 47.2,24.4 46.3,22.2 	"/>
	<polygon class="st63" points="46.3,22.2 47.2,24.4 47.2,24.9 46.2,22.8 	"/>
	<polygon points="45.1,23.3 46.1,25.4 46.1,25.4 45.1,23.2 	"/>
	<polygon class="st63" points="45.1,23.2 46.1,25.4 46.1,25.4 45.1,23.3 	"/>
	<polygon points="47.9,28.9 48,29 48,29.1 48,29.2 49,31.4 48.9,31.3 48.9,31.2 48.9,31.1 48.9,28.8 47.9,26.6 	"/>
	<polygon class="st63" points="47.9,26.6 48.9,28.8 48.9,31.1 48.9,31.2 48.9,31.3 49,31.4 48,29.2 48,29.1 48,29 47.9,28.9 	"/>
	<polygon points="49.2,23.3 50.2,25.4 50.1,25.3 50,25.2 49.8,25.1 49.6,25.1 49.4,25 49.1,25 48.7,25 47.8,22.9 48.1,22.8 
		48.4,22.9 48.7,22.9 48.9,23 49.1,23.1 49.2,23.2 	"/>
	<polygon class="st63" points="49.2,23.3 50.2,25.4 50.1,25.3 50,25.2 49.8,25.1 49.6,25.1 49.4,25 49.1,25 48.7,25 47.8,22.9 
		48.1,22.8 48.4,22.9 48.7,22.9 48.9,23 49.1,23.1 49.2,23.2 	"/>
	<polygon points="49.7,30 50.6,32.1 50.6,31.5 49.7,29.4 	"/>
	<polygon class="st63" points="49.7,29.4 50.6,31.5 50.6,32.1 49.7,30 	"/>
	<polygon points="49.7,30 50.6,32.2 44.3,32.2 43.4,30.1 	"/>
	<polygon class="st63" points="49.7,30 50.6,32.2 44.3,32.2 43.4,30.1 	"/>
	<polygon points="52.4,22.8 53.4,24.9 53.4,24.4 52.4,22.2 	"/>
	<polygon class="st63" points="52.4,22.2 53.4,24.4 53.4,24.9 52.4,22.8 	"/>
	<path d="M52.4,22.8l0.9,2.1c-0.6,0-1.6,0.4-2,0.9l-2.5,2.9l-0.9-2.1l2.5-2.9c0.4-0.5,1.3-0.8,1.9-0.9H52.4z"/>
	<path class="st63" d="M52.4,22.8l0.9,2.1c-0.6,0-1.6,0.4-2,0.9l-2.5,2.9l-0.9-2.1l2.5-2.9c0.4-0.5,1.3-0.8,1.9-0.9H52.4z"/>
	<path d="M55.2,23l0.9,2.1C55.8,25,54.9,25,54.5,25l-0.9-2.1C53.8,22.9,54.8,22.8,55.2,23"/>
	<path class="st63" d="M55.2,23l0.9,2.1C55.8,25,54.9,25,54.5,25l-0.9-2.1C53.8,22.9,54.8,22.8,55.2,23z"/>
	<path d="M58.1,26.3l0.9,2.1V31v0.1l0,0.1l0,0.1v0.1l-0.9-2.1c0-0.1,0-0.2,0-0.4V26.3z"/>
	<path class="st63" d="M58.1,26.3l0.9,2.1V31v0.1l0,0.1l0,0.1v0.1l-0.9-2.1c0-0.1,0-0.2,0-0.4V26.3z"/>
	<path d="M63.2,24.4l0.9,2.1l0-0.1c-0.6-1-1.5-1.2-2.6-1.4c-0.6-0.1-1.9-0.3-2.4,0.2c-0.1,0.1-0.1,0.2-0.1,0.3v2.3l-0.9-2.1v-2.3
		c0.1-0.8,1.7-0.6,2.3-0.5C61.5,23,62.6,23.4,63.2,24.4"/>
	<path class="st63" d="M63.2,24.4l0.9,2.1l0-0.1c-0.6-1-1.5-1.2-2.6-1.4c-0.6-0.1-1.9-0.3-2.4,0.2c-0.1,0.1-0.1,0.2-0.1,0.3v2.3
		l-0.9-2.1v-2.3c0.1-0.8,1.7-0.6,2.3-0.5C61.5,23,62.6,23.4,63.2,24.4z"/>
	<path d="M60.4,27.3l0.9,2.1l-0.1-0.1l0-0.1c-0.3-0.7-1.5-0.8-2.1-0.8l-0.9-2.1C59.1,26.3,59.7,26.5,60.4,27.3"/>
	<path class="st63" d="M60.4,27.3l0.9,2.1l-0.1-0.1l0-0.1c-0.3-0.7-1.5-0.8-2.1-0.8l-0.9-2.1C59.1,26.3,59.7,26.5,60.4,27.3z"/>
	<polygon points="61.4,27.9 62.4,30.1 62.3,26.3 61.4,24.2 	"/>
	<polygon class="st63" points="61.4,24.2 62.3,26.3 62.4,30.1 61.4,27.9 	"/>
	<polygon points="61.4,29.5 61.4,29.6 60.5,27.5 60.4,27.4 	"/>
	<polygon class="st63" points="60.5,27.5 61.4,29.6 61.4,29.5 60.4,27.4 	"/>
	<polygon points="60.6,27.9 61.5,30.1 62.4,30.1 61.4,27.9 	"/>
	<polygon class="st63" points="61.4,27.9 62.4,30.1 61.5,30.1 60.6,27.9 	"/>
	<polygon points="64.2,26.7 64.2,26.8 63.3,24.7 63.2,24.6 	"/>
	<polygon class="st63" points="63.3,24.7 64.2,26.8 64.2,26.7 63.2,24.6 	"/>
	<polygon points="64.3,25.1 65.2,27.2 65.1,24.4 64.2,22.2 	"/>
	<polygon class="st63" points="64.2,22.2 65.1,24.4 65.2,27.2 64.3,25.1 	"/>
	<polygon points="63.4,25.1 64.4,27.2 65.2,27.2 64.3,25.1 	"/>
	<polygon class="st63" points="64.3,25.1 65.2,27.2 64.4,27.2 63.4,25.1 	"/>
	<polygon points="64.3,30 65.2,32.2 54.5,32.2 53.6,30.1 	"/>
	<polygon class="st63" points="64.3,30 65.2,32.2 54.5,32.2 53.6,30.1 	"/>
	<polygon points="64.3,30 65.2,32.1 65.3,29.3 64.4,27.2 	"/>
	<polygon class="st63" points="64.4,27.2 65.3,29.3 65.2,32.1 64.3,30 	"/>
	<polygon points="65.6,25.3 66.5,27.3 67.2,27.3 66.2,25.2 	"/>
	<polygon class="st63" points="66.2,25.2 67.2,27.3 66.5,27.3 65.6,25.3 	"/>
	<path d="M69.5,23.1l0.9,2.1l0-0.1L70.3,25c-0.8-0.2-1.6,0.1-2.2,0.6c-0.4,0.4-0.8,1-0.9,1.6l-0.9-2.1c0.1-0.7,0.6-1.5,1.2-1.9
		c0.5-0.4,1.2-0.6,1.9-0.4l0.1,0.1L69.5,23.1z"/>
	<path class="st63" d="M69.5,23.1l0.9,2.1l0-0.1L70.3,25c-0.8-0.2-1.6,0.1-2.2,0.6c-0.4,0.4-0.8,1-0.9,1.6l-0.9-2.1
		c0.1-0.7,0.6-1.5,1.2-1.9c0.5-0.4,1.2-0.6,1.9-0.4l0.1,0.1L69.5,23.1z"/>
	<polygon points="74.2,30 75.1,32.1 75.1,31.5 74.2,29.4 	"/>
	<polygon class="st63" points="74.2,29.4 75.1,31.5 75.1,32.1 74.2,30 	"/>
	<path d="M75.3,24.2l0.9,2.1l-0.1-0.1c-0.4-0.6-0.8-1-1.5-1.2c-0.4-0.1-0.8-0.1-1.2,0c-0.1,0-0.1,0.1-0.1,0.1c0,0,0,0.1,0,0.1v5.9
		l0,0.1l-0.9-2.1l0-0.1v-5.9l0-0.1l0.1-0.1l0.2,0l0.2,0h0.2l0.2,0l0.2,0l0.2,0l0.2,0L74,23l0.2,0.1l0.1,0.1l0.1,0.1l0.1,0.1l0.1,0.1
		l0.1,0.1l0.1,0.1l0.1,0.1l0.1,0.1l0.1,0.1L75.3,24.2z"/>
	<path class="st63" d="M75.3,24.2l0.9,2.1l-0.1-0.1c-0.4-0.6-0.8-1-1.5-1.2c-0.4-0.1-0.8-0.1-1.2,0c-0.1,0-0.1,0.1-0.1,0.1
		c0,0,0,0.1,0,0.1v5.9l0,0.1l-0.9-2.1l0-0.1v-5.9l0-0.1l0.1-0.1l0.2,0l0.2,0h0.2l0.2,0l0.2,0l0.2,0l0.2,0L74,23l0.2,0.1l0.1,0.1
		l0.1,0.1l0.1,0.1l0.1,0.1l0.1,0.1l0.1,0.1l0.1,0.1l0.1,0.1l0.1,0.1L75.3,24.2z"/>
	<polygon points="74.2,30 75.1,32.2 68.7,32.2 67.8,30.1 	"/>
	<polygon class="st63" points="74.2,30 75.1,32.2 68.7,32.2 67.8,30.1 	"/>
	<polygon points="76.3,26.5 76.3,26.7 76.4,26.8 75.5,24.6 75.4,24.5 75.3,24.4 	"/>
	<polygon class="st63" points="75.5,24.6 76.4,26.8 76.3,26.7 76.3,26.5 75.3,24.4 75.4,24.5 	"/>
	<polygon points="76.5,25.2 77.4,27.3 77.2,24.4 76.2,22.2 	"/>
	<polygon class="st63" points="76.2,22.2 77.2,24.4 77.4,27.3 76.5,25.2 	"/>
	<polygon points="75.6,25.2 76.6,27.3 77.4,27.3 76.5,25.2 	"/>
	<polygon class="st63" points="76.5,25.2 77.4,27.3 76.6,27.3 75.6,25.2 	"/>
	<path d="M78.6,22.9l0.9,2.1l0,0l-0.1,0l-0.1,0l-0.1,0h-0.1l-0.1,0h-0.1h-0.2H78l-0.9-2.1C77.5,22.8,78.2,22.7,78.6,22.9"/>
	<path class="st63" d="M78.6,22.9l0.9,2.1l0,0l-0.1,0l-0.1,0l-0.1,0h-0.1l-0.1,0h-0.1h-0.2H78l-0.9-2.1
		C77.5,22.8,78.2,22.7,78.6,22.9z"/>
	<polygon points="79.5,25.1 79.6,25.1 79.7,25.2 78.7,23.1 78.7,23 78.6,23 	"/>
	<polygon class="st63" points="78.7,23.1 79.7,25.2 79.6,25.1 79.5,25.1 78.6,22.9 78.7,23 	"/>
	<path d="M81.8,23l0.9,2.1c-0.1,0.1-0.1,0.2-0.1,0.3v5.7l0,0.1l0,0.1l-0.9-2.1l0-0.1l0-0.1v-5.7l0-0.1l0-0.1L81.8,23L81.8,23z"/>
	<path class="st63" d="M81.8,23l0.9,2.1c-0.1,0.1-0.1,0.2-0.1,0.3v5.7l0,0.1l0,0.1l-0.9-2.1l0-0.1l0-0.1v-5.7l0-0.1l0-0.1L81.8,23
		L81.8,23z"/>
	<polygon points="83.3,22.8 84.2,24.9 84.2,24.4 83.3,22.2 	"/>
	<polygon class="st63" points="83.3,22.2 84.2,24.4 84.2,24.9 83.3,22.8 	"/>
	<path d="M83.3,22.8l0.9,2.1c-0.3,0-0.6,0-0.8,0c-0.2,0-0.6,0-0.7,0.2L81.8,23c0.1-0.2,0.7-0.2,0.9-0.2H83.3z"/>
	<path class="st63" d="M83.3,22.8l0.9,2.1c-0.3,0-0.6,0-0.8,0c-0.2,0-0.6,0-0.7,0.2L81.8,23c0.1-0.2,0.7-0.2,0.9-0.2H83.3z"/>
	<polygon points="83.3,30 84.2,32.1 84.2,31.5 83.3,29.4 	"/>
	<polygon class="st63" points="83.3,29.4 84.2,31.5 84.2,32.1 83.3,30 	"/>
	<polygon points="83.3,30 84.2,32.2 78,32.2 77.1,30.1 	"/>
	<polygon class="st63" points="83.3,30 84.2,32.2 78,32.2 77.1,30.1 	"/>
	<path class="st47" d="M41.9,23.3L41.9,23.3c-0.3-0.3-0.6-0.4-1.1-0.4h-0.2v-0.6h5.6v0.6c-0.8,0-1.2,0.1-1.2,0.2c0,0,0,0.1,0,0.1
		c0,0,0,0.1,0.1,0.1l2.3,2.5l1.8-2.1c0,0,0-0.1,0-0.1c0,0,0-0.1,0-0.2c0-0.4-0.5-0.6-1.5-0.6v-0.6h4.7v0.6c-0.4,0-0.8,0.1-1.1,0.3
		c-0.4,0.2-0.7,0.4-0.9,0.6L48,26.6v2.3c0,0.2,0.1,0.3,0.1,0.4c0,0,0.2,0.1,0.4,0.1c0.2,0,0.6,0,1.3,0V30h-6.3v-0.6H44h0.6
		c0.1,0,0.3-0.1,0.4-0.1c0.1,0,0.1-0.2,0.1-0.3v-2.3L41.9,23.3z M55.3,28.9v-5.5c0-0.2,0-0.4,0-0.4c-0.2-0.2-1.4-0.2-1.6-0.2v-0.6
		l10.6,0l0.1,2.8h-0.8c-0.3-0.7-0.6-1.1-1.2-1.6c-0.8-0.5-1.9-0.6-2.8-0.6c-0.4,0-0.8,0-1,0.1c-0.2,0.1-0.4,0.3-0.4,0.5v2.3h0.3
		c0.6,0,1.1-0.1,1.4-0.4c0.4-0.3,0.6-0.7,0.7-1.1h0.8l0,3.7h-0.9c0-0.3-0.2-0.6-0.3-0.9c-0.1-0.2-0.4-0.5-0.8-0.6
		c-0.4-0.1-0.8-0.2-1.3-0.2v2.6c0,0.2,0,0.3,0,0.4c0.1,0.1,0.3,0.1,0.4,0.1c0.1,0,0.5,0,0.9,0c0.9,0,1.6-0.1,2.1-0.2
		c0.5-0.2,1-0.4,1.3-0.7c0.2-0.3,0.6-0.8,0.9-1.3l0.7,0L64.3,30H53.6v-0.6c0.5,0,0.9,0,1.4,0C55.2,29.3,55.3,29.1,55.3,28.9
		 M69.5,23.1c0-0.2-0.2-0.3-0.6-0.3c-0.5,0-0.9,0.1-1.3,0.4c-0.4,0.2-0.7,0.6-0.9,0.9c-0.2,0.3-0.4,0.7-0.4,1.1h-0.7l0.2-3h10.5
		l0.2,3h-0.8c-0.1-0.3-0.3-0.7-0.4-1.1c-0.2-0.3-0.5-0.7-0.9-0.9c-0.4-0.2-0.9-0.4-1.4-0.4c-0.4,0-0.6,0.1-0.6,0.3V29
		c0,0.1,0.1,0.3,0.2,0.4c0.1,0.1,0.3,0.1,0.4,0.1c0.4,0,0.9,0,1.3,0V30h-6.4v-0.6h1.1c0.3,0,0.4-0.1,0.5-0.1c0.1,0,0.1-0.2,0.1-0.3
		V23.1z M78.8,28.9v-5.5c0-0.2-0.1-0.4-0.2-0.4c-0.1-0.1-0.5-0.1-0.9-0.1h-0.6v-0.6h6.2v0.6c-0.4,0-1,0-1.2,0
		c-0.3,0-0.4,0.1-0.4,0.4V29c0,0.2,0.1,0.3,0.2,0.4c0.1,0,0.4,0.1,0.9,0.1h0.6V30h-6.2v-0.6h0.6c0.4,0,0.8,0,0.9-0.1
		C78.7,29.3,78.8,29.1,78.8,28.9L78.8,28.9z"/>
	<path class="st64" d="M41.9,23.3L41.9,23.3c-0.3-0.3-0.6-0.4-1.1-0.4h-0.2v-0.6h5.6v0.6c-0.8,0-1.2,0.1-1.2,0.2c0,0,0,0.1,0,0.1
		c0,0,0,0.1,0.1,0.1l2.3,2.5l1.8-2.1c0,0,0-0.1,0-0.1c0,0,0-0.1,0-0.2c0-0.4-0.5-0.6-1.5-0.6v-0.6h4.7v0.6c-0.4,0-0.8,0.1-1.1,0.3
		c-0.4,0.2-0.7,0.4-0.9,0.6L48,26.6v2.3c0,0.2,0.1,0.3,0.1,0.4c0,0,0.2,0.1,0.4,0.1c0.2,0,0.6,0,1.3,0V30h-6.3v-0.6H44h0.6
		c0.1,0,0.3-0.1,0.4-0.1c0.1,0,0.1-0.2,0.1-0.3v-2.3L41.9,23.3z M55.3,28.9v-5.5c0-0.2,0-0.4,0-0.4c-0.2-0.2-1.4-0.2-1.6-0.2v-0.6
		l10.6,0l0.1,2.8h-0.8c-0.3-0.7-0.6-1.1-1.2-1.6c-0.8-0.5-1.9-0.6-2.8-0.6c-0.4,0-0.8,0-1,0.1c-0.2,0.1-0.4,0.3-0.4,0.5v2.3h0.3
		c0.6,0,1.1-0.1,1.4-0.4c0.4-0.3,0.6-0.7,0.7-1.1h0.8l0,3.7h-0.9c0-0.3-0.2-0.6-0.3-0.9c-0.1-0.2-0.4-0.5-0.8-0.6
		c-0.4-0.1-0.8-0.2-1.3-0.2v2.6c0,0.2,0,0.3,0,0.4c0.1,0.1,0.3,0.1,0.4,0.1c0.1,0,0.5,0,0.9,0c0.9,0,1.6-0.1,2.1-0.2
		c0.5-0.2,1-0.4,1.3-0.7c0.2-0.3,0.6-0.8,0.9-1.3l0.7,0L64.3,30H53.6v-0.6c0.5,0,0.9,0,1.4,0C55.2,29.3,55.3,29.1,55.3,28.9z
		 M69.5,23.1c0-0.2-0.2-0.3-0.6-0.3c-0.5,0-0.9,0.1-1.3,0.4c-0.4,0.2-0.7,0.6-0.9,0.9c-0.2,0.3-0.4,0.7-0.4,1.1h-0.7l0.2-3h10.5
		l0.2,3h-0.8c-0.1-0.3-0.3-0.7-0.4-1.1c-0.2-0.3-0.5-0.7-0.9-0.9c-0.4-0.2-0.9-0.4-1.4-0.4c-0.4,0-0.6,0.1-0.6,0.3V29
		c0,0.1,0.1,0.3,0.2,0.4c0.1,0.1,0.3,0.1,0.4,0.1c0.4,0,0.9,0,1.3,0V30h-6.4v-0.6h1.1c0.3,0,0.4-0.1,0.5-0.1c0.1,0,0.1-0.2,0.1-0.3
		V23.1z M78.8,28.9v-5.5c0-0.2-0.1-0.4-0.2-0.4c-0.1-0.1-0.5-0.1-0.9-0.1h-0.6v-0.6h6.2v0.6c-0.4,0-1,0-1.2,0
		c-0.3,0-0.4,0.1-0.4,0.4V29c0,0.2,0.1,0.3,0.2,0.4c0.1,0,0.4,0.1,0.9,0.1h0.6V30h-6.2v-0.6h0.6c0.4,0,0.8,0,0.9-0.1
		C78.7,29.3,78.8,29.1,78.8,28.9L78.8,28.9z"/>
</g>
</svg>
