<svg id="Capa_1" data-name="Capa 1" xmlns="http://www.w3.org/2000/svg" viewBox="0 0 135 46"><defs><style>.cls-1{fill:#004d80;}</style></defs><polygon class="cls-1" points="37.23 11.87 42.35 11.87 42.35 20.25 48.81 11.87 55.17 11.87 47.91 20.47 56.08 33.67 49.73 33.67 44.44 24.49 42.35 26.94 42.35 33.67 37.23 33.67 37.23 11.87"/><path class="cls-1" d="M59.5,24.1c.28-1.93,1.38-3.24,3-3.24s2.69,1.47,2.77,3.24ZM70,27c.21-5.37-2.34-9.64-7.45-9.64-4.19,0-7.68,3.47-7.68,8.33,0,5.34,3.16,8.45,7.79,8.45,3.19,0,6.23-1.59,7.09-5.26H65.35a2.75,2.75,0,0,1-2.66,1.75c-2,0-3.1-1.45-3.19-3.63Z"/><path class="cls-1" d="M71.57,17.81H76.1v2.78h.06a4.32,4.32,0,0,1,4.29-3.09,4.58,4.58,0,0,1,1.1.12v4.74a5.71,5.71,0,0,0-1.79-.31,3.48,3.48,0,0,0-3.52,3.76v7.86H71.57Z"/><path class="cls-1" d="M83,17.81h4.53v2.78h.06a4.31,4.31,0,0,1,4.29-3.09,4.63,4.63,0,0,1,1.1.12v4.74a5.81,5.81,0,0,0-1.79-.31,3.48,3.48,0,0,0-3.52,3.76v7.86H83Z"/><path class="cls-1" d="M95.44,16.61h-.56v1.55h-.29V16.61H94v-.24h1.41Zm2.33,1.55h-.29V16.67h0l-.59,1.49H96.7l-.59-1.49h0v1.49h-.29V16.37h.45l.54,1.36.52-1.36h.45Z"/></svg>