<svg id="Capa_1" data-name="Capa 1" xmlns="http://www.w3.org/2000/svg" viewBox="0 0 135 46"><defs><style>.cls-1{fill:#194374;}</style></defs><path class="cls-1" d="M41.58,16.59a7.43,7.43,0,0,1,5.35-2.15,7.63,7.63,0,0,1,5.41,2.15Z"/><path class="cls-1" d="M40.06,18.48l.71-1a2.67,2.67,0,0,1,.55-.61H52.49s.33.35.6.7.68.94.68.94H50.63a2.2,2.2,0,0,0-1.42-1.05,5.82,5.82,0,0,0-2,.34h-.45a9.76,9.76,0,0,0-2-.34,1.9,1.9,0,0,0-1.52,1.05Z"/><polygon class="cls-1" points="43.22 18.52 43.08 18.71 50.72 18.71 50.56 18.52 43.22 18.52"/><path class="cls-1" d="M40,18.69s-.13.22-.27.51a3.73,3.73,0,0,0-.25.68h3.1a5.11,5.11,0,0,1,.19-.57c.14-.33.3-.62.3-.62Z"/><path class="cls-1" d="M53.85,18.69a4.44,4.44,0,0,1,.27.51,3.73,3.73,0,0,1,.25.68h-3.1a5.11,5.11,0,0,0-.19-.57l-.27-.62Z"/><path class="cls-1" d="M42.59,20.26H39.38s-.05.28-.11.49a2.61,2.61,0,0,0-.05.49h3.35v-.51c0-.19,0-.47,0-.47"/><path class="cls-1" d="M51.3,20.26h3.2s.06.28.11.49a2.19,2.19,0,0,1,.06.49H51.32v-.51c0-.19,0-.47,0-.47"/><polygon class="cls-1" points="42.67 19.88 42.62 20.05 42.62 20.26 51.24 20.26 51.24 20.05 51.22 19.88 42.67 19.88"/><polygon class="cls-1" points="42.65 21.81 39.11 21.81 39.11 22.14 39.11 22.52 42.7 22.52 42.65 21.81"/><polygon class="cls-1" points="51.19 21.81 54.72 21.81 54.72 22.14 54.72 22.52 51.13 22.52 51.19 21.81"/><polygon class="cls-1" points="42.59 21.3 42.65 21.79 51.19 21.81 51.27 21.3 42.59 21.3"/><path class="cls-1" d="M42.87,23.34H39.19l.06.27a1.15,1.15,0,0,0,0,.22H43Z"/><path class="cls-1" d="M51,23.34h3.67l-.06.27a1.15,1.15,0,0,1,0,.22H50.89Z"/><path class="cls-1" d="M42.73,22.55h8.38a4,4,0,0,1-.06.41c0,.11-.08.35-.08.35h-8a3.49,3.49,0,0,1-.14-.41c0-.13-.05-.35-.05-.35"/><polygon class="cls-1" points="43.03 23.85 50.83 23.85 50.56 24.78 43.25 24.78 43.03 23.85"/><polygon class="cls-1" points="39.57 24.81 39.71 25.21 43.35 25.21 43.22 24.81 39.57 24.81"/><polygon class="cls-1" points="50.62 24.81 50.48 25.21 54.12 25.21 54.26 24.81 50.62 24.81"/><path class="cls-1" d="M43.38,25.24h7.1a3.63,3.63,0,0,1-.14.52c-.1.32-.21.62-.21.62h-2.8s-.11-.95-.39-.95-.38.93-.38.93H43.74a4.52,4.52,0,0,0-.19-.6,2.62,2.62,0,0,1-.17-.52"/><polygon class="cls-1" points="40.34 26.38 40.5 26.66 43.82 26.66 43.71 26.38 40.34 26.38"/><polygon class="cls-1" points="50.13 26.38 50.02 26.66 53.34 26.66 53.5 26.38 50.13 26.38"/><polygon class="cls-1" points="46.59 26.38 46.54 26.66 47.35 26.66 47.33 26.38 46.59 26.38"/><polygon class="cls-1" points="41.56 27.93 41.8 28.1 44.39 28.1 44.31 27.93 41.56 27.93"/><polygon class="cls-1" points="49.55 27.93 49.47 28.1 52.06 28.1 52.3 27.93 49.55 27.93"/><polygon class="cls-1" points="46.37 27.96 46.35 28.13 47.57 28.13 47.49 27.96 46.37 27.96"/><path class="cls-1" d="M43.84,26.71h2.67l-.14,1.2h-2s-.13-.36-.24-.63-.25-.57-.25-.57"/><path class="cls-1" d="M50,26.71H47.35l.14,1.2h2s.13-.36.24-.63.25-.57.25-.57"/><path class="cls-1" d="M46.29,28.18H44.44s.11.27.36.76a8.24,8.24,0,0,0,.4.74.87.87,0,0,0,.36.16.49.49,0,0,0,.46-.35c.08-.28.27-1.31.27-1.31"/><path class="cls-1" d="M47.6,28.18h1.85s-.11.27-.36.76a6.65,6.65,0,0,1-.41.74.81.81,0,0,1-.35.16.48.48,0,0,1-.46-.35c-.08-.28-.27-1.31-.27-1.31"/><path class="cls-1" d="M45.85,30a.12.12,0,0,1-.06-.13h2.28A.12.12,0,0,1,48,30a5.59,5.59,0,0,1-1.07.09A5.79,5.79,0,0,1,45.85,30"/><polygon class="cls-1" points="63.14 23.65 65.47 23.65 65.47 15.51 63.14 15.51 63.14 18.43 60.22 18.43 60.22 15.51 57.89 15.51 57.89 23.65 60.22 23.65 60.22 20.41 63.14 20.41 63.14 23.65"/><polygon class="cls-1" points="88.92 23.63 88.92 21.7 84.36 21.7 84.36 20.41 87.31 20.41 88.41 18.59 84.36 18.59 84.36 17.41 88.92 17.41 88.92 15.48 82.01 15.48 82.01 23.63 88.92 23.63"/><path class="cls-1" d="M80.43,17.41l1.17-1.92H75.43c-1.26,0-1.4.58-1.4,1.37v5.07a1.49,1.49,0,0,0,1.6,1.71h4.21A1.42,1.42,0,0,0,81.45,22V18.55H77.6l-1.06,1.93h2.63v.7a.54.54,0,0,1-.55.52H76.3V17.41Z"/><path class="cls-1" d="M91.68,18.94V17.41h2.2a.76.76,0,0,1,.52.74.89.89,0,0,1-.6.79Zm2.47,4.7h3.16l-3-3a2,2,0,0,0,2.28-2.08V17.33c0-1.69-1.26-1.84-2.14-1.84H89.37v8.15l2.35,0V20.75Z"/><path class="cls-1" d="M71.18,20.48H68.32v.7a.54.54,0,0,0,.56.52H71.2Zm0-1.93V17.41H67.07l-1.18-1.92h6.17c1.26,0,1.41.58,1.41,1.37v5.07a1.5,1.5,0,0,1-1.61,1.71h-4.2A1.42,1.42,0,0,1,66,22c0-.9,0-3.46,0-3.46Z"/><path class="cls-1" d="M74.14,27.28v-.86h1c.42,0,.58,0,.58.4s-.1.46-.58.46Zm-1.27,2.59h1.27V28.32l1.5,1.55h1.52l-1.57-1.61c1.1,0,1.36-.58,1.36-1.47,0-1.12-.46-1.41-1.57-1.41H72.87Z"/><polygon class="cls-1" points="62.84 28.84 62.79 28.84 61.94 25.38 60.63 25.38 59.74 28.84 59.69 28.84 59.01 25.38 57.72 25.38 58.75 29.87 60.56 29.87 61.25 27.05 61.3 27.05 61.94 29.87 63.77 29.87 64.82 25.38 63.55 25.38 62.84 28.84"/><polygon class="cls-1" points="67.99 26.36 70.48 26.36 70.48 25.38 66.72 25.38 66.72 29.87 70.52 29.87 70.52 28.89 67.99 28.89 67.99 28.07 70.04 28.07 70.34 27.18 67.99 27.18 67.99 26.36"/><polygon class="cls-1" points="80.5 25.38 79.24 25.38 79.24 29.87 80.5 29.87 80.5 28.11 82.21 29.87 83.78 29.87 81.6 27.58 83.64 25.38 82.11 25.38 80.5 27.06 80.5 25.38"/><polygon class="cls-1" points="86.83 26.36 89.32 26.36 89.32 25.38 85.57 25.38 85.57 29.87 89.37 29.87 89.37 28.89 86.83 28.89 86.83 28.07 88.88 28.07 89.19 27.18 86.83 27.18 86.83 26.36"/><polygon class="cls-1" points="92.88 26.42 92.93 26.42 94.27 29.87 96.43 29.87 96.43 25.38 95.16 25.38 95.24 28.82 95.19 28.82 93.83 25.38 91.69 25.38 91.69 29.87 92.95 29.87 92.88 26.42"/></svg>