<svg id="Capa_1" data-name="Capa 1" xmlns="http://www.w3.org/2000/svg" viewBox="0 0 135 46"><defs><style>.cls-1{fill:#ce1620;}</style></defs><path class="cls-1" d="M37.31,15.92s16.23-4.57,30.19-4.57c19.68,0,30.19,4.89,30.19,4.89h-7A87.81,87.81,0,0,0,67.5,13.39a198,198,0,0,0-30.19,2.53"/><path class="cls-1" d="M97.69,29.76S81.46,34.65,67.5,34.65c-19.68,0-30.19-4.89-30.19-4.89h6.88A88.84,88.84,0,0,0,67.5,32.61a176.46,176.46,0,0,0,30.19-2.85"/><path class="cls-1" d="M56.67,22.6H53.49c.14-.75.67-1.12,1.6-1.12s1.52.48,1.58,1.12m2.54,1.32c0-2.89-1.82-3.75-4.35-3.75s-4.07,1.13-4.07,3.13,1.56,3.13,4.31,3.13a6.11,6.11,0,0,0,2.77-.53,2.34,2.34,0,0,0,1.31-1.33H56.4a1.54,1.54,0,0,1-1.36.48c-1.15,0-1.58-.72-1.58-1.13Z"/><path class="cls-1" d="M60.06,20.41h2.53v.72h0A3,3,0,0,1,65,20.25c1.44,0,2.53.65,2.53,2.26V26.2H64.89v-3a.92.92,0,0,0-1-1.05c-.69,0-1.22.42-1.22,1.38V26.2H60.06Z"/><path class="cls-1" d="M69.49,22H68.28V20.45h1.21v-.66c.1-.95.63-1.48,2.31-1.48.5,0,1.17,0,1.71.06v1.24h-.78c-.48,0-.63.2-.63.63v.21h1.41V22H72.1V26.2H69.49Z"/><path class="cls-1" d="M83.16,20.41h2.53v1.11h0a3,3,0,0,1,2.43-1.27,5,5,0,0,1,1,.15l-.33,2.31c-.62-.18-.69-.38-1.18-.38-.93,0-1.84.23-1.84,1.48V26.2H83.16Z"/><path class="cls-1" d="M89.52,20.45h1.21v-.78l2.61-1.13v1.91h1.41V22H93.34V24.1c0,.54.22.57.78.57l.7,0V26.2a14.36,14.36,0,0,1-1.9.12c-1.59,0-2.19-.3-2.19-1.88V22H89.52Z"/><path class="cls-1" d="M79.85,22.59H76.67c.14-.75.68-1.12,1.6-1.12s1.53.48,1.58,1.12m2.54,1.32c0-2.89-1.82-3.75-4.35-3.75S74,21.28,74,23.29s1.57,3.13,4.31,3.13a6.08,6.08,0,0,0,2.77-.53,2.32,2.32,0,0,0,1.31-1.34H79.58a1.54,1.54,0,0,1-1.36.49c-1.15,0-1.58-.72-1.58-1.13Z"/><path class="cls-1" d="M47.16,21.26c0,.48-.14.84-.88.84H44.19V20.45h2.05c.49,0,.92.24.92.81m3.1-.37a2.26,2.26,0,0,0-1-1.69A4.68,4.68,0,0,0,47,18.64H41.28V26.2h2.91V23.78h1.94L47.2,26.2h3.31l-1.64-2.7a2.54,2.54,0,0,0,1.39-2.61"/></svg>