<svg id="Capa_1" data-name="Capa 1" xmlns="http://www.w3.org/2000/svg" viewBox="0 0 135 46"><defs><style>.cls-1{fill:#656362;}.cls-2{fill:#c8d44a;}.cls-3{fill:#fff;}</style></defs><rect class="cls-1" x="49.81" y="13.62" width="0.19" height="18.75"/><path class="cls-1" d="M69.56,18.82V23a6.06,6.06,0,0,1-.16,1.86,1.76,1.76,0,0,1-1.92,1.2h0a1.82,1.82,0,0,1-2-1.46A8,8,0,0,1,65.4,23v-4.2H63.77V24c0,1.88,1.18,3.45,3.71,3.45h0A3.35,3.35,0,0,0,71.19,24V18.82Z"/><polygon class="cls-1" points="88.01 27.38 80.72 27.38 80.72 25.99 86 20.19 80.85 20.19 80.85 18.82 88.01 18.82 88.01 20.11 82.82 26.01 88.01 26.01 88.01 27.38"/><polygon class="cls-1" points="57.34 31.83 57.34 29.97 57.33 29.97 56.76 31.83 56.58 31.83 56.01 29.97 56 29.97 56 31.83 55.8 31.83 55.8 29.8 56.15 29.8 56.67 31.44 56.67 31.44 57.18 29.8 57.54 29.8 57.54 31.83 57.34 31.83"/><rect class="cls-1" x="58.34" y="29.79" width="0.23" height="2.04"/><polygon class="cls-1" points="59.96 29.99 59.96 31.83 59.73 31.83 59.73 29.99 59.13 29.99 59.13 29.79 60.57 29.79 60.57 29.99 59.96 29.99"/><path class="cls-1" d="M62,30.31a.47.47,0,0,0-.48-.35c-.23,0-.38.11-.38.31,0,.45,1.15.34,1.15,1,0,.3-.17.6-.69.6a.77.77,0,0,1-.73-.53l.21-.08a.55.55,0,0,0,.53.42c.3,0,.45-.16.45-.37,0-.52-1.14-.37-1.14-1a.55.55,0,0,1,.61-.52.67.67,0,0,1,.67.5Z"/><path class="cls-1" d="M63.17,29.79v1.44a.49.49,0,0,0,1,0V29.79h.23v1.43a.63.63,0,0,1-.71.64.64.64,0,0,1-.72-.64V29.79Z"/><rect class="cls-1" x="65.17" y="29.79" width="0.23" height="2.04"/><path class="cls-1" d="M68.51,31.22a.71.71,0,0,1-.72.64c-.45,0-.78-.33-.78-1.05s.29-1,.78-1a.67.67,0,0,1,.69.59l-.21.06c-.07-.29-.2-.46-.5-.46s-.53.27-.53.85.23.86.57.86.43-.24.5-.49Z"/><polygon class="cls-1" points="70.49 29.8 70.49 31.83 70.27 31.83 70.27 30.86 69.29 30.86 69.29 31.83 69.07 31.83 69.07 29.8 69.29 29.8 69.29 30.67 70.27 30.67 70.27 29.8 70.49 29.8"/><polygon class="cls-1" points="72.46 29.8 72.46 29.99 71.47 29.99 71.47 30.67 72.18 30.67 72.18 30.86 71.47 30.86 71.47 31.64 72.52 31.64 72.52 31.83 71.24 31.83 71.24 29.8 72.46 29.8"/><polygon class="cls-1" points="74.64 31.83 74.64 29.97 74.64 29.97 74.07 31.83 73.89 31.83 73.32 29.97 73.31 29.97 73.31 31.83 73.11 31.83 73.11 29.8 73.46 29.8 73.98 31.44 73.98 31.44 74.49 29.8 74.85 29.8 74.85 31.83 74.64 31.83"/><rect class="cls-1" x="75.65" y="29.79" width="0.23" height="2.04"/><path class="cls-1" d="M78,31.22a.71.71,0,0,1-.72.64c-.46,0-.78-.33-.78-1.05s.29-1,.78-1a.67.67,0,0,1,.69.59l-.21.06c-.07-.29-.2-.46-.51-.46s-.52.27-.52.85.23.86.57.86.43-.24.49-.49Z"/><path class="cls-1" d="M78.79,31h.62L79.11,30h0Zm-.48.83.62-2h.34l.62,2h-.23l-.2-.64h-.73l-.19.64Z"/><polygon class="cls-1" points="80.41 31.83 80.41 29.8 80.63 29.8 80.63 31.64 81.6 31.64 81.6 31.83 80.41 31.83"/><path class="cls-1" d="M83.07,30.31A.46.46,0,0,0,82.6,30c-.24,0-.38.11-.38.31,0,.45,1.14.34,1.14,1,0,.3-.16.6-.68.6a.76.76,0,0,1-.73-.53l.21-.08a.55.55,0,0,0,.53.42c.3,0,.45-.16.45-.37,0-.52-1.15-.37-1.15-1a.56.56,0,0,1,.62-.52.67.67,0,0,1,.67.5Z"/><path class="cls-1" d="M86.33,30.85v1h-.18v-.19h0a.63.63,0,0,1-.53.22c-.46,0-.8-.33-.8-1.05s.34-1,.8-1a.71.71,0,0,1,.73.59l-.21.05c-.11-.33-.27-.45-.51-.45s-.58.2-.58.85.28.86.58.86a.44.44,0,0,0,.49-.45V31h-.46v-.19Z"/><path class="cls-1" d="M87.21,30.71h.41c.31,0,.47-.11.47-.37S87.9,30,87.61,30h-.4ZM87,31.83v-2h.66c.43,0,.67.19.67.53a.52.52,0,0,1-.4.53l.43,1h-.25l-.41-.92h-.47v.92Z"/><path class="cls-1" d="M89.66,31.67c.36,0,.57-.28.57-.86S90,30,89.66,30s-.57.27-.57.85.21.86.57.86m0-1.9c.5,0,.8.36.8,1s-.3,1.05-.8,1.05-.79-.37-.79-1.05.29-1,.79-1"/><path class="cls-1" d="M91.27,29.79v1.44a.49.49,0,0,0,1,0V29.79h.22v1.43a.71.71,0,0,1-1.42,0V29.79Z"/><path class="cls-1" d="M93.43,30.73h.38c.38,0,.5-.13.5-.37s-.14-.37-.45-.37h-.43Zm-.23,1.1v-2h.71c.44,0,.63.24.63.56s-.24.56-.75.56h-.36v.91Z"/><polygon class="cls-1" points="90.88 25.97 90.88 23.88 95.89 23.88 95.89 22.57 90.88 22.57 90.88 20.22 96.29 20.22 96.29 18.82 89.28 18.82 89.28 27.38 90.88 27.38 96.41 27.38 96.41 25.97 90.88 25.97"/><path class="cls-1" d="M103.12,23.57a2.12,2.12,0,0,0,1.56-2.2A2.41,2.41,0,0,0,102,18.82H97.71v1.32h4c.94,0,1.38.43,1.38,1.23s-.39,1.2-1.67,1.2H97.71v4.8h1.63v-3.5h2.23l1.62,3.5H105Z"/><rect class="cls-1" x="55.8" y="18.82" width="1.63" height="8.56"/><polygon class="cls-1" points="72.72 27.38 72.72 18.82 74.35 18.82 74.35 26.01 79.57 26.01 79.57 27.38 72.72 27.38"/><polygon class="cls-1" points="59.81 23.03 62.63 18.82 60.88 18.82 58.35 22.65 58.35 23.41 61.36 27.38 63.17 27.38 59.81 23.03"/><path class="cls-2" d="M37.08,30a7.08,7.08,0,1,1,7.08-7.08A7.09,7.09,0,0,1,37.08,30"/><path class="cls-3" d="M37.07,20.09c-.6,0-1.31-.36-2-.36a1.16,1.16,0,0,0-1.32.86,9.84,9.84,0,0,0,.36,5.52c.57,1.37,2-2,3-2s2.54,3.33,3.11,2a9.75,9.75,0,0,0,.24-5.58c-.24-.65-.6-.8-1.34-.8s-1.41.36-2,.36"/></svg>