<svg xmlns="http://www.w3.org/2000/svg" viewBox="0 0 75 10.38"><defs><style>.cls-1{fill:#2497d0;}.cls-2{fill:#d80f3b;}</style></defs><g id="Capa_2" data-name="Capa 2"><g id="Capa_1-2" data-name="Capa 1"><path class="cls-1" d="M0,3.55V2.88H1V1.79A2.29,2.29,0,0,1,1.36.48,1.28,1.28,0,0,1,2.49,0h.35l.32,0V.79A1.79,1.79,0,0,0,2.68.72,1,1,0,0,0,2.2.83a.65.65,0,0,0-.25.3,1.18,1.18,0,0,0-.1.42,3.85,3.85,0,0,0,0,.48v.85H3.16v.67H1.83V9.79H1V3.55Z"/><path class="cls-1" d="M5.24,9.79h-.8V2.88h.8V4.17h0A2.31,2.31,0,0,1,6.13,3a2.58,2.58,0,0,1,1.39-.33v.87a2.34,2.34,0,0,0-1.12.21,1.83,1.83,0,0,0-.7.62,2.48,2.48,0,0,0-.36.91,5.63,5.63,0,0,0-.1,1.1Z"/><path class="cls-1" d="M12,5.76c.16,0,.34,0,.54-.08a1.69,1.69,0,0,0,.52-.15.41.41,0,0,0,.24-.31,1.53,1.53,0,0,0,0-.41,1.35,1.35,0,0,0-.39-1,1.85,1.85,0,0,0-1.33-.4,3.62,3.62,0,0,0-.76.08,1.74,1.74,0,0,0-.61.25,1.4,1.4,0,0,0-.42.48A2,2,0,0,0,9.63,5H8.81a2.49,2.49,0,0,1,.28-1,2.14,2.14,0,0,1,.62-.71,2.62,2.62,0,0,1,.88-.4,4.59,4.59,0,0,1,1.06-.13,3.81,3.81,0,0,1,1,.12,2,2,0,0,1,.8.36,1.61,1.61,0,0,1,.54.66,2.33,2.33,0,0,1,.19,1V8.6c0,.31.06.51.17.59s.33.07.67-.06v.63l-.27.08a1.12,1.12,0,0,1-.36.05,1.47,1.47,0,0,1-.36,0,.61.61,0,0,1-.32-.12.88.88,0,0,1-.19-.24,1.12,1.12,0,0,1-.1-.31,2,2,0,0,1,0-.35A3.38,3.38,0,0,1,10.8,10a3.15,3.15,0,0,1-.87-.12,2.06,2.06,0,0,1-.74-.37,1.81,1.81,0,0,1-.51-.62A1.93,1.93,0,0,1,8.49,8c0-1.18.81-1.87,2.42-2.08Zm1.35.4a3.85,3.85,0,0,1-1,.28l-1,.11A2.89,2.89,0,0,0,9.86,7a1.18,1.18,0,0,0-.51,1,1.22,1.22,0,0,0,.12.56A1.24,1.24,0,0,0,9.81,9a1.34,1.34,0,0,0,.48.23,2,2,0,0,0,.55.07,3.59,3.59,0,0,0,.93-.12,2.5,2.5,0,0,0,.81-.36,1.91,1.91,0,0,0,.57-.63,1.81,1.81,0,0,0,.21-.9Z"/><path class="cls-1" d="M17.05,9.79h-.8V2.88h.8v1a5.37,5.37,0,0,1,1-.83,2.3,2.3,0,0,1,1.23-.32,3.31,3.31,0,0,1,1.19.22,2.11,2.11,0,0,1,.92.77,1.72,1.72,0,0,1,.3.77,7.08,7.08,0,0,1,0,.82V9.79h-.8V5.28a2,2,0,0,0-.42-1.4,1.74,1.74,0,0,0-1.37-.47,1.83,1.83,0,0,0-.68.12,1.89,1.89,0,0,0-.56.3,2.09,2.09,0,0,0-.42.42,2,2,0,0,0-.26.51,2.68,2.68,0,0,0-.15.64c0,.21,0,.43,0,.67Z"/><path class="cls-1" d="M23.62,9.79V.19h.8v6L27.8,2.88h1.1L26.31,5.37,29.2,9.79h-.89L25.72,5.93l-1.3,1.24V9.79Z"/><path class="cls-2" d="M33.93,8.77a1.69,1.69,0,0,1-.13.63,1.78,1.78,0,0,1-.35.51,1.75,1.75,0,0,1-.53.35,1.71,1.71,0,0,1-1.26,0,1.69,1.69,0,0,1-.86-.86,1.69,1.69,0,0,1-.13-.63,1.65,1.65,0,0,1,.13-.63,1.75,1.75,0,0,1,.35-.53,1.6,1.6,0,0,1,.51-.35,1.59,1.59,0,0,1,1.26,0,1.58,1.58,0,0,1,.53.35,1.75,1.75,0,0,1,.35.53A1.65,1.65,0,0,1,33.93,8.77Z"/><path class="cls-1" d="M39.64,2.8a2.27,2.27,0,0,1,.81.79V.2h1.88V9.79h-1.8v-1a2.56,2.56,0,0,1-.9.92,2.57,2.57,0,0,1-1.27.29,2.64,2.64,0,0,1-2.09-1,3.84,3.84,0,0,1-.85-2.58,4.45,4.45,0,0,1,.84-2.86,2.71,2.71,0,0,1,2.23-1A2.42,2.42,0,0,1,39.64,2.8Zm.45,5.06a2.55,2.55,0,0,0,.41-1.52,2.32,2.32,0,0,0-.65-1.86,1.45,1.45,0,0,0-.94-.34,1.33,1.33,0,0,0-1.2.62,2.88,2.88,0,0,0-.38,1.52,2.84,2.84,0,0,0,.39,1.58,1.32,1.32,0,0,0,1.18.59A1.36,1.36,0,0,0,40.09,7.86Z"/><path class="cls-1" d="M49,2.83a3.1,3.1,0,0,1,1.23,1,3.58,3.58,0,0,1,.56,1.47,9.05,9.05,0,0,1,.06,1.41H45.66a1.73,1.73,0,0,0,.74,1.5,1.9,1.9,0,0,0,1,.26,1.57,1.57,0,0,0,1-.32,1.63,1.63,0,0,0,.38-.49h1.89A2.34,2.34,0,0,1,50.05,9a3.46,3.46,0,0,1-2.67,1,3.86,3.86,0,0,1-2.5-.87,3.44,3.44,0,0,1-1.09-2.85,3.82,3.82,0,0,1,1-2.82,3.41,3.41,0,0,1,2.54-1A4.08,4.08,0,0,1,49,2.83ZM46.2,4.44a1.94,1.94,0,0,0-.49,1.1h3.2a1.58,1.58,0,0,0-.5-1.13A1.65,1.65,0,0,0,47.31,4,1.47,1.47,0,0,0,46.2,4.44Z"/><path class="cls-1" d="M57.83,3.1A2.35,2.35,0,0,1,58.52,5V9.79h-1.9V5.47a2,2,0,0,0-.15-.86,1,1,0,0,0-1-.55,1.29,1.29,0,0,0-1.29.81A2.77,2.77,0,0,0,54,6V9.79H52.12V2.7h1.79v1A3.14,3.14,0,0,1,54.59,3,2.3,2.3,0,0,1,56,2.52,2.72,2.72,0,0,1,57.83,3.1Z"/><path class="cls-1" d="M59.85,4.08V2.76h1v-2h1.84v2h1.15V4.08H62.68V7.83a.86.86,0,0,0,.11.54,1.22,1.22,0,0,0,.68.11h.36V9.85l-.88,0a2.39,2.39,0,0,1-1.8-.46,1.39,1.39,0,0,1-.31-1V4.08Z"/><path class="cls-1" d="M68.17,5.47a3.11,3.11,0,0,0,.74-.16.57.57,0,0,0,.4-.53.61.61,0,0,0-.31-.6A1.91,1.91,0,0,0,68.1,4a1.16,1.16,0,0,0-.94.33,1.33,1.33,0,0,0-.27.65H65.1a2.8,2.8,0,0,1,.52-1.53,3.05,3.05,0,0,1,2.54-.94A4.61,4.61,0,0,1,70.24,3a1.77,1.77,0,0,1,.91,1.75V8c0,.23,0,.5,0,.82a1.15,1.15,0,0,0,.11.5.61.61,0,0,0,.28.21v.28h-2a1.86,1.86,0,0,1-.12-.41,4.28,4.28,0,0,1,0-.43,3.62,3.62,0,0,1-.89.71,2.7,2.7,0,0,1-1.36.35,2.32,2.32,0,0,1-1.6-.55,1.94,1.94,0,0,1-.64-1.56,2,2,0,0,1,1-1.9,4.58,4.58,0,0,1,1.64-.45Zm1.13.87a3,3,0,0,1-.36.18,4.13,4.13,0,0,1-.5.12L68,6.72a3.14,3.14,0,0,0-.85.25.86.86,0,0,0-.44.79.82.82,0,0,0,.27.69,1,1,0,0,0,.65.21,2,2,0,0,0,1.12-.35A1.47,1.47,0,0,0,69.3,7Z"/><path class="cls-1" d="M75,9.79H73.14V.19H75Z"/></g></g></svg>