<?xml version="1.0" encoding="utf-8"?>
<!-- Generator: Adobe Illustrator 25.4.1, SVG Export Plug-In . SVG Version: 6.00 Build 0)  -->
<svg version="1.1" id="Capa_1" xmlns="http://www.w3.org/2000/svg" xmlns:xlink="http://www.w3.org/1999/xlink" x="0px" y="0px"
	 viewBox="0 0 135 46" style="enable-background:new 0 0 135 46;" xml:space="preserve">
<style type="text/css">
	.st0{fill:#FFED00;}
</style>
<g>
	<path class="st0" d="M48.5,26.4h2.1c0.4,0,0.8,0.1,1,0.2c0.3,0.1,0.5,0.3,0.6,0.5c0.2,0.2,0.3,0.5,0.4,0.7c0.1,0.3,0.1,0.6,0.1,0.9
		c0,0.5-0.1,0.9-0.2,1.2c-0.1,0.3-0.3,0.5-0.5,0.7c-0.2,0.2-0.4,0.3-0.6,0.4c-0.3,0.1-0.6,0.1-0.9,0.1h-2.1V26.4z M49.9,27.5
		L49.9,27.5V30h0.4c0.3,0,0.5,0,0.6-0.1c0.1-0.1,0.2-0.2,0.3-0.3c0.1-0.2,0.1-0.4,0.1-0.8c0-0.5-0.1-0.8-0.2-1
		c-0.2-0.2-0.4-0.3-0.8-0.3H49.9z"/>
	<polygon class="st0" points="55.5,26.4 59.4,26.4 59.4,27.4 57,27.4 57,28.2 59.2,28.2 59.2,29.1 57,29.1 57,30 59.4,30 59.4,31.1 
		55.5,31.1 	"/>
	<polygon class="st0" points="62.2,26.4 63.5,26.4 65.3,29 65.3,26.4 66.6,26.4 66.6,31.1 65.3,31.1 63.5,28.5 63.5,31.1 62.2,31.1 
			"/>
	<polygon class="st0" points="69.2,26.4 73.6,26.4 73.6,27.6 72.1,27.6 72.1,31.1 70.7,31.1 70.7,27.6 69.2,27.6 	"/>
	<path class="st0" d="M78.6,30.3H77l-0.2,0.8h-1.5l1.7-4.7h1.6l1.7,4.7h-1.5L78.6,30.3z M78.3,29.3L78.3,29.3l-0.5-1.7l-0.5,1.7
		H78.3z"/>
	<polygon class="st0" points="82.8,26.4 84.3,26.4 84.3,29.9 86.5,29.9 86.5,31.1 82.8,31.1 	"/>
	<rect x="48.5" y="24.6" class="st0" width="38" height="0.9"/>
	<rect x="48.5" y="32" class="st0" width="0.4" height="3.2"/>
	<path class="st0" d="M49.6,35.3v-2.3H50v0.3c0.2-0.3,0.4-0.4,0.7-0.4c0.1,0,0.3,0,0.4,0.1c0.1,0.1,0.2,0.1,0.3,0.2
		c0.1,0.1,0.1,0.2,0.1,0.3c0,0.1,0,0.2,0,0.4v1.4h-0.4v-1.4c0-0.2,0-0.3,0-0.4c0-0.1-0.1-0.1-0.2-0.2c-0.1,0-0.2-0.1-0.3-0.1
		c-0.2,0-0.3,0.1-0.4,0.2C50.1,33.5,50,33.7,50,34v1.3H49.6z"/>
	<path class="st0" d="M52,35.3v-2.3h0.3v0.3c0.2-0.3,0.4-0.4,0.7-0.4c0.1,0,0.3,0,0.4,0.1c0.1,0.1,0.2,0.1,0.3,0.2
		c0.1,0.1,0.1,0.2,0.1,0.3c0,0.1,0,0.2,0,0.4v1.4h-0.4v-1.4c0-0.2,0-0.3,0-0.4c0-0.1-0.1-0.1-0.2-0.2c-0.1,0-0.2-0.1-0.3-0.1
		c-0.2,0-0.3,0.1-0.4,0.2c-0.1,0.1-0.2,0.3-0.2,0.6v1.3H52z"/>
	<path class="st0" d="M54.3,34.1c0-0.4,0.1-0.8,0.4-1c0.2-0.2,0.4-0.3,0.7-0.3c0.3,0,0.6,0.1,0.8,0.3c0.2,0.2,0.3,0.5,0.3,0.9
		c0,0.3,0,0.5-0.1,0.7c-0.1,0.2-0.2,0.3-0.4,0.4c-0.2,0.1-0.4,0.1-0.6,0.1c-0.3,0-0.6-0.1-0.8-0.3C54.4,34.8,54.3,34.5,54.3,34.1
		 M54.7,34.1L54.7,34.1c0,0.3,0.1,0.5,0.2,0.7c0.1,0.1,0.3,0.2,0.5,0.2c0.2,0,0.4-0.1,0.5-0.2c0.1-0.2,0.2-0.4,0.2-0.7
		c0-0.3-0.1-0.5-0.2-0.7c-0.1-0.1-0.3-0.2-0.5-0.2c-0.2,0-0.4,0.1-0.5,0.2C54.8,33.6,54.7,33.8,54.7,34.1"/>
	<path class="st0" d="M57.6,35.3l-0.9-2.3h0.4l0.5,1.4c0.1,0.2,0.1,0.3,0.1,0.5c0-0.1,0.1-0.3,0.1-0.4l0.5-1.4h0.4l-0.9,2.3H57.6z"
		/>
	<path class="st0" d="M60.6,35c-0.1,0.1-0.3,0.2-0.4,0.3c-0.1,0.1-0.3,0.1-0.4,0.1c-0.2,0-0.4-0.1-0.6-0.2C59.1,35,59,34.9,59,34.7
		c0-0.1,0-0.2,0.1-0.3c0.1-0.1,0.1-0.2,0.2-0.2c0.1-0.1,0.2-0.1,0.3-0.1c0.1,0,0.2,0,0.3-0.1c0.3,0,0.5-0.1,0.7-0.1
		c0-0.1,0-0.1,0-0.1c0-0.2,0-0.3-0.1-0.3c-0.1-0.1-0.2-0.1-0.4-0.1c-0.2,0-0.3,0-0.4,0.1c-0.1,0.1-0.2,0.2-0.2,0.3l-0.4-0.1
		c0-0.2,0.1-0.3,0.2-0.4s0.2-0.2,0.3-0.2c0.1-0.1,0.3-0.1,0.5-0.1c0.2,0,0.4,0,0.5,0.1c0.1,0,0.2,0.1,0.3,0.2
		c0.1,0.1,0.1,0.2,0.1,0.3c0,0.1,0,0.2,0,0.4v0.5c0,0.4,0,0.6,0,0.7c0,0.1,0,0.2,0.1,0.3h-0.4C60.7,35.2,60.6,35.1,60.6,35
		 M60.6,34.1L60.6,34.1c-0.1,0.1-0.3,0.1-0.6,0.2c-0.2,0-0.3,0.1-0.3,0.1c-0.1,0-0.1,0.1-0.2,0.1c0,0.1-0.1,0.1-0.1,0.2
		c0,0.1,0,0.2,0.1,0.3c0.1,0.1,0.2,0.1,0.3,0.1c0.1,0,0.3,0,0.4-0.1c0.1-0.1,0.2-0.2,0.3-0.3c0-0.1,0.1-0.2,0.1-0.4V34.1z"/>
	<path class="st0" d="M62.4,34.9l0.1,0.4c-0.1,0-0.2,0-0.3,0c-0.1,0-0.2,0-0.3-0.1c-0.1,0-0.1-0.1-0.2-0.2c0-0.1,0-0.2,0-0.5v-1.4
		h-0.3v-0.3h0.3v-0.6l0.4-0.2v0.8h0.4v0.3H62v1.4c0,0.1,0,0.2,0,0.2c0,0,0,0.1,0.1,0.1c0,0,0.1,0,0.1,0
		C62.3,34.9,62.3,34.9,62.4,34.9"/>
	<path class="st0" d="M62.8,35.3h0.4v-2.3h-0.4V35.3z M62.8,32.5h0.4V32h-0.4V32.5z"/>
	<path class="st0" d="M64.4,35.3l-0.9-2.3h0.4l0.5,1.4c0.1,0.2,0.1,0.3,0.1,0.5c0-0.1,0.1-0.3,0.1-0.4l0.5-1.4h0.4l-0.9,2.3H64.4z"
		/>
	<path class="st0" d="M67.5,34.5l0.4,0.1c-0.1,0.2-0.2,0.4-0.3,0.6c-0.2,0.1-0.4,0.2-0.7,0.2c-0.3,0-0.6-0.1-0.8-0.3
		c-0.2-0.2-0.3-0.5-0.3-0.9c0-0.4,0.1-0.7,0.3-0.9c0.2-0.2,0.5-0.3,0.8-0.3c0.3,0,0.6,0.1,0.7,0.3c0.2,0.2,0.3,0.5,0.3,0.9
		c0,0,0,0.1,0,0.1h-1.7c0,0.3,0.1,0.5,0.2,0.6c0.1,0.1,0.3,0.2,0.5,0.2c0.1,0,0.3,0,0.4-0.1C67.4,34.8,67.5,34.7,67.5,34.5
		 M66.3,33.9L66.3,33.9h1.3c0-0.2-0.1-0.3-0.1-0.4c-0.1-0.2-0.3-0.2-0.5-0.2c-0.2,0-0.3,0.1-0.4,0.2C66.3,33.5,66.3,33.7,66.3,33.9"
		/>
	<path class="st0" d="M69.7,35.3V32h1.2c0.2,0,0.4,0,0.5,0c0.2,0,0.3,0.1,0.4,0.2c0.1,0.1,0.2,0.2,0.3,0.3c0.1,0.1,0.1,0.3,0.1,0.4
		c0,0.3-0.1,0.5-0.3,0.7c-0.2,0.2-0.5,0.3-0.9,0.3h-0.8v1.3H69.7z M70.1,33.6L70.1,33.6h0.8c0.3,0,0.5-0.1,0.6-0.2
		c0.1-0.1,0.2-0.2,0.2-0.4c0-0.1,0-0.3-0.1-0.3s-0.2-0.2-0.3-0.2c-0.1,0-0.2,0-0.4,0h-0.8V33.6z"/>
	<path class="st0" d="M72.5,35.3v-2.3h0.3v0.4c0.1-0.2,0.2-0.3,0.2-0.3c0.1-0.1,0.2-0.1,0.2-0.1c0.1,0,0.3,0,0.4,0.1l-0.1,0.4
		c-0.1-0.1-0.2-0.1-0.3-0.1c-0.1,0-0.2,0-0.2,0.1c-0.1,0.1-0.1,0.1-0.1,0.2c0,0.1-0.1,0.3-0.1,0.5v1.2H72.5z"/>
	<path class="st0" d="M73.9,34.1c0-0.4,0.1-0.8,0.4-1c0.2-0.2,0.4-0.3,0.7-0.3c0.3,0,0.6,0.1,0.8,0.3c0.2,0.2,0.3,0.5,0.3,0.9
		c0,0.3,0,0.5-0.1,0.7c-0.1,0.2-0.2,0.3-0.4,0.4c-0.2,0.1-0.4,0.1-0.5,0.1c-0.3,0-0.6-0.1-0.8-0.3C74,34.8,73.9,34.5,73.9,34.1
		 M74.3,34.1L74.3,34.1c0,0.3,0.1,0.5,0.2,0.7c0.1,0.1,0.3,0.2,0.5,0.2c0.2,0,0.4-0.1,0.5-0.2c0.1-0.2,0.2-0.4,0.2-0.7
		c0-0.3-0.1-0.5-0.2-0.7c-0.1-0.1-0.3-0.2-0.5-0.2c-0.2,0-0.4,0.1-0.5,0.2C74.3,33.6,74.3,33.8,74.3,34.1"/>
	<path class="st0" d="M77.9,35.3V35c-0.1,0.2-0.4,0.3-0.6,0.3c-0.2,0-0.3-0.1-0.5-0.2c-0.2-0.1-0.3-0.2-0.4-0.4
		c-0.1-0.2-0.1-0.4-0.1-0.6c0-0.2,0-0.4,0.1-0.6c0.1-0.2,0.2-0.3,0.3-0.4c0.2-0.1,0.3-0.2,0.5-0.2c0.1,0,0.3,0,0.4,0.1
		c0.1,0.1,0.2,0.1,0.3,0.2V32h0.4v3.2H77.9z M76.7,34.1L76.7,34.1c0,0.3,0.1,0.5,0.2,0.7c0.1,0.1,0.3,0.2,0.4,0.2
		c0.2,0,0.3-0.1,0.4-0.2c0.1-0.1,0.2-0.4,0.2-0.7c0-0.3-0.1-0.6-0.2-0.7c-0.1-0.2-0.3-0.2-0.4-0.2c-0.2,0-0.3,0.1-0.4,0.2
		C76.8,33.6,76.7,33.8,76.7,34.1"/>
	<path class="st0" d="M80.4,35.3v-0.3c-0.2,0.3-0.4,0.4-0.7,0.4c-0.1,0-0.3,0-0.4-0.1c-0.1-0.1-0.2-0.1-0.3-0.2
		c-0.1-0.1-0.1-0.2-0.1-0.3c0-0.1,0-0.2,0-0.4v-1.5h0.4v1.3c0,0.2,0,0.3,0,0.4c0,0.1,0.1,0.2,0.2,0.2c0.1,0.1,0.2,0.1,0.3,0.1
		s0.2,0,0.3-0.1c0.1-0.1,0.2-0.1,0.2-0.2c0-0.1,0.1-0.3,0.1-0.5v-1.3h0.4v2.3H80.4z"/>
	<path class="st0" d="M82.8,34.4l0.4,0.1c0,0.3-0.1,0.5-0.3,0.6c-0.2,0.2-0.4,0.2-0.6,0.2c-0.3,0-0.6-0.1-0.8-0.3
		c-0.2-0.2-0.3-0.5-0.3-0.9c0-0.3,0-0.5,0.1-0.7c0.1-0.2,0.2-0.3,0.4-0.4c0.2-0.1,0.3-0.1,0.5-0.1c0.2,0,0.4,0.1,0.6,0.2
		c0.2,0.1,0.3,0.3,0.3,0.5l-0.4,0.1c0-0.2-0.1-0.3-0.2-0.4c-0.1-0.1-0.2-0.1-0.3-0.1c-0.2,0-0.4,0.1-0.5,0.2
		c-0.1,0.1-0.2,0.4-0.2,0.7c0,0.3,0.1,0.5,0.2,0.7c0.1,0.1,0.3,0.2,0.5,0.2c0.2,0,0.3,0,0.4-0.1C82.7,34.8,82.8,34.6,82.8,34.4"/>
	<path class="st0" d="M84.4,34.9l0.1,0.4c-0.1,0-0.2,0-0.3,0c-0.1,0-0.2,0-0.3-0.1c-0.1,0-0.1-0.1-0.2-0.2c0-0.1,0-0.2,0-0.5v-1.4
		h-0.3v-0.3h0.3v-0.6l0.4-0.2v0.8h0.4v0.3H84v1.4c0,0.1,0,0.2,0,0.2c0,0,0,0.1,0.1,0.1c0,0,0.1,0,0.1,0
		C84.3,34.9,84.3,34.9,84.4,34.9"/>
	<path class="st0" d="M84.6,34.6l0.4-0.1c0,0.2,0.1,0.3,0.2,0.4c0.1,0.1,0.2,0.1,0.4,0.1c0.2,0,0.3,0,0.4-0.1
		c0.1-0.1,0.1-0.2,0.1-0.3c0-0.1,0-0.2-0.1-0.2c-0.1,0-0.2-0.1-0.4-0.1c-0.3-0.1-0.5-0.1-0.6-0.2s-0.2-0.1-0.2-0.2
		c-0.1-0.1-0.1-0.2-0.1-0.3c0-0.1,0-0.2,0.1-0.3c0-0.1,0.1-0.2,0.2-0.2c0.1,0,0.1-0.1,0.2-0.1s0.2,0,0.3,0c0.2,0,0.3,0,0.5,0.1
		c0.1,0.1,0.2,0.1,0.3,0.2c0.1,0.1,0.1,0.2,0.1,0.4L86,33.6c0-0.1-0.1-0.2-0.1-0.3c-0.1-0.1-0.2-0.1-0.3-0.1c-0.2,0-0.3,0-0.4,0.1
		c-0.1,0.1-0.1,0.1-0.1,0.2c0,0.1,0,0.1,0,0.1c0,0,0.1,0.1,0.1,0.1c0,0,0.2,0,0.3,0.1c0.3,0.1,0.5,0.1,0.6,0.2
		c0.1,0,0.2,0.1,0.3,0.2c0.1,0.1,0.1,0.2,0.1,0.3c0,0.1,0,0.3-0.1,0.4c-0.1,0.1-0.2,0.2-0.3,0.3c-0.1,0.1-0.3,0.1-0.5,0.1
		c-0.3,0-0.5-0.1-0.7-0.2C84.7,35,84.6,34.8,84.6,34.6"/>
	<path class="st0" d="M52.5,39v-3.2h0.6l0.7,2.3c0.1,0.2,0.1,0.4,0.2,0.5c0-0.1,0.1-0.3,0.2-0.5l0.8-2.3h0.6V39h-0.4v-2.7L54.2,39
		h-0.4l-0.9-2.8V39H52.5z"/>
	<path class="st0" d="M57.6,38.7c-0.1,0.1-0.3,0.2-0.4,0.3C57.1,39,57,39,56.8,39c-0.2,0-0.4-0.1-0.6-0.2c-0.1-0.1-0.2-0.3-0.2-0.5
		c0-0.1,0-0.2,0.1-0.3c0.1-0.1,0.1-0.2,0.2-0.2c0.1-0.1,0.2-0.1,0.3-0.1c0.1,0,0.2,0,0.3-0.1c0.3,0,0.5-0.1,0.7-0.1
		c0-0.1,0-0.1,0-0.1c0-0.2,0-0.3-0.1-0.3c-0.1-0.1-0.2-0.1-0.4-0.1c-0.2,0-0.3,0-0.4,0.1c-0.1,0.1-0.2,0.2-0.2,0.3l-0.4-0.1
		c0-0.2,0.1-0.3,0.2-0.4c0.1-0.1,0.2-0.2,0.3-0.2c0.1-0.1,0.3-0.1,0.5-0.1c0.2,0,0.4,0,0.5,0.1c0.1,0,0.2,0.1,0.3,0.2
		c0.1,0.1,0.1,0.2,0.1,0.3c0,0.1,0,0.2,0,0.4V38c0,0.4,0,0.6,0,0.7c0,0.1,0,0.2,0.1,0.3h-0.4C57.7,38.9,57.7,38.8,57.6,38.7
		 M57.6,37.8L57.6,37.8c-0.1,0.1-0.3,0.1-0.6,0.2c-0.2,0-0.3,0.1-0.3,0.1c-0.1,0-0.1,0.1-0.2,0.1c0,0.1-0.1,0.1-0.1,0.2
		c0,0.1,0,0.2,0.1,0.3c0.1,0.1,0.2,0.1,0.3,0.1c0.1,0,0.3,0,0.4-0.1c0.1-0.1,0.2-0.2,0.3-0.3c0-0.1,0.1-0.2,0.1-0.4V37.8z"/>
	<path class="st0" d="M60.1,39v-0.3c-0.1,0.2-0.4,0.3-0.6,0.3c-0.2,0-0.3-0.1-0.5-0.2c-0.2-0.1-0.3-0.2-0.4-0.4
		c-0.1-0.2-0.1-0.4-0.1-0.6c0-0.2,0-0.4,0.1-0.6c0.1-0.2,0.2-0.3,0.3-0.4c0.2-0.1,0.3-0.2,0.5-0.2c0.1,0,0.3,0,0.4,0.1
		c0.1,0.1,0.2,0.1,0.3,0.2v-1.2h0.4V39H60.1z M58.9,37.8L58.9,37.8c0,0.3,0.1,0.5,0.2,0.7s0.3,0.2,0.4,0.2c0.2,0,0.3-0.1,0.4-0.2
		c0.1-0.1,0.2-0.4,0.2-0.7c0-0.3-0.1-0.6-0.2-0.7c-0.1-0.2-0.3-0.2-0.4-0.2c-0.2,0-0.3,0.1-0.4,0.2C58.9,37.2,58.9,37.5,58.9,37.8"
		/>
	<path class="st0" d="M62.6,38.2l0.4,0.1c-0.1,0.2-0.2,0.4-0.3,0.6C62.5,38.9,62.3,39,62,39c-0.3,0-0.6-0.1-0.8-0.3
		c-0.2-0.2-0.3-0.5-0.3-0.9c0-0.4,0.1-0.7,0.3-0.9c0.2-0.2,0.5-0.3,0.8-0.3c0.3,0,0.6,0.1,0.7,0.3c0.2,0.2,0.3,0.5,0.3,0.9
		c0,0,0,0.1,0,0.1h-1.7c0,0.3,0.1,0.5,0.2,0.6c0.1,0.1,0.3,0.2,0.5,0.2c0.1,0,0.3,0,0.4-0.1C62.5,38.5,62.5,38.4,62.6,38.2
		 M61.3,37.6L61.3,37.6h1.3c0-0.2-0.1-0.3-0.1-0.4c-0.1-0.2-0.3-0.2-0.5-0.2c-0.2,0-0.3,0.1-0.4,0.2C61.4,37.2,61.3,37.3,61.3,37.6"
		/>
	<path class="st0" d="M65.1,39h0.4v-2.3h-0.4V39z M65.1,36.2h0.4v-0.5h-0.4V36.2z"/>
	<path class="st0" d="M66.1,39v-2.3h0.3v0.3c0.2-0.3,0.4-0.4,0.7-0.4c0.1,0,0.3,0,0.4,0.1c0.1,0.1,0.2,0.1,0.3,0.2
		c0.1,0.1,0.1,0.2,0.1,0.3c0,0.1,0,0.2,0,0.4V39h-0.4v-1.4c0-0.2,0-0.3,0-0.4c0-0.1-0.1-0.1-0.2-0.2c-0.1,0-0.2-0.1-0.3-0.1
		c-0.2,0-0.3,0.1-0.4,0.2c-0.1,0.1-0.2,0.3-0.2,0.6V39H66.1z"/>
	<polygon class="st0" points="69.7,39 69.7,35.7 71.9,35.7 71.9,36.1 70.1,36.1 70.1,37.1 71.8,37.1 71.8,37.5 70.1,37.5 70.1,38.6 
		72,38.6 72,39 	"/>
	<path class="st0" d="M74,39v-0.3c-0.2,0.3-0.4,0.4-0.7,0.4c-0.1,0-0.3,0-0.4-0.1c-0.1-0.1-0.2-0.1-0.3-0.2
		c-0.1-0.1-0.1-0.2-0.1-0.3c0-0.1,0-0.2,0-0.4v-1.5h0.4v1.3c0,0.2,0,0.3,0,0.4c0,0.1,0.1,0.2,0.2,0.2c0.1,0.1,0.2,0.1,0.3,0.1
		c0.1,0,0.2,0,0.3-0.1c0.1-0.1,0.2-0.1,0.2-0.2c0-0.1,0.1-0.3,0.1-0.5v-1.3h0.4V39H74z"/>
	<path class="st0" d="M75,39v-2.3h0.3V37c0.1-0.2,0.2-0.3,0.2-0.3c0.1-0.1,0.2-0.1,0.2-0.1c0.1,0,0.3,0,0.4,0.1L76.1,37
		C76,37,75.9,37,75.8,37c-0.1,0-0.2,0-0.2,0.1c-0.1,0.1-0.1,0.1-0.1,0.2c0,0.1-0.1,0.3-0.1,0.5V39H75z"/>
	<path class="st0" d="M76.3,37.8c0-0.4,0.1-0.8,0.4-1c0.2-0.2,0.4-0.3,0.7-0.3c0.3,0,0.6,0.1,0.8,0.3c0.2,0.2,0.3,0.5,0.3,0.9
		c0,0.3,0,0.5-0.1,0.7s-0.2,0.3-0.4,0.4C77.8,39,77.6,39,77.4,39c-0.3,0-0.6-0.1-0.8-0.3C76.4,38.5,76.3,38.2,76.3,37.8 M76.7,37.8
		L76.7,37.8c0,0.3,0.1,0.5,0.2,0.7c0.1,0.1,0.3,0.2,0.5,0.2c0.2,0,0.4-0.1,0.5-0.2c0.1-0.2,0.2-0.4,0.2-0.7c0-0.3-0.1-0.5-0.2-0.7
		c-0.1-0.1-0.3-0.2-0.5-0.2c-0.2,0-0.4,0.1-0.5,0.2C76.8,37.3,76.7,37.5,76.7,37.8"/>
	<path class="st0" d="M78.9,39.9v-3.2h0.4v0.3c0.1-0.1,0.2-0.2,0.3-0.3c0.1-0.1,0.2-0.1,0.4-0.1c0.2,0,0.4,0.1,0.5,0.2
		c0.1,0.1,0.3,0.2,0.3,0.4c0.1,0.2,0.1,0.4,0.1,0.6c0,0.2,0,0.5-0.1,0.6c-0.1,0.2-0.2,0.3-0.4,0.4C80.2,39,80.1,39,79.9,39
		c-0.1,0-0.2,0-0.3-0.1c-0.1-0.1-0.2-0.1-0.3-0.2v1.1H78.9z M79.2,37.8L79.2,37.8c0,0.3,0.1,0.5,0.2,0.7c0.1,0.1,0.3,0.2,0.4,0.2
		c0.2,0,0.3-0.1,0.4-0.2c0.1-0.2,0.2-0.4,0.2-0.7c0-0.3-0.1-0.5-0.2-0.7c-0.1-0.1-0.3-0.2-0.4-0.2c-0.2,0-0.3,0.1-0.4,0.2
		C79.3,37.3,79.2,37.5,79.2,37.8"/>
	<path class="st0" d="M82.9,38.2l0.4,0.1c-0.1,0.2-0.2,0.4-0.3,0.6c-0.2,0.1-0.4,0.2-0.7,0.2c-0.3,0-0.6-0.1-0.8-0.3
		c-0.2-0.2-0.3-0.5-0.3-0.9c0-0.4,0.1-0.7,0.3-0.9c0.2-0.2,0.5-0.3,0.8-0.3c0.3,0,0.6,0.1,0.7,0.3c0.2,0.2,0.3,0.5,0.3,0.9
		c0,0,0,0.1,0,0.1h-1.7c0,0.3,0.1,0.5,0.2,0.6c0.1,0.1,0.3,0.2,0.5,0.2c0.1,0,0.3,0,0.4-0.1C82.8,38.5,82.8,38.4,82.9,38.2
		 M81.6,37.6L81.6,37.6h1.3c0-0.2-0.1-0.3-0.1-0.4c-0.1-0.2-0.3-0.2-0.5-0.2c-0.2,0-0.3,0.1-0.4,0.2C81.7,37.2,81.6,37.3,81.6,37.6"
		/>
	<path class="st0" d="M72.2,18.9c-2.2,0-4.1-1.8-4.1-4.1s1.8-4.1,4.1-4.1h6.4c-0.6,0.3-1.1,0.8-1.5,1.4h-4.9c-1.5,0-2.7,1.2-2.7,2.7
		c0,1.5,1.2,2.7,2.7,2.7h1.4c1.1,0,2,0.9,2,2c0,1.1-0.9,2-2,2h-7.7c0.6-0.3,1.1-0.8,1.5-1.3h6.3c0.4,0,0.7-0.3,0.7-0.7
		c0-0.4-0.3-0.7-0.7-0.7H72.2z"/>
	<path class="st0" d="M82.1,20.2H81v1.3h1.1c0.4-1.3,0.7-1.7,0.7-2c0-0.4-0.3-0.7-0.7-0.7v-1.4c1.1,0,2,0.9,2,2c0,1.1-0.9,2-2,2
		V20.2z M81,18.9L81,18.9L81,18.9h1.1v-1.4h-1.1h0V18.9z M81,12.1L81,12.1v-1.4h0h5.4l-1.4,1.4H81L81,12.1z M82.1,20.2L82.1,20.2H81
		h-2.7c-0.1,0.5-0.2,0.9-0.4,1.3H81v-1.3H82.1z M81,10.7L81,10.7v1.4c-1.5,0-2.7,1.2-2.7,2.7s1.2,2.7,2.7,2.7v1.4
		c-2.2,0-4-1.9-4-4.1C77,12.6,78.8,10.8,81,10.7"/>
	<path class="st0" d="M82.1,22.3h-4.7c-0.4,0.6-0.9,1-1.4,1.4h6.1c2.2,0,4.1-1.8,4.1-4.1c0-2.3-1.8-4.1-4.1-4.1h-1.1
		c-0.4,0-0.7-0.3-0.7-0.7c0-0.4,0.3-0.7,0.7-0.7h2.7l1.4-1.4h-4.1c-1.1,0-2,0.9-2,2s0.9,2,2,2h1.1c1.5,0,2.7,1.2,2.7,2.7
		C84.9,21,83.6,22.3,82.1,22.3"/>
	<path class="st0" d="M49.9,21.6v-1.3V21.6z M72.2,15.5L72.2,15.5h1.4c2.3,0,4.1,1.8,4.1,4.1c0,2.2-1.8,4.1-4.1,4.1H58v-2
		c0-3.9-2.8-7.2-6.5-8c0.6-0.2,1.2-0.5,1.7-0.9c3.6,1.4,6.1,4.8,6.1,8.9v0.6h14.2c1.5,0,2.7-1.2,2.7-2.7c0-1.5-1.2-2.7-2.7-2.7h-1.4
		c-1.1,0-2-0.9-2-2s0.9-2,2-2h4.5c-0.2,0.4-0.4,0.9-0.4,1.4h-4.1c-0.4,0-0.7,0.3-0.7,0.7C71.6,15.2,71.9,15.5,72.2,15.5"/>
	<path class="st0" d="M66.1,17.6c0,1.5-1.2,2.7-2.7,2.7c-1.5,0-2.7-1.2-2.7-2.7v-5.9l-1.4-0.6v6.5c0,2.2,1.8,4.1,4.1,4.1
		c2.2,0,4.1-1.8,4.1-4.1v-6.4l-1.4,0.4C66.1,11.6,66.1,16.2,66.1,17.6"/>
	<path class="st0" d="M62,17.6h0.7c0,0.4,0.3,0.7,0.7,0.7c0.4,0,0.7-0.3,0.7-0.7V12l1.4-0.1v5.7c0,1.1-0.9,2-2,2
		c-0.5,0-1-0.2-1.4-0.5V17.6z M62.7,17.6L62.7,17.6v-5.5L62,12v5.6H62.7z M61.4,17.6L61.4,17.6H62v1.5
		C61.6,18.7,61.4,18.2,61.4,17.6 M62,12L62,12l-0.7-0.1v5.7H62V12z"/>
	<path class="st0" d="M56,7.3h1.4c0,3-1.6,5.6-4,7c-0.6-0.3-1.2-0.5-1.8-0.6C54.1,12.7,56,10.3,56,7.3 M49.9,15.4L49.9,15.4
		c-0.2,0-0.5,0-0.7,0h0l0-8.2v6.8c0.2,0,0.5,0,0.7,0L49.9,15.4z"/>
	<path class="st0" d="M53.9,7.3h1.3c0,2.6-1.7,5-4.2,5.8l-0.6,0.2l0.1-6h1.3l0,3.9C53.1,10.4,53.9,9,53.9,7.3"/>
	<rect x="48.5" y="7.3" class="st0" width="1.4" height="16.3"/>
	<path class="st0" d="M49.9,21.6L49.9,21.6L49.9,21.6z M57.3,23.6L57.3,23.6H56v-2c0-2.6-1.7-4.9-4.1-5.7l0,7.7h-1.3l0-9.4l0.2,0
		c3.7,0.4,6.6,3.6,6.6,7.4V23.6z"/>
	<path class="st0" d="M58.1,8.6c1.8-0.2,3.5,0.2,5.2,0.2c1.8,0,3.6-0.4,5.3-0.2c-1.3-0.5-2.6-0.9-4.3-1.4c-0.2,0.5-0.6,0.6-1,0.6
		c-0.4,0-0.7-0.1-1-0.5C60.5,7.7,59.2,8.2,58.1,8.6"/>
	<path class="st0" d="M58.1,8.6c1.7,0.2,3.4,0.9,5.1,0.9c1.8,0,3.6-0.6,5.3-0.9c-1.1,1.2-3.2,2.4-5.3,2.3C61.2,11,59.2,9.8,58.1,8.6
		"/>
</g>
</svg>
