<?xml version="1.0" encoding="utf-8"?>
<!-- Generator: Adobe Illustrator 25.4.1, SVG Export Plug-In . SVG Version: 6.00 Build 0)  -->
<svg version="1.1" id="Capa_1" xmlns="http://www.w3.org/2000/svg" xmlns:xlink="http://www.w3.org/1999/xlink" x="0px" y="0px"
	 viewBox="0 0 135 46" style="enable-background:new 0 0 135 46;" xml:space="preserve">
<style type="text/css">
	.st0{fill:#FFED00;}
</style>
<path class="st0" d="M97.9,34.3c-0.9,0-1.9-0.2-2.8-0.5c-0.5-0.2-1-0.7-1.1-1.3c0-0.4,0.1-0.8,0.4-1.1c1-0.9,2.3-1,3.5-1v0.8
	c-0.2,0-0.5,0-0.7,0.1c-0.3,0.1-0.5,0.4-0.6,0.7c0,0.5,0,1.1,0.5,1.3c0.2,0.1,0.5,0.2,0.8,0.2V34.3z M100.9,33.7
	c-0.9,0.4-2,0.6-3,0.5v-0.8c0.4,0,0.8-0.1,1-0.3c0.3-0.4,0.4-1.2,0-1.6c-0.3-0.3-0.6-0.4-1-0.4v-0.8h0.8c1.2,0.2,2.7,0.3,3.1,1.8
	C101.9,32.8,101.4,33.4,100.9,33.7"/>
<path class="st0" d="M59.1,31.3V33c0.3,0.4,1,0.2,1.6,0.3v0.8c-1.3,0-2.8,0.3-3.6-0.3c-0.3-0.2-0.3-0.5-0.3-0.5v-2c0,0-1.2,0-1.2,0
	v-0.9h1.2v-0.6l2.4-0.5v1.1h1.6v0.9H59.1z"/>
<path class="st0" d="M92.9,34.2c0,0-2.4,0-2.4,0v-2.1c-0.1-0.3-0.2-0.6-0.5-0.8c-0.5-0.1-0.9-0.1-1.4,0.1c-0.2,0.2-0.3,0.4-0.3,0.8
	v2h-2.4v-2.8c0-0.3-0.1-0.6-0.1-0.9h2.4l0,0.6c1.2-0.7,3-0.8,4.2-0.2C93.2,31.7,92.7,33.1,92.9,34.2"/>
<path class="st0" d="M81.9,34.1c0,0,0.1-2-0.1-2.5c-0.3-0.4-1-0.3-1.5-0.2c-0.2,0-0.4,0.2-0.5,0.4c-0.1,0-0.1,2.4-0.1,2.4h-2.4v-5.3
	h2.4v2c0,0,0.6-0.3,1-0.4c1.1-0.2,2.2-0.2,3.1,0.3c0.3,0.2,0.5,0.6,0.6,1v2.2H81.9z"/>
<path class="st0" d="M73.8,31.7c0-0.3-0.2-0.5-0.5-0.6c-0.4-0.1-0.9,0-1.3,0.2c-0.3,0.3-0.4,1.3-0.2,1.6c0.2,0.4,0.6,0.5,1,0.5
	c0.3,0,0.5-0.1,0.7-0.3c0.1-0.1,0.2-0.2,0.2-0.4h2.4c0,0.3-0.1,0.5-0.3,0.7c-1.2,0.9-2.9,0.8-4.4,0.7c-0.8-0.2-1.7-0.4-2.1-1.2
	c-0.2-0.5-0.1-1,0.1-1.4c1.2-1.4,3.3-1.3,5.1-1c0.7,0.2,1.5,0.4,1.7,1.3L73.8,31.7z"/>
<path class="st0" d="M46.8,31.5c-0.8,0-1.8,0-2.3,0.8c0,0.6,0,1.8,0,1.8h-2.4c0-1.2,0.1-2.5-0.1-3.7l2.4,0v0.8
	c0.6-0.6,1.5-0.8,2.4-0.8v0.1V31.5z"/>
<path class="st0" d="M37,34.1c-0.4-0.1-0.8-0.2-1.2-0.4v1.8h-2.5v-4.4c0-0.3-0.1-0.6-0.1-0.8l2.5,0v0.5c0.4-0.2,0.8-0.4,1.3-0.5v0.7
	c-0.4,0-0.9,0.1-1.1,0.5C35.7,32,35.7,32.7,36,33c0.2,0.2,0.6,0.3,0.9,0.3V34.1z M39.9,33.7c-0.9,0.4-1.9,0.6-2.9,0.4v-0.8
	c0.2,0,0.5-0.1,0.7-0.1c0.7-0.3,0.5-1,0.3-1.6c-0.2-0.3-0.5-0.5-0.8-0.5H37v-0.7c1-0.2,2.1,0,3,0.4c0.5,0.3,0.7,0.8,0.8,1.2
	C40.8,32.7,40.5,33.4,39.9,33.7"/>
<path class="st0" d="M51.2,34.2c-1.1,0-2.3-0.2-3.2-0.6c-0.5-0.4-0.8-0.9-0.7-1.6c0.6-1.6,2.3-1.6,3.8-1.7V31c-0.4,0-0.8,0.1-1,0.3
	c-0.2,0.3-0.3,0.8-0.2,1.2c0.1,0.3,0.2,0.6,0.5,0.6c0.2,0.1,0.5,0.2,0.8,0.2V34.2z M54.2,33.6c-0.9,0.4-1.9,0.6-3,0.6v-0.8
	c0.4,0,0.7-0.1,1-0.3c0.3-0.4,0.3-1,0.1-1.4c0-0.3-0.3-0.5-0.6-0.6c-0.2,0-0.4-0.1-0.6-0.1v-0.7c0.3,0,0.6,0,0.9,0
	c1.2,0.1,2.7,0.3,3,1.7C55.1,32.6,54.7,33.2,54.2,33.6"/>
<path class="st0" d="M63.8,32.6c-0.1,0.1,0,0.3,0.1,0.5c0.3,0.4,0.7,0.5,1.1,0.5v0.7c-1.1,0-2.1-0.2-2.9-0.7c-0.5-0.4-0.6-1-0.5-1.6
	c0.5-1.4,2-1.5,3.4-1.5V31c-0.3,0-0.7,0.1-1,0.3c-0.1,0.1-0.2,0.3-0.2,0.4l1.1,0v0.8H63.8z M65,30.3L65,30.3
	c1.3,0.1,2.6,0.1,3.3,1.2c0.2,0.3,0.2,0.6,0.2,1H65v-0.8l1.2,0v-0.2c-0.1-0.2-0.3-0.4-0.4-0.5C65.5,31.1,65.2,31,65,31V30.3z
	 M65,33.5c0.2,0,0.4,0,0.6,0c0.3,0,0.6-0.2,0.6-0.5h2.2c-0.2,0.7-0.9,0.9-1.5,1.1c-0.6,0.1-1.3,0.2-1.9,0.2V33.5z"/>
<path class="st0" d="M77.3,23.2c-5,1.9-10.4,2.8-16,3.2c-0.7,0-1.3-0.5-1.6-1.1c-0.6-2.4-3.4-2.1-5-3.5c-1.3-0.9-2.4-2.3-2-3.9
	c0.3-1.7,2.1-2.7,3.4-3.3c2-0.8,3.7-1.3,5.5-2c3.9-1,7.8-1.8,11.9-2.1c0.6,0.1,1.3,0.5,1.6,1.1c0.3,2.7,3.4,2.3,4.9,3.7
	c1,0.7,2,1.6,2.2,2.9C82.3,20.9,79.4,22.3,77.3,23.2 M77.1,17.8l-3.8,0c0-0.4-0.2-0.8-0.4-1.1c-1.3-1.7-3.5-1.8-5.5-1.7
	c-0.1,0-0.2,0-0.3,0c-0.8,0.1-1.5,0.5-2.2,0.8c0,0,0-0.8,0-0.8H61c0,0,0,2.8,0,2.8h0h-3.2v0.6c1,0,3.2,0,3.2,0v4.9h4.2v-2.9
	c0.6,0.3,1.2,0.5,1.9,0.7c1.3,0.2,2.7,0.1,3.9-0.3c1-0.3,2.2-1.2,2.3-2.4h3.8C77.1,18.3,77.1,17.8,77.1,17.8z M68.7,19.3
	c-0.4,0.4-1,0.6-1.6,0.6c-0.2,0-0.5,0-0.7-0.1c-0.4-0.1-0.8-0.3-1.1-0.7c-0.3-0.6-0.3-1.5,0.1-2.2c0.4-0.5,1-0.6,1.7-0.6
	c0.4,0,0.8,0.1,1.1,0.2c0.6,0.3,0.8,0.9,0.9,1.4C69.1,18.4,69,18.9,68.7,19.3z"/>
</svg>
