<?xml version="1.0" encoding="utf-8"?>
<!-- Generator: Adobe Illustrator 25.4.1, SVG Export Plug-In . SVG Version: 6.00 Build 0)  -->
<svg version="1.1" id="Capa_1" xmlns="http://www.w3.org/2000/svg" xmlns:xlink="http://www.w3.org/1999/xlink" x="0px" y="0px"
	 viewBox="0 0 135 46" style="enable-background:new 0 0 135 46;" xml:space="preserve">
<style type="text/css">
	.st0{fill:#38444E;}
	.st1{fill:#E64860;}
	.st2{fill:#808791;}
	.st3{clip-path:url(#SVGID_00000050632486015605497740000017212621787306874254_);fill:#E64860;}
	.st4{fill:none;stroke:#E64860;stroke-width:0.6287;stroke-miterlimit:10;}
	.st5{fill:#194374;}
	.st6{fill:#00659B;}
	.st7{fill:#DC0D6E;}
	.st8{fill:#004D80;}
	.st9{fill:#7EA9D6;}
	.st10{fill:#B6D4EF;}
	.st11{fill:#058DC7;}
	.st12{fill:#00559F;}
	.st13{fill:#134A83;}
	.st14{fill:#B51975;}
	.st15{fill:#2497D0;}
	.st16{fill:#D80F3B;}
	.st17{fill:#9BC338;}
	.st18{fill:#008541;}
	.st19{fill:#9DC438;}
	
		.st20{clip-path:url(#SVGID_00000044165334125557841920000017487799992586792875_);fill:url(#SVGID_00000085952675501474018180000017801975457996730298_);}
	
		.st21{clip-path:url(#SVGID_00000097471777688350677660000005306131628243102124_);fill:url(#SVGID_00000141427487402733627550000003021182842722861958_);}
	
		.st22{clip-path:url(#SVGID_00000030470981328748857760000005301531299062647993_);fill:url(#SVGID_00000055678458176275350420000010824601165870554042_);}
	.st23{fill:#F9BE12;}
	.st24{clip-path:url(#SVGID_00000018234512954942052710000002393188839216561331_);}
	.st25{clip-path:url(#SVGID_00000043450459836312418830000010302262511317175481_);}
	.st26{clip-path:url(#SVGID_00000111882289407797539670000005959739165591644545_);}
	.st27{clip-path:url(#SVGID_00000122722682488283395630000017592088731875762869_);}
	.st28{clip-path:url(#SVGID_00000047032154678169913670000007731136328833257618_);}
	.st29{clip-path:url(#SVGID_00000061463855221371181180000001130952285589327509_);}
	.st30{clip-path:url(#SVGID_00000103974403947073127610000010098484385330804352_);}
	.st31{clip-path:url(#SVGID_00000084526692111336404540000002276978270781235375_);}
	.st32{clip-path:url(#SVGID_00000122699183416532064380000000009901733108656783_);}
	
		.st33{clip-path:url(#SVGID_00000175323030291007501860000006082299667282814891_);fill:url(#SVGID_00000124161512606301906100000017020672612264301184_);}
	.st34{clip-path:url(#SVGID_00000180359741120680862450000002758024741653016193_);}
	.st35{clip-path:url(#SVGID_00000160885450634491486860000016545913424525025936_);}
	.st36{clip-path:url(#SVGID_00000022518260775112513290000017970271028226329991_);}
	.st37{clip-path:url(#SVGID_00000074402361227203816000000009641287163758331317_);}
	.st38{clip-path:url(#SVGID_00000023998266819614948790000012489317106483116718_);}
	.st39{clip-path:url(#SVGID_00000033336020307247307510000003348512418498198152_);}
	.st40{fill:#009BDA;}
	.st41{fill:#CE1620;}
	.st42{fill:#171915;}
	.st43{fill:#E30750;}
	.st44{fill:#5775B5;}
	.st45{fill:none;stroke:#5775B5;stroke-width:0.5802;}
	.st46{fill:#5A595C;}
	.st47{fill:#FFFFFF;}
	.st48{fill:#364F8F;}
	.st49{fill:none;stroke:#364F8F;stroke-width:0.3873;}
	.st50{fill:none;stroke:#364F8F;stroke-width:1.3345;stroke-linecap:round;}
	.st51{fill:#656362;}
	.st52{fill:#C8D44A;}
	.st53{fill:#E42E38;}
	.st54{fill:none;stroke:#FFFFFF;stroke-width:0.4523;stroke-miterlimit:10;}
	.st55{fill:#51B054;}
	.st56{fill:#0079BB;}
	.st57{fill:#086EB0;}
	.st58{fill:#99A4AB;}
	.st59{fill:#B2A7A5;}
	.st60{fill:#931340;}
	.st61{fill:#DFDCD9;}
	.st62{fill:#27A1D7;}
	.st63{fill:none;stroke:#000000;stroke-width:0.1494;stroke-linejoin:bevel;stroke-miterlimit:22.926;}
	.st64{fill:none;stroke:#000000;stroke-width:0.1585;stroke-miterlimit:22.926;}
	.st65{fill:#EA3D36;stroke:#ED1C24;stroke-width:0.1417;stroke-linejoin:round;}
	.st66{fill:#EA3D36;}
</style>
<g>
	<path class="st42" d="M113.1,39.9c-1.4,0-2.9-0.3-4.2-0.8c-0.8-0.3-1.6-1-1.6-2c-0.1-0.7,0.1-1.2,0.5-1.6c1.4-1.3,3.4-1.5,5.3-1.5
		v1.2c-0.4,0-0.7,0.1-1,0.2c-0.5,0.1-0.8,0.7-0.9,1.1c-0.1,0.8-0.1,1.6,0.7,2c0.3,0.2,0.7,0.2,1.2,0.3V39.9z M117.6,39.1
		c-1.4,0.6-3,0.9-4.5,0.8v-1.2c0.5,0,1.1-0.1,1.5-0.5c0.4-0.7,0.6-1.8,0-2.5c-0.4-0.4-1-0.6-1.5-0.6V34h1.2c1.8,0.2,4.1,0.5,4.7,2.7
		C119.1,37.7,118.5,38.6,117.6,39.1"/>
	<path class="st42" d="M55,35.4V38c0.4,0.7,1.5,0.3,2.3,0.4v1.2c-2,0.1-4.2,0.4-5.5-0.4c-0.4-0.3-0.5-0.7-0.5-0.7v-2.9
		c0-0.1-1.8,0-1.8-0.1v-1.4h1.8v-0.8l3.6-0.8v1.6h2.4v1.3H55z"/>
	<path class="st42" d="M105.6,39.8c0,0-3.7,0-3.7,0v-3.1c-0.1-0.4-0.3-0.8-0.7-1.1c-0.7-0.1-1.4-0.2-2.1,0.1
		c-0.4,0.3-0.5,0.7-0.5,1.2v3H95v-4.2c-0.1-0.5-0.1-1-0.1-1.4h3.7l0,0.9c1.7-1.1,4.5-1.2,6.3-0.2C106.2,36,105.3,38.1,105.6,39.8"/>
	<path class="st42" d="M89.2,39.6c0,0,0.1-3-0.2-3.8c-0.5-0.6-1.5-0.5-2.3-0.3c-0.3,0-0.6,0.3-0.7,0.6c-0.1,0-0.1,3.6-0.1,3.6h-3.6
		v-7.9H86v3.1c0,0,0.9-0.5,1.4-0.5c1.6-0.4,3.3-0.2,4.7,0.5c0.4,0.3,0.8,0.9,0.8,1.5v3.3H89.2z"/>
	<path class="st42" d="M77,36c0-0.4-0.4-0.8-0.8-0.9c-0.7-0.2-1.4,0-1.9,0.4c-0.5,0.5-0.6,2-0.3,2.4c0.3,0.7,1,0.7,1.6,0.8
		c0.4,0,0.8-0.1,1.1-0.4c0.1-0.2,0.3-0.3,0.2-0.7h3.6c0.1,0.4-0.2,0.8-0.5,1.1c-1.8,1.4-4.4,1.3-6.6,1c-1.2-0.3-2.5-0.7-3.2-1.8
		c-0.3-0.7-0.2-1.5,0.1-2.1c1.8-2.1,5-1.9,7.6-1.5c1,0.3,2.2,0.7,2.6,1.9L77,36z"/>
	<path class="st42" d="M36.5,35.7c-1.2-0.1-2.8-0.1-3.4,1.2c0,0.8,0,2.7,0,2.6h-3.6c-0.1-1.9,0.1-3.8-0.1-5.5l3.6,0.1v1.2
		c0.9-1,2.2-1.3,3.6-1.2v0.1V35.7z"/>
	<path class="st42" d="M21.7,39.6c-0.6-0.1-1.3-0.3-1.8-0.6v2.7h-3.7v-6.5c-0.1-0.4-0.1-0.8-0.2-1.2l3.8,0.1v0.8
		c0.6-0.4,1.2-0.6,1.9-0.7v1.1c-0.6,0-1.3,0.2-1.6,0.7c-0.3,0.7-0.3,1.7,0.3,2.2c0.4,0.3,0.9,0.4,1.4,0.4V39.6z M26.1,39.1
		c-1.3,0.7-2.9,0.8-4.4,0.5v-1.2c0.4,0,0.8-0.1,1.1-0.2c1-0.4,0.8-1.6,0.5-2.4c-0.3-0.4-0.8-0.7-1.2-0.7h-0.4v-1.1
		c1.5-0.3,3.2-0.1,4.5,0.6c0.7,0.4,1.1,1.2,1.2,1.9C27.5,37.6,27.1,38.6,26.1,39.1"/>
	<path class="st42" d="M43,39.8c-1.7,0-3.4-0.3-4.7-1c-0.7-0.6-1.1-1.4-1-2.3c0.9-2.4,3.4-2.5,5.7-2.5v1.1c-0.6,0-1.2,0.1-1.6,0.5
		c-0.3,0.5-0.4,1.2-0.3,1.8c0.2,0.4,0.3,0.8,0.7,1c0.3,0.2,0.7,0.2,1.1,0.2V39.8z M47.5,38.9c-1.3,0.6-2.9,0.9-4.5,0.9v-1.2
		c0.6,0,1.1-0.2,1.5-0.5c0.4-0.5,0.5-1.4,0.2-2.1c0-0.4-0.5-0.7-0.8-0.8c-0.3-0.1-0.6-0.1-0.9-0.1V34c0.4,0,0.9,0,1.3,0
		c1.7,0.2,4,0.5,4.4,2.5C48.9,37.5,48.4,38.3,47.5,38.9"/>
	<path class="st42" d="M62,37.3C62,37.5,62,37.8,62.1,38c0.4,0.6,1,0.7,1.7,0.7v1.1c-1.6,0-3.2-0.3-4.3-1.1c-0.7-0.7-1-1.5-0.7-2.5
		c0.8-2.1,3.1-2.2,5.1-2.3v1c-0.5,0-1,0.2-1.4,0.5c-0.2,0.2-0.4,0.4-0.3,0.7l1.7,0v1.2H62z M63.8,34L63.8,34
		c1.9,0.1,3.9,0.1,4.9,1.8c0.2,0.4,0.4,1,0.3,1.5h-5.2v-1.2l1.7,0v-0.3c-0.1-0.3-0.4-0.7-0.7-0.7c-0.3-0.1-0.7-0.2-1.1-0.2V34z
		 M63.8,38.7c0.3,0,0.6,0,0.9-0.1c0.4-0.1,0.8-0.4,1-0.8h3.3c-0.3,1-1.4,1.4-2.3,1.6c-0.9,0.1-1.9,0.3-2.9,0.3V38.7z"/>
	<path class="st42" d="M82.3,23.3c-7.5,2.9-15.5,4.3-24,4.8c-1-0.1-1.9-0.7-2.4-1.6c-1-3.6-5.2-3.1-7.5-5.2c-1.9-1.4-3.6-3.4-3-5.9
		c0.5-2.5,3.1-4,5.2-4.9c2.9-1.3,5.5-2,8.3-2.9c5.8-1.5,11.6-2.6,17.8-3.2C77.7,4.4,78.7,5,79,6c0.5,4,5,3.4,7.4,5.6
		c1.5,1,3.1,2.4,3.2,4.3C89.7,19.9,85.4,22,82.3,23.3"/>
	<path class="st47" d="M67.9,21.1c-1-0.2-2-0.5-2.9-1v4.4h-6.3c0,0-0.1-7.4,0-7.4c-0.1,0-3.3,0-4.8,0v-1h4.8h0c0.1,0,0-4.2,0-4.2
		h5.8c0,0,0.1,1.2,0,1.2c1-0.4,2.1-1,3.3-1.2v1.8c-0.9,0-1.9,0.3-2.5,1c-0.6,0.9-0.5,2.2-0.1,3.2c0.3,0.6,1,0.9,1.6,1.1
		c0.3,0.1,0.7,0.1,1,0.1V21.1z M77.2,17.1c-0.1,1.8-1.9,3.1-3.4,3.6c-1.8,0.5-3.9,0.7-5.9,0.4v-1.9c0.9,0,1.8-0.2,2.4-0.9
		c0.4-0.6,0.5-1.4,0.5-2.1c-0.1-0.8-0.4-1.8-1.3-2.1c-0.5-0.2-1-0.3-1.6-0.3v-1.8c0.2,0,0.3-0.1,0.4-0.1c3.1-0.3,6.4-0.1,8.3,2.5
		c0.2,0.5,0.5,1.1,0.5,1.7h5.7c0,0-0.1,0.7,0,1.1H77.2z"/>
	<path class="st55" d="M67,20.3c-1-0.2-2-0.5-2.9-1v4.4h-6.3v-7.4c0,0-3.3,0-4.8-0.1v-1h4.8h0.1c0,0,0-4.2,0-4.2h5.8
		c0,0,0.1,1.2,0,1.2c1-0.4,2.1-1,3.3-1.2v1.8c-0.9,0-1.9,0.3-2.5,1c-0.6,1-0.5,2.3-0.1,3.2c0.4,0.7,1,1,1.6,1.1
		c0.3,0.1,0.7,0.1,1,0.1V20.3z M76.3,16.3c-0.1,1.8-1.9,3.1-3.4,3.6c-1.8,0.5-4,0.7-5.9,0.4v-2c0.9,0,1.8-0.2,2.4-0.8
		c0.4-0.6,0.5-1.4,0.5-2.2c-0.1-0.8-0.4-1.7-1.3-2.1c-0.5-0.2-1-0.3-1.6-0.3v-1.8c0.2,0,0.3,0,0.5-0.1c3.1-0.2,6.4-0.1,8.3,2.5
		c0.2,0.5,0.6,1,0.6,1.7l5.7-0.1c0,0-0.1,0.8,0,1.1H76.3z"/>
</g>
</svg>
