<?xml version="1.0" encoding="utf-8"?>
<!-- Generator: Adobe Illustrator 25.4.1, SVG Export Plug-In . SVG Version: 6.00 Build 0)  -->
<svg version="1.1" id="Capa_1" xmlns="http://www.w3.org/2000/svg" xmlns:xlink="http://www.w3.org/1999/xlink" x="0px" y="0px"
	 viewBox="0 0 136 46" style="enable-background:new 0 0 136 46;" xml:space="preserve">
<style type="text/css">
	.st0{fill:#FFED00;stroke:#171915;stroke-width:0.3645;stroke-miterlimit:10;}
	.st1{fill:#FFED00;stroke:#171915;stroke-width:0.2546;stroke-miterlimit:10;}
</style>
<polygon class="st0" points="101.9,29.8 106.5,29.8 106.5,19.5 110.6,19.5 110.6,16.1 97.9,16.1 97.9,19.5 101.9,19.5 "/>
<polygon class="st0" points="73.7,29.9 83.6,29.9 83.6,26.9 78.2,26.9 78.2,24.3 83.1,24.3 83.1,21.5 78.2,21.5 78.2,19 83.5,19 
	83.5,16.1 73.7,16.1 "/>
<path class="st0" d="M51.7,25.1l2-5.4l2.1,5.4H51.7z M45.5,29.9h4.5l0.9-2.2h6l0.9,2.2h4.5l-6-13.7h-4.8L45.5,29.9z"/>
<path class="st0" d="M25.4,29.1c1.3,0.6,2.8,0.9,4.3,0.9c1.7,0,2.6-0.3,3.6-1.1c0.9-0.7,1.4-1.8,1.4-3c0-1-0.3-1.9-1-2.6
	c-0.5-0.5-0.8-0.8-2.1-1.5c-1.6-0.9-2-1.2-2-1.7c0-0.6,0.5-1,1.3-1c0.9,0,2,0.6,3.2,1.8v-3.6c-1.3-1-2.6-1.5-4.1-1.5
	c-2.8,0-4.7,1.7-4.7,4.1c0,1.1,0.4,2.1,1.2,2.9c0.5,0.5,1,0.8,2.2,1.5c1.1,0.6,1.4,0.9,1.4,1.4c0,0.6-0.5,0.9-1.3,0.9
	c-1.1,0-2.3-0.5-3.5-1.4V29.1z"/>
<polygon class="st0" points="42,29.9 51.7,29.9 51.7,26.4 46.6,26.4 46.6,16.1 42,16.1 "/>
<path class="st0" d="M65.8,26.6v-7.2h1.1c2.3,0,3.4,1.2,3.4,3.6c0,2.4-1.1,3.6-3.3,3.6H65.8z M61.2,29.9h7.1c1.4,0,2.5-0.2,3.4-0.7
	c1.9-1,3.2-3.4,3.2-6c0-1.9-0.6-3.6-1.9-4.9c-1.3-1.4-3.1-2.1-5.4-2.1h-6.3V29.9z"/>
<polygon class="st0" points="84.9,29.9 89.5,29.9 89.2,22.8 95.9,29.9 99.8,29.9 99.8,16.1 95.2,16.1 95.5,23.2 88.8,16.1 
	84.9,16.1 "/>
<path class="st1" d="M37.1,18.5c0,0.6,0.5,1,1,1c0.6,0,1-0.5,1-1c0-0.6-0.5-1-1-1C37.6,17.5,37.1,18,37.1,18.5 M35.8,16.1h4.6v13.7
	h-4.6V16.1z"/>
</svg>
