<?xml version="1.0" encoding="utf-8"?>
<!-- Generator: Adobe Illustrator 25.4.1, SVG Export Plug-In . SVG Version: 6.00 Build 0)  -->
<svg version="1.1" id="Capa_1" xmlns="http://www.w3.org/2000/svg" xmlns:xlink="http://www.w3.org/1999/xlink" x="0px" y="0px"
	 viewBox="0 0 135 46" style="enable-background:new 0 0 135 46;" xml:space="preserve">
<style type="text/css">
	.st0{fill:#38444E;}
	.st1{fill:#E64860;}
	.st2{fill:#808791;}
	.st3{clip-path:url(#SVGID_00000060723085468564477600000017346621284211549345_);fill:#E64860;}
	.st4{fill:none;stroke:#E64860;stroke-width:0.6287;stroke-miterlimit:10;}
	.st5{fill:#194374;}
	.st6{fill:#00659B;}
	.st7{fill:#DC0D6E;}
	.st8{fill:#004D80;}
	.st9{fill:#7EA9D6;}
	.st10{fill:#B6D4EF;}
	.st11{fill:#058DC7;}
	.st12{fill:#00559F;}
	.st13{fill:#134A83;}
	.st14{fill:#B51975;}
	.st15{fill:#2497D0;}
	.st16{fill:#D80F3B;}
	.st17{fill:#9BC338;}
	.st18{fill:#008541;}
	.st19{fill:#9DC438;}
	
		.st20{clip-path:url(#SVGID_00000158735102216638875240000017961281095247986347_);fill:url(#SVGID_00000145770643447702285920000018444761871315116465_);}
	
		.st21{clip-path:url(#SVGID_00000141418973306566344900000006262061303466124711_);fill:url(#SVGID_00000032618761771172078770000009752314484171479198_);}
	
		.st22{clip-path:url(#SVGID_00000036947427258582483830000007123389957649667740_);fill:url(#SVGID_00000165922069249507096270000005362480160128738483_);}
	.st23{fill:#F9BE12;}
	.st24{clip-path:url(#SVGID_00000174575004072992087410000015738232837802726846_);}
	.st25{clip-path:url(#SVGID_00000093165505066135332640000005820576548403526068_);}
	.st26{clip-path:url(#SVGID_00000045603512413385875790000007006938828990167451_);}
	.st27{clip-path:url(#SVGID_00000109015104190946363440000004409080991367788725_);}
	.st28{clip-path:url(#SVGID_00000077304873307811860660000012381308923968971191_);}
	.st29{clip-path:url(#SVGID_00000165199705548664380940000014963737019700116614_);}
	.st30{clip-path:url(#SVGID_00000151526870586233893050000006950937435055754669_);}
	.st31{clip-path:url(#SVGID_00000018917790487964943060000004234169411097608889_);}
	.st32{clip-path:url(#SVGID_00000141444375900118689440000006198571375039482813_);}
	
		.st33{clip-path:url(#SVGID_00000039101180599152054230000014312434078621664673_);fill:url(#SVGID_00000179648127801725256440000000186914538418873985_);}
	.st34{clip-path:url(#SVGID_00000077283223394880988550000010939233313780623285_);}
	.st35{clip-path:url(#SVGID_00000058551735885085772310000000705335278912228016_);}
	.st36{clip-path:url(#SVGID_00000071533875166234352940000008857325150117106608_);}
	.st37{clip-path:url(#SVGID_00000150795129518152352200000010991586220708088494_);}
	.st38{clip-path:url(#SVGID_00000039837522670498466490000010081332325304799122_);}
	.st39{clip-path:url(#SVGID_00000141434294176139212350000013973279312819228310_);}
	.st40{fill:#009BDA;}
	.st41{fill:#CE1620;}
	.st42{fill:#171915;}
	.st43{fill:#E30750;}
	.st44{fill:#5775B5;}
	.st45{fill:none;stroke:#5775B5;stroke-width:0.5802;}
	.st46{fill:#5A595C;}
	.st47{fill:#FFFFFF;}
	.st48{fill:#364F8F;}
	.st49{fill:none;stroke:#364F8F;stroke-width:0.3873;}
	.st50{fill:none;stroke:#364F8F;stroke-width:1.3345;stroke-linecap:round;}
	.st51{fill:#656362;}
	.st52{fill:#C8D44A;}
	.st53{fill:#E42E38;}
	.st54{fill:none;stroke:#FFFFFF;stroke-width:0.4523;stroke-miterlimit:10;}
	.st55{fill:#51B054;}
	.st56{fill:#0079BB;}
	.st57{fill:#086EB0;}
	.st58{fill:#99A4AB;}
	.st59{fill:#B2A7A5;}
	.st60{fill:#931340;}
	.st61{fill:#DFDCD9;}
	.st62{fill:#27A1D7;}
	.st63{fill:none;stroke:#000000;stroke-width:0.1494;stroke-linejoin:bevel;stroke-miterlimit:22.926;}
	.st64{fill:none;stroke:#000000;stroke-width:0.1585;stroke-miterlimit:22.926;}
	.st65{fill:#EA3D36;stroke:#ED1C24;stroke-width:0.1417;stroke-linejoin:round;}
	.st66{fill:#EA3D36;}
</style>
<g>
	<path class="st42" d="M43.6,27.6h2.7c0.5,0,1,0.1,1.3,0.2c0.3,0.1,0.6,0.4,0.8,0.6c0.2,0.3,0.4,0.6,0.5,0.9
		c0.1,0.4,0.1,0.7,0.1,1.1c0,0.6-0.1,1.1-0.2,1.5c-0.1,0.3-0.3,0.6-0.6,0.9c-0.3,0.2-0.5,0.4-0.8,0.5c-0.4,0.1-0.8,0.2-1.1,0.2h-2.7
		V27.6z M45.4,29L45.4,29v3.2h0.4c0.4,0,0.6,0,0.8-0.1c0.2-0.1,0.3-0.2,0.4-0.4c0.1-0.2,0.1-0.5,0.1-1c0-0.6-0.1-1-0.3-1.3
		c-0.2-0.2-0.5-0.3-1-0.3H45.4z"/>
	<polygon class="st42" points="52.4,27.6 57.3,27.6 57.3,28.9 54.2,28.9 54.2,29.8 57,29.8 57,31 54.2,31 54.2,32.2 57.3,32.2 
		57.3,33.5 52.4,33.5 	"/>
	<polygon class="st42" points="60.8,27.6 62.5,27.6 64.7,30.9 64.7,27.6 66.4,27.6 66.4,33.5 64.7,33.5 62.5,30.3 62.5,33.5 
		60.8,33.5 	"/>
	<polygon class="st42" points="69.7,27.6 75.2,27.6 75.2,29.1 73.3,29.1 73.3,33.5 71.5,33.5 71.5,29.1 69.7,29.1 	"/>
	<path class="st42" d="M81.5,32.5h-2.1l-0.3,1h-1.8l2.2-5.9h2l2.2,5.9h-1.9L81.5,32.5z M81.2,31.3L81.2,31.3l-0.6-2.1l-0.6,2.1H81.2
		z"/>
	<polygon class="st42" points="86.8,27.6 88.6,27.6 88.6,32.1 91.4,32.1 91.4,33.5 86.8,33.5 	"/>
	<rect x="43.6" y="25.3" class="st43" width="47.8" height="1.1"/>
	<rect x="43.6" y="34.7" class="st42" width="0.5" height="4.1"/>
	<path class="st42" d="M45,38.8v-3h0.4v0.4c0.2-0.3,0.5-0.5,0.9-0.5c0.2,0,0.3,0,0.5,0.1c0.1,0.1,0.3,0.1,0.3,0.3
		c0.1,0.1,0.1,0.2,0.2,0.4c0,0.1,0,0.3,0,0.5v1.8h-0.5V37c0-0.2,0-0.4-0.1-0.5c0-0.1-0.1-0.2-0.2-0.2c-0.1-0.1-0.2-0.1-0.3-0.1
		c-0.2,0-0.4,0.1-0.5,0.2c-0.2,0.1-0.2,0.4-0.2,0.8v1.6H45z"/>
	<path class="st42" d="M48,38.8v-3h0.4v0.4c0.2-0.3,0.5-0.5,0.9-0.5c0.2,0,0.3,0,0.5,0.1c0.1,0.1,0.3,0.1,0.3,0.3
		c0.1,0.1,0.1,0.2,0.2,0.4c0,0.1,0,0.3,0,0.5v1.8h-0.5V37c0-0.2,0-0.4-0.1-0.5c0-0.1-0.1-0.2-0.2-0.2c-0.1-0.1-0.2-0.1-0.3-0.1
		c-0.2,0-0.4,0.1-0.5,0.2c-0.2,0.1-0.2,0.4-0.2,0.8v1.6H48z"/>
	<path class="st42" d="M50.9,37.3c0-0.5,0.1-1,0.4-1.2c0.2-0.2,0.5-0.3,0.9-0.3c0.4,0,0.7,0.1,1,0.4c0.3,0.3,0.4,0.6,0.4,1.1
		c0,0.4-0.1,0.7-0.2,0.9c-0.1,0.2-0.3,0.4-0.5,0.5c-0.2,0.1-0.4,0.2-0.7,0.2c-0.4,0-0.7-0.1-1-0.4C51.1,38.2,50.9,37.8,50.9,37.3
		 M51.4,37.3L51.4,37.3c0,0.4,0.1,0.7,0.2,0.9c0.2,0.2,0.4,0.3,0.6,0.3c0.2,0,0.4-0.1,0.6-0.3c0.2-0.2,0.2-0.5,0.2-0.9
		c0-0.4-0.1-0.6-0.2-0.8c-0.2-0.2-0.4-0.3-0.6-0.3c-0.2,0-0.4,0.1-0.6,0.3C51.5,36.6,51.4,36.9,51.4,37.3"/>
	<path class="st42" d="M55,38.8l-1.1-3h0.5l0.6,1.8c0.1,0.2,0.1,0.4,0.2,0.6c0-0.2,0.1-0.3,0.2-0.6l0.6-1.8h0.5l-1.1,3H55z"/>
	<path class="st42" d="M58.8,38.4c-0.2,0.2-0.4,0.3-0.5,0.3c-0.2,0.1-0.3,0.1-0.5,0.1c-0.3,0-0.6-0.1-0.7-0.2
		c-0.2-0.2-0.3-0.4-0.3-0.6c0-0.1,0-0.3,0.1-0.4c0.1-0.1,0.1-0.2,0.3-0.3c0.1-0.1,0.2-0.1,0.3-0.2c0.1,0,0.2-0.1,0.4-0.1
		c0.4,0,0.7-0.1,0.9-0.2c0-0.1,0-0.1,0-0.1c0-0.2,0-0.3-0.1-0.4c-0.1-0.1-0.3-0.2-0.6-0.2c-0.2,0-0.4,0-0.5,0.1
		c-0.1,0.1-0.2,0.2-0.2,0.4l-0.5-0.1c0-0.2,0.1-0.4,0.2-0.5c0.1-0.1,0.2-0.2,0.4-0.3c0.2-0.1,0.4-0.1,0.7-0.1c0.2,0,0.4,0,0.6,0.1
		c0.2,0.1,0.3,0.1,0.3,0.2c0.1,0.1,0.1,0.2,0.2,0.3c0,0.1,0,0.2,0,0.5v0.7c0,0.5,0,0.8,0,0.9c0,0.1,0.1,0.2,0.1,0.4h-0.5
		C58.9,38.7,58.8,38.5,58.8,38.4 M58.8,37.3L58.8,37.3c-0.2,0.1-0.4,0.1-0.8,0.2c-0.2,0-0.3,0.1-0.4,0.1c-0.1,0-0.1,0.1-0.2,0.2
		c0,0.1-0.1,0.2-0.1,0.2c0,0.1,0,0.2,0.1,0.3c0.1,0.1,0.2,0.1,0.4,0.1c0.2,0,0.4,0,0.5-0.1c0.1-0.1,0.3-0.2,0.3-0.3
		c0.1-0.1,0.1-0.3,0.1-0.5V37.3z"/>
	<path class="st42" d="M61.1,38.3l0.1,0.4c-0.1,0-0.3,0-0.4,0c-0.2,0-0.3,0-0.4-0.1c-0.1-0.1-0.2-0.1-0.2-0.2c0-0.1-0.1-0.3-0.1-0.6
		v-1.7h-0.4v-0.4h0.4v-0.7l0.5-0.3v1h0.5v0.4h-0.5v1.7c0,0.1,0,0.2,0,0.3c0,0,0,0.1,0.1,0.1c0,0,0.1,0,0.2,0
		C60.9,38.3,61,38.3,61.1,38.3"/>
	<path class="st42" d="M61.6,38.8h0.5v-3h-0.5V38.8z M61.6,35.3h0.5v-0.6h-0.5V35.3z"/>
	<path class="st42" d="M63.6,38.8l-1.1-3H63l0.6,1.8c0.1,0.2,0.1,0.4,0.2,0.6c0-0.2,0.1-0.3,0.2-0.6l0.6-1.8h0.5l-1.1,3H63.6z"/>
	<path class="st42" d="M67.5,37.8l0.5,0.1c-0.1,0.3-0.2,0.5-0.4,0.7c-0.2,0.2-0.5,0.3-0.8,0.3c-0.4,0-0.8-0.1-1-0.4
		c-0.2-0.3-0.4-0.6-0.4-1.1c0-0.5,0.1-0.9,0.4-1.2c0.2-0.3,0.6-0.4,1-0.4c0.4,0,0.7,0.1,0.9,0.4c0.2,0.3,0.4,0.6,0.4,1.1
		c0,0,0,0.1,0,0.1h-2.1c0,0.3,0.1,0.6,0.3,0.7c0.2,0.2,0.4,0.3,0.6,0.3c0.2,0,0.3,0,0.5-0.1C67.4,38.2,67.5,38,67.5,37.8 M65.9,37
		L65.9,37h1.6c0-0.2-0.1-0.4-0.2-0.6c-0.2-0.2-0.4-0.3-0.6-0.3c-0.2,0-0.4,0.1-0.6,0.2C66,36.5,65.9,36.8,65.9,37"/>
	<path class="st42" d="M70.2,38.8v-4.1h1.5c0.3,0,0.5,0,0.6,0c0.2,0,0.4,0.1,0.5,0.2c0.1,0.1,0.2,0.2,0.3,0.4
		c0.1,0.2,0.1,0.4,0.1,0.6c0,0.3-0.1,0.6-0.3,0.9c-0.2,0.2-0.6,0.4-1.2,0.4h-1v1.7H70.2z M70.8,36.6L70.8,36.6h1
		c0.3,0,0.6-0.1,0.7-0.2c0.1-0.1,0.2-0.3,0.2-0.5c0-0.2,0-0.3-0.1-0.4c-0.1-0.1-0.2-0.2-0.3-0.2c-0.1,0-0.3,0-0.5,0h-1V36.6z"/>
	<path class="st42" d="M73.9,38.8v-3h0.4v0.4c0.1-0.2,0.2-0.3,0.3-0.4c0.1-0.1,0.2-0.1,0.3-0.1c0.2,0,0.3,0.1,0.5,0.2l-0.2,0.5
		c-0.1-0.1-0.2-0.1-0.4-0.1c-0.1,0-0.2,0-0.3,0.1c-0.1,0.1-0.1,0.2-0.2,0.3c-0.1,0.2-0.1,0.4-0.1,0.6v1.5H73.9z"/>
	<path class="st42" d="M75.5,37.3c0-0.5,0.1-1,0.4-1.2c0.2-0.2,0.5-0.3,0.9-0.3c0.4,0,0.7,0.1,1,0.4c0.2,0.3,0.4,0.6,0.4,1.1
		c0,0.4-0.1,0.7-0.2,0.9c-0.1,0.2-0.3,0.4-0.5,0.5c-0.2,0.1-0.4,0.2-0.7,0.2c-0.4,0-0.7-0.1-1-0.4C75.6,38.2,75.5,37.8,75.5,37.3
		 M76,37.3L76,37.3c0,0.4,0.1,0.7,0.2,0.9c0.2,0.2,0.4,0.3,0.6,0.3c0.2,0,0.4-0.1,0.6-0.3c0.2-0.2,0.2-0.5,0.2-0.9
		c0-0.4-0.1-0.6-0.2-0.8c-0.2-0.2-0.4-0.3-0.6-0.3c-0.2,0-0.4,0.1-0.6,0.3C76.1,36.6,76,36.9,76,37.3"/>
	<path class="st42" d="M80.6,38.8v-0.4c-0.2,0.3-0.4,0.4-0.8,0.4c-0.2,0-0.4-0.1-0.6-0.2c-0.2-0.1-0.3-0.3-0.4-0.5
		c-0.1-0.2-0.2-0.5-0.2-0.8c0-0.3,0-0.6,0.1-0.8c0.1-0.2,0.2-0.4,0.4-0.6c0.2-0.1,0.4-0.2,0.6-0.2c0.2,0,0.3,0,0.5,0.1
		c0.1,0.1,0.2,0.2,0.3,0.3v-1.5h0.5v4.1H80.6z M79.1,37.3L79.1,37.3c0,0.4,0.1,0.7,0.2,0.8c0.2,0.2,0.3,0.3,0.5,0.3
		c0.2,0,0.4-0.1,0.5-0.3c0.1-0.2,0.2-0.5,0.2-0.8c0-0.4-0.1-0.7-0.2-0.9c-0.2-0.2-0.3-0.3-0.6-0.3c-0.2,0-0.4,0.1-0.5,0.3
		C79.2,36.6,79.1,36.9,79.1,37.3"/>
	<path class="st42" d="M83.7,38.8v-0.4c-0.2,0.3-0.5,0.5-0.9,0.5c-0.2,0-0.3,0-0.5-0.1c-0.1-0.1-0.3-0.2-0.3-0.3
		c-0.1-0.1-0.1-0.2-0.1-0.4c0-0.1,0-0.3,0-0.5v-1.8h0.5v1.6c0,0.3,0,0.4,0,0.5c0,0.1,0.1,0.2,0.2,0.3c0.1,0.1,0.2,0.1,0.4,0.1
		c0.1,0,0.3,0,0.4-0.1c0.1-0.1,0.2-0.2,0.3-0.3c0.1-0.1,0.1-0.3,0.1-0.6v-1.6h0.5v3H83.7z"/>
	<path class="st42" d="M86.8,37.7l0.5,0.1c-0.1,0.3-0.2,0.6-0.4,0.8c-0.2,0.2-0.5,0.3-0.8,0.3c-0.4,0-0.7-0.1-0.9-0.4
		c-0.2-0.3-0.4-0.6-0.4-1.1c0-0.3,0.1-0.6,0.2-0.8c0.1-0.2,0.3-0.4,0.5-0.5c0.2-0.1,0.4-0.2,0.7-0.2c0.3,0,0.6,0.1,0.8,0.2
		c0.2,0.2,0.3,0.4,0.4,0.7l-0.5,0.1c0-0.2-0.1-0.3-0.2-0.4c-0.1-0.1-0.3-0.2-0.4-0.2c-0.2,0-0.4,0.1-0.6,0.3
		c-0.2,0.2-0.2,0.5-0.2,0.9c0,0.4,0.1,0.7,0.2,0.9c0.1,0.2,0.3,0.3,0.6,0.3c0.2,0,0.4-0.1,0.5-0.2C86.7,38.1,86.8,37.9,86.8,37.7"/>
	<path class="st42" d="M88.8,38.3l0.1,0.4c-0.1,0-0.3,0-0.4,0c-0.2,0-0.3,0-0.4-0.1c-0.1-0.1-0.2-0.1-0.2-0.2c0-0.1-0.1-0.3-0.1-0.6
		v-1.7h-0.4v-0.4h0.4v-0.7l0.5-0.3v1h0.5v0.4h-0.5v1.7c0,0.1,0,0.2,0,0.3c0,0,0,0.1,0.1,0.1c0,0,0.1,0,0.2,0
		C88.6,38.3,88.7,38.3,88.8,38.3"/>
	<path class="st42" d="M89,37.9l0.5-0.1c0,0.2,0.1,0.4,0.2,0.5c0.1,0.1,0.3,0.2,0.5,0.2c0.2,0,0.4,0,0.5-0.1
		c0.1-0.1,0.2-0.2,0.2-0.3c0-0.1,0-0.2-0.1-0.3c-0.1,0-0.2-0.1-0.5-0.2c-0.4-0.1-0.6-0.2-0.7-0.2c-0.1-0.1-0.2-0.2-0.3-0.3
		c-0.1-0.1-0.1-0.3-0.1-0.4c0-0.1,0-0.3,0.1-0.4c0.1-0.1,0.1-0.2,0.2-0.3c0.1-0.1,0.2-0.1,0.3-0.1c0.1,0,0.3-0.1,0.4-0.1
		c0.2,0,0.4,0,0.6,0.1c0.2,0.1,0.3,0.2,0.4,0.3c0.1,0.1,0.1,0.3,0.2,0.5l-0.5,0.1c0-0.2-0.1-0.3-0.2-0.4c-0.1-0.1-0.2-0.1-0.4-0.1
		c-0.2,0-0.4,0-0.5,0.1c-0.1,0.1-0.1,0.2-0.1,0.3c0,0.1,0,0.1,0.1,0.2c0,0.1,0.1,0.1,0.2,0.1c0,0,0.2,0.1,0.4,0.1
		c0.3,0.1,0.6,0.2,0.7,0.2c0.1,0.1,0.2,0.1,0.3,0.3c0.1,0.1,0.1,0.3,0.1,0.4c0,0.2,0,0.3-0.1,0.5c-0.1,0.1-0.2,0.3-0.4,0.3
		c-0.2,0.1-0.4,0.1-0.6,0.1c-0.4,0-0.7-0.1-0.9-0.2C89.2,38.4,89.1,38.2,89,37.9"/>
	<path class="st42" d="M48.7,43.4v-4.1h0.8l0.9,2.9c0.1,0.3,0.1,0.5,0.2,0.6c0-0.1,0.1-0.4,0.2-0.7l0.9-2.8h0.7v4.1h-0.5V40
		l-1.2,3.4h-0.5l-1.1-3.5v3.5H48.7z"/>
	<path class="st42" d="M55.1,43c-0.2,0.2-0.4,0.3-0.5,0.3c-0.2,0.1-0.3,0.1-0.5,0.1c-0.3,0-0.6-0.1-0.7-0.2
		c-0.2-0.2-0.3-0.4-0.3-0.6c0-0.1,0-0.3,0.1-0.4c0.1-0.1,0.1-0.2,0.3-0.3c0.1-0.1,0.2-0.1,0.3-0.2c0.1,0,0.2-0.1,0.4-0.1
		c0.4,0,0.7-0.1,0.9-0.2c0-0.1,0-0.1,0-0.1c0-0.2,0-0.3-0.1-0.4c-0.1-0.1-0.3-0.2-0.6-0.2c-0.2,0-0.4,0-0.5,0.1
		c-0.1,0.1-0.2,0.2-0.2,0.4l-0.5-0.1c0-0.2,0.1-0.4,0.2-0.5c0.1-0.1,0.2-0.2,0.4-0.3c0.2-0.1,0.4-0.1,0.7-0.1c0.2,0,0.4,0,0.6,0.1
		c0.2,0.1,0.3,0.1,0.3,0.2c0.1,0.1,0.1,0.2,0.2,0.3c0,0.1,0,0.2,0,0.5v0.7c0,0.5,0,0.8,0,0.9c0,0.1,0.1,0.2,0.1,0.4h-0.5
		C55.1,43.3,55.1,43.2,55.1,43 M55,41.9L55,41.9c-0.2,0.1-0.4,0.1-0.8,0.2c-0.2,0-0.3,0.1-0.4,0.1c-0.1,0-0.1,0.1-0.2,0.2
		c0,0.1-0.1,0.2-0.1,0.2c0,0.1,0,0.2,0.1,0.3c0.1,0.1,0.2,0.1,0.4,0.1c0.2,0,0.4,0,0.5-0.1c0.1-0.1,0.3-0.2,0.3-0.3
		c0.1-0.1,0.1-0.3,0.1-0.5V41.9z"/>
	<path class="st42" d="M58.2,43.4V43c-0.2,0.3-0.4,0.4-0.8,0.4c-0.2,0-0.4-0.1-0.6-0.2c-0.2-0.1-0.3-0.3-0.4-0.5
		c-0.1-0.2-0.2-0.5-0.2-0.8c0-0.3,0-0.6,0.1-0.8c0.1-0.2,0.2-0.4,0.4-0.6c0.2-0.1,0.4-0.2,0.6-0.2c0.2,0,0.3,0,0.5,0.1
		c0.1,0.1,0.2,0.2,0.3,0.3v-1.5h0.5v4.1H58.2z M56.6,41.9L56.6,41.9c0,0.4,0.1,0.7,0.2,0.8c0.2,0.2,0.3,0.3,0.5,0.3
		c0.2,0,0.4-0.1,0.5-0.3c0.1-0.2,0.2-0.5,0.2-0.8c0-0.4-0.1-0.7-0.2-0.9c-0.2-0.2-0.3-0.3-0.6-0.3c-0.2,0-0.4,0.1-0.5,0.3
		C56.7,41.2,56.6,41.5,56.6,41.9"/>
	<path class="st42" d="M61.3,42.5l0.5,0.1c-0.1,0.3-0.2,0.5-0.4,0.7c-0.2,0.2-0.5,0.3-0.8,0.3c-0.4,0-0.8-0.1-1-0.4
		c-0.2-0.3-0.4-0.6-0.4-1.1c0-0.5,0.1-0.9,0.4-1.2c0.2-0.3,0.6-0.4,1-0.4c0.4,0,0.7,0.1,0.9,0.4c0.2,0.3,0.4,0.6,0.4,1.1
		c0,0,0,0.1,0,0.1h-2.1c0,0.3,0.1,0.6,0.3,0.7c0.2,0.2,0.4,0.3,0.6,0.3c0.2,0,0.3,0,0.5-0.1C61.2,42.8,61.3,42.7,61.3,42.5
		 M59.7,41.6L59.7,41.6h1.6c0-0.2-0.1-0.4-0.2-0.6c-0.2-0.2-0.4-0.3-0.6-0.3c-0.2,0-0.4,0.1-0.6,0.2C59.8,41.2,59.8,41.4,59.7,41.6"
		/>
	<path class="st42" d="M64.5,43.4H65v-3h-0.5V43.4z M64.5,39.9H65v-0.6h-0.5V39.9z"/>
	<path class="st42" d="M65.7,43.4v-3h0.4v0.4c0.2-0.3,0.5-0.5,0.9-0.5c0.2,0,0.3,0,0.5,0.1c0.1,0.1,0.3,0.1,0.3,0.3
		c0.1,0.1,0.1,0.2,0.2,0.4c0,0.1,0,0.3,0,0.5v1.8h-0.5v-1.8c0-0.2,0-0.4-0.1-0.5c0-0.1-0.1-0.2-0.2-0.2c-0.1-0.1-0.2-0.1-0.3-0.1
		c-0.2,0-0.4,0.1-0.5,0.2c-0.2,0.1-0.2,0.4-0.2,0.8v1.6H65.7z"/>
	<polygon class="st42" points="70.2,43.4 70.2,39.3 73.1,39.3 73.1,39.8 70.8,39.8 70.8,41.1 72.9,41.1 72.9,41.5 70.8,41.5 
		70.8,42.9 73.2,42.9 73.2,43.4 	"/>
	<path class="st42" d="M75.7,43.4V43c-0.2,0.3-0.5,0.5-0.9,0.5c-0.2,0-0.3,0-0.5-0.1c-0.1-0.1-0.3-0.2-0.3-0.3
		c-0.1-0.1-0.1-0.2-0.2-0.4c0-0.1,0-0.3,0-0.5v-1.8h0.5v1.6c0,0.3,0,0.4,0,0.5c0,0.1,0.1,0.2,0.2,0.3c0.1,0.1,0.2,0.1,0.4,0.1
		c0.1,0,0.3,0,0.4-0.1c0.1-0.1,0.2-0.2,0.3-0.3c0.1-0.1,0.1-0.3,0.1-0.6v-1.6h0.5v3H75.7z"/>
	<path class="st42" d="M76.9,43.4v-3h0.4v0.4c0.1-0.2,0.2-0.3,0.3-0.4c0.1-0.1,0.2-0.1,0.3-0.1c0.2,0,0.3,0.1,0.5,0.2L78.3,41
		c-0.1-0.1-0.2-0.1-0.4-0.1c-0.1,0-0.2,0-0.3,0.1c-0.1,0.1-0.1,0.2-0.2,0.3c-0.1,0.2-0.1,0.4-0.1,0.6v1.5H76.9z"/>
	<path class="st42" d="M78.6,41.9c0-0.5,0.1-1,0.4-1.2c0.2-0.2,0.5-0.3,0.9-0.3c0.4,0,0.7,0.1,1,0.4c0.2,0.3,0.4,0.6,0.4,1.1
		c0,0.4-0.1,0.7-0.2,0.9c-0.1,0.2-0.3,0.4-0.5,0.5c-0.2,0.1-0.4,0.2-0.7,0.2c-0.4,0-0.7-0.1-1-0.4C78.7,42.8,78.6,42.4,78.6,41.9
		 M79.1,41.9L79.1,41.9c0,0.4,0.1,0.7,0.2,0.8c0.2,0.2,0.4,0.3,0.6,0.3c0.2,0,0.4-0.1,0.6-0.3c0.2-0.2,0.2-0.5,0.2-0.9
		c0-0.4-0.1-0.6-0.2-0.8c-0.2-0.2-0.4-0.3-0.6-0.3c-0.2,0-0.4,0.1-0.6,0.3C79.2,41.3,79.1,41.5,79.1,41.9"/>
	<path class="st42" d="M81.8,44.5v-4.1h0.4v0.4c0.1-0.2,0.2-0.3,0.4-0.3c0.1-0.1,0.3-0.1,0.5-0.1c0.2,0,0.5,0.1,0.6,0.2
		c0.2,0.1,0.3,0.3,0.4,0.5c0.1,0.2,0.1,0.5,0.1,0.8c0,0.3-0.1,0.6-0.2,0.8c-0.1,0.2-0.3,0.4-0.5,0.6c-0.2,0.1-0.4,0.2-0.6,0.2
		c-0.2,0-0.3,0-0.4-0.1c-0.1-0.1-0.2-0.2-0.3-0.3v1.4H81.8z M82.3,41.9L82.3,41.9c0,0.4,0.1,0.7,0.2,0.8c0.1,0.2,0.3,0.3,0.5,0.3
		c0.2,0,0.4-0.1,0.6-0.3c0.2-0.2,0.2-0.5,0.2-0.9c0-0.4-0.1-0.7-0.2-0.8c-0.2-0.2-0.3-0.3-0.5-0.3c-0.2,0-0.4,0.1-0.5,0.3
		C82.4,41.3,82.3,41.6,82.3,41.9"/>
	<path class="st42" d="M86.9,42.5l0.5,0.1c-0.1,0.3-0.2,0.5-0.4,0.7c-0.2,0.2-0.5,0.3-0.8,0.3c-0.4,0-0.8-0.1-1-0.4
		s-0.4-0.6-0.4-1.1c0-0.5,0.1-0.9,0.4-1.2c0.2-0.3,0.6-0.4,1-0.4c0.4,0,0.7,0.1,0.9,0.4c0.2,0.3,0.4,0.6,0.4,1.1c0,0,0,0.1,0,0.1
		h-2.1c0,0.3,0.1,0.6,0.3,0.7c0.2,0.2,0.4,0.3,0.6,0.3c0.2,0,0.3,0,0.5-0.1C86.7,42.8,86.8,42.7,86.9,42.5 M85.3,41.6L85.3,41.6h1.6
		c0-0.2-0.1-0.4-0.2-0.6c-0.2-0.2-0.4-0.3-0.6-0.3c-0.2,0-0.4,0.1-0.6,0.2C85.4,41.2,85.3,41.4,85.3,41.6"/>
	<path class="st42" d="M73.5,18.1c-2.8,0-5.1-2.3-5.1-5.1c0-2.8,2.3-5.1,5.1-5.1h8c-0.7,0.4-1.3,1-1.8,1.7h-6.2
		c-1.9,0-3.4,1.5-3.4,3.4s1.5,3.4,3.4,3.4h1.7c1.4,0,2.6,1.1,2.6,2.6c0,1.4-1.1,2.5-2.6,2.5h-9.7c0.7-0.4,1.3-1,1.8-1.7h7.9
		c0.5,0,0.9-0.4,0.9-0.9c0-0.5-0.4-0.9-0.9-0.9H73.5z"/>
	<path class="st42" d="M85.9,19.9h-1.4v1.7h1.4c0.5-1.7,0.9-2.1,0.9-2.5c0-0.5-0.4-0.9-0.9-0.9v-1.7c1.4,0,2.6,1.1,2.6,2.6
		c0,1.4-1.2,2.5-2.6,2.5V19.9z M84.5,18.1L84.5,18.1L84.5,18.1h1.4v-1.7h-1.4h0V18.1z M84.5,9.6L84.5,9.6V7.9h0h6.8l-1.7,1.7H84.5
		L84.5,9.6z M85.9,19.9L85.9,19.9h-1.4h-3.4c-0.1,0.6-0.3,1.2-0.5,1.7h4v-1.7H85.9z M84.5,7.9L84.5,7.9v1.7c-1.9,0-3.4,1.6-3.4,3.4
		s1.5,3.4,3.4,3.4v1.7c-2.8,0-5.1-2.3-5.1-5.1C79.5,10.2,81.7,7.9,84.5,7.9"/>
	<path class="st42" d="M85.9,22.4h-5.9c-0.5,0.7-1.1,1.3-1.8,1.7h7.7c2.8,0,5.1-2.3,5.1-5.1c0-2.8-2.3-5.1-5.1-5.1h-1.4
		c-0.5,0-0.9-0.4-0.9-0.9c0-0.5,0.4-0.9,0.9-0.9H88l1.7-1.7h-5.1c-1.4,0-2.6,1.2-2.6,2.6c0,1.4,1.2,2.6,2.6,2.6h1.4
		c1.9,0,3.4,1.5,3.4,3.4C89.4,20.9,87.8,22.4,85.9,22.4"/>
	<path class="st42" d="M45.3,21.6v-1.7V21.6z M73.5,13.9L73.5,13.9h1.7c2.8,0,5.1,2.3,5.1,5.1c0,2.8-2.3,5.1-5.1,5.1H55.5v-2.5
		c0-4.9-3.5-9-8.2-10c0.8-0.3,1.5-0.7,2.1-1.2c4.5,1.7,7.7,6.1,7.7,11.2v0.8h17.9c1.9,0,3.4-1.5,3.4-3.4c0-1.9-1.5-3.4-3.4-3.4h-1.7
		c-1.4,0-2.5-1.2-2.5-2.6c0-1.4,1.1-2.6,2.5-2.6h5.7c-0.3,0.5-0.5,1.1-0.5,1.7h-5.2c-0.5,0-0.9,0.4-0.9,0.9
		C72.6,13.5,73,13.9,73.5,13.9"/>
	<path class="st42" d="M65.8,16.5c0,1.9-1.5,3.4-3.4,3.4c-1.9,0-3.4-1.5-3.4-3.4V9.1l-1.7-0.7v8.2c0,2.8,2.3,5.1,5.1,5.1
		c2.8,0,5.1-2.3,5.1-5.1v-8L65.8,9C65.7,9,65.8,14.7,65.8,16.5"/>
	<path class="st42" d="M60.6,16.5h0.9c0,0.5,0.4,0.9,0.9,0.9c0.5,0,0.9-0.4,0.9-0.9v-7l1.7-0.2v7.2c0,1.4-1.2,2.6-2.6,2.6
		c-0.7,0-1.3-0.3-1.7-0.7V16.5z M61.5,16.5L61.5,16.5V9.6l-0.9-0.1v7H61.5z M59.8,16.5L59.8,16.5h0.9v1.9
		C60.1,17.9,59.8,17.2,59.8,16.5 M60.6,9.5L60.6,9.5l-0.9-0.1v7.1h0.9V9.5z"/>
	<path class="st42" d="M53,3.6h1.7c0,3.7-2,7-5,8.8c-0.7-0.3-1.5-0.6-2.3-0.8C50.6,10.4,53,7.3,53,3.6 M45.3,13.8L45.3,13.8
		c-0.3,0-0.6,0.1-0.9,0.1h-0.1l0.1-10.3v8.6c0.3,0,0.6,0,0.9-0.1L45.3,13.8z"/>
	<path class="st42" d="M50.4,3.6h1.7c0,3.3-2.2,6.3-5.3,7.3l-0.8,0.2l0.1-7.5h1.7l-0.1,4.9C49.4,7.4,50.4,5.6,50.4,3.6"/>
	<rect x="43.6" y="3.6" class="st42" width="1.7" height="20.5"/>
	<path class="st42" d="M45.3,21.6L45.3,21.6L45.3,21.6z M54.7,24.1L54.7,24.1H53v-2.5c0-3.3-2.2-6.2-5.1-7.2l-0.1,9.7h-1.7l0.1-11.8
		l0.3,0.1c4.7,0.6,8.3,4.6,8.3,9.3V24.1z"/>
	<path class="st43" d="M55.7,5.2c2.3-0.3,4.5,0.3,6.5,0.3c2.3,0,4.5-0.5,6.6-0.2c-1.7-0.7-3.3-1.2-5.4-1.8c-0.3,0.6-0.8,0.7-1.3,0.7
		c-0.5,0-0.9-0.1-1.2-0.6C58.6,4,57.1,4.7,55.7,5.2"/>
	<path class="st43" d="M55.7,5.2c2.2,0.3,4.3,1.2,6.4,1.2c2.3,0,4.5-0.8,6.7-1.1c-1.3,1.5-4,3-6.7,2.9C59.6,8.1,57.1,6.6,55.7,5.2"
		/>
</g>
</svg>
