<svg id="Capa_1" data-name="Capa 1" xmlns="http://www.w3.org/2000/svg" viewBox="0 0 135 46"><defs><style>.cls-1{fill:#27a1d7;}.cls-2{fill:#fff;}.cls-3,.cls-4{fill:none;stroke:#000;}.cls-3{stroke-linejoin:bevel;stroke-width:0.1px;}.cls-4{stroke-miterlimit:22.93;stroke-width:0.11px;}</style></defs><path d="M63.53,34.4V31.58a.57.57,0,0,0,0-.22.14.14,0,0,0-.1-.08h-.47v-.35h2.18a3.4,3.4,0,0,1,1,.15,1.75,1.75,0,0,1,.69.44,1.52,1.52,0,0,1,.39.64,2.7,2.7,0,0,1,.12.84,2.39,2.39,0,0,1-.25,1.13,1.81,1.81,0,0,1-.74.66,2.47,2.47,0,0,1-1.09.22H62.93v-.31h.21a2.14,2.14,0,0,0,.24,0,.18.18,0,0,0,.11-.07.37.37,0,0,0,0-.2m1-.07a.39.39,0,0,0,.07.28s.12.09.26.09a1,1,0,0,1,.28,0,.87.87,0,0,0,.83-.48A2.7,2.7,0,0,0,66.23,33a5,5,0,0,0-.1-.86,1.2,1.2,0,0,0-.35-.61,1.09,1.09,0,0,0-.72-.24H65c-.28,0-.43.1-.43.28ZM69,34.4V31.54a.31.31,0,0,0,0-.18.15.15,0,0,0-.09-.08h-.49V31l3.84,0,0,1.46h-.29c0-.17-.12-.33-.17-.47a2.34,2.34,0,0,0-.26-.34,1.11,1.11,0,0,0-.4-.23,2.17,2.17,0,0,0-.65-.09,1.07,1.07,0,0,0-.36.06.31.31,0,0,0-.12.26v1.17h.12a.73.73,0,0,0,.53-.21,1,1,0,0,0,.25-.57h.3l0,1.95h-.33a1.42,1.42,0,0,0-.1-.45.72.72,0,0,0-.3-.3A1,1,0,0,0,70,33v1.35a.68.68,0,0,0,0,.19.36.36,0,0,0,.12.08h.33a1.89,1.89,0,0,0,.78-.13,1.07,1.07,0,0,0,.45-.38,3,3,0,0,0,.32-.67h.28L72.23,35H68.35v-.33a.65.65,0,0,1,.22,0,.78.78,0,0,0,.32-.06A.35.35,0,0,0,69,34.4m5-2.86a.69.69,0,0,0-.6-.32v-.3h1.43l2.25,2.6V31.84a.61.61,0,0,0-.17-.5.87.87,0,0,0-.48-.12v-.3H78v.3a.9.9,0,0,0-.4.12.41.41,0,0,0-.17.24,3.26,3.26,0,0,0,0,.38v3.09h-.37l-2.7-3.18V34a.62.62,0,0,0,.18.51.72.72,0,0,0,.46.13V35H73.35v-.33a1.08,1.08,0,0,0,.35,0,.39.39,0,0,0,.21-.17A.75.75,0,0,0,74,34.1Zm6.26-.15c0-.12-.08-.17-.23-.17a.65.65,0,0,0-.48.2,1.37,1.37,0,0,0-.31.49,1.67,1.67,0,0,0-.15.56H78.8l.07-1.55h3.78l.08,1.55h-.29a1.67,1.67,0,0,0-.15-.56,1.18,1.18,0,0,0-.33-.48.72.72,0,0,0-.51-.21c-.12,0-.19.06-.19.17v3.09a.16.16,0,0,0,.09.15.92.92,0,0,0,.37.06.59.59,0,0,1,.2,0V35H79.61v-.33H80a.24.24,0,0,0,.16-.06.25.25,0,0,0,0-.17ZM83.82,34l1.38-3.21h.43l1.5,3.58a.41.41,0,0,0,.2.21.61.61,0,0,0,.33.06V35h-2v-.33h.18c.16,0,.25,0,.25-.12a.24.24,0,0,0,0-.12l-.25-.64H84.33a1.84,1.84,0,0,0-.17.52q0,.36.57.36V35H83.1v-.31c.3,0,.54-.26.72-.66m1.26-2-.59,1.41h1.16Zm3.85-.49a.72.72,0,0,0,0-.17.18.18,0,0,0-.11-.07.78.78,0,0,0-.3-.05h-.18v-.3h2.25v.3h-.36a.41.41,0,0,0-.21.05.25.25,0,0,0-.06.18v3a.23.23,0,0,0,0,.17.37.37,0,0,0,.25.07.91.91,0,0,1,.27,0,2,2,0,0,0,.65-.11,1,1,0,0,0,.45-.36,2.43,2.43,0,0,0,.3-.75h.3L92.14,35H88.33v-.3c.21,0,.35,0,.41,0a.16.16,0,0,0,.15-.06s0-.1,0-.21Z"/><path d="M63.53,34.4V31.58a.57.57,0,0,0,0-.22.14.14,0,0,0-.1-.08h-.47v-.35h2.18a3.4,3.4,0,0,1,1,.15,1.75,1.75,0,0,1,.69.44,1.52,1.52,0,0,1,.39.64,2.7,2.7,0,0,1,.12.84,2.39,2.39,0,0,1-.25,1.13,1.81,1.81,0,0,1-.74.66,2.47,2.47,0,0,1-1.09.22H62.93v-.31h.21a2.14,2.14,0,0,0,.24,0,.18.18,0,0,0,.11-.07.37.37,0,0,0,0-.2m1-.07a.39.39,0,0,0,.07.28s.12.09.26.09a1,1,0,0,1,.28,0,.87.87,0,0,0,.83-.48A2.7,2.7,0,0,0,66.23,33a5,5,0,0,0-.1-.86,1.2,1.2,0,0,0-.35-.61,1.09,1.09,0,0,0-.72-.24H65c-.28,0-.43.1-.43.28ZM69,34.4V31.54a.31.31,0,0,0,0-.18.15.15,0,0,0-.09-.08h-.49V31l3.84,0,0,1.46h-.29c0-.17-.12-.33-.17-.47a2.34,2.34,0,0,0-.26-.34,1.11,1.11,0,0,0-.4-.23,2.17,2.17,0,0,0-.65-.09,1.07,1.07,0,0,0-.36.06.31.31,0,0,0-.12.26v1.17h.12a.73.73,0,0,0,.53-.21,1,1,0,0,0,.25-.57h.3l0,1.95h-.33a1.42,1.42,0,0,0-.1-.45.72.72,0,0,0-.3-.3A1,1,0,0,0,70,33v1.35a.68.68,0,0,0,0,.19.36.36,0,0,0,.12.08h.33a1.89,1.89,0,0,0,.78-.13,1.07,1.07,0,0,0,.45-.38,3,3,0,0,0,.32-.67h.28L72.23,35H68.35v-.33a.65.65,0,0,1,.22,0,.78.78,0,0,0,.32-.06A.35.35,0,0,0,69,34.4m5-2.86a.69.69,0,0,0-.6-.32v-.3h1.43l2.25,2.6V31.84a.61.61,0,0,0-.17-.5.87.87,0,0,0-.48-.12v-.3H78v.3a.9.9,0,0,0-.4.12.41.41,0,0,0-.17.24,3.26,3.26,0,0,0,0,.38v3.09h-.37l-2.7-3.18V34a.62.62,0,0,0,.18.51.72.72,0,0,0,.46.13V35H73.35v-.33a1.08,1.08,0,0,0,.35,0,.39.39,0,0,0,.21-.17A.75.75,0,0,0,74,34.1Zm6.26-.15c0-.12-.08-.17-.23-.17a.65.65,0,0,0-.48.2,1.37,1.37,0,0,0-.31.49,1.67,1.67,0,0,0-.15.56H78.8l.07-1.55h3.78l.08,1.55h-.29a1.67,1.67,0,0,0-.15-.56,1.18,1.18,0,0,0-.33-.48.72.72,0,0,0-.51-.21c-.12,0-.19.06-.19.17v3.09a.16.16,0,0,0,.09.15.92.92,0,0,0,.37.06.59.59,0,0,1,.2,0V35H79.61v-.33H80a.24.24,0,0,0,.16-.06.25.25,0,0,0,0-.17ZM83.82,34l1.38-3.21h.43l1.5,3.58a.41.41,0,0,0,.2.21.61.61,0,0,0,.33.06V35h-2v-.33h.18c.16,0,.25,0,.25-.12a.24.24,0,0,0,0-.12l-.25-.64H84.33a1.84,1.84,0,0,0-.17.52q0,.36.57.36V35H83.1v-.31c.3,0,.54-.26.72-.66m1.26-2-.59,1.41h1.16Zm3.85-.49a.72.72,0,0,0,0-.17.18.18,0,0,0-.11-.07.78.78,0,0,0-.3-.05h-.18v-.3h2.25v.3h-.36a.41.41,0,0,0-.21.05.25.25,0,0,0-.06.18v3a.23.23,0,0,0,0,.17.37.37,0,0,0,.25.07.91.91,0,0,1,.27,0,2,2,0,0,0,.65-.11,1,1,0,0,0,.45-.36,2.43,2.43,0,0,0,.3-.75h.3L92.14,35H88.33v-.3c.21,0,.35,0,.41,0a.16.16,0,0,0,.15-.06s0-.1,0-.21Z"/><rect class="cls-1" x="39.29" y="18.92" width="56.42" height="11.15"/><path class="cls-2" d="M54.06,18.15l.26.33,1.56-.39.62.27h1.71l.65.45L60.55,18l1.36.87,1.53-.64h1.94l1.14-.39,2.73.49,1.12,0,.6,0,.69-.75,2.78.43,1,.3c-.12-.27-.3-.48-.46-.76-.36,0-.46,0-.82,0a28.69,28.69,0,0,1-5.71-5.18c-.19.3-.33.72-.51,1l.29.42-2.1-2.51a35.31,35.31,0,0,1-4.52,5.37c-.66.59-1.59,1.39-2.25,2,.57-.51,1.48-1.26,2.06-1.78-.49-.36-1-.75-1.51-1.11l-1.62,1.26c.09.36.38.87.46,1.23-.37-1.11-.93-2.42-1.26-3.55A40,40,0,0,1,54.22,18c-.08.09-.11.06-.16.18"/><path d="M52.81,19.94c.43-.3.84-.62,1.26-1s.82-.7,1.24-1.1l.17.16c-.4.42-.81.8-1.22,1.16s-.82.69-1.24,1Z"/><path d="M71.59,21.74,70,20.12,70.2,20l1.6,1.57-.21.22"/><path d="M72.53,19.76c-.66-.75-1.35-1.54-2-2.36s-1.33-1.68-2-2.51l.19-.15c.67.82,1.37,1.64,2.07,2.43s1.42,1.55,2.11,2.27c-.12.12-.19.21-.32.32"/><path d="M65.24,16.59c-.21.4-.42.76-.65,1.11s-.45.68-.71,1c-.12-.09-.2-.17-.31-.26.28-.32.53-.63.77-.95s.46-.67.69-1.05Z"/><path d="M75.53,18.21a7.61,7.61,0,0,0,3.2,2.65l.91.52h0v0c.24.35.49.64.74.94s.44.52.66.82l.14.09.37.18a12.07,12.07,0,0,0,3.19,1h0l0,0c.91.56,1.73,1,2.55,1.43a20.48,20.48,0,0,0,2.5,1l1.32.31,1.28.3-.06.23c-.42-.11-.85-.2-1.27-.3l-1.34-.31h0a22.39,22.39,0,0,1-2.53-1c-.81-.4-1.64-.87-2.54-1.43a12.57,12.57,0,0,1-3.24-1.05l-.38-.2a.67.67,0,0,1-.2-.13h0c-.21-.3-.43-.56-.65-.82s-.5-.59-.74-.93-.61-.35-.89-.5a8,8,0,0,1-3.09-2.46,3.53,3.53,0,0,1-.21-.32c-.07-.13-.15-.26-.25-.41l-.19-.32h-.3l-.46,0h0l0,0A22.15,22.15,0,0,1,70.93,15c-.92-.86-1.76-1.75-2.5-2.59l-.18.37c-.07.15-.14.3-.21.43l.25.36,1.79,2.28-2-2.14-1-1.25-1-1.14c-.64.94-1.33,1.83-2,2.69s-1.56,1.75-2.39,2.57h0l-.09.07h0l-.11.09c-.3.27-.69.61-1.07.93l-.3.26,0,0-.66.58h0l-.11-.13,0-.05h0c.18-.17.39-.35.62-.54l0,0,1.27-1.11-.48-.35-.83-.61-.74.57-.73.57c.1.24.19.49.27.72a3.52,3.52,0,0,1,.16.45l-.12.06H58.6q-.08-.2-.15-.42a1.42,1.42,0,0,0-.08-.18l-.23-.64,0-.07h0l0-.09c-.25-.65-.5-1.31-.69-1.94-.46.55-.94,1.08-1.43,1.59s-1.1,1.12-1.66,1.66c0,0-.14.16-.17.18a29.75,29.75,0,0,1-2.52,2.19c-.89.69-1.83,1.36-2.77,2l0,0c-.69.6-1.39,1.21-2.15,1.85h0c-.28.19-.53.4-.78.6s-.52.42-.82.62h0l-.16.07a7.33,7.33,0,0,1-1.67.53l0-.23a7.33,7.33,0,0,0,1.61-.52L45,25.3c.27-.18.52-.39.78-.59a8.41,8.41,0,0,1,.8-.61l2.14-1.85,0,0h0c.94-.66,1.88-1.33,2.76-2A29.31,29.31,0,0,0,54,18.05h0l.16-.18h0c.56-.55,1.12-1.1,1.66-1.66s1.06-1.14,1.56-1.75l.14-.18.06.22c.2.68.48,1.42.75,2.14v0l.67-.53c.28-.22.56-.43.8-.63h0l.08-.05.07.05c.28.22.59.44.9.67l.53.38.12-.11c.83-.82,1.63-1.67,2.38-2.56A31,31,0,0,0,66,11.08l.09-.13.1.12,1,1.26.63.74A3.17,3.17,0,0,0,68,12.7c.09-.18.18-.37.28-.53l.08-.14.11.12a34,34,0,0,0,2.59,2.7,22.68,22.68,0,0,0,3.07,2.44,3.49,3.49,0,0,0,.42,0l.37,0H75l0,.06c.06.12.14.24.21.36l.27.46"/><polygon points="66.24 13.06 66.24 13.06 67.7 14.83 69.02 15.99 68.94 16.08 68.87 16.18 67.47 15.14 67.45 15.13 67.44 15.12 66.05 13.2 66.15 13.13 66.24 13.05 66.24 13.06"/><rect x="72.71" y="17.26" width="0.24" height="1.13" transform="translate(4.86 49.49) rotate(-38.74)"/><polygon points="58.2 18.92 58.9 17.54 59.03 17.29 59.12 17.56 59.94 20.06 59.71 20.14 58.98 17.91 58.41 19.03 58.2 18.92"/><path d="M59.42,20.61h0l-.05-.06.54-.54a30.1,30.1,0,0,0,4.23-4.93l.2.13h0a30.32,30.32,0,0,1-4.22,5l-.54.55Z"/><path d="M50.42,23.18l.63,1.43a1,1,0,0,0-.84-.3l-.63-1.38a.82.82,0,0,1,.84.25"/><path class="cls-3" d="M50.42,23.18l.63,1.43a1,1,0,0,0-.84-.3l-.63-1.38A.82.82,0,0,1,50.42,23.18Z"/><polygon points="52.53 23.07 53.16 24.49 53.16 24.48 52.53 23.05 52.53 23.07"/><polygon class="cls-3" points="52.53 23.05 53.16 24.48 53.16 24.49 52.53 23.07 52.53 23.05"/><polygon points="52.56 25.51 53.19 26.93 51.05 24.61 50.42 23.18 52.56 25.51"/><polygon class="cls-3" points="52.56 25.51 53.19 26.93 51.05 24.61 50.42 23.18 52.56 25.51"/><polygon points="53.31 22.88 53.94 24.31 53.76 24.31 53.61 24.33 53.48 24.34 53.36 24.36 53.28 24.38 53.21 24.41 53.18 24.44 53.16 24.48 52.53 23.05 52.55 23.02 52.58 22.98 52.65 22.95 52.73 22.93 52.84 22.92 52.98 22.9 53.13 22.88 53.31 22.88"/><polygon class="cls-3" points="53.31 22.88 53.94 24.31 53.76 24.31 53.61 24.33 53.48 24.34 53.36 24.36 53.28 24.38 53.21 24.41 53.18 24.44 53.16 24.48 52.53 23.05 52.55 23.02 52.58 22.98 52.65 22.95 52.73 22.93 52.84 22.92 52.98 22.9 53.13 22.88 53.31 22.88"/><polygon points="53.31 22.88 53.94 24.29 53.94 23.91 53.34 22.46 53.31 22.88"/><polygon class="cls-3" points="53.34 22.46 53.94 23.91 53.94 24.29 53.31 22.88 53.34 22.46"/><polygon points="52.6 23.2 53.23 24.63 53.21 24.58 52.58 23.15 52.6 23.2"/><polygon class="cls-3" points="52.58 23.15 53.21 24.58 53.23 24.63 52.6 23.2 52.58 23.15"/><polygon points="54.45 26.95 54.47 27.03 54.49 27.1 54.5 27.16 55.14 28.59 55.12 28.53 55.1 28.46 55.09 28.38 55.09 26.84 54.45 25.41 54.45 26.95"/><polygon class="cls-3" points="54.45 25.41 55.09 26.83 55.09 28.38 55.1 28.46 55.12 28.53 55.13 28.59 54.51 27.16 54.49 27.1 54.47 27.03 54.45 26.95 54.45 25.41"/><polygon points="55.32 23.2 55.95 24.63 55.9 24.54 55.83 24.48 55.72 24.41 55.58 24.38 55.4 24.34 55.2 24.31 54.97 24.31 54.34 22.93 54.57 22.88 54.77 22.92 54.95 22.95 55.09 22.98 55.2 23.05 55.27 23.12 55.32 23.2"/><polygon class="cls-3" points="55.32 23.2 55.95 24.63 55.9 24.54 55.83 24.48 55.72 24.41 55.58 24.38 55.4 24.34 55.2 24.31 54.97 24.31 54.34 22.93 54.57 22.88 54.77 22.92 54.95 22.95 55.09 22.98 55.2 23.05 55.27 23.12 55.32 23.2"/><polygon points="55.63 27.68 56.26 29.09 56.26 28.69 55.65 27.24 55.63 27.68"/><polygon class="cls-3" points="55.65 27.24 56.26 28.69 56.26 29.09 55.63 27.68 55.65 27.24"/><polygon points="55.63 27.68 56.26 29.11 52.06 29.11 51.44 27.7 55.63 27.68"/><polygon class="cls-3" points="55.63 27.68 56.26 29.11 52.06 29.11 51.44 27.7 55.63 27.68"/><polygon points="57.44 22.88 58.07 24.29 58.07 23.91 57.46 22.46 57.44 22.88"/><polygon class="cls-3" points="57.46 22.46 58.07 23.91 58.07 24.29 57.44 22.88 57.46 22.46"/><path d="M57.44,22.88l.63,1.43a1.9,1.9,0,0,0-1.34.62l-1.64,1.9-.64-1.42L56.1,23.5a2.11,2.11,0,0,1,1.24-.62Z"/><path class="cls-3" d="M57.44,22.88l.63,1.43a1.9,1.9,0,0,0-1.34.62l-1.64,1.9-.64-1.42L56.1,23.5a2.11,2.11,0,0,1,1.24-.62Z"/><path d="M59.3,23l.63,1.43a2.47,2.47,0,0,0-1.09-.15l-.63-1.38a2.63,2.63,0,0,1,1.09.1"/><path class="cls-3" d="M59.3,23l.63,1.43a2.47,2.47,0,0,0-1.09-.15l-.63-1.38A2.63,2.63,0,0,1,59.3,23Z"/><path d="M61.23,25.19l.63,1.43v1.89l0,0v0l-.63-1.42c0-.09,0-.17,0-.25Z"/><path class="cls-3" d="M61.23,25.19l.63,1.43v1.89l0,0v0l-.63-1.42c0-.09,0-.17,0-.25Z"/><path d="M64.61,24l.63,1.43,0-.07c-.4-.67-1-.78-1.71-1-.42-.05-1.24-.17-1.58.17a.32.32,0,0,0-.06.18v1.53l-.63-1.43V23.28c.09-.54,1.13-.4,1.51-.36a2.24,2.24,0,0,1,1.87,1"/><path class="cls-3" d="M64.61,24l.63,1.43,0-.07c-.4-.67-1-.78-1.71-1-.42-.05-1.24-.17-1.58.17a.32.32,0,0,0-.06.18v1.53l-.63-1.43V23.28c.09-.54,1.13-.4,1.51-.36A2.24,2.24,0,0,1,64.61,24Z"/><path d="M62.74,25.85l.63,1.43,0-.06,0-.07c-.22-.45-1-.53-1.42-.53l-.63-1.43a1.64,1.64,0,0,1,1.51.66"/><path class="cls-3" d="M62.74,25.85l.63,1.43,0-.06,0-.07c-.22-.45-1-.53-1.42-.53l-.63-1.43A1.64,1.64,0,0,1,62.74,25.85Z"/><polygon points="63.45 26.29 64.08 27.71 64.05 25.22 63.42 23.8 63.45 26.29"/><polygon class="cls-3" points="63.42 23.8 64.05 25.22 64.08 27.71 63.45 26.29 63.42 23.8"/><polygon points="63.4 27.36 63.43 27.43 62.8 26 62.77 25.94 63.4 27.36"/><polygon class="cls-3" points="62.8 26 63.43 27.43 63.4 27.36 62.77 25.94 62.8 26"/><polygon points="62.87 26.29 63.5 27.71 64.08 27.71 63.45 26.29 62.87 26.29"/><polygon class="cls-3" points="63.45 26.29 64.08 27.71 63.5 27.71 62.87 26.29 63.45 26.29"/><polygon points="65.28 25.47 65.33 25.56 64.69 24.13 64.65 24.05 65.28 25.47"/><polygon class="cls-3" points="64.7 24.13 65.33 25.55 65.28 25.47 64.65 24.05 64.7 24.13"/><polygon points="65.36 24.38 65.99 25.79 65.89 23.91 65.29 22.46 65.36 24.38"/><polygon class="cls-3" points="65.29 22.46 65.89 23.91 65.99 25.79 65.36 24.38 65.29 22.46"/><polygon points="64.8 24.38 65.42 25.8 65.99 25.8 65.36 24.38 64.8 24.38"/><polygon class="cls-3" points="65.36 24.38 65.99 25.8 65.43 25.8 64.8 24.38 65.36 24.38"/><polygon points="65.36 27.68 65.99 29.11 58.84 29.11 58.21 27.71 65.36 27.68"/><polygon class="cls-3" points="65.36 27.68 65.99 29.11 58.84 29.11 58.21 27.71 65.36 27.68"/><polygon points="65.36 27.68 65.99 29.09 66.06 27.22 65.43 25.79 65.36 27.68"/><polygon class="cls-3" points="65.43 25.79 66.06 27.21 65.99 29.09 65.36 27.68 65.43 25.79"/><polygon points="66.2 24.5 66.82 25.89 67.28 25.89 66.66 24.46 66.2 24.5"/><polygon class="cls-3" points="66.65 24.46 67.28 25.89 66.82 25.89 66.2 24.5 66.65 24.46"/><path d="M68.83,23.05l.63,1.43,0-.07-.09-.07a1.52,1.52,0,0,0-1.44.42,2.29,2.29,0,0,0-.62,1.1l-.63-1.4a2.21,2.21,0,0,1,.8-1.28,1.45,1.45,0,0,1,1.26-.26l.09.06Z"/><path class="cls-3" d="M68.83,23.05l.63,1.43,0-.07-.09-.07a1.52,1.52,0,0,0-1.44.42,2.29,2.29,0,0,0-.62,1.1l-.63-1.4a2.21,2.21,0,0,1,.8-1.28,1.45,1.45,0,0,1,1.26-.26l.09.06Z"/><polygon points="71.95 27.68 72.58 29.09 72.58 28.69 71.98 27.24 71.95 27.68"/><polygon class="cls-3" points="71.98 27.24 72.58 28.69 72.58 29.09 71.95 27.68 71.98 27.24"/><path d="M72.68,23.83l.63,1.43-.07-.09a1.6,1.6,0,0,0-1-.81,1.48,1.48,0,0,0-.78,0,.21.21,0,0,0-.1.17v4l-.63-1.42V23l.09-.08.11,0h.42l.11,0,.14,0,.11,0,.1,0,.12.05.1.07.08.06.08.07.09.08.08.07.08.08.07.1,0,.08,0,.09Z"/><path class="cls-3" d="M72.68,23.83l.63,1.43-.07-.09a1.6,1.6,0,0,0-1-.81,1.48,1.48,0,0,0-.78,0,.21.21,0,0,0-.1.17v4l-.63-1.42V23l.09-.08.11,0h.42l.11,0,.14,0,.11,0,.1,0,.12.05.1.07.08.06.08.07.09.08.08.07.08.08.07.1,0,.08,0,.09Z"/><polygon points="71.95 27.68 72.58 29.11 68.3 29.11 67.67 27.71 71.95 27.68"/><polygon class="cls-3" points="71.95 27.68 72.58 29.11 68.3 29.11 67.67 27.71 71.95 27.68"/><polygon points="73.34 25.34 73.39 25.44 73.44 25.52 72.81 24.09 72.76 24.01 72.71 23.91 73.34 25.34"/><polygon class="cls-3" points="72.81 24.09 73.44 25.52 73.39 25.44 73.34 25.34 72.71 23.91 72.76 24.01 72.81 24.09"/><polygon points="73.47 24.46 74.1 25.87 73.94 23.91 73.32 22.46 73.47 24.46"/><polygon class="cls-3" points="73.32 22.46 73.94 23.91 74.1 25.87 73.47 24.46 73.32 22.46"/><polygon points="72.93 24.46 73.56 25.89 74.11 25.89 73.47 24.46 72.93 24.46"/><polygon class="cls-3" points="73.48 24.46 74.11 25.89 73.56 25.89 72.93 24.46 73.48 24.46"/><path d="M74.89,23l.63,1.42h0l0,0-.06,0H75.2l-.1,0h-.58l-.62-1.38a1.85,1.85,0,0,1,1,0"/><path class="cls-3" d="M74.89,23l.63,1.42h0l0,0-.06,0H75.2l-.1,0h-.58l-.62-1.38A1.85,1.85,0,0,1,74.89,23Z"/><polygon points="75.52 24.39 75.58 24.43 75.62 24.49 74.99 23.07 74.95 23 74.89 22.97 75.52 24.39"/><polygon class="cls-3" points="74.99 23.07 75.62 24.49 75.58 24.43 75.52 24.39 74.89 22.97 74.95 23 74.99 23.07"/><path d="M77,23l.63,1.43a.47.47,0,0,0-.1.2v3.78l0,.08,0,.07-.64-1.43v-.06l0-.09V23.2l0-.05v0l0-.05Z"/><path class="cls-3" d="M77,23l.63,1.43a.47.47,0,0,0-.1.2v3.78l0,.08,0,.07-.64-1.43v-.06l0-.09V23.2l0-.05v0l0-.05Z"/><polygon points="78.01 22.88 78.63 24.29 78.64 23.91 78.03 22.46 78.01 22.88"/><polygon class="cls-3" points="78.03 22.46 78.64 23.91 78.63 24.29 78.01 22.88 78.03 22.46"/><path d="M78,22.88l.63,1.43h-.53c-.11,0-.41,0-.47.12L77,23c.06-.11.47-.12.58-.12Z"/><path class="cls-3" d="M78,22.88l.63,1.43h-.53c-.11,0-.41,0-.47.12L77,23c.06-.11.47-.12.58-.12Z"/><polygon points="78.01 27.68 78.63 29.09 78.64 28.69 78.03 27.24 78.01 27.68"/><polygon class="cls-3" points="78.03 27.24 78.64 28.69 78.63 29.09 78.01 27.68 78.03 27.24"/><polygon points="78.01 27.68 78.64 29.11 74.52 29.11 73.9 27.71 78.01 27.68"/><polygon class="cls-3" points="78.01 27.68 78.64 29.11 74.52 29.11 73.9 27.71 78.01 27.68"/><path class="cls-2" d="M50.44,23.18h0a1,1,0,0,0-.72-.28h-.14v-.41h3.75v.41c-.51,0-.79.06-.79.16a.2.2,0,0,0,0,.08l0,.07,1.52,1.67,1.18-1.41,0-.06s0-.09,0-.12c0-.26-.35-.39-1-.39v-.41h3.1v.41a1.69,1.69,0,0,0-.75.18,1.86,1.86,0,0,0-.59.42l-1.64,1.92V27a.32.32,0,0,0,.09.24.53.53,0,0,0,.24.06l.84,0v.4h-4.2v-.4h.8a.53.53,0,0,0,.25-.08.24.24,0,0,0,.09-.18V25.51Zm8.9,3.75V23.27a.74.74,0,0,0,0-.24c-.1-.14-.93-.13-1.09-.13v-.38l7.06,0,.09,1.89h-.55a2.07,2.07,0,0,0-.8-1.06,3.53,3.53,0,0,0-1.89-.42,2.58,2.58,0,0,0-.64.07.32.32,0,0,0-.24.32v1.53h.21a1.74,1.74,0,0,0,1-.26,1.14,1.14,0,0,0,.46-.75h.56l0,2.49h-.59a1.41,1.41,0,0,0-.21-.57,1.05,1.05,0,0,0-.54-.4,2.9,2.9,0,0,0-.88-.14v1.74a.66.66,0,0,0,0,.24.37.37,0,0,0,.25.09l.6,0a4.23,4.23,0,0,0,1.38-.17,1.93,1.93,0,0,0,.84-.49,4.7,4.7,0,0,0,.6-.86l.5,0-.08,1.89H58.22v-.4a7.76,7.76,0,0,0,1,0,.37.37,0,0,0,.16-.32m9.51-3.87c0-.1-.16-.19-.42-.19a1.62,1.62,0,0,0-.88.25,2.34,2.34,0,0,0-.59.63,2.49,2.49,0,0,0-.28.72h-.47l.12-2h7l.16,2h-.54a2.91,2.91,0,0,0-.3-.72,2,2,0,0,0-.58-.63,1.82,1.82,0,0,0-.93-.25c-.26,0-.38.09-.38.22V27a.33.33,0,0,0,.12.23.42.42,0,0,0,.25.06H72v.4H67.68v-.4h.75a.7.7,0,0,0,.35-.08.29.29,0,0,0,.07-.21ZM75,26.93V23.24c0-.12,0-.24-.13-.27a2,2,0,0,0-.63-.07H73.9v-.41H78v.41c-.27,0-.68,0-.8,0a.28.28,0,0,0-.3.28V27a.23.23,0,0,0,.14.24,2.09,2.09,0,0,0,.58.05H78v.4H73.9v-.4h.38a2.7,2.7,0,0,0,.6-.05A.33.33,0,0,0,75,27Z"/><path class="cls-4" d="M50.44,23.18h0a1,1,0,0,0-.72-.28h-.14v-.41h3.75v.41c-.51,0-.79.06-.79.16a.2.2,0,0,0,0,.08l0,.07,1.52,1.67,1.18-1.41,0-.06s0-.09,0-.12c0-.26-.35-.39-1-.39v-.41h3.1v.41a1.69,1.69,0,0,0-.75.18,1.86,1.86,0,0,0-.59.42l-1.64,1.92V27a.32.32,0,0,0,.09.24.53.53,0,0,0,.24.06l.84,0v.4h-4.2v-.4h.8a.53.53,0,0,0,.25-.08.24.24,0,0,0,.09-.18V25.51Zm8.9,3.75V23.27a.74.74,0,0,0,0-.24c-.1-.14-.93-.13-1.09-.13v-.38l7.06,0,.09,1.89h-.55a2.07,2.07,0,0,0-.8-1.06,3.53,3.53,0,0,0-1.89-.42,2.58,2.58,0,0,0-.64.07.32.32,0,0,0-.24.32v1.53h.21a1.74,1.74,0,0,0,1-.26,1.14,1.14,0,0,0,.46-.75h.56l0,2.49h-.59a1.41,1.41,0,0,0-.21-.57,1.05,1.05,0,0,0-.54-.4,2.9,2.9,0,0,0-.88-.14v1.74a.66.66,0,0,0,0,.24.37.37,0,0,0,.25.09l.6,0a4.23,4.23,0,0,0,1.38-.17,1.93,1.93,0,0,0,.84-.49,4.7,4.7,0,0,0,.6-.86l.5,0-.08,1.89H58.22v-.4a7.76,7.76,0,0,0,1,0A.37.37,0,0,0,59.34,26.93Zm9.51-3.87c0-.1-.16-.19-.42-.19a1.62,1.62,0,0,0-.88.25,2.34,2.34,0,0,0-.59.63,2.49,2.49,0,0,0-.28.72h-.47l.12-2h7l.16,2h-.54a2.91,2.91,0,0,0-.3-.72,2,2,0,0,0-.58-.63,1.82,1.82,0,0,0-.93-.25c-.26,0-.38.09-.38.22V27a.33.33,0,0,0,.12.23.42.42,0,0,0,.25.06H72v.4H67.68v-.4h.75a.7.7,0,0,0,.35-.08.29.29,0,0,0,.07-.21ZM75,26.93V23.24c0-.12,0-.24-.13-.27a2,2,0,0,0-.63-.07H73.9v-.41H78v.41c-.27,0-.68,0-.8,0a.28.28,0,0,0-.3.28V27a.23.23,0,0,0,.14.24,2.09,2.09,0,0,0,.58.05H78v.4H73.9v-.4h.38a2.7,2.7,0,0,0,.6-.05A.33.33,0,0,0,75,27Z"/></svg>