<svg xmlns="http://www.w3.org/2000/svg" viewBox="0 0 53.29 24.27"><defs><style>.cls-1{fill:#38444e;}</style></defs><g id="Capa_2" data-name="Capa 2"><g id="Capa_1-2" data-name="Capa 1"><path class="cls-1" d="M17.33,23.18H17l.17-.65h.3a.34.34,0,0,1,.28.1.21.21,0,0,1,.07.17c0,.24-.2.38-.51.38m.17-1.07h-.66l-.56,2.13h.46l.17-.65h.4c.57,0,1-.3,1-.83a.56.56,0,0,0-.16-.43.84.84,0,0,0-.66-.22m-1.61,0-.32,1.2a.8.8,0,0,1-.2.39.46.46,0,0,1-.34.14.34.34,0,0,1-.37-.35.93.93,0,0,1,0-.24l.3-1.14h-.46l-.29,1.1a1.47,1.47,0,0,0-.05.34.69.69,0,0,0,.78.72,1,1,0,0,0,.71-.26,1.35,1.35,0,0,0,.33-.63l.33-1.27Zm-3.21,1.73a.49.49,0,0,1-.53-.54.78.78,0,0,1,.72-.8.5.5,0,0,1,.54.54.79.79,0,0,1-.73.8m.25-1.77a1.27,1.27,0,0,0-1.26,1.26.91.91,0,0,0,.95.94A1.25,1.25,0,0,0,13.88,23a.91.91,0,0,0-1-.94m-2,.94a.59.59,0,0,1-.42.13h-.41l.16-.61h.39a.41.41,0,0,1,.3.09.22.22,0,0,1,.07.17.34.34,0,0,1-.09.22m-.26-.9H9.89l-.56,2.13h.46l.18-.68h.34l.32.68h.53l-.36-.73a1,1,0,0,0,.49-.26.7.7,0,0,0,.19-.5.63.63,0,0,0-.16-.43.91.91,0,0,0-.67-.21m-2.22.39a.7.7,0,0,1,.55.25l.34-.31a1,1,0,0,0-.86-.37,1.31,1.31,0,0,0-1.31,1.28.92.92,0,0,0,1,.92,1.48,1.48,0,0,0,.76-.2L9.2,23H8.29l-.11.41h.46l-.1.34a.88.88,0,0,1-.37.08.5.5,0,0,1-.54-.51.82.82,0,0,1,.8-.83M19.3,19.22h-.46l-.56,2.12h1.5l.12-.42h-1Zm-2,.53.1.7h-.56Zm-.74,1.12h.89l.07.47H18l-.33-2.14h-.45l-1.46,2.14h.5Zm-1.32.47.45-1.69h.64l.11-.43H14.74l-.12.43h.64l-.45,1.69ZM13,19.22h-.43L12,21.34h.45L12.84,20l.64,1.39h.39l.56-2.12H14l-.36,1.35ZM10.6,20.93l.12-.45h1l.11-.41h-1l.11-.44h1.11l.11-.41H10.59L10,21.34h1.58l.11-.41Zm-1.15-.8a.75.75,0,0,1-.21.53,1,1,0,0,1-.7.26H8.28l.34-1.28h.22a.61.61,0,0,1,.48.16.44.44,0,0,1,.13.33m-1.18-.91-.56,2.12h.77A1.45,1.45,0,0,0,9.58,21a1.16,1.16,0,0,0,.35-.84.88.88,0,0,0-.23-.62,1.1,1.1,0,0,0-.82-.27Zm15.44-6.08h0Zm3.78,4.07,1.3-5.68a.45.45,0,0,0,0-.12.48.48,0,0,0-.48-.49H23.61a.36.36,0,0,0-.32.25.34.34,0,0,0,0,.1l.37,1.6.06.27c0,.16.24.24.43.24h1.14a.22.22,0,0,1,.22.25h0l-.39,1.71a.6.6,0,0,1-.37.39,3.47,3.47,0,0,1-1.41.27,2.79,2.79,0,0,1-1.27-.27c-1.13-.58-1.34-2.2-1-3.59.56-2.44,1.48-3.69,3.69-3.69h3.38a1.16,1.16,0,0,0,1-.5l.12-.23L30,6.35a.36.36,0,0,0,0-.1A.25.25,0,0,0,29.74,6H25.28c-4.7,0-6.31,2.75-7.07,6.14a5,5,0,0,0,2.16,5.59,6.37,6.37,0,0,0,3.13.68A8.67,8.67,0,0,0,27,17.71a.82.82,0,0,0,.5-.5m2,1.1h2.24a.35.35,0,0,0,.33-.25l2-8.86a0,0,0,1,1,.1,0l.41,6.4c0,.15.08.25.21.25h2.51a1.18,1.18,0,0,0,.69-.24,1.57,1.57,0,0,0,.43-.49l.13-.25L41.4,9.47l.12-.23v0a.09.09,0,0,1,.07-.05s0,0,0,.06l-.06.24-1.94,8.44,0,.18a.21.21,0,0,0,.23.24h2.24a.35.35,0,0,0,.33-.25l.06-.25,2.6-11.32,0-.24A.22.22,0,0,0,44.89,6H41.14a1.22,1.22,0,0,0-.69.25,1.57,1.57,0,0,0-.43.49l-.1.21-2.63,5a.06.06,0,0,1-.06,0s-.06,0-.07-.07l-.31-4.67V7a1,1,0,0,0-.27-.63A1.23,1.23,0,0,0,35.65,6h-3.4a.31.31,0,0,0-.29.23l-.06.26L29.24,18.06a.22.22,0,0,0,.23.25M28.93.44h.2a.26.26,0,0,0,.24-.2.15.15,0,0,0-.15-.19H29c-.76,0-1.54,0-2.32,0C12,0,0,5.37,0,12.07c0,2.25,1.34,4.36,3.68,6.17l0,0a.13.13,0,0,0,.08,0A.19.19,0,0,0,4,18.17a.14.14,0,0,0,0-.12L3.89,18a6.17,6.17,0,0,1-2.06-5.91C3.28,5.68,15.37.51,28.93.44M15.71,13.1h0ZM18.8,6.33a.2.2,0,0,0,0-.11A.25.25,0,0,0,18.58,6h-.24L11.86,6h-.34a.67.67,0,0,0-.61.49L8.31,17.78,8.26,18a.22.22,0,0,0,.22.25h2.24a.38.38,0,0,0,.34-.24l0-.1,1-4.38a.32.32,0,0,1,.29-.2h2.82a.63.63,0,0,0,.52-.25l.13-.26.84-1.6a.2.2,0,0,0,0-.11.24.24,0,0,0-.24-.24H12.94a.19.19,0,0,1-.19-.25v0l.45-1.94a.3.3,0,0,1,.29-.23H17a1.13,1.13,0,0,0,1-.49l.12-.23ZM49.61,6l0,0a.19.19,0,0,0-.08,0,.17.17,0,0,0-.17.14.11.11,0,0,0,0,.12l.06.06a6.21,6.21,0,0,1,2.07,5.92C50,18.56,37.92,23.73,24.36,23.79h-.2a.27.27,0,0,0-.24.19.15.15,0,0,0,.15.2h.23c.77,0,1.54,0,2.32,0,14.72,0,26.66-5.38,26.67-12.08C53.3,9.91,52,7.8,49.61,6"/></g></g></svg>