<?xml version="1.0" encoding="utf-8"?>
<!-- Generator: Adobe Illustrator 25.4.1, SVG Export Plug-In . SVG Version: 6.00 Build 0)  -->
<svg version="1.1" id="Capa_1" xmlns="http://www.w3.org/2000/svg" xmlns:xlink="http://www.w3.org/1999/xlink" x="0px" y="0px"
	 viewBox="0 0 135 46" style="enable-background:new 0 0 135 46;" xml:space="preserve">
<style type="text/css">
	.st0{fill:#38444E;}
	.st1{fill:#E64860;}
	.st2{fill:#808791;}
	.st3{clip-path:url(#SVGID_00000036251827945727208770000015403458529413234619_);fill:#E64860;}
	.st4{fill:none;stroke:#E64860;stroke-width:0.6287;stroke-miterlimit:10;}
	.st5{fill:#194374;}
	.st6{fill:#00659B;}
	.st7{fill:#DC0D6E;}
	.st8{fill:#004D80;}
	.st9{fill:#7EA9D6;}
	.st10{fill:#B6D4EF;}
	.st11{fill:#058DC7;}
	.st12{fill:#00559F;}
	.st13{fill:#134A83;}
	.st14{fill:#B51975;}
	.st15{fill:#2497D0;}
	.st16{fill:#D80F3B;}
	.st17{fill:#9BC338;}
	.st18{fill:#008541;}
	.st19{fill:#9DC438;}
	
		.st20{clip-path:url(#SVGID_00000120550616584479210900000004369532630519675043_);fill:url(#SVGID_00000007426350495095224400000013880264101516391871_);}
	
		.st21{clip-path:url(#SVGID_00000033343746846648663270000008208623801615311503_);fill:url(#SVGID_00000127035517929826460040000014173333459402902144_);}
	
		.st22{clip-path:url(#SVGID_00000124158117549201799660000013042687521223445161_);fill:url(#SVGID_00000127766414057086693840000006664193549178414501_);}
	.st23{fill:#F9BE12;}
	.st24{clip-path:url(#SVGID_00000134950454427905271020000013369400177362656959_);}
	.st25{clip-path:url(#SVGID_00000007427954058486337760000005631827338669128369_);}
	.st26{clip-path:url(#SVGID_00000181799228691098913690000007526029347014798761_);}
	.st27{clip-path:url(#SVGID_00000006670824041943671820000003780304274260792201_);}
	.st28{clip-path:url(#SVGID_00000028320740674709294210000001707492379386585529_);}
	.st29{clip-path:url(#SVGID_00000132058445769706362350000011730676053174586266_);}
	.st30{clip-path:url(#SVGID_00000090279301095168242350000005998289584113560979_);}
	.st31{clip-path:url(#SVGID_00000019649147043291237460000002527420576756660916_);}
	.st32{clip-path:url(#SVGID_00000018225912190909492000000004267898459786435258_);}
	
		.st33{clip-path:url(#SVGID_00000003088390763402057270000014570185399589354169_);fill:url(#SVGID_00000047049085733769672890000009010562880517547955_);}
	.st34{clip-path:url(#SVGID_00000047028399973039427320000015632843843129960861_);}
	.st35{clip-path:url(#SVGID_00000065073253801150705700000000084176411915232902_);}
	.st36{clip-path:url(#SVGID_00000111893173011460895410000001438631126009238432_);}
	.st37{clip-path:url(#SVGID_00000001659681111617227870000013335745401145113228_);}
	.st38{clip-path:url(#SVGID_00000027597080625109487270000018138054644936104857_);}
	.st39{clip-path:url(#SVGID_00000132065743444605782450000015317598993883458487_);}
	.st40{fill:#009BDA;}
	.st41{fill:#CE1620;}
	.st42{fill:#171915;}
	.st43{fill:#E30750;}
	.st44{fill:#5775B5;}
	.st45{fill:none;stroke:#5775B5;stroke-width:0.5802;}
	.st46{fill:#5A595C;}
	.st47{fill:#FFFFFF;}
	.st48{fill:#364F8F;}
	.st49{fill:none;stroke:#364F8F;stroke-width:0.3873;}
	.st50{fill:none;stroke:#364F8F;stroke-width:1.3345;stroke-linecap:round;}
	.st51{fill:#656362;}
	.st52{fill:#C8D44A;}
	.st53{fill:#E42E38;}
	.st54{fill:none;stroke:#FFFFFF;stroke-width:0.4523;stroke-miterlimit:10;}
	.st55{fill:#51B054;}
	.st56{fill:#0079BB;}
	.st57{fill:#086EB0;}
	.st58{fill:#99A4AB;}
	.st59{fill:#B2A7A5;}
	.st60{fill:#931340;}
	.st61{fill:#DFDCD9;}
	.st62{fill:#27A1D7;}
	.st63{fill:none;stroke:#000000;stroke-width:0.1494;stroke-linejoin:bevel;stroke-miterlimit:22.926;}
	.st64{fill:none;stroke:#000000;stroke-width:0.1585;stroke-miterlimit:22.926;}
	.st65{fill:#EA3D36;stroke:#ED1C24;stroke-width:0.1417;stroke-linejoin:round;}
	.st66{fill:#EA3D36;}
</style>
<g>
	<polygon class="st56" points="17.5,23.3 67,8.4 117.5,23.3 66.9,37.6 	"/>
	<path class="st47" d="M37.2,18.4c20.4-5.9,41.6-5.7,59.7-0.3c5.6,2.1,5.3,8.3-0.1,9.8c-18.9,5.4-39.2,6-59.7,0
		C32.9,26.5,32.5,20.1,37.2,18.4"/>
	<path class="st56" d="M49.7,23.4h-2.5c-0.2,0-0.3,0.1-0.3,0.3v4c0,0.2-0.1,0.3-0.3,0.3h-1.8c-0.1,0-0.3-0.1-0.3-0.3V18
		c0-0.2,0.1-0.3,0.3-0.3h1.8c0.2,0,0.3,0.2,0.3,0.3v2.8c0,0.2,0.1,0.3,0.2,0.3h2.5c0.2,0,0.3-0.1,0.2-0.2V18c0-0.2,0.1-0.3,0.3-0.3
		H52c0.2,0,0.3,0.2,0.3,0.3v9.8c0,0.1-0.2,0.3-0.3,0.3h-1.8c0,0-0.3-0.1-0.3-0.3v-4.1C49.9,23.5,49.8,23.4,49.7,23.4"/>
	<path class="st56" d="M71.9,17.7h1.6c0.1,0,0.2,0.1,0.2,0.3v9.7c0,0.2-0.1,0.3-0.2,0.3h-1.6c-0.1,0-0.2-0.1-0.2-0.3V18
		C71.6,17.9,71.7,17.7,71.9,17.7"/>
	<path class="st56" d="M57.8,17.6c2.7,0,4.9,2.4,4.9,5.3c0,2.9-2.2,5.3-4.9,5.3c-2.7,0-4.9-2.4-4.9-5.3
		C52.9,19.9,55.1,17.6,57.8,17.6"/>
	<path class="st47" d="M57.8,20.1c1.4,0,2.5,1.2,2.5,2.8c0,1.5-1.1,2.8-2.5,2.8c-1.4,0-2.5-1.2-2.5-2.8
		C55.3,21.3,56.4,20.1,57.8,20.1"/>
	<path class="st56" d="M86.4,17.6c2.7,0,4.9,2.4,4.9,5.3c0,2.9-2.2,5.3-4.9,5.3c-2.7,0-4.9-2.4-4.9-5.3
		C81.4,19.9,83.7,17.6,86.4,17.6"/>
	<path class="st47" d="M86.4,20.1c1.4,0,2.5,1.2,2.5,2.8c0,1.5-1.1,2.8-2.5,2.8c-1.4,0-2.5-1.2-2.5-2.8C83.9,21.3,85,20.1,86.4,20.1
		"/>
	<path class="st56" d="M81.3,25.3l0.1,2.4c-0.7,0.3-1.4,0.4-2,0.4c-2.8,0-4.9-2.4-4.9-5.3c0-2.9,2.1-5.3,4.9-5.3
		c0.6,0,1.1,0,1.6,0.3c0.1,0.1,0.2,0.1,0.2,0.4l-0.1,1.9c0,0.4-0.2,0.5-0.5,0.3c-0.4-0.2-0.7-0.3-1.2-0.3c-1.7,0-2.4,1.3-2.4,2.8
		c0,1.5,0.8,2.7,2.4,2.7c0.4,0,0.9,0,1.3-0.4C80.9,25,81.4,24.7,81.3,25.3"/>
	<path class="st56" d="M65.4,17.7c1.7,0,3.4-0.1,4.7,1.4c1.7,2,0.5,4.6-1.3,5.7c-0.1,0.2-0.1,0.5,0.1,0.6c0.5,0.3,0.9,0.4,1.4,0.4
		c0.2,0,0.2,0.1,0.2,0.3v1.6c0,0.2-0.1,0.2-0.2,0.2c-1.5,0.1-2.9-0.7-3.8-1.6c-0.4-0.3-0.8-0.2-0.8,0.4v0.9c0,0.2-0.1,0.3-0.3,0.3
		h-1.5c-0.3,0-0.3-0.1-0.3-0.4V18c0-0.2,0.1-0.3,0.3-0.3H65.4z"/>
	<path class="st47" d="M65.6,22.5v-2.1c0-0.2,0.1-0.3,0.3-0.3h1.3c1.8,0.1,1.8,2.9,0,2.9h-1.4C65.7,22.9,65.6,22.8,65.6,22.5"/>
	<path class="st56" d="M102.5,12.5C102.5,12.4,102.5,12.4,102.5,12.5c0-0.1,0-0.1,0-0.1c0,0,0,0-0.1,0c0,0-0.1,0-0.1,0h-0.1v0.3h0.1
		c0.1,0,0.1,0,0.1,0C102.5,12.5,102.5,12.5,102.5,12.5 M103,13.3C103,13.3,103,13.3,103,13.3C103,13.3,102.9,13.3,103,13.3
		c-0.1,0-0.1,0.1-0.1,0.1c0,0-0.1,0-0.1,0s-0.1,0-0.1,0c0,0,0,0-0.1,0c0,0,0,0,0,0c0,0,0,0,0,0l-0.1-0.2c0-0.1,0-0.1-0.1-0.1
		c0,0-0.1,0-0.1,0h-0.1v0.4c0,0,0,0,0,0.1c0,0-0.1,0-0.2,0c-0.1,0-0.1,0-0.2,0c0,0,0,0,0-0.1v-1.1c0-0.1,0-0.1,0-0.1
		c0,0,0.1,0,0.1,0h0.4c0.1,0,0.1,0,0.2,0c0.1,0,0.1,0,0.2,0.1c0.1,0,0.1,0.1,0.1,0.1c0,0.1,0,0.1,0,0.2c0,0.1,0,0.2-0.1,0.2
		c-0.1,0.1-0.1,0.1-0.2,0.1c0.1,0,0.1,0,0.1,0.1c0,0,0.1,0.1,0.1,0.2l0.1,0.2C103,13.3,103,13.3,103,13.3 M103.3,12.7
		c0-0.1,0-0.3-0.1-0.4s-0.1-0.2-0.2-0.3c-0.1-0.1-0.2-0.2-0.3-0.2c-0.1,0-0.2-0.1-0.4-0.1c-0.1,0-0.3,0-0.4,0.1
		c-0.1,0.1-0.2,0.1-0.3,0.2c-0.1,0.1-0.1,0.2-0.2,0.3c0,0.1-0.1,0.2-0.1,0.4c0,0.1,0,0.3,0.1,0.4s0.1,0.2,0.2,0.3
		c0.1,0.1,0.2,0.2,0.3,0.2c0.1,0,0.2,0.1,0.4,0.1c0.1,0,0.3,0,0.4-0.1c0.1-0.1,0.2-0.1,0.3-0.2c0.1-0.1,0.1-0.2,0.2-0.3
		C103.3,13,103.3,12.9,103.3,12.7 M103.7,12.7c0,0.2,0,0.4-0.1,0.5c-0.1,0.2-0.2,0.3-0.3,0.4c-0.1,0.1-0.3,0.2-0.4,0.3
		c-0.2,0.1-0.3,0.1-0.5,0.1c-0.2,0-0.4,0-0.5-0.1c-0.2-0.1-0.3-0.2-0.4-0.3c-0.1-0.1-0.2-0.2-0.3-0.4c-0.1-0.2-0.1-0.3-0.1-0.5
		c0-0.2,0-0.3,0.1-0.5c0.1-0.2,0.2-0.3,0.3-0.4c0.1-0.1,0.3-0.2,0.4-0.3c0.2-0.1,0.3-0.1,0.5-0.1c0.2,0,0.4,0,0.5,0.1
		c0.2,0.1,0.3,0.2,0.4,0.3c0.1,0.1,0.2,0.2,0.3,0.4C103.6,12.4,103.7,12.5,103.7,12.7"/>
</g>
</svg>
