<svg id="Capa_1" data-name="Capa 1" xmlns="http://www.w3.org/2000/svg" viewBox="0 0 135 46"><defs><style>.cls-1{fill:#7ea9d6;}.cls-2{fill:#b6d4ef;}.cls-3{fill:#058dc7;}.cls-4{fill:#00559f;}</style></defs><path class="cls-1" d="M46.49,23.2c0-.27,0-.54,0-.81a12,12,0,0,0-9.84-11.81c4.14,3.73,8.5,10.51,9.81,12.62"/><path class="cls-2" d="M31.29,34a12.21,12.21,0,0,0,3.22.44,12,12,0,0,0,10.55-6.27C40.82,30.85,34.22,33.06,31.29,34"/><path class="cls-3" d="M27,27.45c-.26,0-1.57-.26-1.57-2.19a9.19,9.19,0,0,1,1.09-3.87c.32-.49.25,0,.24.13-.21,2.49,1.13,3.68,1.13,4.68s-.63,1.25-.89,1.25m6.27-12.06c-1.31.73-5.07,3.24-5.85,3.76s-1.31.73-.16-1a54.21,54.21,0,0,1,6-7.67A12,12,0,0,0,26.5,31.33c1.83-3.61,7.26-14.3,7.7-15.21.52-1.09.36-1.46-.94-.73"/><path class="cls-4" d="M111.67,27.82h.83V27h-.83Zm-2.8,0h2.29V27h-1.43V23.18h-.86Zm-1.73,0H108V27h-.84Zm-3.63-1.31a1.47,1.47,0,0,0,1.5,1.42,1.49,1.49,0,0,0,1.51-1.47,1.25,1.25,0,0,0-.49-1.05,2.72,2.72,0,0,0-.91-.43c-.27-.09-.59-.23-.58-.57a.45.45,0,0,1,.46-.49.51.51,0,0,1,.52.49h.88a1.35,1.35,0,0,0-1.35-1.32,1.31,1.31,0,0,0-1,2.21,1.77,1.77,0,0,0,.81.43c.38.12.81.28.81.78a.63.63,0,0,1-1.25,0Zm-5.28,1.31h.83V26.24a1.8,1.8,0,0,1,.14-.89.7.7,0,0,1,.59-.31.68.68,0,0,1,.55.29,1.74,1.74,0,0,1,.14.85v1.64h.84V26a2,2,0,0,0-.28-1.26.39.39,0,0,0-.08-.1,1.41,1.41,0,0,0-1-.43,1.17,1.17,0,0,0-.95.43h0v-.32h-.77Zm-3.3-2.11a1,1,0,0,1,1-.67,1,1,0,0,1,.95.67Zm2.71.74a2.6,2.6,0,0,0,0-.39,1.82,1.82,0,0,0-1.79-1.83,1.85,1.85,0,0,0-1.85,1.88,1.83,1.83,0,0,0,1.84,1.82,1.81,1.81,0,0,0,1.67-1.11h-.92a1.1,1.1,0,0,1-.78.3,1,1,0,0,1-.92-.67ZM91.89,25a1,1,0,0,1,1,1.05,1,1,0,0,1-1,1,1,1,0,1,1,0-2.08m-1.83,2.78h.76v-.47h0a1.31,1.31,0,0,0,1.17.58,1.64,1.64,0,0,0,1.27-.58,2.11,2.11,0,0,0,.45-1.27A1.79,1.79,0,0,0,92,24.23a1.27,1.27,0,0,0-1.07.47h0V23.18h-.83Zm-2,0h.83V25.94a.83.83,0,0,1,.24-.74.86.86,0,0,1,.51-.16v-.81h-.06a.8.8,0,0,0-.75.42h0v-.31h-.76Zm-1.42-1.75a1,1,0,0,1-1,1.05,1,1,0,1,1,0-2.08,1,1,0,0,1,1,1m.79-1.73h-.76v.49a1.4,1.4,0,0,0-1.17-.6,1.65,1.65,0,0,0-1.3.6,1.78,1.78,0,0,0-.44,1.25,2,2,0,0,0,.43,1.27,1.62,1.62,0,0,0,1.28.58,1.53,1.53,0,0,0,1.19-.58h0v.47h.76Zm-5,3.48h.83V23.18h-.83ZM80.9,26.56a1.53,1.53,0,0,1-2.7-1,1.58,1.58,0,0,1,1.52-1.61,1.62,1.62,0,0,1,1.22.58h1a2.37,2.37,0,0,0-2.2-1.41,2.42,2.42,0,0,0,0,4.84,2.36,2.36,0,0,0,2.16-1.37Zm-7.82.25a1.08,1.08,0,1,0,2.16,0c0-.62-.45-.84-1-1-.31-.09-.61-.19-.61-.57a.49.49,0,0,1,.48-.48.5.5,0,0,1,.54.49h.46a1,1,0,0,0-1-.93,1,1,0,0,0-1,1,.88.88,0,0,0,.27.65,1.37,1.37,0,0,0,.63.3c.34.1.66.25.66.66a.58.58,0,0,1-.6.58.62.62,0,0,1-.62-.65Zm-2.16-2.06a1.38,1.38,0,0,1,.92.38,1.27,1.27,0,0,1,.4.95,1.33,1.33,0,1,1-2.66,0,1.35,1.35,0,0,1,1.34-1.37m0-.44a1.8,1.8,0,1,0,1.78,1.77,1.79,1.79,0,0,0-1.78-1.77M68,24h.47v-.79H68Zm0,3.85h.47V24.38H68Zm-1.89,0h.46V25.9a1,1,0,0,1,.36-.89.94.94,0,0,1,.62-.24v-.46a1,1,0,0,0-1,.57h0v-.5H66.1Zm-2.45-3.07a1.36,1.36,0,0,1,.92.38,1.23,1.23,0,0,1,.4.95,1.33,1.33,0,1,1-1.32-1.33m0-.44a1.8,1.8,0,1,0,1.79,1.77,1.8,1.8,0,0,0-1.79-1.77m-3.4,3.51h.46v-3h.8v-.42h-.8v-1.2h-.46v1.2h-.72v.42h.72Zm-3-3.07a1.33,1.33,0,0,1,1.34,1.37,1.36,1.36,0,0,1-1.33,1.34,1.36,1.36,0,1,1,0-2.71m1.79-.37h-.45V25h0a1.44,1.44,0,0,0-1.33-.73,1.79,1.79,0,0,0-1.35.56,1.82,1.82,0,0,0-.15,2.3,2,2,0,0,0,1.51.73,1.44,1.44,0,0,0,1.32-.73h0v.65h.45Zm-5.39,3.44h.46V25.9a1,1,0,0,1,.35-.89,1,1,0,0,1,.63-.24v-.46a1,1,0,0,0-1,.57h0v-.5h-.44Zm-2.45-3.07a1.36,1.36,0,0,1,.92.38,1.23,1.23,0,0,1,.4.95,1.33,1.33,0,0,1-1.32,1.38,1.36,1.36,0,0,1,0-2.71m0-.44A1.8,1.8,0,1,0,53,26.08a1.8,1.8,0,0,0-1.79-1.77M47,24.75a1.35,1.35,0,0,1,1.39,1.35,1.36,1.36,0,0,1-1.36,1.36,1.33,1.33,0,0,1-1.37-1.33,1.26,1.26,0,0,1,.36-1,1.35,1.35,0,0,1,1-.42m-1.77,3.07h.43v-.59a1.64,1.64,0,0,0,1.37.67,1.69,1.69,0,0,0,1.41-.67A1.78,1.78,0,0,0,47,24.31a1.44,1.44,0,0,0-1.3.71V23.18h-.46Zm-2.59-3.07A1.34,1.34,0,0,1,44,26.12a1.37,1.37,0,0,1-1.34,1.34,1.36,1.36,0,1,1,0-2.71m1.79-.37H44V25h0a1.44,1.44,0,0,0-1.33-.73,1.81,1.81,0,0,0-1.5,2.86,2,2,0,0,0,1.51.73A1.44,1.44,0,0,0,44,27.17h0v.65h.44Zm-6.32,3.44h2.39V27.4H38.61V23.18h-.46Z"/></svg>