<?xml version="1.0" encoding="utf-8"?>
<!-- Generator: Adobe Illustrator 25.4.1, SVG Export Plug-In . SVG Version: 6.00 Build 0)  -->
<svg version="1.1" id="Capa_1" xmlns="http://www.w3.org/2000/svg" xmlns:xlink="http://www.w3.org/1999/xlink" x="0px" y="0px"
	 viewBox="0 0 135 46" style="enable-background:new 0 0 135 46;" xml:space="preserve">
<style type="text/css">
	.st0{fill:#38444E;}
	.st1{fill:#E64860;}
	.st2{fill:#808791;}
	.st3{clip-path:url(#SVGID_00000073682879059305172930000017530901886842775687_);fill:#E64860;}
	.st4{fill:none;stroke:#E64860;stroke-width:0.6287;stroke-miterlimit:10;}
	.st5{fill:#194374;}
	.st6{fill:#00659B;}
	.st7{fill:#DC0D6E;}
	.st8{fill:#004D80;}
	.st9{fill:#7EA9D6;}
	.st10{fill:#B6D4EF;}
	.st11{fill:#058DC7;}
	.st12{fill:#00559F;}
	.st13{fill:#134A83;}
	.st14{fill:#B51975;}
	.st15{fill:#2497D0;}
	.st16{fill:#D80F3B;}
	.st17{fill:#9BC338;}
	.st18{fill:#008541;}
	.st19{fill:#9DC438;}
	
		.st20{clip-path:url(#SVGID_00000052805887099763847450000012459701833105608066_);fill:url(#SVGID_00000170960574089573807100000000486545167554729094_);}
	
		.st21{clip-path:url(#SVGID_00000023243452610178824740000005279246087192425362_);fill:url(#SVGID_00000144311787000488205410000004617780659924950927_);}
	
		.st22{clip-path:url(#SVGID_00000043429780420058474370000017923165407160600223_);fill:url(#SVGID_00000011748769936621558390000002208604141861759113_);}
	.st23{fill:#F9BE12;}
	.st24{clip-path:url(#SVGID_00000182489855474352348480000000461661284371803056_);}
	.st25{clip-path:url(#SVGID_00000042716794058824034450000003107430131913957038_);}
	.st26{clip-path:url(#SVGID_00000145769074714182443750000018272151327986773398_);}
	.st27{clip-path:url(#SVGID_00000019667427434094934400000012088197386053328269_);}
	.st28{clip-path:url(#SVGID_00000047060159166910696750000008200540097547659967_);}
	.st29{clip-path:url(#SVGID_00000098190322045119389010000001155276479739002538_);}
	.st30{clip-path:url(#SVGID_00000050629586400059474330000003724354388156433308_);}
	.st31{clip-path:url(#SVGID_00000045613948062105055530000006787931429269642675_);}
	.st32{clip-path:url(#SVGID_00000021820848304023096150000002472744548190694817_);}
	
		.st33{clip-path:url(#SVGID_00000038388684204734139910000011508456035101606805_);fill:url(#SVGID_00000120542626160478171440000001397689124193082528_);}
	.st34{clip-path:url(#SVGID_00000020386763465008148650000002843776304786138505_);}
	.st35{clip-path:url(#SVGID_00000049935910875242822430000017578229188385755305_);}
	.st36{clip-path:url(#SVGID_00000126305345263075711900000008277194718027261358_);}
	.st37{clip-path:url(#SVGID_00000026126025726970037550000009098361073017651844_);}
	.st38{clip-path:url(#SVGID_00000023240101579846653130000006963501669570177413_);}
	.st39{clip-path:url(#SVGID_00000026138341393049828490000002083879065380612260_);}
	.st40{fill:#009BDA;}
	.st41{fill:#CE1620;}
	.st42{fill:#171915;}
	.st43{fill:#E30750;}
	.st44{fill:#5775B5;}
	.st45{fill:none;stroke:#5775B5;stroke-width:0.5802;}
	.st46{fill:#5A595C;}
	.st47{fill:#FFFFFF;}
	.st48{fill:#364F8F;}
	.st49{fill:none;stroke:#364F8F;stroke-width:0.3873;}
	.st50{fill:none;stroke:#364F8F;stroke-width:1.3345;stroke-linecap:round;}
	.st51{fill:#656362;}
	.st52{fill:#C8D44A;}
	.st53{fill:#E42E38;}
	.st54{fill:none;stroke:#FFFFFF;stroke-width:0.4523;stroke-miterlimit:10;}
	.st55{fill:#51B054;}
	.st56{fill:#0079BB;}
	.st57{fill:#086EB0;}
	.st58{fill:#99A4AB;}
	.st59{fill:#B2A7A5;}
	.st60{fill:#931340;}
	.st61{fill:#DFDCD9;}
	.st62{fill:#27A1D7;}
	.st63{fill:none;stroke:#000000;stroke-width:0.1494;stroke-linejoin:bevel;stroke-miterlimit:22.926;}
	.st64{fill:none;stroke:#000000;stroke-width:0.1585;stroke-miterlimit:22.926;}
	.st65{fill:#EA3D36;stroke:#ED1C24;stroke-width:0.1417;stroke-linejoin:round;}
	.st66{fill:#EA3D36;}
</style>
<g>
	<path class="st41" d="M20.4,12c0,0,25.3-7.1,47.1-7.1c30.7,0,47.1,7.6,47.1,7.6h-10.9c0,0-14.7-4.4-36.2-4.4
		C42.9,8,20.4,12,20.4,12"/>
	<path class="st41" d="M114.6,33.5c0,0-25.3,7.6-47.1,7.6c-30.7,0-47.1-7.6-47.1-7.6h10.7c0,0,14.8,4.4,36.4,4.4
		C92,38,114.6,33.5,114.6,33.5"/>
	<path class="st41" d="M50.6,22.4h-5c0.2-1.2,1-1.7,2.5-1.7C49.6,20.6,50.5,21.4,50.6,22.4 M54.6,24.4c0.1-4.5-2.8-5.8-6.8-5.8
		c-4,0-6.4,1.8-6.4,4.9c0,3.3,2.4,4.9,6.7,4.9c1.9,0,3.3-0.3,4.3-0.8c1-0.5,1.7-1.1,2-2.1h-4.3c-0.4,0.6-1.1,0.8-2.1,0.8
		c-1.8,0-2.5-1.1-2.5-1.8H54.6z"/>
	<path class="st41" d="M55.9,19h3.9v1.1h0c0.4-0.6,1.7-1.4,3.7-1.4c2.3,0,3.9,1,3.9,3.5V28h-4.1v-4.7c0-1.1-0.6-1.6-1.6-1.6
		c-1.1,0-1.9,0.6-1.9,2.1V28h-4.1V19z"/>
	<path class="st41" d="M70.6,21.4h-1.9V19h1.9v-1c0.2-1.5,1-2.3,3.6-2.3c0.8,0,1.8,0,2.7,0.1v1.9h-1.2c-0.7,0-1,0.3-1,1V19h2.2v2.4
		h-2.2V28h-4.1V21.4z"/>
	<path class="st41" d="M91.9,19h3.9v1.7h0c1.1-1.4,2.4-2,3.8-2c0.4,0,1,0.1,1.5,0.2l-0.5,3.6c-1-0.3-1.1-0.6-1.8-0.6
		c-1.5,0-2.9,0.4-2.9,2.3V28h-4.1V19z"/>
	<path class="st41" d="M101.8,19h1.9v-1.2l4.1-1.8v3h2.2v2.4h-2.2v3.3c0,0.8,0.3,0.9,1.2,0.9c0.3,0,0.7,0,1.1,0V28
		c-0.7,0.1-1.7,0.2-3,0.2c-2.5,0-3.4-0.5-3.4-2.9v-3.8h-1.9V19z"/>
	<path class="st41" d="M86.8,22.4h-5c0.2-1.2,1-1.7,2.5-1.7C85.7,20.6,86.7,21.4,86.8,22.4 M90.7,24.4c0.1-4.5-2.8-5.8-6.8-5.8
		c-4,0-6.4,1.8-6.4,4.9c0,3.3,2.4,4.9,6.7,4.9c1.9,0,3.3-0.3,4.3-0.8c1-0.5,1.7-1.1,2-2.1h-4.3c-0.4,0.6-1.1,0.8-2.1,0.8
		c-1.8,0-2.5-1.1-2.5-1.8H90.7z"/>
	<path class="st41" d="M35.8,20.3c0,0.7-0.2,1.3-1.4,1.3h-3.3V19h3.2C35.1,19,35.8,19.4,35.8,20.3 M40.6,19.7
		c-0.2-1.5-0.8-2.1-1.6-2.6c-0.6-0.4-2.2-0.9-3.5-0.9h-8.9V28h4.5v-3.8l3,0l1.7,3.8H41l-2.6-4.2C40.2,22.9,40.8,21,40.6,19.7"/>
</g>
</svg>
