<svg xmlns="http://www.w3.org/2000/svg" viewBox="0 0 53.82 25.63"><defs><style>.cls-1{fill:#99a4ab;}.cls-2{fill:#b2a7a5;}.cls-3{fill:#931340;}.cls-4{fill:#dfdcd9;}</style></defs><g id="Capa_2" data-name="Capa 2"><g id="Capa_1-2" data-name="Capa 1"><polygon class="cls-1" points="0.35 18.27 0.77 18.27 2.58 25.02 2.6 25.02 4.4 18.27 4.83 18.27 2.85 25.51 2.32 25.51 0.35 18.27"/><polygon class="cls-1" points="5.46 18.27 8.92 18.27 8.92 18.66 5.88 18.66 5.88 21.55 8.71 21.55 8.71 21.93 5.88 21.93 5.88 25.13 9.01 25.13 9.01 25.51 5.46 25.51 5.46 18.27"/><path class="cls-1" d="M11.56,21.81a1.49,1.49,0,0,0,1.71-1.64,1.38,1.38,0,0,0-1.43-1.56H10.2v3.2ZM9.78,18.27H11.9a1.69,1.69,0,0,1,1.79,1.9A1.63,1.63,0,0,1,12.24,22v0c1.19.07,1.4.8,1.4,1.8v.76a1.6,1.6,0,0,0,.25,1H13.4a2.25,2.25,0,0,1-.18-1v-.74c0-1-.29-1.64-1.45-1.64H10.2v3.36H9.78Z"/><polygon class="cls-1" points="16 18.66 14.07 18.66 14.07 18.27 18.35 18.27 18.35 18.66 16.42 18.66 16.42 25.51 16 25.51 16 18.66"/><polygon class="cls-1" points="20.41 22.53 18.43 18.27 18.9 18.27 20.62 22.08 22.39 18.27 22.81 18.27 20.83 22.53 20.83 25.51 20.41 25.51 20.41 22.53"/><path class="cls-1" d="M23.65,23.65a1.55,1.55,0,0,0,1.65,1.64A1.6,1.6,0,0,0,27,23.64c0-.94-.51-1.26-1.32-1.55l-.82-.28c-.95-.33-1.47-.79-1.47-1.78a1.8,1.8,0,0,1,1.94-1.88,1.74,1.74,0,0,1,1.93,2h-.42c0-1-.45-1.62-1.47-1.62A1.39,1.39,0,0,0,23.79,20a1.36,1.36,0,0,0,1.06,1.4l1.08.38a1.78,1.78,0,0,1,1.47,1.84,2,2,0,0,1-2.1,2,1.84,1.84,0,0,1-2.07-1.87v-.48h.42Z"/><polygon class="cls-1" points="29.79 22.53 27.81 18.27 28.28 18.27 30 22.08 31.77 18.27 32.19 18.27 30.21 22.53 30.21 25.51 29.79 25.51 29.79 22.53"/><path class="cls-1" d="M33,23.65a1.55,1.55,0,0,0,1.65,1.64,1.6,1.6,0,0,0,1.67-1.65c0-.94-.51-1.26-1.32-1.55l-.82-.28c-1-.33-1.47-.79-1.47-1.78a1.8,1.8,0,0,1,1.94-1.88,1.74,1.74,0,0,1,1.93,2h-.42c0-1-.45-1.62-1.47-1.62A1.39,1.39,0,0,0,33.17,20a1.36,1.36,0,0,0,1.06,1.4l1.08.38a1.78,1.78,0,0,1,1.47,1.84,2,2,0,0,1-2.1,2,1.84,1.84,0,0,1-2.07-1.87v-.48H33Z"/><polygon class="cls-1" points="39.08 18.66 37.15 18.66 37.15 18.27 41.43 18.27 41.43 18.66 39.51 18.66 39.51 25.51 39.08 25.51 39.08 18.66"/><polygon class="cls-1" points="42.07 18.27 45.53 18.27 45.53 18.66 42.5 18.66 42.5 21.55 45.33 21.55 45.33 21.93 42.5 21.93 42.5 25.13 45.62 25.13 45.62 25.51 42.07 25.51 42.07 18.27"/><polygon class="cls-1" points="51.37 18.82 51.35 18.82 49.27 25.51 48.85 25.51 46.77 18.82 46.75 18.82 46.75 25.51 46.32 25.51 46.32 18.27 47.01 18.27 49.07 24.78 49.09 24.78 51.1 18.27 51.8 18.27 51.8 25.51 51.37 25.51 51.37 18.82"/><path class="cls-2" d="M52.78,18.52H53c.15,0,.26-.05.26-.19s-.1-.19-.24-.19h-.27Zm-.09-.46h.37c.22,0,.33.1.33.27a.27.27,0,0,1-.26.27l.29.44h-.1L53,18.6h-.25V19h-.09ZM53,19.29a.74.74,0,1,0-.74-.74.74.74,0,0,0,.74.74m0-1.56a.83.83,0,1,1-.83.82.82.82,0,0,1,.83-.82"/><rect class="cls-2" x="40.77" y="2.18" width="8.5" height="13.14"/><path class="cls-1" d="M27.65,9.43a1,1,0,0,1-1.43,0A1,1,0,0,1,27.65,8a1,1,0,0,1,0,1.43m5.67,5.22a8.72,8.72,0,0,0,0-11.87L29.77,6.34l-.46-.45,3.56-3.56A8.7,8.7,0,0,0,21,2.33l3.53,3.54-.45.45L20.56,2.78a8.72,8.72,0,0,0,0,11.87l3.55-3.56.45.45L21,15.1a8.7,8.7,0,0,0,11.86,0l-3.53-3.53.45-.45Z"/><path class="cls-3" d="M9.22,15.32H8.12L4,3.34h.89L8.64,14.52h0L12.46,3.34h.89ZM8.72,0a8.72,8.72,0,1,0,8.71,8.71A8.71,8.71,0,0,0,8.72,0"/><path class="cls-4" d="M45.07,15.13c-3.33,0-4.12-2-4.12-3.21v-.81h.85v.64c0,1.58,1.19,2.79,3.27,2.79s3.34-1.23,3.34-2.81-1-2.17-2.63-2.65l-1.64-.49c-1.9-.55-2.93-1.35-2.93-3,0-2,1.6-3.23,3.86-3.23,2.67,0,3.87,1.3,3.87,3.37h-.85c0-1.67-.89-2.78-2.93-2.78-1.62,0-3.1.64-3.1,2.57,0,1.37.87,2,2.13,2.39l2.14.64c1.86.56,2.93,1.34,2.93,3.16,0,2.2-1.9,3.45-4.19,3.45M45.1,0a8.72,8.72,0,1,0,8.72,8.72A8.71,8.71,0,0,0,45.1,0"/></g></g></svg>