<svg xmlns="http://www.w3.org/2000/svg" viewBox="0 0 39.71 30"><defs><style>.cls-1{fill:#134a83;}.cls-2{fill:#b51975;}</style></defs><g id="Capa_2" data-name="Capa 2"><g id="Capa_1-2" data-name="Capa 1"><rect class="cls-1" y="22.55" width="19.48" height="1.91"/><path class="cls-2" d="M37.07,1.78l0,0v0h.05v.05Zm.68,1.06h0v0h-.05v0Zm-14.42.55h.05v0h-.05ZM27.2,1.86h.05v0H27.2ZM12.44,10.53v-.08h0l0,0v0l0,0Zm3.87,5.05,0,0h0v.07h0l0,0ZM36.27,2h0v.07h0Zm-18,4.12h.05v.07h-.05ZM28.83,7.89h.08v.05h-.08Zm10.81-5.6h.07v0h-.07ZM29.69,5.2h.07V5.13h-.07Zm-9.1-.5v0h.1v.07h-.05Zm9.25.4h.1V5h-.1Zm.35-3.62h.07v.1h-.07ZM14,7.57l0,0h.08v.07H14v0Zm-2.72,2.61,0,0h.05l0,0v.05l0,0h-.05l0,0ZM37.78,2.29l0,0h.05l0,0V2.21h-.1Zm-16.62,4h.13v.08h-.13Zm-7.76,3h.13v.07H13.4ZM29,7.84v0h.15v0l-.05,0h-.05Zm-13.47-1V6.74h.13l0,0v0ZM28.05,1l0,0h.05l0,0,0,0v0h-.05v.05h-.08ZM22.77,3.17l0,0h.07l0,0v.07h-.13ZM37.07.83l0,0h.1V.93h-.1V.88h-.05v0Zm-9,7.84V8.6h.13l0,0,0,0v0h-.05v.05h-.08V8.67Zm.53-.83,0,0h.13v.07l0,0,0,0h-.05l0,0,0,0ZM21.64,6l0,0h0l0,0,0,0V6l0,0h-.12V6Zm5.78-4.9h0V1h.1l0,0v.05l0,0-.05,0h-.05l0,0,0,0ZM22.55,6.38l.05,0h.1l0,0v.08h-.17ZM18.5,3.87l0,0h.12l0,0v0l0,0H18.5ZM32,5.68l0,0h0v0h.08l0,0v0l-.07,0h-.05l0,0Zm5.58-5,0,0v0l0,0h.12l0,0V.6H37.6ZM27.75,2.24l.1,0h.08v.13h-.15l0,0ZM31.6,5.93l0,0h.1l0,0,0,0V6l0,0,0,0H31.6l0,0V6ZM37.33.75l0,0h.13V.85l-.08,0h-.07Zm-23.45,8,.07,0H14v.07l0,0,0,0-.05,0h-.1v0l0,0ZM35.47,2.21l0,0h.13l0,0v.08l0,0h-.13l0,0Zm-.56,2.24,0,0h.22V4.5l0,0h-.23Zm-19.32,2,0,0h.1l0,0,0,0v0h0v0l-.05,0h-.1l0,0v0l0,0ZM32.83,0V.08l.05,0h.17l.05,0V0l-.05,0h-.17ZM17.5,4.57l.05,0h.05l0,0v.1l0,0-.08,0h-.07v-.1l0,0Zm20-2.48,0,0,0,0,0,0v0h.15l.05,0,0,0V2.11l0,0,0,0h0ZM21.92,5.81l0,0h.08v.08l0,0h-.08v0l-.07,0h-.05v-.1l0,0Zm9.55-5h.05V.73h.13l0,0v.1l-.05,0h-.1l-.05,0ZM26,3l.05,0h.05l.05,0v.1l0,0h-.05v.05h0l0,0-.05,0V3.09ZM23,9.58l.07,0h.08l0,0,0,0v0h-.05v0l0,0H23Zm6.66-1.94.08,0h.1v.13l-.05,0h-.13l0,0V7.67ZM38.46.25v0l0,0h.18l0,0,0,0V.23h-.23Zm-15.66,5v-.1H23l0,0v0l0,0,0,0,0,0h-.07l0,0Zm8.54,1.38V6.48h.23v.08l0,0,0,0-.05,0h0ZM20.86,3.67h.05v0h.18v.12H21v0h-.1l0,0ZM17.57,6.84h.08v0h.1l0,0v.1l-.05,0,0,0,0,0h-.08l0,0V6.89Zm12.92.27,0,0h0v0h.05v.07h-.05v0h-.2l0,0v0l0,0,0,0Zm7.24-4.52,0,0,0,0v0l0,.05h.08V2.69h.1l0,0,.08,0V2.56h-.23ZM27.32,1.66l.05,0h.1l.05,0v.1l0,0-.05,0-.08,0h-.05l0,0V1.73Zm-11.23,4,.05,0h.12l0,0v.1l0,0H16v-.1h.05ZM36.65,2.74l0,0h.2l0,0v.1l-.08,0-.1,0h0l0,0Zm-4-1.11,0,0H33v.1l0,0-.08,0h-.17Zm0,.38,0,0h.13l0,0V2l0,0,0,0,0,0,0,0,0,0h-.2v0l.05,0,0,0,0,0,0,0Zm-.08,1,.08,0h.05l.07,0,0,0,0,0v0h0v.05l0,0h-.2l0,0V3ZM16.11,6.28l0,0h.05v.15l0,0,0,0h-.05v0l0,0h-.15V6.41l.08,0,0,0h.07Zm11.67-4.9,0,0H28l.08,0v.1l0,0-.07,0H27.8l-.05,0v-.1ZM37.93.28l0,0-.08,0V.45h.1l.18,0,0,0,0,0V.3l0,0,0,0H38Zm-13,2H25V2.26h.17v.1l0,0-.08,0,0,0-.13,0h-.1v-.1l0,0,.06,0Zm3,1.06h.17V3.32h.1l0,0v.05l0,0,0,0,0,0H28v0l-.13,0h-.1l0,0v0l0,0,0,0,0,0Zm-5.16.32,0,0h.05l.1,0,0,0v0h0l0,0v.06h-.08v0h-.27V3.77l0,0ZM22.3,4l0,0h.18l0,0v0l0,.07-.08,0h-.07v0l-.05,0h-.13l0,0,0,0v0l0,0,0,0,0,0Zm3.14-2.08,0-.08h.05l0,0,0,0,0,0v.15l0,0h-.05v.05l0,0-.07,0h-.13l0,0V2.11l0,0,0,0,0,0,0,0,0,0ZM22.32,5.48l0,0h.12l0,0V5.6l0,0,0,0,0,0h-.17v.05l0,0-.1,0h-.05l-.05,0V5.68h.1V5.6l.05,0,0,0,0,0,0,0Zm-.9-.93,0,0h.3l0,0v0l0,0h-.07v0l0,0-.05,0-.05,0,0,0h-.2l0-.06v0l0,0,0,0h.05v0ZM36.27,3.29h.08v0h.17v.13l0,0,0,0,0,0-.1,0,0,0,0,0-.05,0h-.15V3.47l0-.08,0,0,0,0,0,0ZM27.65,8.9l.1,0h.18V9l-.08,0-.05,0h-.05v0l-.05,0-.1,0h-.08l-.05,0V9h-.1V9l.05,0,.2,0Zm-3.14,2,.07,0h.13l.07,0,.08,0V11l0,0,0,0,0,0-.05,0-.1,0h-.1l-.05,0-.07,0V11l0,0,0,0Zm-2.42,1.93,0,0h.2l0,0v.05h0V13l0,0,0,0-.05,0H22l0,0v-.13l0,0,.05,0h.07ZM26.34,2.31h.08V2.26h.1l0,0v.12h-.05v0l0,0-.08,0,0,.05-.1,0h-.05v.05H26V2.46l.08,0,0,0h.08V2.36l.05,0ZM16.06,5.93l.05,0h.23V6h.05l.05,0v.12l-.05,0-.05,0,0,0-.12,0h-.08l0,0V6.13H16l0,0V6l0,0ZM31.62,2.24l0,0h.25v.08l0,0H31.8v0l-.05,0-.08,0h-.05v.08l0,0h-.08v.05h-.18V2.51h-.07v-.1h.05V2.34l.23,0,0,0,0,0Zm-3-1.33,0,0h.08l0,0V1l-.08,0h-.05v.05l0,0,0,0-.05,0h0v.05l-.05,0-.05,0h-.25v-.1l0,0,0,0,0,0,0,0h.1V1l.1,0,.1,0,0,0Zm-6.48,1.9,0,0h.12v.1l0,0,0,0,0,0h-.08V3l0,0,0,0h-.07v.05l-.08,0h-.1v.05h-.08V3.17h-.07v-.1l0,0,0,0,0,0h.08V2.94l0,0,.08,0,.15,0,0,0Zm3.14,7.54.05,0h.08l0,0,0,0v0h0v0l-.13,0,0,0,0,0,0,0h-.08v.12h.05v.08h-.3l-.05,0v-.17l0,0,.07,0,.05,0,0,0,0,0,.05,0,.18,0Zm4.75-8.52,0-.05h.1l0,0,0,0v.11h-.08V2l-.05,0h-.05v.05l0,0-.08,0-.12,0,0,0h-.1V2.11h-.07l0,0V2h-.13V1.94h.1l0,0h.05l.13,0,.12,0,0,0,.07,0Zm4.43.81,0,0h.15l0,0,0,0v0h-.05v.05l0,0,0,0h-.13v0l0,0,0,0h-.05v0l0,0-.07,0h-.1V3h-.15V3H34V2.92l.05,0,0,0,0,0,.05,0,.08,0,0,0,0,0h.06l.07,0,0,0,0,0ZM31,.58h.08v0h.17l0,0v.1l-.05,0,0,0,0,0-.05,0L31,.78h-.08V.85l-.05,0h-.05V.93l-.05,0-.1,0,0,0-.1,0h-.13l0,0V.93l0,0,0,0,0,0,0,0,.08,0,.05,0h.1V.73l.05,0,.08,0h.07V.63l0,0Zm3.17,3.79.07,0h.18v.12l-.07,0-.06,0,0,0,0,0,0,0-.05,0h-.08v0l0,0-.08,0h-.2v.13l0,0,0,0-.15,0,0,0h-.15l0,0,0,0V4.83l.06,0,0,0,0,0,.18,0h.07v0l0,0h.07v0l.05,0,.08,0H34v0l0,0,0,0h.08ZM21.49,3.32l0,0h.32l0,0v.15l0,0,0,0-.05,0-.05,0h-.08v.05l-.05,0,0,0,0,0,0,0,0,0,0,0,0,0-.05,0,0,0h-.05v0h-.13l0,0V3.74l0,0,0,0,0,0h.07v0l0,0,0,0h.05v0l0-.13,0,0h0ZM37.33.1l0,0-.13,0,0,0,0,0L37,.23,37,.25l0,0-.1,0-.13,0,0,0,0,0-.05,0-.07,0v.1l0,0h.08l.1,0,0,0,0,0,0,0,.28,0,0,0,.08,0,0,0v0h.05l0,0,.05,0v0h.1l.1,0,0,0v0l0,0,0,0H37.4V.1ZM26,9.8l0,0h.15l0,0v.1h-.08v0l0,.08,0,0,0,0,0,.05,0,0h0v.07l0,0-.15,0,0,0,0,0h-.15l0,0,0,0,0,0-.05,0v0l.05,0h.1v0l.05,0,.05,0,.05,0,0,0,0-.07,0,0,0,0,0,0,0,0,.05,0Zm2.81-7H29v0H29l0,0v.05l0,0,0,0,0,0h-.07v0l-.05,0-.05,0,0,0-.15,0,0,.07,0,0h0v.05l0,0,0,0h-.05v0h-.08l0,0V3.14h0l0-.05-.05,0V3h.05V2.94l0,0,.15,0,0-.05.1,0ZM29,2.31h.08V2.26h.2l0,0,.05,0v.08l0,0,0,0,0,0,0,0-.1,0,0,0,0,0v0l0,0,0,0,0,0h-.32v0h-.23V2.59h-.08V2.51h.08v0l.07,0,.16,0h.15V2.36l0,0ZM20.74,4l.07,0h.25V4l0,0,0,0,0,.07,0,0h-.07v0l-.1,0,0,0h-.07v0l-.08,0,0,0,0,0,0,0h-.07l0,0,0,0-.05,0h0l-.12,0,0,0h0v0h-.07V4.25l0,0,0,0,0,0,0-.07.1,0,.1,0h.08V4l0,0h.25ZM27,9.2l.07,0h.1l.05,0v.05h.15v.1l0,0-.1,0-.15,0h-.18v.06h-.1l0,.1V9.7l0,0h-.08v0h-.15a.13.13,0,0,0-.22,0h-.1v-.1l0,0h.08V9.58l.05,0,.05,0,0,0,0,0,.07,0,0,0,.05,0,.07,0,.06,0,0,0,0,0,.11,0,0,0Zm-3.4-7.34.08,0h.07l0,0,0,0v.06H23.7V2l0,0-.1,0,0,.07H23.5v.05l0,0-.05,0-.05,0,0,0-.05,0-.07,0-.05,0,0,0,0,.05,0,0,0,0H23v.05l-.08,0,0,0,0,0-.05,0,0,0-.2,0,0,0h0l0,0,0,0h-.05v-.1l.05,0h.05v0l0,0,.08,0h.1v0l.07,0,0,0,0,0,0,0,0,0H23v-.1l0-.08,0,0h.05V2.09l.07,0,.08,0,.1,0,0,0h0V2h.1v-.1Zm10.28.48.05,0h.18l0,0,0,0,0,0,.12,0,0,0v.12l0,0,0,0,0,0h-.15l0,0-.1,0h-.15l0,0,0,0,0,0,0,0h-.08v.05l-.1,0h-.4l-.08,0V2.69h0v0l0,0h.13v0l.27,0,.06,0,.07,0,0,0,0,0,.1,0,0,0,0,0ZM24.68,3.87l.05,0h.1l.08,0V4l0,0,0,0-.05,0h0v0l-.1,0,0,0h-.07v0l-.08,0,0,0h-.08v.07l-.05,0,0,0,0,0-.08,0,0,0v0l0,0-.07,0,0,0L24,4.6l0,0-.11,0,0,0,0,0-.08,0,0,.06,0,0-.07,0,0,0h-.12v0h-.05v0l0,0,0,0,0,0,0,0,.15,0,0,0,0,0,0,0,.05,0h.05v0l0,0,.07,0,0,0,.18,0,0-.08h.05V4.2l0,0,.12,0,0,0,0,0,0,0h.07V4l0,0,.1,0,0,0,0,0ZM38,1.53l0,0h.23v.05h.05v0l0,0,0,0,0,0,0,0,0,0,0,0h-.08v.05l-.1,0-.12,0h-.08v0l-.1,0-.1,0h-.2V2H37.3v.07l0,0-.08,0,0,0,0,0-.13,0-.15,0h0v0l0,0h-.12l0,0v-.1l0,0h.07V2.09l.08,0,.05,0L37,2l0,0L37,2h.08v-.1l.15,0h.15V1.78l0,0,0,0h.08V1.68l.07,0,.08,0h.12v0l.13,0ZM33.1,1l0,0h.12V1h0V1l0,0,0,.05,0,0,0,0h-.1v.05l0,0-.07,0,0,0,0,0-.05,0-.08,0h-.1v0l-.07,0-.13,0,0,0-.05,0,0,0h0v.05l-.07,0-.05,0h-.08v.05l-.15,0-.05,0H31.8v.05l-.05,0-.08,0H31.6v0l-.13,0h-.23V1.78l.13,0,.05,0,0,0,0,0,0,0,0,0,0,0,0,0,.07,0h0V1.51l.1,0,0,0h.07V1.41l0,0,.05,0h.18V1.31l.1,0,.07,0,0-.05.1,0,0,0h.08v0l.1,0,.08,0,0,0,0,0L33,1Zm-6,.48,0,0h.12v.05h.08v.12l-.05,0-.05,0h-.08v.05l-.1,0H27v.05l0,0,0,0,0,.07-.08,0,0,0h-.08V2l0,0h-.05v.05l0,0-.08,0,0,0,0,0,0,0,0,0h-.05v0l-.05,0-.08,0,0,0,0,0,0,0,0,0,0,0,0,0,0,0,0,0h-.1v.05l-.07,0h-.08v.05l0,0,0,0h-.05v.05l0,0,0,0h-.15v0h-.3l0,0V2.76l0,0h.05v-.1l0,0,.18,0,0,0,.05,0,0,0h.07v0l0-.1h-.08l0,0v-.1l.05,0h.3v0l.1,0H26V2.09l.05,0,.05,0,.1,0,0,0,.07,0,0,0h.05V1.88l0,0,.08,0,0,0,0,0,.05,0,.07,0,.06,0,0,0,.05,0h.1V1.58l0,0H27V1.48l.05,0Zm-3,9.83-.07,0-.08,0,0,0,0,0,0,0,0,0,0,0,0,0v.1h-.1l-.2,0,0,0,0,0v.1h-.1l0,0,0,0v.05h0l0,.05v0h-.07l0,0-.1,0,0,0-.05,0,0,0v.05H22.9l0,.07-.1,0,0,0v0H22.7l0,0,0,0v.05h-.1l0,.05,0,0,0,0-.07,0,0,0v0h-.05l0,0,0,.08v.07h.23l.05,0,0,0,0,0,0,0,.05,0,0,0,.1,0,0,0,0,0v-.05h0l.07,0,0-.05.08,0,0,0,0,0v-.06h.05l0,0,.1,0,0-.06.05,0,0,0,0-.07V12h.07l.05,0,0,0,.07,0,0,0,.05,0,0,0,0,0,0-.05v0h.05l0,0v-.1h.16v0h.07l.05,0,0,0,0,0,0-.05,0,0,0,0,0,0v-.1l0,0,0,0h-.08v0Zm-8.9-4.68,0,0h.13l0,0,.08,0v.13l0,0,0,0-.05,0,0,0,0,0,0,0,0,0,0,0h0V7l0,0,0,0h0v0l0,.07,0,0,0,0,0,0,0,0,0,0,0,0,0,0,0,0,0,0,0,0,0,.15-.15,0h-.07v.16l-.16,0-.07,0,0,.1,0,0,0,0,0,0,0,.05,0,0,0,.18h-.08v.05l-.07,0h-.2l0,0,0,0V8.17l0,0,0,0,0-.13,0,0,0,0,0,0,0,0,0,0,0,0,0,0,0,0,0,0,0,0,0,0,0,0,0,0,.07,0,.05,0,0,0V7.36l.07,0,0,0h.08v0l0,0,0,0,0,0,0,0,0-.1,0,0,.1,0,0,0,0,0,.05,0,0-.05.07,0,0,0,0,0,0,0,.05,0,0,0,0,0h.05v0l0,0ZM36.85.75l0,0h.05l0,0,0,0v.28l0,0,0,0-.05,0-.1,0-.13,0,0,0h0l0,0H36.4l0,0h0v.12l-.08,0h-.17l0,0h0l-.1,0,0,0,0,0,0,0-.05,0v.07h0v.08l0,0,0,0-.07,0-.08,0-.1,0,0,0h-.05v.05l-.06,0,0,0-.08,0-.05,0,0,.05-.08,0H35v.05l-.1,0,0,0-.08,0,0,0-.05,0,0,0-.08,0,0,0-.08,0-.15,0h-.08l0,0v0l0,0,0,0,0,0,0,0,0-.05.07,0,.1,0,.05,0,0,0,.1,0,.05,0h.07l0-.06V1.76l0,0h.1V1.68l.08,0,.1,0,0,0,0,0,0,0,0,0,0,0,0,0,.08,0,0-.05,0,0,.07,0,0,0,0,0,.08,0,.15,0,0,0,0,0H36V1.16l0,0,0,0,.08,0h.18V1h0V1l0,0,0,0,0,0,.1,0,0,0,.1,0,0,0ZM33.53,3.12l-.08,0v0h0l0,0,0,0v0h-.3l-.1,0v.05H32.9l0,0v.1h-.2l-.08,0v.1h-.05l0,0-.12,0-.1,0v.18h-.08l-.2,0V4h-.1l-.07,0,0,0,0,0v0h-.08v.07h-.07l0,0v0h-.05l0,0-.11,0v0h-.07l-.05,0v0h-.08l-.07,0-.1,0v0h-.13l-.05,0-.05,0v0h-.05l0,0v0l0,0,0,0,0,0H31l.13,0V4.72h.15l.05,0,0,0,0,0,.05,0,0,0,0,0V4.52h.08l0,0,0,0,0,0,0,0,.07,0,.08,0,0,0,0,0,0,0,0,0,.32,0,0,0,0,0,0-.08,0,0,0,0,0,0,.1,0,.1,0V4h.1l0,0,.07,0v0h0l0,0V3.67H33l.3,0,0,0V3.54h.08V3.47h.1l.07,0,0,0,.1,0,0,0,.1,0v0h.05l0,0V3.19l0-.07-.07,0h-.25ZM36.09.65l0,0,0,0V.75l0,.05H36l-.22,0V.88h-.1l-.1,0,0,0,0,0,0,0,0,0v.05h-.1l-.13,0-.05,0v0h-.08l-.07,0-.08,0,0,0-.13,0-.07,0-.08,0,0,0-.13,0-.07,0v.08h-.08l0,0-.08,0v.05h-.15l0,0v0H34l0,0,0,0v.05h0l0,0,0,0v.05h0l0,0-.1,0v.06h-.1l-.08,0,0,0V2h0l-.06,0-.17,0v.05h0V2.09h-.08v.05H33l0,0v0H32.9l-.07,0,0,0v.05h-.07l-.13,0-.05,0,0,0,0,0,0,0,0,0,0,0v0h-.05l-.1,0,0,0,0,0-.1,0,0,0,0,0,0,0-.08,0v0h-.35l-.15,0h-.08l-.1,0v.1l0,0h.05l.1,0v0h.2v0l0,.05h-.08l0,0-.11,0v0h-.07l0,0-.05,0,0,0-.05,0-.15,0-.13,0V3.17h0l0,0V3.09h.1l.07,0,0,0V3l0-.05h-.28l0,0,0,0,0,0v0h.05v0l0,0,0,0h-.18l-.07,0v0h-.1l0,0-.07,0v.05h-.11l-.07,0-.05,0,0,0,0,0,0,0v0h-.1l-.07,0-.1,0,0,.08,0,0,0,0,0,0v.05h-.08l-.17,0,0,0v.05h-.08l0,0,0,0v0h-.05l-.05,0-.1,0,0,0-.1,0,0,0-.05,0,0,0,0,0-.1,0v.06h-.13l0,0,0,.08-.05,0-.05,0v0h-.05l0,0,0,0v.05h-.1l-.05,0-.05,0v0h0l0,0-.05,0,0,0-.1,0,0,0v0H28l-.08,0h-.1l0,0,.05,0,0,0v0l0,0h-.1v.08H27.6l0,0,0,0,.05,0,.05,0v0h.1l.08,0h.25l0,0,0,0,.05,0,0-.15,0,0,.07,0,0,0v0h.05l0,0,0-.05.1,0,.15,0,0-.05.05,0,0,0,0,0,.05,0,.05,0v0h.15l.05,0,.07,0V3.17h0l.23,0V3.09h.08l0,0,0,0V3h.1l.12,0,.05,0v0h.1l.05,0,0,0,0,0,0,0,.07,0V2.69h.08l.07,0,.05,0,0,0,.1,0,0,0,0-.05.08,0,0,0v0h.08v-.1l.07,0,.18,0,0,0V2.16l-.07,0h-.23l-.05,0v0h-.23l-.05,0-.07,0,0,.05-.05,0,0,0,0,.05v0h-.07l0,0-.07,0-.13,0,0,0-.1,0-.05,0-.13,0,0,0-.06,0,0,0,0,0-.08,0,0,0v.05h-.05l-.05,0,0,0,0,0-.07,0,0,0-.05,0,0,0,0,0-.08,0-.12,0,0,0-.05,0-.08,0,0,0v0h-.05l0,0,0,.05v0h-.08v.05h-.07l-.05,0-.08,0v0H28.2l0,0,0,0v0h0l-.05,0-.05,0,0,0-.1,0-.1,0v.06h-.23V3.77l0,0,0,0,0,0H27.2l-.13,0,0,0-.05,0-.13,0,0,0,0,0-.07,0,0,0,0,.07-.07,0v0h-.28l-.2,0h0l0-.15h.23l0,0,0,0,.2,0,.05,0,.05,0v-.1l-.08,0,0-.08v0l.05,0,0,0,.11,0,.1,0V3.32l-.06,0,0,0h-.1l0-.1V3.09h.06l.12,0H27l0,0h.4V3h.1c0-.08.09-.08.12,0h.08V3h.08V3l0,0-.05,0h-.13V2.86h.1l.06,0,0,.05h.05v0h.23l0,0,.08,0,0,0v-.3l0-.05,0,0,0,0,0,0,.1,0,.05,0,0,0,.1,0,.05,0,0,0,0,0,0,0,0,0,0,0,0,0,.08,0,.05,0,.05,0,0,0,.1,0,.1,0V1.94h.08l0,0,0,0,0,0,0,0,0,0,0,0,0,0,.05,0,.08,0,.05,0,0,0,.05,0,0,0,.08,0V1.53h.12l0,0,0,0V1.43H30l0,0V1.26l0,0,0,0h0l0,0-.1,0-.1,0,0,0v.05h-.08l-.08,0,0,0,0,.05-.07,0,0,0,0,0-.05,0,0,0,0,0-.05,0-.1,0,0,0,0,0,0,0-.1,0-.08,0v.05h-.07l-.05,0-.08,0v.06l0,0V1.78h0l0,0-.12,0-.05,0-.08,0,0,0-.08,0,0,0,0,0V2h-.07l0,0,0,0,0,0v.1h.2l0,0v.07h0l-.05,0-.12,0v0l-.09.09h-.09l0-.15h-.26l0,.05-.08,0-.07,0-.08,0v0H27.2l0,0,0,0,0,0,0,0,0,0,0,0,0,0v.05h-.1l0,0,0,0,0,0-.07,0-.06,0-.1,0V3h-.05l-.05,0,0,0,0,0-.12,0-.08,0v.1h0l-.05,0v0h-.07l-.05,0v.05h-.23V3.32l-.05,0h0l-.13,0v.05h-.07l0,0,0,0v.05h-.05v.07h.15l.2,0a.11.11,0,0,1,.2,0H26V3.6l-.22,0h-.16l-.05,0-.05,0v0h-.07l0,0,0,0v0h-.05l0,0v.06h-.05l0,0-.07,0,0,.05-.1,0,0,0,0,0-.05,0-.05,0-.05,0v.05h-.08l-.07,0,0,0v0h-.07l-.05,0,0,0,0,0,0,0-.12,0,0,0,0,0,0,0-.07,0,0,0-.05,0-.05,0,0,0,0,0-.07,0,0,0,0,0,0,0-.08,0v0h-.07v0h-.05l0,0-.1,0,0,0V5h-.05l0,0v0h-.07l-.15,0,0,0,0,0v.05h-.05l0,0,0,0,0,0,0,0V5.4H23l0,0-.05,0,0,0-.07,0-.08,0,0,0-.1,0-.05,0-.05,0,0,0v.05h0l0,0-.13,0-.07,0-.11,0,0,.1V6H22l0,0v.1h-.08v0h-.07l0,0-.1,0v.07h-.05l-.05,0v.05h-.05l0,0,0,0v0h0l-.05,0v.08h-.07l0,0,0,0,0,0,0,0,0,0,0,0,0,0,0,0-.33,0,0,0,0,0V7h-.1l-.18,0,0,0v.07l0,0,0,0,.07,0h-.17v-.1l0,0V7h-.07l0,0,0,0-.13,0-.13,0-.13,0,0,0,0,0,0,0,0,0,0,0v0h0l0,0,.05,0,0,0,0,0V6.68h.05l0,0,.05,0,.07,0,.1,0,0-.07,0,0,0,0,.07,0,0,0v0h.07l0,0,.05,0,0,0,.05,0,0,0,0,0,0-.08,0,0,0,0,.18,0,0,0,0-.1v0h.05l0,0,0,0v0h.05l0,0,0,0V5.65h.08l.12,0,0,0,.05,0,0,0,0,0,0,0,.05,0,0,0,0,0,.08,0,.05,0v0h.05l.05,0,0,0,0,0,0-.05,0,0,0,0,.15,0,0,0,.08,0V5h.07l0,0V4.8h.05l.05,0H23l0-.06.08,0,0,0v0h.05l0,0V4.52h.08l0,0,.05,0,0,0,.05,0,.07,0,.1,0v0h.08l0-.07.08,0,.1,0v0H24l0,0,0,0V4h0l.17,0,0,0,.07,0,0,0,0-.07,0-.13,0,0,0,0,0,0V3.57h.15l.08,0,.05,0V3.44h.07l.11,0v0H25l0,0,.1,0v0h.1l0,0,0,0,0,0,.08,0,.05,0V3.09h.07l0,0V2.94l-.05,0h-.1l-.15,0,0,0-.05,0V2.94l0,0,0,0h-.05V2.84h-.23l0,0,0,0,0,0,0,0V3h-.05l-.05,0,0,0,0,0-.07,0-.05,0,0,0-.15,0-.07,0v.07h-.1l0,0,0,0-.13,0,0,0v.1h-.42l0,0-.07,0h-.1l-.18,0,0,0H23l0,0,0,0v.1H23v.05h.16l0,0v.08h.1V4l-.07,0,0,0v0h-.07l-.06,0h-.45l0,0v.12l0,0,0,0v.05l-.15,0-.05,0,0,0v.1h-.05l0,0,0,0v0h-.05l0,0-.13,0v0h-.2l-.05,0v.08l0,0,0,.08h-.18l0,0,0,0,0,0h-.78l-.18,0-.05,0,0,0,0,0,0,0v0h-.05l0,0,0,0,0,0,0,0-.05,0,0,0V5.4h-.07l0,0-.05,0,0,0L20,5.5l0,0v0h-.07l0,0v0h-.1l-.07,0,0,0v0h-.07l0,0v.07h-.07v0h-.05l0,0-.05,0-.1,0-.05,0,0,0-.1,0,0,0v0h0l0,0,0,0v0H18.9l-.07,0,0,.08,0,0,0,0,0,0,0,0v.1h-.05l0,0-.12,0,0,0-.18,0,0,0v.06h-.1l-.08,0-.05,0v0H18l0,0,0,0,0,0-.05,0-.05,0,0,0,0,.07,0,0,0,0,0,0,0,0-.07,0v0H17.5l0,0v0H17.4l0,0,0,0,0,0-.05,0-.07,0,0,0,0,0,0,0,0,0-.05,0,0,0,0,0,0,0,0,0,0,0,0,0,0,0,0,0-.05,0-.05,0,0,0,0,0-.08,0,0,0,0,0,0,0,0,0v.05h-.1l0,0-.07,0,0,.08,0,0,0,0-.05,0,0,0,0,.05,0,0v.07H16l0,0v.05h-.07l0,0v.07h-.05v.05h0v0h-.05l0,0v.07h-.05l0,0,0,0,0,0,0,0,0,.05,0,0,0,0,0,.05-.05,0,0,0,0,.07,0,0,0,0-.1,0-.05,0-.23,0,0,0V9.22H15l0,0,0,0,0-.13,0,0,0-.05.07,0,0,0,0-.05.2,0,.08,0V8.75h.05V8.6l0-.13.1,0,0,0V8.37h.08l0,0,0,0,0,0,0,0,0,0,0,0,0,0,0,0,0,0,0,0,0-.13,0,0,0,0,0,0,.05,0,0,0,.05,0v0h.08l0,0,0-.1V7.59h.05l.1,0,0-.06,0,0,0,0,0-.05,0-.08,0,0,.08,0v0h.05l.22,0,0,0,0,0v0l0,0,0,0h.08l.12,0v0h.21l.05,0,0,0V6.76H17.4l.1,0,.07,0,0,0,0,0V6.53h.3l.1,0v0h.05l.05,0,.08,0v0h.07V6.28l0,0-.23,0,0,0,0,0,0,0,0,0,.08,0V6.06h.07l0,0,.05,0,0,0,0-.05v0h.05l.05,0,.08,0,0,0,0,0,0,0V5.68h.07l.1,0,0,0,0,0,0,0,0,0,0,0,0,0,0,0,0,0,.07,0,0,0,.05,0,0,0,0,0,0,0,0,0,0,0,.05,0,.05,0V5.1h.07l0,0V5h.05l.05,0,.07,0v0h.08l.05,0,.05,0v0H20l0,0,0,0,0,0,.1,0,0,0V4.6h.06V4.52h-.06V4.45l0,0h-.06l-.12,0-.05,0v0h-.05l-.15,0v.1h-.08l-.2,0v0h-.07l-.13,0,0,0,0,0-.05,0,0,0,0,0v0H19v.15h.1v0h-.05l0,0,0,0-.18,0h-.12l0,0-.17,0v0h-.08l-.05,0,0,0,0,0,0,0,0,0,0,0v0h-.05v0h0l-.05,0-.07,0v.08l0,0h.13V5.68h.05v0h.05v0h.05l.13,0,0,0h-.05l0,0-.08,0,0,0-.06,0,0,.07-.1,0H18l-.05,0h-.15l-.07,0-.05,0,0,0,0,0V6l0,0,0,0,0,0h.13v0h-.38l0,0v0h-.08l-.1,0,0,0v0h0l0,0v.13l0,0,.08,0H17l0,0v.1h-.13l-.1,0,0,0,0,0-.07,0v.06h-.08l-.05,0,0,0,0,0,0,0-.11,0,0,0v.05h-.05l0,0,0,0V7h-.05v0h-.05v0H16l0,0,0,0v0h-.08v.07h-.05l0,0,0,0v0h-.05l0,0-.1,0,0,0,0,.06,0,0,0,0,0,0,0,0,0,0-.05,0-.05,0v0h-.08l0,0v.07h-.08l0,0,0,0,0,0,0,0,0,0v.05h0l-.05,0v.07h0l0,0,0,0,0,0,0,0v.08h-.08l0,0,0,0,0,0,0,0,0,0,0,0,0,0,0,.07-.08,0,0,0v0h-.07l0,0v.1H14.2l0,0V9h.23l0,.05,0,0-.12,0,0,0H14L14,9.1l0,0,0,0,0,0,0,.07,0,0,0,0,0,0,0,0,0,0,0,0-.07,0,0,0-.07,0-.06,0,0,0,0,0,0,0,0,0,0,0,0,.05,0,0v.05h-.05l0,0,0,0v0h0l0,0,0,0v0h0v.07H13l0,0,0,0v0h-.05l0,.08,0,0,0,0-.05,0,0,.08,0,0,0,0,0,0,0,0v0h0l-.05,0v0h0l0,0v.07h0l0,.08,0,0-.07,0,0,0h-.1V11H12l0,0v.08l0,0h0v0h0l0,0v0h-.08l0,0,0,0,0,0,0,0,0,0,0,0,0,.05,0,0,0,0,0,0,0,0v.15h-.05l0,0,0,0v.05h-.05l-.05,0v.08h0l0,.05v0h0l0,.07,0,.05v.08h0l0,0v0H11l0,0,0,0,0,0h0l0,0,0-.16,0-.05v-.05h0l0,0,0-.08v-.17h.05l0,0,0,0,0,0,0,0,0,0v0h.05l0,0,0-.07,0,0,0,0,0,0,0-.05v-.05h0l0-.13,0-.07,0,0,0,0,0,0,.05,0,0,0,0-.05,0,0,0-.05,0,0v-.05h.05l0,0,0,0v-.05H12l0,0,0,0,0-.07,0,0,0,0,0-.07,0,0,.05,0v0h0l0,0V10.2h0l0-.07,0-.05,0,0,0,0,0,0,0,0,0,0,0,0,0,0,0-.1V9.73h.08l0,0,0,0,0,0,0,0,0,0V9.42h0v-.1H13l.05,0V9.25h.05l0,0,0-.1V9.05h.05l0,0,0,0,0,0,.05,0,.07,0,0-.07,0,0,0,0,0,0,.1,0V8.55h.06l0-.08V8.39l0,0h-.1l0,0-.08,0v.05h-.1l-.07,0,0,0,0,.08,0,0,0,0,0,0,0,0,0,0,0,0,0,0,0,0,0,0,0,.08,0,.07h-.15l0,0,0,.05,0,0,0,0,0,0,0,0,0,0,0,0-.05,0,0,0v.08h-.08l-.07,0-.08,0v0h-.05l0,0v.07h-.08l0,0,0,.1v.05h0l-.05,0,0,0,0,0-.07,0,0,0,0,.08,0,0,0,0,0,0,0,0v.1h-.06l0,0,0,.05v.07h-.05l0,0,0,0v.08h-.05l0,.08v.05h-.05l0,0-.1,0-.05,0,0,0H11l0,0v.13h.1v-.08h.05l0,.18-.1,0-.07,0,0,0,0,.05,0,0,0,0,0,0-.07,0v.05h-.08v.1h-.05l0,.05,0,0,0,0,0,.1,0,0-.07,0v.05h-.05l0,0,0,.15v.08h-.05l0,0,0,0v0h-.05l0,.05,0,.07,0,0,0,.07,0,.08-.07,0,0,0,0,.06,0,0,0,.1,0,0v.08H9.78l0,0,0,.1,0,0,0,0,0,0v.07H9.58v0l0,0,0,.05H9.58l0,0v.07H9.5l0,0-.13,0v.06h0l0,0,0,0v.23H9.2l0,.1,0,0v.07H9.1l0,.2v.28l0,.1,0,.05,0,0,0,.15v.32l0,.08h.28v0l0,0,0,0,.15,0v.13l0,.08,0,0,0,0,0,.05,0,.08,0,0,0,0,0,0,0,0v.18H9.2l0,.07,0,.1v.23l0,.05,0,0,0,0,0,0,0,0,0,0,0,0,0,0,0,.05,0,0,0,0,.2,0,0,0,0,0,0,.58,0,.05v.23l.05,0,0,0,0,0,0,0,0,0,.05,0,0,0v.3l0,0,0,0h.05v.05l.08,0,.22,0h.08v0h.23l0,0h.08l0,0,.08,0,.07,0,.1,0,0,.05,0,0,0,.07,0,.05,0,0,0,0,0,0,0,0,0,.1,0,.05,0,0,0,0,0,0,0,0,0,0,0,0,.05,0,.08,0,0,.08.08,0,0,.08,0,.05,0,0,0,.12,0,0,0,0,0,0,0,.27,0,0h0v.07l0,.08,0,0,.05,0,0,0,0,0,0,.15,0,.05,0,0h.05v.1l0,0,0,0,0,0,0,0,0,0,0,0,0,0,0,0h0v.05l.05,0,.08,0,0,0,0,0,0,0,0,0H13v0l.1,0h0v.05l0,0,0,.05,0,0,0,.1,0,.06,0,0,0,0h.2v-.05h.18l0,0,0,0,0,0,.05,0,0,0,0-.07,0-.08v-.07h0l0,0,.08,0,0-.05,0,0,0-.12,0,0,0-.07,0-.08,0,0,0,0,0,0h.41v.22h-.08l0,.08,0,.12,0,0v.07l0,0,0,0,0,.08,0,.07,0,0,0,.07,0,.06,0,.12,0,0,0,0,0,0h.05v.17l0,0,0,.05h0v.05h.4l0,0,.1,0h.1l.1,0,0,0,0,0,0,0h.07v.05h.13l0,0,.1,0,.08,0,0-.08,0-.15v-.05h0l0,0,0-.05.05,0,0-.07,0,0,0,0,0,0,0,0,0,0,0,0,0,0,0,0,0,0,0,0,0,0,0,0,0-.05,0,0,0-.05,0-.08v-.37l0-.05,0,0,0,0,0-.18v-.1h.05l0-.23,0,0v-.05H17l0-.08.05,0,0,0,0-.08,0-.1,0,0,0-.21,0,0v-.1h.05l0-.18,0-.05v-.05h0l0,0,0,0v-.07h.05l0-.1,0-.05,0-.05,0,0,0-.05,0,0,0,0,0,0,0-.06v-.05h.05l0-.07,0,0,0,0,0,0,0,0,0,0,0-.1,0,0,0-.05v-.1h.07l0,0,0-.05v-.05h.08l0-.08,0,0,0-.13,0,0,.1,0v0h.05l0,0,0,0v-.05h.08l0,0,.08,0,0-.15.05,0,0-.07v-.08h0l0,0,0,0,0,0,.1,0,0,0,0,0v0h.05l0-.15v-.05h.11l.07,0,0-.05,0-.05,0,0v-.1H19l0-.05,0,0,0,0,0,0,0,0,0,0,0-.07v-.08h.23l0,0h-.05l0,0,0,0,0,0v.07l0,0,0,0h.15l0,0,0,0,0,0,0,0,0,0,0,0v-.05h.05l0,0,0,0v-.05h0l0,0,0-.07,0-.05,0,0,.07,0,0,0,0,0V15.1h0l0,0,0,0V15h.06v-.07h0l.06,0,0,0,0-.08,0,0,0,0,0,0,0,0,.07,0v0h.08l0,0,0-.12,0,0,.05,0,0,0,0,0,0,0,0,0,0,0,0,0,.05,0,0-.05,0,0,0,0,0,0,.08,0v0h.07l0,0,0,0,0,0,0,0,0,0v-.05h.05l.05,0v-.05h.05l0,0,0-.08.05,0,0,0v0h.07l0,0,0,0,0,0,0,0,0,0,0,0,0,0,0,0,0,0,0,0,0,0,0,0,0,0v-.12l0,0h-.2l0,0,0,0,0,0v.05h-.05v.08h-.05l0,0-.05,0,0,0-.05,0-.05,0,0,.05-.08,0,0,0v.18h-.13l0,0,0,0-.08,0,0,0,0,0v.08h-.07l0,.07,0,0,0,.05,0,0,0,0,0,0,0,.05-.1,0v.05h-.15l0,0,0,.12v0h-.05l0,0,0,0v.08h0v.05h-.06l-.05,0,0,0v.05h0l0,0,0,.08,0,0,0,0,0,0-.1,0-.07,0V14.8h.05l.07,0v0h.08l0,0,0,0,0,0,0-.05,0,0,0-.08,0,0,0,0,.08,0,0,0v-.05h.06l0,0,0,0v-.18h.07l.05,0,0,0,0-.05,0,0,0,0,0,0,.05,0,0,0,0,0,0,0,.08,0v-.05h.07l0-.1,0,0v-.08H21l0,0,0-.08.08,0,0,0,0,0,.1,0,0,0,0,0v-.05h.05l.05,0v0h.05l0,0,.08,0,0-.05V13h.05l.1,0,0,0v-.07h.07l0,0v-.05h.05l0,0,0-.1v-.05H22l.05,0,0,0,0,0,.1,0,.08,0,.05,0v-.05h0l0,0,0-.08,0,0,0,0,0,0,0-.05.07,0,0-.05,0,0,0,0,0-.05,0,0v-.05h.05l.05,0,0,0,0,0,0,0,0,0,.07,0v0h.08l.1,0,.1,0v0h.08l.05,0v-.15h.05l0,0,0,0,0,0,0,0,0,0,0,0,0,0,0-.1,0,0,.08,0,0,0,0,0,0,0L24,11v0h0l.07,0,.05,0v0h.08l0,0,.08,0,0-.07,0-.2h.37l0,0,0,0,0,0v0H25l.05,0,.1,0v0h.05l.05,0,.05,0,0,0v-.05l0,0,0,0v-.05l.05,0,0,0,0,0,0-.05,0,0,0,0,0,0V9.83h.1l.05,0,0,0,0,0,.07,0,.05,0,0,0,0,0,.07,0,0,0V9.53h0l.05,0V9.42h.07l.05,0,.08,0v0h.07l0,0V9.25h.05l0,0,.1,0v0h.05l0,0,0,0v0h.05l0,0,0,0,0,0,0,0,.11,0,.07,0V8.85H27l.08,0,.07,0,0-.08,0,0v0h.05l.1,0v0h.15l0,0,0,0,0,0,0,0,0-.05V8.37h.05l.08,0,0,0,0,0,.07,0,0,0V8.19H28l0,0,0,0V8.09h.05l0,0,0,0,0,0,.05,0,.05,0,0,0V7.89h.07l0,0,0,0,0,0,0,0,.08,0,0,0,0,0,.05,0,0-.06,0,0,0,0,0,0,.1,0,.08,0,0,0,.08,0,.05,0,.07,0V7.31h.08l0,0,.07,0v0h.05l0,0,0,0v0h.05V7h0l.08,0,0,0v0h.07l.08,0,.07,0,0,0,0,0,.08,0,0,0v0h.08l0,0,0,0,0,0,.05,0,0,0,.05,0,0,0,.21,0,0,0,.1,0h.25l.08,0,0,0,0,0,0,0,.1,0,0,0V6.18h-.15l-.13,0v0h-.1l-.05,0-.07,0V6.16h.17l.05,0,.08,0L31,6l0,0,0,0,0,0,.12,0,0,0,.15,0,0,0,0,0v0h.08l.13,0,.05,0,0,0,0,0,.07,0,0,0,0-.08.08,0v0h0l0-.05,0,0V5.3h0l.05,0,.1,0,0,0,0,0,.08,0,0,0,0,0,.06,0,.07,0,0,0V5h0l.05,0,.1,0,0,0,0,0,0,0,0,0,0,0,.22,0,0,0,0-.06,0,0,0,0,0,0,.07,0,.05,0,.1,0V4.52h0l0,0V4.42h.05v0h.15v0H34l.07,0v0h.08l.1,0,.08,0,0,0,0,0V4.07l-.07,0-.1,0h.3l.08,0V4h.07l.05,0,.08,0v0h.07l.23,0,0,0,0,0,0,0,0,0,0,0,0,0,.07,0,.08,0,0,0,0,0v0l0,0-.08,0,0,0-.05,0h.18l.1,0V3.29h0l0,0V3.17h0l.05,0V3.09h.1v.05H36l0,0,0,0v0l0,0,0,0,0,0v-.1l0,0,0,0,0,0v0l0,0,0,0,.1,0,0,0,0,0,0-.05V2.51h.16l0,.08,0,0,0,0,0,0,0,0-.1,0-.08,0v.07l0,0,0,0h.2l.08,0v0h.08l.05,0,0,0,0,0,0,0,0,0,0,0,0,0,.25,0V2.51H37l0,0,.1,0v0h.18l.07,0,0-.08V2.24l0,0h-.2l0,0-.08,0v.05h-.1l-.1,0,0,0,0,0-.1,0-.1,0H36.5v0l0-.05,0,0H36.3l-.11,0,0,.05-.08,0v0H36l0,0-.05,0-.07,0,0,0,0,0,0,0-.15,0-.1,0,0,0,0,0,0,0v0h-.1l-.13,0-.05,0v.05h-.08v0h0l0,0,0,0,0,0,0,0,0,0,0,0,0,0,0,0v0h.07v.05h-.12l-.1,0,0,0,0,0-.12,0,0,0-.15,0-.18,0,0,0,0,0,0,0,0,0v0h-.1l-.1,0-.07,0v.1l0,0h0V3.9h.33l0,.05-.07,0-.33,0V4h.05V3.87l-.05,0,0-.06,0,0-.1,0,0,0h-.05l0,0,0,0,0,0v.06h-.06l-.1,0-.1,0V4h-.07l0,0v0H33l-.07,0,0,0,0,0,0,0,0,0-.1,0,0,0-.05,0,0,0,0,0v0h-.08l-.05,0v0h-.12l0,0-.08,0,0,0-.08,0,0,0v.08h-.08l-.1,0v0h-.07l-.1,0,0,0,0,0,0,0,0,0-.08,0,0,.07V5h-.08l-.1,0,0,0v0h-.13l-.1,0,0,0v0h-.07l0,0v0h-.07l0,0,0,0,0,0,0,0-.08,0-.15,0,0,0-.15,0-.1,0v.15H30V5.6l0,0,0,0,0,0v0c-.08,0-.08-.09,0-.12l0,0v0h.07l.1,0,0,0,0-.07V5.1h.23l.05,0,.05,0,0,0,.07,0,0,0V4.83h-.25l-.13,0-.13,0h0v0l0,0-.1,0h-.08v0l0,0-.08,0H30l0,0,0,0,0,0v0l0,0,0,0,0,0h-.13l0-.07.07,0,0,0v0h.07v0h.1v0l0,0,0,0,0,0,0,0,0,0h.05l0,0,.08,0,.08,0,.1,0,0,0,0,0V4.25h.05l.05,0,.08,0v0H31l0,0,0,0,0,0,0,0,.08,0,.15,0V4h.07V3.74h.23l.18,0V3.67h.07l.08,0,0,0,0-.05,0,0,0,0,0,0V3.39H32l-.05,0,0,0-.33,0-.07,0-.06,0,0,0,0,0,0,0h-.25l0,0h.07l0,0,0,0,.12,0,.1,0h.08l.05,0v0h.05l0,0,0,0,0,0,0,0,.1,0,.07,0V3.17h.08l.05,0V3.09h.07l.08,0,0,0V3h0l0,0,0,0,.15,0h-.1V3h.21l.1,0,0,0v0l0,0,0,0-.07,0,0,0,0,0,.07,0V2.66h.08l0,0V2.59h0l.05,0V2.51h0l0,0,.1,0v0h.08l.07,0,.08,0,0,0,0,0,.08,0,.05,0,0,0,.05,0,0,0,.05,0V2.11h.07l0,0,.08,0V2H34l0,0V1.94h.07l.08,0,.05,0v0h.07l.08,0,0,0V1.73h.15l.1,0,0,0V1.63h.05l.07,0,.1,0,0,0,.05,0,0,0,0,0,0-.05.15,0v0h.1l0,0,.05,0,0,0,.08,0,0,0,.07,0V1.16h.08l0,0,0,0,0,0,.13,0L36,1l0,0,0,0,0,0,.16,0V.88h.07l0,0,0,0v0h.15l.1,0,0,0,0,0V.63h-.17l0,.05h-.28l0-.05h-.1ZM28.18,2.21v0l0,0Zm2.56,1.26h0l-.07,0,0,0v0h.2v.1Zm-.85,0v0h-.05l0,0,0,0v.07h-.08l-.05,0,0,0-.06,0,0,0v.06h-.1l-.08,0,0-.05.1,0v0h.05l0,0V3.64h.08l.12,0,0-.05.05,0,0,0,.05,0Zm.12.33H30l0,0,.07,0,0,0,.15,0,0,0v.06ZM29.26,4l0,0-.07,0,0,.1-.1,0v0H29v.1l-.1,0,0,0,0,0v0l0,0v0h.05l.05,0,0,0,0,0,0,0,.08,0,.12,0V4h.13l0,0Zm-2.19.13c0-.11.18-.2.3-.2h0c.06,0,.07,0,.07.07a1.2,1.2,0,0,1-.4.23H27v0h-.1c-.08,0,0,0-.08,0l.15,0Zm6.49,0-.08,0v0l0,.08,0,0h-.12l0,0v-.1h.08l.15,0,0,0,.08,0,0,0v.05Zm-7.85.32.05,0h.06l.1,0v0h.3l.05,0,0,0,0-.22h-.15l0,0,0,0,0,0H26l-.08,0,0,0-.12,0,0,0h-.05V4.2l-.1,0-.05,0-.1,0,0,0-.05,0h-.07V4.4l0,0h-.05v0l0,0-.18,0h-.1v.05l-.05,0,0,0-.05,0,0,0,0,0h-.08v.08l0,.12,0,0,0,0-.05,0-.1,0,0,0,0,0,0,0-.05,0-.07,0,0,0L24,5.2H23.9v0l0,0,0,0H23.8v0l0,0,0,0,0,0,0,0,0,0-.13,0,0,0,0,0,0,0h-.05v.1l.05,0,0,0v0h.4v0l0,0,0-.06,0,0,.08,0,.22,0h.1v0l0,0,0,0,0,0,0,0,.05,0,0,0,0-.07h-.06V5.2h-.05V5.13l0,0h.38v0l0,0,.3,0h.08V5l.1,0h.07l0,0,0,0,0,0-.08,0,0,0V4.65l.1,0h.08v0h0l0,0h.1l0,0,0-.05.05,0Zm2.92.1,0,0V4.47h-.07l0,0,0,0v0l-.17,0,0,0,0,0,0,0h.08v0h.07l0,0h.1l0,0h.05Zm-.38,0v0l0,0Zm-.83.15h0l0,0Zm5,0h-.2v0l.15,0h.13v0Zm-5.08,0v0h-.05l-.07,0-.05,0H27v0H26.9v0H27l0-.06h.25v.06h.08l0,0,.1,0-.07,0ZM30,5l0,0h.17l.08,0,0,0h-.05v0h-.1v0h-.05l-.07,0,0,0,0,0,0,0-.05,0,0,0,0,0-.18,0,0,0V5.4h0l0,0,0,0v0h-.12l0,0,.08,0,0,0v-.1l0,0h-.1l0,0,0,0V5.4h-.1l-.1,0-.08,0v0h-.1l0,0v0h-.05v.1h.2l.07,0,.05,0v0h.08l0,0v0l0,.08h.63l0,0v.08l0,0,0,0-.07,0V6h-.26l-.05,0-.1,0,0,0-.08,0V6h-.07v0h-.05l-.05,0v0h-.05v.1h.05v.1h-.05l0,0-.08,0v.07h-.07l0,0v0h-.15l0,0,0,0,0,0H28.4l0-.08-.05,0h.07l.08,0v0l0,0h.05l0,0,0,0v-.1h.21l.07,0V6.33l0,0-.08,0v0l0,0,0,0,0,0,0,0V6.06H29l.12,0,0,0V6h.05V5.88h-.05v0H29v0h-.15v0h-.08l0,0-.08,0V6h-.05v0h-.08l0,0v0h-.08l-.07,0,0,0v0h-.07l-.08,0V6.21h.05l0,0,0,0,.07,0,0,0V6.06h.05l.05,0,.07,0,0,0V5.83h-.18l0,0-.05,0,0,0V6h-.1l0,0,0,0,0,0,0,0v.08H28l-.1,0,0,0v0h-.07l0,0h-.13l0,0h.07l.08,0v0h.05v0l0,0,0,0,0,0h.06l.07,0V6H28l.08,0v0h.07l0,0,.07,0,0,0,.07,0,.05,0,0,0,0,0,0,0,0-.08h.28l.08,0v0h.1l0-.05,0,0V5.28H29l.12,0,0,0,.05,0V5.1h-.05v0h.07l0,0,0,0,.08,0,.05,0,0,0v0h.18l.33,0v0ZM28.05,5l0,0L27.8,5h-.05V5Zm-1.36.1c.1,0,.12,0,.13.1s-.21.06-.23-.1Zm-1.15.08h.1l-.05,0-.1,0V5.18Zm-4.6.17v.08h-.05l-.05,0v0h-.08l0,0V5.6h-.1l-.18,0v0h-.08l0,0,0-.1v0h.07l0,0,.1,0,0,0,0,0,0-.08.2,0,.1,0v0H21Zm5,.05,0,0-.06,0,0,0V5.35H26v0h.3l.15,0v.07h0V5.4Zm2.18.13v0h0L28,5.6l-.07,0v0H27.7l0,0,0,0v0h.08l0,0,.08,0,0,0,.05,0,.05,0v0h.13v.1Zm1.11,0v0l0,0Zm1.91,0v0h-.08v0l0,0,0,0h.23l-.08,0ZM23.4,6l.05,0h.1V5.93H23.5l0,0-.08,0v0l-.1,0h-.07V6h-.18c0-.09-.09-.09-.13,0l-.1,0,0,0h-.05v.05l-.1,0,0,0h-.07v0l0,0,0,0h-.05v0l0,0,0,.08h0v0l0,0-.25,0-.05,0,0,0,0,0,0,0h-.05v.12l0,0,0,0,0,0,0,0v.08l0,.1,0,0h0l0,0,0,0,0,0,.1,0,0,0,0,0,0,0,.05,0,0,0,0,0,.18,0,.1,0h.07V6.58l.08,0h.1v0l.1,0,0,0c.09,0,.09-.09,0-.13V6.18l.05,0h.13v0l.2,0,0,0Zm1.41.18.15,0h.1l.08,0c0,.08.11.08.15,0l.1,0h.05v0h-.05l0,0V6.06h-.05l0,0V5.86l-.13,0h-.05v0L25,6l0,0,0,0,0,0-.05,0h-.05v.05l-.08,0-.05,0,0,0,0,0,0,0h.15Zm.8.17-.2,0,0-.1V6.25l.15,0,0,0h.1V6.25l.15,0v.08Zm1.81.13,0,0-.08,0-.05,0,0,0,0,0,0,0-.08,0v.06H27v-.1h.08l0,0,0,0,0,0v0h.05v0h.25l0,0Zm.25.23,0-.06h.05v0l-.23,0,0,0,0,0-.1,0,0,0,0,0-.07,0,0,0,0,0,0,0,0,0,0,0h.17V6.89l0,0,.1,0h.05l.1,0,0,0h0l.26,0,0-.05,0,0,0,0h.1V6.68l-.08,0-.27,0,0,0,0,0h-.11Zm-.85.17,0,0h0l-.13,0h-.12l0,0-.07,0,0,0-.05,0,0,.07-.05,0,0,.12,0,0-.05,0,0,0h-.07v0h.1v0l.05,0,.07,0,0,0,0,0,0,0,0,0,0,0,0,0,.05,0h.15V7l.08,0,0,0Zm-2.89,0,0,0,0,0,0,0-.12,0,0,0,0,0h-.05l-.1,0h-.06l0,0,0,0,0,0,.05,0,.08,0,.1,0V6.83l.18,0v0Zm-7.26,0,.12,0v.05h-.07l-.08,0ZM27.15,7V7l0,0Zm1.28.07V7l0,0,0,0,.17,0V7l0,0h-.05Zm-6.69.18,0,.07-.1,0-.05,0,0,0-.05,0,0,0,0,0v0h-.1l0,.06v0h-.05l0,0-.1,0V7.59h.05V7.51h.1l0,0,.07,0,0,0,0-.05V7.31h.05l0,0,.1,0v0h.13l.05,0V7.11h.07l0,0v.08Zm-2.06.07,0,0v.07h-.05l0,0,0,0v0h-.13l-.05,0,0,0,0,0,0,0v.06h0l0,0,0,0,0,0v0h-.05l0,0,0,0v0h0l0,.05V8l0,0h.23c0,.09-.07.09-.18.1L19,8.24l-.08,0,.1-.11L19,8h-.15l0,.05-.08,0,0,0,0,0v0h-.1l0,0,0,0,0,0-.07,0,0,0-.13,0,0,0,0,.05-.12,0,0-.07V8.37h.08l.07,0,.06,0,0,0,0,0,0,0,0,0,0-.05.05,0,0,0,0,0,0,0V8h0l0,0,0,0V7.87h.05l.08,0,0,0,.08,0,0,0,.05,0,0,0,0,0,0,0,0,0,0,0,0,0,.05,0,0-.06,0,0,.08,0v0h.07l.1,0,0,0V7.31h.07l0,0,0,0,0,0,.05,0,0,0,.05,0v.1h-.1v0Zm.71-.07v0l0,0Zm7.23.12,0,0-.08,0-.05,0,0,0,0,0,0,0,0,0-.08,0v0h-.05l0,0h-.3v0H27l.05,0,0,0,0,0V7.39h.3l0,0,0,0,.13,0,.12,0v0ZM16,7.51h0l0,0,0,0,.05,0h0v.1Zm9.83,0-.1,0v0h-.08l0,.06v.2h.2v0l-.05,0,0,0-.07,0,0,0V8.1l-.07,0V8l0,0V7.92l-.1,0h-.05l-.17,0-.05,0,0,0-.1,0,0,0,0,0v.05h0l0,0,0,0v0h-.07l0,0h-.15l0,0,0,0,0,0,0,0,0,0,0-.08.08,0,0,0V7.89H25l0-.1.2,0,.1,0v0h.05l0,0,0-.06,0,0,.05,0V7.51h.15l.13,0,.07,0,0,0Zm-10.25.33h0ZM20.71,8l0,0,0,0,0,0-.08,0-.07,0,0,0-.1,0-.05,0V8.07h.1l0,0V8h.12l0,0,.05,0,0,0,.05,0h.13l0,.05h-.05V8Zm4.4.38v0l0,0ZM25,8.52l0,0h.05v-.1h-.05v.05l0,0-.1,0-.11,0,0,0h-.18l0,0V8.34l-.13,0h-.12v.05h-.08l0,0,0,0-.07,0-.08,0,0,0,0,0,0,0,0,0,0,.1h.33V8.62l0,0,0,0,0,0,.05,0h.12l0,0,0,.05v0l0,0-.08,0,0,.05-.08,0,0,.05-.05,0,0,0,0,0,0,0,0,0,0,.05-.2.14-.25.06v.15H23.6v0l-.1,0,0,0-.1,0,0,0h-.12V9.42h-.31v.06l-.07,0,0,0h-.07v.05l-.08,0,0,.13h.18l.08,0,.05,0H23l.25,0,0,0,.07,0,0,0,.05,0,.05,0,0,0,0,0,.07,0h0v0l.05,0h.05V9.32h0c.14,0,.27-.21.4-.3V9l.1,0,0,0h.05v0l.1,0,0,0,0,0,.13,0,0,0,0,0,0,0,0,0,0,0h.08V8.62h.08l0,.05h.1v-.1h0v0Zm-5.16.13-.18,0,0-.05,0,0h.15v0Zm-2,.22,0,0V9h-.27v0l0,0,0,0,0,0v0l0,0,.3,0,.15,0,0,0v.1Zm1.73,0,0,0h.05V8.8l-.08,0,0,0-.13,0,0,.08h-.05V9l0,0,.1,0h.1Zm-.22.1V9l0,0Zm-2.44.63,0,0,0,.08h-.13V9.68h.05l0,0,.05,0,.05,0,0,0,0-.05.05,0,0,.05v.08Zm7.31,0-.15,0V9.6h.08l0,0V9.53h.08l.15,0v.13h-.08ZM16.54,10v0h-.1l-.05,0v0h-.05l0-.1V10h.06l0,0,.08,0,.07,0,0,.07Zm7.21,0,0,0,0,0v0h-.37v0l0,0h-.07v0h.2l.1,0h0l.15,0,.1,0,0,0Zm-1.63.13.08,0h.2l0,0,0,0v0h.05v.08l0,0,0-.05h.12v0l0,0,.07,0,0,0h-.13V10H22.6l-.05,0,0,0,0,0,0,0h-.32v0h-.08V10H22v.05l0,0,0,.08h-.05v.07l0,0-.07,0-.05,0,0,0,0,0-.08,0,0,0,0,0-.1,0,0,0,0,0-.05,0h-.05v.05l0,0,0,0h0v.05l0,0,0,0h-.05v.05l-.08,0-.05,0h-.05v0l0,.05,0,.08h.08l.1,0,0,0,0,0,0-.08,0,0,.08,0h.07v-.05l0,0,0,0h.05v0l.05,0,.08,0,0,0,0,0h.05v-.05l0-.07h.05v-.06l0,0h.07v-.06l.08,0,0-.08,0,0,.07,0h.1v0Zm.38.15v0l0,0Zm-.63.53,0,0,0,0-.15,0v-.1h.07l0,0,.1,0v-.05H22v.1h0Zm.53.15,0,0v0h.1l.05,0v.07h-.1V11H22.4Zm-.2.22,0,0v0h-.08l-.1,0-.1,0v0h-.12v-.1h.05l0,0,.05,0,0,0,0,0,.11,0,.22,0v.05h-.05Zm-1,.1.1,0h.07v0h-.15v0h0v.05l0,0-.07,0,0,0,0,0,0,0-.1,0v.1l.15,0,0,0,0,0v-.08l0,0h.08Zm-.83.23,0,0v-.05h-.1l0,0h-.06v0l0,0-.06,0,0,0,0,.05,0,0,0,0-.05,0h-.05v0l0,0-.05,0-.05,0,0,0,0,0,0,0h-.07V12l0,0h-.1v.08l0,.07,0,0,0,0,0,0,0,0,0,0,0,0,0,0,0,0,0,0,0,0h-.08v.05l0,0,0,0-.08,0,0,.05-.05,0,0,.05,0,.05,0,0,0,0,0,.05,0,0,0,0,0,0H18.7v0l0,0,0,0h0v.08l-.05,0H18.5v.05l0,0,0,0H18.4v0l0,.06,0,.07-.08,0,0,0,0,0,0,0h-.05v.08l0,0,0,0,0,0,0,0,0,.1h.27l0,0h0l0,0,0,0,0,.1v.05h.05l0,0,0,0v-.06l0,0h.05v-.05l0,0,0,0,0,0,0-.07v-.13l0,0-.1,0,0-.07,0,0v-.05l0,0,0,0,0,0h.47v-.06h.08v0l0,0,0,0,.08,0h.07V13l-.05,0-.1,0h-.05v.05H19v-.05h-.1l0,0V13l0,0,0,0,.1,0h.08v-.05l.05,0h.05v-.05l0,0,0,0,.08,0,0,0h.05v-.05l.05,0,0,0,.05,0,.07,0,0,0,0,0,0-.05h-.08v-.11l0-.07h.05v-.05l.17,0,.08,0v-.2H20v0l.1,0,.07,0v-.08l0,0,0-.05.1,0h.15v-.1h-.05Zm1.13.05v.11l-.08,0,0,0-.1,0,0-.06Zm-1.18.63v.05h-.05l-.06,0v0h0l0,0-.08,0v.05H20l0,.07-.07,0-.05,0,0,0v-.08l0,0,0-.1,0,0,.07,0,.05,0v-.1h.1l.1,0v-.05h.08l.08,0,0,.07Zm-.88.65h.1c.07,0,.06,0,.07.08l-.08.07-.17,0,0-.13h.05Zm-1.59,1.23H18V13.9l0-.05h-.06v.05l-.1,0-.1,0,0,0,0,0,0,0h0v.05l0,0,0,0H17.5v.05l0,0,0,0,0,.07,0,0,0,0,0,.05,0,0h-.05v.05l0,0,0,0h-.05v.05l0,0,0,0H17v.07l0,0h-.08v0l0,0-.05,0,0,.05,0,0h-.05V15l0,0,0,0,0,0,0,0h-.05v.05l0,0,0,0,0,.05,0,0-.05,0,0,0h-.05v0l0,.05,0,.07-.05,0,0,.05,0,0h0v.25l0,.05,0,0,0,0h-.05V16l0,0,0,0,0,0,0,0-.1,0,0,0,0,0,0,0v.1h.15v-.05l.07,0,0-.08.07,0,0,0,0,0,0-.08h-.05v0l0,0,0,0,0-.07,0,0,.07,0,0,0,.05,0,.05,0h.18l.1,0,0,0v.1h0l0,0,0,0,.07,0,0-.08h0v0l0,0h.08v-.08l.05,0h.05v-.08l0,0,0,0,0-.05,0-.05,0,0h.06v-.05h0v0h-.16v0h-.1v.05l0,.07,0,0H17v.05l-.07,0,0,0h-.07v.05h-.08l0-.05v-.1l0-.15,0,0h.07v-.05H17V15.1l0,0,0,0h.05V15l0-.05h.07l0,0v-.05l0,0h0v-.05l.05,0,.06,0,0,0,0,0,0,0,0,0,0,0v0l0,0v0l0-.05,0,0,0,0,.05,0h.15v0l0-.07,0,0,0,0,0-.07Zm-1.35,2.09h.07l-.05,0,0,.07,0,0v.07h0l0-.05v0l0-.07h-.05v-.06Zm-.78.68,0,0,0,0,0,0-.12,0,0,0,0,0,0,0v.08l0,0,.05,0,0,0,0,0v0l0,0h.05l0,0,.05,0v-.08h.15l0-.05V17h0L16,17l0,0v.13h-.05l0,0v.08h-.07l0,.07,0,0,0,0,0,.05,0,.18-.12,0v-.25l-.05,0h0l0,0,0,0v.1h0l0,0,0,0,0,.05-.1,0v.05h-.07l0,0-.08,0v0h-.05l0,.12,0,.08-.2,0,0-.07,0,0,0-.05,0,0v-.08H15l0-.2,0,0v0h.05l0-.05,0-.05v-.1h0l0-.08,0,0,0,0,0-.1,0-.1,0,0,.05,0,0,0,0,0,0,0,0,0,0,0,.05,0,0-.08v-.05h.05l0,0,.05,0,0,0,.05,0v.38Z"/><path class="cls-1" d="M0,4.78A8.2,8.2,0,0,1,8.2,13,8.2,8.2,0,0,1,0,21.17Z"/><path class="cls-1" d="M20.38,29.94h-.77l-.41-1.07H17.91l-.39,1.07h-.73l1.42-3.75h.66ZM19,28.27l-.45-1.19-.43,1.19Zm-3.61-.9a.67.67,0,0,0-.1-.26.66.66,0,0,0-.18-.19.83.83,0,0,0-.25-.12.88.88,0,0,0-.29,0,1,1,0,0,0-.43.08,1,1,0,0,0-.32.25,1.22,1.22,0,0,0-.21.41,2.28,2.28,0,0,0,0,1.12,1.22,1.22,0,0,0,.21.41.88.88,0,0,0,.32.26,1,1,0,0,0,.43.09.85.85,0,0,0,.55-.18.75.75,0,0,0,.27-.5h.71a1.37,1.37,0,0,1-.17.55,1.2,1.2,0,0,1-.33.41,1.29,1.29,0,0,1-.46.25,1.79,1.79,0,0,1-.57.09,1.81,1.81,0,0,1-.72-.14,1.45,1.45,0,0,1-.55-.39,1.64,1.64,0,0,1-.34-.61,2.24,2.24,0,0,1-.13-.8,2.53,2.53,0,0,1,.13-.8,1.74,1.74,0,0,1,.35-.61,1.5,1.5,0,0,1,.54-.39,1.88,1.88,0,0,1,.72-.13,1.91,1.91,0,0,1,.54.08,1.86,1.86,0,0,1,.46.25,1.47,1.47,0,0,1,.34.4,1.41,1.41,0,0,1,.18.51Zm-3.46,2.57h-.68V26.19h.68ZM9.86,28a2.1,2.1,0,0,0-.06-.51.91.91,0,0,0-.19-.38.83.83,0,0,0-.36-.23,1.64,1.64,0,0,0-.58-.09H8.14v2.46h.53a1.57,1.57,0,0,0,.57-.08A.84.84,0,0,0,9.61,29a.89.89,0,0,0,.19-.39A2.09,2.09,0,0,0,9.86,28m.7,0a1.67,1.67,0,0,1-1.89,1.9H7.45V26.19H8.67A1.65,1.65,0,0,1,10.56,28m-3.84,1.9H3.89V26.19H6.64v.64H4.58v.85H6.51v.64H4.58v1H6.72Zm-3.21,0H2.84V27.53L2,29.94H1.46L.67,27.53v2.41H0V26.19H.9l.86,2.67.86-2.67h.89Z"/><path class="cls-1" d="M37.8,29.94H35l.81-3.75h2.75l-.14.64H36.33l-.18.85h1.92l-.14.64H36l-.21,1h2.14Zm-5.22,0h-.65l-1.11-2.51-.54,2.51h-.66l.81-3.75h.65l1.1,2.51.55-2.51h.67Zm-5.35,0h-.68l.81-3.75h.69Zm-2.84,0H22l.81-3.75h.69l-.67,3.1h1.7Z"/></g></g></svg>