<svg id="Capa_1" data-name="Capa 1" xmlns="http://www.w3.org/2000/svg" viewBox="0 0 135 46"><defs><style>.cls-1{fill:#009bda;}</style></defs><path class="cls-1" d="M48.21,28.85l-.23.83a.16.16,0,0,1,0,.07s0,0-.06,0h-.21a.08.08,0,0,1-.07,0l0-.07-.34-1.76v0a.08.08,0,0,1,0,0,.07.07,0,0,1,.06,0h.25a.16.16,0,0,1,0,.06l.23,1.18.2-.74a.17.17,0,0,1,0-.05.08.08,0,0,1,.07,0h.22a.08.08,0,0,1,.07,0,.17.17,0,0,1,0,.05l.2.74.23-1.18,0-.06h.25s0,0,.05,0a.05.05,0,0,1,0,0v0l-.34,1.76,0,.07a.08.08,0,0,1-.07,0h-.21s0,0-.06,0a.16.16,0,0,1,0-.07Z"/><path class="cls-1" d="M51.4,29.43a.07.07,0,0,1,.06,0,.08.08,0,0,1,0,.05v.2a.08.08,0,0,1,0,.05.07.07,0,0,1-.06,0H50.22s0,0,0,0a.08.08,0,0,1,0-.05V27.9a.08.08,0,0,1,0,0s0,0,0,0h1.16s0,0,0,0a.05.05,0,0,1,0,0v.2a.05.05,0,0,1,0,0s0,0,0,0h-.87v.45h.81s0,0,0,0a.05.05,0,0,1,0,.05v.2a.05.05,0,0,1,0,.05s0,0,0,0h-.81v.47Z"/><path class="cls-1" d="M54.91,27.83a.06.06,0,0,1,.05,0,.08.08,0,0,1,0,0v.2a.08.08,0,0,1,0,0,.06.06,0,0,1-.05,0h-.49V29.7s0,0,0,.05,0,0,0,0h-.22a.06.06,0,0,1-.05,0,.08.08,0,0,1,0-.05V28.17h-.49a.06.06,0,0,1,0,0,.08.08,0,0,1,0,0v-.2a.08.08,0,0,1,0,0,.06.06,0,0,1,0,0Z"/><path class="cls-1" d="M56.74,29.05l-.3-.8-.29.8Zm-.15-1.22a.08.08,0,0,1,.07,0l0,.07.66,1.76v0a.08.08,0,0,1,0,.05.06.06,0,0,1-.05,0h-.2s-.06,0-.07,0,0,0,0-.05l-.12-.3H56l-.12.3s0,0,0,.05,0,0-.07,0h-.2a.06.06,0,0,1-.05,0,.08.08,0,0,1,0-.05v0l.66-1.76a.43.43,0,0,1,0-.07.08.08,0,0,1,.07,0Z"/><path class="cls-1" d="M59.68,29.66l0,0v0a.08.08,0,0,1,0,.05.06.06,0,0,1,0,0h-.26a.16.16,0,0,1-.09,0,.07.07,0,0,1,0,0L58.61,29v.73s0,0,0,.05,0,0-.05,0h-.22a.06.06,0,0,1,0,0,.08.08,0,0,1,0-.05V27.9a.08.08,0,0,1,0,0,.06.06,0,0,1,0,0h.22s0,0,.05,0,0,0,0,0v.65l.59-.66s0,0,0-.05h.32s0,0,0,0,0,0,0,0,0,0,0,0l-.73.82Z"/><path class="cls-1" d="M61.85,29.43a.06.06,0,0,1,0,0,.08.08,0,0,1,0,.05v.2a.08.08,0,0,1,0,.05.06.06,0,0,1,0,0H60.66a.06.06,0,0,1,0,0,.08.08,0,0,1,0-.05V27.9a.08.08,0,0,1,0,0,.06.06,0,0,1,0,0h1.16a.07.07,0,0,1,.06,0,.08.08,0,0,1,0,0v.2a.08.08,0,0,1,0,0,.07.07,0,0,1-.06,0H61v.45h.81a.07.07,0,0,1,.06,0,.08.08,0,0,1,0,.05v.2a.08.08,0,0,1,0,.05.07.07,0,0,1-.06,0H61v.47Z"/><path class="cls-1" d="M65.32,29.16a.06.06,0,0,1,0-.06l.05,0h.22l0,0a.14.14,0,0,1,0,.06.65.65,0,0,1-.06.23.66.66,0,0,1-.14.2.88.88,0,0,1-.6.21.81.81,0,0,1-.33-.06.7.7,0,0,1-.25-.15.87.87,0,0,1-.15-.25.94.94,0,0,1-.07-.31v-.46a.94.94,0,0,1,.07-.31.87.87,0,0,1,.15-.25.7.7,0,0,1,.25-.15.81.81,0,0,1,.33-.06.88.88,0,0,1,.6.21.66.66,0,0,1,.14.2.71.71,0,0,1,.06.23.14.14,0,0,1,0,.06l0,0H65.4l-.05,0a.06.06,0,0,1,0-.06.76.76,0,0,0,0-.11l-.08-.09-.13-.07a.5.5,0,0,0-.18,0,.54.54,0,0,0-.19,0,.38.38,0,0,0-.13.09.57.57,0,0,0-.08.13.47.47,0,0,0,0,.17,2.65,2.65,0,0,0,0,.46.47.47,0,0,0,0,.17.57.57,0,0,0,.08.13.38.38,0,0,0,.13.09.54.54,0,0,0,.19,0l.18,0,.13-.07a.39.39,0,0,0,.08-.1.42.42,0,0,0,0-.1"/><path class="cls-1" d="M67.67,29.05l-.3-.8-.3.8Zm-.15-1.22s0,0,.06,0a.16.16,0,0,1,0,.07l.66,1.76v0s0,0,0,.05,0,0-.05,0H68s-.06,0-.08,0l0-.05-.11-.3H67l-.12.3,0,.05s0,0-.08,0h-.19s0,0,0,0,0,0,0-.05v0l.66-1.76a.16.16,0,0,1,0-.07s0,0,.06,0Z"/><path class="cls-1" d="M69.54,28.7h.39a.58.58,0,0,0,.25-.05.23.23,0,0,0,.09-.21q0-.17-.09-.21a.46.46,0,0,0-.25-.06h-.39Zm.41-.87a.73.73,0,0,1,.51.16.6.6,0,0,1,.17.45.62.62,0,0,1-.09.34.49.49,0,0,1-.26.21l.37.69s0,0,0,0,0,0,0,.05h-.27s-.06,0-.08,0l0-.05-.35-.65h-.36v.65a.08.08,0,0,1,0,.05.06.06,0,0,1,0,0h-.22s0,0,0,0,0,0,0-.05V27.9s0,0,0,0,0,0,0,0Z"/><path class="cls-1" d="M72.89,29.43a.06.06,0,0,1,0,0,.08.08,0,0,1,0,.05v.2a.08.08,0,0,1,0,.05.06.06,0,0,1,0,0H71.7a.06.06,0,0,1,0,0,.08.08,0,0,1,0-.05V27.9a.08.08,0,0,1,0,0,.06.06,0,0,1,0,0h1.16a.07.07,0,0,1,.06,0,.08.08,0,0,1,0,0v.2a.08.08,0,0,1,0,0,.07.07,0,0,1-.06,0H72v.45h.81a.07.07,0,0,1,.06,0,.08.08,0,0,1,0,.05v.2a.08.08,0,0,1,0,.05.07.07,0,0,1-.06,0H72v.47Z"/><path class="cls-1" d="M76.36,28.57a.43.43,0,0,0-.13-.31.39.39,0,0,0-.3-.11.37.37,0,0,0-.3.11.43.43,0,0,0-.13.31c0,.07,0,.15,0,.23s0,.17,0,.24a.46.46,0,0,0,.13.31.4.4,0,0,0,.3.1.42.42,0,0,0,.3-.1.46.46,0,0,0,.13-.31v-.47m-1.22,0a.93.93,0,0,1,0-.29,1,1,0,0,1,.15-.24.78.78,0,0,1,.24-.16,1,1,0,0,1,.35-.06.9.9,0,0,1,.34.06.6.6,0,0,1,.24.16.61.61,0,0,1,.15.24.72.72,0,0,1,.06.29.49.49,0,0,0,0,.12v.26a.57.57,0,0,0,0,.12.72.72,0,0,1-.06.29.57.57,0,0,1-.14.24.72.72,0,0,1-.25.16.9.9,0,0,1-.34.06,1,1,0,0,1-.35-.06.78.78,0,0,1-.24-.16.7.7,0,0,1-.15-.24.93.93,0,0,1,0-.29.41.41,0,0,1,0-.12v-.26a.49.49,0,0,1,0-.12"/><path class="cls-1" d="M79,27.83a.06.06,0,0,1,0,0,.08.08,0,0,1,0,0v.2a.08.08,0,0,1,0,0,.06.06,0,0,1,0,0h-.86v.54h.8a.12.12,0,0,1,.08.08V29s0,0,0,.05l0,0h-.8v.64a.08.08,0,0,1,0,.05.07.07,0,0,1-.06,0H77.8s0,0,0,0a.05.05,0,0,1,0-.05V27.9a.05.05,0,0,1,0,0s0,0,0,0Z"/><path class="cls-1" d="M82.55,27.83s0,0,0,0a.05.05,0,0,1,0,0s0,0,0,0L82,29.09v.61s0,0,0,.05,0,0,0,0h-.22a.06.06,0,0,1,0,0,.08.08,0,0,1,0-.05v-.61L81,27.93v0s0,0,0,0,0,0,0,0h.2a.15.15,0,0,1,.08,0,.09.09,0,0,1,0,0l.44.78.44-.78a.09.09,0,0,1,0,0l.08,0Z"/><path class="cls-1" d="M84.62,28.57a.43.43,0,0,0-.13-.31.46.46,0,0,0-.6,0,.43.43,0,0,0-.13.31V29a.46.46,0,0,0,.13.31.5.5,0,0,0,.6,0,.46.46,0,0,0,.13-.31v-.47m-1.22,0a.89.89,0,0,1,.2-.53.78.78,0,0,1,.24-.16,1,1,0,0,1,.35-.06.9.9,0,0,1,.34.06.6.6,0,0,1,.24.16.61.61,0,0,1,.15.24.72.72,0,0,1,.06.29s0,.08,0,.12v.26c0,.05,0,.09,0,.12a.72.72,0,0,1-.06.29.57.57,0,0,1-.14.24.72.72,0,0,1-.25.16.86.86,0,0,1-.34.06,1,1,0,0,1-.35-.06.78.78,0,0,1-.24-.16.57.57,0,0,1-.14-.24.72.72,0,0,1-.06-.29s0-.07,0-.12v-.26s0-.08,0-.12"/><path class="cls-1" d="M87.44,27.83s0,0,0,0a.05.05,0,0,1,0,0V29a1,1,0,0,1,0,.31.58.58,0,0,1-.15.24.6.6,0,0,1-.24.16,1.18,1.18,0,0,1-.68,0,.78.78,0,0,1-.24-.16.57.57,0,0,1-.14-.24A1,1,0,0,1,86,29V27.9a.08.08,0,0,1,0,0,.06.06,0,0,1,.05,0h.22s0,0,0,0a.05.05,0,0,1,0,0V29a1,1,0,0,0,0,.19.34.34,0,0,0,.09.14.4.4,0,0,0,.13.07.41.41,0,0,0,.16,0,.47.47,0,0,0,.17,0l.13-.07a.47.47,0,0,0,.08-.14.54.54,0,0,0,0-.19V27.9a.05.05,0,0,1,0,0s0,0,0,0Z"/><path class="cls-1" d="M88.93,28.7h.39a.55.55,0,0,0,.25-.05.23.23,0,0,0,.09-.21q0-.17-.09-.21a.44.44,0,0,0-.25-.06h-.39Zm.41-.87a.73.73,0,0,1,.51.16.57.57,0,0,1,.18.45.55.55,0,0,1-.1.34.46.46,0,0,1-.26.21l.37.69a0,0,0,0,1,0,0s0,0,0,.05h-.27s-.06,0-.08,0l0-.05-.35-.65h-.36v.65s0,0,0,.05,0,0,0,0h-.22a.06.06,0,0,1,0,0,.08.08,0,0,1,0-.05V27.9a.08.08,0,0,1,0,0,.06.06,0,0,1,0,0Z"/><path class="cls-1" d="M92.93,27.8a.8.8,0,0,1,.32.05.71.71,0,0,1,.23.12.55.55,0,0,1,.14.17.41.41,0,0,1,0,.17.08.08,0,0,1,0,.05s0,0-.05,0h-.19l-.07,0a.1.1,0,0,1,0-.05.3.3,0,0,0-.13-.12.39.39,0,0,0-.24-.05H92.8l-.11.05a.27.27,0,0,0-.08.07.13.13,0,0,0,0,.09.2.2,0,0,0,0,.11.35.35,0,0,0,.09.07l.16.05.25.06.28.08a.88.88,0,0,1,.19.12.57.57,0,0,1,.11.16.6.6,0,0,1,0,.2.59.59,0,0,1,0,.23.7.7,0,0,1-.15.19.83.83,0,0,1-.25.12,1.15,1.15,0,0,1-.33,0,.86.86,0,0,1-.28,0,.82.82,0,0,1-.25-.1.58.58,0,0,1-.17-.18.41.41,0,0,1-.07-.22s0,0,0-.05,0,0,0,0h.26a.1.1,0,0,1,0,.05.35.35,0,0,0,0,.08.22.22,0,0,0,.07.06l.11.05h.33l.13,0a.22.22,0,0,0,.09-.07.15.15,0,0,0,0-.11.13.13,0,0,0,0-.1.23.23,0,0,0-.11-.07L93,29l-.26-.06-.24-.08a.52.52,0,0,1-.17-.12.56.56,0,0,1-.1-.15.73.73,0,0,1,0-.22.46.46,0,0,1,.06-.23.49.49,0,0,1,.14-.18.84.84,0,0,1,.23-.12.86.86,0,0,1,.28,0"/><path class="cls-1" d="M95.56,28.82l.51-.92,0,0a.1.1,0,0,1,.08,0h.18s0,0,0,0a.05.05,0,0,1,0,0v1.8a.05.05,0,0,1,0,.05s0,0,0,0h-.22a.06.06,0,0,1-.05,0,.08.08,0,0,1,0-.05V28.61l-.35.63,0,0a.06.06,0,0,1-.06,0h-.14a.09.09,0,0,1-.06,0s0,0,0,0L95,28.61V29.7a.08.08,0,0,1,0,.05s0,0,0,0h-.22s0,0,0,0,0,0,0-.05V27.9s0,0,0,0,0,0,0,0h.18s.07,0,.08,0l0,0Z"/><path class="cls-1" d="M97.59,29.77a.07.07,0,0,1-.06,0,.08.08,0,0,1,0-.05V27.9a.08.08,0,0,1,0,0,.07.07,0,0,1,.06,0h.21s0,0,0,0a.05.05,0,0,1,0,0v1.8a.05.05,0,0,1,0,.05s0,0,0,0Z"/><path class="cls-1" d="M100.2,29.43a.06.06,0,0,1,0,0,.08.08,0,0,1,0,.05v.2a.08.08,0,0,1,0,.05.06.06,0,0,1,0,0H99s0,0,0,0a.05.05,0,0,1,0-.05V27.9a.05.05,0,0,1,0,0s0,0,0,0h.21a.07.07,0,0,1,.06,0,.08.08,0,0,1,0,0v1.53Z"/><path class="cls-1" d="M102.43,29.43s0,0,0,0,0,0,0,.05v.2s0,0,0,.05,0,0,0,0h-1.18s0,0,0,0,0,0,0-.05V27.9s0,0,0,0,0,0,0,0h1.16s0,0,0,0,0,0,0,0v.2s0,0,0,0,0,0,0,0h-.87v.45h.81s0,0,.05,0,0,0,0,.05v.2s0,0,0,.05,0,0-.05,0h-.81v.47Z"/><path class="cls-1" d="M49,18v2.42h2a2.09,2.09,0,0,0,.9-.15,1,1,0,0,0,.54-1,1.12,1.12,0,0,0-.52-1.1,1.79,1.79,0,0,0-.87-.16Zm3.89-1.34a2.33,2.33,0,0,1,.85.63,2.93,2.93,0,0,1,.45.76,2.59,2.59,0,0,1,.17,1A2.64,2.64,0,0,1,54,20.27a1.76,1.76,0,0,1-1.07.88,1.72,1.72,0,0,1,.89.71,3,3,0,0,1,.26,1.41v.61a4.93,4.93,0,0,0,.05.84.73.73,0,0,0,.35.51v.23H52.4c-.06-.2-.1-.36-.13-.49a6.48,6.48,0,0,1-.08-.77v-.84a1.73,1.73,0,0,0-.3-1.15,1.52,1.52,0,0,0-1.07-.29H49v3.54H47.13v-9h4.31a3.91,3.91,0,0,1,1.42.23"/><path class="cls-1" d="M57.1,18.79v4a2.13,2.13,0,0,0,.14.86.94.94,0,0,0,.93.5,1.22,1.22,0,0,0,1.22-.72,2.66,2.66,0,0,0,.17-1V18.79h1.76v6.67H59.63v-.94a1.28,1.28,0,0,0-.12.18,1.49,1.49,0,0,1-.23.27,2.63,2.63,0,0,1-.79.5,2.74,2.74,0,0,1-.9.14,2,2,0,0,1-2-1.07,4.11,4.11,0,0,1-.28-1.73v-4Z"/><path class="cls-1" d="M61.72,20.09V18.85h.93V17h1.72v1.86h1.09v1.24H64.37v3.53a.79.79,0,0,0,.11.51,1.21,1.21,0,0,0,.63.1h.35v1.3l-.83,0a2.19,2.19,0,0,1-1.69-.43,1.3,1.3,0,0,1-.29-.92V20.09Z"/><path class="cls-1" d="M70.74,18.83a2,2,0,0,1,.83.65,1.79,1.79,0,0,1,.33.77A9.6,9.6,0,0,1,72,21.54v3.92H70.18V21.4a1.82,1.82,0,0,0-.18-.87.92.92,0,0,0-.9-.47,1.23,1.23,0,0,0-1,.47,2.08,2.08,0,0,0-.35,1.32v3.61H66v-9h1.75v3.18a2.22,2.22,0,0,1,.87-.81,2.5,2.5,0,0,1,1-.23,2.7,2.7,0,0,1,1.12.22"/><path class="cls-1" d="M73,18.79h1.77v6.67H73ZM74.78,18H73V16.39h1.77Z"/><path class="cls-1" d="M81.23,19.17a2.2,2.2,0,0,1,.66,1.8v4.49H80.1V21.4a1.85,1.85,0,0,0-.14-.8,1,1,0,0,0-1-.52,1.21,1.21,0,0,0-1.21.75,2.71,2.71,0,0,0-.17,1v3.61H75.87V18.8h1.69v1a2.73,2.73,0,0,1,.63-.74,2.2,2.2,0,0,1,1.36-.41,2.55,2.55,0,0,1,1.68.54"/><path class="cls-1" d="M82.92,18.79h1.77v6.67H82.92ZM84.69,18H82.92V16.39h1.77Z"/><path class="cls-1" d="M87.5,18.79v4a2.15,2.15,0,0,0,.13.86.94.94,0,0,0,.93.5,1.22,1.22,0,0,0,1.22-.72,2.66,2.66,0,0,0,.17-1V18.79h1.77v6.67H90v-.94l-.12.18a1.18,1.18,0,0,1-.23.27,2.52,2.52,0,0,1-.79.5,2.64,2.64,0,0,1-.89.14,2,2,0,0,1-2-1.07,4.09,4.09,0,0,1-.29-1.73v-4Z"/><path class="cls-1" d="M101.12,18.82a1.92,1.92,0,0,1,.77.59,1.88,1.88,0,0,1,.38.86,5.87,5.87,0,0,1,.07,1l0,4.2h-1.78V21.21a1.27,1.27,0,0,0-.13-.62.86.86,0,0,0-.85-.47,1,1,0,0,0-1,.6,2,2,0,0,0-.14.77v4H96.66v-4a2.24,2.24,0,0,0-.12-.86.84.84,0,0,0-.86-.49,1,1,0,0,0-1,.49,1.75,1.75,0,0,0-.14.82v4H92.77V18.8h1.69v1a2.74,2.74,0,0,1,.61-.74,2.06,2.06,0,0,1,1.32-.4,2.14,2.14,0,0,1,1.24.34,2,2,0,0,1,.57.8,2.2,2.2,0,0,1,.85-.86,2.65,2.65,0,0,1,1.2-.28,2.26,2.26,0,0,1,.87.18"/><path class="cls-1" d="M103.5,18.12a.37.37,0,0,0-.16,0h-.07v.31h.11a.21.21,0,0,0,.15,0,.15.15,0,0,0,.06-.13.12.12,0,0,0-.09-.12M103,19V17.91h.51a.46.46,0,0,1,.21.05.29.29,0,0,1,.14.26.28.28,0,0,1-.07.2.4.4,0,0,1-.19.07l.15.06a.34.34,0,0,1,.1.25v.12a.06.06,0,0,0,0,0v0h-.27s0-.09,0-.15a.38.38,0,0,0,0-.13s0-.07-.08-.08l-.1,0h-.12V19Zm-.14-1.11a.76.76,0,0,0-.23.56.82.82,0,0,0,.23.58A.76.76,0,0,0,104,19a.82.82,0,0,0,.23-.58.76.76,0,0,0-.23-.56.76.76,0,0,0-1.11,0m1.22,1.26a.87.87,0,0,1-.66.28.9.9,0,0,1-.68-.28,1,1,0,0,1,0-1.41,1,1,0,0,1,.66-.26.92.92,0,0,1,.67.29.93.93,0,0,1,.28.68,1,1,0,0,1-.29.7"/><path class="cls-1" d="M42.84,23.49h-2a5.8,5.8,0,0,0-1.33-4,5.16,5.16,0,0,0-3.94-1.35v-2A7,7,0,0,1,40.88,18a7.58,7.58,0,0,1,2,5.46m-1,6.14a.91.91,0,1,1,.91-.9.9.9,0,0,1-.91.9M40,27.82a.91.91,0,1,1,.91-.91.9.9,0,0,1-.91.91m-1.85-1.88a.91.91,0,0,1,0-1.81.91.91,0,1,1,0,1.81m-1.78-2a.91.91,0,1,1,.91-.91.9.9,0,0,1-.91.91M30.63,30h14V16h-14Z"/></svg>