<svg xmlns="http://www.w3.org/2000/svg" viewBox="0 0 73.74 14"><defs><style>.cls-1{fill:#009bda;}</style></defs><g id="Capa_2" data-name="Capa 2"><g id="Capa_1-2" data-name="Capa 1"><path class="cls-1" d="M17.58,12.85l-.23.83a.16.16,0,0,1,0,.07s0,0-.06,0H17a.08.08,0,0,1-.07,0l0-.07-.34-1.76v0a.08.08,0,0,1,0-.05.07.07,0,0,1,.06,0h.25a.16.16,0,0,1,0,.06l.23,1.18.2-.74,0-.05a.08.08,0,0,1,.07,0h.22a.08.08,0,0,1,.07,0l0,.05.2.74.23-1.18a.16.16,0,0,1,0-.06h.25s0,0,.05,0a.05.05,0,0,1,0,.05v0l-.34,1.76,0,.07a.08.08,0,0,1-.07,0h-.21s-.05,0-.06,0a.16.16,0,0,1,0-.07Z"/><path class="cls-1" d="M20.77,13.43s0,0,.05,0a.05.05,0,0,1,0,.05v.2a.05.05,0,0,1,0,.05s0,0-.05,0H19.59s0,0-.05,0,0,0,0-.05V11.9s0,0,0-.05,0,0,.05,0h1.16s0,0,.05,0,0,0,0,.05v.2s0,0,0,.05,0,0-.05,0h-.87v.45h.81s0,0,0,0a.05.05,0,0,1,0,0v.2a.05.05,0,0,1,0,0s0,0,0,0h-.81v.47Z"/><path class="cls-1" d="M24.28,11.83a.06.06,0,0,1,0,0,.08.08,0,0,1,0,.05v.2a.08.08,0,0,1,0,.05.06.06,0,0,1,0,0h-.49V13.7s0,0,0,.05,0,0-.05,0H23.5s0,0-.05,0a.08.08,0,0,1,0-.05V12.17h-.49a.06.06,0,0,1-.05,0,.08.08,0,0,1,0-.05v-.2a.08.08,0,0,1,0-.05.06.06,0,0,1,.05,0Z"/><path class="cls-1" d="M26.11,13.05l-.3-.8-.29.8ZM26,11.83a.08.08,0,0,1,.07,0l0,.07.67,1.76v0a.08.08,0,0,1,0,.05.07.07,0,0,1-.06,0h-.19s-.06,0-.07,0,0,0,0-.05l-.12-.3h-.85l-.12.3s0,0,0,.05,0,0-.07,0H25a.06.06,0,0,1,0,0,.08.08,0,0,1,0-.05v0l.66-1.76a.43.43,0,0,1,0-.07.08.08,0,0,1,.07,0Z"/><path class="cls-1" d="M29.05,13.66l0,0v0a.08.08,0,0,1,0,.05.06.06,0,0,1-.05,0h-.26l-.09,0a.07.07,0,0,1,0,0L28,13v.73s0,0,0,.05,0,0-.05,0h-.22a.06.06,0,0,1-.05,0,.08.08,0,0,1,0-.05V11.9a.08.08,0,0,1,0-.05.06.06,0,0,1,.05,0h.22s0,0,.05,0,0,0,0,.05v.65l.59-.66.05-.05h.32s0,0,0,0,0,0,0,.05,0,0,0,0l-.73.82Z"/><path class="cls-1" d="M31.22,13.43a.06.06,0,0,1,.05,0,.08.08,0,0,1,0,.05v.2a.08.08,0,0,1,0,.05.06.06,0,0,1-.05,0H30a.06.06,0,0,1-.05,0,.08.08,0,0,1,0-.05V11.9a.08.08,0,0,1,0-.05.06.06,0,0,1,.05,0h1.16s0,0,0,0a.05.05,0,0,1,0,.05v.2a.05.05,0,0,1,0,.05s0,0,0,0h-.87v.45h.81a.07.07,0,0,1,.06,0,.08.08,0,0,1,0,0v.2a.08.08,0,0,1,0,0,.07.07,0,0,1-.06,0h-.81v.47Z"/><path class="cls-1" d="M34.69,13.16a.06.06,0,0,1,0-.06l.05,0H35l0,0a.14.14,0,0,1,0,.06.65.65,0,0,1-.06.23.66.66,0,0,1-.14.2.88.88,0,0,1-.6.21.81.81,0,0,1-.33-.06.7.7,0,0,1-.25-.15.87.87,0,0,1-.15-.25.94.94,0,0,1-.07-.31v-.46a.94.94,0,0,1,.07-.31.87.87,0,0,1,.15-.25.7.7,0,0,1,.25-.15.81.81,0,0,1,.33-.06.88.88,0,0,1,.6.21.66.66,0,0,1,.14.2.71.71,0,0,1,.06.23.14.14,0,0,1,0,.06l0,0h-.22l-.05,0a.06.06,0,0,1,0-.06.76.76,0,0,0,0-.11l-.08-.09-.13-.07a.5.5,0,0,0-.18,0,.54.54,0,0,0-.19,0,.38.38,0,0,0-.13.09.57.57,0,0,0-.08.13.47.47,0,0,0,0,.17,2.65,2.65,0,0,0,0,.46.47.47,0,0,0,0,.17.57.57,0,0,0,.08.13.38.38,0,0,0,.13.09.54.54,0,0,0,.19,0l.18,0,.13-.07a.39.39,0,0,0,.08-.1.42.42,0,0,0,0-.1"/><path class="cls-1" d="M37,13.05l-.3-.8-.3.8Zm-.15-1.22s0,0,.06,0a.16.16,0,0,1,0,.07l.66,1.76v0s0,0,0,.05,0,0-.05,0h-.19s-.06,0-.08,0l0-.05-.11-.3h-.85l-.12.3,0,.05s0,0-.08,0H35.9s0,0,0,0,0,0,0-.05v0l.66-1.76a.16.16,0,0,1,0-.07s0,0,.06,0Z"/><path class="cls-1" d="M38.91,12.7h.39a.58.58,0,0,0,.25,0,.23.23,0,0,0,.09-.21q0-.16-.09-.21a.46.46,0,0,0-.25-.06h-.39Zm.4-.87a.74.74,0,0,1,.52.16.6.6,0,0,1,.17.45.62.62,0,0,1-.09.34.49.49,0,0,1-.26.21l.37.69s0,0,0,0,0,0,0,0h-.27s-.06,0-.08,0l0-.05-.35-.65h-.36v.65a.08.08,0,0,1,0,.05.06.06,0,0,1,0,0h-.22s0,0,0,0,0,0,0-.05V11.9s0,0,0-.05,0,0,0,0Z"/><path class="cls-1" d="M42.26,13.43a.06.06,0,0,1,.05,0,.08.08,0,0,1,0,.05v.2a.08.08,0,0,1,0,.05.06.06,0,0,1-.05,0H41.07a.06.06,0,0,1,0,0,.08.08,0,0,1,0-.05V11.9a.08.08,0,0,1,0-.05.06.06,0,0,1,0,0h1.16a.07.07,0,0,1,.06,0,.08.08,0,0,1,0,.05v.2a.08.08,0,0,1,0,.05.07.07,0,0,1-.06,0h-.87v.45h.81a.07.07,0,0,1,.06,0,.08.08,0,0,1,0,0v.2a.08.08,0,0,1,0,0,.07.07,0,0,1-.06,0h-.81v.47Z"/><path class="cls-1" d="M45.73,12.57a.43.43,0,0,0-.13-.31.39.39,0,0,0-.3-.11.37.37,0,0,0-.3.11.43.43,0,0,0-.13.31c0,.07,0,.15,0,.23s0,.17,0,.24a.46.46,0,0,0,.13.31.4.4,0,0,0,.3.1.42.42,0,0,0,.3-.1.46.46,0,0,0,.13-.31v-.47m-1.22,0a.93.93,0,0,1,.05-.29,1,1,0,0,1,.15-.24.78.78,0,0,1,.24-.16,1,1,0,0,1,.35-.06.9.9,0,0,1,.34.06.6.6,0,0,1,.24.16.61.61,0,0,1,.15.24.72.72,0,0,1,.06.29v.12a.57.57,0,0,1,0,.13.53.53,0,0,1,0,.13v.12a.72.72,0,0,1-.06.29.57.57,0,0,1-.14.24.72.72,0,0,1-.25.16.9.9,0,0,1-.34.06,1,1,0,0,1-.35-.06.78.78,0,0,1-.24-.16.7.7,0,0,1-.15-.24.93.93,0,0,1-.05-.29.41.41,0,0,1,0-.12v-.26a.49.49,0,0,1,0-.12"/><path class="cls-1" d="M48.32,11.83a.06.06,0,0,1,0,0,.08.08,0,0,1,0,.05v.2a.08.08,0,0,1,0,.05.06.06,0,0,1,0,0h-.86v.54h.8a.12.12,0,0,1,.08.08V13s0,0,0,0l-.05,0h-.8v.64a.08.08,0,0,1,0,.05.07.07,0,0,1-.06,0h-.21a.07.07,0,0,1-.06,0,.08.08,0,0,1,0-.05V11.9a.08.08,0,0,1,0-.05.07.07,0,0,1,.06,0Z"/><path class="cls-1" d="M51.92,11.83s0,0,0,0a.05.05,0,0,1,0,.05v0l-.64,1.16v.61s0,0,0,.05,0,0,0,0h-.22a.06.06,0,0,1-.05,0,.08.08,0,0,1,0-.05v-.61l-.64-1.16v0s0,0,0-.05,0,0,.05,0h.2l.08,0a.09.09,0,0,1,0,.05l.44.78.44-.78a.09.09,0,0,1,0-.05l.08,0Z"/><path class="cls-1" d="M54,12.57a.43.43,0,0,0-.13-.31.39.39,0,0,0-.3-.11.37.37,0,0,0-.3.11.43.43,0,0,0-.13.31V13a.46.46,0,0,0,.13.31.4.4,0,0,0,.3.1.42.42,0,0,0,.3-.1A.46.46,0,0,0,54,13v-.47m-1.22,0a.93.93,0,0,1,0-.29A1,1,0,0,1,53,12a.78.78,0,0,1,.24-.16,1,1,0,0,1,.35-.06.9.9,0,0,1,.34.06.6.6,0,0,1,.24.16.61.61,0,0,1,.15.24.72.72,0,0,1,.06.29.49.49,0,0,0,0,.12v.26a.57.57,0,0,0,0,.12.72.72,0,0,1-.06.29.57.57,0,0,1-.14.24.72.72,0,0,1-.25.16.86.86,0,0,1-.34.06,1,1,0,0,1-.35-.06.78.78,0,0,1-.24-.16.7.7,0,0,1-.15-.24.93.93,0,0,1,0-.29s0-.07,0-.12v-.26s0-.08,0-.12"/><path class="cls-1" d="M56.81,11.83s0,0,0,0a.05.05,0,0,1,0,.05V13a1,1,0,0,1,0,.31.58.58,0,0,1-.15.24.6.6,0,0,1-.24.16,1.18,1.18,0,0,1-.68,0,.78.78,0,0,1-.24-.16.57.57,0,0,1-.14-.24,1,1,0,0,1,0-.31V11.9a.08.08,0,0,1,0-.05.06.06,0,0,1,0,0h.22s0,0,0,0,0,0,0,.05V13a.54.54,0,0,0,0,.19.34.34,0,0,0,.09.14.4.4,0,0,0,.13.07.41.41,0,0,0,.16,0,.47.47,0,0,0,.17,0l.13-.07a.47.47,0,0,0,.08-.14.54.54,0,0,0,0-.19V11.9a.05.05,0,0,1,0-.05s0,0,.05,0Z"/><path class="cls-1" d="M58.3,12.7h.39a.55.55,0,0,0,.25,0,.23.23,0,0,0,.09-.21q0-.16-.09-.21a.44.44,0,0,0-.25-.06H58.3Zm.41-.87a.73.73,0,0,1,.51.16.56.56,0,0,1,.17.45.62.62,0,0,1-.09.34A.46.46,0,0,1,59,13l.37.69a0,0,0,0,1,0,0s0,0,0,0h-.27s-.06,0-.08,0l0-.05-.35-.65H58.3v.65s0,0,0,.05,0,0-.05,0H58a.06.06,0,0,1,0,0,.08.08,0,0,1,0-.05V11.9a.08.08,0,0,1,0-.05.06.06,0,0,1,0,0Z"/><path class="cls-1" d="M62.3,11.8a.8.8,0,0,1,.32,0,.71.71,0,0,1,.23.12.75.75,0,0,1,.14.17.64.64,0,0,1,0,.17.08.08,0,0,1,0,0s0,0-.05,0h-.19l-.07,0a.1.1,0,0,1,0,0,.3.3,0,0,0-.13-.12.39.39,0,0,0-.24,0h-.13a.28.28,0,0,0-.11.05.27.27,0,0,0-.08.07.13.13,0,0,0,0,.09.2.2,0,0,0,0,.11.35.35,0,0,0,.09.07l.16,0,.25.06.27.08a.76.76,0,0,1,.2.12.57.57,0,0,1,.11.16.6.6,0,0,1,0,.2.59.59,0,0,1-.05.23.7.7,0,0,1-.15.19.83.83,0,0,1-.25.12,1.15,1.15,0,0,1-.33,0,.86.86,0,0,1-.28,0,.82.82,0,0,1-.25-.1.58.58,0,0,1-.17-.18.41.41,0,0,1-.07-.22s0,0,0,0,0,0,0,0h.26a.1.1,0,0,1,0,.05.35.35,0,0,0,.05.08.22.22,0,0,0,.07.06l.11,0h.33l.13,0a.22.22,0,0,0,.09-.07.15.15,0,0,0,0-.11.13.13,0,0,0,0-.1.23.23,0,0,0-.11-.07L62.39,13l-.27-.06-.23-.08a.52.52,0,0,1-.17-.12.56.56,0,0,1-.1-.15.73.73,0,0,1,0-.22.46.46,0,0,1,.06-.23.49.49,0,0,1,.14-.18.84.84,0,0,1,.23-.12.86.86,0,0,1,.28,0"/><path class="cls-1" d="M64.93,12.82l.51-.92,0,0a.1.1,0,0,1,.08,0h.18s0,0,.05,0a.05.05,0,0,1,0,.05v1.8a.05.05,0,0,1,0,.05s0,0-.05,0h-.22a.06.06,0,0,1,0,0,.08.08,0,0,1,0-.05V12.61l-.35.63,0,0a.06.06,0,0,1-.06,0h-.14a.09.09,0,0,1-.06,0l0,0-.35-.63V13.7a.08.08,0,0,1,0,.05.06.06,0,0,1,0,0h-.22s0,0-.05,0,0,0,0-.05V11.9s0,0,0-.05,0,0,.05,0h.18s.07,0,.08,0l0,0Z"/><path class="cls-1" d="M67,13.77a.07.07,0,0,1-.06,0,.08.08,0,0,1,0-.05V11.9a.08.08,0,0,1,0-.05.07.07,0,0,1,.06,0h.21s0,0,0,0a.05.05,0,0,1,0,.05v1.8a.05.05,0,0,1,0,.05s0,0,0,0Z"/><path class="cls-1" d="M69.57,13.43a.06.06,0,0,1,.05,0,.08.08,0,0,1,0,.05v.2a.08.08,0,0,1,0,.05.06.06,0,0,1-.05,0H68.39s0,0,0,0a.05.05,0,0,1,0-.05V11.9a.05.05,0,0,1,0-.05s0,0,0,0h.21a.07.07,0,0,1,.06,0,.08.08,0,0,1,0,.05v1.53Z"/><path class="cls-1" d="M71.8,13.43s0,0,0,0,0,0,0,.05v.2s0,0,0,.05,0,0,0,0H70.62s0,0-.05,0,0,0,0-.05V11.9s0,0,0-.05,0,0,.05,0h1.16s0,0,0,0,0,0,0,.05v.2s0,0,0,.05,0,0,0,0h-.87v.45h.81s0,0,0,0,0,0,0,0v.2s0,0,0,0,0,0,0,0h-.81v.47Z"/><path class="cls-1" d="M18.34,2V4.43h2a2.09,2.09,0,0,0,.9-.15,1,1,0,0,0,.54-1,1.12,1.12,0,0,0-.52-1.1A1.79,1.79,0,0,0,20.42,2ZM22.23.67a2.33,2.33,0,0,1,.85.63,2.93,2.93,0,0,1,.45.76A2.59,2.59,0,0,1,23.7,3a2.64,2.64,0,0,1-.33,1.26,1.76,1.76,0,0,1-1.07.88,1.76,1.76,0,0,1,.89.71,3,3,0,0,1,.26,1.41v.61a4,4,0,0,0,.05.84.73.73,0,0,0,.35.51v.23H21.77c-.06-.2-.1-.36-.13-.49a4.9,4.9,0,0,1-.08-.77V7.36a1.73,1.73,0,0,0-.3-1.15,1.52,1.52,0,0,0-1.07-.29H18.34V9.46H16.5v-9h4.31a3.91,3.91,0,0,1,1.42.23"/><path class="cls-1" d="M26.47,2.79v4a2.13,2.13,0,0,0,.14.86.94.94,0,0,0,.93.5,1.22,1.22,0,0,0,1.22-.72,2.66,2.66,0,0,0,.17-1V2.79h1.76V9.46H29V8.52l-.12.18a1.49,1.49,0,0,1-.23.27,2.63,2.63,0,0,1-.79.5,2.74,2.74,0,0,1-.9.14,2,2,0,0,1-2-1.07,4.11,4.11,0,0,1-.28-1.73v-4Z"/><path class="cls-1" d="M31.09,4.09V2.85H32V1h1.72V2.85h1.09V4.09H33.74V7.62a.79.79,0,0,0,.11.51,1.21,1.21,0,0,0,.63.1h.35v1.3l-.83,0a2.19,2.19,0,0,1-1.69-.43A1.3,1.3,0,0,1,32,8.2V4.09Z"/><path class="cls-1" d="M40.11,2.83a2,2,0,0,1,.83.65,1.79,1.79,0,0,1,.33.77,9.6,9.6,0,0,1,.06,1.29V9.46H39.55V5.4a1.82,1.82,0,0,0-.18-.87.92.92,0,0,0-.9-.47,1.23,1.23,0,0,0-1,.47,2.08,2.08,0,0,0-.35,1.32V9.46H35.33v-9h1.75V3.65A2.22,2.22,0,0,1,38,2.84a2.5,2.5,0,0,1,1-.23,2.7,2.7,0,0,1,1.12.22"/><path class="cls-1" d="M42.38,2.79h1.77V9.46H42.38ZM44.15,2H42.38V.39h1.77Z"/><path class="cls-1" d="M50.6,3.17A2.2,2.2,0,0,1,51.26,5V9.46H49.47V5.4a1.85,1.85,0,0,0-.14-.8,1,1,0,0,0-1-.52,1.21,1.21,0,0,0-1.21.75,2.71,2.71,0,0,0-.17,1V9.46H45.24V2.8h1.69v1A2.73,2.73,0,0,1,47.56,3a2.2,2.2,0,0,1,1.36-.41,2.57,2.57,0,0,1,1.68.54"/><path class="cls-1" d="M52.29,2.79h1.77V9.46H52.29ZM54.06,2H52.29V.39h1.77Z"/><path class="cls-1" d="M56.87,2.79v4a2.15,2.15,0,0,0,.13.86.94.94,0,0,0,.93.5,1.22,1.22,0,0,0,1.22-.72,2.66,2.66,0,0,0,.17-1V2.79h1.77V9.46h-1.7V8.52l-.12.18A1.18,1.18,0,0,1,59,9a2.52,2.52,0,0,1-.79.5,2.64,2.64,0,0,1-.89.14,2,2,0,0,1-2-1.07,4.09,4.09,0,0,1-.29-1.73v-4Z"/><path class="cls-1" d="M70.49,2.82a1.92,1.92,0,0,1,.77.59,1.88,1.88,0,0,1,.38.86,6.09,6.09,0,0,1,.06,1v4.2H69.91V5.21a1.27,1.27,0,0,0-.13-.62.86.86,0,0,0-.85-.47,1,1,0,0,0-1,.6,2,2,0,0,0-.14.77v4H66v-4a2.24,2.24,0,0,0-.12-.86.84.84,0,0,0-.86-.49,1,1,0,0,0-1,.49,1.75,1.75,0,0,0-.14.82v4H62.14V2.8h1.69v1A2.74,2.74,0,0,1,64.44,3a2.06,2.06,0,0,1,1.32-.4A2.14,2.14,0,0,1,67,3a2,2,0,0,1,.57.8,2.2,2.2,0,0,1,.85-.86,2.65,2.65,0,0,1,1.2-.28,2.26,2.26,0,0,1,.87.18"/><path class="cls-1" d="M72.87,2.12a.37.37,0,0,0-.16,0h-.07v.31h.11a.21.21,0,0,0,.15,0A.15.15,0,0,0,73,2.24a.12.12,0,0,0-.09-.12m-.5.87V1.91h.51a.46.46,0,0,1,.21.05.29.29,0,0,1,.14.26.28.28,0,0,1-.07.2.4.4,0,0,1-.19.07l.15.06a.34.34,0,0,1,.1.25V3H73s0-.09,0-.15,0-.11,0-.13,0-.07-.08-.08a.22.22,0,0,0-.1,0h-.12V3Zm-.14-1.11a.76.76,0,0,0-.23.56.82.82,0,0,0,.23.58.76.76,0,0,0,1.11,0,.82.82,0,0,0,.23-.58.8.8,0,0,0-.23-.56.76.76,0,0,0-1.11,0m1.22,1.26a.87.87,0,0,1-.66.28.9.9,0,0,1-.68-.28.94.94,0,0,1-.28-.7,1,1,0,0,1,1-1,.92.92,0,0,1,.67.29.93.93,0,0,1,.28.68,1,1,0,0,1-.29.7"/><path class="cls-1" d="M12.21,7.49h-2a5.8,5.8,0,0,0-1.33-4A5.16,5.16,0,0,0,4.91,2.12v-2A7,7,0,0,1,10.25,2a7.58,7.58,0,0,1,2,5.46m-1,6.14a.91.91,0,1,1,.91-.9.9.9,0,0,1-.91.9M9.4,11.82a.91.91,0,1,1,.91-.91.9.9,0,0,1-.91.91M7.55,9.94a.91.91,0,0,1,0-1.81.91.91,0,1,1,0,1.81m-1.78-2A.91.91,0,1,1,6.68,7a.91.91,0,0,1-.91.91M0,14H14V0H0Z"/></g></g></svg>