<svg id="Capa_1" data-name="Capa 1" xmlns="http://www.w3.org/2000/svg" viewBox="0 0 135 46"><defs><style>.cls-1{fill:#2497d0;}.cls-2{fill:#d80f3b;}</style></defs><path class="cls-1" d="M22.5,21v-.8h1.23V18.91a2.73,2.73,0,0,1,.4-1.56,1.53,1.53,0,0,1,1.36-.58,2.82,2.82,0,0,1,.42,0l.38,0v.88a2.51,2.51,0,0,0-.57-.08,1.06,1.06,0,0,0-.58.14.75.75,0,0,0-.3.36,1.36,1.36,0,0,0-.12.5,5.44,5.44,0,0,0,0,.57v1h1.6V21h-1.6v7.48h-1V21Z"/><path class="cls-1" d="M28.79,28.51h-1V20.23h1v1.55h0a2.87,2.87,0,0,1,1-1.39A3.15,3.15,0,0,1,31.52,20v1a2.81,2.81,0,0,0-1.34.26,2.21,2.21,0,0,0-.84.73,2.91,2.91,0,0,0-.43,1.1,7,7,0,0,0-.12,1.32Z"/><path class="cls-1" d="M36.92,23.68l.65-.09a3,3,0,0,0,.61-.18.51.51,0,0,0,.3-.38,2.8,2.8,0,0,0,.05-.48,1.61,1.61,0,0,0-.47-1.21,2.16,2.16,0,0,0-1.59-.47,5.05,5.05,0,0,0-.91.08,1.92,1.92,0,0,0-.73.31,1.57,1.57,0,0,0-.51.57,2.5,2.5,0,0,0-.27.91h-1a3,3,0,0,1,.33-1.26,2.56,2.56,0,0,1,.75-.85,3.16,3.16,0,0,1,1.05-.48A5.28,5.28,0,0,1,36.49,20a4.93,4.93,0,0,1,1.17.14,2.63,2.63,0,0,1,1,.43,2,2,0,0,1,.64.79,2.8,2.8,0,0,1,.23,1.22v4.51c0,.37.07.61.2.71s.41.08.81-.07v.75l-.33.1a1.67,1.67,0,0,1-.85,0,.76.76,0,0,1-.39-.15,1,1,0,0,1-.23-.29,1.09,1.09,0,0,1-.12-.36,3,3,0,0,1,0-.43,4.3,4.3,0,0,1-1.39,1,4.2,4.2,0,0,1-1.7.35,3.7,3.7,0,0,1-1.05-.15,2.43,2.43,0,0,1-.88-.44,2.22,2.22,0,0,1-.61-.75,2.26,2.26,0,0,1-.23-1c0-1.4,1-2.24,2.9-2.49Zm1.61.48a4.9,4.9,0,0,1-1.23.34l-1.25.13a3.47,3.47,0,0,0-1.72.49,1.43,1.43,0,0,0-.61,1.27,1.4,1.4,0,0,0,.15.66,1.27,1.27,0,0,0,.4.46,1.6,1.6,0,0,0,.57.28,2.51,2.51,0,0,0,.67.08,4.19,4.19,0,0,0,1.12-.14,3.17,3.17,0,0,0,1-.44,2.33,2.33,0,0,0,.68-.75,2.21,2.21,0,0,0,.25-1.08Z"/><path class="cls-1" d="M43,28.51H42V20.23h1v1.15a5.64,5.64,0,0,1,1.19-1A2.7,2.7,0,0,1,45.64,20a3.7,3.7,0,0,1,1.42.27,2.38,2.38,0,0,1,1.11.92,2.06,2.06,0,0,1,.36.92c0,.31,0,.64,0,1v5.42h-1v-5.4a2.46,2.46,0,0,0-.49-1.68,2.08,2.08,0,0,0-1.65-.56,2.39,2.39,0,0,0-.82.13,2.64,2.64,0,0,0-.66.36,2.46,2.46,0,0,0-.51.51A2.79,2.79,0,0,0,43,23.25c0,.25,0,.51,0,.8Z"/><path class="cls-1" d="M50.84,28.51V17h1v7.17l4.06-3.93h1.32l-3.11,3,3.47,5.29H56.47l-3.1-4.62L51.8,25.38v3.13Z"/><path class="cls-2" d="M63.21,27.29a1.86,1.86,0,0,1-.15.75,1.89,1.89,0,0,1-.42.62,2,2,0,0,1-1.39.57,1.86,1.86,0,0,1-.75-.15,2,2,0,0,1-1-1,1.86,1.86,0,0,1-.15-.75,2,2,0,0,1,.57-1.39,1.89,1.89,0,0,1,.62-.42,1.86,1.86,0,0,1,.75-.15,2,2,0,0,1,2,2Z"/><path class="cls-1" d="M70.07,20.13a2.67,2.67,0,0,1,1,.95V17H73.3v11.5H71.14V27.33a3.13,3.13,0,0,1-1.09,1.11,3.05,3.05,0,0,1-1.52.34A3.16,3.16,0,0,1,66,27.57a4.61,4.61,0,0,1-1-3.1A5.35,5.35,0,0,1,66,21a3.26,3.26,0,0,1,2.68-1.24A2.84,2.84,0,0,1,70.07,20.13Zm.54,6.07a3.08,3.08,0,0,0,.5-1.82,2.79,2.79,0,0,0-.79-2.23,1.73,1.73,0,0,0-1.13-.41,1.56,1.56,0,0,0-1.43.74,3.36,3.36,0,0,0-.46,1.83,3.48,3.48,0,0,0,.46,1.89,1.6,1.6,0,0,0,1.42.7A1.63,1.63,0,0,0,70.61,26.2Z"/><path class="cls-1" d="M81.27,20.17a3.52,3.52,0,0,1,1.48,1.26,4.25,4.25,0,0,1,.67,1.76,10.87,10.87,0,0,1,.08,1.69H77.3a2,2,0,0,0,.89,1.8,2.26,2.26,0,0,0,1.22.32,1.9,1.9,0,0,0,1.24-.39,2.05,2.05,0,0,0,.46-.59h2.27a2.76,2.76,0,0,1-.82,1.54,4.14,4.14,0,0,1-3.21,1.24,4.7,4.7,0,0,1-3-1,4.16,4.16,0,0,1-1.3-3.41A4.59,4.59,0,0,1,76.23,21a4.08,4.08,0,0,1,3-1.18A4.76,4.76,0,0,1,81.27,20.17Zm-3.33,1.92a2.37,2.37,0,0,0-.59,1.32h3.84a1.82,1.82,0,0,0-.6-1.34,1.91,1.91,0,0,0-1.32-.46A1.79,1.79,0,0,0,77.94,22.09Z"/><path class="cls-1" d="M91.89,20.49a2.8,2.8,0,0,1,.84,2.29v5.73H90.45V23.33a2.38,2.38,0,0,0-.18-1A1.26,1.26,0,0,0,89,21.65a1.55,1.55,0,0,0-1.55,1,3.41,3.41,0,0,0-.21,1.29v4.61H85V20H87.2v1.25a3.69,3.69,0,0,1,.8-1,2.85,2.85,0,0,1,1.74-.51A3.26,3.26,0,0,1,91.89,20.49Z"/><path class="cls-1" d="M94.32,21.66V20.08h1.19V17.7h2.2v2.38H99.1v1.58H97.71v4.5a1,1,0,0,0,.14.66,1.53,1.53,0,0,0,.81.12h.44v1.66l-1.06,0a2.76,2.76,0,0,1-2.15-.55,1.61,1.61,0,0,1-.38-1.18V21.66Z"/><path class="cls-1" d="M104.3,23.33a3.47,3.47,0,0,0,.89-.19.68.68,0,0,0,.48-.63.76.76,0,0,0-.37-.73,2.33,2.33,0,0,0-1.08-.2,1.42,1.42,0,0,0-1.13.39,1.63,1.63,0,0,0-.32.79h-2.15a3.29,3.29,0,0,1,.63-1.84,3.66,3.66,0,0,1,3-1.12,5.44,5.44,0,0,1,2.5.55,2.12,2.12,0,0,1,1.09,2.09v3.91c0,.27,0,.6,0,1a1.23,1.23,0,0,0,.13.6.81.81,0,0,0,.33.26v.32h-2.43a3.59,3.59,0,0,1-.14-.48c0-.15,0-.32-.06-.52a4.49,4.49,0,0,1-1.07.86,3.26,3.26,0,0,1-1.63.41,2.8,2.8,0,0,1-1.92-.66,2.33,2.33,0,0,1-.76-1.87A2.44,2.44,0,0,1,101.57,24a5.53,5.53,0,0,1,2-.54Zm1.36,1a2.92,2.92,0,0,1-.43.22,5.19,5.19,0,0,1-.6.15l-.51.09a3.55,3.55,0,0,0-1,.31,1,1,0,0,0-.52.94,1,1,0,0,0,.32.83,1.2,1.2,0,0,0,.78.25,2.34,2.34,0,0,0,1.34-.42,1.77,1.77,0,0,0,.64-1.54Z"/><path class="cls-1" d="M112.5,28.51h-2.23V17h2.23Z"/></svg>