<?xml version="1.0" encoding="utf-8"?>
<!-- Generator: Adobe Illustrator 25.4.1, SVG Export Plug-In . SVG Version: 6.00 Build 0)  -->
<svg version="1.1" id="Capa_1" xmlns="http://www.w3.org/2000/svg" xmlns:xlink="http://www.w3.org/1999/xlink" x="0px" y="0px"
	 viewBox="0 0 135 46" style="enable-background:new 0 0 135 46;" xml:space="preserve">
<style type="text/css">
	.st0{fill:#FFED00;}
</style>
<g>
	<path class="st0" d="M65.8,33.2C61,33,56.5,30.5,54.1,25c-2.6-5.8-0.6-12.4,4.8-16.1C65,4.7,73.6,6.1,78.1,12
		c4.9,6.5,2.7,15.8-4.6,19.6C71.4,32.7,69.2,33.2,65.8,33.2z M66.8,15.9c0,0-3.1,0.2-4.6,0.6c-2.1,0.5-4,1.4-5.4,3.1
		c-1.4,1.6-1.5,3.7-0.1,5.4c0.6,0.7,1.4,1.4,2.3,1.9c1.8,1.1,3.9,1.6,6,1.8c2.9,0.3,5.8,0,8.6-1.2c1.4-0.6,2.7-1.4,3.6-2.6
		c1.2-1.6,1.2-3.4,0-5c-0.7-1-1.7-1.7-2.8-2.2C72,16.3,69.4,15.9,66.8,15.9z M73,16.3c0.5-2.3,1.1-4.6,1.6-6.9
		c0.1-0.4-0.1-0.5-0.5-0.5c-0.7,0-1.4,0-2,0c-0.2,0-0.6,0.3-0.7,0.5c-0.5,1.9-0.9,3.8-1.3,5.8c0,0.1,0.1,0.4,0.3,0.4
		C71.1,15.9,72,16.1,73,16.3z M64.6,15.3c1,0,2,0,3,0c0.1,0,0.2-0.2,0.3-0.3c0.3-1.4,0.6-2.7,0.9-4.1c0.1-0.4-0.1-0.6-0.5-0.6
		c-0.6,0-1.3,0-1.9,0c-0.4,0-0.7,0.2-0.7,0.6c-0.1,0.5-0.2,1-0.4,1.6C65,13.5,64.8,14.4,64.6,15.3z M63,12.9
		C63,12.9,63,12.9,63,12.9c0-0.4,0-0.7,0-1c-0.1-0.3-0.3-0.6-0.5-0.7c-0.7-0.2-1.4,0-2,0.4c-0.4,0.2-0.4,0.5-0.3,0.9
		c0.3,0.6,0.5,1.2,0.8,1.7c0.1,0.2,0.3,0.2,0.4,0.4c0.1-0.2,0.2-0.3,0.2-0.5c0.1-0.2,0.2-0.4,0.2-0.7c0.2,0.2,0.3,0.4,0.5,0.5
		c0,0,0,0.1,0.1,0.1c0.1,0.1,0.2,0.2,0.3,0.2c0.1-0.1,0.2-0.3,0.2-0.4C63,13.5,63,13.2,63,12.9z"/>
	<path class="st0" d="M62.7,24.2c-0.3-0.3-0.6-0.5-0.9-0.8c-1.2-1.3-1.2-2.9,0-4.1c1.1-1.1,2.5-1.7,4-2c2.3-0.5,4.6-0.4,6.7,0.5
		c0.8,0.4,1.7,0.9,2.3,1.5c1.3,1.2,1.2,2.9,0,4.2c-1.1,1.1-2.5,1.7-4,2c-2.4,0.5-4.8,0.3-7.1-0.7C63.4,24.6,63.1,24.4,62.7,24.2
		c0.7,0,1.5,0,2.2,0c0.6,0,0.9-0.2,1-0.8c0.4-1.8,0.8-3.5,1.2-5.3c0-0.2,0.1-0.3,0.1-0.6c-1.1,0-2,0.3-2.9,0.7
		c-0.2,0.1-0.5,0.4-0.5,0.6c-0.4,1.5-0.7,3-1.1,4.6C62.6,23.7,62.7,23.9,62.7,24.2z M69.9,22.8c0.3,0,0.7,0,1,0
		c0.4,0,0.6-0.2,0.7-0.6c0.3-1.2,0.6-2.4,0.8-3.6c0-0.1-0.1-0.4-0.2-0.5c-0.8-0.2-1.6-0.4-2.4-0.6c-0.1,0-0.4,0.2-0.4,0.3
		c-0.4,1.4-0.7,2.9-1,4.4c-0.1,0.4,0.1,0.5,0.4,0.5C69.2,22.8,69.5,22.8,69.9,22.8z"/>
	<g>
		<path class="st0" d="M71.7,35.2c0,1.4,0,2.8,0,4.2c0.4,0,0.8,0,1.2,0c0-0.8,0-1.5,0-2.4c0.1,0.1,0.1,0.1,0.2,0.2
			c0.5,0.7,1.1,1.4,1.6,2c0,0.1,0.1,0.1,0.2,0.1c0.3,0,0.7,0,1,0c0-1.4,0-2.8,0-4.2c-0.4,0-0.8,0-1.2,0c0,0.8,0,1.5,0,2.3
			c-0.1-0.1-0.1-0.1-0.2-0.2c-0.5-0.7-1.1-1.4-1.6-2c0-0.1-0.1-0.1-0.2-0.1C72.4,35.2,72.1,35.2,71.7,35.2z"/>
		<path class="st0" d="M62,35.2c0,1.4,0,2.8,0,4.2c0.4,0,0.8,0,1.2,0c0-0.5,0-1.1,0-1.6c0.5,0,1,0,1.5,0c0,0.5,0,1.1,0,1.6
			c0.4,0,0.8,0,1.2,0c0-1.4,0-2.8,0-4.2c-0.4,0-0.8,0-1.3,0c0,0.5,0,1,0,1.6c-0.5,0-1,0-1.5,0c0-0.5,0-1,0-1.6
			C62.8,35.2,62.4,35.2,62,35.2z"/>
		<path class="st0" d="M80.7,36.5c-0.1-0.2-0.2-0.4-0.4-0.6c-0.7-1-2.4-0.9-3.2-0.2c-0.6,0.5-0.8,1.2-0.7,2c0.1,0.8,0.5,1.4,1.2,1.7
			c1,0.4,2,0.2,2.9-0.3c0,0,0.1-0.1,0.1-0.2c0-0.4,0-0.9,0-1.3c0-0.1,0-0.3,0-0.4c-0.7,0-1.3,0-1.9,0c0,0.3,0,0.6,0,0.9
			c0.3,0,0.5,0,0.8,0c0,0.1,0,0.2,0,0.3c0,0.2,0,0.2-0.2,0.3c-0.2,0-0.5,0-0.7,0c-0.3,0-0.6-0.2-0.7-0.5c-0.2-0.4-0.2-0.8-0.1-1.2
			c0.1-0.4,0.4-0.6,0.7-0.7c0.4-0.1,0.6,0.1,0.9,0.5C79.8,36.6,80.2,36.5,80.7,36.5z"/>
		<path class="st0" d="M54.6,39.4c0.4,0,0.8,0,1.3,0c0-0.5,0-1,0-1.5c0-0.1,0-0.3,0.1-0.4c0.5-0.7,1-1.4,1.4-2.2
			c0-0.1,0.1-0.1,0.1-0.2c-0.4,0-0.7,0-1.1,0c-0.2,0-0.3,0.1-0.4,0.2c-0.2,0.4-0.5,0.8-0.8,1.2c-0.3-0.5-0.6-0.9-0.8-1.3
			c0-0.1-0.1-0.1-0.2-0.1c-0.4,0-0.9,0-1.3,0c0.1,0.1,0.1,0.1,0.1,0.2c0.5,0.7,1,1.4,1.4,2.1c0.1,0.1,0.1,0.2,0.1,0.4
			C54.7,38.4,54.6,38.9,54.6,39.4z"/>
		<path class="st0" d="M61.6,39.4c0-0.1,0-0.1,0-0.1c-0.5-1.3-1.1-2.6-1.6-3.9c0-0.1-0.1-0.1-0.2-0.1c-0.3,0-0.7,0-1,0
			c-0.1,0-0.2,0.1-0.3,0.2c-0.5,1.3-1,2.6-1.6,3.9c0,0,0,0.1,0,0.2c0.4,0,0.7,0,1.1,0c0.1,0,0.1-0.1,0.2-0.1
			c0.1-0.2,0.2-0.4,0.2-0.6c0-0.1,0.1-0.1,0.2-0.1c0.4,0,0.9,0,1.3,0c0.1,0,0.2,0,0.2,0.1c0.1,0.2,0.1,0.4,0.2,0.6
			c0,0,0.1,0.1,0.1,0.1C60.8,39.4,61.2,39.4,61.6,39.4z M59.6,37.6c-0.3,0-0.6,0-0.9,0c0.1-0.4,0.3-0.7,0.4-1.2
			C59.4,36.9,59.5,37.2,59.6,37.6z"/>
		<path class="st0" d="M70.6,37.8c-0.2-0.3-0.6-0.5-0.8-0.5c0,0.1,0,0.3-0.1,0.4c-0.1,0.7-0.6,0.9-1.3,0.7c-0.3-0.1-0.4-0.2-0.5-0.5
			c-0.2-0.4-0.2-0.8,0-1.3c0.1-0.4,0.5-0.7,0.9-0.6c0.2,0,0.4,0,0.5,0.1c0.3,0.1,0.5,0.3,0.7,0.6c0.3,0.3,0.5,0.6,0.7,0.9
			c0.1,0.1,0.1,0.2,0.2,0.4c0.1-0.2,0.1-0.4,0.1-0.7c0-1.2-0.8-2.2-2.1-2.2c-1.4,0-2.3,0.8-2.4,2c-0.1,1.4,0.8,2.3,2.1,2.3
			c1.1,0,1.9-0.4,2.2-1.2C70.8,38.1,70.7,38,70.6,37.8z"/>
	</g>
</g>
</svg>
