<?xml version="1.0" encoding="utf-8"?>
<!-- Generator: Adobe Illustrator 25.4.1, SVG Export Plug-In . SVG Version: 6.00 Build 0)  -->
<svg version="1.1" id="Capa_1" xmlns="http://www.w3.org/2000/svg" xmlns:xlink="http://www.w3.org/1999/xlink" x="0px" y="0px"
	 viewBox="0 0 135 46" style="enable-background:new 0 0 135 46;" xml:space="preserve">
<style type="text/css">
	.st0{fill:#38444E;}
	.st1{fill:#E64860;}
	.st2{fill:#808791;}
	.st3{clip-path:url(#SVGID_00000176039094825904167980000007576776385119233426_);fill:#E64860;}
	.st4{fill:none;stroke:#E64860;stroke-width:0.6287;stroke-miterlimit:10;}
	.st5{fill:#194374;}
	.st6{fill:#00659B;}
	.st7{fill:#DC0D6E;}
	.st8{fill:#004D80;}
	.st9{fill:#7EA9D6;}
	.st10{fill:#B6D4EF;}
	.st11{fill:#058DC7;}
	.st12{fill:#00559F;}
	.st13{fill:#134A83;}
	.st14{fill:#B51975;}
	.st15{fill:#2497D0;}
	.st16{fill:#D80F3B;}
	.st17{fill:#9BC338;}
	.st18{fill:#008541;}
	.st19{fill:#9DC438;}
	
		.st20{clip-path:url(#SVGID_00000074418522274844006320000005431864651384029312_);fill:url(#SVGID_00000028293699800429704460000011729077193877261196_);}
	
		.st21{clip-path:url(#SVGID_00000183244719983267797130000012336649999037387423_);fill:url(#SVGID_00000025425468421479368320000018181631785429824667_);}
	
		.st22{clip-path:url(#SVGID_00000132083078978789871580000002041483475609812896_);fill:url(#SVGID_00000108296536630863420880000015672840065818598847_);}
	.st23{fill:#F9BE12;}
	.st24{clip-path:url(#SVGID_00000145060730806411573790000012768745940654234541_);}
	.st25{clip-path:url(#SVGID_00000114778364777059783350000013856163689785455277_);}
	.st26{clip-path:url(#SVGID_00000158734483885179801850000007663381196910226600_);}
	.st27{clip-path:url(#SVGID_00000070091755539929021400000016932561337679713449_);}
	.st28{clip-path:url(#SVGID_00000156571659281427178980000002518500907584526515_);}
	.st29{clip-path:url(#SVGID_00000012448563522184781530000008527434192556915341_);}
	.st30{clip-path:url(#SVGID_00000005957076476844976320000007268557436460722829_);}
	.st31{clip-path:url(#SVGID_00000093866283407418966460000016499008177065992846_);}
	.st32{clip-path:url(#SVGID_00000132798384054658672480000009558192508808274598_);}
	
		.st33{clip-path:url(#SVGID_00000034065282482914228960000010146497480283718017_);fill:url(#SVGID_00000160904744296148038950000003686149687367227301_);}
	.st34{clip-path:url(#SVGID_00000089564544528015895580000003443761399262622369_);}
	.st35{clip-path:url(#SVGID_00000041987845276007509550000016029085689705950859_);}
	.st36{clip-path:url(#SVGID_00000103264962700559345310000011859208766058228670_);}
	.st37{clip-path:url(#SVGID_00000118398673676901797440000004687665929326204290_);}
	.st38{clip-path:url(#SVGID_00000060736217780659229830000007509048217599488421_);}
	.st39{clip-path:url(#SVGID_00000124859912693618999180000002689955418406791338_);}
	.st40{fill:#009BDA;}
	.st41{fill:#CE1620;}
	.st42{fill:#171915;}
	.st43{fill:#E30750;}
	.st44{fill:#5775B5;}
	.st45{fill:none;stroke:#5775B5;stroke-width:0.5802;}
	.st46{fill:#5A595C;}
	.st47{fill:#FFFFFF;}
	.st48{fill:#364F8F;}
	.st49{fill:none;stroke:#364F8F;stroke-width:0.3873;}
	.st50{fill:none;stroke:#364F8F;stroke-width:1.3345;stroke-linecap:round;}
	.st51{fill:#656362;}
	.st52{fill:#C8D44A;}
	.st53{fill:#E42E38;}
	.st54{fill:none;stroke:#FFFFFF;stroke-width:0.4523;stroke-miterlimit:10;}
	.st55{fill:#51B054;}
	.st56{fill:#0079BB;}
	.st57{fill:#086EB0;}
	.st58{fill:#99A4AB;}
	.st59{fill:#B2A7A5;}
	.st60{fill:#931340;}
	.st61{fill:#DFDCD9;}
	.st62{fill:#27A1D7;}
	.st63{fill:none;stroke:#000000;stroke-width:0.1494;stroke-linejoin:bevel;stroke-miterlimit:22.926;}
	.st64{fill:none;stroke:#000000;stroke-width:0.1585;stroke-miterlimit:22.926;}
	.st65{fill:#EA3D36;stroke:#ED1C24;stroke-width:0.1417;stroke-linejoin:round;}
	.st66{fill:#EA3D36;}
</style>
<g>
	<path class="st65" d="M17.1,19.7c-0.1,0-0.1,0.1-0.2,0.1l5-1.6c-0.1,0-0.2,0-0.2,0L17.1,19.7z"/>
	<path class="st65" d="M16,20.7l7.2-2.3c0,0-0.1,0-0.1,0l-7,2.2C16.1,20.6,16.1,20.7,16,20.7z"/>
	<path class="st65" d="M15.5,21.5l8.8-2.8c0,0-0.1,0-0.1,0L15.5,21.5C15.5,21.5,15.5,21.5,15.5,21.5z"/>
	<path class="st65" d="M15.1,22.3l9.9-3.1c0,0-0.1,0-0.1-0.1L15.1,22.3C15.1,22.2,15.1,22.2,15.1,22.3z"/>
	<path class="st65" d="M14.8,23l10.9-3.4c0,0-0.1,0-0.1-0.1L14.8,23C14.8,22.9,14.8,23,14.8,23z"/>
	<path class="st65" d="M19,22.2l-4.4,1.4c0,0,0,0.1,0,0.1l4.3-1.4C18.9,22.3,18.9,22.3,19,22.2z"/>
	<polygon class="st65" points="30.4,18.6 29.4,18.9 29.4,19 30.6,18.6 	"/>
	<path class="st65" d="M22.2,21.3l4-1.3c0,0,0,0-0.1-0.1L22,21.3C22.1,21.3,22.1,21.3,22.2,21.3z"/>
	<path class="st65" d="M23.1,21.6l3.5-1.1c0,0,0,0,0-0.1L23.1,21.6C23.1,21.6,23.1,21.6,23.1,21.6z"/>
	<path class="st65" d="M18.4,23l-4,1.3c0,0,0,0.1,0,0.1L18.4,23C18.4,23.1,18.4,23.1,18.4,23z"/>
	<polygon class="st65" points="32.4,18.6 29.4,19.6 29.4,19.6 32.5,18.7 32.5,18.6 	"/>
	<path class="st65" d="M23.7,22.1l3.3-1c0,0,0,0,0-0.1L23.7,22.1C23.7,22,23.7,22,23.7,22.1z"/>
	<path class="st65" d="M18.1,23.7l-3.8,1.2c0,0,0,0.1,0,0.1L18.1,23.7C18.1,23.8,18.1,23.8,18.1,23.7z"/>
	<polygon class="st65" points="29.4,20.2 29.4,20.3 32.6,19.3 32.6,19.2 	"/>
	<path class="st65" d="M37.5,18.2l-3.6,1.1c0,0-0.1,0.1-0.1,0.1l4-1.3C37.7,18.3,37.6,18.3,37.5,18.2z"/>
	<path class="st65" d="M24.1,22.6l3.3-1c0,0,0,0,0-0.1L24.1,22.6C24.1,22.5,24.1,22.5,24.1,22.6z"/>
	<path class="st65" d="M18,24.4l-3.8,1.2c0,0,0,0.1,0,0.1L18,24.4C18,24.5,18,24.4,18,24.4z"/>
	<polygon class="st65" points="29.4,20.8 29.4,20.9 32.7,19.9 32.7,19.8 	"/>
	<path class="st65" d="M18.7,24.8l-4.4,1.4c0,0,0,0.1,0,0.1l4.7-1.5H18.7z"/>
	<path class="st65" d="M24.4,23.1l3.3-1c0,0,0,0,0-0.1L24.4,23.1C24.4,23.1,24.4,23.1,24.4,23.1z"/>
	<polygon class="st65" points="29.4,21.4 29.4,21.5 32.8,20.5 32.8,20.4 	"/>
	<path class="st65" d="M38.9,18.5l-5.8,1.8c0,0,0,0.1-0.1,0.1l6-1.9C39,18.5,38.9,18.5,38.9,18.5z"/>
	<path class="st65" d="M29.4,22.1l10.4-3.3c0,0-0.1,0-0.1,0L29.4,22.1L29.4,22.1z"/>
	<path class="st65" d="M20.7,24.8l-6.4,2c0,0,0,0.1,0,0.1l6.6-2.1H20.7z"/>
	<path class="st65" d="M24.6,23.7l3.3-1c0,0,0,0,0-0.1L24.6,23.7C24.6,23.6,24.6,23.7,24.6,23.7z"/>
	<path class="st65" d="M29.4,22.8l11.1-3.5c0,0,0,0-0.1-0.1L29.4,22.8L29.4,22.8z"/>
	<path class="st65" d="M22.6,24.8l-8.3,2.6c0,0,0,0,0,0.1l8.6-2.7H22.6z"/>
	<path class="st65" d="M24.7,24.3l3.4-1.1c0,0,0,0,0-0.1L24.7,24.3C24.7,24.2,24.7,24.2,24.7,24.3z"/>
	<path class="st65" d="M45.2,18.3l-1.4,0.5c-0.1,0.1-0.2,0.1-0.4,0.2l2.2-0.7C45.5,18.3,45.4,18.3,45.2,18.3"/>
	<path class="st65" d="M29.4,23.4L41,19.8c0,0,0,0-0.1-0.1L29.4,23.4L29.4,23.4z"/>
	<path class="st65" d="M14.4,28.1C14.4,28.1,14.4,28.1,14.4,28.1l13.8-4.3c0,0,0,0,0-0.1L14.4,28.1z"/>
	<path class="st65" d="M29.4,24l4.6-1.5c0,0,0.1-0.1,0.1-0.1L29.4,24L29.4,24z"/>
	<path class="st65" d="M37.1,21.6l4.3-1.3c0,0,0,0,0-0.1L37,21.6C37,21.6,37.1,21.6,37.1,21.6z"/>
	<path class="st65" d="M47.3,18.3l-5,1.6c0,0-0.1,0.1-0.1,0.1l5.3-1.7C47.4,18.3,47.4,18.3,47.3,18.3"/>
	<path class="st65" d="M14.5,28.7l13.8-4.4c0,0,0-0.1,0-0.1L14.5,28.7C14.5,28.7,14.5,28.7,14.5,28.7z"/>
	<path class="st65" d="M29.4,24.7l4.2-1.3c0,0,0-0.1,0-0.1L29.4,24.7L29.4,24.7z"/>
	<path class="st65" d="M14.7,29.3l3.4-1.1c0,0,0-0.1,0-0.1L14.7,29.3C14.6,29.3,14.7,29.3,14.7,29.3z"/>
	<path class="st65" d="M37.8,22l10.7-3.4c0,0-0.1,0-0.1,0l-6.7,2.1c0,0,0,0,0,0.1c0,0,0,0,0-0.1L37.8,22C37.8,22,37.8,22,37.8,22z"
		/>
	<path class="st65" d="M20.3,27.5l8.1-2.6c0,0,0-0.1,0-0.1L20,27.5H20.3z"/>
	<path class="st65" d="M29.4,25.3l3.9-1.2c0,0,0-0.1,0-0.1L29.4,25.3L29.4,25.3z"/>
	<path class="st65" d="M14.9,29.9l3.3-1c0,0,0,0,0-0.1L14.9,29.9C14.8,29.8,14.8,29.9,14.9,29.9z"/>
	<path class="st65" d="M38.2,22.5L49.3,19c0,0-0.1,0-0.1-0.1L38.2,22.5C38.2,22.5,38.2,22.5,38.2,22.5z"/>
	<path class="st65" d="M22.3,27.5l6.2-2c0,0,0-0.1,0-0.1l-6.4,2H22.3z"/>
	<path class="st65" d="M24.2,27.5l4.2-1.3c0,0,0-0.1,0-0.1L24,27.5H24.2z"/>
	<path class="st65" d="M15.1,30.4l3.3-1c0,0,0,0,0-0.1L15.1,30.4C15.1,30.4,15.1,30.4,15.1,30.4z"/>
	<path class="st65" d="M38.4,23.1l11.4-3.6c0,0,0,0-0.1-0.1L38.4,23.1C38.4,23,38.4,23,38.4,23.1z"/>
	<path class="st65" d="M29.4,25.9l3.8-1.2c0,0,0-0.1,0-0.1L29.4,25.9L29.4,25.9z"/>
	<path class="st65" d="M45.3,21.5c0,0,0.1,0,0.1,0l4.9-1.5c0,0,0,0,0-0.1l-5.1,1.6C45.2,21.5,45.2,21.5,45.3,21.5"/>
	<path class="st65" d="M26.2,27.5l2.2-0.7c0,0,0-0.1,0-0.1L26,27.5H26.2z"/>
	<path class="st65" d="M15.4,31l3.3-1c0,0,0,0,0-0.1L15.4,31C15.3,30.9,15.4,30.9,15.4,31z"/>
	<path class="st65" d="M29.4,26.5l3.7-1.2c0,0,0-0.1,0-0.1L29.4,26.5L29.4,26.5z"/>
	<path class="st65" d="M38.5,23.7l5.2-1.6c0.1,0,0.1-0.1,0.2-0.1L38.5,23.7C38.5,23.6,38.5,23.6,38.5,23.7z"/>
	<polygon class="st65" points="29.4,27.2 33.1,26 33.1,25.9 29.4,27.1 	"/>
	<path class="st65" d="M46.6,21.8l4-1.3c0,0,0,0,0-0.1L46.6,21.8C46.5,21.7,46.6,21.7,46.6,21.8z"/>
	<path class="st65" d="M15.7,31.5l3.3-1.1c0,0,0,0-0.1-0.1L15.7,31.5C15.7,31.4,15.7,31.5,15.7,31.5z"/>
	<path class="st65" d="M28.2,27.5l0.2-0.1c0,0,0-0.1,0-0.1L28,27.5H28.2z"/>
	<path class="st65" d="M38.6,24.3l4.4-1.4c0,0,0-0.1,0.1-0.1L38.6,24.3C38.6,24.2,38.6,24.3,38.6,24.3z"/>
	<path class="st65" d="M16.1,32l3.5-1.1c0,0,0,0-0.1-0.1L16.1,32C16,32,16.1,32,16.1,32z"/>
	<polygon class="st65" points="29.4,27.8 33.1,26.6 33.1,26.6 29.4,27.7 	"/>
	<path class="st65" d="M38.6,24.9l4-1.3c0,0,0-0.1,0-0.1L38.6,24.9L38.6,24.9z"/>
	<path class="st65" d="M47.1,22.2l3.8-1.2c0,0,0,0,0-0.1L47.1,22.2C47.1,22.2,47.1,22.2,47.1,22.2z"/>
	<path class="st65" d="M38.6,25.5l3.8-1.2c0,0,0-0.1,0-0.1L38.6,25.5L38.6,25.5z"/>
	<path class="st65" d="M16.5,32.5l3.8-1.2c0,0-0.1,0-0.1,0L16.5,32.5C16.5,32.4,16.5,32.5,16.5,32.5z"/>
	<path class="st65" d="M25.8,29.5L24.3,30c0,0,0,0.1,0,0.1l1.8-0.6H25.8z"/>
	<path class="st65" d="M47.4,22.7l3.7-1.2c0,0,0,0,0-0.1L47.4,22.7C47.4,22.7,47.4,22.7,47.4,22.7z"/>
	<polygon class="st65" points="29.4,28.4 33.1,27.3 33.1,27.2 29.4,28.3 	"/>
	<polygon class="st65" points="29.4,29 33.1,27.9 33.1,27.8 29.4,29 	"/>
	<path class="st65" d="M47.6,23.3l3.6-1.2c0,0,0,0,0-0.1L47.6,23.3C47.6,23.3,47.6,23.3,47.6,23.3z"/>
	<path class="st65" d="M17,33l4.5-1.4c0,0,0,0-0.1,0c-0.1,0-0.1,0-0.2,0L17,33C17,32.9,17,32.9,17,33z"/>
	<path class="st65" d="M27.8,29.5l-4,1.3c0,0,0,0,0,0c0,0-0.1,0.1-0.1,0.1l4.4-1.4H27.8z"/>
	<path class="st65" d="M38.6,26.2l3.7-1.2c0,0,0-0.1,0-0.1L38.6,26.2L38.6,26.2z"/>
	<path class="st65" d="M38.6,26.8l3.7-1.2c0,0,0-0.1,0-0.1L38.6,26.8L38.6,26.8z"/>
	<path class="st65" d="M17.6,33.4l10.3-3.2c0,0,0-0.1,0-0.1L17.6,33.4C17.6,33.4,17.6,33.4,17.6,33.4z"/>
	<polygon class="st65" points="29.4,29.7 33.1,28.5 33.1,28.4 29.4,29.6 	"/>
	<path class="st65" d="M47.7,23.9l3.7-1.2c0,0,0-0.1,0-0.1L47.7,23.9C47.7,23.9,47.7,23.9,47.7,23.9z"/>
	<path class="st65" d="M47.7,24.5L47.7,24.5l3.7-1.1c0,0,0-0.1,0-0.1L47.7,24.5L47.7,24.5z"/>
	<polygon class="st65" points="38.6,27.4 42.3,26.3 42.3,26.2 38.6,27.3 	"/>
	<polygon class="st65" points="29.4,30.3 33.1,29.1 33.1,29.1 29.4,30.2 	"/>
	<path class="st65" d="M18.3,33.8l9.3-2.9c0,0,0-0.1,0-0.1L18.3,33.8C18.3,33.8,18.3,33.8,18.3,33.8z"/>
	<polygon class="st65" points="29.4,30.9 33.1,29.8 33.1,29.7 29.4,30.9 	"/>
	<path class="st65" d="M19.2,34.2l8.1-2.5c0,0,0-0.1,0.1-0.1l-8.3,2.6C19.1,34.1,19.1,34.1,19.2,34.2z"/>
	<polygon class="st65" points="47.7,25.2 51.4,24 51.4,23.9 47.7,25.1 	"/>
	<polygon class="st65" points="38.6,28 42.3,26.9 42.3,26.8 38.6,28 	"/>
	<polygon class="st65" points="47.7,25.8 51.4,24.6 51.4,24.6 47.7,25.7 	"/>
	<path class="st65" d="M20.3,34.4l6.4-2c0,0,0.1-0.1,0.1-0.1c0,0,0,0,0,0l-6.6,2.1C20.2,34.4,20.3,34.4,20.3,34.4z"/>
	<polygon class="st65" points="29.4,31.6 33.1,30.4 33.1,30.3 29.4,31.5 	"/>
	<polygon class="st65" points="38.6,28.7 42.3,27.5 42.3,27.4 38.6,28.6 	"/>
	<path class="st65" d="M22.1,34.5l3.5-1.1c0.1,0,0.1-0.1,0.2-0.1l-4,1.2C21.9,34.5,22,34.5,22.1,34.5z"/>
	<polygon class="st65" points="29.4,32.2 33.1,31 33.1,30.9 29.4,32.1 	"/>
	<polygon class="st65" points="47.7,26.4 51.4,25.3 51.4,25.2 47.7,26.3 	"/>
	<polygon class="st65" points="38.6,29.3 42.3,28.1 42.3,28.1 38.6,29.2 	"/>
	<polygon class="st65" points="47.7,27.1 51.4,25.9 51.4,25.8 47.7,27 	"/>
	<polygon class="st65" points="29.4,32.8 33.1,31.6 33.1,31.6 29.4,32.7 	"/>
	<polygon class="st65" points="38.6,29.9 42.3,28.8 42.3,28.7 38.6,29.8 	"/>
	<polygon class="st65" points="47.7,27.7 51.4,26.5 51.4,26.4 47.7,27.6 	"/>
	<polygon class="st65" points="29.4,33.4 33.1,32.3 33.1,32.2 29.4,33.4 	"/>
	<polygon class="st65" points="38.6,30.6 42.3,29.4 42.3,29.3 38.6,30.5 	"/>
	<polygon class="st65" points="38.6,31.2 42.3,30 42.3,29.9 38.6,31.1 	"/>
	<polygon class="st65" points="29.4,34.1 33.1,32.9 33.1,32.8 29.4,34 	"/>
	<polygon class="st65" points="47.7,28.3 51.4,27.1 51.4,27.1 47.7,28.2 	"/>
	<polygon class="st65" points="47.7,28.9 51.4,27.8 51.4,27.7 47.7,28.9 	"/>
	<polygon class="st65" points="31,34.1 31.2,34.1 33.1,33.5 33.1,33.5 	"/>
	<polygon class="st65" points="38.6,31.8 42.3,30.6 42.3,30.6 38.6,31.7 	"/>
	<polygon class="st65" points="38.6,32.4 42.3,31.3 42.3,31.2 38.6,32.4 	"/>
	<polygon class="st65" points="47.7,29.6 51.4,28.4 51.4,28.3 47.7,29.5 	"/>
	<polygon class="st65" points="32.9,34.1 33.1,34.1 33.1,34.1 	"/>
	<polygon class="st65" points="38.6,33.1 42.3,31.9 42.3,31.8 38.6,33 	"/>
	<polygon class="st65" points="47.7,30.2 51.4,29 51.4,28.9 47.7,30.1 	"/>
	<polygon class="st65" points="47.7,30.8 51.4,29.7 51.4,29.6 47.7,30.7 	"/>
	<polygon class="st65" points="38.6,33.7 42.3,32.5 42.3,32.4 38.6,33.6 	"/>
	<polygon class="st65" points="38.9,34.1 39.2,34.1 42.3,33.2 42.3,33.1 	"/>
	<polygon class="st65" points="47.7,31.4 51.4,30.3 51.4,30.2 47.7,31.4 	"/>
	<polygon class="st65" points="40.9,34.1 41.2,34.1 42.3,33.8 42.3,33.7 	"/>
	<polygon class="st65" points="47.7,32.1 51.4,30.9 51.4,30.8 47.7,32 	"/>
	<polygon class="st65" points="47.7,32.7 51.4,31.5 51.4,31.5 47.7,32.6 	"/>
	<polygon class="st65" points="47.7,33.3 51.4,32.2 51.4,32.1 47.7,33.2 	"/>
	<polygon class="st65" points="47.7,34 51.4,32.8 51.4,32.7 47.7,33.9 	"/>
	<polygon class="st65" points="48.9,34.1 49.1,34.1 51.4,33.4 51.4,33.3 	"/>
	<polygon class="st65" points="50.9,34.1 51.1,34.1 51.4,34 51.4,34 	"/>
	<path class="st66" d="M63.1,24.8h-6.7c0-1,0.3-1.7,0.8-2.4c0.5-0.7,1.5-1.2,2.6-1.2c1.1,0,1.8,0.4,2.4,0.9
		C62.7,22.8,63,23.7,63.1,24.8 M66.8,26.5c0.1-1.9-0.2-3.7-1.3-5.4c-1.3-1.9-3.4-2.9-5.7-2.9c-2.1,0-3.8,0.8-4.9,2
		c-1.5,1.5-2.2,3.7-2.2,6.2c0,2.5,0.8,4.7,2.4,6.2c1.2,1.2,2.8,1.9,4.9,1.9c2,0,3.9-0.6,5.2-2.2c0.6-0.7,1.2-1.9,1.3-2.9h-3.6
		c-0.1,0.6-0.4,1-0.7,1.3c-0.5,0.5-1.2,0.7-2.3,0.7c-1,0-1.8-0.4-2.3-1c-0.7-0.7-1.2-1.8-1.1-3h10.4C66.8,27.2,66.8,26.5,66.8,26.5"
		/>
	<polygon class="st66" points="81.1,18.6 77,18.6 73.7,23.6 70.2,18.6 65.9,18.6 71.4,26.2 65.9,34.1 70,34.1 73.4,28.9 76.9,34.1 
		81.1,34.1 75.8,26.3 	"/>
	<path class="st66" d="M108.6,28.6h-3.7c0,0.6-0.2,1-0.4,1.4c-0.4,0.7-1.3,1.2-2.4,1.2c-1,0-1.8-0.4-2.3-1c-0.9-1-1-2.4-1-3.9
		c0-1.5,0.1-3,1-3.9c0.5-0.5,1.3-1,2.3-1c1.1,0,1.9,0.5,2.4,1.2c0.2,0.4,0.4,0.9,0.4,1.4h3.7c-0.1-1.2-0.5-2.4-1.2-3.4
		c-1.1-1.3-2.9-2.4-5.3-2.4c-2.4,0-4.3,1.1-5.4,2.4c-1.2,1.5-1.7,3.4-1.7,5.7s0.5,4.2,1.7,5.7c1.1,1.3,3,2.4,5.4,2.4
		c2.4,0,4.2-1.1,5.3-2.4C108.1,31.1,108.5,29.9,108.6,28.6"/>
	<path class="st66" d="M117.7,33.9v-3.1c-1,0.1-1.6,0.1-2.4,0.1c-1.2,0-1.7-0.5-1.7-1.7v-7.5h3.9v-3.1h-3.9v-3h-3.7v14
		c0,3,1.5,4.8,4.7,4.8C115.6,34.3,116.6,34.2,117.7,33.9"/>
	<path class="st66" d="M90.2,28c0,2.3-1.6,3.5-4,3.5c-1.2,0-2.2-0.7-2.2-1.9c0-1.3,1.1-1.9,2.2-2l3.9-0.3V28z M93.8,34.1v-9.6
		c0-1-0.1-2.1-0.4-3.1c-0.9-2.3-3.2-3.2-5.8-3.2c-3.5,0-6.2,1.6-6.4,5h3.6c0.1-1.4,1.1-2.2,2.8-2.2c2.1,0,2.6,1,2.6,2.4v1l-4.6,0.3
		c-2.9,0.2-5.2,1.9-5.2,4.9c0,2.5,1.9,4.9,5.6,4.9c2.2,0,4-1.1,4.7-2.3l0.1,1.9H93.8z"/>
	<path class="st66" d="M119.1,13.2c0-0.1,0-0.2-0.1-0.3c-0.1-0.1-0.2-0.1-0.3-0.1h-0.4v0.7h0.4c0.1,0,0.2,0,0.3-0.1
		C119.1,13.4,119.1,13.3,119.1,13.2 M119.1,14.7l-0.4-0.8h-0.4v0.8h-0.4v-2.2h0.8c0.1,0,0.2,0,0.3,0c0.1,0,0.2,0.1,0.3,0.1
		c0.1,0.1,0.1,0.1,0.2,0.2c0,0.1,0.1,0.2,0.1,0.3c0,0.1,0,0.3-0.1,0.4c-0.1,0.1-0.2,0.2-0.3,0.3l0.4,0.9H119.1z M120.4,13.6
		c0-0.3,0-0.5-0.1-0.7c-0.1-0.2-0.2-0.4-0.3-0.6c-0.1-0.2-0.3-0.3-0.5-0.4c-0.2-0.1-0.4-0.1-0.7-0.1c-0.3,0-0.5,0-0.7,0.1
		c-0.2,0.1-0.4,0.2-0.5,0.4c-0.1,0.2-0.3,0.3-0.3,0.6c-0.1,0.2-0.1,0.5-0.1,0.7c0,0.3,0,0.5,0.1,0.7c0.1,0.2,0.2,0.4,0.3,0.6
		c0.1,0.2,0.3,0.3,0.5,0.4c0.2,0.1,0.4,0.1,0.7,0.1c0.3,0,0.5,0,0.7-0.1c0.2-0.1,0.4-0.2,0.5-0.4c0.1-0.2,0.3-0.3,0.3-0.6
		C120.3,14.1,120.4,13.9,120.4,13.6 M120.7,13.6c0,0.3-0.1,0.6-0.2,0.8c-0.1,0.3-0.3,0.5-0.4,0.7c-0.2,0.2-0.4,0.3-0.7,0.5
		c-0.3,0.1-0.5,0.2-0.8,0.2c-0.3,0-0.6-0.1-0.8-0.2c-0.3-0.1-0.5-0.3-0.7-0.5c-0.2-0.2-0.3-0.4-0.4-0.7c-0.1-0.3-0.2-0.5-0.2-0.8
		c0-0.3,0.1-0.6,0.2-0.8c0.1-0.3,0.3-0.5,0.4-0.7c0.2-0.2,0.4-0.3,0.7-0.5c0.3-0.1,0.5-0.2,0.8-0.2c0.3,0,0.6,0.1,0.8,0.2
		c0.3,0.1,0.5,0.3,0.7,0.5c0.2,0.2,0.3,0.4,0.4,0.7C120.7,13,120.7,13.3,120.7,13.6"/>
</g>
</svg>
