<?xml version="1.0" encoding="utf-8"?>
<!-- Generator: Adobe Illustrator 25.4.1, SVG Export Plug-In . SVG Version: 6.00 Build 0)  -->
<svg version="1.1" id="Capa_1" xmlns="http://www.w3.org/2000/svg" xmlns:xlink="http://www.w3.org/1999/xlink" x="0px" y="0px"
	 viewBox="0 0 136 46" style="enable-background:new 0 0 136 46;" xml:space="preserve">
<style type="text/css">
	.st0{fill:#FFED00;}
	.st1{fill:none;}
	.st2{clip-path:url(#SVGID_00000072247206605559908300000007061296577619141767_);fill:#FFED00;}
	.st3{fill:none;stroke:#FFED00;stroke-width:1.4173;stroke-miterlimit:10;}
</style>
<polygon class="st0" points="53.6,18 49.5,18 47.1,28.6 47.1,28.6 44.7,18 40.6,18 40.6,31.4 43.2,31.4 43.2,20.2 43.2,20.2 
	45.7,31.4 48.4,31.4 50.9,20.2 51,20.2 51,31.4 53.6,31.4 "/>
<polygon class="st0" points="66.1,18 56.3,18 56.3,31.4 66.4,31.4 66.4,29 59,29 59,25.6 65.5,25.6 65.5,23.2 59,23.2 59,20.4 
	66.1,20.4 "/>
<path class="st0" d="M68,27.3c0,1.7,0.8,4.5,5.7,4.5c1.2,0,5.3-0.4,5.3-4.4c0-2.4-1.7-3.2-3.5-3.6L72.3,23c-0.6-0.1-1.4-0.4-1.4-1.4
	c0-1.2,1.3-1.6,2.3-1.6c2.4,0,2.7,1.4,2.7,2h2.7c0-1.6-1.1-4.3-5.2-4.3c-4.3,0-5.2,2.6-5.2,4.1c0,2.9,2.1,3.4,4.3,3.9l1.4,0.3
	c1.4,0.3,2.4,0.6,2.4,1.7c0,1.4-1.5,1.7-2.8,1.7c-2.4,0-2.8-1.4-2.8-2.2H68z"/>
<polygon class="st0" points="86.9,20.4 90.9,20.4 90.9,18 80,18 80,20.4 84.1,20.4 84.1,31.4 86.9,31.4 "/>
<path class="st0" d="M95.3,23.9v-3.6h3.5c1.6,0,2,1,2,1.8c0,1.3-0.7,1.8-2.2,1.8H95.3z M92.6,31.4h2.7v-5.2h2.9
	c2.1,0,2.2,0.7,2.2,2.5c0,1.4,0.1,2.1,0.3,2.7h3.1V31c-0.6-0.2-0.6-0.7-0.6-2.7c0-2.5-0.6-2.9-1.7-3.4c1.3-0.4,2.1-1.7,2.1-3.2
	c0-1.2-0.7-3.8-4.2-3.8h-6.8V31.4z"/>
<path class="st0" d="M111.3,21L111.3,21l1.7,5.3h-3.4L111.3,21z M108.9,28.6h4.9l0.9,2.8h3L113,18h-3.2L105,31.4h2.9L108.9,28.6z"/>
<path class="st0" d="M122.6,21c0,1.6-1.1,2.7-2.5,2.7v0c-1.4,0-2.5-1.1-2.5-2.7c0-1.6,1.1-2.7,2.5-2.7
	C121.5,18.4,122.6,19.4,122.6,21 M123.6,21c0-2.2-1.7-3.5-3.5-3.5c-1.9,0-3.5,1.3-3.5,3.5c0,2.2,1.7,3.5,3.5,3.5
	C122,24.5,123.6,23.3,123.6,21 M119.5,20.7v-0.9h0.6c0.3,0,0.7,0,0.7,0.4c0,0.4-0.2,0.5-0.6,0.5H119.5z M119.5,21.3h0.4l0.9,1.6h1
	l-1-1.6c0.5,0,0.9-0.3,0.9-1c0-0.9-0.6-1.1-1.5-1.1h-1.4v3.8h0.8V21.3z"/>
<path class="st1" d="M25,13.1c5.7,0,10.2,4.6,10.2,10.2S30.6,33.6,25,33.6c-5.7,0-10.2-4.6-10.2-10.2S19.3,13.1,25,13.1"/>
<g>
	<defs>
		<path id="SVGID_1_" d="M14.7,23.4c0,5.7,4.6,10.2,10.2,10.2c5.7,0,10.2-4.6,10.2-10.2S30.6,13.1,25,13.1
			C19.3,13.1,14.7,17.7,14.7,23.4"/>
	</defs>
	<clipPath id="SVGID_00000038383849178073426630000005824820366032044971_">
		<use xlink:href="#SVGID_1_"  style="overflow:visible;"/>
	</clipPath>
	<polygon style="clip-path:url(#SVGID_00000038383849178073426630000005824820366032044971_);fill:#FFED00;" points="12.5,34.5 
		22.4,35 22.4,23 28,28.5 35.7,20.3 31.6,13.6 28,17.8 21,11 12.4,11 	"/>
</g>
<path class="st3" d="M25,13.1c5.7,0,10.2,4.6,10.2,10.2S30.6,33.6,25,33.6c-5.7,0-10.2-4.6-10.2-10.2S19.3,13.1,25,13.1z"/>
</svg>
