<?xml version="1.0" encoding="utf-8"?>
<!-- Generator: Adobe Illustrator 25.4.1, SVG Export Plug-In . SVG Version: 6.00 Build 0)  -->
<svg version="1.1" id="Capa_1" xmlns="http://www.w3.org/2000/svg" xmlns:xlink="http://www.w3.org/1999/xlink" x="0px" y="0px"
	 viewBox="0 0 135 46" style="enable-background:new 0 0 135 46;" xml:space="preserve">
<style type="text/css">
	.st0{fill:#38444E;}
	.st1{fill:#E64860;}
	.st2{fill:#808791;}
	.st3{clip-path:url(#SVGID_00000119077601011030519370000015941016531325146774_);fill:#E64860;}
	.st4{fill:none;stroke:#E64860;stroke-width:0.6287;stroke-miterlimit:10;}
	.st5{fill:#194374;}
	.st6{fill:#00659B;}
	.st7{fill:#DC0D6E;}
	.st8{fill:#004D80;}
	.st9{fill:#7EA9D6;}
	.st10{fill:#B6D4EF;}
	.st11{fill:#058DC7;}
	.st12{fill:#00559F;}
	.st13{fill:#134A83;}
	.st14{fill:#B51975;}
	.st15{fill:#2497D0;}
	.st16{fill:#D80F3B;}
	.st17{fill:#9BC338;}
	.st18{fill:#008541;}
	.st19{fill:#9DC438;}
	
		.st20{clip-path:url(#SVGID_00000156553017402106353600000007860342646583623340_);fill:url(#SVGID_00000089548144775466142330000012017771705777132436_);}
	
		.st21{clip-path:url(#SVGID_00000178178014953439372120000015713394335183894165_);fill:url(#SVGID_00000116231623505673862180000010848259270043437734_);}
	
		.st22{clip-path:url(#SVGID_00000128470938628166247690000018288148556006688940_);fill:url(#SVGID_00000017485026746565688690000003363215305914347929_);}
	.st23{fill:#F9BE12;}
	.st24{clip-path:url(#SVGID_00000072252509933711569290000003465210001753966990_);}
	.st25{clip-path:url(#SVGID_00000109751635625043244970000002142835308084933542_);}
	.st26{clip-path:url(#SVGID_00000096032010465452163150000009113277680790859183_);}
	.st27{clip-path:url(#SVGID_00000019641406653119709560000002827948077957507736_);}
	.st28{clip-path:url(#SVGID_00000139977354649539183580000009575247139258868369_);}
	.st29{clip-path:url(#SVGID_00000081648654089983591350000001465503808040651409_);}
	.st30{clip-path:url(#SVGID_00000001623406013030241080000006555028586241531782_);}
	.st31{clip-path:url(#SVGID_00000059990511089157184890000007742595952403117242_);}
	.st32{clip-path:url(#SVGID_00000140016074446623368110000014765417502374181029_);}
	
		.st33{clip-path:url(#SVGID_00000142887145969167734450000006877505437177224368_);fill:url(#SVGID_00000040544412871785235990000008514698173448709797_);}
	.st34{clip-path:url(#SVGID_00000171704940928703405650000010236717983754380938_);}
	.st35{clip-path:url(#SVGID_00000068658238719606453430000002286050521514792070_);}
	.st36{clip-path:url(#SVGID_00000017498802496880421440000015714095499445994900_);}
	.st37{clip-path:url(#SVGID_00000124846883391450912060000017642967789227723653_);}
	.st38{clip-path:url(#SVGID_00000173881769207622428360000008962196639163073425_);}
	.st39{clip-path:url(#SVGID_00000110466970945673318200000010096844581345938110_);}
	.st40{fill:#009BDA;}
	.st41{fill:#CE1620;}
	.st42{fill:#171915;}
	.st43{fill:#E30750;}
	.st44{fill:#5775B5;}
	.st45{fill:none;stroke:#5775B5;stroke-width:0.5802;}
	.st46{fill:#5A595C;}
	.st47{fill:#FFFFFF;}
	.st48{fill:#364F8F;}
	.st49{fill:none;stroke:#364F8F;stroke-width:0.3873;}
	.st50{fill:none;stroke:#364F8F;stroke-width:1.3345;stroke-linecap:round;}
	.st51{fill:#656362;}
	.st52{fill:#C8D44A;}
	.st53{fill:#E42E38;}
	.st54{fill:none;stroke:#FFFFFF;stroke-width:0.4523;stroke-miterlimit:10;}
	.st55{fill:#51B054;}
	.st56{fill:#0079BB;}
	.st57{fill:#086EB0;}
	.st58{fill:#99A4AB;}
	.st59{fill:#B2A7A5;}
	.st60{fill:#931340;}
	.st61{fill:#DFDCD9;}
	.st62{fill:#27A1D7;}
	.st63{fill:none;stroke:#000000;stroke-width:0.1494;stroke-linejoin:bevel;stroke-miterlimit:22.926;}
	.st64{fill:none;stroke:#000000;stroke-width:0.1585;stroke-miterlimit:22.926;}
	.st65{fill:#EA3D36;stroke:#ED1C24;stroke-width:0.1417;stroke-linejoin:round;}
	.st66{fill:#EA3D36;}
</style>
<g>
	<rect x="41" y="8.9" class="st51" width="0.3" height="28.1"/>
	<path class="st51" d="M70.6,16.7V23c0,0.9,0,2.1-0.3,2.8c-0.3,0.9-0.9,1.8-2.9,1.8h0v0c0,0,0,0,0,0h0h0c-1.8,0-2.7-0.9-3-2.2
		c-0.2-0.7-0.1-1.5-0.1-2.4v-6.3h-2.4v7.8c0,2.8,1.8,5.2,5.6,5.2h0h0c3.8,0,5.6-2.4,5.6-5.2v-7.8H70.6z"/>
	<polygon class="st51" points="98.3,29.6 87.3,29.6 87.3,27.5 95.3,18.8 87.5,18.8 87.5,16.7 98.3,16.7 98.3,18.7 90.5,27.5 
		98.3,27.5 	"/>
	<polygon class="st51" points="52.3,36.2 52.3,33.5 52.2,33.5 51.4,36.2 51.1,36.2 50.3,33.5 50.3,33.5 50.3,36.2 49.9,36.2 
		49.9,33.2 50.5,33.2 51.3,35.7 51.3,35.7 52,33.2 52.6,33.2 52.6,36.2 	"/>
	<rect x="53.8" y="33.2" class="st51" width="0.3" height="3.1"/>
	<polygon class="st51" points="56.2,33.5 56.2,36.2 55.9,36.2 55.9,33.5 54.9,33.5 54.9,33.2 57.1,33.2 57.1,33.5 	"/>
	<path class="st51" d="M59.3,34c-0.1-0.3-0.3-0.5-0.7-0.5c-0.4,0-0.6,0.2-0.6,0.5c0,0.7,1.7,0.5,1.7,1.5c0,0.4-0.2,0.9-1,0.9
		c-0.7,0-0.9-0.4-1.1-0.8l0.3-0.1c0.1,0.3,0.4,0.6,0.8,0.6c0.4,0,0.7-0.2,0.7-0.5c0-0.8-1.7-0.5-1.7-1.5c0-0.4,0.4-0.8,0.9-0.8
		c0.5,0,0.8,0.2,1,0.8L59.3,34z"/>
	<path class="st51" d="M61,33.2v2.2c0,0.4,0.3,0.7,0.7,0.7c0.5,0,0.7-0.3,0.7-0.7v-2.2h0.3v2.1c0,0.6-0.4,1-1.1,1
		c-0.6,0-1.1-0.4-1.1-1v-2.1H61z"/>
	<rect x="64" y="33.2" class="st51" width="0.3" height="3.1"/>
	<path class="st51" d="M69,35.3c-0.1,0.6-0.4,1-1.1,1c-0.7,0-1.2-0.5-1.2-1.6c0-1,0.4-1.6,1.2-1.6c0.6,0,0.9,0.3,1,0.9l-0.3,0.1
		c-0.1-0.4-0.3-0.7-0.8-0.7c-0.4,0-0.8,0.4-0.8,1.3c0,0.9,0.3,1.3,0.9,1.3c0.5,0,0.7-0.4,0.7-0.7L69,35.3z"/>
	<polygon class="st51" points="72,33.2 72,36.2 71.6,36.2 71.6,34.8 70.2,34.8 70.2,36.2 69.8,36.2 69.8,33.2 70.2,33.2 70.2,34.5 
		71.6,34.5 71.6,33.2 	"/>
	<polygon class="st51" points="74.9,33.2 74.9,33.5 73.5,33.5 73.5,34.5 74.5,34.5 74.5,34.8 73.5,34.8 73.5,36 75,36 75,36.2 
		73.1,36.2 73.1,33.2 	"/>
	<polygon class="st51" points="78.2,36.2 78.2,33.5 78.2,33.5 77.3,36.2 77.1,36.2 76.2,33.5 76.2,33.5 76.2,36.2 75.9,36.2 
		75.9,33.2 76.4,33.2 77.2,35.7 77.2,35.7 78,33.2 78.5,33.2 78.5,36.2 	"/>
	<rect x="79.7" y="33.2" class="st51" width="0.3" height="3.1"/>
	<path class="st51" d="M83.2,35.3c-0.1,0.6-0.4,1-1.1,1c-0.7,0-1.2-0.5-1.2-1.6c0-1,0.4-1.6,1.2-1.6c0.6,0,0.9,0.3,1,0.9l-0.3,0.1
		c-0.1-0.4-0.3-0.7-0.8-0.7c-0.4,0-0.8,0.4-0.8,1.3c0,0.9,0.3,1.3,0.9,1.3c0.5,0,0.7-0.4,0.7-0.7L83.2,35.3z"/>
	<path class="st51" d="M84.4,35h0.9l-0.4-1.6h0L84.4,35z M83.7,36.2l0.9-3.1h0.5l0.9,3.1h-0.4l-0.3-1h-1.1l-0.3,1H83.7z"/>
	<polygon class="st51" points="86.9,36.2 86.9,33.2 87.2,33.2 87.2,36 88.6,36 88.6,36.2 	"/>
	<path class="st51" d="M90.9,34c-0.1-0.3-0.3-0.5-0.7-0.5c-0.4,0-0.6,0.2-0.6,0.5c0,0.7,1.7,0.5,1.7,1.5c0,0.4-0.2,0.9-1,0.9
		c-0.7,0-0.9-0.4-1.1-0.8l0.3-0.1c0.1,0.3,0.4,0.6,0.8,0.6c0.4,0,0.7-0.2,0.7-0.5c0-0.8-1.7-0.5-1.7-1.5c0-0.4,0.4-0.8,0.9-0.8
		c0.5,0,0.8,0.2,1,0.8L90.9,34z"/>
	<path class="st51" d="M95.7,34.8v1.5h-0.3V36h0c-0.2,0.2-0.5,0.3-0.8,0.3c-0.7,0-1.2-0.5-1.2-1.6c0-1.1,0.5-1.6,1.2-1.6
		c0.5,0,0.9,0.2,1.1,0.9l-0.3,0.1c-0.2-0.5-0.4-0.7-0.8-0.7c-0.4,0-0.9,0.3-0.9,1.3c0,1,0.4,1.3,0.9,1.3c0.5,0,0.7-0.3,0.7-0.7v-0.3
		h-0.7v-0.3H95.7z"/>
	<path class="st51" d="M97.1,34.6h0.6c0.5,0,0.7-0.2,0.7-0.6c0-0.4-0.3-0.5-0.7-0.5h-0.6V34.6z M96.7,36.2v-3.1h1c0.7,0,1,0.3,1,0.8
		c0,0.4-0.2,0.7-0.6,0.8l0.6,1.5h-0.4l-0.6-1.4h-0.7v1.4H96.7z"/>
	<path class="st51" d="M100.7,36c0.5,0,0.9-0.4,0.9-1.3c0-0.9-0.3-1.3-0.9-1.3c-0.5,0-0.9,0.4-0.9,1.3C99.9,35.6,100.2,36,100.7,36
		 M100.7,33.1c0.7,0,1.2,0.5,1.2,1.6c0,1-0.4,1.6-1.2,1.6c-0.7,0-1.2-0.5-1.2-1.6C99.5,33.7,100,33.1,100.7,33.1"/>
	<path class="st51" d="M103.2,33.2v2.2c0,0.4,0.3,0.7,0.7,0.7c0.5,0,0.7-0.3,0.7-0.7v-2.2h0.3v2.1c0,0.6-0.4,1-1.1,1
		c-0.6,0-1.1-0.4-1.1-1v-2.1H103.2z"/>
	<path class="st51" d="M106.4,34.6h0.6c0.6,0,0.7-0.2,0.7-0.6c0-0.4-0.2-0.6-0.7-0.6h-0.7V34.6z M106.1,36.2v-3.1h1.1
		c0.7,0,0.9,0.4,0.9,0.9c0,0.5-0.4,0.8-1.1,0.8h-0.5v1.4H106.1z"/>
	<polygon class="st51" points="102.6,27.5 102.6,24.3 110.1,24.3 110.1,22.4 102.6,22.4 102.6,18.8 110.7,18.8 110.7,16.7 
		100.2,16.7 100.2,29.6 102.6,29.6 110.9,29.6 110.9,27.5 	"/>
	<path class="st51" d="M120.9,23.9c1.6-0.4,2.4-1.7,2.3-3.3c0-2.1-1.2-3.8-4.1-3.8h-6.4v2h5l0.9,0c1.4,0,2.1,0.6,2.1,1.8
		s-0.6,1.8-2.5,1.8h-0.5l-5,0v7.2h2.4v-5.3h3.4l2.4,5.3h2.7L120.9,23.9z"/>
	<rect x="50" y="16.7" class="st51" width="2.4" height="12.8"/>
	<polygon class="st51" points="75.3,29.6 75.3,16.7 77.8,16.7 77.8,27.5 85.6,27.5 85.6,29.6 	"/>
	<polygon class="st51" points="56,23 60.2,16.7 57.6,16.7 53.8,22.5 53.8,23.6 58.3,29.6 61,29.6 	"/>
	<path class="st52" d="M21.9,33.4c-5.9,0-10.6-4.8-10.6-10.6S16,12.2,21.9,12.2c5.9,0,10.6,4.8,10.6,10.6S27.7,33.4,21.9,33.4"/>
	<path class="st47" d="M21.9,18.6c-0.9,0-2-0.5-3.1-0.5c-1.1,0-1.6,0.3-2,1.3c-0.4,1-0.8,5.2,0.5,8.3c0.9,2,3-2.9,4.5-2.9
		c1.5,0,3.8,5,4.7,2.9c1.3-3.2,0.7-7.4,0.4-8.4c-0.4-1-0.9-1.2-2-1.2C23.8,18.1,22.8,18.6,21.9,18.6"/>
</g>
</svg>
