<svg id="Capa_1" data-name="Capa 1" xmlns="http://www.w3.org/2000/svg" viewBox="0 0 135 46"><defs><style>.cls-1{fill:#009bda;}</style></defs><path class="cls-1" d="M44.35,30l-.28,1a.2.2,0,0,1,0,.08.08.08,0,0,1-.07,0H43.7a.1.1,0,0,1-.11-.11l-.42-2.11v0a.14.14,0,0,1,0-.06.09.09,0,0,1,.07,0h.23l.07,0s0,0,0,.07l.27,1.42.24-.89a.09.09,0,0,1,0-.06s0,0,.08,0h.26a.1.1,0,0,1,.09,0l0,.06.24.89.27-1.42s0-.06,0-.07l.06,0h.24a.11.11,0,0,1,.09.09s0,0,0,0L45.12,31a.2.2,0,0,1,0,.08.09.09,0,0,1-.07,0h-.27a.09.09,0,0,1-.07,0,.2.2,0,0,1,0-.08Z"/><path class="cls-1" d="M48.18,30.71a.09.09,0,0,1,.07,0,.14.14,0,0,1,0,.06V31a.14.14,0,0,1,0,.06.09.09,0,0,1-.07,0H46.77a.09.09,0,0,1-.07,0,.14.14,0,0,1,0-.06V28.88a.14.14,0,0,1,0-.06.09.09,0,0,1,.07,0h1.39a.11.11,0,0,1,.09.09v.24a.11.11,0,0,1-.09.09h-1v.53h1a.09.09,0,0,1,.06,0,.07.07,0,0,1,0,.06v.24a.11.11,0,0,1-.09.09h-1v.55Z"/><path class="cls-1" d="M52.39,28.79l.06,0a.09.09,0,0,1,0,.06v.24a.09.09,0,0,1,0,.06l-.06,0h-.58V31a.11.11,0,0,1-.09.09h-.26a.06.06,0,0,1-.06,0,.09.09,0,0,1,0-.06V29.21h-.58a.06.06,0,0,1-.06,0,.09.09,0,0,1,0-.06v-.24a.09.09,0,0,1,0-.06.06.06,0,0,1,.06,0Z"/><path class="cls-1" d="M54.59,30.26l-.36-1-.35,1Zm-.18-1.47a.1.1,0,0,1,.08,0,.2.2,0,0,1,0,.08l.8,2.12v0a.09.09,0,0,1,0,.06.06.06,0,0,1-.06,0H55a.12.12,0,0,1-.09,0l0-.05-.14-.38h-1l-.14.38,0,.05a.12.12,0,0,1-.09,0h-.24l-.06,0a.14.14,0,0,1,0-.06v0l.79-2.12a.56.56,0,0,1,0-.08.1.1,0,0,1,.08,0Z"/><path class="cls-1" d="M58.12,31l0,0v0a.09.09,0,0,1,0,.06.06.06,0,0,1-.06,0h-.3a.14.14,0,0,1-.11,0l0,0-.76-.88V31a.11.11,0,0,1-.09.09h-.26a.06.06,0,0,1-.06,0,.09.09,0,0,1,0-.06V28.88a.09.09,0,0,1,0-.06.06.06,0,0,1,.06,0h.26a.11.11,0,0,1,.09.09v.79l.7-.81.06-.05.09,0H58a.09.09,0,0,1,.07,0,.14.14,0,0,1,0,.06s0,0,0,.05l-.87,1Z"/><path class="cls-1" d="M60.71,30.71a.09.09,0,0,1,.07,0,.14.14,0,0,1,0,.06V31a.14.14,0,0,1,0,.06.09.09,0,0,1-.07,0H59.29l-.06,0a.14.14,0,0,1,0-.06V28.88a.14.14,0,0,1,0-.06l.06,0h1.4a.11.11,0,0,1,.09.09v.24a.11.11,0,0,1-.09.09h-1v.53h1a.09.09,0,0,1,.06,0,.07.07,0,0,1,0,.06v.24a.11.11,0,0,1-.09.09h-1v.55Z"/><path class="cls-1" d="M64.88,30.39a.16.16,0,0,1,0-.07l.06,0h.26a.09.09,0,0,1,.06,0,.06.06,0,0,1,0,.06.9.9,0,0,1-.07.27.62.62,0,0,1-.17.25.75.75,0,0,1-.3.18,1.11,1.11,0,0,1-.43.07.94.94,0,0,1-.39-.07.73.73,0,0,1-.29-.19.86.86,0,0,1-.19-.29,1.43,1.43,0,0,1-.08-.37v-.56a1.43,1.43,0,0,1,.08-.37.86.86,0,0,1,.19-.29.73.73,0,0,1,.29-.19.94.94,0,0,1,.39-.07,1.11,1.11,0,0,1,.43.07.75.75,0,0,1,.3.18.62.62,0,0,1,.17.25.9.9,0,0,1,.07.27.06.06,0,0,1,0,.06.09.09,0,0,1-.06,0H65l-.06,0a.1.1,0,0,1,0-.07.65.65,0,0,0,0-.13.52.52,0,0,0-.1-.11.48.48,0,0,0-.16-.08.67.67,0,0,0-.22,0,.54.54,0,0,0-.22,0,.4.4,0,0,0-.15.1.39.39,0,0,0-.1.16.65.65,0,0,0,0,.2,3.93,3.93,0,0,0,0,.56.65.65,0,0,0,0,.2.39.39,0,0,0,.1.16.4.4,0,0,0,.15.1.54.54,0,0,0,.22.05.67.67,0,0,0,.22,0,.48.48,0,0,0,.16-.08.35.35,0,0,0,.1-.11.33.33,0,0,0,0-.13"/><path class="cls-1" d="M67.7,30.26l-.35-1-.36,1Zm-.18-1.47a.1.1,0,0,1,.08,0,.56.56,0,0,1,.05.08L68.44,31v0a.14.14,0,0,1,0,.06.09.09,0,0,1-.07,0h-.23a.12.12,0,0,1-.09,0,.09.09,0,0,1,0-.05l-.14-.38h-1l-.14.38a.09.09,0,0,1,0,.05.12.12,0,0,1-.09,0h-.23a.09.09,0,0,1-.07,0,.14.14,0,0,1,0-.06v0L67,28.9a.56.56,0,0,1,0-.08.1.1,0,0,1,.08,0Z"/><path class="cls-1" d="M70,29.84h.47a.6.6,0,0,0,.29-.06.27.27,0,0,0,.11-.26c0-.12,0-.21-.11-.25a.6.6,0,0,0-.29-.06H70Zm.48-1.05a.94.94,0,0,1,.62.19.7.7,0,0,1,.21.54.79.79,0,0,1-.11.42.62.62,0,0,1-.32.25l.45.83s0,0,0,0,0,0,0,.05l0,0h-.28a.12.12,0,0,1-.09,0l0-.06-.42-.78H70V31a.09.09,0,0,1,0,.06.06.06,0,0,1-.06,0H69.6a.11.11,0,0,1-.09-.09V28.88a.11.11,0,0,1,.09-.09Z"/><path class="cls-1" d="M74,30.71a.06.06,0,0,1,.06,0,.09.09,0,0,1,0,.06V31a.09.09,0,0,1,0,.06.06.06,0,0,1-.06,0H72.54a.09.09,0,0,1-.06,0,.07.07,0,0,1,0-.06V28.88a.07.07,0,0,1,0-.06.09.09,0,0,1,.06,0h1.4a.09.09,0,0,1,.06,0,.07.07,0,0,1,0,.06v.24a.07.07,0,0,1,0,.06.09.09,0,0,1-.06,0h-1v.53h1l.06,0a.11.11,0,0,1,0,.06v.24a.14.14,0,0,1,0,.06l-.06,0h-1v.55Z"/><path class="cls-1" d="M78.13,29.68a.55.55,0,0,0-.15-.37.51.51,0,0,0-.37-.13.48.48,0,0,0-.36.13.55.55,0,0,0-.15.37c0,.08,0,.18,0,.28s0,.2,0,.28a.53.53,0,0,0,.15.37.48.48,0,0,0,.36.13.51.51,0,0,0,.37-.13.53.53,0,0,0,.15-.37c0-.08,0-.17,0-.28s0-.2,0-.28m-1.47,0a1.36,1.36,0,0,1,.07-.35.79.79,0,0,1,.18-.29.86.86,0,0,1,.29-.19,1,1,0,0,1,.41-.07,1.09,1.09,0,0,1,.42.07.81.81,0,0,1,.29.19.92.92,0,0,1,.17.29,1,1,0,0,1,.07.35.61.61,0,0,1,0,.14v.32a.61.61,0,0,1,0,.14,1,1,0,0,1-.06.35.79.79,0,0,1-.18.29.81.81,0,0,1-.29.19,1.09,1.09,0,0,1-.42.07,1,1,0,0,1-.41-.07.73.73,0,0,1-.29-.19.79.79,0,0,1-.18-.29,1.28,1.28,0,0,1-.07-.35v-.6"/><path class="cls-1" d="M81.24,28.79a.09.09,0,0,1,.06,0,.07.07,0,0,1,0,.06v.24a.07.07,0,0,1,0,.06.09.09,0,0,1-.06,0h-1v.65h1l.06,0a.09.09,0,0,1,0,.07v.23a.09.09,0,0,1,0,.07s0,0-.06,0h-1V31a.09.09,0,0,1,0,.06l-.06,0h-.26a.09.09,0,0,1-.07,0,.14.14,0,0,1,0-.06V28.88a.14.14,0,0,1,0-.06.09.09,0,0,1,.07,0Z"/><path class="cls-1" d="M85.56,28.79a.09.09,0,0,1,.07,0,.14.14,0,0,1,0,.06v0l-.77,1.39V31a.09.09,0,0,1,0,.06.06.06,0,0,1-.06,0h-.26a.09.09,0,0,1-.06,0,.07.07,0,0,1,0-.06V30.3l-.77-1.39a0,0,0,0,1,0,0,.11.11,0,0,1,.09-.09H84a.13.13,0,0,1,.1,0l0,.05.52.95.53-.95s0,0,0-.05a.17.17,0,0,1,.1,0Z"/><path class="cls-1" d="M88,29.68a.55.55,0,0,0-.15-.37.48.48,0,0,0-.36-.13.52.52,0,0,0-.37.13.55.55,0,0,0-.15.37v.56a.48.48,0,0,0,.52.5.48.48,0,0,0,.36-.13.53.53,0,0,0,.15-.37,2.35,2.35,0,0,0,0-.28,2.44,2.44,0,0,0,0-.28m-1.46,0a1,1,0,0,1,.07-.35.77.77,0,0,1,.17-.29,1,1,0,0,1,.29-.19,1.09,1.09,0,0,1,.42-.07,1,1,0,0,1,.41.07.81.81,0,0,1,.29.19.79.79,0,0,1,.18.29,1.36,1.36,0,0,1,.07.35v.14c0,.05,0,.11,0,.16s0,.11,0,.16v.14a1.28,1.28,0,0,1-.07.35.79.79,0,0,1-.18.29.67.67,0,0,1-.29.19,1,1,0,0,1-.41.07,1.09,1.09,0,0,1-.42-.07.81.81,0,0,1-.29-.19.77.77,0,0,1-.17-.29,1,1,0,0,1-.07-.35.61.61,0,0,1,0-.14V29.8a.61.61,0,0,1,0-.14"/><path class="cls-1" d="M91.43,28.79a.06.06,0,0,1,.06,0,.09.09,0,0,1,0,.06v1.37a1.06,1.06,0,0,1-.06.37.82.82,0,0,1-.17.29.91.91,0,0,1-.3.19,1.2,1.2,0,0,1-.4.06,1.31,1.31,0,0,1-.41-.06.82.82,0,0,1-.28-.19.71.71,0,0,1-.18-.29,1.07,1.07,0,0,1,0-.37V28.88a.07.07,0,0,1,0-.06.09.09,0,0,1,.06,0H90a.09.09,0,0,1,.06,0,.14.14,0,0,1,0,.06v1.35a.57.57,0,0,0,0,.24.34.34,0,0,0,.1.16.38.38,0,0,0,.15.09.68.68,0,0,0,.4,0,.51.51,0,0,0,.16-.09.62.62,0,0,0,.1-.16.8.8,0,0,0,0-.24V28.88a.07.07,0,0,1,0-.06.09.09,0,0,1,.06,0Z"/><path class="cls-1" d="M93.22,29.84h.47a.6.6,0,0,0,.29-.06.27.27,0,0,0,.11-.26c0-.12,0-.21-.11-.25a.6.6,0,0,0-.29-.06h-.47Zm.49-1.05a.93.93,0,0,1,.61.19.7.7,0,0,1,.21.54.79.79,0,0,1-.11.42.62.62,0,0,1-.32.25l.45.83s0,0,0,0,0,0,0,.05l-.05,0h-.28a.12.12,0,0,1-.09,0L94.07,31l-.42-.78h-.43V31a.09.09,0,0,1,0,.06.06.06,0,0,1-.06,0h-.26a.11.11,0,0,1-.09-.09V28.88a.11.11,0,0,1,.09-.09Z"/><path class="cls-1" d="M98,28.76a1.12,1.12,0,0,1,.38.06.87.87,0,0,1,.27.15.54.54,0,0,1,.17.2.41.41,0,0,1,.06.2.06.06,0,0,1,0,.07l-.06,0h-.23s-.06,0-.08,0a.1.1,0,0,1-.05-.06.51.51,0,0,0-.15-.14.56.56,0,0,0-.29-.07l-.16,0a.59.59,0,0,0-.14.06.3.3,0,0,0-.08.08.17.17,0,0,0,0,.12.21.21,0,0,0,0,.12.24.24,0,0,0,.11.08.69.69,0,0,0,.19.07l.3.07a1.87,1.87,0,0,1,.33.1.82.82,0,0,1,.23.14.46.46,0,0,1,.13.19.6.6,0,0,1,0,.24.53.53,0,0,1-.07.28.55.55,0,0,1-.18.22.84.84,0,0,1-.3.15,1.48,1.48,0,0,1-.39.05,1.27,1.27,0,0,1-.34,0,1.36,1.36,0,0,1-.3-.13.8.8,0,0,1-.2-.21.62.62,0,0,1-.09-.27.09.09,0,0,1,0-.06.06.06,0,0,1,.06,0h.23l.08,0,0,.06a.41.41,0,0,0,0,.09.24.24,0,0,0,.09.08.46.46,0,0,0,.14,0,.59.59,0,0,0,.2,0h.19l.16-.05a.31.31,0,0,0,.11-.09.17.17,0,0,0,0-.13.19.19,0,0,0,0-.12.58.58,0,0,0-.14-.08l-.23-.06a2.37,2.37,0,0,1-.31-.08,1.66,1.66,0,0,1-.29-.09.72.72,0,0,1-.2-.14.4.4,0,0,1-.11-.19.62.62,0,0,1,0-.25.64.64,0,0,1,.06-.28.55.55,0,0,1,.18-.22.69.69,0,0,1,.27-.14,1.21,1.21,0,0,1,.34,0"/><path class="cls-1" d="M101.17,30l.62-1.1,0-.05a.11.11,0,0,1,.1,0h.22a.09.09,0,0,1,.06,0,.07.07,0,0,1,0,.06V31a.07.07,0,0,1,0,.06.09.09,0,0,1-.06,0h-.27l-.06,0a.14.14,0,0,1,0-.06V29.73l-.42.75,0,.06a.09.09,0,0,1-.07,0h-.17a.08.08,0,0,1-.07,0l0-.06-.42-.75V31a.09.09,0,0,1,0,.06.06.06,0,0,1-.06,0h-.26a.11.11,0,0,1-.09-.09V28.88a.11.11,0,0,1,.09-.09h.22a.13.13,0,0,1,.1,0l0,.05Z"/><path class="cls-1" d="M103.6,31.13a.09.09,0,0,1-.06,0,.07.07,0,0,1,0-.06V28.88a.07.07,0,0,1,0-.06.09.09,0,0,1,.06,0h.26a.09.09,0,0,1,.07,0,.14.14,0,0,1,0,.06V31a.14.14,0,0,1,0,.06.09.09,0,0,1-.07,0Z"/><path class="cls-1" d="M106.74,30.71a.09.09,0,0,1,.06,0,.07.07,0,0,1,0,.06V31a.07.07,0,0,1,0,.06.09.09,0,0,1-.06,0h-1.42a.11.11,0,0,1-.09-.09V28.88a.11.11,0,0,1,.09-.09h.26a.06.06,0,0,1,.06,0,.09.09,0,0,1,0,.06v1.83Z"/><path class="cls-1" d="M109.42,30.71l.06,0a.09.09,0,0,1,0,.06V31a.09.09,0,0,1,0,.06l-.06,0H108a.06.06,0,0,1-.06,0,.09.09,0,0,1,0-.06V28.88a.09.09,0,0,1,0-.06.06.06,0,0,1,.06,0h1.39a.06.06,0,0,1,.06,0,.09.09,0,0,1,0,.06v.24a.09.09,0,0,1,0,.06.06.06,0,0,1-.06,0h-1v.53h1a.11.11,0,0,1,.09.09v.24a.09.09,0,0,1,0,.06.07.07,0,0,1-.06,0h-1v.55Z"/><path class="cls-1" d="M45.26,17v2.91H47.7a2.59,2.59,0,0,0,1.09-.18,1.23,1.23,0,0,0,.64-1.22,1.38,1.38,0,0,0-.62-1.32A2.23,2.23,0,0,0,47.76,17Zm4.68-1.6a2.6,2.6,0,0,1,1,.76,3.09,3.09,0,0,1,.54.91,2.88,2.88,0,0,1,.2,1.13,3.35,3.35,0,0,1-.38,1.52A2.14,2.14,0,0,1,50,20.78a2,2,0,0,1,1.06.86,3.53,3.53,0,0,1,.31,1.69v.73a5.35,5.35,0,0,0,.06,1,.9.9,0,0,0,.42.62V26H49.38c-.07-.24-.12-.43-.15-.58a5.63,5.63,0,0,1-.1-.93v-1a2,2,0,0,0-.36-1.38,1.83,1.83,0,0,0-1.29-.34H45.26V26h-2.2V15.13h5.17a4.66,4.66,0,0,1,1.71.28"/><path class="cls-1" d="M55,18v4.82a2.46,2.46,0,0,0,.17,1,1.09,1.09,0,0,0,1.11.61,1.46,1.46,0,0,0,1.46-.87A3,3,0,0,0,58,22.3V18h2.12v8h-2V24.82l-.15.22a1.43,1.43,0,0,1-.28.32,2.67,2.67,0,0,1-1,.6,3.12,3.12,0,0,1-1.07.17,2.4,2.4,0,0,1-2.39-1.28,5.06,5.06,0,0,1-.34-2.08V18Z"/><path class="cls-1" d="M60.56,19.51V18h1.12V15.79h2.07V18h1.3v1.49h-1.3v4.23a1,1,0,0,0,.12.61,1.42,1.42,0,0,0,.77.12h.41V26l-1,0a2.71,2.71,0,0,1-2-.51,1.55,1.55,0,0,1-.35-1.11V19.51Z"/><path class="cls-1" d="M71.39,18a2.39,2.39,0,0,1,1,.79,2.12,2.12,0,0,1,.4.92,11,11,0,0,1,.08,1.55V26H70.72V21.08a2.15,2.15,0,0,0-.22-1,1.1,1.1,0,0,0-1.08-.55,1.48,1.48,0,0,0-1.25.55,2.58,2.58,0,0,0-.42,1.58V26h-2.1V15.17h2.1V19a2.53,2.53,0,0,1,1-1,3,3,0,0,1,1.25-.27,3.4,3.4,0,0,1,1.34.25"/><path class="cls-1" d="M74.12,18h2.12v8H74.12Zm2.12-1H74.12V15.06h2.12Z"/><path class="cls-1" d="M84,18.41a2.65,2.65,0,0,1,.78,2.15V26H82.62V21.08a2.28,2.28,0,0,0-.17-1,1.16,1.16,0,0,0-1.16-.61,1.44,1.44,0,0,0-1.45.9,3,3,0,0,0-.21,1.22V26H77.54V18h2v1.17a3.58,3.58,0,0,1,.76-.89A2.65,2.65,0,0,1,82,17.76a3,3,0,0,1,2,.65"/><path class="cls-1" d="M86,18h2.12v8H86Zm2.12-1H86V15.06h2.12Z"/><path class="cls-1" d="M91.5,18v4.82a2.49,2.49,0,0,0,.16,1,1.11,1.11,0,0,0,1.12.61,1.47,1.47,0,0,0,1.46-.87,3.24,3.24,0,0,0,.2-1.24V18h2.12v8h-2V24.82l-.15.22a1.43,1.43,0,0,1-.28.32,2.64,2.64,0,0,1-.94.6,3.22,3.22,0,0,1-1.08.17,2.38,2.38,0,0,1-2.38-1.28,4.88,4.88,0,0,1-.35-2.08V18Z"/><path class="cls-1" d="M107.84,18a2.4,2.4,0,0,1,.93.72,2.27,2.27,0,0,1,.46,1,7,7,0,0,1,.07,1.18v5h-2.15V20.86a1.76,1.76,0,0,0-.14-.75,1.05,1.05,0,0,0-1-.56,1.2,1.2,0,0,0-1.2.72,2.29,2.29,0,0,0-.17.92V26h-2.1V21.19a2.65,2.65,0,0,0-.15-1,1,1,0,0,0-1-.58,1.24,1.24,0,0,0-1.21.58,2.27,2.27,0,0,0-.17,1V26H97.82V18h2v1.17a3.2,3.2,0,0,1,.73-.89,2.54,2.54,0,0,1,1.58-.47,2.49,2.49,0,0,1,1.48.41,2.42,2.42,0,0,1,.69,1,2.62,2.62,0,0,1,1-1,3.12,3.12,0,0,1,1.44-.33,2.72,2.72,0,0,1,1,.21"/><path class="cls-1" d="M110.7,17.14l-.19,0h-.08v.37h.13a.24.24,0,0,0,.18,0,.18.18,0,0,0,.07-.15.16.16,0,0,0-.11-.15m-.6,1V16.89h.61A.57.57,0,0,1,111,17a.31.31,0,0,1,.17.31.27.27,0,0,1-.09.23.4.4,0,0,1-.22.09.52.52,0,0,1,.18.07.36.36,0,0,1,.12.3v.15a.06.06,0,0,0,0,0v0h-.32a.74.74,0,0,1,0-.18.44.44,0,0,0,0-.15.18.18,0,0,0-.09-.1l-.12,0h-.14v.45Zm-.17-1.32a.91.91,0,0,0-.28.67,1,1,0,0,0,.28.69.92.92,0,0,0,1.34,0,1,1,0,0,0,.27-.69.94.94,0,0,0-.27-.67.89.89,0,0,0-.67-.3.87.87,0,0,0-.67.3m1.47,1.51a1.09,1.09,0,0,1-.8.33,1.07,1.07,0,0,1-.81-.34,1.14,1.14,0,0,1-.34-.83,1.13,1.13,0,0,1,.36-.85,1.14,1.14,0,0,1,.79-.32,1.08,1.08,0,0,1,.81.35,1.14,1.14,0,0,1,.33.82,1.11,1.11,0,0,1-.34.84"/><path class="cls-1" d="M37.9,23.59H35.47a7,7,0,0,0-1.59-4.83,6.18,6.18,0,0,0-4.73-1.61V14.73a8.38,8.38,0,0,1,6.4,2.3,9.06,9.06,0,0,1,2.35,6.56M36.76,31a1.09,1.09,0,1,1,1.09-1.09A1.09,1.09,0,0,1,36.76,31m-2.22-2.18a1.09,1.09,0,1,1,1.09-1.09,1.09,1.09,0,0,1-1.09,1.09m-2.22-2.25a1.09,1.09,0,1,1,1.09-1.09,1.09,1.09,0,0,1-1.09,1.09m-2.14-2.4A1.09,1.09,0,1,1,31.27,23a1.09,1.09,0,0,1-1.09,1.09M23.26,31.4h16.8V14.6H23.26Z"/></svg>