<?xml version="1.0" encoding="utf-8"?>
<!-- Generator: Adobe Illustrator 25.4.1, SVG Export Plug-In . SVG Version: 6.00 Build 0)  -->
<svg version="1.1" id="Capa_1" xmlns="http://www.w3.org/2000/svg" xmlns:xlink="http://www.w3.org/1999/xlink" x="0px" y="0px"
	 viewBox="0 0 135 46" style="enable-background:new 0 0 135 46;" xml:space="preserve">
<style type="text/css">
	.st0{fill:#38444E;}
	.st1{fill:#E64860;}
	.st2{fill:#808791;}
	.st3{clip-path:url(#SVGID_00000035517883500674669200000010947460965423729076_);fill:#E64860;}
	.st4{fill:none;stroke:#E64860;stroke-width:0.6287;stroke-miterlimit:10;}
	.st5{fill:#194374;}
	.st6{fill:#00659B;}
	.st7{fill:#DC0D6E;}
	.st8{fill:#004D80;}
	.st9{fill:#7EA9D6;}
	.st10{fill:#B6D4EF;}
	.st11{fill:#058DC7;}
	.st12{fill:#00559F;}
	.st13{fill:#134A83;}
	.st14{fill:#B51975;}
	.st15{fill:#2497D0;}
	.st16{fill:#D80F3B;}
	.st17{fill:#9BC338;}
	.st18{fill:#008541;}
	.st19{fill:#9DC438;}
	
		.st20{clip-path:url(#SVGID_00000180368896589835729710000015012757561233727901_);fill:url(#SVGID_00000121993929836983521100000016140471060703074750_);}
	
		.st21{clip-path:url(#SVGID_00000007398754971069082830000000632544220853301397_);fill:url(#SVGID_00000168102502362531902040000013703583047410398863_);}
	
		.st22{clip-path:url(#SVGID_00000108995830533824996220000001710071601216451772_);fill:url(#SVGID_00000105423242823639744550000017161002656117059725_);}
	.st23{fill:#F9BE12;}
	.st24{clip-path:url(#SVGID_00000135659621021103467530000003114343926793920131_);}
	.st25{clip-path:url(#SVGID_00000085250560525387439450000005303402666761490051_);}
	.st26{clip-path:url(#SVGID_00000092426778708264613760000009535569345675189937_);}
	.st27{clip-path:url(#SVGID_00000015328698781354365110000001005928188224337281_);}
	.st28{clip-path:url(#SVGID_00000060730585792947937840000010896844324070323329_);}
	.st29{clip-path:url(#SVGID_00000027599519844706974820000000835769460544344487_);}
	.st30{clip-path:url(#SVGID_00000070816893208876363560000009062462185910590629_);}
	.st31{clip-path:url(#SVGID_00000008140590191535165610000007784889623226358974_);}
	.st32{clip-path:url(#SVGID_00000065781825170731946590000004670428017479028889_);}
	
		.st33{clip-path:url(#SVGID_00000077297023739999178220000007633344457405926584_);fill:url(#SVGID_00000014633972438555951080000014961733335327899042_);}
	.st34{clip-path:url(#SVGID_00000034054878549984763860000013150909721575631283_);}
	.st35{clip-path:url(#SVGID_00000019671655822319176270000013236091880975936662_);}
	.st36{clip-path:url(#SVGID_00000117641406331042067570000012707761636795025805_);}
	.st37{clip-path:url(#SVGID_00000060007275333943315160000004633247629961461944_);}
	.st38{clip-path:url(#SVGID_00000168075395059615193980000003565871289802604678_);}
	.st39{clip-path:url(#SVGID_00000060739641758704050070000003232207113754261173_);}
	.st40{fill:#009BDA;}
	.st41{fill:#CE1620;}
	.st42{fill:#171915;}
	.st43{fill:#E30750;}
	.st44{fill:#5775B5;}
	.st45{fill:none;stroke:#5775B5;stroke-width:0.5802;}
	.st46{fill:#5A595C;}
	.st47{fill:#FFFFFF;}
	.st48{fill:#364F8F;}
	.st49{fill:none;stroke:#364F8F;stroke-width:0.3873;}
	.st50{fill:none;stroke:#364F8F;stroke-width:1.3345;stroke-linecap:round;}
	.st51{fill:#656362;}
	.st52{fill:#C8D44A;}
	.st53{fill:#E42E38;}
	.st54{fill:none;stroke:#FFFFFF;stroke-width:0.4523;stroke-miterlimit:10;}
	.st55{fill:#51B054;}
	.st56{fill:#0079BB;}
	.st57{fill:#086EB0;}
	.st58{fill:#99A4AB;}
	.st59{fill:#B2A7A5;}
	.st60{fill:#931340;}
	.st61{fill:#DFDCD9;}
	.st62{fill:#27A1D7;}
	.st63{fill:none;stroke:#000000;stroke-width:0.1494;stroke-linejoin:bevel;stroke-miterlimit:22.926;}
	.st64{fill:none;stroke:#000000;stroke-width:0.1585;stroke-miterlimit:22.926;}
	.st65{fill:#EA3D36;stroke:#ED1C24;stroke-width:0.1417;stroke-linejoin:round;}
	.st66{fill:#EA3D36;}
</style>
<g>
	<polygon class="st6" points="107,12 97.7,12 86.8,22.9 89.2,12 81,12 75.4,36.8 83.7,36.8 86.1,26.3 92,36.8 101.4,36.8 94.6,24.4 
			"/>
	<path class="st6" d="M62.8,7.6c-8.2,0-12.6,3.8-14.4,11.7c-0.5,2.1-1.5,6.5-1.5,6.5s-5.1-9.2-7.5-13.9h-8.1l-5.5,24.8h8L37.1,23
		l7.6,13.9h7.7c0,0,2.7-11.9,3.9-17.2c1.3-5.7,4.9-9.7,12.6-9.7h39.4l2.3-2.3C110.6,7.6,71,7.6,62.8,7.6"/>
	<path class="st6" d="M61.6,14.2c-1.9,2.1-3,5.4-1.2,8.7c1,1.8,2.9,3.1,5.1,4.4c1,0.6,1.7,1.4,1.3,2.6c-0.3,0.8-1.1,1.8-3.2,1.4
		c-2.2-0.4-4.7-1.7-6.6-2.8l-1.5,6.7c6.6,2.9,14.6,3.5,18.3-2c2-3,1-6.2-0.4-8c-1.2-1.6-3-2.8-4.8-3.8c-1.4-0.7-1.7-2-1.2-2.9
		c1.5-2.6,6.1-0.3,9,2.1l1.4-6.5c-2.3-1.7-5.4-2.8-8.4-2.8C65.8,11.4,63.3,12.4,61.6,14.2"/>
</g>
</svg>
