<?xml version="1.0" encoding="utf-8"?>
<!-- Generator: Adobe Illustrator 25.4.1, SVG Export Plug-In . SVG Version: 6.00 Build 0)  -->
<svg version="1.1" id="Capa_1" xmlns="http://www.w3.org/2000/svg" xmlns:xlink="http://www.w3.org/1999/xlink" x="0px" y="0px"
	 viewBox="0 0 135 46" style="enable-background:new 0 0 135 46;" xml:space="preserve">
<style type="text/css">
	.st0{fill:#FFED00;}
</style>
<rect x="44.8" y="11.2" class="st0" width="1" height="23.7"/>
<path class="st0" d="M70.1,17.7V23c0,0.8,0,1.7-0.2,2.4c-0.3,0.7-0.8,1.5-2.4,1.5h0v0c0,0,0,0,0,0h0h0c-1.5,0-2.3-0.8-2.5-1.8
	c-0.1-0.6-0.1-1.2-0.1-2v-5.3h-2.1v6.6c0,2.4,1.5,4.4,4.7,4.4h0h0c3.2,0,4.7-2,4.7-4.4v-6.6H70.1z"/>
<polygon class="st0" points="93.4,28.5 84.2,28.5 84.2,26.8 90.9,19.4 84.4,19.4 84.4,17.7 93.4,17.7 93.4,19.4 86.9,26.8 
	93.4,26.8 "/>
<polygon class="st0" points="54.7,34.2 54.7,31.8 54.6,31.8 53.9,34.2 53.7,34.2 53,31.8 53,31.8 53,34.2 52.7,34.2 52.7,31.6 
	53.2,31.6 53.8,33.7 53.8,33.7 54.5,31.6 54.9,31.6 54.9,34.2 "/>
<rect x="55.9" y="31.6" class="st0" width="0.3" height="2.6"/>
<polygon class="st0" points="58,31.8 58,34.2 57.7,34.2 57.7,31.8 56.9,31.8 56.9,31.6 58.7,31.6 58.7,31.8 "/>
<path class="st0" d="M60.6,32.2c-0.1-0.2-0.3-0.4-0.6-0.4c-0.3,0-0.5,0.1-0.5,0.4c0,0.6,1.4,0.4,1.4,1.2c0,0.4-0.2,0.8-0.9,0.8
	c-0.6,0-0.8-0.4-0.9-0.7l0.3-0.1c0.1,0.3,0.3,0.5,0.7,0.5c0.4,0,0.6-0.2,0.6-0.5c0-0.7-1.4-0.5-1.4-1.3c0-0.4,0.3-0.7,0.8-0.7
	c0.4,0,0.7,0.2,0.8,0.6L60.6,32.2z"/>
<path class="st0" d="M62,31.6v1.8c0,0.3,0.2,0.5,0.6,0.5c0.4,0,0.6-0.2,0.6-0.5v-1.8h0.3v1.8c0,0.5-0.4,0.8-0.9,0.8
	c-0.5,0-0.9-0.3-0.9-0.8v-1.8H62z"/>
<rect x="64.6" y="31.6" class="st0" width="0.3" height="2.6"/>
<path class="st0" d="M68.8,33.4c-0.1,0.5-0.4,0.8-0.9,0.8c-0.6,0-1-0.4-1-1.3c0-0.8,0.4-1.3,1-1.3c0.5,0,0.8,0.3,0.9,0.7l-0.3,0.1
	c-0.1-0.4-0.3-0.6-0.6-0.6c-0.4,0-0.7,0.3-0.7,1.1c0,0.7,0.3,1.1,0.7,1.1c0.4,0,0.5-0.3,0.6-0.6L68.8,33.4z"/>
<polygon class="st0" points="71.3,31.6 71.3,34.2 71,34.2 71,32.9 69.8,32.9 69.8,34.2 69.5,34.2 69.5,31.6 69.8,31.6 69.8,32.7 
	71,32.7 71,31.6 "/>
<polygon class="st0" points="73.8,31.6 73.8,31.8 72.5,31.8 72.5,32.7 73.4,32.7 73.4,32.9 72.5,32.9 72.5,33.9 73.8,33.9 
	73.8,34.2 72.2,34.2 72.2,31.6 "/>
<polygon class="st0" points="76.5,34.2 76.5,31.8 76.5,31.8 75.8,34.2 75.6,34.2 74.9,31.8 74.8,31.8 74.8,34.2 74.6,34.2 
	74.6,31.6 75,31.6 75.7,33.7 75.7,33.7 76.3,31.6 76.8,31.6 76.8,34.2 "/>
<rect x="77.8" y="31.6" class="st0" width="0.3" height="2.6"/>
<path class="st0" d="M80.7,33.4c-0.1,0.5-0.4,0.8-0.9,0.8c-0.6,0-1-0.4-1-1.3c0-0.8,0.4-1.3,1-1.3c0.5,0,0.8,0.3,0.9,0.7l-0.3,0.1
	c-0.1-0.4-0.3-0.6-0.6-0.6c-0.4,0-0.7,0.3-0.7,1.1c0,0.7,0.3,1.1,0.7,1.1c0.4,0,0.5-0.3,0.6-0.6L80.7,33.4z"/>
<path class="st0" d="M81.8,33.1h0.8l-0.4-1.3h0L81.8,33.1z M81.2,34.2l0.8-2.6h0.4l0.8,2.6h-0.3l-0.2-0.8h-0.9l-0.2,0.8H81.2z"/>
<polygon class="st0" points="83.8,34.2 83.8,31.6 84.1,31.6 84.1,33.9 85.3,33.9 85.3,34.2 "/>
<path class="st0" d="M87.2,32.2c-0.1-0.2-0.3-0.4-0.6-0.4c-0.3,0-0.5,0.1-0.5,0.4c0,0.6,1.4,0.4,1.4,1.2c0,0.4-0.2,0.8-0.9,0.8
	c-0.6,0-0.8-0.4-0.9-0.7l0.3-0.1c0.1,0.3,0.3,0.5,0.7,0.5c0.4,0,0.6-0.2,0.6-0.5c0-0.7-1.4-0.5-1.4-1.3c0-0.4,0.3-0.7,0.8-0.7
	c0.4,0,0.7,0.2,0.8,0.6L87.2,32.2z"/>
<path class="st0" d="M91.3,32.9v1.2h-0.2v-0.2h0c-0.1,0.2-0.4,0.3-0.7,0.3c-0.6,0-1-0.4-1-1.3c0-0.9,0.4-1.3,1-1.3
	c0.4,0,0.8,0.2,0.9,0.8L91,32.4c-0.1-0.4-0.3-0.6-0.6-0.6c-0.4,0-0.7,0.3-0.7,1.1c0,0.8,0.4,1.1,0.7,1.1c0.4,0,0.6-0.3,0.6-0.6v-0.2
	h-0.6v-0.2H91.3z"/>
<path class="st0" d="M92.4,32.7h0.5c0.4,0,0.6-0.1,0.6-0.5c0-0.3-0.2-0.4-0.6-0.4h-0.5V32.7z M92.1,34.2v-2.6h0.8
	c0.6,0,0.9,0.2,0.9,0.7c0,0.4-0.2,0.6-0.5,0.7l0.5,1.2h-0.3L93,33h-0.6v1.2H92.1z"/>
<path class="st0" d="M95.5,34c0.5,0,0.7-0.3,0.7-1.1c0-0.7-0.3-1.1-0.7-1.1c-0.5,0-0.7,0.3-0.7,1.1C94.8,33.6,95,34,95.5,34
	 M95.5,31.5c0.6,0,1,0.5,1,1.3c0,0.9-0.4,1.3-1,1.3c-0.6,0-1-0.5-1-1.3C94.5,32,94.9,31.5,95.5,31.5"/>
<path class="st0" d="M97.5,31.6v1.8c0,0.3,0.2,0.5,0.6,0.5c0.4,0,0.6-0.2,0.6-0.5v-1.8h0.3v1.8c0,0.5-0.4,0.8-0.9,0.8
	c-0.5,0-0.9-0.3-0.9-0.8v-1.8H97.5z"/>
<path class="st0" d="M100.3,32.8h0.5c0.5,0,0.6-0.2,0.6-0.5c0-0.3-0.2-0.5-0.6-0.5h-0.5V32.8z M100,34.2v-2.6h0.9
	c0.5,0,0.8,0.3,0.8,0.7c0,0.4-0.3,0.7-0.9,0.7h-0.5v1.1H100z"/>
<polygon class="st0" points="97,26.8 97,24.1 103.4,24.1 103.4,22.5 97,22.5 97,19.5 103.9,19.5 103.9,17.7 95,17.7 95,28.5 
	97,28.5 104,28.5 104,26.8 "/>
<path class="st0" d="M112.5,23.7c1.3-0.4,2-1.4,2-2.8c0-1.8-1-3.2-3.5-3.2h-5.4v1.7h4.2l0.8,0c1.2,0,1.7,0.5,1.7,1.6
	c0,1-0.5,1.5-2.1,1.5h-0.4l-4.2,0v6.1h2.1v-4.4h2.8l2,4.4h2.3L112.5,23.7z"/>
<rect x="52.7" y="17.7" class="st0" width="2.1" height="10.8"/>
<polygon class="st0" points="74.1,28.5 74.1,17.7 76.2,17.7 76.2,26.8 82.8,26.8 82.8,28.5 "/>
<polygon class="st0" points="57.8,23 61.3,17.7 59.1,17.7 55.9,22.6 55.9,23.5 59.7,28.5 62,28.5 "/>
<path class="st0" d="M29.1,31.8c-4.9,0-8.9-4-8.9-8.9s4-8.9,8.9-8.9c4.9,0,8.9,4,8.9,8.9S34,31.8,29.1,31.8 M29,19.3
	c-0.8,0-1.6-0.5-2.6-0.5c-0.9,0-1.4,0.3-1.7,1.1c-0.3,0.8-0.7,4.3,0.5,7c0.7,1.7,2.5-2.5,3.8-2.5c1.3,0,3.2,4.2,3.9,2.5
	c1.1-2.7,0.6-6.2,0.3-7c-0.3-0.8-0.8-1-1.7-1C30.7,18.9,29.8,19.3,29,19.3"/>
</svg>
