<svg id="Capa_1" data-name="Capa 1" xmlns="http://www.w3.org/2000/svg" viewBox="0 0 135 46"><defs><style>.cls-1{fill:#00659b;}</style></defs><polygon class="cls-1" points="90.5 16.44 85.17 16.44 78.92 22.71 80.29 16.43 75.55 16.43 72.36 30.72 77.09 30.72 78.49 24.67 81.9 30.72 87.31 30.72 83.37 23.59 90.5 16.44"/><path class="cls-1" d="M65.12,13.92c-4.69,0-7.26,2.19-8.26,6.73-.27,1.2-.87,3.76-.87,3.76s-3-5.31-4.33-8H47L43.85,30.72h4.62l1.84-8,4.37,8h4.44s1.56-6.84,2.23-9.91c.73-3.31,2.82-5.57,7.27-5.57H91.26l1.31-1.33H65.12"/><path class="cls-1" d="M64.4,17.75a4.24,4.24,0,0,0-.67,5,7.47,7.47,0,0,0,2.93,2.52c.58.34,1,.81.73,1.49-.14.44-.64,1-1.86.78A13.66,13.66,0,0,1,61.76,26l-.88,3.84c3.8,1.65,8.41,2,10.51-1.17A4,4,0,0,0,71.17,24a8.12,8.12,0,0,0-2.74-2.19,1.2,1.2,0,0,1-.67-1.65c.85-1.51,3.52-.2,5.16,1.23l.83-3.73a8.2,8.2,0,0,0-4.84-1.59,5.78,5.78,0,0,0-4.51,1.65"/></svg>