<svg id="Capa_1" data-name="Capa 1" xmlns="http://www.w3.org/2000/svg" viewBox="0 0 135 46"><defs><style>.cls-1{fill:#0079bb;}.cls-2{fill:#fff;}</style></defs><polygon class="cls-1" points="27.46 23.28 67.13 11.32 107.54 23.26 67.05 34.68 27.46 23.28"/><path class="cls-2" d="M43.28,19.35c16.3-4.71,33.24-4.58,47.78-.24,4.46,1.66,4.28,6.62,0,7.85a85.27,85.27,0,0,1-47.8,0,4,4,0,0,1,.07-7.61"/><path class="cls-1" d="M53.25,23.34h-2c-.17,0-.23.08-.23.21v3.22c0,.13,0,.24-.2.24H49.35s-.2-.08-.2-.2V19a.19.19,0,0,1,.2-.2h1.46c.12,0,.2.18.2.2v2.27c0,.12,0,.22.19.22h2a.16.16,0,0,0,.19-.19V19a.19.19,0,0,1,.21-.2h1.45a.24.24,0,0,1,.21.2v7.81a.38.38,0,0,1-.21.2H53.62s-.21-.05-.21-.2v-3.3a.15.15,0,0,0-.16-.17"/><path class="cls-1" d="M71,18.78H72.3a.21.21,0,0,1,.2.22v7.78a.21.21,0,0,1-.2.22H71a.21.21,0,0,1-.2-.22V19a.21.21,0,0,1,.2-.22"/><path class="cls-1" d="M59.75,18.64a4.1,4.1,0,0,1,4,4.24,4,4,0,1,1-7.9,0,4.1,4.1,0,0,1,4-4.24"/><path class="cls-2" d="M59.73,20.69a2.22,2.22,0,1,1-2,2.2,2.11,2.11,0,0,1,2-2.2"/><path class="cls-1" d="M82.61,18.64a4.1,4.1,0,0,1,4,4.24,4,4,0,1,1-7.91,0,4.11,4.11,0,0,1,4-4.24"/><path class="cls-2" d="M82.58,20.69a2.22,2.22,0,1,1-2,2.2,2.11,2.11,0,0,1,2-2.2"/><path class="cls-1" d="M78.57,24.86l.11,1.91a4.3,4.3,0,0,1-1.6.36,4.06,4.06,0,0,1-4-4.24,4.06,4.06,0,0,1,4-4.25,2.18,2.18,0,0,1,1.26.24c.09.05.16.09.15.3l-.06,1.5c0,.3-.18.37-.42.27a1.68,1.68,0,0,0-.93-.26c-1.35,0-1.92,1-1.92,2.21A1.91,1.91,0,0,0,77.07,25a1.32,1.32,0,0,0,1-.32c.11-.11.5-.33.47.14"/><path class="cls-1" d="M65.8,18.77c1.35,0,2.69-.07,3.78,1.16,1.36,1.64.39,3.7-1.08,4.6a.33.33,0,0,0,.1.49,2.75,2.75,0,0,0,1.09.36c.13,0,.19,0,.19.2v1.24c0,.16-.06.16-.19.16a4.13,4.13,0,0,1-3-1.29A.37.37,0,0,0,66,26v.75c0,.16,0,.24-.24.23H64.52c-.22,0-.27-.08-.27-.29V19c0-.18,0-.24.24-.26Z"/><path class="cls-2" d="M66,22.6V20.89c0-.18.09-.24.28-.27h1.07a1.17,1.17,0,0,1,0,2.33H66.21c-.15,0-.21-.15-.21-.35"/><path class="cls-1" d="M95.51,14.57s0,0,0-.05l0,0,0,0h-.17v.24h.1a.16.16,0,0,0,.11,0,.12.12,0,0,0,0-.09m.37.68v0h-.31l0,0s0,0,0,0l0-.16a.23.23,0,0,0,0-.12.13.13,0,0,0-.1,0h-.06v.32a.06.06,0,0,1,0,0H95a0,0,0,0,1,0,0v-.86a.18.18,0,0,1,0-.11.15.15,0,0,1,.1,0h.33l.17,0,.14,0a.22.22,0,0,1,.09.1.29.29,0,0,1,0,.14.29.29,0,0,1-.07.19.31.31,0,0,1-.17.09l.12.07a.32.32,0,0,1,.08.13l0,.15a.51.51,0,0,1,0,.09m.25-.45a1,1,0,0,0,0-.31.72.72,0,0,0-.16-.25.63.63,0,0,0-.23-.16.8.8,0,0,0-.3-.06.75.75,0,0,0-.31.06,1,1,0,0,0-.24.16.7.7,0,0,0-.15.25.72.72,0,0,0-.06.29.78.78,0,0,0,.06.31.87.87,0,0,0,.15.25.78.78,0,0,0,.24.16.73.73,0,0,0,.3.06.78.78,0,0,0,.31-.06,1,1,0,0,0,.24-.16.87.87,0,0,0,.15-.25.93.93,0,0,0,0-.29m.3,0a1.06,1.06,0,0,1-.08.4,1,1,0,0,1-.23.33,1,1,0,0,1-.33.22,1.15,1.15,0,0,1-.41.08,1.16,1.16,0,0,1-.42-.08.93.93,0,0,1-.33-.21,1.21,1.21,0,0,1-.22-.32,1.16,1.16,0,0,1-.07-.42.9.9,0,0,1,.08-.4,1,1,0,0,1,.22-.33,1.11,1.11,0,0,1,.34-.22,1.07,1.07,0,0,1,.41-.08,1.09,1.09,0,0,1,.75.29.93.93,0,0,1,.21.33.91.91,0,0,1,.08.41"/></svg>