<svg id="Capa_1" data-name="Capa 1" xmlns="http://www.w3.org/2000/svg" viewBox="0 0 135 46"><defs><style>.cls-1{fill:#dc0d6e;}</style></defs><path class="cls-1" d="M64.25,30.86h0a1,1,0,0,1-1-1V16.16h0a1,1,0,0,1,.3-.72,1,1,0,0,1,.71-.29H65V13.48H58.17v1.66h.72a1,1,0,0,1,.71.29,1,1,0,0,1,.3.72v13.7a1,1,0,0,1-1,1H57.81v1.66h7.37V30.86h-.94"/><path class="cls-1" d="M53.51,16l-3,11.61-3-11.23h0a1.09,1.09,0,0,1,0-.26,1,1,0,0,1,1-1h.75V13.48H41.76v1.66h.93a1,1,0,0,1,1,.74v0h0l4.5,16.57v.05h3l0-.06,4.28-16.54"/><path class="cls-1" d="M55.48,15.92a1,1,0,0,1,.94-.78h.85V13.48H51.82v1.66h1a.72.72,0,0,1,.72.71,1.11,1.11,0,0,1,0,.19"/><path class="cls-1" d="M78.26,13.48H65.81V18h1.9v-1.8h0a1,1,0,0,1,1-1h1.7V29.85a1,1,0,0,1-1,1H68.33v1.66h7.34V30.86h-.94a1,1,0,0,1-1-1V15.14h1.71a1,1,0,0,1,1,1V18h1.9V13.48"/><path class="cls-1" d="M81.61,24.15h0l2.32-8.95h0l2.42,9H81.61M91.6,30,87.12,13.53l0,0H82.44l0,0L78.14,30.05v0a1,1,0,0,1-1,.77h-.67v1.66h5.61V30.86h-.91a1,1,0,0,1-1-1,1.07,1.07,0,0,1,0-.25h0s.86-3.31,1-3.76h5.64l.19.72.79,3h0a1.07,1.07,0,0,1,0,.25,1,1,0,0,1-1,1H85.9v1.66h7.34V30.86h-.63a1,1,0,0,1-1-.77Z"/></svg>