<svg xmlns="http://www.w3.org/2000/svg" viewBox="0 0 75 19.96"><defs><style>.cls-1{fill:#7ea9d6;}.cls-2{fill:#b6d4ef;}.cls-3{fill:#058dc7;}.cls-4{fill:#00559f;}</style></defs><g id="Capa_2" data-name="Capa 2"><g id="Capa_1-2" data-name="Capa 1"><path class="cls-1" d="M20,10.63c0-.22,0-.45,0-.67A10,10,0,0,0,11.81.11C15.27,3.22,18.9,8.87,20,10.63"/><path class="cls-2" d="M7.33,19.6A10.26,10.26,0,0,0,10,20a10,10,0,0,0,8.79-5.22c-3.53,2.27-9,4.11-11.47,4.86"/><path class="cls-3" d="M3.74,14.18c-.22,0-1.3-.22-1.3-1.83a7.73,7.73,0,0,1,.9-3.23c.27-.41.21,0,.2.11-.17,2.08.94,3.07.94,3.9s-.52,1-.74,1M9,4.13c-1.08.6-4.22,2.69-4.87,3.13S3,7.87,4,6.39A44.72,44.72,0,0,1,9,0,10,10,0,0,0,3.33,17.41c1.53-3,6.06-11.92,6.42-12.68.43-.91.3-1.21-.79-.6"/><path class="cls-4" d="M74.3,14.48H75v-.69h-.7Zm-2.32,0h1.9v-.69H72.7V10.61H72Zm-1.45,0h.7v-.69h-.7Zm-3-1.09a1.23,1.23,0,0,0,1.25,1.19A1.24,1.24,0,0,0,70,13.35a1.06,1.06,0,0,0-.4-.88,2.29,2.29,0,0,0-.76-.35c-.23-.08-.49-.19-.49-.48a.38.38,0,0,1,.39-.41.43.43,0,0,1,.43.41h.74a1.14,1.14,0,0,0-2.27,0,1.07,1.07,0,0,0,.3.74,1.51,1.51,0,0,0,.67.36c.32.1.68.23.68.65a.49.49,0,0,1-.51.49.5.5,0,0,1-.54-.49Zm-4.4,1.09h.69V13.17a1.47,1.47,0,0,1,.12-.75.6.6,0,0,1,.49-.25.57.57,0,0,1,.46.24,1.41,1.41,0,0,1,.12.71v1.36h.69V13a1.68,1.68,0,0,0-.23-1.05.27.27,0,0,0-.07-.08,1.13,1.13,0,0,0-.83-.36,1,1,0,0,0-.79.36h0v-.27h-.64Zm-2.75-1.76a.85.85,0,0,1,.8-.55.81.81,0,0,1,.79.55Zm2.26.62c0-.11,0-.22,0-.33a1.52,1.52,0,0,0-1.49-1.52,1.55,1.55,0,0,0,0,3.09,1.52,1.52,0,0,0,1.39-.94h-.77a.86.86,0,0,1-.65.26.78.78,0,0,1-.76-.56Zm-4.79-1.17a.87.87,0,0,1,0,1.73A.86.86,0,0,1,57,13a.85.85,0,0,1,.88-.83M56.3,14.48h.64v-.39h0a1.1,1.1,0,0,0,1,.49A1.38,1.38,0,0,0,59,14.09,1.78,1.78,0,0,0,59.36,13a1.49,1.49,0,0,0-1.46-1.54,1.1,1.1,0,0,0-.9.39h0V10.61H56.3Zm-1.68,0h.7V12.92a.67.67,0,0,1,.2-.62.71.71,0,0,1,.42-.14v-.67h0a.66.66,0,0,0-.62.35h0v-.26h-.64ZM53.44,13a.83.83,0,0,1-.84.87.87.87,0,1,1,0-1.73.81.81,0,0,1,.83.86m.66-1.45h-.64V12a1.16,1.16,0,0,0-1-.5,1.37,1.37,0,0,0-1.08.5A1.46,1.46,0,0,0,51,13a1.66,1.66,0,0,0,.36,1.06,1.36,1.36,0,0,0,1.07.49,1.24,1.24,0,0,0,1-.49h0v.39h.64Zm-4.19,2.9h.69V10.61h-.69Zm-1.24-1.05a1.35,1.35,0,0,1-1,.45,1.33,1.33,0,1,1,1-2.16h.82a2,2,0,0,0-1.84-1.18,2,2,0,0,0,0,4,2,2,0,0,0,1.8-1.15Zm-6.52.21a.9.9,0,1,0,1.8,0c0-.52-.37-.7-.8-.84-.26-.08-.51-.16-.51-.48a.39.39,0,0,1,.4-.39.41.41,0,0,1,.45.4h.38a.81.81,0,0,0-1.61,0,.7.7,0,0,0,.23.54,1.22,1.22,0,0,0,.51.25c.29.08.56.21.56.55a.47.47,0,0,1-.5.48.52.52,0,0,1-.52-.54Zm-1.8-1.71a1.13,1.13,0,0,1,.76.31,1,1,0,0,1,.34.79,1.11,1.11,0,0,1-1.1,1.15,1.13,1.13,0,0,1,0-2.25m0-.37A1.5,1.5,0,1,0,41.84,13a1.5,1.5,0,0,0-1.49-1.47m-2.44-.29h.39v-.66h-.39Zm0,3.21h.39V11.62h-.39Zm-1.58,0h.39v-1.6a.8.8,0,0,1,.29-.74.79.79,0,0,1,.52-.2v-.38a.84.84,0,0,0-.82.47h0v-.41h-.37Zm-2-2.55a1.13,1.13,0,0,1,.76.31,1,1,0,0,1,.34.79,1.11,1.11,0,1,1-1.1-1.1m0-.37A1.5,1.5,0,1,0,35.78,13a1.51,1.51,0,0,0-1.48-1.47m-2.84,2.92h.38V12h.67v-.35h-.67v-1h-.38v1h-.6V12h.6ZM29,11.93a1.12,1.12,0,0,1,1.13,1.14A1.14,1.14,0,1,1,29,11.93m1.5-.31H30.1v.54h0a1.2,1.2,0,0,0-1.11-.6,1.49,1.49,0,0,0-1.12.47,1.44,1.44,0,0,0-.41,1,1.53,1.53,0,0,0,.28.91,1.7,1.7,0,0,0,1.26.61,1.18,1.18,0,0,0,1.1-.61h0v.54h.37ZM26,14.48h.39v-1.6a.8.8,0,0,1,.29-.74.79.79,0,0,1,.52-.2v-.38a.84.84,0,0,0-.82.47h0v-.41H26Zm-2-2.55a1.13,1.13,0,0,1,.76.31A1,1,0,0,1,25,13a1.11,1.11,0,1,1-1.1-1.1m0-.37A1.5,1.5,0,1,0,25.42,13a1.51,1.51,0,0,0-1.48-1.47m-3.49.37a1.12,1.12,0,0,1,1.16,1.12,1.14,1.14,0,0,1-1.13,1.13,1.12,1.12,0,0,1-1.15-1.11,1.05,1.05,0,0,1,.31-.8,1.11,1.11,0,0,1,.81-.34M19,14.48h.37V14a1.37,1.37,0,0,0,1.14.56A1.42,1.42,0,0,0,21.65,14,1.49,1.49,0,0,0,22,13a1.51,1.51,0,0,0-1.55-1.48,1.18,1.18,0,0,0-1.08.59V10.61H19Zm-2.15-2.55a1.11,1.11,0,0,1,1.12,1.14,1.13,1.13,0,0,1-1.11,1.11,1.15,1.15,0,0,1-1.16-1.12,1.14,1.14,0,0,1,1.15-1.13m1.49-.31h-.37v.54h0a1.21,1.21,0,0,0-1.11-.6,1.5,1.5,0,0,0-1.25,2.38,1.67,1.67,0,0,0,1.26.61,1.2,1.2,0,0,0,1.1-.61h0v.54h.37ZM13,14.48h2v-.35h-1.6V10.61H13Z"/></g></g></svg>