<svg xmlns="http://www.w3.org/2000/svg" viewBox="0 0 50.46 18.55"><defs><style>.cls-1{fill:#004d80;}</style></defs><g id="Capa_2" data-name="Capa 2"><g id="Capa_1-2" data-name="Capa 1"><polygon class="cls-1" points="0 0 4.27 0 4.27 6.99 9.66 0 14.95 0 8.9 7.17 15.71 18.16 10.41 18.16 6.01 10.52 4.27 12.56 4.27 18.16 0 18.16 0 0"/><path class="cls-1" d="M18.57,10.19c.22-1.6,1.14-2.7,2.51-2.7a2.57,2.57,0,0,1,2.31,2.7Zm8.71,2.41c.18-4.47-1.94-8-6.2-8-3.5,0-6.41,2.9-6.41,7,0,4.45,2.64,7,6.5,7,2.65,0,5.2-1.32,5.9-4.38H23.44a2.31,2.31,0,0,1-2.22,1.46c-1.65,0-2.59-1.21-2.65-3Z"/><path class="cls-1" d="M28.62,5H32.4V7.26h.05A3.59,3.59,0,0,1,36,4.69a4.12,4.12,0,0,1,.92.1v4a5.11,5.11,0,0,0-1.49-.25,2.9,2.9,0,0,0-2.94,3.13v6.55H28.62Z"/><path class="cls-1" d="M38.13,5h3.78V7.26H42a3.59,3.59,0,0,1,3.57-2.57,4.12,4.12,0,0,1,.92.1v4A5,5,0,0,0,45,8.49,2.89,2.89,0,0,0,42,11.62v6.55h-3.9Z"/><path class="cls-1" d="M48.51,4h-.46v1.3H47.8V4h-.47V3.76h1.18Zm2,1.3h-.25V4h0l-.49,1.25h-.15L49.07,4h0V5.25h-.24V3.76h.38l.44,1.13.44-1.13h.38Z"/></g></g></svg>