<svg id="Capa_1" data-name="Capa 1" xmlns="http://www.w3.org/2000/svg" xmlns:xlink="http://www.w3.org/1999/xlink" viewBox="0 0 135 46"><defs><style>.cls-1,.cls-5{fill:none;}.cls-2{fill:#e64860;}.cls-3{fill:#808791;}.cls-4{clip-path:url(#clip-path);}.cls-5{stroke:#e64860;stroke-miterlimit:10;stroke-width:0.4px;}</style><clipPath id="clip-path"><path class="cls-1" d="M30,23a7.06,7.06,0,1,0,7.06-7.06A7.06,7.06,0,0,0,30,23"/></clipPath></defs><polygon class="cls-2" points="56.77 19.3 53.98 19.3 52.34 26.58 52.31 26.58 50.64 19.3 47.83 19.3 47.83 28.53 49.63 28.53 49.63 20.82 49.65 20.82 51.34 28.53 53.23 28.53 54.95 20.82 54.97 20.82 54.97 28.53 56.77 28.53 56.77 19.3"/><polygon class="cls-2" points="65.41 19.3 58.62 19.3 58.62 28.53 65.63 28.53 65.63 26.9 60.51 26.9 60.51 24.51 65.01 24.51 65.01 22.88 60.51 22.88 60.51 20.93 65.41 20.93 65.41 19.3"/><path class="cls-2" d="M66.72,25.69c0,1.14.58,3.08,4,3.08.81,0,3.63-.24,3.63-3,0-1.65-1.15-2.17-2.41-2.48l-2.25-.55c-.39-.09-1-.24-1-1s.88-1.11,1.61-1.11c1.68,0,1.84,1,1.89,1.39H74c0-1.13-.77-3-3.6-3-3,0-3.55,1.81-3.55,2.84,0,2,1.44,2.36,2.93,2.71l1,.23c1,.23,1.67.43,1.67,1.15,0,1-1,1.19-1.92,1.19-1.69,0-2-1-2-1.49Z"/><polygon class="cls-2" points="79.69 20.93 82.48 20.93 82.48 19.3 74.97 19.3 74.97 20.93 77.76 20.93 77.76 28.53 79.69 28.53 79.69 20.93"/><path class="cls-2" d="M85.51,23.36V20.9h2.41c1.13,0,1.35.72,1.35,1.2,0,.92-.49,1.26-1.5,1.26Zm-1.89,5.17h1.89V24.92h2c1.43,0,1.51.49,1.51,1.75a6.48,6.48,0,0,0,.2,1.86h2.14v-.24c-.41-.16-.41-.49-.41-1.84,0-1.72-.42-2-1.17-2.34a2.2,2.2,0,0,0,1.42-2.2,2.6,2.6,0,0,0-2.9-2.61H83.62Z"/><path class="cls-2" d="M96.55,21.38h0L97.72,25H95.37Zm-1.69,5.25h3.4l.59,1.9H101L97.7,19.3H95.47l-3.29,9.23h2Z"/><path class="cls-2" d="M104.31,21.4a1.75,1.75,0,0,1-1.72,1.85h0a1.74,1.74,0,0,1-1.73-1.85,1.73,1.73,0,1,1,3.45,0m.69,0a2.42,2.42,0,1,0-2.41,2.41A2.32,2.32,0,0,0,105,21.4m-2.81-.24v-.62h.39c.21,0,.49,0,.49.29s-.14.33-.39.33Zm0,.44h.26l.6,1.09h.65L103,21.56a.61.61,0,0,0,.62-.67c0-.6-.39-.79-1.06-.79h-1v2.59h.56Z"/><path class="cls-3" d="M37.06,15.94A7.06,7.06,0,1,1,30,23a7.06,7.06,0,0,1,7.06-7.06"/><g class="cls-4"><polygon class="cls-2" points="28.48 30.7 35.33 31.04 35.33 22.74 39.13 26.55 44.48 20.86 41.61 16.29 39.17 19.15 34.3 14.45 28.4 14.45 28.48 30.7"/></g><path class="cls-5" d="M37.06,15.94A7.06,7.06,0,1,1,30,23,7.06,7.06,0,0,1,37.06,15.94Z"/></svg>