<?xml version="1.0" encoding="utf-8"?>
<!-- Generator: Adobe Illustrator 25.4.1, SVG Export Plug-In . SVG Version: 6.00 Build 0)  -->
<svg version="1.1" id="Capa_1" xmlns="http://www.w3.org/2000/svg" xmlns:xlink="http://www.w3.org/1999/xlink" x="0px" y="0px"
	 viewBox="0 0 135 46" style="enable-background:new 0 0 135 46;" xml:space="preserve">
<style type="text/css">
	.st0{fill:#38444E;}
	.st1{fill:#E64860;}
	.st2{fill:#808791;}
	.st3{clip-path:url(#SVGID_00000133515222408578272430000013683197764148448686_);fill:#E64860;}
	.st4{fill:none;stroke:#E64860;stroke-width:0.6287;stroke-miterlimit:10;}
	.st5{fill:#194374;}
	.st6{fill:#00659B;}
	.st7{fill:#DC0D6E;}
	.st8{fill:#004D80;}
	.st9{fill:#7EA9D6;}
	.st10{fill:#B6D4EF;}
	.st11{fill:#058DC7;}
	.st12{fill:#00559F;}
	.st13{fill:#134A83;}
	.st14{fill:#B51975;}
	.st15{fill:#2497D0;}
	.st16{fill:#D80F3B;}
	.st17{fill:#9BC338;}
	.st18{fill:#008541;}
	.st19{fill:#9DC438;}
	
		.st20{clip-path:url(#SVGID_00000177460401003519707270000011204449604573542030_);fill:url(#SVGID_00000024713767486973159220000010819966336411421339_);}
	
		.st21{clip-path:url(#SVGID_00000115490457164098061350000002521825930669129896_);fill:url(#SVGID_00000052076245416534144820000001691518990417505422_);}
	
		.st22{clip-path:url(#SVGID_00000021802798880486989750000006200972966618245032_);fill:url(#SVGID_00000093880668182064012970000008445783231549809584_);}
	.st23{fill:#F9BE12;}
	.st24{clip-path:url(#SVGID_00000012469015414873825930000003826369367060255904_);}
	.st25{clip-path:url(#SVGID_00000015354698044304616550000001709137745804723594_);}
	.st26{clip-path:url(#SVGID_00000132796266008480658030000008148789443184536463_);}
	.st27{clip-path:url(#SVGID_00000119830324068549023970000018419906243078266555_);}
	.st28{clip-path:url(#SVGID_00000069368859520722578870000005878446374391537319_);}
	.st29{clip-path:url(#SVGID_00000095298237563229527040000009621851868774385338_);}
	.st30{clip-path:url(#SVGID_00000043455461737842425500000011912169953169682331_);}
	.st31{clip-path:url(#SVGID_00000183243266789240130160000016519222719276130969_);}
	.st32{clip-path:url(#SVGID_00000147199669875179992560000001297008800060532645_);}
	
		.st33{clip-path:url(#SVGID_00000139257006522151101060000004566195682940258194_);fill:url(#SVGID_00000021083443568336775090000002249953386880645025_);}
	.st34{clip-path:url(#SVGID_00000100349173785614770560000017953278331701568955_);}
	.st35{clip-path:url(#SVGID_00000178183610574217741920000017417431977827347850_);}
	.st36{clip-path:url(#SVGID_00000095313954156781838710000006188889834878922652_);}
	.st37{clip-path:url(#SVGID_00000041980827467627599860000010908699315915904682_);}
	.st38{clip-path:url(#SVGID_00000169547552351872427580000014520708970445902777_);}
	.st39{clip-path:url(#SVGID_00000028309918474466164240000002439671921914226089_);}
	.st40{fill:#009BDA;}
	.st41{fill:#CE1620;}
	.st42{fill:#171915;}
	.st43{fill:#E30750;}
	.st44{fill:#5775B5;}
	.st45{fill:none;stroke:#5775B5;stroke-width:0.5802;}
	.st46{fill:#5A595C;}
	.st47{fill:#FFFFFF;}
	.st48{fill:#364F8F;}
	.st49{fill:none;stroke:#364F8F;stroke-width:0.3873;}
	.st50{fill:none;stroke:#364F8F;stroke-width:1.3345;stroke-linecap:round;}
	.st51{fill:#656362;}
	.st52{fill:#C8D44A;}
	.st53{fill:#E42E38;}
	.st54{fill:none;stroke:#FFFFFF;stroke-width:0.4523;stroke-miterlimit:10;}
	.st55{fill:#51B054;}
	.st56{fill:#0079BB;}
	.st57{fill:#086EB0;}
	.st58{fill:#99A4AB;}
	.st59{fill:#B2A7A5;}
	.st60{fill:#931340;}
	.st61{fill:#DFDCD9;}
	.st62{fill:#27A1D7;}
	.st63{fill:none;stroke:#000000;stroke-width:0.1494;stroke-linejoin:bevel;stroke-miterlimit:22.926;}
	.st64{fill:none;stroke:#000000;stroke-width:0.1585;stroke-miterlimit:22.926;}
	.st65{fill:#EA3D36;stroke:#ED1C24;stroke-width:0.1417;stroke-linejoin:round;}
	.st66{fill:#EA3D36;}
</style>
<g>
	<g>
		<g>
			<g>
				<path class="st17" d="M78.3,37.6c0,1.7,0,3.4,0,5.1c-0.3,0-0.7,0-1,0c-0.2,0-0.4-0.1-0.5-0.2c-0.6-0.8-1.3-1.7-1.9-2.5
					c0,0-0.1-0.1-0.1-0.2c0,1,0,1.9,0,2.9c-0.5,0-1,0-1.5,0c0-1.7,0-3.4,0-5.1c0.2,0,0.5,0,0.7,0c0.2,0,0.4,0,0.6,0
					c0.2,0.1,0.3,0.3,0.4,0.4c0.6,0.7,1.2,1.5,1.7,2.2c0,0,0.1,0.1,0.1,0.2c0-1,0-1.9,0-2.9C77.3,37.6,77.8,37.6,78.3,37.6z"/>
				<path class="st17" d="M66.4,37.6c0,1.7,0,3.4,0,5.1c-0.5,0-1,0-1.5,0c0-0.7,0-1.3,0-2c-0.6,0-1.2,0-1.8,0c0,0.6,0,1.3,0,2
					c-0.5,0-1,0-1.5,0c0-1.7,0-3.4,0-5.1c0.5,0,1,0,1.5,0c0,0.6,0,1.3,0,1.9c0.6,0,1.2,0,1.8,0c0-0.6,0-1.3,0-1.9
					C65.4,37.6,65.9,37.6,66.4,37.6z"/>
				<path class="st17" d="M84,39.2c-0.3,0-0.6,0.1-0.8,0.1c-0.2,0-0.4,0-0.6,0c0,0-0.1,0-0.1-0.1c-0.1-0.3-0.4-0.5-0.8-0.5
					c-0.4,0-0.7,0.1-0.9,0.4c-0.2,0.3-0.2,0.5-0.3,0.8c0,0.4,0,0.7,0.1,1.1c0.2,0.4,0.4,0.6,0.8,0.6c0.3,0,0.7,0,1-0.1
					c0.1,0,0.1-0.1,0.1-0.2c0-0.2,0-0.3,0-0.5c-0.3,0-0.6,0-0.9,0c0-0.3,0-0.7,0-1c0.8,0,1.5,0,2.3,0c0,0,0,0.1,0,0.1
					c0,0.7,0,1.3,0,2c0,0.1,0,0.2-0.1,0.2c-1,0.6-2,0.8-3.1,0.5c-1.1-0.2-1.8-1.1-1.9-2.2c0-0.7,0.1-1.3,0.5-1.9
					c0.4-0.6,1-0.9,1.6-1c0.7-0.1,1.4,0,2,0.4C83.6,38.2,83.9,38.6,84,39.2z"/>
				<path class="st17" d="M61.1,42.7c-0.5,0-1,0-1.5,0c0,0-0.1-0.1-0.1-0.1c-0.1-0.3-0.2-0.5-0.3-0.8c0-0.1-0.1-0.1-0.2-0.1
					c-0.6,0-1.1,0-1.7,0c-0.1,0-0.1,0-0.2,0.1c-0.1,0.3-0.2,0.5-0.3,0.8c0,0-0.1,0.1-0.1,0.1c-0.5,0-0.9,0-1.4,0
					c0-0.1,0-0.1,0.1-0.2c0.6-1.6,1.3-3.2,1.9-4.8c0-0.1,0.1-0.1,0.2-0.1c0.5,0,0.9,0,1.4,0c0.1,0,0.1,0,0.2,0.1
					C59.7,39.4,60.4,41,61.1,42.7C61.1,42.6,61.1,42.7,61.1,42.7z M57.7,40.5c0.4,0,0.7,0,1.1,0c-0.2-0.5-0.3-0.9-0.5-1.4
					C58,39.6,57.9,40.1,57.7,40.5z"/>
				<path class="st17" d="M54.2,42.7c-0.5,0-1,0-1.5,0c0-0.1,0-0.2,0-0.3c0-0.5,0-1.1,0-1.6c0-0.1,0-0.2-0.1-0.3
					c-0.6-0.9-1.2-1.8-1.8-2.7c0,0-0.1-0.1-0.1-0.2c0.1,0,0.2,0,0.4,0c0.4,0,0.8,0,1.2,0c0.1,0,0.2,0,0.3,0.1c0.3,0.5,0.7,1.1,1,1.6
					c0-0.1,0.1-0.1,0.1-0.2c0.3-0.5,0.6-1,0.9-1.5c0.1-0.1,0.1-0.1,0.2-0.1c0.5,0,1,0,1.5,0c0,0.1-0.1,0.1-0.1,0.2
					c-0.6,0.9-1.2,1.8-1.8,2.7c-0.1,0.1-0.1,0.2-0.1,0.3C54.2,41.4,54.2,42,54.2,42.7z"/>
			</g>
		</g>
		<path class="st17" d="M72,41.2c-0.2-0.4-0.5-0.8-0.8-1.1C71.1,40,71,39.9,71,39.9c0,0.4,0,0.8-0.1,1.2c-0.2,0.4-0.6,0.6-1,0.6
			c-0.5,0-0.8-0.2-1-0.6c-0.1-0.3-0.2-0.5-0.2-0.8c0-0.3,0-0.6,0.2-0.9c0.2-0.4,0.5-0.6,1-0.6c0.2,0,0.3,0,0.5,0.1l0,0
			c0,0,0.1,0,0.1,0c0,0,0,0,0,0c0.5,0.2,0.9,0.5,1.2,0.9c0.3,0.4,0.6,0.9,0.7,1.3c0,0,0,0.1,0,0.1c0.1-0.3,0.2-0.6,0.2-1
			c0-0.7-0.2-1.4-0.7-1.9c-0.5-0.5-1-0.7-1.7-0.7c-0.7-0.1-1.4,0-1.9,0.4c-0.8,0.5-1.1,1.3-1.1,2.2c0,0.7,0.2,1.3,0.7,1.8
			c0.5,0.5,1,0.7,1.7,0.8c0.8,0.1,1.5-0.1,2.1-0.6c0.2-0.2,0.4-0.4,0.5-0.6C72.1,41.5,72.1,41.3,72,41.2z"/>
	</g>
	<ellipse class="st18" cx="69.2" cy="21.2" rx="9" ry="5.3"/>
	<path class="st18" d="M84.3,19.3c0,8.9-7.5,16.1-16.8,16.1s-16.8-7.2-16.8-16.1S58.2,3.2,67.5,3.2S84.3,10.4,84.3,19.3z M67.4,29.8
		c7.4,0,13.3-3.4,13.3-7.6s-6-7.6-13.3-7.6c-7.4,0-13.3,3.4-13.3,7.6S60,29.8,67.4,29.8z M59.5,10.3l1.2,2.5c0,0,0.4,0.5,0.5-0.1
		c0-0.6,0-1.3,0.3-1.3s0.8,0.9,0.8,1c0.1,0.1,0.5,0.3,0.5-0.4c0-0.7,0-2.5,0-2.5s-0.1-0.9-2-0.5C59,9.5,59.5,10.3,59.5,10.3z"/>
	<g>
		<path class="st19" d="M67.4,14c0.4,0,0.7,0,1.1,0l1.3-5.6c0.1-0.3-0.2-0.6-0.5-0.6h-2.8c-0.2,0-0.4,0.2-0.5,0.4l-1.4,5.9
			C65.5,14.1,66.5,14,67.4,14z"/>
		<path class="st19" d="M63.9,17.5l-1.5,6.4c-0.1,0.3,0.2,0.6,0.5,0.6h2.8c0.2,0,0.4-0.2,0.5-0.4l1.8-7.6C66.4,16.6,65,17,63.9,17.5
			z"/>
	</g>
	<g>
		<path class="st19" d="M70.6,16.5l-1.3,5.8c-0.1,0.3,0.2,0.6,0.5,0.6h2.8c0.2,0,0.4-0.2,0.5-0.4l1.2-5.2
			C73.2,16.9,72,16.6,70.6,16.5z"/>
		<path class="st19" d="M74.7,15.3l1.9-8.4c0.1-0.3-0.2-0.6-0.5-0.6h-2.8c-0.2,0-0.4,0.2-0.5,0.4l-1.8,7.7
			C72.4,14.6,73.6,14.9,74.7,15.3z"/>
	</g>
</g>
</svg>
