<svg id="Capa_1" data-name="Capa 1" xmlns="http://www.w3.org/2000/svg" viewBox="0 0 135 46"><defs><style>.cls-1{fill:#0079bb;}.cls-2{fill:#fff;}</style></defs><polygon class="cls-1" points="34.14 23.23 67.19 13.27 100.86 23.21 67.12 32.73 34.14 23.23"/><path class="cls-2" d="M47.31,20a71.66,71.66,0,0,1,39.83-.21c3.71,1.39,3.56,5.53,0,6.55a71,71,0,0,1-39.83,0A3.36,3.36,0,0,1,47.31,20"/><path class="cls-1" d="M55.62,23.28H54c-.14,0-.19.07-.19.18v2.68c0,.11,0,.2-.17.2H52.37s-.17-.07-.17-.17v-6.5a.16.16,0,0,1,.17-.17h1.22c.1,0,.17.15.17.17v1.89c0,.1,0,.18.16.18H55.6a.14.14,0,0,0,.16-.16V19.67a.16.16,0,0,1,.17-.17h1.22a.2.2,0,0,1,.17.17v6.5s-.13.17-.17.17H55.93s-.17,0-.17-.17V23.42c0-.07,0-.14-.14-.14"/><path class="cls-1" d="M70.42,19.49H71.5a.18.18,0,0,1,.17.18v6.48a.18.18,0,0,1-.17.18H70.42a.17.17,0,0,1-.16-.18V19.67a.17.17,0,0,1,.16-.18"/><path class="cls-1" d="M61,19.37a3.54,3.54,0,0,1,0,7.07,3.42,3.42,0,0,1-3.29-3.54A3.41,3.41,0,0,1,61,19.37"/><path class="cls-2" d="M61,21.08a1.84,1.84,0,1,1-1.66,1.83A1.76,1.76,0,0,1,61,21.08"/><path class="cls-1" d="M80.09,19.37a3.41,3.41,0,0,1,3.29,3.53,3.3,3.3,0,1,1-6.59,0,3.42,3.42,0,0,1,3.3-3.53"/><path class="cls-2" d="M80.07,21.08a1.84,1.84,0,1,1-1.66,1.83,1.75,1.75,0,0,1,1.66-1.83"/><path class="cls-1" d="M76.72,24.55l.09,1.6a3.58,3.58,0,0,1-1.32.29,3.38,3.38,0,0,1-3.3-3.53,3.39,3.39,0,0,1,3.3-3.54,1.85,1.85,0,0,1,1,.19c.08.05.14.08.12.25l0,1.25c0,.25-.15.31-.35.23a1.4,1.4,0,0,0-.77-.21c-1.13,0-1.61.84-1.61,1.84a1.59,1.59,0,0,0,1.59,1.78,1.11,1.11,0,0,0,.87-.27c.09-.09.41-.27.38.12"/><path class="cls-1" d="M66.09,19.48c1.12,0,2.23-.06,3.14,1a2.57,2.57,0,0,1-.9,3.83c-.09.11-.08.36.08.41a2.32,2.32,0,0,0,.91.3c.12,0,.16,0,.16.17v1c0,.14,0,.14-.16.14a3.52,3.52,0,0,1-2.53-1.08c-.25-.23-.55-.1-.55.25v.63c0,.13,0,.2-.2.19H65c-.18,0-.23-.07-.23-.24V19.69c0-.14,0-.2.21-.21Z"/><path class="cls-2" d="M66.25,22.66V21.24c0-.15.07-.2.23-.22h.9a1,1,0,0,1,0,1.94h-1c-.12,0-.17-.13-.17-.3"/><path class="cls-1" d="M90.84,16a0,0,0,0,0,0,0s0,0,0,0a.05.05,0,0,0,0,0h-.13v.2h.07a.13.13,0,0,0,.1,0,.11.11,0,0,0,0-.08m.31.57s0,0,0,0h-.28a0,0,0,0,1,0,0l0-.14a.13.13,0,0,0,0-.09.08.08,0,0,0-.07,0h0v.27s0,0,0,0H90.4s0,0,0,0v-.72a.11.11,0,0,1,.12-.12h.41l.11,0a.2.2,0,0,1,.08.08.21.21,0,0,1,0,.12.25.25,0,0,1-.05.16.36.36,0,0,1-.15.08l.1.05a.3.3,0,0,1,.07.11l0,.13,0,.07m.21-.38a.75.75,0,0,0,0-.26.63.63,0,0,0-.13-.2.5.5,0,0,0-.19-.13.53.53,0,0,0-.25-.05.55.55,0,0,0-.26.05.64.64,0,0,0-.19.13.57.57,0,0,0-.13.21.6.6,0,0,0,0,.24.71.71,0,0,0,0,.26.57.57,0,0,0,.13.21.64.64,0,0,0,.19.13.7.7,0,0,0,.25.05.71.71,0,0,0,.26-.05.56.56,0,0,0,.2-.14.77.77,0,0,0,.13-.2.66.66,0,0,0,0-.25m.25,0a.72.72,0,0,1-.07.33.92.92,0,0,1-.19.28.85.85,0,0,1-.27.18.91.91,0,0,1-.7,0,.8.8,0,0,1-.27-.18.64.64,0,0,1-.18-.27.77.77,0,0,1-.07-.34,1,1,0,0,1,.07-.34,1,1,0,0,1,.19-.27.75.75,0,0,1,.28-.18.77.77,0,0,1,.34-.07.81.81,0,0,1,.35.07.73.73,0,0,1,.27.17.8.8,0,0,1,.18.27.81.81,0,0,1,.07.35"/></svg>