<svg id="Capa_1" data-name="Capa 1" xmlns="http://www.w3.org/2000/svg" viewBox="0 0 135 46"><defs><style>.cls-1{fill:#004d80;}</style></defs><polygon class="cls-1" points="42.27 13.72 46.54 13.72 46.54 20.71 51.93 13.72 57.23 13.72 51.17 20.89 57.98 31.89 52.69 31.89 48.28 24.24 46.54 26.28 46.54 31.89 42.27 31.89 42.27 13.72"/><path class="cls-1" d="M60.84,23.92c.23-1.61,1.14-2.71,2.51-2.71a2.57,2.57,0,0,1,2.31,2.71Zm8.71,2.41c.19-4.48-1.94-8-6.2-8-3.5,0-6.4,2.9-6.4,7,0,4.44,2.63,7,6.49,7a5.67,5.67,0,0,0,5.91-4.39H65.71a2.3,2.3,0,0,1-2.22,1.46c-1.65,0-2.58-1.21-2.65-3Z"/><path class="cls-1" d="M70.89,18.67h3.78V21h0a3.83,3.83,0,0,1,4.49-2.47v3.94a5.06,5.06,0,0,0-1.49-.25,2.9,2.9,0,0,0-2.94,3.14v6.54H70.89Z"/><path class="cls-1" d="M80.41,18.67h3.77V21h0a3.83,3.83,0,0,1,4.49-2.47v3.94a5,5,0,0,0-1.49-.25,2.9,2.9,0,0,0-2.93,3.14v6.54H80.41Z"/><path class="cls-1" d="M90.79,17.68h-.47V19h-.25V17.68h-.46v-.2h1.18ZM92.73,19h-.25V17.72h0L92,19h-.16l-.49-1.25h0V19h-.25V17.48h.38l.44,1.13.44-1.13h.38Z"/></svg>