<?xml version="1.0" encoding="utf-8"?>
<!-- Generator: Adobe Illustrator 25.4.1, SVG Export Plug-In . SVG Version: 6.00 Build 0)  -->
<svg version="1.1" id="Capa_1" xmlns="http://www.w3.org/2000/svg" xmlns:xlink="http://www.w3.org/1999/xlink" x="0px" y="0px"
	 viewBox="0 0 135 46" style="enable-background:new 0 0 135 46;" xml:space="preserve">
<style type="text/css">
	.st0{fill:#FFED00;}
</style>
<g>
	<path class="st0" d="M65.9,20.5h1c0.4,0,0.4-0.2,0.4-0.2l1.4-3.3c0.1-0.4,0-0.3,0-0.3h-0.2h-0.9c-0.4,0-0.5,0.2-0.5,0.2l-1.3,3.3
		l0,0.1l0,0.1C65.7,20.5,65.9,20.5,65.9,20.5z"/>
	<path class="st0" d="M86,16.5h-0.2h-1c-0.6,0-0.5,0.1-0.5,0.1l-0.6,1.2l0,0.1c0,0.1,0.1,0.2,0.1,0.2h0.1h1.3c0.1,0,0.2-0.1,0.2-0.1
		l0.1-0.1l0.5-1.1C86.1,16.5,86,16.5,86,16.5z"/>
	<path class="st0" d="M58.2,18.2h1.3c0.1,0,0.2-0.1,0.2-0.1l0.1-0.1l0.5-1.1c0.1-0.3,0-0.3,0-0.3h-0.2h-1c-0.6,0-0.5,0.1-0.5,0.1
		l-0.6,1.2l0,0.1C58,18.1,58.1,18.2,58.2,18.2L58.2,18.2z"/>
	<path class="st0" d="M67.5,7C54,7,43.1,12.6,43.1,19.5S54,32,67.5,32C81,32,92,26.4,92,19.5S81,7,67.5,7z M76.4,15.3l-0.4,1
		l0.3-0.1l1.4-0.6c0.7-0.3,1.6-0.3,1.6-0.3c1.2,0,0.7,1.5,0.7,1.5l-1.8,4.8h-2.8v-0.1l1.6-4c0.3-0.5-0.3-0.4-0.3-0.4l-0.7,0.3
		c-0.6,0.1-0.7,0.6-0.7,0.6l-1.5,3.6l-2.5,0h-0.2l2.6-6.2H76.4z M64.7,16.3c0.5-0.9,1.4-0.9,1.4-0.9h4.4c1.2,0.2,1,1.2,1,1.2
		l-1.6,3.9c-0.6,1.3-1.8,1.1-1.8,1.1h-3.3h-0.8c-1.3-0.2-0.9-1.4-0.9-1.4L64.7,16.3z M58.1,15.4h3.7c0,0,1.6-0.1,1.3,1.4L62.2,19
		c0,0,0,0.5-0.7,0.5h-3.9c0,0-0.7,0.6-0.3,1.1h3.8h0.4c0,0,0,0.2-0.2,0.8l-0.1,0.3l-5.6,0c0,0-1.1-0.1-1-1.3l0.1-0.3l1.6-3.8
		C56.3,16.2,56.8,15.3,58.1,15.4z M85.6,24.3H57.7h-9.4h-0.7l0.1-0.1l4.8-12.1h3.8l-4.1,10.2l-0.1,0.3h22.3h12l0.2,0L85.6,24.3z
		 M88.6,16.7l-0.8,2.2c0,0,0,0.5-0.7,0.5h-3.9c0,0-0.7,0.6-0.3,1.1h3.8h0.4c0,0,0,0.2-0.2,0.8l-0.1,0.3l-5.6,0c0,0-1.1-0.1-1-1.3
		l0.1-0.3l1.6-3.8c0,0,0.5-0.9,1.7-0.8h3.7C87.3,15.4,88.9,15.2,88.6,16.7z"/>
</g>
<path class="st0" d="M41.8,36.1c-0.1,0.1-0.2,0.3-0.2,0.5c0,0.2,0.1,0.4,0.2,0.5c0.1,0.1,0.3,0.2,0.6,0.2c0.2,0,0.4-0.1,0.6-0.2
	c0.1-0.1,0.2-0.3,0.2-0.5c0-0.2-0.1-0.4-0.2-0.5c-0.2-0.1-0.4-0.2-0.6-0.2C42.2,35.9,41.9,36,41.8,36.1 M43.4,37.7
	c-0.3,0.3-0.7,0.4-1.1,0.4c-0.4,0-0.8-0.1-1.1-0.4c-0.3-0.3-0.4-0.7-0.4-1c0-0.4,0.1-0.8,0.4-1c0.3-0.3,0.7-0.4,1.1-0.4
	c0.4,0,0.8,0.1,1.1,0.4c0.3,0.3,0.4,0.7,0.4,1C43.9,37,43.7,37.4,43.4,37.7"/>
<path class="st0" d="M44.3,36.2h0.7v0.3c0.1-0.1,0.2-0.2,0.3-0.3c0.1-0.1,0.2-0.1,0.3-0.1c0,0,0,0,0.1,0v0.6c0,0-0.1-0.1-0.3-0.1
	c-0.1,0-0.2,0-0.3,0.1c-0.1,0.1-0.1,0.3-0.1,0.4V38h-0.7V36.2z"/>
<polygon class="st0" points="46.8,36.7 46.8,38 46.1,38 46.1,36.7 45.9,36.7 45.9,36.2 46.1,36.2 46.1,35.6 46.8,35.6 46.8,36.2 
	47.2,36.2 47.2,36.7 "/>
<path class="st0" d="M48.2,36.8C48.1,36.9,48,37,48,37.1c0,0.1,0.1,0.2,0.1,0.3c0.1,0.1,0.2,0.1,0.3,0.1c0.1,0,0.2,0,0.3-0.1
	c0.1-0.1,0.1-0.2,0.1-0.3c0-0.1,0-0.2-0.1-0.3c-0.1-0.1-0.2-0.1-0.3-0.1C48.3,36.7,48.2,36.7,48.2,36.8 M49.3,37.8
	c-0.2,0.2-0.5,0.3-0.8,0.3c-0.3,0-0.6-0.1-0.8-0.3c-0.2-0.2-0.3-0.4-0.3-0.7c0-0.3,0.1-0.5,0.3-0.7c0.2-0.1,0.4-0.3,0.8-0.3
	c0.4,0,0.7,0.2,0.8,0.3c0.1,0.1,0.3,0.3,0.3,0.7C49.6,37.3,49.5,37.6,49.3,37.8"/>
<path class="st0" d="M51.3,37.4c0.1-0.1,0.1-0.2,0.1-0.3c0-0.1-0.1-0.2-0.1-0.3c-0.1-0.1-0.2-0.1-0.3-0.1c-0.1,0-0.2,0.1-0.3,0.1
	c-0.1,0.1-0.1,0.2-0.1,0.3c0,0.1,0,0.2,0.1,0.3c0.1,0.1,0.2,0.1,0.3,0.1C51.1,37.5,51.2,37.5,51.3,37.4 M52.1,38h-0.7v-0.2
	c-0.2,0.2-0.4,0.3-0.6,0.3c-0.3,0-0.5-0.1-0.7-0.3c-0.2-0.2-0.3-0.4-0.3-0.7c0-0.3,0.1-0.6,0.3-0.7c0.2-0.2,0.4-0.2,0.7-0.2
	c0.3,0,0.4,0.1,0.6,0.2V35h0.7V38z"/>
<path class="st0" d="M53.3,36.8c-0.1,0.1-0.1,0.2-0.1,0.3c0,0.1,0.1,0.2,0.1,0.3c0.1,0.1,0.2,0.1,0.3,0.1c0.1,0,0.2,0,0.3-0.1
	c0.1-0.1,0.1-0.2,0.1-0.3c0-0.1,0-0.2-0.1-0.3c-0.1-0.1-0.2-0.1-0.3-0.1C53.4,36.7,53.3,36.7,53.3,36.8 M54.4,37.8
	c-0.2,0.2-0.5,0.3-0.8,0.3c-0.3,0-0.6-0.1-0.8-0.3c-0.2-0.2-0.3-0.4-0.3-0.7c0-0.3,0.1-0.5,0.3-0.7c0.2-0.1,0.4-0.3,0.8-0.3
	c0.4,0,0.7,0.2,0.8,0.3c0.1,0.1,0.3,0.3,0.3,0.7C54.7,37.3,54.6,37.6,54.4,37.8"/>
<path class="st0" d="M55,36.2h0.7v0.2c0.2-0.2,0.4-0.3,0.6-0.3c0.2,0,0.4,0,0.5,0.2c0.2,0.2,0.2,0.3,0.2,0.5V38h-0.7v-0.9
	c0-0.1,0-0.3-0.1-0.4c-0.1-0.1-0.1-0.1-0.2-0.1c-0.1,0-0.2,0-0.2,0.1c-0.1,0.1-0.1,0.2-0.1,0.3v1H55V36.2z"/>
<path class="st0" d="M58.9,38c-0.2,0.1-0.3,0.1-0.5,0.1c-0.4,0-0.6-0.2-0.7-0.3c-0.2-0.2-0.3-0.4-0.3-0.7c0-0.3,0.1-0.5,0.3-0.7
	c0.2-0.2,0.4-0.3,0.7-0.3c0.1,0,0.3,0,0.4,0.1v0.6c-0.1-0.1-0.2-0.1-0.3-0.1c-0.2,0-0.3,0.1-0.3,0.1c-0.1,0.1-0.1,0.2-0.1,0.3
	c0,0.1,0,0.2,0.1,0.3c0.1,0.1,0.2,0.1,0.3,0.1c0.1,0,0.2,0,0.3-0.1V38z"/>
<path class="st0" d="M59.9,38h-0.7v-1.9h0.7V38z M59.6,35c0.2,0,0.4,0.2,0.4,0.4s-0.2,0.4-0.4,0.4c-0.2,0-0.4-0.2-0.4-0.4
	S59.4,35,59.6,35"/>
<path class="st0" d="M61.1,36.8C61,36.9,61,37,61,37.1c0,0.1,0,0.2,0.1,0.3c0.1,0.1,0.2,0.1,0.3,0.1c0.1,0,0.2,0,0.3-0.1
	c0.1-0.1,0.1-0.1,0.1-0.3c0-0.1,0-0.2-0.1-0.3c-0.1-0.1-0.2-0.1-0.3-0.1C61.3,36.7,61.2,36.7,61.1,36.8 M61.8,36.2h0.7V38h-0.7v-0.2
	c-0.2,0.2-0.4,0.3-0.6,0.3c-0.2,0-0.4-0.1-0.7-0.3c-0.2-0.2-0.3-0.4-0.3-0.7c0-0.3,0.1-0.6,0.3-0.7c0.2-0.2,0.4-0.3,0.7-0.3
	c0.3,0,0.5,0.2,0.6,0.2V36.2z"/>
<path class="st0" d="M65.3,36.8c0-0.1-0.1-0.1-0.1-0.2c-0.1-0.1-0.2-0.1-0.3-0.1c-0.1,0-0.2,0-0.3,0.1c0,0-0.1,0.1-0.1,0.2H65.3z
	 M65.9,37.2h-1.4c0,0.1,0,0.2,0.1,0.3c0,0,0.1,0.1,0.3,0.1c0,0,0.1,0,0.2,0c0,0,0.1-0.1,0.1-0.1h0.6c0,0.1-0.1,0.2-0.2,0.4
	c-0.1,0.1-0.4,0.3-0.8,0.3c-0.2,0-0.5-0.1-0.8-0.3c-0.1-0.1-0.3-0.3-0.3-0.7c0-0.3,0.1-0.6,0.3-0.7c0.2-0.1,0.4-0.3,0.8-0.3
	c0.2,0,0.5,0,0.7,0.3C65.9,36.6,65.9,36.9,65.9,37.2L65.9,37.2z"/>
<rect x="67.3" y="35.3" class="st0" width="0.7" height="2.8"/>
<path class="st0" d="M68.5,36.2h0.7v0.2c0.2-0.2,0.4-0.3,0.6-0.3c0.1,0,0.3,0,0.4,0.1c0.1,0.1,0.2,0.2,0.3,0.3
	c0.1-0.1,0.2-0.2,0.3-0.3c0.1-0.1,0.3-0.1,0.4-0.1c0.1,0,0.4,0,0.5,0.2c0.2,0.2,0.2,0.4,0.2,0.5V38H71v-0.9c0-0.2,0-0.3-0.1-0.4
	c0,0-0.1-0.1-0.2-0.1c-0.1,0-0.1,0-0.2,0.1c-0.1,0.1-0.1,0.3-0.1,0.4v1h-0.7v-0.9c0-0.2,0-0.3-0.1-0.4c-0.1-0.1-0.1-0.1-0.2-0.1
	c-0.1,0-0.1,0-0.2,0.1c-0.1,0.1-0.1,0.3-0.1,0.4V38h-0.7V36.2z"/>
<path class="st0" d="M72.9,36.8c-0.1,0.1-0.1,0.2-0.1,0.3c0,0.1,0.1,0.2,0.1,0.3c0.1,0.1,0.2,0.1,0.3,0.1c0.1,0,0.2,0,0.3-0.1
	c0.1-0.1,0.1-0.2,0.1-0.3c0-0.1,0-0.2-0.1-0.3c-0.1-0.1-0.2-0.1-0.3-0.1C73.1,36.7,73,36.7,72.9,36.8 M72.8,39h-0.7v-2.8h0.7v0.2
	c0.1-0.1,0.3-0.3,0.6-0.3c0.3,0,0.5,0.1,0.7,0.3c0.2,0.2,0.3,0.4,0.3,0.7c0,0.3-0.1,0.6-0.3,0.7c-0.2,0.2-0.4,0.3-0.6,0.3
	c-0.1,0-0.4,0-0.6-0.2V39z"/>
<rect x="74.7" y="35" class="st0" width="0.7" height="3"/>
<path class="st0" d="M76.6,36.8c-0.1,0.1-0.1,0.2-0.1,0.3c0,0.1,0,0.2,0.1,0.3c0.1,0.1,0.2,0.1,0.3,0.1c0.1,0,0.2,0,0.3-0.1
	c0.1-0.1,0.1-0.1,0.1-0.3c0-0.1,0-0.2-0.1-0.3c-0.1-0.1-0.2-0.1-0.3-0.1C76.8,36.7,76.7,36.7,76.6,36.8 M77.3,36.2H78V38h-0.7v-0.2
	c-0.2,0.2-0.4,0.3-0.6,0.3c-0.2,0-0.4-0.1-0.7-0.3c-0.2-0.2-0.3-0.4-0.3-0.7c0-0.3,0.1-0.6,0.3-0.7c0.2-0.2,0.4-0.3,0.7-0.3
	c0.3,0,0.5,0.2,0.6,0.2V36.2z"/>
<path class="st0" d="M78.4,36.2h0.7v0.2c0.2-0.2,0.4-0.3,0.6-0.3c0.2,0,0.4,0,0.5,0.2c0.2,0.2,0.2,0.3,0.2,0.5V38h-0.7v-0.9
	c0-0.1,0-0.3-0.1-0.4c-0.1-0.1-0.1-0.1-0.2-0.1c-0.1,0-0.2,0-0.2,0.1c-0.1,0.1-0.1,0.2-0.1,0.3v1h-0.7V36.2z"/>
<polygon class="st0" points="81.6,36.7 81.6,38 80.9,38 80.9,36.7 80.7,36.7 80.7,36.2 80.9,36.2 80.9,35.6 81.6,35.6 81.6,36.2 
	82,36.2 82,36.7 "/>
<path class="st0" d="M83,36.8c-0.1,0.1-0.1,0.2-0.1,0.3c0,0.1,0.1,0.2,0.1,0.3c0.1,0.1,0.2,0.1,0.3,0.1c0.1,0,0.2,0,0.3-0.1
	c0.1-0.1,0.1-0.2,0.1-0.3c0-0.1,0-0.2-0.1-0.3c-0.1-0.1-0.2-0.1-0.3-0.1C83.1,36.7,83,36.7,83,36.8 M84.1,37.8
	c-0.2,0.2-0.5,0.3-0.8,0.3c-0.3,0-0.6-0.1-0.8-0.3c-0.2-0.2-0.3-0.4-0.3-0.7c0-0.3,0.1-0.5,0.3-0.7c0.2-0.1,0.4-0.3,0.8-0.3
	c0.4,0,0.7,0.2,0.8,0.3c0.1,0.1,0.3,0.3,0.3,0.7C84.4,37.3,84.3,37.6,84.1,37.8"/>
<rect x="84.8" y="35" class="st0" width="0.7" height="3"/>
<path class="st0" d="M86.6,36.8c-0.1,0.1-0.1,0.2-0.1,0.3c0,0.1,0.1,0.2,0.1,0.3c0.1,0.1,0.2,0.1,0.3,0.1c0.1,0,0.2,0,0.3-0.1
	c0.1-0.1,0.1-0.2,0.1-0.3c0-0.1,0-0.2-0.1-0.3c-0.1-0.1-0.2-0.1-0.3-0.1C86.8,36.7,86.7,36.7,86.6,36.8 M87.7,37.8
	c-0.2,0.2-0.5,0.3-0.8,0.3c-0.3,0-0.6-0.1-0.8-0.3c-0.2-0.2-0.3-0.4-0.3-0.7c0-0.3,0.1-0.5,0.3-0.7c0.2-0.1,0.4-0.3,0.8-0.3
	c0.4,0,0.7,0.2,0.8,0.3c0.1,0.1,0.3,0.3,0.3,0.7C88,37.3,87.9,37.6,87.7,37.8"/>
<path class="st0" d="M89.1,36.8C89.1,36.9,89,37,89,37.1c0,0.1,0,0.2,0.1,0.3c0.1,0.1,0.2,0.1,0.3,0.1c0.1,0,0.2,0,0.3-0.1
	c0.1-0.1,0.1-0.2,0.1-0.3s-0.1-0.2-0.1-0.3c-0.1-0.1-0.2-0.1-0.3-0.1C89.3,36.7,89.2,36.7,89.1,36.8 M90.5,36.2v1.7
	c0,0.3,0,0.5-0.3,0.8C90,38.9,89.7,39,89.4,39c-0.3,0-0.6-0.1-0.9-0.3c-0.1-0.1-0.2-0.2-0.2-0.4h0.7c0,0.1,0.1,0.2,0.3,0.2
	c0.1,0,0.2,0,0.3-0.1c0.1-0.1,0.1-0.2,0.1-0.3v-0.2c-0.2,0.2-0.4,0.2-0.6,0.2c-0.3,0-0.6-0.1-0.7-0.3c-0.2-0.2-0.3-0.4-0.3-0.7
	c0-0.3,0.1-0.6,0.3-0.7c0.2-0.2,0.4-0.3,0.7-0.3c0.1,0,0.4,0,0.6,0.2v-0.2H90.5z"/>
<path class="st0" d="M91.9,35.3l-0.6,0.6L91,35.6l0.5-0.6L91.9,35.3z M91.6,38H91v-1.9h0.7V38z"/>
<path class="st0" d="M92.8,36.8c-0.1,0.1-0.1,0.2-0.1,0.3c0,0.1,0,0.2,0.1,0.3c0.1,0.1,0.2,0.1,0.3,0.1c0.1,0,0.2,0,0.3-0.1
	c0.1-0.1,0.1-0.1,0.1-0.3c0-0.1,0-0.2-0.1-0.3c-0.1-0.1-0.2-0.1-0.3-0.1C93,36.7,92.9,36.7,92.8,36.8 M93.5,36.2h0.7V38h-0.7v-0.2
	c-0.2,0.2-0.4,0.3-0.6,0.3c-0.2,0-0.4-0.1-0.7-0.3c-0.2-0.2-0.3-0.4-0.3-0.7c0-0.3,0.1-0.6,0.3-0.7c0.2-0.2,0.4-0.3,0.7-0.3
	c0.3,0,0.5,0.2,0.6,0.2V36.2z"/>
<path class="st0" d="M91.1,12.7c0,0-0.1,0-0.2,0h-0.1V13H91c0.1,0,0.1,0,0.2,0c0,0,0.1-0.1,0.1-0.1C91.2,12.8,91.1,12.7,91.1,12.7
	 M90.6,13.6v-1.1c0.1,0,0.2,0,0.3,0c0.1,0,0.2,0,0.2,0c0.1,0,0.2,0,0.2,0.1c0.1,0.1,0.1,0.1,0.1,0.3c0,0.1,0,0.2-0.1,0.2
	c-0.1,0-0.1,0.1-0.2,0.1c0.1,0,0.1,0,0.2,0.1c0.1,0.1,0.1,0.1,0.1,0.2v0.1c0,0,0,0,0,0c0,0,0,0,0,0l0,0h-0.3c0,0,0-0.1,0-0.1
	c0-0.1,0-0.1,0-0.1c0,0,0-0.1-0.1-0.1c0,0-0.1,0-0.1,0l-0.1,0h-0.1v0.4H90.6z M90.4,12.5c-0.2,0.2-0.2,0.3-0.2,0.6
	c0,0.2,0.1,0.4,0.2,0.6c0.2,0.2,0.3,0.2,0.6,0.2c0.2,0,0.4-0.1,0.6-0.2c0.2-0.2,0.2-0.4,0.2-0.6c0-0.2-0.1-0.4-0.2-0.6
	c-0.2-0.2-0.3-0.2-0.6-0.2C90.8,12.2,90.6,12.3,90.4,12.5 M91.7,13.7C91.5,13.9,91.3,14,91,14c-0.3,0-0.5-0.1-0.7-0.3
	C90.1,13.5,90,13.3,90,13c0-0.3,0.1-0.5,0.3-0.7c0.2-0.2,0.4-0.3,0.7-0.3c0.3,0,0.5,0.1,0.7,0.3c0.2,0.2,0.3,0.4,0.3,0.7
	C92,13.3,91.9,13.5,91.7,13.7"/>
</svg>
