<svg id="Capa_1" data-name="Capa 1" xmlns="http://www.w3.org/2000/svg" viewBox="0 0 135 46"><defs><style>.cls-1{fill:#00659b;}</style></defs><polygon class="cls-1" points="94.95 15.23 88.56 15.23 81.06 22.76 82.71 15.22 77.02 15.22 73.19 32.36 78.87 32.36 80.55 25.1 84.64 32.36 91.12 32.36 86.4 23.81 94.95 15.23"/><path class="cls-1" d="M64.5,12.21c-5.63,0-8.71,2.62-9.91,8.08-.32,1.43-1,4.51-1,4.51s-3.55-6.38-5.2-9.57H42.77L39,32.36h5.55l2.21-9.55L52,32.36H57.3s1.87-8.2,2.68-11.89c.87-4,3.38-6.68,8.73-6.68H95.87l1.57-1.59H64.5"/><path class="cls-1" d="M63.64,16.8a5.08,5.08,0,0,0-.81,6,9,9,0,0,0,3.52,3c.69.4,1.16,1,.88,1.79-.18.52-.77,1.22-2.23.94a17.14,17.14,0,0,1-4.53-1.91l-1,4.61c4.56,2,10.09,2.42,12.61-1.4a4.83,4.83,0,0,0-.27-5.54,9.58,9.58,0,0,0-3.29-2.62,1.45,1.45,0,0,1-.8-2c1-1.81,4.23-.24,6.19,1.48l1-4.48A9.79,9.79,0,0,0,69,14.82a7,7,0,0,0-5.4,2"/></svg>