<svg id="Capa_1" data-name="Capa 1" xmlns="http://www.w3.org/2000/svg" xmlns:xlink="http://www.w3.org/1999/xlink" viewBox="0 0 135 46"><defs><style>.cls-1,.cls-5{fill:none;}.cls-2{fill:#e64860;}.cls-3{fill:#808791;}.cls-4{clip-path:url(#clip-path);}.cls-5{stroke:#e64860;stroke-miterlimit:10;stroke-width:0.48px;}</style><clipPath id="clip-path"><path class="cls-1" d="M22.5,23A8.47,8.47,0,1,0,31,14.53,8.47,8.47,0,0,0,22.5,23"/></clipPath></defs><polygon class="cls-2" points="54.63 18.56 51.28 18.56 49.31 27.29 49.28 27.29 47.27 18.56 43.89 18.56 43.89 29.64 46.05 29.64 46.05 20.38 46.08 20.38 48.1 29.64 50.37 29.64 52.44 20.38 52.47 20.38 52.47 29.64 54.63 29.64 54.63 18.56"/><polygon class="cls-2" points="64.99 18.56 56.85 18.56 56.85 29.64 65.25 29.64 65.25 27.68 59.12 27.68 59.12 24.81 64.51 24.81 64.51 22.85 59.12 22.85 59.12 20.52 64.99 20.52 64.99 18.56"/><path class="cls-2" d="M66.57,26.23c0,1.37.69,3.7,4.73,3.7,1,0,4.37-.29,4.37-3.63,0-2-1.39-2.6-2.9-3l-2.7-.66c-.47-.11-1.18-.3-1.18-1.16s1-1.33,1.93-1.33c2,0,2.21,1.17,2.27,1.67h2.22c0-1.36-.93-3.58-4.32-3.58-3.59,0-4.26,2.17-4.26,3.41,0,2.44,1.73,2.84,3.52,3.25l1.19.28c1.17.28,2,.51,2,1.37,0,1.17-1.21,1.44-2.31,1.44-2,0-2.33-1.17-2.34-1.79Z"/><polygon class="cls-2" points="82.13 20.52 85.47 20.52 85.47 18.56 76.47 18.56 76.47 20.52 79.81 20.52 79.81 29.64 82.13 29.64 82.13 20.52"/><path class="cls-2" d="M89.11,23.44v-3H92c1.36,0,1.62.86,1.62,1.45,0,1.09-.59,1.51-1.79,1.51Zm-2.26,6.2h2.26V25.3H91.5c1.72,0,1.81.59,1.81,2.1a7.23,7.23,0,0,0,.25,2.24h2.56v-.3c-.5-.18-.5-.58-.5-2.2,0-2.07-.49-2.41-1.4-2.81a2.64,2.64,0,0,0,1.71-2.64,3.12,3.12,0,0,0-3.48-3.13h-5.6Z"/><path class="cls-2" d="M102.36,21.06h0l1.38,4.38h-2.83Zm-2,6.29h4.08l.71,2.29h2.52l-3.9-11.08h-2.67L97.12,29.64h2.44Z"/><path class="cls-2" d="M111.67,21.08a2.1,2.1,0,0,1-2.06,2.22h0a2.07,2.07,0,0,1-2.07-2.21,2.07,2.07,0,1,1,4.13,0m.83,0A2.9,2.9,0,1,0,109.61,24a2.8,2.8,0,0,0,2.89-2.89m-3.37-.28v-.75h.46c.25,0,.6,0,.6.34s-.18.41-.48.41Zm0,.52h.31l.72,1.31h.78l-.79-1.36a.73.73,0,0,0,.75-.81c0-.71-.48-.94-1.28-.94h-1.16v3.11h.67Z"/><path class="cls-3" d="M31,14.53A8.47,8.47,0,1,1,22.5,23,8.47,8.47,0,0,1,31,14.53"/><g class="cls-4"><polygon class="cls-2" points="20.68 32.24 28.89 32.65 28.89 22.69 33.46 27.26 39.87 20.43 36.43 14.94 33.51 18.38 27.66 12.74 20.58 12.74 20.68 32.24"/></g><path class="cls-5" d="M31,14.53A8.47,8.47,0,1,1,22.5,23,8.47,8.47,0,0,1,31,14.53Z"/></svg>