<svg id="Capa_1" data-name="Capa 1" xmlns="http://www.w3.org/2000/svg" viewBox="0 0 135 46"><defs><style>.cls-1{fill:#171915;}.cls-2{fill:#e30750;}</style></defs><path class="cls-1" d="M48.37,25.91h2.15a2.5,2.5,0,0,1,1,.18,1.64,1.64,0,0,1,.64.49,2.21,2.21,0,0,1,.38.75,3.84,3.84,0,0,1,.11.91,3.29,3.29,0,0,1-.17,1.17,2,2,0,0,1-.48.69,1.48,1.48,0,0,1-.65.37,3.15,3.15,0,0,1-.86.13H48.37ZM49.82,27h0v2.56h.35a1.65,1.65,0,0,0,.65-.1.81.81,0,0,0,.3-.35,2.29,2.29,0,0,0,.11-.82,1.57,1.57,0,0,0-.25-1,1,1,0,0,0-.8-.27Z"/><polygon class="cls-1" points="55.42 25.91 59.3 25.91 59.3 26.92 56.87 26.92 56.87 27.66 59.13 27.66 59.13 28.62 56.87 28.62 56.87 29.54 59.37 29.54 59.37 30.6 55.42 30.6 55.42 25.91"/><polygon class="cls-1" points="62.15 25.91 63.5 25.91 65.27 28.51 65.27 25.91 66.63 25.91 66.63 30.6 65.27 30.6 63.51 28.03 63.51 30.6 62.15 30.6 62.15 25.91"/><polygon class="cls-1" points="69.25 25.91 73.65 25.91 73.65 27.07 72.17 27.07 72.17 30.6 70.73 30.6 70.73 27.07 69.25 27.07 69.25 25.91"/><path class="cls-1" d="M78.73,29.83H77.08l-.22.77H75.38l1.76-4.69h1.58l1.76,4.69H79Zm-.3-1h0l-.52-1.68-.51,1.68Z"/><polygon class="cls-1" points="82.92 25.91 84.37 25.91 84.37 29.45 86.63 29.45 86.63 30.6 82.92 30.6 82.92 25.91"/><rect class="cls-2" x="48.37" y="24.07" width="38.27" height="0.86"/><rect class="cls-1" x="48.37" y="31.55" width="0.42" height="3.26"/><path class="cls-1" d="M49.47,34.82V32.45h.35v.34a.83.83,0,0,1,.73-.39,1,1,0,0,1,.39.08.67.67,0,0,1,.26.2,1.1,1.1,0,0,1,.12.29,3.25,3.25,0,0,1,0,.39v1.46H51V33.38A1.13,1.13,0,0,0,50.9,33a.37.37,0,0,0-.16-.19.45.45,0,0,0-.27-.07.62.62,0,0,0-.43.16.82.82,0,0,0-.18.62v1.29Z"/><path class="cls-1" d="M51.94,34.82V32.45h.35v.34A.8.8,0,0,1,53,32.4a1,1,0,0,1,.39.08.67.67,0,0,1,.26.2,1.1,1.1,0,0,1,.12.29,3.25,3.25,0,0,1,0,.39v1.46h-.39V33.38a.91.91,0,0,0,0-.37.37.37,0,0,0-.16-.19.45.45,0,0,0-.27-.07.62.62,0,0,0-.43.16.82.82,0,0,0-.18.62v1.29Z"/><path class="cls-1" d="M54.25,33.64a1.27,1.27,0,0,1,.35-1,1.09,1.09,0,0,1,.73-.26,1,1,0,0,1,.77.32,1.24,1.24,0,0,1,.3.88,1.57,1.57,0,0,1-.13.72,1,1,0,0,1-.39.41,1.15,1.15,0,0,1-.55.14,1,1,0,0,1-.78-.32,1.28,1.28,0,0,1-.3-.91m.4,0h0a1,1,0,0,0,.19.68.61.61,0,0,0,.49.22.59.59,0,0,0,.48-.23,1,1,0,0,0,.19-.69,1,1,0,0,0-.19-.66.63.63,0,0,0-1,0,1,1,0,0,0-.19.68"/><path class="cls-1" d="M57.49,34.82l-.87-2.37H57l.49,1.42c.06.15.1.31.15.48a4.39,4.39,0,0,1,.14-.45l.51-1.45h.4l-.86,2.37Z"/><path class="cls-1" d="M60.56,34.53a1.46,1.46,0,0,1-.41.26,1.06,1.06,0,0,1-.43.08.8.8,0,0,1-.58-.19.64.64,0,0,1-.21-.49.65.65,0,0,1,.08-.31.57.57,0,0,1,.2-.23,1,1,0,0,1,.28-.13,1.24,1.24,0,0,1,.35-.06,3.87,3.87,0,0,0,.69-.14v-.11a.41.41,0,0,0-.11-.34.63.63,0,0,0-.44-.14.62.62,0,0,0-.4.1.59.59,0,0,0-.2.35l-.38,0a1.1,1.1,0,0,1,.17-.41.84.84,0,0,1,.35-.24A1.62,1.62,0,0,1,60,32.4a1.26,1.26,0,0,1,.47.07.58.58,0,0,1,.27.18.56.56,0,0,1,.12.27,1.69,1.69,0,0,1,0,.37v.54a4.67,4.67,0,0,0,0,.7,1,1,0,0,0,.1.29h-.41a1.11,1.11,0,0,1-.08-.29m0-.9h0a2.64,2.64,0,0,1-.63.15,1.7,1.7,0,0,0-.34.08.32.32,0,0,0-.21.32.34.34,0,0,0,.12.27.5.5,0,0,0,.34.11.85.85,0,0,0,.4-.1.64.64,0,0,0,.26-.28,1,1,0,0,0,.06-.4Z"/><path class="cls-1" d="M62.38,34.46l0,.35a1.11,1.11,0,0,1-.29,0,.62.62,0,0,1-.33-.07.39.39,0,0,1-.16-.18,1.25,1.25,0,0,1,0-.47V32.77h-.29v-.32h.29v-.58l.39-.24v.82h.39v.32H62v1.38a.56.56,0,0,0,0,.22.16.16,0,0,0,.06.08.26.26,0,0,0,.14,0l.17,0"/><path class="cls-1" d="M62.76,34.82h.39V32.45h-.39Zm0-2.8h.39v-.47h-.39Z"/><path class="cls-1" d="M64.38,34.82l-.88-2.37h.41l.5,1.42c0,.15.1.31.14.48l.15-.45.51-1.45h.4l-.87,2.37Z"/><path class="cls-1" d="M67.52,34.06l.4,0a1,1,0,0,1-.35.56,1.16,1.16,0,0,1-1.45-.12,1.24,1.24,0,0,1-.3-.89,1.33,1.33,0,0,1,.3-.93,1,1,0,0,1,.77-.33,1,1,0,0,1,.75.32,1.3,1.3,0,0,1,.3.91s0,.06,0,.11H66.22a.91.91,0,0,0,.22.59.6.6,0,0,0,.48.21.61.61,0,0,0,.36-.11.79.79,0,0,0,.24-.37m-1.28-.65h1.29a.85.85,0,0,0-.15-.45.63.63,0,0,0-.93-.05.76.76,0,0,0-.21.5"/><path class="cls-1" d="M69.69,34.82V31.55h1.19a2.13,2.13,0,0,1,.49,0,.84.84,0,0,1,.39.15.78.78,0,0,1,.25.31,1.14,1.14,0,0,1,.1.45,1,1,0,0,1-.26.7,1.22,1.22,0,0,1-.93.29h-.81v1.33Zm.42-1.71h.82A.84.84,0,0,0,71.5,33a.54.54,0,0,0,.17-.44.58.58,0,0,0-.1-.35.42.42,0,0,0-.26-.19,1.67,1.67,0,0,0-.39,0h-.81Z"/><path class="cls-1" d="M72.59,34.82V32.45h.35v.36a.87.87,0,0,1,.24-.33.46.46,0,0,1,.25-.08.7.7,0,0,1,.4.13l-.13.37a.55.55,0,0,0-.29-.09.4.4,0,0,0-.23.08.55.55,0,0,0-.14.22,1.72,1.72,0,0,0-.07.47v1.24Z"/><path class="cls-1" d="M73.92,33.64a1.27,1.27,0,0,1,.35-1A1.08,1.08,0,0,1,75,32.4a1,1,0,0,1,.78.32,1.24,1.24,0,0,1,.3.88,1.56,1.56,0,0,1-.14.72.94.94,0,0,1-.38.41,1.19,1.19,0,0,1-.56.14,1,1,0,0,1-.77-.32,1.28,1.28,0,0,1-.3-.91m.4,0h0a1,1,0,0,0,.19.68.61.61,0,0,0,.48.22.59.59,0,0,0,.49-.23,1.09,1.09,0,0,0,.19-.69,1,1,0,0,0-.2-.66.59.59,0,0,0-.48-.23.62.62,0,0,0-.48.23,1,1,0,0,0-.19.68"/><path class="cls-1" d="M78,34.82v-.3a.71.71,0,0,1-.64.35.89.89,0,0,1-.5-.15,1,1,0,0,1-.36-.44,1.7,1.7,0,0,1,0-1.28.92.92,0,0,1,.34-.45.9.9,0,0,1,.51-.15.75.75,0,0,1,.37.09.78.78,0,0,1,.27.24V31.55h.38v3.27Zm-1.23-1.18h0a1,1,0,0,0,.19.68.55.55,0,0,0,.87,0,1,1,0,0,0,.18-.66,1.14,1.14,0,0,0-.18-.71.56.56,0,0,0-.45-.23A.51.51,0,0,0,77,33a1.08,1.08,0,0,0-.18.69"/><path class="cls-1" d="M80.49,34.82v-.35a.83.83,0,0,1-.73.4,1,1,0,0,1-.38-.08.6.6,0,0,1-.26-.2.68.68,0,0,1-.12-.3,1.64,1.64,0,0,1,0-.37V32.45h.39v1.32a1.92,1.92,0,0,0,0,.42.41.41,0,0,0,.15.25.49.49,0,0,0,.3.09.55.55,0,0,0,.32-.1.45.45,0,0,0,.22-.25,1.3,1.3,0,0,0,.07-.46V32.45h.38v2.37Z"/><path class="cls-1" d="M82.94,34l.38,0a1,1,0,0,1-.32.64.92.92,0,0,1-.63.23.94.94,0,0,1-.76-.32,1.31,1.31,0,0,1-.29-.91,1.78,1.78,0,0,1,.13-.67.87.87,0,0,1,.37-.43,1.15,1.15,0,0,1,.55-.14,1,1,0,0,1,.61.19.94.94,0,0,1,.31.56l-.38.06a.69.69,0,0,0-.19-.36.5.5,0,0,0-.33-.12.58.58,0,0,0-.48.22,1,1,0,0,0-.19.68,1.11,1.11,0,0,0,.18.7.57.57,0,0,0,.46.21.58.58,0,0,0,.39-.14.78.78,0,0,0,.19-.45"/><path class="cls-1" d="M84.5,34.46l.06.35a1.11,1.11,0,0,1-.29,0,.62.62,0,0,1-.33-.07.48.48,0,0,1-.17-.18,1.61,1.61,0,0,1,0-.47V32.77h-.29v-.32h.29v-.58l.38-.24v.82h.39v.32h-.39v1.38a.88.88,0,0,0,0,.22.27.27,0,0,0,.07.08.25.25,0,0,0,.13,0l.17,0"/><path class="cls-1" d="M84.73,34.11l.38-.06a.57.57,0,0,0,.18.37.66.66,0,0,0,.42.12.59.59,0,0,0,.39-.11.33.33,0,0,0,.13-.26.24.24,0,0,0-.11-.22,1.79,1.79,0,0,0-.4-.13,3.49,3.49,0,0,1-.59-.2.59.59,0,0,1-.34-.54.73.73,0,0,1,.07-.29.71.71,0,0,1,.19-.23,1.17,1.17,0,0,1,.25-.11,1.27,1.27,0,0,1,.34-.05,1.32,1.32,0,0,1,.47.08.59.59,0,0,1,.3.22.85.85,0,0,1,.14.36l-.38.06a.48.48,0,0,0-.15-.29.54.54,0,0,0-.35-.1.66.66,0,0,0-.39.09.28.28,0,0,0-.11.21.22.22,0,0,0,0,.14.3.3,0,0,0,.15.11,2.26,2.26,0,0,0,.34.1,4.55,4.55,0,0,1,.57.19.61.61,0,0,1,.26.21.62.62,0,0,1,.09.34.65.65,0,0,1-.11.38.68.68,0,0,1-.33.27,1.06,1.06,0,0,1-.48.1,1,1,0,0,1-.68-.19.88.88,0,0,1-.3-.57"/><path class="cls-1" d="M52.43,38.52V35.26h.63l.75,2.31c.07.21.12.38.15.48,0-.12.09-.29.17-.52l.75-2.27h.57v3.26H55V35.79l-.92,2.73h-.37l-.92-2.78v2.78Z"/><path class="cls-1" d="M57.57,38.23a1.31,1.31,0,0,1-.41.27,1.26,1.26,0,0,1-.43.08.84.84,0,0,1-.58-.19.64.64,0,0,1-.21-.49.69.69,0,0,1,.08-.32.74.74,0,0,1,.2-.23.9.9,0,0,1,.28-.13l.35-.06a3.87,3.87,0,0,0,.69-.14v-.1a.47.47,0,0,0-.11-.35.64.64,0,0,0-.44-.13.76.76,0,0,0-.41.09.68.68,0,0,0-.19.36L56,36.83a.87.87,0,0,1,.17-.4.66.66,0,0,1,.34-.24A1.42,1.42,0,0,1,57,36.1a1.26,1.26,0,0,1,.48.08.6.6,0,0,1,.27.17.65.65,0,0,1,.12.28,1.69,1.69,0,0,1,0,.37v.53a4.94,4.94,0,0,0,0,.71.73.73,0,0,0,.1.28h-.41a.82.82,0,0,1-.08-.29m0-.89h0a4.1,4.1,0,0,1-.64.15,1.11,1.11,0,0,0-.33.08.34.34,0,0,0-.16.13.38.38,0,0,0,0,.19.34.34,0,0,0,.12.26.44.44,0,0,0,.34.11.77.77,0,0,0,.4-.1.64.64,0,0,0,.26-.28,1,1,0,0,0,.06-.4Z"/><path class="cls-1" d="M60,38.52v-.3a.7.7,0,0,1-.64.36.9.9,0,0,1-.5-.16,1,1,0,0,1-.36-.44,1.59,1.59,0,0,1-.13-.64,1.66,1.66,0,0,1,.12-.64.91.91,0,0,1,.85-.6.72.72,0,0,1,.37.09.78.78,0,0,1,.27.24V35.26h.38v3.26Zm-1.23-1.18h0A1.06,1.06,0,0,0,59,38a.53.53,0,0,0,.87,0,1,1,0,0,0,.18-.65,1.15,1.15,0,0,0-.18-.72.55.55,0,0,0-.45-.22.53.53,0,0,0-.43.21,1.09,1.09,0,0,0-.18.69"/><path class="cls-1" d="M62.57,37.76l.4.05a1,1,0,0,1-.36.56,1,1,0,0,1-.65.21,1,1,0,0,1-.8-.32,1.28,1.28,0,0,1-.29-.9,1.33,1.33,0,0,1,.29-.93,1,1,0,0,1,.78-.33,1,1,0,0,1,.75.33,1.32,1.32,0,0,1,.29.91v.1H61.27a.9.9,0,0,0,.21.6.63.63,0,0,0,.48.21.59.59,0,0,0,.37-.12.79.79,0,0,0,.24-.37m-1.28-.65h1.28a.78.78,0,0,0-.15-.44.57.57,0,0,0-.48-.24.62.62,0,0,0-.45.19.73.73,0,0,0-.2.49"/><path class="cls-1" d="M65.09,38.52h.39V36.16h-.39Zm0-2.8h.39v-.46h-.39Z"/><path class="cls-1" d="M66.07,38.52V36.16h.35v.33a.82.82,0,0,1,.73-.39.92.92,0,0,1,.38.08.55.55,0,0,1,.26.2.73.73,0,0,1,.12.3,1.67,1.67,0,0,1,0,.39v1.45h-.39V37.08a1.06,1.06,0,0,0,0-.36.39.39,0,0,0-.16-.2.6.6,0,0,0-.27-.07.65.65,0,0,0-.43.16.83.83,0,0,0-.18.62v1.29Z"/><polygon class="cls-1" points="69.69 38.52 69.69 35.26 71.98 35.26 71.98 35.64 70.11 35.64 70.11 36.64 71.86 36.64 71.86 37.03 70.11 37.03 70.11 38.14 72.05 38.14 72.05 38.52 69.69 38.52"/><path class="cls-1" d="M74.08,38.52v-.35a.82.82,0,0,1-.72.41A1,1,0,0,1,73,38.5a.63.63,0,0,1-.26-.21A.69.69,0,0,1,72.6,38a1.74,1.74,0,0,1,0-.38V36.16H73v1.31a1.86,1.86,0,0,0,0,.42.38.38,0,0,0,.15.25.48.48,0,0,0,.29.09.63.63,0,0,0,.33-.09.48.48,0,0,0,.22-.25,1.41,1.41,0,0,0,.06-.47V36.16h.39v2.36Z"/><path class="cls-1" d="M75,38.52V36.16h.35v.36a1.19,1.19,0,0,1,.24-.34.46.46,0,0,1,.25-.08.79.79,0,0,1,.4.13l-.13.37a.63.63,0,0,0-.29-.08.3.3,0,0,0-.22.08.4.4,0,0,0-.15.22,1.65,1.65,0,0,0-.06.46v1.24Z"/><path class="cls-1" d="M76.37,37.34a1.25,1.25,0,0,1,.35-1,1,1,0,0,1,.73-.27,1,1,0,0,1,.77.32,1.26,1.26,0,0,1,.3.89,1.7,1.7,0,0,1-.13.71,1,1,0,0,1-.39.41,1.06,1.06,0,0,1-.55.15,1,1,0,0,1-.78-.32,1.31,1.31,0,0,1-.3-.92m.4,0h0A1,1,0,0,0,77,38a.63.63,0,0,0,1,0,1.09,1.09,0,0,0,.19-.69,1,1,0,0,0-.19-.67.64.64,0,0,0-1,0,1,1,0,0,0-.19.68"/><path class="cls-1" d="M79,39.43V36.16h.36v.3a.89.89,0,0,1,.28-.27A.76.76,0,0,1,80,36.1a.91.91,0,0,1,.52.16.89.89,0,0,1,.34.44,1.59,1.59,0,0,1,.12.62,1.76,1.76,0,0,1-.13.66,1,1,0,0,1-.87.6.68.68,0,0,1-.35-.09.92.92,0,0,1-.26-.21v1.15Zm.36-2.08h0a1.06,1.06,0,0,0,.18.68.53.53,0,0,0,.87,0,1,1,0,0,0,.19-.7,1.08,1.08,0,0,0-.18-.68.54.54,0,0,0-.43-.22.55.55,0,0,0-.44.24,1.07,1.07,0,0,0-.19.69"/><path class="cls-1" d="M83,37.76l.41.05a1,1,0,0,1-1,.77,1,1,0,0,1-.8-.32,1.28,1.28,0,0,1-.29-.9,1.33,1.33,0,0,1,.29-.93,1,1,0,0,1,.78-.33,1,1,0,0,1,.75.33,1.32,1.32,0,0,1,.29.91v.1H81.71a.9.9,0,0,0,.21.6.63.63,0,0,0,.48.21.61.61,0,0,0,.37-.12.72.72,0,0,0,.23-.37m-1.27-.65H83a.78.78,0,0,0-.15-.44.57.57,0,0,0-.48-.24.62.62,0,0,0-.45.19.73.73,0,0,0-.2.49"/><path class="cls-1" d="M72.27,18.31a4.11,4.11,0,0,1,0-8.21H78.7a4.58,4.58,0,0,0-1.47,1.37h-5a2.74,2.74,0,0,0,0,5.47h1.37a2,2,0,1,1,0,4.09H65.85a4.86,4.86,0,0,0,1.47-1.35h6.32a.69.69,0,1,0,0-1.37Z"/><path class="cls-1" d="M82.24,19.68h-1.1V21h1.1c.39-1.35.69-1.67.69-2a.69.69,0,0,0-.69-.69V16.94a2,2,0,1,1,0,4.09Zm-1.1-1.37h1.1V16.94h-1.1Zm0-6.84h0V10.1h5.49l-1.37,1.37H81.14Zm1.1,8.21H78.38A5.19,5.19,0,0,1,78,21h3.19V19.68Zm-1.1-9.58h0v1.37a2.74,2.74,0,0,0,0,5.47v1.37a4.11,4.11,0,0,1,0-8.21"/><path class="cls-1" d="M82.24,21.72H77.55a4.85,4.85,0,0,1-1.45,1.37h6.14a4.1,4.1,0,1,0,0-8.2H81.16a.7.7,0,0,1-.69-.68.69.69,0,0,1,.69-.69h2.73l1.37-1.37h-4.1a2.06,2.06,0,1,0,0,4.11h1.08a2.73,2.73,0,1,1,0,5.46"/><path class="cls-1" d="M49.76,21.09v0Zm22.51-6.2h1.37a4.1,4.1,0,1,1,0,8.2H57.93v-2a8.22,8.22,0,0,0-6.52-8,6.17,6.17,0,0,0,1.71-.93,9.61,9.61,0,0,1,6.18,8.94v.63H73.64a2.73,2.73,0,1,0,0-5.46H72.27a2.06,2.06,0,0,1,0-4.11h4.58a3.85,3.85,0,0,0-.43,1.37H72.27a.69.69,0,0,0-.68.69.7.7,0,0,0,.68.68"/><path class="cls-1" d="M66.11,17a2.74,2.74,0,0,1-5.48,0V11l-1.37-.58V17a4.11,4.11,0,0,0,8.22,0V10.56L66.11,11s0,4.59,0,6"/><path class="cls-1" d="M62,17h.69a.68.68,0,0,0,.68.69.69.69,0,0,0,.69-.69V11.39l1.37-.15V17A2.07,2.07,0,0,1,63.37,19,2,2,0,0,1,62,18.51Zm.69,0h0V11.47l-.69-.1V17Zm-1.37,0H62v1.53A2,2,0,0,1,61.32,17M62,11.37h0l-.68-.11V17H62Z"/><path class="cls-1" d="M55.88,6.67h1.37a8.21,8.21,0,0,1-4,7,9.58,9.58,0,0,0-1.85-.62,6.86,6.86,0,0,0,4.47-6.41m-6.14,8.18h0c-.24,0-.47,0-.71,0h0l0-8.22v6.85c.24,0,.47,0,.69,0Z"/><path class="cls-1" d="M53.82,6.67h1.35a6.18,6.18,0,0,1-4.23,5.84l-.6.16.1-6h1.35l0,3.93a4.78,4.78,0,0,0,2.07-3.93"/><rect class="cls-1" x="48.37" y="6.67" width="1.39" height="16.41"/><path class="cls-1" d="M49.76,21.09v0Zm7.49,2H55.88v-2a6.16,6.16,0,0,0-4.11-5.78l0,7.78H50.38l0-9.47.2,0a7.54,7.54,0,0,1,6.63,7.43Z"/><path class="cls-2" d="M58.06,7.94c1.84-.22,3.57.22,5.22.22A48.19,48.19,0,0,1,68.58,8a42,42,0,0,0-4.35-1.43,1,1,0,0,1-1,.57,1,1,0,0,1-1-.51,26.81,26.81,0,0,0-4.19,1.31"/><path class="cls-2" d="M58.06,7.94c1.74.2,3.45.93,5.14.93s3.61-.65,5.38-.87a7.54,7.54,0,0,1-5.38,2.36,7.9,7.9,0,0,1-5.14-2.42"/></svg>