<svg xmlns="http://www.w3.org/2000/svg" viewBox="0 0 67.27 18.03"><defs><style>.cls-1{fill:#194374;}</style></defs><g id="Capa_2" data-name="Capa 2"><g id="Capa_1-2" data-name="Capa 1"><path class="cls-1" d="M2.85,2.49A8.6,8.6,0,0,1,9,0a8.83,8.83,0,0,1,6.25,2.49Z"/><path class="cls-1" d="M1.1,4.67s.45-.69.82-1.2a3,3,0,0,1,.63-.71H15.47s.37.41.69.81.78,1.09.78,1.09H13.31a2.51,2.51,0,0,0-1.64-1.21,6.6,6.6,0,0,0-2.33.39H8.82a11.16,11.16,0,0,0-2.27-.39A2.15,2.15,0,0,0,4.79,4.67Z"/><polygon class="cls-1" points="4.75 4.72 4.59 4.94 13.42 4.94 13.23 4.72 4.75 4.72"/><path class="cls-1" d="M1,4.91a5.78,5.78,0,0,0-.32.59,3.89,3.89,0,0,0-.28.79H4a5.88,5.88,0,0,1,.22-.66c.16-.38.35-.72.35-.72Z"/><path class="cls-1" d="M17,4.91s.15.25.31.59a4.49,4.49,0,0,1,.29.79H14.05a4.11,4.11,0,0,0-.22-.66l-.31-.72Z"/><path class="cls-1" d="M4,6.73H.31S.25,7,.19,7.3a2.84,2.84,0,0,0-.06.56H4v-.6C4,7,4,6.73,4,6.73"/><path class="cls-1" d="M14.08,6.73h3.71l.13.57a2.84,2.84,0,0,1,.06.56H14.11v-.6c0-.22,0-.53,0-.53"/><polygon class="cls-1" points="4.12 6.29 4.05 6.48 4.05 6.73 14.02 6.73 14.02 6.48 13.99 6.29 4.12 6.29"/><polygon class="cls-1" points="4.09 8.52 0 8.52 0 8.9 0 9.34 4.15 9.34 4.09 8.52"/><polygon class="cls-1" points="13.96 8.52 18.04 8.52 18.04 8.9 18.04 9.34 13.89 9.34 13.96 8.52"/><polygon class="cls-1" points="4.02 7.92 4.09 8.49 13.96 8.52 14.05 7.92 4.02 7.92"/><path class="cls-1" d="M4.34,10.28H.09l.07.32c0,.15.06.25.06.25H4.46Z"/><path class="cls-1" d="M13.74,10.28H18l-.06.32c0,.15-.06.25-.06.25H13.61Z"/><path class="cls-1" d="M4.18,9.37h9.68s0,.35-.06.47l-.09.41H4.4a3.34,3.34,0,0,1-.16-.47c0-.16-.06-.41-.06-.41"/><polygon class="cls-1" points="4.53 10.88 13.55 10.88 13.23 11.95 4.78 11.95 4.53 10.88"/><polygon class="cls-1" points="0.53 11.98 0.69 12.45 4.9 12.45 4.75 11.98 0.53 11.98"/><polygon class="cls-1" points="13.3 11.98 13.14 12.45 17.35 12.45 17.51 11.98 13.3 11.98"/><path class="cls-1" d="M4.94,12.48h8.2a3.56,3.56,0,0,1-.16.6c-.12.38-.25.72-.25.72H9.49s-.12-1.1-.44-1.1-.44,1.07-.44,1.07H5.34a4.44,4.44,0,0,0-.22-.69,3.89,3.89,0,0,1-.18-.6"/><polygon class="cls-1" points="1.42 13.8 1.6 14.12 5.44 14.12 5.31 13.8 1.42 13.8"/><polygon class="cls-1" points="12.73 13.8 12.61 14.12 16.44 14.12 16.63 13.8 12.73 13.8"/><polygon class="cls-1" points="8.64 13.8 8.58 14.12 9.53 14.12 9.49 13.8 8.64 13.8"/><polygon class="cls-1" points="2.83 15.6 3.11 15.79 6.1 15.79 6 15.6 2.83 15.6"/><polygon class="cls-1" points="12.07 15.6 11.98 15.79 14.96 15.79 15.25 15.6 12.07 15.6"/><polygon class="cls-1" points="8.39 15.63 8.36 15.82 9.78 15.82 9.68 15.63 8.39 15.63"/><path class="cls-1" d="M5.47,14.18H8.55l-.16,1.39H6l-.29-.73c-.12-.31-.28-.66-.28-.66"/><path class="cls-1" d="M12.61,14.18H9.53l.15,1.39H12l.28-.73c.13-.31.29-.66.29-.66"/><path class="cls-1" d="M8.3,15.88H6.16s.13.31.41.88a7.77,7.77,0,0,0,.47.85,1,1,0,0,0,.41.19A.56.56,0,0,0,8,17.39c.1-.32.32-1.51.32-1.51"/><path class="cls-1" d="M9.81,15.88H12s-.13.31-.41.88a8.69,8.69,0,0,1-.48.85,1,1,0,0,1-.4.19.58.58,0,0,1-.54-.41c-.09-.32-.31-1.51-.31-1.51"/><path class="cls-1" d="M7.79,17.93a.17.17,0,0,1-.07-.16h2.64a.17.17,0,0,1-.07.16,7,7,0,0,1-1.24.1,7,7,0,0,1-1.26-.1"/><polygon class="cls-1" points="27.77 10.65 30.46 10.65 30.46 1.23 27.77 1.23 27.77 4.61 24.4 4.61 24.4 1.23 21.71 1.23 21.71 10.65 24.4 10.65 24.4 6.9 27.77 6.9 27.77 10.65"/><polygon class="cls-1" points="57.58 10.62 57.58 8.38 52.3 8.38 52.3 6.9 55.71 6.9 56.99 4.79 52.3 4.79 52.3 3.43 57.58 3.43 57.58 1.2 49.58 1.2 49.58 10.62 57.58 10.62"/><path class="cls-1" d="M47.76,3.43l1.36-2.21H42c-1.45,0-1.62.66-1.62,1.57V8.66a1.72,1.72,0,0,0,1.85,2h4.86a1.64,1.64,0,0,0,1.87-1.88c0-1,0-4,0-4H44.49L43.26,7h3v.81a.61.61,0,0,1-.64.59H43v-5Z"/><path class="cls-1" d="M60.77,5.2V3.43h2.54a.89.89,0,0,1,.59.86,1,1,0,0,1-.68.91Zm2.85,5.43h3.65L63.81,7.2a2.37,2.37,0,0,0,2.64-2.41V3.34c0-2-1.46-2.12-2.47-2.12H58.1v9.41l2.71,0V7.29Z"/><path class="cls-1" d="M37.07,7h-3.3v.81a.6.6,0,0,0,.63.59h2.69Zm0-2.24V3.43H32.31L31,1.22h7.14c1.45,0,1.62.66,1.62,1.57V8.66a1.72,1.72,0,0,1-1.85,2H33a1.63,1.63,0,0,1-1.86-1.88v-4Z"/><path class="cls-1" d="M40.49,14.84v-1h1.13c.48,0,.67,0,.67.47s-.11.53-.67.53Zm-1.46,3h1.46V16l1.73,1.79H44L42.16,16c1.28,0,1.58-.67,1.58-1.69,0-1.3-.54-1.64-1.81-1.64H39Z"/><polygon class="cls-1" points="27.42 16.64 27.37 16.64 26.39 12.64 24.87 12.64 23.84 16.64 23.79 16.64 23 12.64 21.51 12.64 22.7 17.83 24.79 17.83 25.59 14.58 25.65 14.58 26.39 17.83 28.5 17.83 29.72 12.64 28.25 12.64 27.42 16.64"/><polygon class="cls-1" points="33.38 13.77 36.26 13.77 36.26 12.64 31.92 12.64 31.92 17.83 36.31 17.83 36.31 16.7 33.38 16.7 33.38 15.75 35.75 15.75 36.1 14.72 33.38 14.72 33.38 13.77"/><polygon class="cls-1" points="47.85 12.64 46.38 12.64 46.38 17.83 47.85 17.83 47.85 15.79 49.81 17.83 51.63 17.83 49.11 15.19 51.47 12.64 49.7 12.64 47.85 14.59 47.85 12.64"/><polygon class="cls-1" points="55.16 13.77 58.04 13.77 58.04 12.64 53.7 12.64 53.7 17.83 58.09 17.83 58.09 16.7 55.16 16.7 55.16 15.75 57.53 15.75 57.89 14.72 55.16 14.72 55.16 13.77"/><polygon class="cls-1" points="62.15 13.84 62.21 13.84 63.76 17.83 66.25 17.83 66.25 12.64 64.79 12.64 64.88 16.63 64.82 16.63 63.25 12.64 60.77 12.64 60.77 17.83 62.24 17.83 62.15 13.84"/></g></g></svg>