<?xml version="1.0" encoding="utf-8"?>
<!-- Generator: Adobe Illustrator 25.4.1, SVG Export Plug-In . SVG Version: 6.00 Build 0)  -->
<svg version="1.1" id="Capa_1" xmlns="http://www.w3.org/2000/svg" xmlns:xlink="http://www.w3.org/1999/xlink" x="0px" y="0px"
	 viewBox="0 0 135 46" style="enable-background:new 0 0 135 46;" xml:space="preserve">
<style type="text/css">
	.st0{fill:#38444E;}
	.st1{fill:#E64860;}
	.st2{fill:#808791;}
	.st3{clip-path:url(#SVGID_00000070083245611399354870000015518672614009136263_);fill:#E64860;}
	.st4{fill:none;stroke:#E64860;stroke-width:0.6287;stroke-miterlimit:10;}
	.st5{fill:#194374;}
	.st6{fill:#00659B;}
	.st7{fill:#DC0D6E;}
	.st8{fill:#004D80;}
	.st9{fill:#7EA9D6;}
	.st10{fill:#B6D4EF;}
	.st11{fill:#058DC7;}
	.st12{fill:#00559F;}
	.st13{fill:#134A83;}
	.st14{fill:#B51975;}
	.st15{fill:#2497D0;}
	.st16{fill:#D80F3B;}
	.st17{fill:#9BC338;}
	.st18{fill:#008541;}
	.st19{fill:#9DC438;}
	
		.st20{clip-path:url(#SVGID_00000034810353628353066200000006894477169363474865_);fill:url(#SVGID_00000023967452981886649160000000436289332983778210_);}
	
		.st21{clip-path:url(#SVGID_00000111882915828426207230000007308529081075997830_);fill:url(#SVGID_00000102527524910209134870000005952038805182892180_);}
	
		.st22{clip-path:url(#SVGID_00000017505397707931524600000001406721727070978225_);fill:url(#SVGID_00000151506371949022402030000002563764918600166282_);}
	.st23{fill:#F9BE12;}
	.st24{clip-path:url(#SVGID_00000065783643713386366780000006107469852602937749_);}
	.st25{clip-path:url(#SVGID_00000048462032538912818810000000029148376588907162_);}
	.st26{clip-path:url(#SVGID_00000137119156849176025540000002870403346444126906_);}
	.st27{clip-path:url(#SVGID_00000111876951356624456100000000464509815020959931_);}
	.st28{clip-path:url(#SVGID_00000176757252553387728300000010206089266389530003_);}
	.st29{clip-path:url(#SVGID_00000093892922836477530440000007724786102884909215_);}
	.st30{clip-path:url(#SVGID_00000014633549123198073690000002672490059244519825_);}
	.st31{clip-path:url(#SVGID_00000023283405124299869680000000194930629747885717_);}
	.st32{clip-path:url(#SVGID_00000126289913307828497320000013792452759289457300_);}
	
		.st33{clip-path:url(#SVGID_00000000184981589545310270000000514984782826291073_);fill:url(#SVGID_00000174600157188765912100000012937472168204867758_);}
	.st34{clip-path:url(#SVGID_00000115476066283911582030000016887872835976706189_);}
	.st35{clip-path:url(#SVGID_00000168099187020322136270000005318849407997573252_);}
	.st36{clip-path:url(#SVGID_00000015348671323578735450000006272631857166219687_);}
	.st37{clip-path:url(#SVGID_00000179627553652040370010000007113417597196351399_);}
	.st38{clip-path:url(#SVGID_00000171689735250753137220000005266143190673071011_);}
	.st39{clip-path:url(#SVGID_00000172424007642664853950000017992410242476798099_);}
	.st40{fill:#009BDA;}
	.st41{fill:#CE1620;}
	.st42{fill:#171915;}
	.st43{fill:#E30750;}
	.st44{fill:#5775B5;}
	.st45{fill:none;stroke:#5775B5;stroke-width:0.5802;}
	.st46{fill:#5A595C;}
	.st47{fill:#FFFFFF;}
	.st48{fill:#364F8F;}
	.st49{fill:none;stroke:#364F8F;stroke-width:0.3873;}
	.st50{fill:none;stroke:#364F8F;stroke-width:1.3345;stroke-linecap:round;}
	.st51{fill:#656362;}
	.st52{fill:#C8D44A;}
	.st53{fill:#E42E38;}
	.st54{fill:none;stroke:#FFFFFF;stroke-width:0.4523;stroke-miterlimit:10;}
	.st55{fill:#51B054;}
	.st56{fill:#0079BB;}
	.st57{fill:#086EB0;}
	.st58{fill:#99A4AB;}
	.st59{fill:#B2A7A5;}
	.st60{fill:#931340;}
	.st61{fill:#DFDCD9;}
	.st62{fill:#27A1D7;}
	.st63{fill:none;stroke:#000000;stroke-width:0.1494;stroke-linejoin:bevel;stroke-miterlimit:22.926;}
	.st64{fill:none;stroke:#000000;stroke-width:0.1585;stroke-miterlimit:22.926;}
	.st65{fill:#EA3D36;stroke:#ED1C24;stroke-width:0.1417;stroke-linejoin:round;}
	.st66{fill:#EA3D36;}
</style>
<g>
	<path class="st7" d="M62,36.2L62,36.2L62,36.2L62,36.2c-0.5,0-0.9-0.2-1.2-0.5c-0.3-0.3-0.5-0.7-0.5-1.2v0v-23c0,0,0,0,0,0
		c0-0.5,0.2-0.9,0.5-1.2c0.3-0.3,0.7-0.5,1.2-0.5h0h1h0.1V9.7V7.1V7h-0.1H51.9h-0.1v0.1v2.6v0.1h0.1h1h0c0.5,0,0.9,0.2,1.2,0.5
		c0.3,0.3,0.5,0.7,0.5,1.2v0v23v0c0,0.9-0.8,1.7-1.7,1.7h0h0l0,0l0,0h-1.7h-0.1v0.1v2.6V39h0.1h12.1h0.1v-0.1v-2.6v-0.1h-0.1
		L62,36.2"/>
	<path class="st7" d="M44,11.3l-5.1,19.5l-5.1-18.9l0,0l0,0l0,0c0-0.1-0.1-0.3-0.1-0.4c0-0.5,0.2-0.9,0.5-1.2
		c0.3-0.3,0.7-0.5,1.2-0.5l1.3,0V7H24.3v2.8h1.5c0,0,0,0,0,0c0.8,0,1.4,0.5,1.6,1.2l0,0l0,0L35,38.9l0,0.1h0.1H40h0.1
		c0,0,0-0.1,0-0.1l7.2-27.8"/>
	<path class="st7" d="M47.3,11.1c0.2-0.7,0.8-1.3,1.6-1.3h1.4V7h-9.2v2.8h1.7h0c0.3,0,0.6,0.1,0.9,0.4c0.2,0.2,0.4,0.5,0.4,0.9
		c0,0.1,0,0.2,0,0.3"/>
	<path class="st7" d="M85.6,7H64.8h-0.1v0.1v7.3v0.1h0.1h3h0.1v-0.1v-2.9v0c0-0.5,0.2-0.9,0.5-1.2c0.3-0.3,0.7-0.5,1.2-0.5h0h2.8
		v24.7v0c0,0.9-0.8,1.7-1.7,1.7h0h0l0,0H69h-0.1v0.1v2.6V39H69h12.1h0.1v-0.1v-2.6v-0.1h-0.1h-1.5l0,0h0h0c-0.5,0-0.9-0.2-1.2-0.5
		c-0.3-0.3-0.5-0.7-0.5-1.2v0V9.8h2.8h0c0.5,0,0.9,0.2,1.2,0.5c0.3,0.3,0.5,0.7,0.5,1.2c0,0,0,0,0,0v2.9v0.1h0.1h3h0.1v-0.1V7.1V7"
		/>
	<path class="st7" d="M91.2,24.9L91.2,24.9l3.9-15l0,0h0l0,0l4.1,15l0,0L91.2,24.9 M108,34.8l-7.5-27.7l0-0.1h-0.1h-7.7h-0.1l0,0.1
		l-7.2,27.8c0,0,0,0.1,0,0.1c-0.2,0.8-0.9,1.3-1.7,1.3h-1h-0.1v0.1v2.6V39h0.1h9.2H92v-0.1v-2.6v-0.1h-0.1h-1.3h-0.1
		c-0.5,0-0.9-0.2-1.2-0.5c-0.3-0.3-0.5-0.7-0.5-1.2c0-0.1,0-0.3,0.1-0.4c0,0,0,0,0,0c0,0,1.4-5.6,1.6-6.3h9.5l0.3,1.2l1.3,5.1
		c0,0,0,0,0,0c0,0.1,0.1,0.3,0.1,0.4c0,0.9-0.8,1.7-1.7,1.7h-0.1h-1.3h-0.1h-0.1v0.1v2.6V39h0.1h0.1h12h0.1v-0.1v-2.6v-0.1h-0.1h-1
		C108.9,36.2,108.2,35.7,108,34.8L108,34.8z"/>
</g>
</svg>
