<svg id="Capa_1" data-name="Capa 1" xmlns="http://www.w3.org/2000/svg" viewBox="0 0 135 46"><defs><style>.cls-1{fill:#086eb0;}.cls-2{fill:#fff;}</style></defs><path class="cls-1" d="M88.27,20c0,5.85-9.29,10.59-20.74,10.59S46.79,25.87,46.79,20,56.08,9.43,67.53,9.43,88.27,14.17,88.27,20"/><polygon class="cls-2" points="59.21 24.14 82.91 24.14 83.63 22.66 83.47 22.66 73.3 22.66 54.39 22.66 54.44 22.38 57.92 13.75 54.67 13.75 50.64 24.05 50.58 24.14 51.2 24.14 59.21 24.14"/><path class="cls-2" d="M70.75,21.78H72.9l1.26-3a.88.88,0,0,1,.63-.54l.6-.23s.49-.07.24.37l-1.34,3.36v.1h2.37l1.52-4.07s.38-1.22-.61-1.27a3.16,3.16,0,0,0-1.35.23l-1.2.55-.29.06.35-.82H72.83L70.6,21.78Z"/><path class="cls-2" d="M59.5,18.72l0-.12.48-1s-.1-.12.41-.1h1s.13,0,0,.25l-.46,1-.09.09a.43.43,0,0,1-.19.08h-1.2a.24.24,0,0,1-.06-.2m-2.91,2a.91.91,0,0,0,.81,1.1h4.73l.1-.26a1.35,1.35,0,0,0,.18-.65H58.88c-.36-.45.26-1,.26-1h3.28c.58,0,.62-.39.62-.39l.65-1.87c.26-1.28-1.07-1.16-1.07-1.16H59.49A1.52,1.52,0,0,0,58,17.2l-1.36,3.26Z"/><path class="cls-2" d="M66,20.58l1.14-2.82s.06-.2.4-.19h.89s.17,0,0,.3l-1.17,2.84s0,.18-.31.18H66.1a.22.22,0,0,1-.14-.15v-.07Zm-1.51,1.26H68a1.47,1.47,0,0,0,1.56-.91l1.36-3.34A.89.89,0,0,0,70,16.53H66.3a1.53,1.53,0,0,0-1.2.81l-1.37,3.28a.88.88,0,0,0,.75,1.22"/><path class="cls-2" d="M81.22,18.68l0-.11.48-1s-.1-.11.41-.1h1s.13,0,0,.26l-.46,1-.09.1a.46.46,0,0,1-.2.07h-1.2a.25.25,0,0,1,0-.2M79.11,21.8h4.73l.11-.25a1.4,1.4,0,0,0,.17-.65H80.59c-.35-.45.27-1,.27-1h3.28c.58,0,.62-.4.62-.4l.64-1.86c.27-1.29-1.06-1.17-1.06-1.17H81.21a1.55,1.55,0,0,0-1.49.65l-1.35,3.26-.07.29a.91.91,0,0,0,.81,1.09"/><path class="cls-1" d="M45.67,34.13a.63.63,0,0,0-.19.46.59.59,0,0,0,.19.44.66.66,0,0,0,.48.19.64.64,0,0,0,.47-1.09.72.72,0,0,0-.47-.19.68.68,0,0,0-.48.19m1.41,1.33a1.41,1.41,0,0,1-1.86,0,1.23,1.23,0,0,1,0-1.76,1.41,1.41,0,0,1,1.86,0,1.23,1.23,0,0,1,0,1.76"/><path class="cls-1" d="M47.78,34.18h.57v.26a.47.47,0,0,1,.22-.22.59.59,0,0,1,.29-.07H49v.54a.45.45,0,0,0-.25-.06.41.41,0,0,0-.26.08.47.47,0,0,0-.12.36v.68h-.57Z"/><polygon class="cls-1" points="49.91 34.64 49.91 35.76 49.34 35.76 49.34 34.64 49.16 34.64 49.16 34.18 49.34 34.18 49.34 33.66 49.91 33.66 49.91 34.18 50.23 34.18 50.23 34.64 49.91 34.64"/><path class="cls-1" d="M51.07,34.71A.38.38,0,0,0,51,35a.41.41,0,0,0,.11.25.39.39,0,0,0,.25.1.4.4,0,0,0,.26-.1.35.35,0,0,0,.1-.25.37.37,0,0,0-.1-.26.42.42,0,0,0-.26-.1.37.37,0,0,0-.25.1m1,.84a1.09,1.09,0,0,1-1.41,0,.79.79,0,0,1-.24-.58.75.75,0,0,1,.24-.58,1.09,1.09,0,0,1,1.41,0,.82.82,0,0,1,0,1.16"/><path class="cls-1" d="M53.72,35.24a.42.42,0,0,0,.12-.27.41.41,0,0,0-.11-.26.36.36,0,0,0-.26-.1.34.34,0,0,0-.25.1.39.39,0,0,0-.11.27.38.38,0,0,0,.36.35.42.42,0,0,0,.25-.09m.66.52h-.56v-.17a.59.59,0,0,1-.48.22.72.72,0,0,1-.55-.22.87.87,0,0,1-.26-.63.89.89,0,0,1,.26-.62.8.8,0,0,1,.56-.21.63.63,0,0,1,.47.2V33.18h.56Z"/><path class="cls-1" d="M55.4,34.71a.38.38,0,0,0-.11.26.41.41,0,0,0,.11.25.4.4,0,0,0,.26.1.39.39,0,0,0,.25-.1A.36.36,0,0,0,56,35a.38.38,0,0,0-.11-.26.37.37,0,0,0-.25-.1.42.42,0,0,0-.26.1m1,.84a1.09,1.09,0,0,1-1.41,0,.82.82,0,0,1,0-1.16,1.09,1.09,0,0,1,1.41,0,.75.75,0,0,1,.24.58.79.79,0,0,1-.24.58"/><path class="cls-1" d="M56.93,34.18h.56v.2a.61.61,0,0,1,.51-.24.63.63,0,0,1,.46.17.53.53,0,0,1,.15.44v1h-.56V35a.44.44,0,0,0-.08-.31.25.25,0,0,0-.18-.06.3.3,0,0,0-.2.07.36.36,0,0,0-.1.25v.85h-.56Z"/><path class="cls-1" d="M60.19,35.72a.78.78,0,0,1-.39.09.9.9,0,0,1-.63-.24.86.86,0,0,1-.24-.59.87.87,0,0,1,.26-.61.88.88,0,0,1,.63-.24.83.83,0,0,1,.37.09v.47a.53.53,0,0,0-.29-.1.36.36,0,0,0-.28.11.38.38,0,0,0-.11.27.41.41,0,0,0,.1.27.39.39,0,0,0,.29.12.42.42,0,0,0,.29-.11Z"/><path class="cls-1" d="M61.07,35.76h-.56V34.18h.56Zm-.28-2.55a.32.32,0,1,1-.31.31.31.31,0,0,1,.31-.31"/><path class="cls-1" d="M62.09,34.71A.36.36,0,0,0,62,35a.33.33,0,0,0,.1.25.41.41,0,0,0,.26.11.36.36,0,0,0,.25-.11A.35.35,0,0,0,62.7,35a.33.33,0,0,0-.11-.26.34.34,0,0,0-.25-.1.34.34,0,0,0-.25.1m.59-.53h.57v1.58h-.57v-.18a.56.56,0,0,1-.49.23.76.76,0,0,1-.57-.25A.79.79,0,0,1,61.4,35a.85.85,0,0,1,.24-.63.78.78,0,0,1,.57-.22.65.65,0,0,1,.47.2Z"/><path class="cls-1" d="M65.61,34.75a.35.35,0,0,0-.09-.17.31.31,0,0,0-.23-.09.3.3,0,0,0-.23.09.31.31,0,0,0-.09.17Zm.52.32H65a.44.44,0,0,0,.09.27.37.37,0,0,0,.24.08.48.48,0,0,0,.18-.05.19.19,0,0,0,.1-.1h.54a.61.61,0,0,1-.19.32.87.87,0,0,1-.64.22.93.93,0,0,1-.66-.24.84.84,0,0,1-.23-.6.85.85,0,0,1,.24-.61.9.9,0,0,1,.64-.23.86.86,0,0,1,.61.22.89.89,0,0,1,.25.66Z"/><rect class="cls-1" x="67.33" y="33.4" width="0.61" height="2.35"/><path class="cls-1" d="M68.38,34.18H69v.19a.61.61,0,0,1,.47-.22.74.74,0,0,1,.31.07.53.53,0,0,1,.22.23.56.56,0,0,1,.21-.22.67.67,0,0,1,.33-.08.62.62,0,0,1,.44.15.56.56,0,0,1,.14.43v1h-.56V35a.48.48,0,0,0-.08-.34.25.25,0,0,0-.31,0A.39.39,0,0,0,70,35v.81h-.56V35a.48.48,0,0,0-.08-.34.22.22,0,0,0-.17-.06.2.2,0,0,0-.15.05A.48.48,0,0,0,69,35v.78h-.57Z"/><path class="cls-1" d="M72.12,34.71A.39.39,0,0,0,72,35a.34.34,0,0,0,.1.25.36.36,0,0,0,.26.11.33.33,0,0,0,.25-.11.34.34,0,0,0,.11-.25.4.4,0,0,0-.11-.26.36.36,0,0,0-.25-.1.4.4,0,0,0-.26.1M72,36.57h-.56V34.18H72v.17a.6.6,0,0,1,.49-.22.78.78,0,0,1,.56.23.84.84,0,0,1,.24.61.83.83,0,0,1-.26.62.72.72,0,0,1-.54.22.68.68,0,0,1-.49-.2Z"/><rect class="cls-1" x="73.64" y="33.18" width="0.57" height="2.57"/><path class="cls-1" d="M75.22,34.71a.36.36,0,0,0-.11.26.34.34,0,0,0,.11.25.35.35,0,0,0,.51,0,.34.34,0,0,0,.1-.25.33.33,0,0,0-.11-.26.34.34,0,0,0-.25-.1.35.35,0,0,0-.25.1m.59-.53h.57v1.58h-.57v-.18a.56.56,0,0,1-.49.23.74.74,0,0,1-.56-.25.76.76,0,0,1-.23-.58.9.9,0,0,1,.24-.63.81.81,0,0,1,.57-.22.61.61,0,0,1,.47.2Z"/><path class="cls-1" d="M76.77,34.18h.56v.2a.6.6,0,0,1,.5-.24.64.64,0,0,1,.47.17.57.57,0,0,1,.15.44v1h-.57V35a.43.43,0,0,0-.07-.31.25.25,0,0,0-.18-.06.35.35,0,0,0-.21.07.4.4,0,0,0-.09.25v.85h-.56Z"/><polygon class="cls-1" points="79.46 34.64 79.46 35.76 78.89 35.76 78.89 34.64 78.71 34.64 78.71 34.18 78.89 34.18 78.89 33.66 79.46 33.66 79.46 34.18 79.78 34.18 79.78 34.64 79.46 34.64"/><path class="cls-1" d="M80.62,34.71a.37.37,0,0,0-.1.26.39.39,0,0,0,.1.25.4.4,0,0,0,.26.1.39.39,0,0,0,.25-.1.36.36,0,0,0,.11-.25.38.38,0,0,0-.11-.26.37.37,0,0,0-.25-.1.42.42,0,0,0-.26.1m1,.84a1,1,0,0,1-.7.26,1,1,0,0,1-.71-.26.82.82,0,0,1,0-1.16,1.09,1.09,0,0,1,1.41,0,.75.75,0,0,1,.25.58.8.8,0,0,1-.25.58"/><rect class="cls-1" x="82.15" y="33.18" width="0.57" height="2.57"/><path class="cls-1" d="M83.73,34.71a.38.38,0,0,0-.11.26.41.41,0,0,0,.11.25.4.4,0,0,0,.26.1.39.39,0,0,0,.25-.1.36.36,0,0,0,.11-.25.38.38,0,0,0-.11-.26.42.42,0,0,0-.25-.1.4.4,0,0,0-.26.1m1,.84a1.09,1.09,0,0,1-1.41,0A.79.79,0,0,1,83,35a.75.75,0,0,1,.24-.58,1.09,1.09,0,0,1,1.41,0,.75.75,0,0,1,.24.58.79.79,0,0,1-.24.58"/><path class="cls-1" d="M85.88,34.71a.37.37,0,0,0-.11.25.38.38,0,0,0,.11.26.34.34,0,0,0,.26.1.42.42,0,0,0,.25-.1A.4.4,0,0,0,86.5,35a.37.37,0,0,0-.12-.25.33.33,0,0,0-.25-.11.38.38,0,0,0-.25.11M87,34.18v1.48a.84.84,0,0,1-.21.65.93.93,0,0,1-.7.26,1,1,0,0,1-.73-.28.54.54,0,0,1-.18-.33h.63a.25.25,0,0,0,.27.16.37.37,0,0,0,.25-.09.39.39,0,0,0,.11-.29v-.16a.6.6,0,0,1-.47.21.81.81,0,0,1-.59-.22.85.85,0,0,1-.22-.58.91.91,0,0,1,.24-.62.78.78,0,0,1,.57-.24.61.61,0,0,1,.47.21v-.16Z"/><path class="cls-1" d="M88.26,33.44l-.55.48-.26-.19.45-.55ZM88,35.76h-.56V34.18H88Z"/><path class="cls-1" d="M89,34.71a.4.4,0,0,0-.11.26.34.34,0,0,0,.11.25.38.38,0,0,0,.25.11.36.36,0,0,0,.26-.11.34.34,0,0,0,.1-.25.36.36,0,0,0-.1-.26.39.39,0,0,0-.26-.1.35.35,0,0,0-.25.1m.6-.53h.56v1.58h-.56v-.18a.57.57,0,0,1-.49.23.76.76,0,0,1-.57-.25A.8.8,0,0,1,88.3,35a.86.86,0,0,1,.25-.63.77.77,0,0,1,.56-.22.65.65,0,0,1,.48.2Z"/><path class="cls-1" d="M87.52,14.25l-.14,0h-.06v.27h.1a.18.18,0,0,0,.13,0,.13.13,0,0,0,0-.11.11.11,0,0,0-.08-.1m-.44.74v-.92h.45a.48.48,0,0,1,.18,0,.24.24,0,0,1,.12.22.22.22,0,0,1-.06.17.44.44,0,0,1-.16.06.32.32,0,0,1,.13,0,.26.26,0,0,1,.08.21V15h-.23a.39.39,0,0,1,0-.13.31.31,0,0,0,0-.11.12.12,0,0,0-.07-.07h-.19V15ZM87,14.05a.65.65,0,0,0-.19.48.68.68,0,0,0,1.16.49.7.7,0,0,0,.2-.49.66.66,0,0,0-.2-.48.63.63,0,0,0-.48-.21.67.67,0,0,0-.49.21M88,15.12a.8.8,0,0,1-.58.24.79.79,0,0,1-.59-.24.81.81,0,0,1-.24-.59.79.79,0,0,1,.26-.6.81.81,0,0,1,.57-.23.78.78,0,0,1,.58.24.85.85,0,0,1,0,1.18"/></svg>