<?xml version="1.0" encoding="utf-8"?>
<!-- Generator: Adobe Illustrator 25.4.1, SVG Export Plug-In . SVG Version: 6.00 Build 0)  -->
<svg version="1.1" id="Capa_1" xmlns="http://www.w3.org/2000/svg" xmlns:xlink="http://www.w3.org/1999/xlink" x="0px" y="0px"
	 viewBox="0 0 135 46" style="enable-background:new 0 0 135 46;" xml:space="preserve">
<style type="text/css">
	.st0{fill:#38444E;}
	.st1{fill:#E64860;}
	.st2{fill:#808791;}
	.st3{clip-path:url(#SVGID_00000173866463066163676980000015206254909763245722_);fill:#E64860;}
	.st4{fill:none;stroke:#E64860;stroke-width:0.6287;stroke-miterlimit:10;}
	.st5{fill:#194374;}
	.st6{fill:#00659B;}
	.st7{fill:#DC0D6E;}
	.st8{fill:#004D80;}
	.st9{fill:#7EA9D6;}
	.st10{fill:#B6D4EF;}
	.st11{fill:#058DC7;}
	.st12{fill:#00559F;}
	.st13{fill:#134A83;}
	.st14{fill:#B51975;}
	.st15{fill:#2497D0;}
	.st16{fill:#D80F3B;}
	.st17{fill:#9BC338;}
	.st18{fill:#008541;}
	.st19{fill:#9DC438;}
	
		.st20{clip-path:url(#SVGID_00000052790295620104019070000002361994920410232966_);fill:url(#SVGID_00000049190516335955931570000007775280165325088688_);}
	
		.st21{clip-path:url(#SVGID_00000016069226465200703920000015624312642559985796_);fill:url(#SVGID_00000101821764047682758450000012355131464094208173_);}
	
		.st22{clip-path:url(#SVGID_00000169552849886477151700000017747486929787642787_);fill:url(#SVGID_00000147219535285738714820000014546164780991361968_);}
	.st23{fill:#F9BE12;}
	.st24{clip-path:url(#SVGID_00000090263042689338704170000010026969372373817275_);}
	.st25{clip-path:url(#SVGID_00000109726099950524091020000009559049515228122765_);}
	.st26{clip-path:url(#SVGID_00000134243522350612258000000000540341366837589667_);}
	.st27{clip-path:url(#SVGID_00000074429888255570947410000006296631283033099140_);}
	.st28{clip-path:url(#SVGID_00000041272478699832739330000012716380882973897120_);}
	.st29{clip-path:url(#SVGID_00000155139005897228987090000017071036146445017786_);}
	.st30{clip-path:url(#SVGID_00000100378124960562447590000001082404783860587649_);}
	.st31{clip-path:url(#SVGID_00000138549697941112215550000012266781702824230823_);}
	.st32{clip-path:url(#SVGID_00000147200638931948604600000008012710530713488556_);}
	
		.st33{clip-path:url(#SVGID_00000002386424171613862300000007153127278325165237_);fill:url(#SVGID_00000130607366301737691710000006262688233281944251_);}
	.st34{clip-path:url(#SVGID_00000112606001656502886590000005382346939261193118_);}
	.st35{clip-path:url(#SVGID_00000067236322402057552710000003605275355082067364_);}
	.st36{clip-path:url(#SVGID_00000163760210030641847590000004136779153623543954_);}
	.st37{clip-path:url(#SVGID_00000032634256028992608130000014559491264974185660_);}
	.st38{clip-path:url(#SVGID_00000083056026054578183280000014054193073523311035_);}
	.st39{clip-path:url(#SVGID_00000114795853543764478030000009896829028250337666_);}
	.st40{fill:#009BDA;}
	.st41{fill:#CE1620;}
	.st42{fill:#171915;}
	.st43{fill:#E30750;}
	.st44{fill:#5775B5;}
	.st45{fill:none;stroke:#5775B5;stroke-width:0.5802;}
	.st46{fill:#5A595C;}
	.st47{fill:#FFFFFF;}
	.st48{fill:#364F8F;}
	.st49{fill:none;stroke:#364F8F;stroke-width:0.3873;}
	.st50{fill:none;stroke:#364F8F;stroke-width:1.3345;stroke-linecap:round;}
	.st51{fill:#656362;}
	.st52{fill:#C8D44A;}
	.st53{fill:#E42E38;}
	.st54{fill:none;stroke:#FFFFFF;stroke-width:0.4523;stroke-miterlimit:10;}
	.st55{fill:#51B054;}
	.st56{fill:#0079BB;}
	.st57{fill:#086EB0;}
	.st58{fill:#99A4AB;}
	.st59{fill:#B2A7A5;}
	.st60{fill:#931340;}
	.st61{fill:#DFDCD9;}
	.st62{fill:#27A1D7;}
	.st63{fill:none;stroke:#000000;stroke-width:0.1494;stroke-linejoin:bevel;stroke-miterlimit:22.926;}
	.st64{fill:none;stroke:#000000;stroke-width:0.1585;stroke-miterlimit:22.926;}
	.st65{fill:#EA3D36;stroke:#ED1C24;stroke-width:0.1417;stroke-linejoin:round;}
	.st66{fill:#EA3D36;}
</style>
<path class="st0" d="M53.2,40h-0.5l0.3-1h0.5c0.2,0,0.3,0,0.4,0.1c0.1,0.1,0.1,0.2,0.1,0.3C53.9,39.8,53.6,40,53.2,40 M53.4,38.4h-1
	l-0.9,3.3h0.7l0.3-1h0.6c0.9,0,1.6-0.5,1.6-1.3c0-0.3-0.1-0.5-0.2-0.7C54.2,38.4,53.9,38.4,53.4,38.4 M50.9,38.4l-0.5,1.8
	c-0.1,0.3-0.2,0.5-0.3,0.6C50,40.9,49.8,41,49.6,41c-0.4,0-0.6-0.2-0.6-0.5c0-0.1,0-0.2,0.1-0.4l0.5-1.8h-0.7l-0.4,1.7
	c-0.1,0.2-0.1,0.4-0.1,0.5c0,0.7,0.5,1.1,1.2,1.1c0.5,0,0.8-0.1,1.1-0.4c0.2-0.2,0.4-0.6,0.5-1l0.5-1.9H50.9z M46,41
	c-0.5,0-0.8-0.3-0.8-0.8c0-0.6,0.4-1.2,1.1-1.2c0.5,0,0.8,0.3,0.8,0.8C47.1,40.4,46.7,41,46,41 M46.4,38.3c-1.2,0-1.9,1-1.9,1.9
	c0,0.8,0.6,1.5,1.5,1.5c1.2,0,1.9-1,1.9-1.9C47.9,38.9,47.3,38.3,46.4,38.3 M43.3,39.7c-0.1,0.1-0.4,0.2-0.6,0.2H42l0.2-0.9h0.6
	c0.2,0,0.4,0,0.5,0.1c0.1,0.1,0.1,0.1,0.1,0.3C43.4,39.5,43.4,39.6,43.3,39.7 M42.9,38.4h-1.2l-0.9,3.3h0.7l0.3-1h0.5l0.5,1h0.8
	l-0.5-1.1c0.3-0.1,0.6-0.2,0.7-0.4c0.2-0.2,0.3-0.5,0.3-0.8c0-0.3-0.1-0.5-0.2-0.7C43.7,38.5,43.4,38.4,42.9,38.4 M39.4,39
	c0.4,0,0.7,0.2,0.8,0.4l0.5-0.5c-0.2-0.3-0.6-0.6-1.3-0.6c-1.2,0-2,0.9-2,2c0,1,0.8,1.4,1.5,1.4c0.5,0,0.9-0.1,1.2-0.3l0.5-1.6h-1.4
	l-0.2,0.6h0.7l-0.2,0.5C39.5,41,39.3,41,39.1,41c-0.5,0-0.8-0.3-0.8-0.8C38.2,39.6,38.8,39,39.4,39 M56.2,33.9h-0.7l-0.9,3.3h2.3
	l0.2-0.7h-1.6L56.2,33.9z M53.2,34.7l0.1,1.1h-0.9L53.2,34.7z M52,36.4h1.4l0.1,0.7h0.7l-0.5-3.3H53l-2.3,3.3h0.8L52,36.4z M50,37.2
	l0.7-2.6h1l0.2-0.7h-2.7L49,34.6h1l-0.7,2.6H50z M46.5,33.9h-0.7L45,37.2h0.7l0.6-2.1l1,2.1h0.6l0.9-3.3H48L47.4,36L46.5,33.9z
	 M42.8,36.5l0.2-0.7h1.5l0.2-0.6h-1.5l0.2-0.7H45l0.2-0.6h-2.4l-0.9,3.3h2.4l0.2-0.6H42.8z M41,35.3c0,0.3-0.1,0.6-0.3,0.8
	c-0.3,0.3-0.6,0.4-1.1,0.4h-0.4l0.5-2h0.3c0.4,0,0.6,0.1,0.7,0.2C41,34.9,41,35.1,41,35.3 M39.2,33.9l-0.9,3.3h1.2
	c0.7,0,1.3-0.2,1.7-0.6c0.3-0.4,0.5-0.8,0.5-1.3c0-0.4-0.1-0.7-0.3-1c-0.2-0.2-0.6-0.4-1.3-0.4H39.2z M63,24.5L63,24.5
	C63,24.5,63,24.5,63,24.5L63,24.5z M68.8,30.8l2-8.7c0-0.1,0-0.1,0-0.2c0-0.4-0.3-0.8-0.7-0.8l-1.2,0l-5.6,0h-0.4
	c-0.2,0-0.4,0.2-0.5,0.4c0,0.1,0,0.1,0,0.2l0.6,2.5l0.1,0.4c0.1,0.3,0.4,0.4,0.7,0.4l0.4,0l0.9,0l0.4,0c0.2,0,0.4,0.2,0.3,0.4
	c0,0,0,0,0,0l-0.6,2.6c-0.1,0.3-0.3,0.5-0.6,0.6c-0.6,0.3-1.3,0.4-2.2,0.4c-0.8,0-1.5-0.2-2-0.4c-1.7-0.9-2.1-3.4-1.6-5.5
	c0.9-3.8,2.3-5.7,5.7-5.7l0.9,0l2.6,0l1.7,0c0.6,0,1.3-0.3,1.6-0.8l0.2-0.4l1.1-2.1c0,0,0-0.1,0-0.2c0-0.2-0.2-0.4-0.4-0.4h-0.4
	l-6,0h-0.5c-7.2,0-9.7,4.2-10.9,9.4c-0.8,3.7,0.7,7.1,3.3,8.6c1.1,0.7,2.8,1,4.8,1c2,0,4-0.4,5.4-1.1C68.4,31.4,68.7,31.1,68.8,30.8
	 M71.8,32.5l0.4,0l2.6,0l0.4,0c0.2,0,0.5-0.2,0.5-0.4l3.1-13.6c0,0,0-0.1,0.1-0.1c0,0,0.1,0,0.1,0.1l0.6,9.9c0,0.2,0.1,0.4,0.3,0.4
	h0.4l3,0h0.4c0.3,0,0.7-0.1,1.1-0.4c0.3-0.2,0.5-0.4,0.7-0.8l0.2-0.4l4.4-8.3l0.2-0.4l0,0c0,0,0.1-0.1,0.1-0.1c0,0,0.1,0,0.1,0.1
	l-0.1,0.4l-3,13l-0.1,0.3c0,0.2,0.1,0.4,0.3,0.4l0.4,0l2.6,0l0.4,0c0.2,0,0.5-0.2,0.5-0.4l0.1-0.4l4-17.4l0.1-0.4
	c0-0.2-0.1-0.4-0.3-0.4l-0.4,0l-4.7,0l-0.6,0c-0.3,0-0.7,0.1-1.1,0.4c-0.3,0.2-0.5,0.4-0.7,0.8L87.9,15l-4,7.7c0,0,0,0.1-0.1,0.1
	c-0.1,0-0.1,0-0.1-0.1l-0.5-7.2l0-0.4c0-0.4-0.1-0.7-0.4-1c-0.3-0.3-0.8-0.5-1.4-0.5h-0.4l-4.3,0l-0.5,0c-0.2,0-0.4,0.2-0.5,0.4
	l-0.1,0.4l-4.1,17.8C71.5,32.3,71.6,32.5,71.8,32.5 M71,5c0.1,0,0.2,0,0.3,0c0.2,0,0.3-0.1,0.4-0.3c0-0.2-0.1-0.3-0.2-0.3
	c-0.1,0-0.3,0-0.4,0c-1.2,0-2.4-0.1-3.6-0.1c-22.7,0-41,8.3-41.1,18.6c0,3.5,2.1,6.7,5.7,9.5c0,0,0.1,0,0.1,0.1c0,0,0.1,0,0.1,0
	c0.1,0,0.2-0.1,0.3-0.2c0-0.1,0-0.1-0.1-0.2c0,0-0.1-0.1-0.1-0.1c-2.7-2.7-3.9-5.8-3.2-9.1C31.5,13.1,50.1,5.1,71,5 M50.7,24.5
	C50.7,24.5,50.7,24.5,50.7,24.5L50.7,24.5L50.7,24.5z M55.4,14.1c0,0,0-0.1,0-0.2c0-0.2-0.2-0.4-0.4-0.4l-0.4,0l-10,0l-0.5,0
	c-0.4,0-0.8,0.3-0.9,0.7l-4,17.5l-0.1,0.4c0,0.2,0.1,0.4,0.3,0.4l0.4,0l2.6,0l0.4,0c0.2,0,0.5-0.2,0.5-0.4l0-0.1l1.6-6.7
	c0.1-0.2,0.3-0.3,0.4-0.3h0l0.5,0l1.6,0l2.3,0c0.3,0,0.6-0.1,0.8-0.4l0.2-0.4l1.3-2.5c0,0,0-0.1,0-0.2c0-0.2-0.2-0.4-0.4-0.4h-0.4
	l-4.6,0l-0.5,0c-0.2,0-0.3-0.2-0.3-0.4l0-0.1l0.7-3c0-0.2,0.2-0.4,0.4-0.4l0.5,0l3.1,0l1.7,0c0.6,0,1.3-0.3,1.6-0.8l0.2-0.4
	L55.4,14.1z M102.9,13.5C102.8,13.5,102.8,13.5,102.9,13.5c-0.1-0.1-0.2-0.1-0.2-0.1c-0.1,0-0.2,0.1-0.3,0.2c0,0.1,0,0.1,0.1,0.2
	c0,0,0.1,0.1,0.1,0.1c2.7,2.7,3.9,5.8,3.2,9.1c-2.2,9.8-20.8,17.8-41.7,17.9c-0.1,0-0.2,0-0.3,0c-0.2,0-0.3,0.1-0.4,0.3
	c0,0.2,0.1,0.3,0.2,0.3c0.1,0,0.3,0,0.4,0c1.2,0,2.4,0.1,3.6,0.1c22.7,0,41-8.3,41.1-18.6C108.5,19.6,106.5,16.3,102.9,13.5"/>
</svg>
