<svg xmlns="http://www.w3.org/2000/svg" viewBox="0 0 40.21 34.53"><defs><style>.cls-1{fill:#171915;}.cls-2{fill:#e30750;}</style></defs><g id="Capa_2" data-name="Capa 2"><g id="Capa_1-2" data-name="Capa 1"><path class="cls-1" d="M0,20.33H2.26a2.7,2.7,0,0,1,1.08.18A1.68,1.68,0,0,1,4,21a2.17,2.17,0,0,1,.39.79,3.69,3.69,0,0,1,.12.95A3.33,3.33,0,0,1,4.35,24a2,2,0,0,1-.5.73,1.74,1.74,0,0,1-.68.39,3.5,3.5,0,0,1-.91.13H0Zm1.52,1.11h0v2.69H1.9a1.56,1.56,0,0,0,.67-.1.74.74,0,0,0,.32-.37A2.28,2.28,0,0,0,3,22.8a1.66,1.66,0,0,0-.25-1.07,1.09,1.09,0,0,0-.85-.29Z"/><polygon class="cls-1" points="7.42 20.33 11.49 20.33 11.49 21.38 8.94 21.38 8.94 22.16 11.31 22.16 11.31 23.17 8.94 23.17 8.94 24.14 11.57 24.14 11.57 25.25 7.42 25.25 7.42 20.33"/><polygon class="cls-1" points="14.48 20.33 15.9 20.33 17.76 23.05 17.76 20.33 19.19 20.33 19.19 25.25 17.76 25.25 15.91 22.55 15.91 25.25 14.48 25.25 14.48 20.33"/><polygon class="cls-1" points="21.95 20.33 26.57 20.33 26.57 21.54 25.02 21.54 25.02 25.25 23.5 25.25 23.5 21.54 21.95 21.54 21.95 20.33"/><path class="cls-1" d="M31.91,24.44H30.18l-.24.81H28.39l1.85-4.92H31.9l1.85,4.92h-1.6Zm-.32-1.07h0l-.54-1.77-.54,1.77Z"/><polygon class="cls-1" points="36.32 20.33 37.84 20.33 37.84 24.04 40.21 24.04 40.21 25.25 36.32 25.25 36.32 20.33"/><rect class="cls-2" y="18.38" width="40.21" height="0.91"/><rect class="cls-1" y="26.25" width="0.44" height="3.43"/><path class="cls-1" d="M1.16,29.68V27.2h.37v.35a.88.88,0,0,1,.77-.41,1,1,0,0,1,.4.08.75.75,0,0,1,.27.21.83.83,0,0,1,.13.32,2,2,0,0,1,0,.41v1.52h-.4V28.17a1.16,1.16,0,0,0-.05-.38.39.39,0,0,0-.17-.21.54.54,0,0,0-.29-.07.63.63,0,0,0-.45.17.88.88,0,0,0-.19.65v1.35Z"/><path class="cls-1" d="M3.75,29.68V27.2h.37v.35a.86.86,0,0,1,.76-.41,1.11,1.11,0,0,1,.41.08.75.75,0,0,1,.27.21,1,1,0,0,1,.13.32,3.25,3.25,0,0,1,0,.41v1.52H5.3V28.17a.94.94,0,0,0,0-.38.39.39,0,0,0-.17-.21.51.51,0,0,0-.28-.07.6.6,0,0,0-.45.17.84.84,0,0,0-.19.65v1.35Z"/><path class="cls-1" d="M6.18,28.44a1.29,1.29,0,0,1,.38-1,1.06,1.06,0,0,1,.75-.28,1.05,1.05,0,0,1,.82.34,1.29,1.29,0,0,1,.31.93,1.57,1.57,0,0,1-.14.75,1,1,0,0,1-.4.43,1.2,1.2,0,0,1-.59.15,1.06,1.06,0,0,1-.81-.33,1.38,1.38,0,0,1-.32-1m.42,0h0a1.07,1.07,0,0,0,.21.72.64.64,0,0,0,.5.23.63.63,0,0,0,.51-.24,1.1,1.1,0,0,0,.2-.72,1.08,1.08,0,0,0-.2-.7.64.64,0,0,0-.51-.24.62.62,0,0,0-.5.24,1,1,0,0,0-.21.71"/><path class="cls-1" d="M9.59,29.68,8.67,27.2H9.1l.52,1.49c.06.16.11.32.16.5a4.12,4.12,0,0,1,.15-.48l.53-1.51h.42L10,29.68Z"/><path class="cls-1" d="M12.82,29.38a1.69,1.69,0,0,1-.44.28,1.33,1.33,0,0,1-.45.08.88.88,0,0,1-.61-.2.66.66,0,0,1-.21-.51.68.68,0,0,1,.08-.34.61.61,0,0,1,.21-.24,1.3,1.3,0,0,1,.29-.14l.37-.06a4.13,4.13,0,0,0,.72-.14.66.66,0,0,0,0-.11.47.47,0,0,0-.12-.37.68.68,0,0,0-.46-.14.69.69,0,0,0-.43.11.59.59,0,0,0-.2.36l-.4-.05a.89.89,0,0,1,.18-.43.75.75,0,0,1,.36-.25,1.49,1.49,0,0,1,.54-.09,1.43,1.43,0,0,1,.51.08.66.66,0,0,1,.28.19.73.73,0,0,1,.13.28,3,3,0,0,1,0,.39v.56c0,.39,0,.64,0,.75a1,1,0,0,0,.11.29H12.9a.88.88,0,0,1-.08-.3m0-.94h0a3.34,3.34,0,0,1-.66.16,1.39,1.39,0,0,0-.36.08.36.36,0,0,0-.16.14.34.34,0,0,0-.06.2.35.35,0,0,0,.13.28.53.53,0,0,0,.36.11.82.82,0,0,0,.42-.11.63.63,0,0,0,.27-.29,1.1,1.1,0,0,0,.06-.42Z"/><path class="cls-1" d="M14.72,29.31l.06.37a1.88,1.88,0,0,1-.31,0,.63.63,0,0,1-.34-.08.35.35,0,0,1-.17-.19,1.34,1.34,0,0,1-.05-.49V27.53h-.3V27.2h.3v-.62l.4-.25v.87h.41v.33h-.41V29a.92.92,0,0,0,0,.23.19.19,0,0,0,.07.08.29.29,0,0,0,.14,0h.18"/><path class="cls-1" d="M15.12,29.68h.41V27.2h-.41Zm0-2.94h.41v-.49h-.41Z"/><path class="cls-1" d="M16.82,29.68l-.91-2.48h.43l.52,1.49c.05.16.1.32.15.5l.15-.48.54-1.51h.42l-.91,2.48Z"/><path class="cls-1" d="M20.13,28.88l.42.06a1,1,0,0,1-1.06.8,1.08,1.08,0,0,1-.84-.34,1.35,1.35,0,0,1-.31-.94,1.38,1.38,0,0,1,.32-1,1.1,1.1,0,0,1,1.6,0,1.42,1.42,0,0,1,.3,1v.11h-1.8a1.06,1.06,0,0,0,.23.63.66.66,0,0,0,.5.21.65.65,0,0,0,.39-.12.82.82,0,0,0,.25-.39m-1.34-.68h1.34a.84.84,0,0,0-.15-.47.63.63,0,0,0-.51-.24.64.64,0,0,0-.47.19.77.77,0,0,0-.21.52"/><path class="cls-1" d="M22.41,29.68V26.25h1.25a2.27,2.27,0,0,1,.51,0,.88.88,0,0,1,.41.16.82.82,0,0,1,.27.33,1.2,1.2,0,0,1,.1.47,1.09,1.09,0,0,1-.27.74,1.29,1.29,0,0,1-1,.3h-.85v1.39Zm.44-1.8h.86a.86.86,0,0,0,.6-.16.59.59,0,0,0,.18-.46.64.64,0,0,0-.1-.37.47.47,0,0,0-.28-.2,1.82,1.82,0,0,0-.41,0h-.85Z"/><path class="cls-1" d="M25.45,29.68V27.2h.37v.38a.89.89,0,0,1,.26-.35.43.43,0,0,1,.26-.09.78.78,0,0,1,.42.14l-.14.39a.58.58,0,0,0-.3-.09.41.41,0,0,0-.24.08.46.46,0,0,0-.15.23,1.53,1.53,0,0,0-.07.49v1.3Z"/><path class="cls-1" d="M26.85,28.44a1.32,1.32,0,0,1,.37-1,1.08,1.08,0,0,1,.76-.28,1.06,1.06,0,0,1,.82.34,1.29,1.29,0,0,1,.31.93,1.7,1.7,0,0,1-.14.75,1,1,0,0,1-.41.43,1.14,1.14,0,0,1-.58.15,1.09,1.09,0,0,1-.82-.33,1.43,1.43,0,0,1-.31-1m.42,0h0a1.12,1.12,0,0,0,.2.72.68.68,0,0,0,.51.23.64.64,0,0,0,.51-.24,1.1,1.1,0,0,0,.2-.72,1.08,1.08,0,0,0-.2-.7.66.66,0,0,0-1,0,1.07,1.07,0,0,0-.2.71"/><path class="cls-1" d="M31.15,29.68v-.31a.72.72,0,0,1-.67.37.92.92,0,0,1-.53-.16,1.15,1.15,0,0,1-.38-.46,1.79,1.79,0,0,1-.13-.68,1.81,1.81,0,0,1,.12-.67.93.93,0,0,1,.9-.63.71.71,0,0,1,.39.1.81.81,0,0,1,.28.24V26.25h.4v3.43Zm-1.29-1.24h0a1.12,1.12,0,0,0,.2.72.59.59,0,0,0,.46.23.55.55,0,0,0,.45-.22,1,1,0,0,0,.19-.69,1.18,1.18,0,0,0-.19-.75.58.58,0,0,0-.47-.24.59.59,0,0,0-.46.23,1.15,1.15,0,0,0-.18.72"/><path class="cls-1" d="M33.75,29.68v-.36a.86.86,0,0,1-.76.42,1.06,1.06,0,0,1-.4-.08.67.67,0,0,1-.27-.22.73.73,0,0,1-.13-.31,2,2,0,0,1,0-.39V27.2h.4v1.38a2.08,2.08,0,0,0,0,.44.42.42,0,0,0,.16.26.48.48,0,0,0,.31.1.64.64,0,0,0,.35-.1.51.51,0,0,0,.22-.26,1.3,1.3,0,0,0,.07-.49V27.2h.41v2.48Z"/><path class="cls-1" d="M36.33,28.77l.4.06a1.07,1.07,0,0,1-.33.67,1,1,0,0,1-.67.24,1,1,0,0,1-.79-.33,1.4,1.4,0,0,1-.3-1,1.86,1.86,0,0,1,.12-.7,1,1,0,0,1,.4-.46,1.13,1.13,0,0,1,.57-.15.91.91,0,0,1,1,.79l-.4.06a.73.73,0,0,0-.2-.37.49.49,0,0,0-.35-.13.63.63,0,0,0-.5.23,1.09,1.09,0,0,0-.19.72,1.19,1.19,0,0,0,.18.73.61.61,0,0,0,.49.22.57.57,0,0,0,.4-.15.76.76,0,0,0,.2-.47"/><path class="cls-1" d="M38,29.31l.06.37a2,2,0,0,1-.31,0,.67.67,0,0,1-.35-.08.35.35,0,0,1-.17-.19,1.62,1.62,0,0,1-.05-.49V27.53h-.3V27.2h.3v-.62l.41-.25v.87H38v.33h-.41V29a.59.59,0,0,0,0,.23.11.11,0,0,0,.07.08.26.26,0,0,0,.14,0H38"/><path class="cls-1" d="M38.21,28.94l.41-.06a.56.56,0,0,0,.19.38.61.61,0,0,0,.43.13.68.68,0,0,0,.42-.11.37.37,0,0,0,.13-.28.27.27,0,0,0-.12-.23,2.16,2.16,0,0,0-.41-.14,4,4,0,0,1-.63-.2.67.67,0,0,1-.26-.24.63.63,0,0,1-.09-.33.82.82,0,0,1,.07-.31.66.66,0,0,1,.21-.23.9.9,0,0,1,.26-.13,1.23,1.23,0,0,1,.35-.05,1.31,1.31,0,0,1,.5.09.67.67,0,0,1,.31.22.86.86,0,0,1,.14.39l-.4.06a.44.44,0,0,0-.15-.3.53.53,0,0,0-.37-.11.67.67,0,0,0-.4.09.29.29,0,0,0-.12.23.23.23,0,0,0,0,.15.37.37,0,0,0,.15.11l.36.11a6,6,0,0,1,.61.19.73.73,0,0,1,.27.22.69.69,0,0,1,.09.36.8.8,0,0,1-.11.4.84.84,0,0,1-.35.29,1.19,1.19,0,0,1-.51.1,1.11,1.11,0,0,1-.71-.2,1,1,0,0,1-.32-.6"/><path class="cls-1" d="M4.27,33.58V30.15h.66l.79,2.42c.07.23.12.4.16.51,0-.12.09-.31.17-.55l.8-2.38h.59v3.43H7V30.7l-1,2.88h-.4l-1-2.92v2.92Z"/><path class="cls-1" d="M9.67,33.27a1.43,1.43,0,0,1-.43.28,1.33,1.33,0,0,1-.45.08.82.82,0,0,1-.61-.2A.64.64,0,0,1,8,32.92.73.73,0,0,1,8,32.59a.79.79,0,0,1,.51-.38,2.86,2.86,0,0,1,.36-.07A4.29,4.29,0,0,0,9.64,32v-.11a.5.5,0,0,0-.11-.36.66.66,0,0,0-.47-.15.68.68,0,0,0-.42.11.63.63,0,0,0-.21.37L8,31.8a1.14,1.14,0,0,1,.18-.43.8.8,0,0,1,.36-.25A1.55,1.55,0,0,1,9.12,31a1.4,1.4,0,0,1,.5.07.7.7,0,0,1,.29.19.6.6,0,0,1,.12.28,2,2,0,0,1,0,.39v.56a5.46,5.46,0,0,0,0,.75,1.18,1.18,0,0,0,.1.3H9.76a.94.94,0,0,1-.09-.31m0-.94h0a3.47,3.47,0,0,1-.67.16,1.29,1.29,0,0,0-.35.08.32.32,0,0,0-.16.14.36.36,0,0,0-.06.2.38.38,0,0,0,.12.28.55.55,0,0,0,.36.11.82.82,0,0,0,.42-.1.56.56,0,0,0,.27-.3.91.91,0,0,0,.07-.42Z"/><path class="cls-1" d="M12.25,33.58v-.32a.74.74,0,0,1-.67.37.9.9,0,0,1-.53-.16,1,1,0,0,1-.38-.46,1.57,1.57,0,0,1-.13-.67,1.83,1.83,0,0,1,.12-.68,1,1,0,0,1,.9-.63.87.87,0,0,1,.39.1.81.81,0,0,1,.27.25V30.15h.41v3.43ZM11,32.34h0a1.11,1.11,0,0,0,.19.71.57.57,0,0,0,.92,0,1.09,1.09,0,0,0,.19-.69,1.25,1.25,0,0,0-.19-.75.59.59,0,0,0-.47-.24.56.56,0,0,0-.46.23,1.21,1.21,0,0,0-.18.73"/><path class="cls-1" d="M14.92,32.78l.42,0a1,1,0,0,1-.37.59,1.09,1.09,0,0,1-.69.21,1.11,1.11,0,0,1-.84-.33,1.66,1.66,0,0,1,0-1.92,1,1,0,0,1,.81-.34,1,1,0,0,1,.79.33,1.37,1.37,0,0,1,.31,1v.11h-1.8a1,1,0,0,0,.22.63.69.69,0,0,0,.51.22.62.62,0,0,0,.38-.13.77.77,0,0,0,.25-.38m-1.34-.69h1.35a.87.87,0,0,0-.16-.47.62.62,0,0,0-.5-.24.66.66,0,0,0-.48.2.74.74,0,0,0-.21.51"/><path class="cls-1" d="M17.58,33.58H18V31.09h-.4Zm0-2.95H18v-.48h-.4Z"/><path class="cls-1" d="M18.61,33.58V31.09H19v.35a.93.93,0,0,1,1.17-.32.67.67,0,0,1,.28.21.72.72,0,0,1,.12.31,2.08,2.08,0,0,1,0,.41v1.53h-.4V32.06a1.16,1.16,0,0,0-.05-.38.37.37,0,0,0-.17-.2.55.55,0,0,0-.29-.08.68.68,0,0,0-.45.17.88.88,0,0,0-.19.65v1.36Z"/><polygon class="cls-1" points="22.41 33.58 22.41 30.14 24.81 30.14 24.81 30.55 22.85 30.55 22.85 31.6 24.69 31.6 24.69 32 22.85 32 22.85 33.17 24.89 33.17 24.89 33.58 22.41 33.58"/><path class="cls-1" d="M27,33.58v-.37a.89.89,0,0,1-.77.42,1.1,1.1,0,0,1-.4-.08.75.75,0,0,1-.27-.21.93.93,0,0,1-.13-.32,3.25,3.25,0,0,1,0-.39V31.09h.41v1.38a2.26,2.26,0,0,0,0,.44.43.43,0,0,0,.17.26.44.44,0,0,0,.3.1.62.62,0,0,0,.35-.1.53.53,0,0,0,.23-.26,1.54,1.54,0,0,0,.06-.49V31.09h.41v2.49Z"/><path class="cls-1" d="M28,33.58V31.09h.37v.38a1,1,0,0,1,.26-.35.39.39,0,0,1,.26-.09.78.78,0,0,1,.42.14l-.14.39a.58.58,0,0,0-.3-.09.41.41,0,0,0-.24.08.53.53,0,0,0-.16.23,1.93,1.93,0,0,0-.06.49v1.31Z"/><path class="cls-1" d="M29.43,32.33a1.29,1.29,0,0,1,.37-1,1.12,1.12,0,0,1,.76-.27,1.07,1.07,0,0,1,.81.33,1.3,1.3,0,0,1,.32.93,1.7,1.7,0,0,1-.14.75,1,1,0,0,1-.41.43,1.17,1.17,0,0,1-.58.15,1.08,1.08,0,0,1-.82-.33,1.38,1.38,0,0,1-.31-1m.42,0h0a1.12,1.12,0,0,0,.2.72.65.65,0,0,0,1,0,1.08,1.08,0,0,0,.21-.73,1,1,0,0,0-.21-.7.65.65,0,0,0-1,0,1.11,1.11,0,0,0-.2.71"/><path class="cls-1" d="M32.17,34.53V31.09h.37v.32a.88.88,0,0,1,.3-.28.82.82,0,0,1,.4-.1.94.94,0,0,1,.54.17,1,1,0,0,1,.36.46,1.75,1.75,0,0,1,.12.65,1.84,1.84,0,0,1-.13.69,1,1,0,0,1-.39.47,1,1,0,0,1-.53.16.75.75,0,0,1-.37-.09.84.84,0,0,1-.27-.22v1.21Zm.37-2.18h0a1.16,1.16,0,0,0,.18.71.58.58,0,0,0,.93,0,1.17,1.17,0,0,0,.19-.74,1.11,1.11,0,0,0-.19-.71.56.56,0,0,0-.45-.24.57.57,0,0,0-.46.26,1.1,1.1,0,0,0-.2.73"/><path class="cls-1" d="M36.4,32.78l.42,0a1,1,0,0,1-.37.59,1.09,1.09,0,0,1-.69.21,1.11,1.11,0,0,1-.84-.33,1.62,1.62,0,0,1,0-1.92,1,1,0,0,1,.81-.34,1,1,0,0,1,.79.33,1.37,1.37,0,0,1,.31,1,.54.54,0,0,1,0,.11H35a1,1,0,0,0,.22.63.69.69,0,0,0,.51.22.62.62,0,0,0,.38-.13.77.77,0,0,0,.25-.38m-1.34-.69h1.35a.87.87,0,0,0-.16-.47.62.62,0,0,0-.5-.24.66.66,0,0,0-.48.2.74.74,0,0,0-.21.51"/><path class="cls-1" d="M25.12,12.34a4.32,4.32,0,0,1,0-8.64h6.76a5,5,0,0,0-1.55,1.44H25.12a2.88,2.88,0,0,0,0,5.76h1.44a2.15,2.15,0,1,1,0,4.3H18.37a5.25,5.25,0,0,0,1.55-1.42h6.64a.73.73,0,0,0,.72-.72.72.72,0,0,0-.72-.72Z"/><path class="cls-1" d="M35.6,13.78H34.44V15.2H35.6c.4-1.42.72-1.76.72-2.14a.72.72,0,0,0-.72-.72V10.9a2.15,2.15,0,1,1,0,4.3Zm-1.16-1.44H35.6V10.9H34.44Zm0-7.2h0V3.7h5.77L38.78,5.14H34.44Zm1.16,8.64H31.54a5.87,5.87,0,0,1-.45,1.42h3.35V13.78ZM34.44,3.7h0V5.14a2.88,2.88,0,0,0,0,5.76v1.44a4.32,4.32,0,0,1,0-8.64"/><path class="cls-1" d="M35.6,15.92H30.67a5,5,0,0,1-1.52,1.44H35.6a4.31,4.31,0,1,0,0-8.62H34.46A.74.74,0,0,1,33.74,8a.73.73,0,0,1,.72-.72h2.88l1.43-1.44H34.46a2.16,2.16,0,1,0,0,4.32H35.6a2.87,2.87,0,1,1,0,5.74"/><path class="cls-1" d="M1.46,15.26v0ZM25.12,8.74h1.44a4.31,4.31,0,1,1,0,8.62H10.05v-2.1A8.63,8.63,0,0,0,3.2,6.84a6.56,6.56,0,0,0,1.8-1,10.1,10.1,0,0,1,6.49,9.4v.66H26.56a2.87,2.87,0,1,0,0-5.74H25.12a2.16,2.16,0,0,1,0-4.32h4.81a4.48,4.48,0,0,0-.45,1.44H25.12A.73.73,0,0,0,24.4,8a.74.74,0,0,0,.72.72"/><path class="cls-1" d="M18.65,10.94a2.88,2.88,0,0,1-5.76,0V4.7l-1.44-.61v6.85a4.32,4.32,0,1,0,8.64,0V4.19l-1.44.47s0,4.82,0,6.28"/><path class="cls-1" d="M14.33,10.94h.72a.72.72,0,1,0,1.44,0V5.06l1.44-.15v6a2.16,2.16,0,0,1-3.6,1.61Zm.72,0h0V5.14L14.33,5v5.9Zm-1.44,0h.72v1.61a2.13,2.13,0,0,1-.72-1.61M14.33,5h0l-.72-.11v6h.72Z"/><path class="cls-1" d="M7.9.11H9.33A8.62,8.62,0,0,1,5.14,7.49,9.83,9.83,0,0,0,3.2,6.84,7.2,7.2,0,0,0,7.9.11M1.44,8.7h0c-.25,0-.49,0-.74,0h0L.7.11V7.3c.25,0,.49,0,.72,0Z"/><path class="cls-1" d="M5.74.11H7.15A6.5,6.5,0,0,1,2.71,6.24l-.63.17.1-6.3H3.6l0,4.12A5,5,0,0,0,5.74.11"/><rect class="cls-1" y="0.11" width="1.46" height="17.25"/><path class="cls-1" d="M1.46,15.26v0Zm7.87,2.1H7.89v-2.1A6.44,6.44,0,0,0,3.58,9.19l0,8.17H2.12l0-9.95.21,0a7.92,7.92,0,0,1,7,7.81Z"/><path class="cls-2" d="M10.19,1.44c1.93-.23,3.75.23,5.48.23a50.72,50.72,0,0,1,5.57-.17A42.33,42.33,0,0,0,16.67,0a1.06,1.06,0,0,1-1.06.59,1.07,1.07,0,0,1-1-.53,28.44,28.44,0,0,0-4.4,1.38"/><path class="cls-2" d="M10.19,1.44c1.82.21,3.62,1,5.4,1s3.79-.67,5.65-.91A7.94,7.94,0,0,1,15.59,4a8.28,8.28,0,0,1-5.4-2.54"/></g></g></svg>