<?xml version="1.0" encoding="utf-8"?>
<!-- Generator: Adobe Illustrator 25.4.1, SVG Export Plug-In . SVG Version: 6.00 Build 0)  -->
<svg version="1.1" id="Capa_1" xmlns="http://www.w3.org/2000/svg" xmlns:xlink="http://www.w3.org/1999/xlink" x="0px" y="0px"
	 viewBox="0 0 135 46" style="enable-background:new 0 0 135 46;" xml:space="preserve">
<style type="text/css">
	.st0{fill:#38444E;}
	.st1{fill:#E64860;}
	.st2{fill:#808791;}
	.st3{clip-path:url(#SVGID_00000149357420519336833170000005762109337957446039_);fill:#E64860;}
	.st4{fill:none;stroke:#E64860;stroke-width:0.6287;stroke-miterlimit:10;}
	.st5{fill:#194374;}
	.st6{fill:#00659B;}
	.st7{fill:#DC0D6E;}
	.st8{fill:#004D80;}
	.st9{fill:#7EA9D6;}
	.st10{fill:#B6D4EF;}
	.st11{fill:#058DC7;}
	.st12{fill:#00559F;}
	.st13{fill:#134A83;}
	.st14{fill:#B51975;}
	.st15{fill:#2497D0;}
	.st16{fill:#D80F3B;}
	.st17{fill:#9BC338;}
	.st18{fill:#008541;}
	.st19{fill:#9DC438;}
	
		.st20{clip-path:url(#SVGID_00000173131902355845298490000010144199367141841308_);fill:url(#SVGID_00000140697016118659095840000018225743993869748409_);}
	
		.st21{clip-path:url(#SVGID_00000121963886828386936820000003620140447769435522_);fill:url(#SVGID_00000129205754098148807590000008008584206287491987_);}
	
		.st22{clip-path:url(#SVGID_00000070109906065402392660000015683195053592006334_);fill:url(#SVGID_00000024692177148937642920000001532757395622154930_);}
	.st23{fill:#F9BE12;}
	.st24{clip-path:url(#SVGID_00000085932075100872953140000004277495814224130732_);}
	.st25{clip-path:url(#SVGID_00000178908612107524332650000010935444107801542846_);}
	.st26{clip-path:url(#SVGID_00000027582623550285084210000001512439526717185460_);}
	.st27{clip-path:url(#SVGID_00000016050869773418834610000012818823293321290625_);}
	.st28{clip-path:url(#SVGID_00000132768732970412947560000001552629594346912391_);}
	.st29{clip-path:url(#SVGID_00000166669369028315168870000014422296072658947717_);}
	.st30{clip-path:url(#SVGID_00000106139309638692631420000007765997854080355741_);}
	.st31{clip-path:url(#SVGID_00000162320853203330434460000017455773790560659119_);}
	.st32{clip-path:url(#SVGID_00000150064849639691904830000005770961096029572240_);}
	
		.st33{clip-path:url(#SVGID_00000183957141891494570240000007563704500832348591_);fill:url(#SVGID_00000027606795668611090660000008516471258115082145_);}
	.st34{clip-path:url(#SVGID_00000173160064481345645630000005864512034867702192_);}
	.st35{clip-path:url(#SVGID_00000141457505989781624930000003040981437885767560_);}
	.st36{clip-path:url(#SVGID_00000120560613211337613190000006554743747785543613_);}
	.st37{clip-path:url(#SVGID_00000097465496315818523130000017446774067347908770_);}
	.st38{clip-path:url(#SVGID_00000043441685052463247480000010700292944677304503_);}
	.st39{clip-path:url(#SVGID_00000073721088907037328860000003948576521478255775_);}
	.st40{fill:#009BDA;}
	.st41{fill:#CE1620;}
	.st42{fill:#171915;}
	.st43{fill:#E30750;}
	.st44{fill:#5775B5;}
	.st45{fill:none;stroke:#5775B5;stroke-width:0.5802;}
	.st46{fill:#5A595C;}
	.st47{fill:#FFFFFF;}
	.st48{fill:#364F8F;}
	.st49{fill:none;stroke:#364F8F;stroke-width:0.3873;}
	.st50{fill:none;stroke:#364F8F;stroke-width:1.3345;stroke-linecap:round;}
	.st51{fill:#656362;}
	.st52{fill:#C8D44A;}
	.st53{fill:#E42E38;}
	.st54{fill:none;stroke:#FFFFFF;stroke-width:0.4523;stroke-miterlimit:10;}
	.st55{fill:#51B054;}
	.st56{fill:#0079BB;}
	.st57{fill:#086EB0;}
	.st58{fill:#99A4AB;}
	.st59{fill:#B2A7A5;}
	.st60{fill:#931340;}
	.st61{fill:#DFDCD9;}
	.st62{fill:#27A1D7;}
	.st63{fill:none;stroke:#000000;stroke-width:0.1494;stroke-linejoin:bevel;stroke-miterlimit:22.926;}
	.st64{fill:none;stroke:#000000;stroke-width:0.1585;stroke-miterlimit:22.926;}
	.st65{fill:#EA3D36;stroke:#ED1C24;stroke-width:0.1417;stroke-linejoin:round;}
	.st66{fill:#EA3D36;}
</style>
<g>
	<path class="st44" d="M28.8,12.8c-0.7,0-1.7,0-2.1,0.1l-2.4,14c0.4,0,1.3,0.1,2.1,0.1c2.8,0,4.5-1.1,5.2-5.1l0.7-3.9
		c0.1-0.7,0.2-1.3,0.2-1.8C32.4,13.6,31,12.8,28.8,12.8 M37.2,18l-0.7,3.9c-1.2,6.8-4.5,9.5-10.9,9.5c-2.4,0-4.9-0.2-6.1-0.4
		c-0.4-0.1-0.8-0.3-0.8-0.3s0.1-0.7,0.3-1.7l3.4-19.8L23.3,9c0,0,3.9-0.4,6.3-0.4c4.8,0,7.9,2.7,7.9,7.3
		C37.4,16.5,37.4,17.2,37.2,18"/>
	<path class="st45" d="M28.8,12.8c-0.7,0-1.7,0-2.1,0.1l-2.4,14c0.4,0,1.3,0.1,2.1,0.1c2.8,0,4.5-1.1,5.2-5.1l0.7-3.9
		c0.1-0.7,0.2-1.3,0.2-1.8C32.4,13.6,31,12.8,28.8,12.8z M37.2,18l-0.7,3.9c-1.2,6.8-4.5,9.5-10.9,9.5c-2.4,0-4.9-0.2-6.1-0.4
		c-0.4-0.1-0.8-0.3-0.8-0.3s0.1-0.7,0.3-1.7l3.4-19.8L23.3,9c0,0,3.9-0.4,6.3-0.4c4.8,0,7.9,2.7,7.9,7.3
		C37.4,16.5,37.4,17.2,37.2,18z"/>
	<path class="st44" d="M52.8,14.7L50.1,31h-3.9l0.2-1.2c-1.2,0.9-2.3,1.5-4.1,1.5c-2.6,0-4.1-1.7-4.1-4.7c0-0.5,0.1-1.1,0.2-1.7
		L40,14.7h4.2l-1.6,10.1c-0.1,0.5-0.1,1-0.1,1.3c0,1,0.4,1.4,1.6,1.4c0.5,0,1.8-0.4,2.6-0.9l1.9-11.8H52.8z"/>
	<path class="st45" d="M52.8,14.7L50.1,31h-3.9l0.2-1.2c-1.2,0.9-2.3,1.5-4.1,1.5c-2.6,0-4.1-1.7-4.1-4.7c0-0.5,0.1-1.1,0.2-1.7
		L40,14.7h4.2l-1.6,10.1c-0.1,0.5-0.1,1-0.1,1.3c0,1,0.4,1.4,1.6,1.4c0.5,0,1.8-0.4,2.6-0.9l1.9-11.8H52.8z"/>
	<path class="st44" d="M73.4,20.8L71.8,31h-4.2l1.6-10.1c0.1-0.5,0.1-0.9,0.1-1.2c0-0.8-0.3-1.1-1.4-1.1c-0.4,0-1.3,0.1-2.1,0.5
		c0,0.6-0.1,1.3-0.2,1.9L64,31c0,0-4.2,0-4.2,0l1.6-10.1c0.1-0.5,0.2-1,0.2-1.3c0-0.6-0.2-1-1-1c-0.6,0-1.5,0.4-2.4,0.8L56.4,31
		h-4.2l2.6-16.3h3.9l-0.2,1.4c1-0.7,2.2-1.4,3.7-1.4c1.5,0,2.4,0.5,3,1.3c1.5-1,2.8-1.3,4.6-1.3c2.9,0,3.8,2.1,3.8,4.5
		C73.6,19.7,73.5,20.3,73.4,20.8"/>
	<path class="st45" d="M73.4,20.8L71.8,31h-4.2l1.6-10.1c0.1-0.5,0.1-0.9,0.1-1.2c0-0.8-0.3-1.1-1.4-1.1c-0.4,0-1.3,0.1-2.1,0.5
		c0,0.6-0.1,1.3-0.2,1.9L64,31c0,0-4.2,0-4.2,0l1.6-10.1c0.1-0.5,0.2-1,0.2-1.3c0-0.6-0.2-1-1-1c-0.6,0-1.5,0.4-2.4,0.8L56.4,31
		h-4.2l2.6-16.3h3.9l-0.2,1.4c1-0.7,2.2-1.4,3.7-1.4c1.5,0,2.4,0.5,3,1.3c1.5-1,2.8-1.3,4.6-1.3c2.9,0,3.8,2.1,3.8,4.5
		C73.6,19.7,73.5,20.3,73.4,20.8z"/>
	<path class="st44" d="M82.2,18.5c-1.5,0-2.5,1-2.9,3.4L79,24c-0.1,0.5-0.1,1-0.1,1.4c0,1.5,0.6,2.1,1.9,2.1c1.7,0,2.5-1.2,2.9-3.5
		l0.3-2c0.1-0.5,0.1-0.9,0.1-1.3C84.1,19.2,83.5,18.5,82.2,18.5 M88.1,22l-0.3,2c-0.8,4.8-3.1,7.3-7.7,7.3c-3.5,0-5.5-2.4-5.5-5.8
		c0-0.5,0-1,0.1-1.6l0.3-2c0.9-5.1,3.4-7.3,7.7-7.3c3.5,0,5.5,2.3,5.5,5.7C88.3,20.9,88.2,21.6,88.1,22"/>
	<path class="st45" d="M82.2,18.5c-1.5,0-2.5,1-2.9,3.4L79,24c-0.1,0.5-0.1,1-0.1,1.4c0,1.5,0.6,2.1,1.9,2.1c1.7,0,2.5-1.2,2.9-3.5
		l0.3-2c0.1-0.5,0.1-0.9,0.1-1.3C84.1,19.2,83.5,18.5,82.2,18.5z M88.1,22l-0.3,2c-0.8,4.8-3.1,7.3-7.7,7.3c-3.5,0-5.5-2.4-5.5-5.8
		c0-0.5,0-1,0.1-1.6l0.3-2c0.9-5.1,3.4-7.3,7.7-7.3c3.5,0,5.5,2.3,5.5,5.7C88.3,20.9,88.2,21.6,88.1,22z"/>
	<path class="st44" d="M103.3,21l-1.6,9.9h-4.2l1.6-9.9c0.1-0.5,0.1-0.9,0.1-1.2c0-1-0.6-1.4-1.4-1.4c-1,0-2.2,0.5-2.8,0.9L93.2,31
		H89l2.6-16.3h3.9l-0.2,1.4c1.2-1,2.7-1.5,4.1-1.5c2.2,0,4.2,1.4,4.2,4.7C103.5,19.9,103.4,20.4,103.3,21"/>
	<path class="st45" d="M103.3,21l-1.6,9.9h-4.2l1.6-9.9c0.1-0.5,0.1-0.9,0.1-1.2c0-1-0.6-1.4-1.4-1.4c-1,0-2.2,0.5-2.8,0.9L93.2,31
		H89l2.6-16.3h3.9l-0.2,1.4c1.2-1,2.7-1.5,4.1-1.5c2.2,0,4.2,1.4,4.2,4.7C103.5,19.9,103.4,20.4,103.3,21z"/>
	<path class="st44" d="M115.7,18.3h-3.4l-1.4,8.2c-0.1,0.3-0.1,0.6-0.1,0.8c0,0.4,0.2,0.5,0.7,0.5l2.3-0.4l0.3,3.3
		c0,0-1.4,0.3-1.8,0.3c-0.8,0.1-1.3,0.2-2.1,0.2c-2.4,0-3.7-0.9-3.7-3.4c0-0.4,0.1-0.9,0.1-1.4l1.3-8.2l-2.8,0l0.6-3.4h2.8l4.8-3.4
		l-0.6,3.4h3.4L115.7,18.3z"/>
	<path class="st45" d="M115.7,18.3h-3.4l-1.4,8.2c-0.1,0.3-0.1,0.6-0.1,0.8c0,0.4,0.2,0.5,0.7,0.5l2.3-0.4l0.3,3.3
		c0,0-1.4,0.3-1.8,0.3c-0.8,0.1-1.3,0.2-2.1,0.2c-2.4,0-3.7-0.9-3.7-3.4c0-0.4,0.1-0.9,0.1-1.4l1.3-8.2l-2.8,0l0.6-3.4h2.8l4.8-3.4
		l-0.6,3.4h3.4L115.7,18.3z"/>
	<polygon class="st46" points="108.4,13 113.4,9.5 110.2,6 	"/>
	<rect x="18.9" y="35" class="st46" width="1.8" height="4.8"/>
	<polygon class="st46" points="21.3,35 23,35 24.5,37.5 24.6,37.5 24.5,35 26.2,35 26.2,39.9 24.4,39.9 22.9,37.6 22.9,37.6 
		23,39.9 21.3,39.9 	"/>
	<path class="st46" d="M28.6,40c-0.2,0-0.4,0-0.6-0.1c-0.2,0-0.4-0.1-0.6-0.1c-0.2-0.1-0.4-0.1-0.5-0.2c-0.2-0.1-0.3-0.2-0.5-0.3
		l1.1-1.1c0.1,0.1,0.3,0.2,0.5,0.3c0.2,0.1,0.4,0.1,0.6,0.1c0.1,0,0.2,0,0.3,0c0.1,0,0.1-0.1,0.1-0.2c0,0,0-0.1,0-0.1
		c0,0-0.1-0.1-0.1-0.1c-0.1,0-0.2-0.1-0.3-0.1c-0.1,0-0.3-0.1-0.5-0.1c-0.2-0.1-0.4-0.1-0.5-0.2c-0.2-0.1-0.3-0.2-0.4-0.3
		c-0.1-0.1-0.2-0.2-0.3-0.4c-0.1-0.2-0.1-0.3-0.1-0.6c0-0.3,0.1-0.6,0.2-0.8c0.1-0.2,0.3-0.4,0.5-0.5c0.2-0.1,0.4-0.2,0.7-0.3
		c0.3-0.1,0.5-0.1,0.8-0.1c0.3,0,0.7,0.1,1.1,0.2c0.4,0.1,0.7,0.3,1,0.5l-1.1,1c-0.1-0.1-0.3-0.2-0.4-0.3c-0.2-0.1-0.3-0.1-0.5-0.1
		c-0.1,0-0.2,0-0.3,0.1c-0.1,0-0.1,0.1-0.1,0.2c0,0.1,0,0.1,0.1,0.2c0.1,0,0.2,0.1,0.4,0.1c0.2,0.1,0.4,0.1,0.6,0.2
		c0.2,0.1,0.4,0.2,0.6,0.3c0.2,0.1,0.3,0.3,0.4,0.4c0.1,0.2,0.2,0.4,0.2,0.6c0,0.3-0.1,0.5-0.2,0.8c-0.1,0.2-0.3,0.4-0.5,0.5
		c-0.2,0.1-0.4,0.2-0.7,0.3C29.1,40,28.8,40,28.6,40"/>
	<polygon class="st46" points="33.8,39.9 32.1,39.9 32.1,36.4 30.8,36.4 30.8,35 35.1,35 35.1,36.4 33.8,36.4 	"/>
	<path class="st46" d="M37,37.1h0.3c0.1,0,0.1,0,0.2,0c0.1,0,0.1,0,0.2-0.1c0.1,0,0.1-0.1,0.2-0.1c0-0.1,0.1-0.1,0.1-0.2
		c0-0.1,0-0.2-0.1-0.2c0-0.1-0.1-0.1-0.1-0.1c-0.1,0-0.1,0-0.2,0c-0.1,0-0.1,0-0.2,0H37V37.1z M35.3,35h2.3c0.3,0,0.5,0,0.8,0.1
		c0.3,0,0.5,0.1,0.7,0.3c0.2,0.1,0.4,0.3,0.5,0.5c0.1,0.2,0.2,0.5,0.2,0.8c0,0.3-0.1,0.6-0.2,0.8c-0.2,0.2-0.4,0.4-0.7,0.5l1.3,2h-2
		l-1-1.7H37v1.7h-1.7V35z"/>
	<path class="st46" d="M42.5,40c-0.4,0-0.8-0.1-1.1-0.2c-0.3-0.1-0.6-0.2-0.8-0.4c-0.2-0.2-0.4-0.4-0.5-0.6
		c-0.1-0.2-0.1-0.5-0.1-0.8V35h1.8v2.8c0,0.2,0.1,0.4,0.2,0.5c0.1,0.1,0.3,0.2,0.5,0.2c0.2,0,0.4-0.1,0.5-0.2
		c0.1-0.1,0.2-0.3,0.2-0.5V35H45V38c0,0.3-0.1,0.6-0.2,0.8c-0.1,0.2-0.3,0.5-0.5,0.6c-0.2,0.2-0.5,0.3-0.8,0.4
		C43.3,40,42.9,40,42.5,40"/>
	<polygon class="st46" points="47.2,37.1 47.3,39.9 45.6,39.9 45.6,35 47.9,35 48.9,37.6 48.9,37.6 49.7,35 52.1,35 52.1,39.9 
		50.4,39.9 50.5,37.2 50.4,37.1 49.4,39.9 48.2,39.9 47.2,37.1 	"/>
	<polygon class="st46" points="52.8,35 56.4,35 56.4,36.4 54.4,36.4 54.4,36.8 56.3,36.8 56.3,38.1 54.4,38.1 54.4,38.5 56.5,38.5 
		56.5,39.9 52.8,39.9 	"/>
	<polygon class="st46" points="57,35 58.8,35 60.3,37.5 60.3,37.5 60.2,35 61.9,35 61.9,39.9 60.1,39.9 58.6,37.6 58.6,37.6 
		58.7,39.9 57,39.9 	"/>
	<polygon class="st46" points="65.1,39.9 63.3,39.9 63.3,36.4 62,36.4 62,35 66.4,35 66.4,36.4 65.1,36.4 	"/>
	<path class="st46" d="M68.3,40c-0.2,0-0.4,0-0.6-0.1c-0.2,0-0.4-0.1-0.6-0.1c-0.2-0.1-0.4-0.1-0.5-0.2c-0.2-0.1-0.3-0.2-0.5-0.3
		l1.1-1.1c0.1,0.1,0.3,0.2,0.5,0.3c0.2,0.1,0.4,0.1,0.6,0.1c0.1,0,0.2,0,0.3,0c0.1,0,0.1-0.1,0.1-0.2c0,0,0-0.1,0-0.1
		c0,0-0.1-0.1-0.1-0.1c-0.1,0-0.2-0.1-0.3-0.1c-0.1,0-0.3-0.1-0.5-0.1c-0.2-0.1-0.4-0.1-0.5-0.2c-0.2-0.1-0.3-0.2-0.4-0.3
		c-0.1-0.1-0.2-0.2-0.3-0.4c-0.1-0.2-0.1-0.3-0.1-0.6c0-0.3,0.1-0.6,0.2-0.8c0.1-0.2,0.3-0.4,0.5-0.5c0.2-0.1,0.4-0.2,0.7-0.3
		c0.3-0.1,0.5-0.1,0.8-0.1c0.3,0,0.7,0.1,1.1,0.2c0.4,0.1,0.7,0.3,1,0.5l-1.1,1c-0.1-0.1-0.3-0.2-0.4-0.3c-0.2-0.1-0.3-0.1-0.5-0.1
		c-0.1,0-0.2,0-0.3,0.1c-0.1,0-0.1,0.1-0.1,0.2c0,0.1,0,0.1,0.1,0.2c0.1,0,0.2,0.1,0.4,0.1c0.2,0.1,0.4,0.1,0.6,0.2
		c0.2,0.1,0.4,0.2,0.6,0.3c0.2,0.1,0.3,0.3,0.4,0.4c0.1,0.2,0.2,0.4,0.2,0.6c0,0.3-0.1,0.5-0.2,0.8c-0.1,0.2-0.3,0.4-0.5,0.5
		c-0.2,0.1-0.4,0.2-0.7,0.3C68.9,40,68.6,40,68.3,40"/>
	<path class="st46" d="M74.5,35.9c-0.1,0-0.2,0-0.3,0.1c-0.1,0.1-0.1,0.1-0.1,0.2c0,0.1,0,0.2,0.1,0.2c0,0.1,0.1,0.1,0.2,0.2
		c0.1,0,0.2-0.1,0.3-0.2c0.1-0.1,0.1-0.2,0.1-0.2c0-0.1,0-0.2-0.1-0.2C74.7,36,74.7,35.9,74.5,35.9 M74.1,38c-0.1,0-0.1,0.1-0.2,0.1
		c-0.1,0.1-0.1,0.1-0.1,0.3c0,0.1,0,0.1,0,0.2c0,0,0.1,0.1,0.1,0.1c0,0,0.1,0.1,0.2,0.1c0.1,0,0.1,0,0.2,0c0.1,0,0.2,0,0.3,0
		c0.1,0,0.1-0.1,0.2-0.1L74.1,38z M75.7,39.5c-0.2,0.1-0.4,0.2-0.6,0.3c-0.2,0.1-0.5,0.1-0.9,0.1c-0.3,0-0.5,0-0.8-0.1
		c-0.2-0.1-0.5-0.1-0.7-0.3c-0.2-0.1-0.4-0.3-0.5-0.5c-0.1-0.2-0.2-0.4-0.2-0.7c0-0.2,0-0.3,0.1-0.4c0.1-0.1,0.1-0.3,0.2-0.4
		c0.1-0.1,0.2-0.2,0.3-0.3c0.1-0.1,0.3-0.2,0.4-0.2c-0.1-0.1-0.3-0.3-0.4-0.4c-0.1-0.2-0.1-0.4-0.1-0.6c0-0.2,0.1-0.4,0.2-0.6
		c0.1-0.2,0.3-0.3,0.5-0.4c0.2-0.1,0.4-0.2,0.6-0.2c0.2,0,0.4-0.1,0.7-0.1c0.2,0,0.4,0,0.7,0.1c0.2,0,0.4,0.1,0.6,0.2
		c0.2,0.1,0.3,0.2,0.4,0.4c0.1,0.2,0.2,0.4,0.2,0.6c0,0.1,0,0.3-0.1,0.4s-0.1,0.2-0.2,0.3c-0.1,0.1-0.2,0.2-0.3,0.3
		c-0.1,0.1-0.3,0.2-0.4,0.2l0.4,0.3l0.4-0.5H78l-1.3,1.4l1.4,1.2h-2.1L75.7,39.5z"/>
	<path class="st46" d="M79.4,37.5c0-0.4,0.1-0.7,0.2-1.1c0.1-0.3,0.4-0.6,0.6-0.8c0.3-0.2,0.6-0.4,0.9-0.5c0.3-0.1,0.7-0.2,1.1-0.2
		c0.4,0,0.8,0.1,1.2,0.2c0.4,0.1,0.7,0.3,0.9,0.5l-1.1,1.2c-0.1-0.1-0.2-0.2-0.4-0.3c-0.1-0.1-0.3-0.1-0.5-0.1c-0.1,0-0.3,0-0.4,0.1
		c-0.1,0-0.2,0.1-0.3,0.2c-0.1,0.1-0.2,0.2-0.2,0.3c-0.1,0.1-0.1,0.3-0.1,0.4c0,0.2,0,0.3,0.1,0.4c0.1,0.1,0.1,0.2,0.2,0.3
		c0.1,0.1,0.2,0.2,0.3,0.2c0.1,0,0.3,0.1,0.4,0.1c0.2,0,0.4,0,0.5-0.1c0.1-0.1,0.3-0.2,0.3-0.3l1.1,1.2c-0.2,0.2-0.5,0.4-0.9,0.5
		c-0.3,0.1-0.7,0.2-1.2,0.2c-0.4,0-0.8-0.1-1.1-0.2c-0.4-0.1-0.7-0.3-0.9-0.5c-0.3-0.2-0.5-0.5-0.6-0.8
		C79.5,38.2,79.4,37.8,79.4,37.5"/>
	<path class="st46" d="M86,37.4c0,0.2,0,0.3,0.1,0.4c0.1,0.1,0.1,0.2,0.2,0.3c0.1,0.1,0.2,0.2,0.3,0.2c0.1,0.1,0.3,0.1,0.4,0.1
		c0.1,0,0.3,0,0.4-0.1c0.1-0.1,0.2-0.1,0.3-0.2c0.1-0.1,0.2-0.2,0.2-0.3c0.1-0.1,0.1-0.3,0.1-0.4c0-0.2,0-0.3-0.1-0.4
		c-0.1-0.1-0.1-0.2-0.2-0.3c-0.1-0.1-0.2-0.2-0.3-0.2c-0.1-0.1-0.3-0.1-0.4-0.1c-0.1,0-0.3,0-0.4,0.1c-0.1,0.1-0.2,0.1-0.3,0.2
		c-0.1,0.1-0.2,0.2-0.2,0.3C86,37.1,86,37.3,86,37.4 M84.1,37.4c0-0.4,0.1-0.7,0.2-1c0.1-0.3,0.4-0.6,0.6-0.8s0.6-0.4,0.9-0.5
		c0.4-0.1,0.7-0.2,1.2-0.2c0.4,0,0.8,0.1,1.2,0.2c0.4,0.1,0.7,0.3,0.9,0.5c0.3,0.2,0.5,0.5,0.6,0.8c0.1,0.3,0.2,0.7,0.2,1
		c0,0.4-0.1,0.7-0.2,1.1c-0.1,0.3-0.4,0.6-0.6,0.8c-0.3,0.2-0.6,0.4-0.9,0.5C87.8,39.9,87.5,40,87,40c-0.4,0-0.8-0.1-1.2-0.2
		c-0.4-0.1-0.7-0.3-0.9-0.5s-0.5-0.5-0.6-0.8C84.2,38.2,84.1,37.8,84.1,37.4"/>
</g>
</svg>
