<?xml version="1.0" encoding="utf-8"?>
<!-- Generator: Adobe Illustrator 25.4.1, SVG Export Plug-In . SVG Version: 6.00 Build 0)  -->
<svg version="1.1" id="Capa_1" xmlns="http://www.w3.org/2000/svg" xmlns:xlink="http://www.w3.org/1999/xlink" x="0px" y="0px"
	 viewBox="0 0 135 46" style="enable-background:new 0 0 135 46;" xml:space="preserve">
<style type="text/css">
	.st0{fill:#FFFFFF;}
	.st1{fill:#FFED00;}
	.st2{fill:none;stroke:#171915;stroke-width:0.7087;stroke-linejoin:round;}
	.st3{fill:none;stroke:#FFED00;stroke-width:0.7087;}
	.st4{fill:none;stroke:#FFED00;stroke-width:1.4173;stroke-linecap:round;}
	.st5{fill:none;stroke:#FFED00;stroke-width:1.3673;stroke-linecap:round;}
	.st6{fill:none;stroke:#FFED00;stroke-width:1.2846;stroke-linecap:round;}
	.st7{fill:#FFED00;stroke:#FFED00;stroke-width:0.7087;}
</style>
<path class="st0" d="M83.7,21.5H88c0-1.3,2-2.4,4.4-2.4c2.4,0,4.4,1.1,4.4,2.4c0,1.3-2,2.4-4.4,2.4L86.6,24v2.7h5.8
	c2.5,0,4.4,1.1,4.4,2.4c0,1.3-2,2.4-4.4,2.4c-2.5,0-4.4-1.1-4.4-2.4h-4.3c0,2.5,3.9,4.6,8.7,4.6c4.8,0,8.7-2,8.7-4.5
	c0-1.6-1.6-3-4.1-3.8l-0.1,0.1c2.5-0.8,4.2-2.2,4.2-3.9c0-2.5-3.9-4.5-8.7-4.5C87.6,17.1,83.7,19.1,83.7,21.5"/>
<path class="st1" d="M83.7,21.5H88c0-1.3,2-2.4,4.4-2.4c2.4,0,4.4,1.1,4.4,2.4c0,1.3-2,2.4-4.4,2.4L86.6,24v2.7h5.8
	c2.5,0,4.4,1.1,4.4,2.4c0,1.3-2,2.4-4.4,2.4c-2.5,0-4.4-1.1-4.4-2.4h-4.3c0,2.5,3.9,4.6,8.7,4.6c4.8,0,8.7-2,8.7-4.5
	c0-1.6-1.6-3-4.1-3.8l-0.1,0.1c2.5-0.8,4.2-2.2,4.2-3.9c0-2.5-3.9-4.5-8.7-4.5C87.6,17.1,83.7,19.1,83.7,21.5"/>
<path class="st0" d="M74,26.8c-2.4,0-4.4,1.1-4.4,2.4c0,1.3,2,2.4,4.4,2.4s4.4-1.1,4.4-2.4C78.3,27.9,76.4,26.8,74,26.8 M74,19.1
	c-2.4,0-4.4,1.1-4.4,2.4c0,1.3,2,2.4,4.4,2.4s4.4-1.1,4.4-2.4C78.3,20.2,76.4,19.1,74,19.1 M78.6,25.4c2.5,0.8,4.2,2.2,4.2,3.9
	c0,2.5-4,4.5-8.8,4.5c-4.9,0-8.8-2-8.8-4.5c0-1.6,1.7-3.1,4.2-3.9l-0.1,0c-2.5-0.8-4.1-2.2-4.1-3.8c0-2.5,4-4.5,8.8-4.5
	c4.9,0,8.8,2,8.8,4.5c0,1.6-1.7,3.1-4.3,3.9L78.6,25.4z"/>
<path class="st1" d="M74,26.8c-2.4,0-4.4,1.1-4.4,2.4c0,1.3,2,2.4,4.4,2.4s4.4-1.1,4.4-2.4C78.3,27.9,76.4,26.8,74,26.8 M74,19.1
	c-2.4,0-4.4,1.1-4.4,2.4c0,1.3,2,2.4,4.4,2.4s4.4-1.1,4.4-2.4C78.3,20.2,76.4,19.1,74,19.1 M78.6,25.4c2.5,0.8,4.2,2.2,4.2,3.9
	c0,2.5-4,4.5-8.8,4.5c-4.9,0-8.8-2-8.8-4.5c0-1.6,1.7-3.1,4.2-3.9l-0.1,0c-2.5-0.8-4.1-2.2-4.1-3.8c0-2.5,4-4.5,8.8-4.5
	c4.9,0,8.8,2,8.8,4.5c0,1.6-1.7,3.1-4.3,3.9L78.6,25.4z"/>
<path class="st1" d="M72.9,25.5c-2.4,0-4.4,1.1-4.4,2.4c0,1.3,2,2.4,4.4,2.4c2.4,0,4.4-1.1,4.4-2.4C77.3,26.6,75.3,25.5,72.9,25.5
	 M72.9,17.8c-2.4,0-4.4,1.1-4.4,2.4c0,1.3,2,2.4,4.4,2.4c2.4,0,4.4-1.1,4.4-2.4C77.3,18.9,75.3,17.8,72.9,17.8 M77.6,24.1
	c2.5,0.8,4.2,2.2,4.2,3.9c0,2.5-4,4.5-8.8,4.5c-4.9,0-8.8-2-8.8-4.5c0-1.6,1.7-3.1,4.2-3.9l-0.1,0c-2.5-0.8-4.1-2.2-4.1-3.8
	c0-2.5,4-4.5,8.8-4.5c4.9,0,8.8,2,8.8,4.5c0,1.7-1.7,3.1-4.3,3.9L77.6,24.1z"/>
<path class="st2" d="M72.9,25.5c-2.4,0-4.4,1.1-4.4,2.4c0,1.3,2,2.4,4.4,2.4c2.4,0,4.4-1.1,4.4-2.4C77.3,26.6,75.3,25.5,72.9,25.5z
	 M72.9,17.8c-2.4,0-4.4,1.1-4.4,2.4c0,1.3,2,2.4,4.4,2.4c2.4,0,4.4-1.1,4.4-2.4C77.3,18.9,75.3,17.8,72.9,17.8 M77.6,24.1
	c2.5,0.8,4.2,2.2,4.2,3.9c0,2.5-4,4.5-8.8,4.5c-4.9,0-8.8-2-8.8-4.5c0-1.6,1.7-3.1,4.2-3.9l-0.1,0c-2.5-0.8-4.1-2.2-4.1-3.8
	c0-2.5,4-4.5,8.8-4.5c4.9,0,8.8,2,8.8,4.5C81.8,21.9,80.2,23.3,77.6,24.1z"/>
<path class="st1" d="M82.9,20.3h4.3c0-1.3,2-2.4,4.4-2.4S96,19,96,20.3c0,1.3-2,2.4-4.4,2.4l-5.8,0.1v2.7h5.8c2.5,0,4.4,1.1,4.4,2.4
	c0,1.3-2,2.4-4.4,2.4c-2.5,0-4.4-1.1-4.4-2.4h-4.3c0,2.5,3.9,4.6,8.7,4.6c4.8,0,8.7-2,8.7-4.5c0-1.6-1.6-3-4.1-3.8l-0.1,0.1
	c2.5-0.8,4.2-2.2,4.2-3.9c0-2.5-3.9-4.5-8.7-4.5C86.8,15.8,82.9,17.9,82.9,20.3"/>
<path class="st2" d="M96.2,24.2c2.5-0.8,4.1-2.2,4.1-3.8c0-2.5-3.9-4.5-8.7-4.5c-4.8,0-8.7,2-8.7,4.5l4.3-0.1c0-1.3,2-2.4,4.4-2.4
	S96,19,96,20.3c0,1.3-2,2.4-4.4,2.4l-5.8,0.1v2.7h5.8c2.5,0,4.4,1.1,4.4,2.4c0,1.3-2,2.4-4.4,2.4c-2.5,0-4.4-1.1-4.4-2.4h-4.3
	c0,2.5,3.9,4.6,8.7,4.6c4.8,0,8.7-2,8.7-4.5C100.3,26.4,98.7,25,96.2,24.2z"/>
<path class="st3" d="M106.9,14.8c0,1.3-1.1,2.4-2.4,2.4c-1.3,0-2.4-1.1-2.4-2.4c0-1.3,1.1-2.4,2.4-2.4
	C105.8,12.4,106.9,13.5,106.9,14.8z"/>
<path class="st1" d="M103.7,14.6h0.8c0.2,0,0.3,0,0.4-0.1c0.1-0.1,0.2-0.2,0.2-0.4c0-0.2-0.1-0.3-0.2-0.4c-0.1-0.1-0.2-0.1-0.4-0.1
	h-0.9V14.6z M103.4,13.4h1.2c0.2,0,0.4,0,0.5,0.1c0.3,0.1,0.4,0.4,0.4,0.7c0,0.4-0.3,0.7-0.8,0.7v0c0.1,0.1,0.3,0.2,0.5,0.5l0.5,0.7
	h-0.4l-0.4-0.6c-0.4-0.6-0.5-0.6-0.8-0.6h-0.4v1.2h-0.4V13.4z"/>
<line class="st4" x1="112.8" y1="25.6" x2="112.8" y2="30"/>
<path class="st4" d="M115.3,25.7c0,0-1.6-0.4-2.4,1.3"/>
<line class="st4" x1="117.8" y1="23.8" x2="117.8" y2="30.1"/>
<path class="st5" d="M52.7,26h-4.5 M52.9,21.8h-3.7c0,0-0.7,0.1-0.7,0.8v5.9c0,0,0,0.9,0.9,0.9h3.4 M44.3,26h-7.2
	c0,0-0.9-0.1-1.1,0.6 M44.4,21.7v7.9 M36,26.8v1.3c0,0.8,0.7,1.5,1.5,1.5c0.8,0,1.5-0.7,1.5-1.5v-6.3 M34.3,30.5l-6.2-7.4
	c0,0-0.4-0.6-1.6-0.6h-8.1 M18.6,25.3L18.6,25.3c0,0,12.7,0,12.7,0c1.9,0,3.5-1.6,3.5-3.5c0-1.9-1.6-3.5-3.5-3.5h-0.7h-9.2
	c-0.7,0.1-0.7,0.7-0.7,0.7v12"/>
<path class="st1" d="M49.1,26.7c0,0.7-0.6,1.3-1.3,1.3c-0.7,0-1.3-0.6-1.3-1.3c0-0.7,0.6-1.3,1.3-1.3C48.5,25.3,49.1,25.9,49.1,26.7
	"/>
<path class="st6" d="M18.9,25.4c-0.8,0-1.5-0.7-1.5-1.5c0-0.8,0.7-1.5,1.5-1.5"/>
<line class="st5" x1="56.9" y1="21.6" x2="56.9" y2="29.5"/>
<path class="st1" d="M56.8,23.9C56.8,23.9,56.8,23.9,56.8,23.9c-0.9,0-1.6-0.7-1.6-1.5c0-0.8,0.7-1.5,1.5-1.5"/>
<path class="st5" d="M66,21.7v7.1 M60.5,21.7l6.7,6.5 M60.4,29.8v-8.1"/>
<path class="st1" d="M68.1,28.8c0,0.8-0.6,1.4-1.4,1.4c-0.8,0-1.4-0.6-1.4-1.4c0-0.8,0.6-1.4,1.4-1.4C67.5,27.4,68.1,28,68.1,28.8"
	/>
<path class="st7" d="M105.2,29.2c0-0.1-0.1-0.1-0.1-0.2c0-0.3,0.2-0.5,0.5-0.5c0.1,0,0.2,0,0.3,0.1l0,0c0.4,0.8,1.4,0.9,1.9,0.9
	c1,0,1.8-0.4,1.8-1.2c0-0.8-0.7-1-2.2-1.3c-0.9-0.2-2.4-0.5-2.4-1.9c0-1.1,0.9-1.9,2.5-1.9c1.2,0,2.1,0.4,2.5,1.2l0,0
	c0,0.1,0.1,0.1,0.1,0.2c0,0.3-0.2,0.5-0.5,0.5c-0.2,0-0.3-0.1-0.4-0.2l-0.1-0.1c-0.2-0.4-0.6-0.7-1.6-0.7c-0.6,0-1.7,0.2-1.7,1
	c0,0.6,0.4,0.8,1.7,1.1c1.3,0.3,2.8,0.6,2.8,2.1c0,1.2-1,2.1-2.7,2.1C106.5,30.4,105.6,29.9,105.2,29.2"/>
</svg>
