<svg id="Capa_1" data-name="Capa 1" xmlns="http://www.w3.org/2000/svg" viewBox="0 0 135 46"><defs><style>.cls-1{fill:#134a83;}.cls-2{fill:#b51975;}</style></defs><rect class="cls-1" x="47.64" y="30.55" width="19.48" height="1.91"/><path class="cls-2" d="M84.72,9.78l0,0v0h0v0Zm.68,1.06h0v-.05h0v0ZM71,11.39h0v0h0Zm3.87-1.53h0v.05h0ZM60.09,18.53v-.08h0l0,0v0l0,0Zm3.87,5,0,0h0v.07h0l0,0ZM83.91,10h0v.07h0Zm-18,4.12h0v.07h0Zm10.58,1.73h.08v0h-.08Zm10.81-5.6h.08v0h-.08Zm-10,2.91h.07v-.07h-.07Zm-9.1-.5v0h.1v.07h0Zm9.25.4h.1V13h-.1Zm.35-3.62h.08v.1h-.08ZM61.67,15.57l0,0h.07v.07h-.12v0ZM59,18.18l0,0H59l0,0v.05l0,0H59l0,0Zm26.46-7.89,0,0h0l0,0v-.08h-.1Zm-16.61,4h.12v.08h-.12Zm-7.77,3h.13v.07H61Zm15.64-1.41v-.05h.15v.05l0,0h0Zm-13.48-1v-.07h.13l0,0v.05ZM75.69,9l0,0h0l0,0,0,0v0h0v0h-.08Zm-5.27,2.16,0,0h.08l0,0v.07h-.12Zm14.3-2.34,0,0h.1v.13h-.1v0h0v0Zm-9,7.84V16.6h.12l0,0,0,0v0h0v0H75.8v0Zm.52-.83,0,0h.12v.07l0,0,0,0h-.05l0,0,0,0Zm-7-1.88,0,0h0l0,0,0,0v0l0,0h-.13V14Zm5.78-4.9h.05V9h.1l0,0v.05l0,0,0,0h0l0,0,0,0Zm-4.88,5.32,0,0h.1l0,0v.08h-.18Zm-4-2.51,0,0h.13l0,0v.05l0,0h-.16Zm13.5,1.81,0,0h0v0h.07l0,0v0l-.08,0h0l0,0Zm5.58-5,0,0v0l0,0h.13l0,0V8.6h-.12Zm-9.83,1.61.1,0h.08v.13h-.15l0,0Zm3.85,3.69,0,0h.1l0,0,0,0v0l0,0,0,0h-.12l0,0v0ZM85,8.75l0,0h.13v.12l-.08,0H85Zm-23.45,8,.08,0h.07v.07l0,0,0,0,0,0h-.1v0l0,0Zm21.59-6.51,0-.05h.13l0,.05v.08l0,0h-.13l0,0Zm-.55,2.24,0,0h.23v.08l0,0h-.22Zm-19.33,2,0,0h.11l0,0,0,0v0h0v0l-.06,0h-.1l0,0v0l0,0ZM80.47,8v.06l0,0h.18l0,0V8l0,0h-.18ZM65.14,12.57l0,0h0l0,0v.1l0,0-.08,0h-.07v-.1l0,0Zm20-2.48,0,0,0,0,0,0v.05h.16l0,0,0,0v-.05l0,0,0,0h0ZM69.56,13.81l0,0h.08v.08l0,0h-.07v0l-.08,0h-.05v-.1l0,0Zm9.55-5h0v0h.13l0,0v.1l0,0h-.1l0,0ZM73.68,11l0,0h.06l0,0v.1l0,0h0v.05h0l0,0,0,0v-.08Zm-3.09,6.54.08,0h.07l.05,0,0,0v0h0v.05l0,0h-.15Zm6.66-1.94.08,0h.1v.13l-.05,0h-.13l0,0v-.07ZM86.1,8.25V8.3l0,0h.18l0,0,0,0V8.23h-.23Zm-15.66,5v-.1h.2l0,0v0l0,0,0,0-.05,0h-.08l0,0ZM79,14.61v-.13h.22v.08l0,0,0,0,0,0h0ZM68.51,11.67h0v-.05h.17v.12h-.1v0h-.1l0,0Zm-3.3,3.17h.08v-.05h.1l0,0v.1l0,0-.05,0,0,0h-.08l0-.05v0Zm12.92.27,0,0h0v.05h0v.07h0v0H78l0,0v-.05l0,0,0,0Zm7.24-4.52,0,0,0,0v0l0,.05h.07v-.05h.1l0,0,.07,0v-.08H85.4ZM75,9.66l0,0h.1l0,0v.1l0,0,0,0-.07,0h0l0,0V9.73Zm-11.24,4,.05,0h.13l0,0v.1l0,0h-.23v-.1h0Zm20.56-2.89,0,0h.2l0,0v.1l-.07,0-.1,0h-.05l0,0Zm-4-1.11,0-.05h.26v.1l0,0-.07,0h-.18Zm.05.38,0,0h.13l0,0v0l0,0,0,0,0,0,0,0,0,0h-.2v0l0,0,0,0,0,0,0,0Zm-.08,1,.08,0h0l.08,0,0,0,0,0v0h0v.05l0,0h-.2l0,0V11ZM63.76,14.28l0,0h0v.15l0,0,0,0h-.05v0l0,0h-.15v-.12l.07,0,0,0h.08Zm11.66-4.9,0,0h.15l.08,0v.1l0,0-.08,0h-.13l0,0v-.1Zm10.15-1.1,0,0-.07,0v.12h.1l.17,0,0,0,0,0V8.3l0,0,0,0H85.6Zm-13,2h.08v-.05h.17v.1l0,0-.08,0,0,.05-.13,0h-.1v-.1l0,0,0,0Zm3,1.06h.17v0h.11l0,0v.05l0,0,0,0,0,0h-.08v0l-.13,0h-.1l0,0v0l0,0,0,0,0,0Zm-5.15.32,0,0h0l.1,0,0,0v0h.05l0,0v.06h-.07v.05h-.28v-.13l0,0Zm-.43.33,0,0h.18l0,0v0l0,.07-.07,0H70v0l0,0h-.13l0,0,0,0v-.05l0,0,0,0,0,0Zm3.14-2.08,0-.08h0l0,0,0,0,0,0v.15l0,0h0v.05l0,0-.08,0H73l0,0v-.08l0,0,0,0,0,0,0,0,0,0ZM70,13.48l0,0h.13l0,0v.12l0,0,0,0,0,0h-.18v.05l0,0-.1,0h-.05l0,0v-.08h.1V13.6l0,0,0,0,0,0,0,0Zm-.9-.93,0,0h.3l0,0v0l0,0h-.08v.05l0,0-.05,0,0,0,0,0H69l0-.06v-.05l0,0,0,0h0v0Zm14.85-1.26H84v0h.17v.13l0,0,0,0,0,0-.1,0,0,0,0,0,0,0h-.15v-.07l0-.08.05,0,0,0,0,0ZM75.29,16.9l.1,0h.18V17l-.08,0,0,0h0v.05l0,0-.1,0h-.07l0,0V17H75V17l0,0,.2,0Zm-3.14,2,.08,0h.12l.08,0,.07,0V19l0,0,0,0,0,0-.05,0-.1,0h-.1l-.05,0-.08,0V19l0,0,0,0Zm-2.41,1.93,0,0H70l0,0v.05H70V21l0,0,0,0,0,0h-.33l0,0v-.13l0,0,0,0h.08ZM74,10.31h.07v-.05h.1l0,0v.12h0v.05l0,0-.07,0,0,.05-.1,0h0v.05h-.18v-.18l.08,0,0,0h.07v-.05l0,0ZM63.71,13.93l0,0H64V14H64l0,0v.12l0,0-.05,0,0,0-.13,0h-.07l0,0v-.08h0l0,0V14l0,0Zm15.55-3.69,0,0h.25v.08l0,0h-.08v0l0,0-.08,0h0v.08l0,0h-.08v.05H79v-.05h-.08v-.1h0v-.07l.23,0,0,0,0,0Zm-3-1.33,0,0h.08l0,0V9l-.08,0h-.05v.05l0,0,0,0,0,0h0v.05l0,0-.05,0h-.25v-.1l0,0,0,0,0,0,0,0H76V9l.1,0,.1,0,0,0Zm-6.49,1.9,0,0H70v.1l0,0,0,0,0,0h-.08V11l0,0,0,0h-.07v.05l-.08,0h-.1v.05h-.07v-.05h-.08v-.1l0,0,0,0,0,0h.07v-.05l0,0,.07,0,.15,0,0,0ZM73,18.35l.05,0h.07l0,0,0,0v0h0v0l-.12,0,0,0,0,0,0,0H72.8v.12h.06v.08h-.31l0,0v-.17l0,0,.07,0,.05,0,0,0,0,0,0,0,.18,0Zm4.75-8.52,0-.05h.1l0,0,0,0v.11h-.07V10l0,0h-.05v.05l0,0-.07,0-.13,0,0,0h-.1v-.05h-.07l0,0V10h-.12V9.94h.1l0,0h0l.13,0,.12,0,0,0,.08,0Zm4.42.81.05,0h.15l0,0,0,0v0h0v.05l0,0,0,0h-.13v.05l0,0,0,0h0v0l0,0L82,11h-.1v0H81.7v0h-.07v-.07l.05,0,0,0,0,0,0,0,.07,0,.05,0,0,0h0l.07,0,0,0,0,0ZM78.64,8.58h.07V8.53h.18l0,0v.1l0,0,0,0,0,0-.05,0-.08,0h-.07v.07l0,0h-.06v0l0,0-.1,0,0,0-.1,0h-.13l0,0V8.93l0,0,0,0,0,0,0,0,.07,0,0,0h.1v0l.05,0,.08,0h.08v0l0,0Zm3.16,3.79.08,0h.17v.12l-.07,0,0,0,0,0,0,0,0,0,0,0h-.07v.05l0,0-.07,0h-.2v.13l0,0,0,0-.16,0,0,0h-.15l0,0,0,0v-.07l0,0,0,0,.05,0,.18,0h.08v-.05l0-.05h.08v0l0,0,.07,0h.08v0l0,0,0,0h.07Zm-12.66-1,0,0h.33l0,0v.15l0,0,0,0,0,0,0,0h-.07v0l-.05,0,0,0,0,0,0,0,0,0,0,0,0,0,0,0,0,0h0v.05h-.12l0,0v-.13l0,0,0,0,0,0h.07v-.05l0,0,0,0h0v-.05l0-.13,0,0h0ZM85,8.1l0,0-.12,0,0,0-.05,0-.07,0,0,0,0,0-.1,0-.12,0,0,0,0,0,0,0-.08,0v.1l0,0h.07l.1,0,0,0,0,0,0,0,.27,0,0,0,.07,0,0,0v0h0l.05,0,0,0V8.2h.11l.1,0,0,0V8.1l0,0,0,0H85v0ZM73.61,17.8l0,0h.16l0,0v.1h-.08V18l0,.08,0,0,0,0,0,.05,0,.05h0v.07l0,0-.15,0,0,.05,0,0h-.15l0,0,0,0,0,0,0,0v-.05l0,0h.1v-.05l0,0,0,0,0,0,0,0,0-.07,0,0,0-.05,0,0,0,0,0,0Zm2.81-7h.18v0h.08l0,0v.05l0,0,0,0,0,0h-.07v0l0,0,0,0,0,0-.15,0,0,.07,0,0h0v.05l0,0,0,0h-.05v.05H76l0-.05v-.13h0l0-.05-.05,0V11h.05v-.05l0,0,.15,0,0-.05.1,0Zm.26-.48h.07v-.05H77l0,0,0,0v.08l0,0,0,0,0,0,0,0-.1,0,0,0,0,0v0l0,0,0,0,0,0H76.4v0h-.23v-.05H76.1v-.08h.07v0l.08,0,.15,0h.15v-.05l0,0ZM68.38,12l.08,0h.25v0l0,0,0,.05,0,.07,0,0h-.08v0l-.1,0,0,0h-.08v.05l-.07,0,0,0,0,0,0,0h-.08l0,0,0,0,0,0h0l-.12,0,0,0h0v0H67.7v-.07l0,0,0,0,0,0,0-.07.1,0,.1,0h.08V12l0,0h.25Zm6.21,5.23.07,0h.11l0,0v.05H75v.1l0,0-.1,0-.15,0h-.18v.06h-.1l0,.1v.12l0,0h-.07v.05h-.15c0-.08-.2-.08-.23,0h-.1v-.1l0-.05H74v-.05l.05,0,0,0,0-.05,0,0,.08,0,0,0,.05,0,.08,0,0,0,0,0,0,0,.1,0,0,0ZM71.2,9.86l.07,0h.08l0,0,0,0v.06h-.05V10l0,0-.1,0,0,.07h0v.05l0,0-.05,0,0,0,0,0,0,0-.08,0-.05,0,0,0,0,.05,0,.05,0,0h-.08v.05l-.07,0,0,0,0,0,0,0,0,0-.2,0,0,0h0l0,0,0,0h0v-.1l0,0h0v0l0,0,.07,0h.1v0l.08,0,0,0,.05,0,0,0,0,0h.08v-.1l0-.08,0,0h0v-.05l.07,0,.08,0,.1,0,0,0h0v0h.1v-.1Zm10.28.48,0,0h.17l0,0,0,0,0,0,.13,0,0,0v.12l0,0,0,0,0,0h-.15l0,0-.1,0h-.15l0,0,0,0,0,0,0,0h-.08v.05l-.1,0h-.4l-.07,0v-.05h0v0l0,0h.12v0l.28,0,.05,0,.07,0,0,0,0,0,.1,0,0,0,0,0Zm-9.15,1.53,0,0h.1l.07,0V12l0,0,0,0,0,0h0v0l-.1,0,0,0H72.2v0l-.07,0,0,0H72v.07l0,0,0,0,0,0-.08,0,0,0v.05l0,0-.07,0,0,0,0,0,0,0-.1,0,0,0,0,0-.07,0,0,.06,0,0-.08,0,0,0h-.13v0h0v0l0,0,0,0,0,0,0,0,.15,0,0,0,0,0,0,0,.05,0h0v0l0,0,.08,0,0-.05.18,0,0-.08h0V12.2l0,0,.13,0,0,0,0,0,0,0h.08V12l0,0,.1,0,0,0,0,0ZM85.65,9.53l0,0h.23v.05h0v0l0,0,0,0,0,0,0,0,0,0,0,0H85.7v0l-.1,0-.13,0H85.4v.05l-.1,0-.1,0H85V10h0v.07l0,0-.08,0,0,0,0,0-.12,0-.15,0h0v0l0,0h-.13l0,0v-.1l0,0h.08v-.05l.07,0,0,0,.1,0,0,0,0,0h.07v-.1l.15,0H85V9.78l0,0,0,0h.08V9.68l.08,0,.07,0h.13V9.58l.12,0ZM80.75,9l0,0h.13V9h0V9l0,0,0,0-.05,0,0,0h-.1v.05l0,0-.08,0,0,0,0,0,0,0-.08,0h-.1v.05l-.07,0-.13,0,0,0,0,0,0,0h0v.05l-.08,0,0,0h-.07v0l-.15,0,0,0h-.08v0l0,0-.08,0h-.07v.05l-.13,0h-.22V9.78l.12,0,0,0,0,0,0,0,0,0,0,0,0,0,0,0,.07,0h0V9.51l.1,0,0,0h.08V9.41l.05,0,0,0h.17v0l.1,0,.08,0,0,0,.1,0,0,0h.07V9.11l.1,0,.08,0,0,0,0,0,.12,0Zm-6,.48,0,0h.13v.05H75v.12l0,0,0,0h-.07v0l-.1,0h-.13v0l0,0,0,0,0,.07-.07,0,0,0h-.08V10l0,0h-.05v.05l0,0-.07,0,0,0,0,0,0,0,0,0H74v0l0,0-.07,0,0,0,0,0,0,0,0,0,0,0,0,0,0,0,0,0h-.1v.05l-.07,0h-.08v.05l0,0,0,0h0v.05l0,0,0,0h-.15v.05h-.3l0,0v-.05l0,0h0v-.1l0,0,.17,0,0,0,0,0,0,0h.08v0l0-.1h-.08l0,0v-.1l.05,0h.3v-.05l.1,0h.1v-.05l0,0,.06,0,.1,0,0,0L74,10l0,0h0V9.88l0,0,.07,0,0,0,0,0,.05,0,.08,0,0,0,0,0,0,0h.1V9.58l0,0h0V9.48l0,0Zm-3,9.83-.07,0-.08,0,0,0,0,0,0,0,0,0,0,0,0,0v.1h-.1l-.2,0,0,0,0,0v.1H71l0,0,0,0v.05h0l0,.05v.05h-.07l0,0-.1,0,0,.05,0,0,0,0v.05h0l0,.07-.1,0,0,0v0h0l0,0,0,0v.05h-.1l0,0,0,0,0,0-.08,0,0,0v.05H70l0,0,0,.08v.07h.23l0,0,0,0,0,0,0,0,0,0,0,0,.1,0,0,0,0,0v-.05h.05l.08,0,0,0,.08,0,0,0,0,0v-.06h0l0,0,.11,0,0-.06,0,0,0,0,0-.07V20h.08l0,0,0,0,.08,0,0,0,.05,0,0,0,0,0,0-.05v-.05h0l0,0v-.1h.15v-.05h.07l0,0,0,0,0,0,0,0,0,0,0,0,0,0v-.1l0,0,0,0h-.07v.05Zm-8.89-4.68,0,0h.12l0,0,.07,0v.13l0,0,0,0-.05,0,0,0,0,0,0,0,0,0,0,0h0V15l0,0,0,0h0v.05l0,.07,0,0,0,0,0,0,0,0,0,0,0,0,0,0,0,0,0,.05,0,0,0,.15-.16,0H62.2v.16l-.15,0-.08,0,0,.1,0,0,0,.05,0,0,0,.05-.05,0,0,.18H61.7v.05l-.08,0h-.2l0,0,0,0v-.12l0,0,0,0,0-.13,0,0,0,0,0,0,0,0,0,0,0,0,0,0,0,0,0,0,0,0,0,0,0,0,0,0,.08,0,0,0,0,0v-.21l.08,0,0,0h.08v-.05l0,0,0,0,0,0,0,0,0-.1,0,0,.1,0,0,0,.06,0,0,0,0,0,.08,0,0,0,0,0,0,0,.05,0,0,0,0,0h0v0l0,0ZM84.49,8.75l0,0h0l0,0,0,0v.28l0,0,0,0,0,0-.1,0-.12,0,0,0h-.05l0,0H84l0,0H84v.12l-.07,0h-.18l0,0h0l-.1,0,0,0,0,0,0,0,0,0v.07h0v.08l0,.05,0,0-.08,0-.08,0-.1,0,0,0h0v.05l-.05,0,0,0-.07,0,0,0,0,.05-.07,0h-.08v.05l-.1,0,0,0-.07,0,0,0,0,0,0,0-.07,0,0,0-.08,0-.15,0h-.07l0,0v0l0,0,0,0,0,0,0,0,0-.05.07,0,.1,0,.06,0,0,0,.1,0,0,0h.08l0-.06V9.76l0,0h.1V9.68l.07,0,.1,0,0,0,0,0,0,0,0,0,0,0,.05,0,.08,0,0-.05,0,0,.07,0,0,0,0,0,.08,0,.15,0,0,0,0,0h.2V9.16l0-.05,0,0,.07,0H84V9H84V9l0,0,0,0,0,0,.11,0,0,0,.1,0,0,0Zm-3.32,2.37-.07,0v0h0l0,0,0,0v0h-.3l-.1,0v0h0l0,0v.1h-.2l-.08,0v.1h0l0,0-.13,0-.1,0v.18h-.07l-.2,0v0h-.1l-.08,0,0,0,0,.05v0h-.08v.07h-.07l0,0v.05h-.05l0,0-.1,0v0H79l-.05,0v.05h-.07l-.08,0-.1,0v0h-.12l0,0-.06,0v0h0l0,0v0l0,.05,0,0,0,0h.16l.12,0v-.06h.15l0,0,0,0,0,0,0,0,0,0,0,0v-.05h.07l0,0,.05,0,0,0,0,0,.07,0,.08,0,0,0,0,0,0,0,0,0,.33,0,0,0,0,0,0-.08,0,0,0,0,0,0,.1,0,.1,0V12h.1l0,0,.08,0v-.05h0l0,0v-.15h.08l.3,0,0,0v-.08h.08v-.07h.1l.07,0,0,0,.1,0,0,0,.1,0v-.05h0l0,0v-.05l0-.07-.08,0H81.2Zm2.57-2.47,0,0,0,0v.05l0,.05h-.07l-.23,0v.05h-.1l-.1,0,0,0,0,0,0,0,0,0v.05H83l-.13,0,0,0v.05h-.07l-.08,0-.07,0,0,0-.12,0-.08,0-.07,0,0,0-.13,0-.07,0v.08H82l0,0-.07,0v.05h-.15l0,0v.05h-.07l0,0,0,0v.05h0l0,0,0,0v.05h0l0,0-.1,0v.06h-.1l-.08,0,0,0v0h0l0,0-.18,0v.05h0v-.05H80.7v.05h-.08l0,0v.05h0l-.08,0,0,0v.05h-.08l-.13,0,0,0,0,0,0,0,0,0,0,0,0,0v0h0l-.1,0,0,0,0,0-.1,0,0,0,0,0,0,0-.07,0v0h-.36l-.15,0H79l-.1,0v.1l0,0h0l.1,0v0h.2v0l0,.05h-.08l0,0-.1,0v.05H79l0,0,0,0,0,0,0,0-.15,0-.12,0v-.07h0l0,0v-.05h.1l.08,0,0,0v0l0-.05h-.28l0,0,0,0,0,0v-.05h0v0l0,0,0,0h-.18l-.07,0v0h-.1l0,0-.07,0v.05h-.1l-.08,0,0,0,0,0,0,0,0,0v.05h-.1l-.08,0-.1,0,0,.08,0,0,0,0,0,0v0h-.08l-.17,0,0,0v.05h-.07l0,0,0,0v.05h0l0,0-.1,0,0,0-.1,0,0,0,0,0,0,0,0,0-.1,0v.06h-.13l0,0,0,.08-.05,0,0,0v.05h0l0,0,0,0v.05h-.1l0,0,0,0v.05h0l0,0-.05,0,0,0-.1,0,0,0v.05h-.07l-.08,0h-.1l0,0,0,0,0,0v0l0,0h-.1v.08h-.18l0,0,0-.05,0,0,0,0v0h.1l.08,0h.25l0,0,0,0,0,0,0-.15,0,0,.08,0,0,0v0h.05l0,0,0-.05.1,0,.15,0,0,0,0,0,0,0,0,0,0,0,.05,0v-.05h.15l0,0,.08,0v-.15h0l.22,0v-.05h.08l0,0,0,0v0h.1l.12,0,.06,0v0h.1l.05,0,0,0,0,0,0,0,.08,0v-.05H78l.08,0,0,0,0,0,.1,0,0,0,0-.05.08,0,0,0v-.05h.08v-.1l.08,0,.17,0,0,0v-.08l-.08,0h-.23l-.05,0v.05h-.22l0,0-.08,0,0,.05-.05,0,0,0,0,.05v.05h-.08l0,0-.08,0-.12,0,0,0-.1,0,0,0-.13,0,0,0,0,0,0,0,0,0-.07,0,0,0v.05h0l0,0,0,0,0,0-.08,0,0,0,0,0,0,0,0,0-.07,0-.13,0,0,0,0,0-.07,0,0,0v0h0l0,0,0,0v.05H76.1v.05H76l0,0-.07,0v.05h-.05l0,0,0,0v.05h0l-.06,0,0,0,0,0-.1,0-.1,0v.06h-.23v-.08l0,0,0,0,0,0h-.28l-.12,0,0,0,0,0-.13,0,0,0,0,0-.07,0,0,0,0,.07-.08,0v.05H74l-.2,0h0l0-.15H74l0,0,0,0,.2,0,.05,0,0,0v-.1l-.07,0,0-.08v-.05l.05,0,0,0,.1,0,.1,0v-.12l0,0,0,0h-.1l0-.1v-.05h0l.12,0h.15l0,0h.4V11h.1c0-.08.09-.08.13,0h.07v0h.08v0l0,0,0,0h-.12v-.06h.1l0,0,0,.05h0v0h.23l0,0,.07,0,0,0v-.3l0-.05,0,0,0,0,0,0,.1,0,0,0,0,0,.1,0,0,0,0,0,0,0,0,0,0,0,0,0,0,0,.08,0,0,0,0,0,0,0,.11,0,.1,0V9.94h.07l0,0,0,0,0,0,0,0,0,0,0,0,0,0,0,0,.07,0,0,0,0,0,0,0,0,0,.08,0V9.53h.12l0,0,0,0V9.43h0l0,0V9.26l0,0,0,0h0l0,0-.1,0-.1,0,0,0v0h-.08l-.07,0,0,0,0,.05-.08,0,0,0,0,0,0,0,0,0,0,0-.05,0-.1,0,0,0,0,0,0,0-.1,0-.08,0v.05H76.4l-.05,0-.08,0v.06l0,0V9.78h0l0,0-.13,0,0,0-.07,0,0,0-.07,0,0,0,0,0v0h-.08l0,0,0,0,0,0v.1h.2l0,0v.07h0l-.06,0-.12,0v0l-.08.09h-.1l0-.15h-.25l0,.05-.07,0-.08,0-.07,0v0h-.08l0,0,0,0,0,0,0,0,0,0,0,0,0,0v.05h-.1l0,0-.05,0,0,0-.07,0,0,0-.1,0V11h0l0,0,0,0,0,0-.13,0-.07,0v.1h0l0,0v0h-.08l0,0v0h-.23v0l-.05,0h0l-.12,0v0h-.08l0,0,0,0v.05h0v.07h.15l.2,0a.11.11,0,0,1,.2,0h.1v.08l-.22,0h-.15l0,0-.05,0v.05h-.08l0,0,0,0v0h0l0,0v.06H73l0,0-.08,0,0,0-.1,0,0,0,0,0-.05,0,0,0,0,0v.05h-.07l-.08,0,0,0v.05h-.08l0,0,0,0,0,0,0,0-.13,0,0,0,0,0,0,0-.08,0,0,0,0,0,0,0,0,0,0,0-.07,0,0,0,0,0,0,0-.07,0v.05h-.08v.05h-.05l0,0-.1,0,0,0V13h0l0,0v0H71l-.15,0,0,0,0,0v.05h0l0,0,0,0,0,0,0,0v.07h0l0,0,0,0,0,0-.08,0-.07,0,0,0-.1,0,0,0,0,0,0,0v.05h-.05l0,0-.13,0-.07,0-.1,0,0,.1V14h-.07l0,0v.1h-.07v.05h-.08l0,0-.1,0v.07h0l-.05,0v0h0l0,0,0,0v.05h0l-.06,0v.08H69l0,0,0,0,0,0,0,0,0,0,0,0,0,0,0,0-.33,0,0,0,0,0V15h-.1l-.18,0,0,0v.07l0,0,0,0,.08,0H68v-.1l0,0V15H68l0,0,0,0-.13,0-.12,0-.13,0,0-.05,0,0,0,0,0-.05,0,0v-.05h0l0,0,0,0,0,0,0,0v-.06h.05l0,0,0,0,.08,0,.1,0,0-.07,0,0,0,0,.08,0,0,0v-.05h.08l0,0,0,0,0,0,0,0,0,0,0,0,0-.08,0,0,0,0,.17,0,0,0,0-.1v0h0l0,0,0,0v-.05h.06l0,0,0,0v-.08h.07l.13,0,0,0,0,0,0,0,0,0,0,0,.05,0,0,0,0,0,.07,0,0,0v0h.05l0,0,0,0,0,0,0-.05,0,0,0,0,.15,0,0,0,.07,0V13h.08l0-.05V12.8h0l0,0h.25l0-.06.07,0,0,0v-.05h0l0,0v-.08h.08l0,0,0,0,0,0,0,0,.08,0,.1,0v0h.07l0-.07.07,0,.1,0v0h.08l0,0,0,0V12h0l.18,0,0,0L72,12l0,0,0-.07,0-.13,0,0,0,0,0,0v-.07h.15l.07,0,.05,0v-.08h.08l.1,0v-.05h.07l0,0,.1,0v-.05h.1l0,0,0,0,0,0,.07,0,0,0v-.05h.08l0,0v-.13l-.05,0H73l-.15,0,0,0-.06,0v-.05l0,0,0,0h0v-.05h-.22l0,0,0,0,0,0,0,0v0h0l0,0,0,0,0,0-.08,0-.05,0,0,0-.15,0-.08,0v.07h-.1l0,0,0,0-.13,0,0,0v.1h-.43l0,0-.08,0h-.1l-.18,0,0,0h-.08l0,0,0,0v.1h.08v.05h.15l0,0v.08h.1V12l-.07,0,0,0v.05h-.07l0,0h-.45l0,0v.12l0,0,0,0v.05l-.15,0,0,0,0,.05v.1H70l0,0,0,0v0h0l0,0-.13,0v.05h-.2l-.05,0v.08l0,0,0,.08h-.17l0,0,0,0,0,0h-.78l-.17,0,0,0,0,0,0,.05,0,0v0h-.05l0,0,0,0,0,0,0,0,0,0,0,0v.05h-.07l0,0,0,0,0,0-.08,0,0,0v.05h-.08l0,.05v0h-.1l-.08,0,0,0v0h-.08l0,0v.07h-.08v0H67.1l0,0,0,0-.1,0,0,0,0,0-.1,0,0,0v.05h0l0,0,0,0v0h-.07l-.08,0,0,.08,0,0,0,0,0,0,0,0v.1h0l0,0-.13,0,0,0-.17,0,0,0v.06h-.1l-.07,0,0,0v.05h0l-.05,0,0,0,0,0,0,0,0,0,0,0,0,.07,0,0,0,0,0,0,0,0-.07,0v.05h0l0,0v.05H65l-.05,0,0,0,0,0,0,0-.08,0,0,0,0,0,0,0,0,0,0,0,0,0,0,0,0,0,0,0,0,0,0,0,0,0,0,0,0,0,0,0,0,0,0,.05-.08,0,0,0,0,0,0,0,0,0v.05H64l0,0-.08,0,0,.08,0,0,0,.05,0,0,0,0,0,.05,0,0v.07h0l0,0v.05h-.08l0,0v.07h-.05v0h0v.05H63.4l0,0v.07H63.3l0,0,0,.05,0,0,0,0,0,.05,0,0,0,0,0,0,0,0,0,0,0,.07,0,0,0,0-.1,0,0,0-.23,0,.06,0v-.15h.05l0,0,0-.05,0-.13,0,0,0-.05.08,0,0,0,0,0,.2,0,.07,0v-.05h.05V16.6l0-.13.1,0,0,0v-.05h.07l0,0,0,0,0,0,0,0,0,0,0,0,0,0,0,0,0,0,0,0,0-.13,0,0,0,0,0,0,0,0,0,0,0,0v-.05H64l0,0,0-.1v-.08h0l.1,0,0-.06,0,0,0,0,0,0,0-.08,0,0,.08,0v0h0l.23,0,0,0,0,0v-.05l0,0,0-.05h.07l.13,0v-.05h.2l0,0,0,0v-.13H65l.1,0,.07,0,0,0,0,0v-.11h.31l.1,0v0h0l0,0,.07,0v-.05h.08v-.08l0,0-.22,0,0,0,0,0,0,0,0,0,.07,0v0h.08l0,0,0,0,0,0,0-.05v0h0l0,0,.08,0,0-.05,0,0,0,0v-.05h.08l.1,0,0,0,0,0,0,0,0,0,0,0,0,0,0,0,0,0,.08,0,0,0,.05,0,0,0,0,0,0,0,0,0,0,0,0,0,0,0V13.1h.07l0,0V13h0l0,0,.08,0v0h.07l0,0,0,0v0h.1l0,0,0,0,0,0,.1,0,0,0V12.6h.05v-.08h-.05v-.07l0,0h0l-.13,0-.05,0v0h0l-.15,0v.1h-.07l-.21,0v.05h-.07l-.13,0,0,0,0,0-.05,0,0,0,0,0v0h-.08v.15h.1v.05h0l0,0,0,0-.17,0h-.13l0,0-.18,0v.05h-.08l0,0,0,0,0,0,0,0,0,0,0,0v0h0v.05h-.05l0,0-.08,0v.08l0,0h.12v-.05h0v0h0v-.05h0l.13,0,0,0h0l0,0-.08,0,0,0,0,0,0,.07-.1,0h-.12l0,0h-.15l-.08,0,0,0,0,0,0,.05V14l0,0,0,0,0,0h.12v.05h-.38l0,0v.05H65l-.1,0,0,0v0h0l0,0v.13l0,0,.07,0h-.27l0,0v.1h-.12l-.1,0,0,0,0,0-.07,0v.06h-.08l-.05,0,0,0,0,0,0,0-.1,0,0,0v0h0l0,0,0,0v0h0v.05h-.05v.05h0l0,0,0,0v.05h-.07v.07h-.05l0,0,0,0v.05H63.4l0,0-.1,0,0,0,0,.06,0,0,0,0,0,0,0,0,0,0-.05,0,0,0v0h-.07l0,0v.07h-.07l0,0,0,0,0,0,0,0,0,0v.05h0l-.05,0v.07h0l0,0,0,0,0,0,0,0v.08h-.08l0,0,0,0,0,0,0,0,0,.05,0,0,0,.05,0,.07-.08,0,0,0v.05h-.08l0,0v.1h0l0,.05V17h.23l0,.05,0,0-.13,0,0-.05h-.2l0,0,0,0,0,0,0,.05,0,.07,0,0,0,.05,0,0,0,0,0,0,0,0-.07,0,0,.05-.07,0-.05,0,0,0,0,0,0,0,0,0,0,0,0,.05,0,0v0h0l0,0,0,0v.05h-.05l0,0,0,0V18h-.05v.07h-.07l0,0,0,0v.05h-.06l0,.08,0,0,0,0,0,0,0,.08,0,0,0,0,0,.05,0,0v.05h0l-.05,0v.05h0l0,0v.07H60l0,.08,0,0-.08,0,0,0h-.1V19h-.15l0,.05v.08l0,0h0v.05h0l0,0v.05h-.08l0,0,0,0,0,0,0,0,0,0,0,0,0,0,0,0,0,0,0,0,0,0v.15h-.05l0,0,0,0v.05h0l-.05,0v.08h0l0,0V20h0l0,.07,0,.05v.08h0l0,0v0h-.08l0,0,0,0,0,0h0l0,0,0-.16,0-.05v-.05h0l0,0,0-.08v-.17h.05l0,0,0,0,0,0,0-.05,0,0v-.05H59l0,0,0-.07,0,0,0,0,0,0,0-.05v-.05h0l0-.13,0-.07,0,0,0,0,0-.05,0,0,0-.05,0-.05,0,0,0-.05,0,0v0h.05l0,0,0,0v-.05h.06l0,0,0,0,0-.07,0,0,0-.05,0-.07.05,0,0,0V18.3h0l0,0V18.2h0l0-.07,0-.05,0,0,0,0,0,0,0,0,0,0,0,0,0,0,0-.1v-.07h.08l0,0,0,0,0,0,0,0,0,0v-.18h0v-.1h.08l0,0v-.05h0l0,0,0-.1v-.07h0l.05,0,0,0,0,0,0,0,.08,0,0-.07,0-.05,0,0,0,0,.1,0v-.17h.05l0-.08v-.08l0,0h-.1l0,0-.07,0v0H61l-.08,0,0,0,0,.08,0,0,0,0,0,0,0,0,0,0,0,0,0,0,0,0,0,0,0,.08,0,.07h-.16l0,0,0,.05,0,.05,0,0,0,0,0,0,0,0,0,0-.05,0,0,0v.08H60l-.08,0-.07,0v.05h0l0,0v.07h-.07l0,0,0,.1v.05h0l-.06,0,0,0,0,0-.07,0,0,0,0,.08,0,0,0,0,0,0,0,0v.1h-.05l0,.05,0,.05v.07h-.05l0,0,0,0v.08h0l0,.08v0H59l0,0-.1,0,0,0,0,0h-.1l0,0v.13h.1v-.08h.05l0,.18-.1,0-.08,0,0,0,0,.05,0,.05,0,0,0,0-.07,0v.05H58.3v.1h0l0,0,0,0,0,0,0,.1,0,0-.08,0v0h0l0,.05,0,.15v.08H57.9l0,0,0,0v.05H57.8l0,0,0,.07,0,0,0,.07,0,.08-.07,0,0,0,0,.06,0,0,0,.1,0,.05v.08h0l0,0,0,.1,0,0,0,0,0,0v.07h-.05v0l0,0,0,0h-.05l0,0v.07h-.05l0,0-.12,0v.06h0l0,0,0,0v.23h0l0,.1,0,0v.07h-.06l0,.2v.28l0,.1,0,.05,0,0,0,.15v.32l0,.08h.28v.05l0,0,0,0,.15,0v.13l0,.08,0,.05,0,0,0,0,0,.08,0,0,0,0,0,0,0,.05v.18h0l0,.07,0,.1v.23l0,.05,0,0,0,0,0,0,0,0,0,0,0,0,0,0,0,.05,0,0,.05,0,.2,0,0,0,0,0,0,.58,0,.05v.23l.05,0,0,0,0,0,0,0,0,0,0,0,.05,0v.3l0,0,0,0h.05v.05l.07,0,.23,0h.07v0h.23l0,0h.08l0,0,.08,0,.08,0,.1,0,0,.05,0,0,0,.07,0,.05,0,0,0,0,0,0,0,0,0,.1,0,.05,0,0,0,0,0,0,0,0,0,0,0,0,0,0,.08,0,0,.08.08,0,0,.08,0,.05,0,0,0,.12,0,0,0,0,0,0,0,.27,0,0h0v.07l0,.08,0,0,.05,0,0,0,0,0,0,.15,0,.05,0,0H60v.1l0,0,0,0,0,0,0,0,0,0,0,0,0,0,0,0h0v.05l.05,0,.08,0,0,0,0,0,0,0,0,0h.08v0l.1,0h.05v.05l0,0,0,.05,0,0,0,.1,0,.06,0,0,0,0h.2v-.05h.17l.05,0,0,0,0,0,0,0,0,0,0-.07,0-.08v-.07h0l0,0,.07,0,0-.05,0,0,0-.12,0,0,0-.07,0-.08,0,0,0,0,0,0h.4v.22h-.08l0,.08,0,.12,0,0v.07l0,0,0,0,0,.08,0,.07,0,0,0,.07,0,.06,0,.12,0,0,0,0,0,0h0v.17l0,0,0,.05h0v.05H63l0,0,.1,0h.1l.1,0,0,0,0,0,0,0h.08v.05h.12l0,0,.1,0,.07,0,0-.08,0-.15v-.05h.05l0,0,0-.05,0,0L64,29l0,0,0,0,0,0,0,0,0,0,0,0,0,0,0,0,0,0,0,0,0,0,0,0,0-.05,0,0,0-.05,0-.08v-.37l0-.05,0,0,0,0,0-.18v-.1h0l0-.23,0,0v-.05h0l0-.08,0,0,0,0,0-.08,0-.1,0,0,0-.21,0,0v-.1h0l0-.18,0-.05v-.05H65l0,0,0,0v-.07h0l0-.1,0-.05,0-.05,0,0,0-.05,0,0,0,0,0,0,0-.06v-.05h0l0-.07,0,0,0,0,0,0,0,0,0,0,0-.1,0,0,0-.05v-.1h.08l0,0,0-.05v-.05h.07l0-.08,0,0,0-.13,0,0,.1,0v0h0l0,0,0,0v-.05h.08l0,0,.07,0,0-.15.05,0,0-.07v-.08h0l0,0,0,0,0,0,.1,0,0,0,0,0v0h0l0-.15v-.05h.1L67,24,67,24l0-.05,0,0v-.1h-.43l0,0,0,0,0,0,0,0,0,0,0,0,0-.07v-.08h.23l0,.05h0l0,0,0,0,0,0v.07l0,0,0,0h.15l0,0,0,0,0-.05,0,0,0,0,0,0v0h0l0,0,0,0v-.05h0l0,0,0-.07,0,0,0,0,.08,0,0,0,0,0V23.1h0l0,0,0,0V23h0v-.07h0l.05,0,0,0,0-.08,0,0,0,0,0,0,0,0,.08,0v-.05h.07l0,0,0-.12,0,0,0,0,0,0,0,0,0,0,0,0,0,0,0,0,0,0,0-.05,0,0,0,0,0,0,.07,0v-.05h.08l0,0,0,0,0,0,0,0,0-.05v0h0l0,0v-.05h.06l0,0,0-.08,0,0,0,0v-.05h.08l0,0,0,0,0,0,0,0,0,0,0,0,0,0,0,0,0,0,0,0,0,0,0,0,0,0v-.12l0,0h-.2l0,0,0,0,0,0v0h-.05v.08h0l0,0,0,0,0,0-.06,0,0,0,0,0-.08,0,0,0v.18h-.13l0,0,0,0-.07,0,0,0,0,0v.08h-.08l0,.07,0,0,0,.05,0,0,0,0,0,0,0,.05-.1,0v.05H68l0,0,0,.12v.05h0l0,0,0,0v.08h0v.05h0l0,0,0,0v.05h0l0,0,0,.08,0,0,0,0,0,0-.1,0-.08,0V22.8h.05l.08,0v-.05h.07l0,0,0,0,0,0,0,0,0,0,0-.08,0,0,0,0,.08,0,0,0v0h.05l0,0,0,0v-.18h.08l0,0,0,0,0-.05,0,0,0,0,0,0,0,0,0,0,0,0,0,0,.07,0v-.05h.08l0-.1,0,0v-.08h0l0,0,0-.08.07,0,0,0,0,0,.1,0,0,0,0,0v-.05h0l0,0v0h.06l0,0,.07,0,0-.05V21h.05l.1,0,0,0v-.07h.08l0,0v-.05h0l0,0,0-.1v-.05h0l0,0,0,0,0,0,.1,0,.08,0,0,0v0H70l0,0,0-.08,0,0,0,0,0,0,0,0,.08,0,0-.05,0,0,0,0,0,0,0,0v0h0l0,0,0,0,0,0,0,0,0,0,.08,0v-.05h.07l.1,0,.11,0v-.05H71l0,0v-.15h.05l0,0,0,0,0,0,0,0,0,0,0,0,0,0,0-.1,0,0,.07,0,0,0,0,0,0,0,.13,0V19h0l.07,0,0,0v-.05h.08l0,0,.07,0,0-.07,0-.2h.38l0,0,0-.05,0,0v0h.1l.05,0,.1,0V18.3h0l.06,0,0,0,0,0v-.05l0,0,0,0v-.05l.05,0,0,0,0,0L73,18l0,0,0,0,0,0v-.05h.1l0,0,0,0,0-.05.08,0,0,0,0,0,0,0,.07,0,0,0v0h0l0,0v-.08h.07l.06,0,.07,0v-.05h.08l0,0v-.05H74l0,0,.1,0v-.05h0l0,0,0,0v-.05h.05l0,0,0,0,0,0,0,0,.1,0,.07,0v0h0l.08,0,.08,0,0-.08,0,0v-.05h0l.1,0v-.05h.15l0,0,0,0,0,0,0,0,0,0v-.05h0l.08,0,0,0,0,0,.07,0,0,0v0h.08l0,0,0,0v-.05h.06l0,0,0,0,0,0,.05,0,0,0,0,0v0h.08l0,0,0,0,0,0,0,0,.07,0,0,0,0-.05,0,0,0-.06,0,0,0,0,0,0,.1,0,.08,0,0,0,.08,0,0,0,.08,0v0h.07l0,0,.08,0v0h0l0,0,0,0v-.05h.05V15h0l.07,0,0,0v-.05h.07l.08,0,.07,0,0,0,0,0,.07,0,0,0v0h.07l0,0,0,0,0,0,0,0,0,0,0,0,0-.05.2,0,0,0,.1,0h.26l.07,0,0,0,0,0,0,0,.1,0,0,0v-.13h-.15l-.12,0v0h-.11l0,0-.07,0v-.15h.18l0,0,.07,0,0-.08,0,0,0,0,0,0,.13,0,0,0,.15,0,0,0,0,0v-.05h.07l.13,0,0,0,0,0,0,0,.08,0,0,0,0-.08.07,0v0h0l0-.05,0,0V13.3h.05l0,0,.1,0,0,0,0,0,.07,0,0,0,0,0,0,0,.07,0,0,0V13h.05l0,0,.1,0,0,0,0,0,0,0,.05,0,0,0,.23,0,0,0,0-.06,0,0,0,0,0,0,.07,0,0,0,.1,0v-.05h0l.06,0v-.08h.05v-.05h.15v0h.07l.08,0v-.05h.07l.1,0,.08,0,0,0,0,0v-.08l-.08,0-.1,0h.3l.08,0V12h.08l0,0,.07,0v-.05h.08l.22,0,0,0,0,0,0,0,0,0,0,0,0,0,.08,0,.07,0,0,0,0,0v0l0,0-.08,0,0,0,0,0h.17l.1,0v-.13h0l0,0v-.07h.05l0,0v-.05h.1v.05h.2l0,0,0,0v0l0,0,0,0,0,0v-.1l0,0,0,0-.05,0v0l.05,0,0,0,.1,0,0,0,.05,0,0-.05v-.08h.15l0,.08,0,0,0,0,0,0,0,0-.1,0-.07,0v.07l0,0,0,0h.2l.07,0v-.05H84l0,0,0,0,0,0,0-.05.06,0,0,0,0,0,.25,0v-.05h.07l0,0,.1,0v-.05h.18l.07,0,0-.08v-.07l0,0h-.2l-.05,0-.07,0v.05h-.1l-.1,0,0,0,0,0-.1,0-.1,0h-.08v0l0-.05,0,0h-.12l-.1,0,0,.05-.07,0v.05h-.08l0,0,0,0-.08,0,0,0,0,0,0,0-.15,0-.11,0,0,0,0,0,0,0v0H83l-.13,0,0,0v.05h-.07v0h-.05l0,0,0,0,0,0,0,0,0,0,0,0,0,0,0,0v0h.08v.05h-.13l-.1,0,0,0-.06,0-.12,0,0,0-.15,0-.17,0,0,0,0,0,0,0,0,0v.05h-.1l-.1,0-.08,0v.1l0,0h0v.16h.33l0,0-.08,0-.32,0V12h.05v-.08l-.05,0,0-.06,0,0-.1,0,0,0h0l0,0,0,0,0,0v.06h0l-.1,0-.1,0v0h-.08l0,.05v.05h-.1l-.08,0,0,0,0,0,0,0,0,0-.1,0,0,0,0,0,0,0,0,0v0h-.07l0,0v.05h-.13l0,0-.07,0,0,0-.07,0,0,0v.08h-.07l-.11,0v.05h-.07l-.1,0-.05,0,0,0,0,0,0,0-.07,0,0,.07V13H79l-.1,0,0,0v0h-.12l-.1,0,0,0v0h-.08l0,.05v.05h-.07l0,0,0,0,0,0,0,0-.08,0-.15,0,0,0-.15,0-.1,0v.15h-.13V13.6l0,0,0,0,0,0v0c-.09,0-.09-.09,0-.12l0,0v0h.08l.1,0,0,0,0-.07V13.1h.22l0,0,0,0,0,0,.07,0,0,0v-.15h-.25l-.13,0-.12,0h0v-.05l0,0-.1,0h-.07v-.05l0,0-.07,0h.07l0,0,0,0,0,0V12.5l0,0,0,0,0,0h-.13l0-.07.08,0,0,0v-.05h.08v.05h.1v0l0,0,0,0,0,0,0,0,0,0h0l0,0,.07,0,.08,0,.1,0,0,0,0,0v-.07h.05l0,0,.08,0v0h.08l0,0,0,0,0,0,0,0,.07,0L79,12V12H79v-.21h.22l.18,0v-.05h.08l.07,0,0,0,0,0,0,0,0,0,0,0v-.08h-.07l0,0,0,0-.33,0-.07,0,0,0,0,0,0,0,0,0h-.25l0-.05h.08l0,0,0,0,.13,0,.1,0h.07l.05,0v-.05h0l0,0,0,0,0,0,0,0,.1,0,.08,0v-.05h.07l0,0v-.05h.08l.07,0,0,0v0h0l0,0,0,0,.15,0h-.1V11h.2l.1,0,0,0v0l0,0,0,0-.07,0,0,0,0,0,.07,0v-.08h.08l0,0v-.05h0l0,0v-.05h.05l0,0,.1,0v-.05h.07l.08,0,.07,0,0,0,0,0,.08,0,0,0,0,0,0,0,0,0,0,0v-.05h.08l0,0,.07,0V10h.08l0,0V9.94h.08l.07,0,0,0V9.83h.08l.07,0,0,0v0h.16l.1,0,0,0v0h0l.08,0,.1,0,0,0,0,0,.05,0,0,0,0-.05.15,0V9.36H83l0,0,0,0,0,0,.08,0,0,0,.08,0V9.16h.07l0,0,0,0,0,0,.12,0,.1,0,0,0,0,0,.05,0,.15,0v0H84l0,0,0,0V8.78h.16l.1,0,0,0,0-.05v0h-.18l0,0h-.27l0,0h-.1Zm-7.92,1.56v0l0,0Zm2.56,1.26h0l-.07,0,0,0v-.05h.2v.1Zm-.85,0v.05h0l0,0,0,0v.07h-.08l0,0,0,0,0,0,0,0v.06h-.1l-.08,0,0,0,.1,0v0h.05l0,0v-.08h.08l.12,0,0,0,0,0,0,0,0,0Zm.13.33h0l0,0,.08,0,0,0,.16,0,0,0v.06ZM76.9,12l0,0-.08,0,0,.1-.1,0v.05H76.6v.1l-.1,0,0,0,0,0v0l0-.05v0h0l0,0,0,0,0,0,0,0,.08,0,.13,0V12H77l0,.05Zm-2.18.13c0-.11.17-.2.3-.2h0c.06,0,.08,0,.08.07a1.32,1.32,0,0,1-.4.23h-.08v.05h-.1c-.07,0-.05,0-.08-.05l.15,0Zm6.48,0-.08,0v.05l0,.08-.05,0H81l0,0v-.1h.07l.15,0,0,0,.08,0,0,0v.05Zm-7.84.32,0,0h0l.1,0v0h.3l0,0,0,0,0-.22h-.15l0,0,0,0,0,0h-.12l-.08,0,0,0-.13,0,0,0h0v.08l-.1,0-.05,0-.1,0,0,0-.05,0h-.08v.08l0,0H72.8v.05l0,0-.18,0h-.1v.05l0,0,0,0-.05,0,0,0,0,0h-.07v.08l0,.12,0,0,0,0-.05,0L72,13l0,0,0,0,0,0-.05,0-.08,0,0,0-.15,0h-.07v.05l0,0,0,0h0v0l0,0,0,0,0,0,0,0,0,0-.12,0,0,0,0,0,0,0h-.05v.1l.05,0,0,0v0h.4v0l0,0,0-.06,0,0,.08,0,.23,0H72v-.05l0,0,0,0,0,0,0,0,.05,0,0,0,0-.07h0V13.2h-.05v-.07l0,0h.38v0l0,0,.31,0h.07V13l.1,0h.08l0,0,0,0,0,0-.07,0,0,0v-.13l.1,0h.07v0h0l0,0h.1l0,0,0-.05,0,0Zm2.91.1,0,0v-.08h-.08l0,0,0,0v.05l-.18,0,0,0,0,0,0,0H76v0h.08l0,0h.1l0,0h0Zm-.37,0v0l0,0Zm-.83.15h0l0,0Zm5,0h-.2v0l.15,0h.13v0Zm-5.07,0v.05h0l-.08,0,0,0h-.2v-.05h0v-.05h0l0-.06h.26v.06h.07l0,0,.1,0-.08,0Zm2.64.17,0,.05h.18l.07,0,0,0h0v.05h-.1v0h-.05l-.08,0,0,0,0,0,0,0,0,0,0,0,0,0-.18,0,0,0v.05h0l0,0,0,0v.05H77l0,0,.07,0,0,0v-.1l0,0H77l0,0,0,0v.05h-.1l-.1,0-.07,0v.05h-.1l0,0v.05h0v.1h.2l.08,0,0,0v-.05h.07l0,.05v0l0,.08h.63l0,0v.08l0,0,0,0-.07,0V14h-.25l-.05,0L77,14l0,0-.07,0V14h-.08v.05h0l0,0v.05h0v.1h0v.1h0l0,0-.07,0v.07H76.5l0,0v.05h-.15l0,0,0,0,0,0h-.17l0-.08,0,0h.08l.07,0v.05l0,0h0l0,0,0,0v-.1h.2l.07,0v-.08l0,0-.08,0v0l0,0,0,0,0,0,0-.05v0h0l.13,0,0,0v0h0v-.08h0v-.05h-.1v.05H76.5v0h-.08l0,0-.08,0v0h0v.05H76.2l0,0v.05H76.1l-.08,0,0,0v0h-.08l-.07,0v-.07h.05l0,0,0,0,.08,0,0,0v0h.05l0,0,.08,0,0,0v-.13H76.1l0,.05,0,0,0,0V14h-.1l0,0,0,0,0,0,0,0v.08h-.18l-.1,0,0,0v0h-.07l0,0h-.12l0,0h.08l.07,0v-.05h0v0l0,0,0,0,0-.05h0l.07,0v0h.1l.08,0v0h.08l0,0,.08,0,0-.05.08,0,0,0,0,0,0,0,0,0,0-.08h.27l.08,0v0h.1l0-.05,0,0v-.12h.05l.13,0,0,0,0,0v-.1h0v0h.08l0,0,0,0L77,13l0,0,0,0v0h.17l.33,0v0ZM75.69,13l0,.05-.28,0h0V13Zm-1.35.1c.09,0,.11,0,.12.1s-.21.06-.22-.1Zm-1.16.08h.1l0,0-.1,0v-.05Zm-4.6.17v.08h0l0,0v.05h-.07l0,0v.07h-.1l-.18,0v0H68l0,0,0-.1v0h.08l0,0,.1,0,0,0,0,0,0-.08.2,0,.1,0v.05h0Zm5,.05,0,0-.06,0,0,0v-.05h.13v0H74l.15,0v.07h0v.05Zm2.19.13v.05h0l-.16,0-.07,0v0h-.18l0,0,0,0v-.05h.08l0,0,.08,0,0,0,.06,0,0,0v0h.13v.1Zm1.1.05v0l0,0Zm1.91.05v0h-.07v0l0,0,0,0H79l-.07,0Zm-7.76.4,0,0h.1v-.08h0l0,0-.07,0v0L71,14h-.08v0h-.18c0-.09-.09-.09-.12,0l-.1,0,0,0h0v0l-.1,0,0,0h-.08v.05l0,0,0,0h0v.05l0,0,0,.08H70v.05l0,0-.25,0,0,0,0,0,0,0,0,0h0v.12l0,0,0,0,0,0,0,0v.08l0,.1,0,0h0l0,0,0,0,0,0,.1,0,0,0,0,0,0-.05,0,0,0,0,0,0,.18,0,.1,0h.08v-.16l.07,0h.1v-.05l.1,0,0,0c.08,0,.08-.09,0-.13v-.15l0,0h.12v-.05l.21,0,0,0Zm1.4.18.15,0h.1l.08,0a.08.08,0,0,0,.15,0l.1,0h0v0h0l0,0v0H73l0,0v-.17l-.13,0h0v0l-.07,0,0,0,0,0,0,0,0,0h0v0l-.07,0-.05,0,0,0,0,0,0,0h.15Zm.81.17-.21,0,0-.1v-.06l.15,0,0,0h.1v-.06l.15,0v.08Zm1.81.13,0,0-.07,0,0,0,0,0,0,0,0,0-.07,0v.06h-.16v-.1h.08l0,0,0,0,0,0v-.05h0v0h.25l0,0Zm.25.23,0-.06h0v0l-.22,0,0,0,0,0-.1,0,0,0,0,.05-.08,0,0,.05-.05,0,0,.05,0,0,0,0H75v0l0,0,.1,0h0l.1,0,0,0h.05l.25,0,0,0,0,0,0,0h.1v-.08l-.07,0-.28,0,0,0,0,0h-.1Zm-.86.17,0-.05h0l-.12,0h-.13l0,0-.08,0,0,.05,0,0L74,15,74,15l0,.12,0,0,0,0,0,0h-.08v.05h.1v-.05l0,0,.08,0,0,0,0,0,0,0,0,0,0,0,0,0,0,0h.15v0l.07,0,0,0Zm-2.89,0,0,0,0,0,0,0-.13,0,0,0,0,0h0l-.1,0h0l0-.05,0,0,0,0,0,0,.07,0,.1,0v-.06l.18,0v.05Zm-7.26,0,.13,0v0h-.08l-.08,0ZM74.79,15v0l0,0Zm1.28.07V15l0,0,0,0,.18,0V15l0,0h0Zm-6.68.18,0,.07-.1,0-.05,0,0,0,0,0,0,0,0,0v0H69l0,.06v0h-.05l0,0-.1,0v-.08h0v-.08h.1l0,0,.07,0,0,0,0,0v-.08h.06l0,0,.1,0v0h.12l0,0v-.08h.08l0,.05v.08Zm-2.06.07,0,0v.07h0l0,0,0,0v0h-.13l0,0,0,0,0,0,0,0v.06h0l0,0,0,0,0,0v0h0l0,0,0,0v.05h0l0,0V16l0,0h.23c0,.09-.07.09-.18.1l-.08.12-.07,0,.09-.11V16H66.5l0,.05-.07,0,0,0,0,0v.05h-.1l0,0,0,0,0,.05-.07,0,0,.05-.12,0,0,0,0,0-.13,0,0-.07v-.05h.07l.08,0,0,0,0,0,.05,0,0,0,0,0,0,0,0,0,0,0,0,0,0,0V16h0l0,0,0,0v-.07h.05l.07,0,0,0,.07,0,0,0,.05,0,0,0,0,0,0,0,0,0,0,0,0,0,.05,0,0-.06,0,0,.08,0v-.05h.07l.1,0,0,0v0h.08l0,0,0,0,0,0,.05,0,0,0,0,0v.1h-.1v.05Zm.7-.07v0l0,0Zm7.24.12,0,0-.07,0,0,0,0,0,0,0,0,0-.05,0-.07,0v0h0l0,0h-.3v-.05h0l0,0,0,0,0,0v-.12H75l.05,0,0,0,.12,0,.13,0v.05Zm-11.61.15h0l0,0,0,0,0,0h0v.1Zm9.82,0-.1,0v0h-.07l0,.06v.2h.2v0l0,0,0,.05-.08,0,0,0v.08l-.08,0V16l0,0v-.07l-.1,0h0l-.18,0-.05,0,0,0-.11,0,0,0,0,0v.05h0l0,0,0,0v.05h-.07l0,0h-.15l0,0,0,0,0,0,0,0,0-.05,0-.08.08,0,0,0v0h.05l0-.1.2,0,.1,0v-.05h0l0,0,0-.06,0,0,.05,0v-.06h.15l.13,0,.08,0,0,0Zm-10.25.33h0Zm5.13.12,0,0,0,0,0,0-.07,0-.08,0,0,0-.1,0,0,0v-.15h.11l0,0v0h.13l0,0,0,0,0,0,0,0h.12l0,0h-.05V16Zm4.39.38v0l0,0Zm-.07.15,0-.05h0v-.1h0v.05l0,0-.1,0-.1,0,0,0h-.17l0,0v-.15l-.12,0H72v.05h-.07l0,0,0,0-.08,0-.08,0,0,0,0,0,0,0,0,0,0,.1h.34v-.05l0,0,0-.05,0,0,0,0h.13l0,0,0,.05v.05l0,0-.07,0,0,0-.07,0,0,.05,0,0,0,0,0,0,0,0,0,0,0,0-.2.14-.25.06v.15h-.12v.05l-.1,0,0,0-.1,0,0,0h-.13v-.06h-.3v.06l-.08,0,0,0h-.08v0l-.07,0,0,.13h.18l.07,0,0,0h0l.25,0,0,0,.08,0,0-.05,0,0,.05,0,0,0,0,0,.08,0h0v-.05l0,0h.05v-.13h0c.15,0,.28-.21.4-.3v0l.11,0,0,0h0V16.9l.1,0,0,0,0,0,.12,0,0,0,0,0,0,0,0,0,0,0h.07v-.05h.08l0,.05h.1v-.1h0v0Zm-5.15.13-.18,0,0-.05,0-.05h.15v0Zm-2,.22,0,0V17h-.28V16.9l0,0,0,0,0,0v0l0,0,.3,0,.16,0,0,.05v.1Zm1.74,0,0,0h0V16.8l-.07,0,0,0-.13,0,0,.08h0V17l0,0,.1,0h.11ZM67,17v0l0,0Zm-2.44.63,0,0,0,.08h-.12v-.05h0l0,0,.05,0,0,0,0,0,0,0,.06,0,0,.05v.08Zm7.32,0-.16,0V17.6h.08l0,0v0h.08l.15,0v.13H72Zm-7.7.33V18h-.1l0,0v.05H64l0-.1V18h0l0,0,.08,0,.08,0,0,.07Zm7.22,0,0,0,0,0v.05H71v-.05l0,0h-.08V18h.2l.1,0h0l.15,0,.11,0-.06,0Zm-1.64.13.08,0H70l0,0,0,0v.05h0v.08l0,0,0-.05h.13v-.05l0,0,.08,0,0-.05h-.13V18h-.08l0,0,0,0,0,0,0,0h-.33V18h-.08V18h-.1v.05l0,.05,0,.08h0v.07l0,0-.08,0,0,0,0,0,0,0-.07,0,0,0,0,0-.1,0,0,0,0,0,0,0h0v.05l0,0,0,0h0v.05l0,0,0,0h0v0l-.07,0,0,0h0v.05l0,.05,0,.08h.07l.1,0,0,0,0,0,0-.08,0,0,.08,0h.07v-.05l0,0,0,0h0v-.05l.06,0,.07,0,0,0,0,0h.05v-.05l0-.07h0v-.06l0,0h.08v-.06l.07,0,0-.08,0,0,.08,0h.1v-.05Zm.38.15v0l0,0Zm-.63.53,0,0,0,0-.15,0v-.1h.08l0,0,.1,0v-.05h.1v.1h0ZM70,19l0,0v-.05h.1l0,0v.07h-.1V19H70Zm-.2.22,0,0v.05h-.07l-.1,0-.1,0v.05h-.13v-.1h0l0,0,.05,0,0,0,0,0,.1,0,.22,0v.05h0Zm-1,.1.1,0H69v-.05h-.15v.05h0v0l0,0-.08,0,0,0,0,0,0,0-.1,0v.1l.15,0,0,0,0-.05v-.08l0,0h.08Zm-.83.23,0,0v0H68l0,0h-.05v.05l0,0,0,0,0,.05,0,.05,0,0,0,0-.05,0h0v.05l0,0,0,0,0,0,0,0,0,0,0,0H67.3v0l0,0h-.11v.08l0,.07,0,0,0,0,0,0,0,0,0,0,0,0,0,0,0,0,0,0,0,0h-.08v0l0,0,0,0-.07,0,0,.05,0,0,0,.05,0,0,0,0,0,0,0,.05,0,0,0,0,0,0h-.07v.05l0,0,0,0h0v.08l-.06,0h0v.05l0,0,0,0h0v0l0,.06,0,.07-.07,0,0,0,0,0-.05,0h0v.08l0,0,0,0,0,0,0,0,0,.1h.28l0,0h0l0,0,0,0,0,.1v.05h0l0,0,0,0v-.06l0,0h0v0l0,0,0,0,0,0,0-.07v-.13l0,0-.1,0,0-.07,0,0v-.05l0,0,0,0,0,0h.48v-.06h.07v0l0,0,0,0,.08,0H67V21l0,0-.1,0h-.05v.05h-.17v-.05h-.1l0,0V21l0,0,0,0,.1,0h.07v-.05l0,0h0v-.05l0,0,0,0,.08,0,0,0h0v-.05l0,0,0,0,.05,0,.08,0,0,0,0,0,0,0h-.07v-.11l0-.07h0v0l.18,0,.07,0v-.2h0v-.05l.1,0,.08,0v-.08l0,0,0,0,.1,0h.15v-.1h0Zm1.13,0v.11l-.07,0,0,0-.1,0,0-.06ZM68,20.19v0h0l-.05,0v0h0l0,0-.07,0v.05h-.08l0,.07-.08,0,0,0,0,0v-.08l0,0,0-.1,0,0,.08,0,.05,0v-.1h.1l.1,0v-.05H68l.08,0,0,.07Zm-.88.65h.1c.07,0,.06,0,.08.08l-.09.07L67,21l0-.13h0Zm-1.58,1.23h.07V21.9l0,0h-.05v0l-.1,0-.1,0,0,0,0,0,0,0h-.05v.05l0,0,0,0h0v.05l0,0,0,0,0,.07,0,0-.05,0,0,0,0,0h0v.05l0,0,0,0h0v0l0,0,0,0h0v.07l0,0h-.07v.05l0,0,0,0,0,.05,0,.05h0V23l0,0,0,0,0,0,0,0h0v.05l0,0,0,0,0,.05,0,0,0,0,0,0h0v.05l0,.05,0,.07,0,0,0,0,0,0h-.05v.25l0,.05,0,0,0,0h0V24l0,0,0,0,0,0,0,0-.1,0,0,0,0,0,0,0v.1h.15v-.05l.08,0,0-.08.08,0,0,0,0,0,0-.08h-.06v0l0,0,0,0,0-.07,0,0,.08,0,0,0,.05,0,0,0h.18l.1,0,0,0v.1h0l0,0,0,0,.08,0,0-.08h0v-.05l0,0h.07v-.08l.05,0h0v-.08l0-.05,0,0,0-.05,0-.05,0-.05h0v0H65v-.05h-.15v.05h-.1v0l0,.07,0,0h0v.05l-.08,0,0,0h-.08v0h-.07l0,0v-.1l0-.15,0-.05h.08v-.05h.1V23.1l0,0,0,0h0V23l0-.05h.08l0-.05v0l0,0h0v0l0,0,0,0,.05,0,0,0,0,0,0,0,0,0v-.05l0,0v-.05l0-.05,0,0,0,0,0,0h.15V22.3l0-.07,0,0,0,0,0-.07Zm-1.36,2.09h.08l-.06,0,0,.07,0,0v.07h0l0-.05v0l0-.07h0v-.06Zm-.78.68,0,0,0,0,0,0-.12,0,0,0,0,0,0,0v.08l0,0,.05,0,0,0,0,0v0l0,0h.05l0,0,.06,0v-.08h.15l0-.05V25h0l0-.08,0,0v.13h-.05l0,0v.08h-.08l0,.07,0,0,0,0,0,.05,0,.18-.13,0v-.25l0,0h0l0,0,0,0v.1h.06l0,0,0,0,0,.05-.1,0v.05H62.9l0,0-.07,0v0h-.05l0,.12,0,.08-.21,0,0-.07,0,0,0-.05,0,0v-.08h.05l0-.2,0,0v0h0l0-.05,0-.05v-.1h0l0-.08,0,0,0,0,0-.1,0-.1,0,0,0,0,0,0,0,0,0,0,0,0,0,0,0,0,0-.08v-.05h0l0,0,.05,0,0,0,.06,0v.38Z"/><path class="cls-1" d="M47.64,12.78a8.2,8.2,0,1,1,0,16.39Z"/><path class="cls-1" d="M68,37.94h-.77l-.4-1.07h-1.3l-.39,1.07h-.73l1.43-3.75h.65Zm-1.39-1.67-.45-1.19-.42,1.19ZM63,35.37a.67.67,0,0,0-.1-.26.66.66,0,0,0-.18-.19.9.9,0,0,0-.24-.12.92.92,0,0,0-.29,0,1,1,0,0,0-.43.08.9.9,0,0,0-.33.25,1,1,0,0,0-.2.41,2,2,0,0,0,0,1.12,1,1,0,0,0,.2.41.83.83,0,0,0,.33.26.93.93,0,0,0,.42.09.85.85,0,0,0,.55-.18.76.76,0,0,0,.28-.5h.71a1.77,1.77,0,0,1-.17.55,1.36,1.36,0,0,1-.34.41,1.21,1.21,0,0,1-.46.25,1.7,1.7,0,0,1-.57.09,1.89,1.89,0,0,1-.72-.14,1.5,1.5,0,0,1-.54-.39,1.66,1.66,0,0,1-.35-.61,2.49,2.49,0,0,1-.12-.8,2.53,2.53,0,0,1,.12-.8,1.74,1.74,0,0,1,.35-.61,1.45,1.45,0,0,1,.55-.39,1.8,1.8,0,0,1,.71-.13,1.92,1.92,0,0,1,.55.08,1.63,1.63,0,0,1,.45.25,1.32,1.32,0,0,1,.34.4,1.42,1.42,0,0,1,.19.51Zm-3.45,2.57h-.69V34.19h.69ZM57.5,36a2.76,2.76,0,0,0,0-.51,1,1,0,0,0-.19-.38.93.93,0,0,0-.37-.23,1.61,1.61,0,0,0-.58-.09h-.52v2.46h.52a1.66,1.66,0,0,0,.58-.08.86.86,0,0,0,.36-.25.8.8,0,0,0,.19-.39A2.09,2.09,0,0,0,57.5,36m.71,0a1.68,1.68,0,0,1-1.9,1.9H55.09V34.19h1.22A1.66,1.66,0,0,1,58.21,36m-3.85,1.9H51.53V34.19h2.75v.64H52.22v.85h1.93v.64H52.22v1h2.14Zm-3.2,0h-.67V35.53l-.8,2.41H49.1l-.79-2.41v2.41h-.67V34.19h.9l.86,2.67.86-2.67h.9Z"/><path class="cls-1" d="M85.44,37.94H82.61l.81-3.75h2.75l-.14.64H84l-.18.85h1.93l-.14.64H83.65l-.21,1h2.14Zm-5.21,0h-.65l-1.11-2.51-.55,2.51h-.66l.81-3.75h.66l1.09,2.51.55-2.51H81Zm-5.35,0h-.69L75,34.19h.69Zm-2.85,0H69.64l.82-3.75h.68l-.67,3.1h1.7Z"/></svg>