<svg xmlns="http://www.w3.org/2000/svg" viewBox="0 0 68.62 24.89"><defs><style>.cls-1{fill:#171915;}.cls-2{fill:#fff;}.cls-3{fill:#51b054;}</style></defs><g id="Capa_2" data-name="Capa 2"><g id="Capa_1-2" data-name="Capa 1"><path class="cls-1" d="M64.72,23.71a8.87,8.87,0,0,1-2.79-.51,1.71,1.71,0,0,1-1.1-1.32,1.37,1.37,0,0,1,.37-1.1,5.09,5.09,0,0,1,3.52-1v.79a2.15,2.15,0,0,0-.68.1.86.86,0,0,0-.57.73c0,.53,0,1.1.48,1.35a2.35,2.35,0,0,0,.77.17Zm3-.54a7.23,7.23,0,0,1-3,.54v-.77a1.57,1.57,0,0,0,1-.33,1.5,1.5,0,0,0,0-1.64,1.23,1.23,0,0,0-1-.38V19.8h.77c1.22.16,2.74.35,3.12,1.8a1.63,1.63,0,0,1-.87,1.57"/><path class="cls-1" d="M26,20.71v1.71c.29.43,1,.22,1.55.26v.82c-1.35,0-2.78.26-3.65-.3a.79.79,0,0,1-.33-.47V20.78s-1.22,0-1.22,0v-.9h1.22v-.56L26,18.77v1.07h1.57v.87Z"/><path class="cls-1" d="M59.72,23.62s-2.45,0-2.45,0V21.53a1.17,1.17,0,0,0-.45-.75,2.58,2.58,0,0,0-1.38,0,.89.89,0,0,0-.35.77v2H52.65V20.83c0-.31,0-.65-.09-.94H55v.59a4.53,4.53,0,0,1,4.22-.16c.86.81.3,2.2.48,3.3"/><path class="cls-1" d="M48.79,23.53a15,15,0,0,0-.1-2.53c-.35-.4-1-.31-1.52-.22a.67.67,0,0,0-.47.38,21.75,21.75,0,0,0-.09,2.39H44.22V18.28h2.43v2a2.93,2.93,0,0,1,1-.36,4.53,4.53,0,0,1,3.1.31,1.54,1.54,0,0,1,.56,1v2.23Z"/><path class="cls-1" d="M40.66,21.13a.67.67,0,0,0-.5-.6,1.42,1.42,0,0,0-1.26.25,1.66,1.66,0,0,0-.17,1.6c.17.44.64.47,1,.53a.94.94,0,0,0,.74-.3.59.59,0,0,0,.15-.44h2.41a.82.82,0,0,1-.35.72c-1.18.91-2.95.84-4.41.66a3.07,3.07,0,0,1-2.11-1.22,1.77,1.77,0,0,1,.07-1.41c1.2-1.43,3.33-1.26,5.09-1a2.11,2.11,0,0,1,1.75,1.27Z"/><path class="cls-1" d="M13.66,20.92c-.82,0-1.85,0-2.27.82,0,.55,0,1.79,0,1.76H9c0-1.24,0-2.53-.09-3.7l2.41,0v.79a3,3,0,0,1,2.37-.82v1.12Z"/><path class="cls-1" d="M3.8,23.53a4,4,0,0,1-1.18-.41v1.77H.12V20.53c0-.29-.09-.56-.12-.78l2.51,0v.53a3.6,3.6,0,0,1,1.29-.49v.71A1.32,1.32,0,0,0,2.72,21a1.39,1.39,0,0,0,.18,1.47,1.25,1.25,0,0,0,.9.28Zm2.92-.36a4.65,4.65,0,0,1-2.92.36v-.78a1.89,1.89,0,0,0,.72-.14c.66-.26.52-1.05.35-1.61a1.08,1.08,0,0,0-.82-.47H3.8v-.71a5.13,5.13,0,0,1,3,.36,1.72,1.72,0,0,1-.08,3"/><path class="cls-1" d="M18,23.62A7.39,7.39,0,0,1,14.85,23a1.67,1.67,0,0,1-.67-1.56c.61-1.58,2.27-1.64,3.82-1.65v.71a1.26,1.26,0,0,0-1,.35,1.83,1.83,0,0,0-.2,1.2c.11.26.2.56.49.65a1.9,1.9,0,0,0,.75.16ZM21,23a7.24,7.24,0,0,1-3,.59v-.78a1.67,1.67,0,0,0,1-.32,1.52,1.52,0,0,0,.14-1.39c0-.3-.31-.48-.55-.56a5.06,5.06,0,0,0-.6-.09v-.71l.86,0c1.15.14,2.67.35,3,1.67A1.64,1.64,0,0,1,21,23"/><path class="cls-1" d="M30.67,22a.58.58,0,0,0,0,.47,1.32,1.32,0,0,0,1.12.45v.72a5,5,0,0,1-2.9-.74,1.62,1.62,0,0,1-.49-1.63c.51-1.4,2-1.49,3.39-1.52v.7a1.49,1.49,0,0,0-1,.33c-.12.14-.25.28-.18.43l1.14,0V22Zm1.17-2.25h0c1.24.05,2.58.05,3.25,1.22a1.89,1.89,0,0,1,.21,1H31.84v-.77l1.15,0v-.19a.75.75,0,0,0-.44-.49,2.4,2.4,0,0,0-.71-.12Zm0,3.17.59,0a.87.87,0,0,0,.65-.51h2.19c-.21.68-.94.91-1.5,1.08a13.3,13.3,0,0,1-1.93.18Z"/><path class="cls-1" d="M44.19,12.63a54.06,54.06,0,0,1-16,3.23,1.93,1.93,0,0,1-1.57-1.07c-.64-2.42-3.43-2.07-5-3.49-1.29-.9-2.37-2.28-2-3.92S21.65,4.69,23,4.1c1.95-.84,3.66-1.34,5.53-2A77.65,77.65,0,0,1,40.46,0,1.89,1.89,0,0,1,42,1.12c.35,2.68,3.35,2.28,4.93,3.71a4.22,4.22,0,0,1,2.17,2.9c0,2.67-2.9,4-4.92,4.9"/><path class="cls-2" d="M34.56,11.18a5.83,5.83,0,0,1-1.92-.66v3H28.45s0-5,0-5-2.2,0-3.19,0V7.85h3.21s0-2.81,0-2.81h3.87a5.61,5.61,0,0,1,0,.82,9.71,9.71,0,0,1,2.22-.78V6.3a2.05,2.05,0,0,0-1.66.64,2.57,2.57,0,0,0-.09,2.17,1.65,1.65,0,0,0,1,.73,5.49,5.49,0,0,0,.7.05Zm6.21-2.65a3.11,3.11,0,0,1-2.29,2.39,8.6,8.6,0,0,1-3.92.26V9.89a2.27,2.27,0,0,0,1.62-.57,2.15,2.15,0,0,0,.32-1.44,1.71,1.71,0,0,0-.88-1.41,3.67,3.67,0,0,0-1.06-.17V5.08a1.45,1.45,0,0,1,.3,0c2.07-.17,4.27,0,5.54,1.64a3.22,3.22,0,0,1,.37,1.12h3.8a5.57,5.57,0,0,0,0,.73Z"/><path class="cls-3" d="M34,10.66A6.42,6.42,0,0,1,32.05,10v2.94H27.86V8s-2.2,0-3.19,0V7.33h3.22s0-2.81,0-2.81h3.86a6.76,6.76,0,0,1,0,.78A11,11,0,0,1,34,4.52V5.74a2.24,2.24,0,0,0-1.66.64,2.55,2.55,0,0,0-.09,2.17,1.49,1.49,0,0,0,1.07.73,3.08,3.08,0,0,0,.68.07ZM40.19,8a3.13,3.13,0,0,1-2.28,2.43,8.85,8.85,0,0,1-3.94.26V9.35a2.14,2.14,0,0,0,1.62-.56,2.3,2.3,0,0,0,.33-1.46A1.69,1.69,0,0,0,35,5.91,3.51,3.51,0,0,0,34,5.74V4.52l.31,0c2.08-.14,4.27,0,5.53,1.68a2.81,2.81,0,0,1,.38,1.11l3.79,0A4.24,4.24,0,0,0,44,8Z"/></g></g></svg>