<svg id="Capa_1" data-name="Capa 1" xmlns="http://www.w3.org/2000/svg" viewBox="0 0 135 46"><defs><style>.cls-1{fill:#27a1d7;}.cls-2{fill:#fff;}.cls-3,.cls-4{fill:none;stroke:#000;}.cls-3{stroke-linejoin:bevel;stroke-width:0.12px;}.cls-4{stroke-miterlimit:22.93;stroke-width:0.13px;}</style></defs><path d="M62.74,36.68V33.3a.76.76,0,0,0,0-.27.14.14,0,0,0-.12-.09,1.53,1.53,0,0,0-.36,0H62v-.41h2.61a4,4,0,0,1,1.24.18,2,2,0,0,1,.83.52,1.93,1.93,0,0,1,.47.77,3.42,3.42,0,0,1,.14,1A2.75,2.75,0,0,1,67,36.34a2,2,0,0,1-.88.79,3,3,0,0,1-1.31.27H62V37l.25,0c.13,0,.24,0,.29,0a.33.33,0,0,0,.13-.09.51.51,0,0,0,.05-.24M64,36.59c0,.18,0,.31.09.34s.14.11.3.11a1.46,1.46,0,0,1,.34,0,1,1,0,0,0,1-.58A3.14,3.14,0,0,0,66,34.94a4.89,4.89,0,0,0-.13-1,1.46,1.46,0,0,0-.41-.74,1.31,1.31,0,0,0-.86-.28h-.11c-.34,0-.52.12-.52.34Zm5.3.09V33.25a.47.47,0,0,0,0-.22.2.2,0,0,0-.11-.09l-.22,0h-.37v-.38l4.6,0,.06,1.74h-.35c-.07-.19-.14-.39-.21-.55a2.29,2.29,0,0,0-.31-.42,1.23,1.23,0,0,0-.48-.27,2.62,2.62,0,0,0-.78-.11,1.13,1.13,0,0,0-.43.08.33.33,0,0,0-.14.3v1.41h.14a.85.85,0,0,0,.63-.26,1.17,1.17,0,0,0,.31-.68h.36l0,2.34h-.39a1.65,1.65,0,0,0-.13-.54.89.89,0,0,0-.36-.36,1.25,1.25,0,0,0-.59-.14v1.61a.74.74,0,0,0,0,.24.35.35,0,0,0,.15.09l.39,0a2.26,2.26,0,0,0,.94-.17,1.21,1.21,0,0,0,.54-.45,3.43,3.43,0,0,0,.38-.81l.34,0-.07,1.8H68.52V37h.27a.83.83,0,0,0,.37-.07.34.34,0,0,0,.09-.27m6-3.43a.81.81,0,0,0-.72-.38v-.36h1.71L79,35.62v-2a.73.73,0,0,0-.2-.6,1,1,0,0,0-.57-.14v-.36h1.94v.36a1.1,1.1,0,0,0-.49.14.42.42,0,0,0-.19.29,2.58,2.58,0,0,0,0,.45v3.71H79l-3.24-3.82v2.59a.73.73,0,0,0,.22.61.87.87,0,0,0,.56.17v.39h-2V37a1.1,1.1,0,0,0,.42-.06.42.42,0,0,0,.25-.2.89.89,0,0,0,.09-.43Zm7.5-.18c0-.15-.09-.2-.27-.2a.78.78,0,0,0-.57.23,1.67,1.67,0,0,0-.38.6,2.32,2.32,0,0,0-.18.66h-.32l.09-1.85h4.53l.09,1.85h-.34a2.32,2.32,0,0,0-.18-.66,1.37,1.37,0,0,0-.4-.58.86.86,0,0,0-.61-.25c-.14,0-.23.07-.23.2v3.7a.17.17,0,0,0,.1.18,1.13,1.13,0,0,0,.45.07h.24v.39H82V37l.5,0a.34.34,0,0,0,.2-.07.28.28,0,0,0,0-.2Zm4.3,3.16,1.66-3.85h.52l1.8,4.3a.47.47,0,0,0,.23.25.77.77,0,0,0,.4.08v.39H89.28V37h.22c.19,0,.3-.06.3-.15a.49.49,0,0,0,0-.14l-.31-.78H87.7a2.15,2.15,0,0,0-.2.63c0,.29.25.44.68.44v.39h-2V37c.36,0,.65-.3.86-.79m1.51-2.43-.7,1.7h1.39Zm4.63-.59a.53.53,0,0,0,0-.2.27.27,0,0,0-.13-.09,1.06,1.06,0,0,0-.36-.05H92.5v-.36h2.7v.36h-.43a.6.6,0,0,0-.26.05.35.35,0,0,0-.07.22v3.58c0,.09,0,.18.06.2a.44.44,0,0,0,.3.09h.33a2.39,2.39,0,0,0,.77-.12,1.23,1.23,0,0,0,.54-.43,3.06,3.06,0,0,0,.36-.9h.36l-.09,1.83H92.5V37c.25,0,.41,0,.48,0a.21.21,0,0,0,.19-.08.42.42,0,0,0,0-.25Z"/><path d="M62.74,36.68V33.3a.76.76,0,0,0,0-.27.14.14,0,0,0-.12-.09,1.53,1.53,0,0,0-.36,0H62v-.41h2.61a4,4,0,0,1,1.24.18,2,2,0,0,1,.83.52,1.93,1.93,0,0,1,.47.77,3.42,3.42,0,0,1,.14,1A2.75,2.75,0,0,1,67,36.34a2,2,0,0,1-.88.79,3,3,0,0,1-1.31.27H62V37l.25,0c.13,0,.24,0,.29,0a.33.33,0,0,0,.13-.09.51.51,0,0,0,.05-.24M64,36.59c0,.18,0,.31.09.34s.14.11.3.11a1.46,1.46,0,0,1,.34,0,1,1,0,0,0,1-.58A3.14,3.14,0,0,0,66,34.94a4.89,4.89,0,0,0-.13-1,1.46,1.46,0,0,0-.41-.74,1.31,1.31,0,0,0-.86-.28h-.11c-.34,0-.52.12-.52.34Zm5.3.09V33.25a.47.47,0,0,0,0-.22.2.2,0,0,0-.11-.09l-.22,0h-.37v-.38l4.6,0,.06,1.74h-.35c-.07-.19-.14-.39-.21-.55a2.29,2.29,0,0,0-.31-.42,1.23,1.23,0,0,0-.48-.27,2.62,2.62,0,0,0-.78-.11,1.13,1.13,0,0,0-.43.08.33.33,0,0,0-.14.3v1.41h.14a.85.85,0,0,0,.63-.26,1.17,1.17,0,0,0,.31-.68h.36l0,2.34h-.39a1.65,1.65,0,0,0-.13-.54.89.89,0,0,0-.36-.36,1.25,1.25,0,0,0-.59-.14v1.61a.74.74,0,0,0,0,.24.35.35,0,0,0,.15.09l.39,0a2.26,2.26,0,0,0,.94-.17,1.21,1.21,0,0,0,.54-.45,3.43,3.43,0,0,0,.38-.81l.34,0-.07,1.8H68.52V37h.27a.83.83,0,0,0,.37-.07.34.34,0,0,0,.09-.27m6-3.43a.81.81,0,0,0-.72-.38v-.36h1.71L79,35.62v-2a.73.73,0,0,0-.2-.6,1,1,0,0,0-.57-.14v-.36h1.94v.36a1.1,1.1,0,0,0-.49.14.42.42,0,0,0-.19.29,2.58,2.58,0,0,0,0,.45v3.71H79l-3.24-3.82v2.59a.73.73,0,0,0,.22.61.87.87,0,0,0,.56.17v.39h-2V37a1.1,1.1,0,0,0,.42-.06.42.42,0,0,0,.25-.2.89.89,0,0,0,.09-.43Zm7.5-.18c0-.15-.09-.2-.27-.2a.78.78,0,0,0-.57.23,1.67,1.67,0,0,0-.38.6,2.32,2.32,0,0,0-.18.66h-.32l.09-1.85h4.53l.09,1.85h-.34a2.32,2.32,0,0,0-.18-.66,1.37,1.37,0,0,0-.4-.58.86.86,0,0,0-.61-.25c-.14,0-.23.07-.23.2v3.7a.17.17,0,0,0,.1.18,1.13,1.13,0,0,0,.45.07h.24v.39H82V37l.5,0a.34.34,0,0,0,.2-.07.28.28,0,0,0,0-.2Zm4.3,3.16,1.66-3.85h.52l1.8,4.3a.47.47,0,0,0,.23.25.77.77,0,0,0,.4.08v.39H89.28V37h.22c.19,0,.3-.06.3-.15a.49.49,0,0,0,0-.14l-.31-.78H87.7a2.15,2.15,0,0,0-.2.63c0,.29.25.44.68.44v.39h-2V37c.36,0,.65-.3.86-.79m1.51-2.43-.7,1.7h1.39Zm4.63-.59a.53.53,0,0,0,0-.2.27.27,0,0,0-.13-.09,1.06,1.06,0,0,0-.36-.05H92.5v-.36h2.7v.36h-.43a.6.6,0,0,0-.26.05.35.35,0,0,0-.07.22v3.58c0,.09,0,.18.06.2a.44.44,0,0,0,.3.09h.33a2.39,2.39,0,0,0,.77-.12,1.23,1.23,0,0,0,.54-.43,3.06,3.06,0,0,0,.36-.9h.36l-.09,1.83H92.5V37c.25,0,.41,0,.48,0a.21.21,0,0,0,.19-.08.42.42,0,0,0,0-.25Z"/><rect class="cls-1" x="33.65" y="18.11" width="67.71" height="13.38"/><path class="cls-2" d="M51.37,17.19l.31.39,1.87-.47.75.33h2.05l.79.54,2-1,1.64,1,1.83-.77H65l1.37-.47,3.26.59,1.36,0,.71,0,.84-.9,3.33.52,1.15.36c-.15-.32-.37-.57-.55-.92-.43,0-.55,0-1-.05a34.16,34.16,0,0,1-6.86-6.21c-.23.36-.4.87-.61,1.21l.35.5-2.52-3a43,43,0,0,1-5.42,6.44l-2.7,2.36c.68-.61,1.76-1.51,2.47-2.14-.59-.44-1.25-.9-1.82-1.34L56.4,15.66c.1.43.45,1,.55,1.47-.45-1.33-1.11-2.9-1.51-4.26A48.44,48.44,0,0,1,51.57,17c-.1.11-.14.07-.2.22"/><path d="M49.87,19.33c.51-.36,1-.74,1.51-1.15a19.61,19.61,0,0,0,1.49-1.32,2,2,0,0,0,.21.2c-.49.51-1,1-1.46,1.39s-1,.83-1.49,1.22Z"/><path d="M72.41,21.49l-1.87-1.94.2-.21,1.92,1.88-.25.27"/><path d="M73.54,19.11c-.8-.9-1.63-1.85-2.45-2.83s-1.6-2-2.41-3l.22-.18c.8,1,1.65,2,2.49,2.91s1.7,1.86,2.53,2.73c-.14.14-.23.25-.38.38"/><path d="M64.78,15.3c-.25.48-.5.92-.77,1.34s-.55.81-.86,1.22c-.14-.11-.23-.2-.36-.31.33-.38.63-.75.91-1.14s.56-.8.84-1.26Z"/><path d="M77.13,17.25A9.28,9.28,0,0,0,81,20.44l1.1.61,0,0,0,0c.28.41.58.76.88,1.12s.53.62.79,1l.18.11.44.22a14.59,14.59,0,0,0,3.83,1.25h0l0,0a34.86,34.86,0,0,0,3,1.71,25.55,25.55,0,0,0,3,1.24c.53.14,1.06.26,1.59.38l1.54.36-.07.27c-.51-.13-1-.24-1.53-.36s-1.08-.24-1.61-.38h0a26,26,0,0,1-3-1.25c-1-.49-2-1.05-3.06-1.71a15.11,15.11,0,0,1-3.88-1.27l-.46-.23a1.56,1.56,0,0,1-.24-.16h0a11.26,11.26,0,0,0-.79-1,11.47,11.47,0,0,1-.88-1.12c-.38-.22-.73-.41-1.07-.59a9.54,9.54,0,0,1-3.7-3,4.4,4.4,0,0,1-.26-.39l-.29-.5-.24-.38H76a4.41,4.41,0,0,1-.56,0h0l0,0a27.81,27.81,0,0,1-3.76-3,40.84,40.84,0,0,1-3-3.1c-.08.14-.15.29-.22.44a4.85,4.85,0,0,1-.25.51l.29.43,2.16,2.74-2.38-2.57L67,10.37c-.38-.44-.76-.89-1.14-1.36a39.6,39.6,0,0,1-2.46,3.22c-.91,1.08-1.87,2.1-2.87,3.09h0l-.11.09h0l-.13.11L59,16.66l-.35.3,0,0-.8.69h0l-.14-.16,0-.06h0l.74-.64,0,0,1.53-1.34L59.34,15l-1-.73-.88.68-.88.69c.12.29.22.58.32.86a3.51,3.51,0,0,1,.19.54l-.14.07h-.13l-.18-.51-.09-.22-.28-.76,0-.09h0l0-.1c-.3-.79-.6-1.58-.83-2.34-.55.67-1.13,1.3-1.72,1.92s-1.31,1.33-2,2l-.2.22a32.13,32.13,0,0,1-3,2.61c-1.07.84-2.19,1.64-3.32,2.43l0,0c-.84.73-1.67,1.46-2.58,2.23h0a11.82,11.82,0,0,0-.95.72c-.31.25-.62.51-1,.74h0l-.2.08a8.8,8.8,0,0,1-2,.65l0-.28a9.23,9.23,0,0,0,1.93-.63l.19-.08a10.86,10.86,0,0,0,.93-.71c.31-.25.62-.5,1-.73.81-.69,1.68-1.46,2.56-2.22l0,0h0c1.13-.8,2.25-1.6,3.32-2.43a32.69,32.69,0,0,0,3-2.59h0l.19-.21h0c.67-.66,1.34-1.31,2-2s1.27-1.37,1.87-2.1l.17-.21.07.26c.24.81.58,1.7.9,2.56v0l.81-.63,1-.76h0l.09-.06.08.06c.34.26.72.53,1.09.8l.63.46.15-.13c1-1,2-2,2.85-3.07s1.75-2.18,2.55-3.35l.11-.16.12.15,1.26,1.5.75.89c.07-.13.14-.28.21-.43a4.93,4.93,0,0,1,.33-.65l.1-.16.13.14c.92,1,2,2.17,3.1,3.24a26.85,26.85,0,0,0,3.7,2.92,3.16,3.16,0,0,0,.49,0l.45,0h.08l0,.07c.08.15.17.29.26.43s.2.37.31.55"/><polygon points="65.99 11.07 65.99 11.07 67.75 13.2 69.32 14.59 69.23 14.7 69.14 14.81 67.46 13.57 67.44 13.56 67.43 13.54 65.76 11.24 65.88 11.15 65.98 11.06 65.99 11.07"/><rect x="73.75" y="16.11" width="0.28" height="1.36" transform="translate(5.74 49.93) rotate(-38.74)"/><polygon points="56.34 18.11 57.18 16.45 57.33 16.14 57.44 16.47 58.42 19.48 58.15 19.56 57.28 16.89 56.6 18.23 56.34 18.11"/><path d="M57.8,20.13h0l-.07-.07.65-.65a35.38,35.38,0,0,0,5.08-5.91l.24.15h0a35.3,35.3,0,0,1-5.06,6l-.64.66Z"/><path d="M47,23.22l.75,1.71a1.29,1.29,0,0,0-1-.36L46,22.92a1,1,0,0,1,1,.3"/><path class="cls-3" d="M47,23.22l.75,1.71a1.29,1.29,0,0,0-1-.36L46,22.92A1,1,0,0,1,47,23.22Z"/><polygon points="49.54 23.08 50.29 24.79 50.29 24.77 49.54 23.06 49.54 23.08"/><polygon class="cls-3" points="49.54 23.06 50.29 24.77 50.29 24.79 49.54 23.08 49.54 23.06"/><polygon points="49.58 26.01 50.33 27.72 47.76 24.93 47.01 23.22 49.58 26.01"/><polygon class="cls-3" points="49.58 26.01 50.33 27.72 47.76 24.93 47.01 23.22 49.58 26.01"/><polygon points="50.47 22.86 51.23 24.57 51.01 24.57 50.83 24.59 50.67 24.61 50.53 24.63 50.43 24.65 50.35 24.69 50.31 24.73 50.29 24.77 49.54 23.06 49.55 23.02 49.6 22.98 49.67 22.94 49.77 22.92 49.91 22.9 50.07 22.88 50.25 22.86 50.47 22.86"/><polygon class="cls-3" points="50.47 22.86 51.23 24.57 51.01 24.57 50.83 24.59 50.67 24.61 50.53 24.63 50.43 24.65 50.35 24.69 50.31 24.73 50.29 24.77 49.54 23.06 49.55 23.02 49.6 22.98 49.67 22.94 49.77 22.92 49.91 22.9 50.07 22.88 50.25 22.86 50.47 22.86"/><polygon points="50.47 22.86 51.22 24.55 51.23 24.09 50.51 22.35 50.47 22.86"/><polygon class="cls-3" points="50.51 22.35 51.23 24.1 51.22 24.55 50.47 22.86 50.51 22.35"/><polygon points="49.62 23.24 50.37 24.95 50.35 24.89 49.59 23.18 49.62 23.24"/><polygon class="cls-3" points="49.59 23.18 50.35 24.89 50.37 24.95 49.62 23.24 49.59 23.18"/><polygon points="51.84 27.74 51.87 27.84 51.89 27.92 51.91 28 52.66 29.71 52.64 29.63 52.62 29.55 52.6 29.45 52.6 27.6 51.84 25.89 51.84 27.74"/><polygon class="cls-3" points="51.85 25.89 52.6 27.6 52.6 29.45 52.62 29.55 52.64 29.63 52.66 29.71 51.91 28 51.88 27.92 51.87 27.84 51.85 27.74 51.85 25.89"/><polygon points="52.88 23.24 53.64 24.95 53.58 24.85 53.5 24.77 53.36 24.69 53.2 24.65 52.98 24.61 52.74 24.57 52.46 24.57 51.71 22.91 51.98 22.86 52.22 22.9 52.44 22.94 52.6 22.98 52.74 23.06 52.82 23.14 52.88 23.24"/><polygon class="cls-3" points="52.88 23.24 53.64 24.95 53.58 24.85 53.5 24.77 53.36 24.69 53.2 24.65 52.98 24.61 52.74 24.57 52.46 24.57 51.71 22.91 51.98 22.86 52.22 22.9 52.44 22.94 52.6 22.98 52.74 23.06 52.82 23.14 52.88 23.24"/><polygon points="53.26 28.62 54.01 30.3 54.02 29.83 53.28 28.09 53.26 28.62"/><polygon class="cls-3" points="53.28 28.09 54.02 29.83 54.01 30.31 53.26 28.62 53.28 28.09"/><polygon points="53.26 28.62 54.02 30.33 48.98 30.33 48.22 28.64 53.26 28.62"/><polygon class="cls-3" points="53.26 28.62 54.02 30.33 48.98 30.33 48.22 28.64 53.26 28.62"/><polygon points="55.43 22.86 56.19 24.55 56.19 24.09 55.45 22.35 55.43 22.86"/><polygon class="cls-3" points="55.45 22.35 56.19 24.1 56.18 24.55 55.43 22.86 55.45 22.35"/><path d="M55.43,22.86l.76,1.71a2.32,2.32,0,0,0-1.61.74l-2,2.29-.75-1.71,2-2.29a2.5,2.5,0,0,1,1.49-.74Z"/><path class="cls-3" d="M55.43,22.86l.76,1.71a2.32,2.32,0,0,0-1.61.74l-2,2.29-.75-1.71,2-2.29a2.5,2.5,0,0,1,1.49-.74Z"/><path d="M57.66,23l.76,1.71a3,3,0,0,0-1.32-.18l-.74-1.66a3.35,3.35,0,0,1,1.3.13"/><path class="cls-3" d="M57.66,23l.76,1.71a3,3,0,0,0-1.32-.18l-.74-1.66A3.35,3.35,0,0,1,57.66,23Z"/><path d="M60,25.63l.76,1.71v2.17l0,.1,0,.06v0L60,28c0-.1,0-.2,0-.3Z"/><path class="cls-3" d="M60,25.63l.76,1.71v2.17l0,.1,0,.06v0L60,28c0-.1,0-.2,0-.3Z"/><path d="M64,24.15l.75,1.72,0-.08a2.81,2.81,0,0,0-2-1.16c-.51-.06-1.48-.21-1.89.2a.42.42,0,0,0-.08.22v1.83L60,25.17V23.34c.11-.65,1.37-.49,1.81-.44A2.72,2.72,0,0,1,64,24.15"/><path class="cls-3" d="M64,24.15l.75,1.72,0-.08a2.81,2.81,0,0,0-2-1.16c-.51-.06-1.48-.21-1.89.2a.42.42,0,0,0-.08.22v1.83L60,25.17V23.34c.11-.65,1.37-.49,1.81-.44A2.72,2.72,0,0,1,64,24.15Z"/><path d="M61.78,26.43l.76,1.71-.06-.08,0-.08c-.27-.54-1.18-.64-1.71-.64L60,25.63a1.92,1.92,0,0,1,1.81.8"/><path class="cls-3" d="M61.78,26.43l.76,1.71-.06-.08,0-.08c-.27-.54-1.18-.64-1.71-.64L60,25.63A1.92,1.92,0,0,1,61.78,26.43Z"/><polygon points="62.64 26.94 63.4 28.66 63.36 25.67 62.6 23.96 62.64 26.94"/><polygon class="cls-3" points="62.6 23.96 63.36 25.67 63.4 28.66 62.64 26.94 62.6 23.96"/><polygon points="62.58 28.24 62.62 28.32 61.87 26.61 61.83 26.53 62.58 28.24"/><polygon class="cls-3" points="61.86 26.6 62.62 28.32 62.58 28.24 61.83 26.52 61.86 26.6"/><polygon points="61.94 26.94 62.7 28.66 63.4 28.66 62.64 26.94 61.94 26.94"/><polygon class="cls-3" points="62.64 26.94 63.4 28.66 62.7 28.66 61.94 26.94 62.64 26.94"/><polygon points="64.83 25.97 64.89 26.07 64.13 24.35 64.08 24.25 64.83 25.97"/><polygon class="cls-3" points="64.14 24.35 64.89 26.07 64.83 25.97 64.08 24.25 64.14 24.35"/><polygon points="64.93 24.65 65.68 26.34 65.57 24.09 64.84 22.35 64.93 24.65"/><polygon class="cls-3" points="64.84 22.35 65.57 24.1 65.69 26.34 64.93 24.65 64.84 22.35"/><polygon points="64.25 24.65 65.01 26.36 65.69 26.36 64.93 24.65 64.25 24.65"/><polygon class="cls-3" points="64.93 24.65 65.69 26.36 65.01 26.36 64.25 24.65 64.93 24.65"/><polygon points="64.93 28.62 65.69 30.33 57.1 30.33 56.36 28.65 64.93 28.62"/><polygon class="cls-3" points="64.93 28.62 65.69 30.33 57.1 30.33 56.36 28.65 64.93 28.62"/><polygon points="64.93 28.62 65.68 30.3 65.77 28.06 65.01 26.34 64.93 28.62"/><polygon class="cls-3" points="65.01 26.34 65.77 28.06 65.68 30.3 64.93 28.62 65.01 26.34"/><polygon points="65.94 24.8 66.68 26.46 67.24 26.46 66.49 24.75 65.94 24.8"/><polygon class="cls-3" points="66.48 24.75 67.24 26.46 66.69 26.46 65.94 24.8 66.48 24.75"/><path d="M69.09,23.06l.76,1.71,0-.08-.1-.08a1.8,1.8,0,0,0-1.73.5,2.68,2.68,0,0,0-.74,1.32l-.75-1.68a2.56,2.56,0,0,1,1-1.53A1.75,1.75,0,0,1,69,22.9l.1.08Z"/><path class="cls-3" d="M69.09,23.06l.76,1.71,0-.08-.1-.08a1.8,1.8,0,0,0-1.73.5,2.68,2.68,0,0,0-.74,1.32l-.75-1.68a2.56,2.56,0,0,1,1-1.53A1.75,1.75,0,0,1,69,22.9l.1.08Z"/><polygon points="72.84 28.62 73.59 30.3 73.59 29.83 72.87 28.09 72.84 28.62"/><polygon class="cls-3" points="72.87 28.09 73.59 29.83 73.59 30.3 72.84 28.62 72.87 28.09"/><path d="M73.71,24l.76,1.71-.08-.11a2,2,0,0,0-1.19-1,1.77,1.77,0,0,0-.94,0,.26.26,0,0,0-.09.09.23.23,0,0,0,0,.11v4.76l0,.08-.76-1.71,0-.08V23.1l0-.1.1-.1.14,0,.2,0H72l.16,0,.14,0,.16,0,.14,0,.12,0,.14.06.12.08.1.08.1.08.1.1.1.08.1.1.08.12.06.1.05.1Z"/><path class="cls-3" d="M73.71,24l.76,1.71-.08-.11a2,2,0,0,0-1.19-1,1.77,1.77,0,0,0-.94,0,.26.26,0,0,0-.09.09.23.23,0,0,0,0,.11v4.76l0,.08-.76-1.71,0-.08V23.1l0-.1.1-.1.14,0,.2,0H72l.16,0,.14,0,.16,0,.14,0,.12,0,.14.06.12.08.1.08.1.08.1.1.1.08.1.1.08.12.06.1.05.1Z"/><polygon points="72.84 28.62 73.59 30.33 68.46 30.33 67.71 28.65 72.84 28.62"/><polygon class="cls-3" points="72.84 28.62 73.59 30.33 68.46 30.33 67.71 28.65 72.84 28.62"/><polygon points="74.51 25.81 74.57 25.93 74.63 26.03 73.88 24.31 73.81 24.21 73.75 24.09 74.51 25.81"/><polygon class="cls-3" points="73.87 24.31 74.63 26.03 74.57 25.93 74.51 25.81 73.75 24.09 73.81 24.21 73.87 24.31"/><polygon points="74.67 24.75 75.42 26.45 75.23 24.09 74.48 22.35 74.67 24.75"/><polygon class="cls-3" points="74.48 22.35 75.23 24.09 75.42 26.45 74.67 24.75 74.48 22.35"/><polygon points="74.01 24.75 74.77 26.46 75.43 26.46 74.67 24.75 74.01 24.75"/><polygon class="cls-3" points="74.67 24.75 75.43 26.46 74.77 26.46 74.01 24.75 74.67 24.75"/><path d="M76.36,23l.76,1.71,0,0-.06,0-.08,0-.1,0h-.1l-.12,0h-.7l-.74-1.66a2.25,2.25,0,0,1,1.18.05"/><path class="cls-3" d="M76.36,23l.76,1.71,0,0-.06,0-.08,0-.1,0h-.1l-.12,0h-.7l-.74-1.66A2.25,2.25,0,0,1,76.36,23Z"/><polygon points="77.12 24.67 77.2 24.71 77.24 24.79 76.48 23.08 76.44 23 76.36 22.96 77.12 24.67"/><polygon class="cls-3" points="76.48 23.08 77.24 24.79 77.2 24.71 77.12 24.67 76.36 22.96 76.44 23 76.48 23.08"/><path d="M78.91,23l.76,1.71a.6.6,0,0,0-.12.24v4.54l0,.1,0,.08L78.83,28l0-.08,0-.1V23.24l0-.06,0-.06,0-.06Z"/><path class="cls-3" d="M78.91,23l.76,1.71a.6.6,0,0,0-.12.24v4.54l0,.1,0,.08L78.83,28l0-.08,0-.1V23.24l0-.06,0-.06,0-.06Z"/><polygon points="80.11 22.86 80.86 24.55 80.86 24.09 80.14 22.35 80.11 22.86"/><polygon class="cls-3" points="80.14 22.35 80.86 24.1 80.86 24.55 80.11 22.86 80.14 22.35"/><path d="M80.11,22.86l.75,1.71c-.21,0-.45,0-.63,0s-.5,0-.57.15L78.91,23c.07-.14.56-.14.7-.14Z"/><path class="cls-3" d="M80.11,22.86l.75,1.71c-.21,0-.45,0-.63,0s-.5,0-.57.15L78.91,23c.07-.14.56-.14.7-.14Z"/><polygon points="80.11 28.62 80.86 30.3 80.86 29.83 80.14 28.09 80.11 28.62"/><polygon class="cls-3" points="80.14 28.09 80.86 29.83 80.86 30.3 80.11 28.62 80.14 28.09"/><polygon points="80.11 28.62 80.86 30.33 75.92 30.33 75.18 28.66 80.11 28.62"/><polygon class="cls-3" points="80.11 28.62 80.86 30.33 75.92 30.33 75.18 28.66 80.11 28.62"/><path class="cls-2" d="M47,23.22h0a1.18,1.18,0,0,0-.87-.34H46v-.49h4.5v.49c-.61,0-1,.07-1,.19a.25.25,0,0,0,0,.09.18.18,0,0,0,.06.09l1.81,2,1.42-1.69,0-.07a.8.8,0,0,0,0-.15c0-.3-.42-.46-1.21-.46v-.49h3.73v.49a2.1,2.1,0,0,0-.91.22,2.39,2.39,0,0,0-.71.5l-2,2.3v1.85A.36.36,0,0,0,52,28a.59.59,0,0,0,.29.07l1,0v.49h-5v-.49h1a.63.63,0,0,0,.31-.09.31.31,0,0,0,.11-.22V26Zm10.68,4.5V23.33a1.72,1.72,0,0,0,0-.29c-.13-.18-1.12-.16-1.32-.16v-.45l8.48,0L65,24.66h-.67a2.45,2.45,0,0,0-1-1.28,4.25,4.25,0,0,0-2.27-.5,2.57,2.57,0,0,0-.77.09.38.38,0,0,0-.29.37v1.84h.25a2.07,2.07,0,0,0,1.15-.31A1.33,1.33,0,0,0,62,24h.67l0,3H62a1.75,1.75,0,0,0-.25-.68,1.25,1.25,0,0,0-.65-.49A3.81,3.81,0,0,0,60,25.63v2.09A1.6,1.6,0,0,0,60,28a.48.48,0,0,0,.31.1l.72,0a5,5,0,0,0,1.66-.2,2.25,2.25,0,0,0,1-.59,5.52,5.52,0,0,0,.72-1l.6,0L65,28.62H56.36v-.49a8.84,8.84,0,0,0,1.15,0,.45.45,0,0,0,.2-.38m11.41-4.65c0-.12-.2-.23-.5-.23a1.94,1.94,0,0,0-1.07.31,2.62,2.62,0,0,0-.7.75,3.14,3.14,0,0,0-.34.87H66l.15-2.38h8.38l.2,2.38H74a3.21,3.21,0,0,0-.36-.87,2.16,2.16,0,0,0-.7-.75,2.11,2.11,0,0,0-1.11-.31c-.31,0-.46.11-.46.27v4.66a.42.42,0,0,0,.14.29.51.51,0,0,0,.3.06h1v.49H67.72v-.49h.9A.76.76,0,0,0,69,28a.32.32,0,0,0,.09-.25Zm7.43,4.65V23.29c0-.14,0-.29-.16-.32a2,2,0,0,0-.76-.09h-.45v-.49h4.95v.49c-.32,0-.81,0-.95,0s-.36.12-.36.34v4.54a.28.28,0,0,0,.16.29,3.08,3.08,0,0,0,.7.05h.45v.49H75.18v-.49h.45a3.73,3.73,0,0,0,.72-.05.39.39,0,0,0,.2-.33Z"/><path class="cls-4" d="M47,23.22h0a1.18,1.18,0,0,0-.87-.34H46v-.49h4.5v.49c-.61,0-1,.07-1,.19a.25.25,0,0,0,0,.09.18.18,0,0,0,.06.09l1.81,2,1.42-1.69,0-.07a.8.8,0,0,0,0-.15c0-.3-.42-.46-1.21-.46v-.49h3.73v.49a2.1,2.1,0,0,0-.91.22,2.39,2.39,0,0,0-.71.5l-2,2.3v1.85A.36.36,0,0,0,52,28a.59.59,0,0,0,.29.07l1,0v.49h-5v-.49h1a.63.63,0,0,0,.31-.09.31.31,0,0,0,.11-.22V26Zm10.68,4.5V23.33a1.72,1.72,0,0,0,0-.29c-.13-.18-1.12-.16-1.32-.16v-.45l8.48,0L65,24.66h-.67a2.45,2.45,0,0,0-1-1.28,4.25,4.25,0,0,0-2.27-.5,2.57,2.57,0,0,0-.77.09.38.38,0,0,0-.29.37v1.84h.25a2.07,2.07,0,0,0,1.15-.31A1.33,1.33,0,0,0,62,24h.67l0,3H62a1.75,1.75,0,0,0-.25-.68,1.25,1.25,0,0,0-.65-.49A3.81,3.81,0,0,0,60,25.63v2.09A1.6,1.6,0,0,0,60,28a.48.48,0,0,0,.31.1l.72,0a5,5,0,0,0,1.66-.2,2.25,2.25,0,0,0,1-.59,5.52,5.52,0,0,0,.72-1l.6,0L65,28.62H56.36v-.49a8.84,8.84,0,0,0,1.15,0A.45.45,0,0,0,57.71,27.72Zm11.41-4.65c0-.12-.2-.23-.5-.23a1.94,1.94,0,0,0-1.07.31,2.62,2.62,0,0,0-.7.75,3.14,3.14,0,0,0-.34.87H66l.15-2.38h8.38l.2,2.38H74a3.21,3.21,0,0,0-.36-.87,2.16,2.16,0,0,0-.7-.75,2.11,2.11,0,0,0-1.11-.31c-.31,0-.46.11-.46.27v4.66a.42.42,0,0,0,.14.29.51.51,0,0,0,.3.06h1v.49H67.72v-.49h.9A.76.76,0,0,0,69,28a.32.32,0,0,0,.09-.25Zm7.43,4.65V23.29c0-.14,0-.29-.16-.32a2,2,0,0,0-.76-.09h-.45v-.49h4.95v.49c-.32,0-.81,0-.95,0s-.36.12-.36.34v4.54a.28.28,0,0,0,.16.29,3.08,3.08,0,0,0,.7.05h.45v.49H75.18v-.49h.45a3.73,3.73,0,0,0,.72-.05.39.39,0,0,0,.2-.33Z"/></svg>