<svg id="Capa_1" data-name="Capa 1" xmlns="http://www.w3.org/2000/svg" viewBox="0 0 135 46"><defs><style>.cls-1{fill:#fff;}.cls-2{fill:#f9be12;}.cls-3{fill:#364f8f;}.cls-4,.cls-5{fill:none;stroke:#364f8f;}.cls-4{stroke-width:0.32px;}.cls-5{stroke-linecap:round;stroke-width:1.11px;}</style></defs><path class="cls-1" d="M81.19,21.65H85c0-1.16,1.71-2.1,3.82-2.1s3.82.94,3.82,2.1-1.71,2.1-3.82,2.1l-5.06.05v2.37h5c2.12,0,3.85.94,3.85,2.1s-1.73,2.1-3.85,2.1-3.85-.94-3.85-2.1H81.19c0,2.17,3.38,4,7.56,4s7.56-1.76,7.56-3.93c0-1.4-1.42-2.64-3.55-3.33l-.1.08c2.19-.69,3.65-1.94,3.65-3.37,0-2.16-3.39-3.92-7.56-3.92s-7.56,1.76-7.56,3.92"/><path class="cls-1" d="M72.8,26.2c-2.1,0-3.79.94-3.79,2.09s1.69,2.1,3.79,2.1,3.79-.94,3.79-2.1-1.7-2.09-3.79-2.09m0-6.67c-2.1,0-3.79.93-3.79,2.09s1.69,2.1,3.79,2.1,3.79-.94,3.79-2.1-1.7-2.09-3.79-2.09M76.86,25c2.16.69,3.6,1.93,3.6,3.33,0,2.17-3.42,3.93-7.64,3.93s-7.63-1.76-7.63-3.93c0-1.41,1.46-2.66,3.65-3.35h-.11c-2.13-.7-3.54-1.92-3.54-3.32,0-2.17,3.42-3.92,7.63-3.92s7.64,1.75,7.64,3.92c0,1.43-1.48,2.68-3.7,3.37Z"/><path class="cls-2" d="M71.88,25.07c-2.09,0-3.79.94-3.79,2.09s1.7,2.1,3.79,2.1,3.8-.94,3.8-2.1-1.7-2.09-3.8-2.09m0-6.67c-2.09,0-3.79.94-3.79,2.09s1.7,2.1,3.79,2.1,3.8-.94,3.8-2.1S74,18.4,71.88,18.4M76,23.83c2.16.69,3.6,1.93,3.6,3.33,0,2.17-3.42,3.93-7.64,3.93s-7.64-1.76-7.64-3.93c0-1.41,1.46-2.66,3.65-3.35h-.11c-2.13-.7-3.54-1.92-3.54-3.32,0-2.17,3.42-3.92,7.64-3.92s7.64,1.75,7.64,3.92c0,1.43-1.48,2.68-3.7,3.37Z"/><path class="cls-3" d="M66,23.34a4.71,4.71,0,0,0,.7.61l.25-.12A8.41,8.41,0,0,1,66,23.34Z"/><path class="cls-3" d="M71.88,18.73c-1.87,0-3.46.81-3.46,1.76a1.28,1.28,0,0,0,.61,1c.14-1.09,1.76-1.95,3.77-1.95a5.78,5.78,0,0,1,2.39.48A4,4,0,0,0,71.88,18.73Z"/><path class="cls-3" d="M79.84,20.07a2,2,0,0,1,0,.42c0,1.34-1.1,2.54-3,3.34a7.81,7.81,0,0,1,1.19.63c1.46-.71,2.37-1.72,2.37-2.84A2.41,2.41,0,0,0,79.84,20.07Z"/><path class="cls-3" d="M79.88,27.16c0,2.39-3.5,4.26-8,4.26A11.89,11.89,0,0,1,66,30c1.24,1.3,3.84,2.19,6.84,2.19,4.22,0,7.64-1.76,7.64-3.93a2.41,2.41,0,0,0-.62-1.55A3,3,0,0,1,79.88,27.16Z"/><path class="cls-3" d="M69,28.15c.14-1.09,1.76-1.95,3.77-1.95a5.78,5.78,0,0,1,2.39.48,4,4,0,0,0-3.31-1.28c-1.87,0-3.46.81-3.46,1.76A1.28,1.28,0,0,0,69,28.15Z"/><path class="cls-2" d="M80.5,20.56h3.77c0-1.15,1.71-2.09,3.82-2.09s3.82.94,3.82,2.09-1.71,2.1-3.82,2.1L83,22.72v2.36h5c2.12,0,3.85.94,3.85,2.1s-1.73,2.1-3.85,2.1-3.85-.94-3.85-2.1H80.5c0,2.17,3.38,4,7.56,4s7.56-1.75,7.56-3.92c0-1.41-1.42-2.64-3.55-3.33L92,24c2.19-.69,3.65-1.94,3.65-3.36,0-2.17-3.39-3.93-7.56-3.93s-7.56,1.76-7.56,3.93"/><path class="cls-3" d="M85,21.65c0-1.16,1.71-2.1,3.82-2.1a5.81,5.81,0,0,1,2.69.61c-.37-.77-1.76-1.36-3.38-1.36-1.9,0-3.49.81-3.49,1.76v.34H81.35a1.93,1.93,0,0,0-.15.75Z"/><path class="cls-3" d="M81.19,21.7a.43.43,0,0,0,0-.05h0Z"/><path class="cls-3" d="M95.94,20.49s0,.09,0,.13c0,1.32-1.06,2.51-2.89,3.31a6.67,6.67,0,0,1,1,.55c1.37-.71,2.22-1.69,2.22-2.78A2.35,2.35,0,0,0,95.94,20.49Z"/><path class="cls-3" d="M96,27.24c0,2.38-3.47,4.25-7.89,4.25a11,11,0,0,1-6.3-1.73c1.13,1.45,3.83,2.49,7,2.49,4.17,0,7.56-1.76,7.56-3.93a2.25,2.25,0,0,0-.37-1.19S96,27.2,96,27.24Z"/><path class="cls-3" d="M88.06,25.41H83.72v.76h5a5.78,5.78,0,0,1,2.72.62C91.11,26,89.7,25.41,88.06,25.41Z"/><path class="cls-4" d="M101.3,15.82a2.07,2.07,0,1,1-2.07-2.07A2.07,2.07,0,0,1,101.3,15.82Z"/><path class="cls-3" d="M98.57,15.64h.67a.78.78,0,0,0,.37-.06.36.36,0,0,0,.2-.33.37.37,0,0,0-.18-.32.68.68,0,0,0-.32-.06h-.74Zm-.31-1h1a1.19,1.19,0,0,1,.46.06.6.6,0,0,1,.37.58c0,.38-.26.58-.66.63h0a1,1,0,0,1,.45.42l.4.64h-.39l-.3-.49c-.33-.52-.44-.54-.7-.54h-.36v1h-.31Z"/><path class="cls-3" d="M106.47,29.35a.38.38,0,0,1-.38-.37V25.17a.38.38,0,0,1,.75,0V29A.38.38,0,0,1,106.47,29.35Z"/><path class="cls-3" d="M106.47,27l-.15,0a.39.39,0,0,1-.19-.5,2.15,2.15,0,0,1,2.51-1.34.37.37,0,0,1,.27.46.38.38,0,0,1-.46.27,1.39,1.39,0,0,0-1.63.92A.37.37,0,0,1,106.47,27Z"/><path class="cls-3" d="M110.73,29.45a.38.38,0,0,1-.38-.38V23.56a.38.38,0,1,1,.75,0v5.51A.38.38,0,0,1,110.73,29.45Z"/><path class="cls-3" d="M26.7,30.39a.59.59,0,0,1-.59-.59V25.51H24.8a.59.59,0,0,1-.55-.61.59.59,0,0,1,.59-.57h1.27V23.08H24.85a.6.6,0,0,1,0-1.19h1.26V19.44a1.2,1.2,0,0,1,1.09-1.17h8.67a3.62,3.62,0,0,1,.19,7.24L39,29a.59.59,0,0,1-.91.76l-3.52-4.23H27.29V29.8A.59.59,0,0,1,26.7,30.39Zm8.38-6.06h.79a2.44,2.44,0,0,0,0-4.88H27.28v2.44h4.55a2.06,2.06,0,0,1,1.83.74Zm-7.79,0h6.25l-.82-1a1,1,0,0,0-.86-.28H27.28Zm13.89,4.84a1.85,1.85,0,0,1-1.85-1.86V26.18a.6.6,0,0,1,.06-.27A1.4,1.4,0,0,1,41,25h.9V21.82a.58.58,0,0,1,.59-.59.59.59,0,0,1,.59.59v3.12h3.59V21.75a.59.59,0,0,1,1.18,0v6.83a.59.59,0,1,1-1.18,0V26.13H43v1.18A1.86,1.86,0,0,1,41.18,29.17Zm-.67-2.88v1a.68.68,0,0,0,.67.68.69.69,0,0,0,.68-.68V26.13h-1c-.07,0-.33,0-.36.1S40.52,26.27,40.51,26.29Zm14,2.78h-3a1.37,1.37,0,0,1-1.38-1.39V25.91a.56.56,0,0,1-.18-.41.58.58,0,0,1,.18-.42V22.59a1.3,1.3,0,0,1,1.17-1.3h3.25a.6.6,0,1,1,0,1.19H51.34c-.05,0-.05.07-.05.12v2.32h3.14a.59.59,0,0,1,.59.59.6.6,0,0,1-.59.59H51.29v1.58c0,.22.13.22.2.22h3a.59.59,0,0,1,.59.59A.58.58,0,0,1,54.48,29.07Z"/><path class="cls-3" d="M51.31,26.09a1.16,1.16,0,1,1-1.16-1.16,1.16,1.16,0,0,1,1.16,1.16"/><path class="cls-5" d="M25.16,25a1.27,1.27,0,0,1,0-2.53"/><path class="cls-3" d="M58.06,29.13a.59.59,0,0,1-.59-.59V21.7a.59.59,0,0,1,.59-.59.6.6,0,0,1,.59.59v6.84A.6.6,0,0,1,58.06,29.13Z"/><path class="cls-3" d="M58,23.7h-.07a1.28,1.28,0,0,1-1.28-1.28A1.34,1.34,0,0,1,58,21.11"/><path class="cls-3" d="M61.07,29.37a.58.58,0,0,1-.59-.59v-7a.58.58,0,0,1,.59-.59.57.57,0,0,1,.32.09.63.63,0,0,1,.2.13L65.29,25V21.81a.6.6,0,0,1,1.19,0v4.35l.87.85a.6.6,0,0,1,0,.84.61.61,0,0,1-.84,0l0-.05v.11a.6.6,0,0,1-1.19,0V26.65l-3.63-3.56v5.69A.58.58,0,0,1,61.07,29.37Z"/><path class="cls-3" d="M67.77,27.94a1.24,1.24,0,1,1-1.24-1.23,1.24,1.24,0,0,1,1.24,1.23"/><path class="cls-3" d="M99.87,28.31a.45.45,0,0,1-.05-.19.41.41,0,0,1,.41-.41.4.4,0,0,1,.28.1v0a1.91,1.91,0,0,0,1.68.78c.86,0,1.55-.35,1.55-1s-.62-.86-1.89-1.16c-.81-.18-2-.46-2-1.67,0-.94.81-1.67,2.19-1.67a2.26,2.26,0,0,1,2.15,1l0,0a.46.46,0,0,1,0,.2.4.4,0,0,1-.75.18l0-.07a1.39,1.39,0,0,0-1.34-.58c-.54,0-1.44.15-1.44.9,0,.52.35.72,1.49,1s2.44.53,2.44,1.86c0,1-.88,1.81-2.3,1.81a2.51,2.51,0,0,1-2.37-1"/></svg>