<svg id="Capa_1" data-name="Capa 1" xmlns="http://www.w3.org/2000/svg" viewBox="0 0 135 46"><defs><style>.cls-1{fill:#194374;}</style></defs><path class="cls-1" d="M36.25,15.46a8.93,8.93,0,0,1,6.43-2.58,9.15,9.15,0,0,1,6.48,2.58Z"/><path class="cls-1" d="M34.43,17.73l.85-1.25a3.34,3.34,0,0,1,.66-.73H49.35s.39.42.72.84.81,1.13.81,1.13H47.11a2.62,2.62,0,0,0-1.7-1.26,6.9,6.9,0,0,0-2.42.41h-.54a11.73,11.73,0,0,0-2.36-.41,2.27,2.27,0,0,0-1.83,1.26Z"/><polygon class="cls-1" points="38.22 17.78 38.06 18.01 47.23 18.01 47.03 17.78 38.22 17.78"/><path class="cls-1" d="M34.37,18s-.16.27-.33.62a3.71,3.71,0,0,0-.29.82h3.72a5.22,5.22,0,0,1,.23-.68,7.56,7.56,0,0,1,.36-.76Z"/><path class="cls-1" d="M51,18s.16.27.33.62a3.71,3.71,0,0,1,.29.82H47.88a3.84,3.84,0,0,0-.23-.68c-.16-.4-.32-.76-.32-.76Z"/><path class="cls-1" d="M37.47,19.87H33.62l-.13.59a2.63,2.63,0,0,0-.07.58h4v-.62c0-.23,0-.55,0-.55"/><path class="cls-1" d="M47.91,19.87h3.85l.13.59A2.63,2.63,0,0,1,52,21H48v-.62a5.49,5.49,0,0,0,0-.55"/><polygon class="cls-1" points="37.57 19.41 37.5 19.61 37.5 19.87 47.85 19.87 47.85 19.61 47.82 19.41 37.57 19.41"/><polygon class="cls-1" points="37.53 21.73 33.29 21.73 33.29 22.12 33.29 22.58 37.6 22.58 37.53 21.73"/><polygon class="cls-1" points="47.78 21.73 52.02 21.73 52.02 22.12 52.02 22.58 47.72 22.58 47.78 21.73"/><polygon class="cls-1" points="37.47 21.11 37.53 21.7 47.78 21.73 47.88 21.11 37.47 21.11"/><path class="cls-1" d="M37.8,23.56H33.39l.07.32a2,2,0,0,0,.06.26h4.41Z"/><path class="cls-1" d="M47.55,23.56H52l-.07.32a2,2,0,0,1-.06.26H47.42Z"/><path class="cls-1" d="M37.63,22.61h10s0,.36-.06.49l-.1.42H37.86A3.43,3.43,0,0,1,37.7,23a4.21,4.21,0,0,1-.07-.42"/><polygon class="cls-1" points="37.99 24.18 47.36 24.18 47.03 25.29 38.25 25.29 37.99 24.18"/><polygon class="cls-1" points="33.85 25.32 34.01 25.81 38.38 25.81 38.22 25.32 33.85 25.32"/><polygon class="cls-1" points="47.1 25.32 46.93 25.81 51.31 25.81 51.47 25.32 47.1 25.32"/><path class="cls-1" d="M38.42,25.84h8.51a3.71,3.71,0,0,1-.16.62c-.13.39-.26.75-.26.75H43.15s-.13-1.14-.46-1.14-.46,1.11-.46,1.11H38.84a5.28,5.28,0,0,0-.23-.72,3.31,3.31,0,0,1-.19-.62"/><polygon class="cls-1" points="34.76 27.21 34.96 27.54 38.94 27.54 38.81 27.21 34.76 27.21"/><polygon class="cls-1" points="46.51 27.21 46.38 27.54 50.36 27.54 50.56 27.21 46.51 27.21"/><polygon class="cls-1" points="42.27 27.21 42.2 27.54 43.18 27.54 43.15 27.21 42.27 27.21"/><polygon class="cls-1" points="36.23 29.07 36.52 29.27 39.62 29.27 39.52 29.07 36.23 29.07"/><polygon class="cls-1" points="45.82 29.07 45.73 29.27 48.83 29.27 49.12 29.07 45.82 29.07"/><polygon class="cls-1" points="42.01 29.11 41.97 29.3 43.44 29.3 43.34 29.11 42.01 29.11"/><path class="cls-1" d="M39,27.6h3.2L42,29H39.56s-.16-.42-.3-.75S39,27.6,39,27.6"/><path class="cls-1" d="M46.38,27.6h-3.2L43.34,29h2.45s.16-.42.3-.75.29-.69.29-.69"/><path class="cls-1" d="M41.91,29.37H39.69s.13.32.42.91.49.88.49.88a1,1,0,0,0,.43.2.59.59,0,0,0,.55-.43c.1-.32.33-1.56.33-1.56"/><path class="cls-1" d="M43.47,29.37h2.22s-.13.32-.42.91a7.66,7.66,0,0,1-.49.88,1,1,0,0,1-.42.2.59.59,0,0,1-.56-.43c-.1-.32-.33-1.56-.33-1.56"/><path class="cls-1" d="M41.38,31.5a.2.2,0,0,1-.08-.17h2.75a.2.2,0,0,1-.08.17,7.42,7.42,0,0,1-1.29.1,7.59,7.59,0,0,1-1.3-.1"/><polygon class="cls-1" points="62.13 23.93 64.92 23.93 64.92 14.16 62.13 14.16 62.13 17.67 58.62 17.67 58.62 14.16 55.83 14.16 55.83 23.93 58.62 23.93 58.62 20.04 62.13 20.04 62.13 23.93"/><polygon class="cls-1" points="93.07 23.91 93.07 21.59 87.59 21.59 87.59 20.04 91.13 20.04 92.45 17.86 87.59 17.86 87.59 16.44 93.07 16.44 93.07 14.13 84.77 14.13 84.77 23.91 93.07 23.91"/><path class="cls-1" d="M82.87,16.44l1.41-2.3h-7.4c-1.52,0-1.69.69-1.69,1.64v6.09a1.79,1.79,0,0,0,1.92,2.05h5a1.7,1.7,0,0,0,1.94-2c0-1.08,0-4.15,0-4.15H79.48L78.2,20.12h3.16V21a.64.64,0,0,1-.66.62H77.91V16.44Z"/><path class="cls-1" d="M96.38,18.28V16.44H99a.93.93,0,0,1,.62.9,1,1,0,0,1-.71.94Zm3,5.64h3.79l-3.59-3.56a2.47,2.47,0,0,0,2.74-2.5V16.35c0-2-1.52-2.21-2.57-2.21h-6.1v9.78l2.81,0V20.45Z"/><path class="cls-1" d="M71.78,20.12H68.35V21a.64.64,0,0,0,.66.62h2.78Zm0-2.31V16.44h-5l-1.41-2.3h7.4c1.51,0,1.69.69,1.69,1.64v6.09a1.79,1.79,0,0,1-1.92,2.05h-5a1.7,1.7,0,0,1-1.94-2V17.81Z"/><path class="cls-1" d="M75.33,28.28v-1H76.5c.5,0,.7,0,.7.48s-.12.55-.7.55Zm-1.52,3.11h1.52V29.53l1.79,1.86h1.82l-1.88-1.93c1.33,0,1.64-.69,1.64-1.76,0-1.34-.56-1.7-1.88-1.7h-3Z"/><polygon class="cls-1" points="61.76 30.16 61.71 30.16 60.69 26 59.11 26 58.04 30.16 57.99 30.16 57.17 26 55.63 26 56.86 31.39 59.03 31.39 59.85 28.01 59.92 28.01 60.69 31.39 62.88 31.39 64.14 26 62.62 26 61.76 30.16"/><polygon class="cls-1" points="67.94 27.18 70.93 27.18 70.93 26 66.43 26 66.43 31.39 70.98 31.39 70.98 30.21 67.94 30.21 67.94 29.23 70.4 29.23 70.77 28.16 67.94 28.16 67.94 27.18"/><polygon class="cls-1" points="82.96 26 81.45 26 81.45 31.39 82.96 31.39 82.96 29.28 85.01 31.39 86.89 31.39 84.28 28.65 86.72 26 84.89 26 82.96 28.03 82.96 26"/><polygon class="cls-1" points="90.56 27.18 93.55 27.18 93.55 26 89.04 26 89.04 31.39 93.6 31.39 93.6 30.21 90.56 30.21 90.56 29.23 93.02 29.23 93.39 28.16 90.56 28.16 90.56 27.18"/><polygon class="cls-1" points="97.81 27.25 97.87 27.25 99.48 31.39 102.07 31.39 102.07 26 100.55 26 100.64 30.14 100.58 30.14 98.95 26 96.39 26 96.39 31.39 97.9 31.39 97.81 27.25"/></svg>