<svg xmlns="http://www.w3.org/2000/svg" xmlns:xlink="http://www.w3.org/1999/xlink" viewBox="0 0 76.6 16.59"><defs><style>.cls-1,.cls-5{fill:none;}.cls-2{fill:#e64860;}.cls-3{fill:#808791;}.cls-4{clip-path:url(#clip-path);}.cls-5{stroke:#e64860;stroke-miterlimit:10;stroke-width:0.4px;}</style><clipPath id="clip-path" transform="translate(1.4 1.29)"><path class="cls-1" d="M.2,7.26A7.06,7.06,0,1,0,7.26.2,7.06,7.06,0,0,0,.2,7.26"/></clipPath></defs><g id="Capa_2" data-name="Capa 2"><g id="Capa_1-2" data-name="Capa 1"><polygon class="cls-2" points="28.38 4.85 25.59 4.85 23.94 12.13 23.91 12.13 22.24 4.85 19.43 4.85 19.43 14.08 21.23 14.08 21.23 6.37 21.25 6.37 22.94 14.08 24.83 14.08 26.55 6.37 26.58 6.37 26.58 14.08 28.38 14.08 28.38 4.85"/><polygon class="cls-2" points="37.01 4.85 30.23 4.85 30.23 14.08 37.23 14.08 37.23 12.45 32.12 12.45 32.12 10.06 36.61 10.06 36.61 8.43 32.12 8.43 32.12 6.49 37.01 6.49 37.01 4.85"/><path class="cls-2" d="M36.92,10c0,1.14.58,3.08,3.95,3.08.81,0,3.64-.24,3.64-3,0-1.65-1.16-2.17-2.42-2.48L39.84,7c-.39-.09-1-.24-1-1s.88-1.11,1.61-1.11c1.68,0,1.84,1,1.89,1.39h1.85c0-1.13-.77-3-3.6-3-3,0-3.55,1.81-3.55,2.84,0,2,1.44,2.36,2.93,2.71l1,.23c1,.23,1.67.42,1.67,1.14,0,1-1,1.2-1.92,1.2-1.69,0-1.94-1-2-1.49Z" transform="translate(1.4 1.29)"/><polygon class="cls-2" points="51.29 6.49 54.08 6.49 54.08 4.85 46.58 4.85 46.58 6.49 49.36 6.49 49.36 14.08 51.29 14.08 51.29 6.49"/><path class="cls-2" d="M55.71,7.62V5.15h2.41c1.13,0,1.35.72,1.35,1.21,0,.92-.49,1.26-1.49,1.26Zm-1.89,5.17h1.89V9.18h2c1.43,0,1.51.49,1.51,1.75a6.48,6.48,0,0,0,.2,1.86h2.14v-.24c-.41-.16-.41-.49-.41-1.84,0-1.72-.41-2-1.17-2.34a2.2,2.2,0,0,0,1.42-2.2,2.6,2.6,0,0,0-2.9-2.61H53.82Z" transform="translate(1.4 1.29)"/><path class="cls-2" d="M66.75,5.64h0l1.14,3.65H65.57Zm-1.69,5.25h3.4l.59,1.9h2.1L67.9,3.56H65.67l-3.29,9.23h2Z" transform="translate(1.4 1.29)"/><path class="cls-2" d="M74.51,5.66a1.75,1.75,0,0,1-1.72,1.85h0a1.72,1.72,0,0,1-1.72-1.84,1.72,1.72,0,1,1,3.44,0m.69,0a2.42,2.42,0,0,0-4.83,0,2.42,2.42,0,0,0,4.83,0m-2.81-.24V4.8h.39c.21,0,.49,0,.49.29s-.14.33-.39.33Zm0,.44h.26L73.25,7h.65l-.66-1.13a.61.61,0,0,0,.62-.68c0-.59-.39-.78-1.06-.78h-1V7h.55Z" transform="translate(1.4 1.29)"/><path class="cls-3" d="M7.26.2A7.06,7.06,0,1,1,.2,7.26,7.05,7.05,0,0,1,7.26.2" transform="translate(1.4 1.29)"/><g class="cls-4"><polygon class="cls-2" points="0.09 16.25 6.93 16.59 6.93 8.3 10.73 12.1 16.08 6.41 13.21 1.84 10.78 4.7 5.9 0 0 0 0.09 16.25"/></g><path class="cls-5" d="M7.26.2A7.06,7.06,0,1,1,.2,7.26,7.05,7.05,0,0,1,7.26.2Z" transform="translate(1.4 1.29)"/></g></g></svg>