<svg xmlns="http://www.w3.org/2000/svg" viewBox="0 0 36.15 42.57"><defs><style>.cls-1{fill:#9bc338;}.cls-2{fill:#008541;}.cls-3{fill:#9dc438;}</style></defs><g id="Capa_2" data-name="Capa 2"><g id="Capa_1-2" data-name="Capa 1"><path class="cls-1" d="M29.65,37v5.45c-.37,0-.74,0-1.1,0a.54.54,0,0,1-.52-.24c-.67-.9-1.37-1.79-2.06-2.68a1.55,1.55,0,0,0-.15-.18v3.09H24.26V37H25a1.69,1.69,0,0,1,.64,0c.17.09.27.31.4.48l1.86,2.41.15.18V37Z"/><path class="cls-1" d="M16.9,37v5.44H15.28V40.34h-2v2.11H11.68V37h1.61v2.06h2V37Z"/><path class="cls-1" d="M35.83,38.66l-.87.09c-.21,0-.41,0-.61,0a.18.18,0,0,1-.16-.08.84.84,0,0,0-.81-.58,1,1,0,0,0-1,.44,1.8,1.8,0,0,0-.28.9,2.51,2.51,0,0,0,.15,1.18,1,1,0,0,0,.87.65,2.62,2.62,0,0,0,1.11-.08.18.18,0,0,0,.14-.2c0-.16,0-.33,0-.51h-1v-1.1h2.51s0,.1,0,.16v2.1c0,.07,0,.17-.1.2a4.29,4.29,0,0,1-3.31.58,2.58,2.58,0,0,1-2-2.4A3.16,3.16,0,0,1,30.93,38a2.53,2.53,0,0,1,1.76-1.07,3.11,3.11,0,0,1,2.19.38A2.23,2.23,0,0,1,35.83,38.66Z"/><path class="cls-1" d="M11.16,42.47H9.6a.18.18,0,0,1-.13-.11c-.11-.28-.21-.56-.31-.84A.16.16,0,0,0,9,41.38H7.18a.18.18,0,0,0-.19.14c-.1.28-.2.55-.31.82,0,0-.1.12-.15.12H5.05c0-.08,0-.14.07-.2l2-5.12A.19.19,0,0,1,7.38,37H8.84c.09,0,.15,0,.19.11q1.05,2.64,2.11,5.28ZM7.52,40.15H8.66L8.1,38.61Z"/><path class="cls-1" d="M3.81,42.45H2.16v-.29c0-.59,0-1.17,0-1.76a.57.57,0,0,0-.08-.28L.12,37.19,0,37H1.62a.3.3,0,0,1,.3.16c.35.57.72,1.13,1.09,1.72a1.63,1.63,0,0,0,.11-.17c.34-.52.67-1.05,1-1.58A.25.25,0,0,1,4.36,37H6a.94.94,0,0,1-.11.18c-.65,1-1.31,2-1.95,2.93a.6.6,0,0,0-.1.31Z"/><path class="cls-1" d="M22.91,40.86a4,4,0,0,0-.86-1.21l-.25-.22a2.37,2.37,0,0,1-.15,1.23,1.21,1.21,0,0,1-2.16,0,2.47,2.47,0,0,1-.21-.88,1.81,1.81,0,0,1,.22-1,1.16,1.16,0,0,1,1.06-.67,1.38,1.38,0,0,1,.52.1h0a.31.31,0,0,1,.1.05h0a3.42,3.42,0,0,1,1.25,1,4.73,4.73,0,0,1,.78,1.45l0,.09a3.38,3.38,0,0,0,.18-1.07,2.68,2.68,0,0,0-2.54-2.83,3.13,3.13,0,0,0-2.09.46,2.7,2.7,0,0,0-1.17,2.41,2.75,2.75,0,0,0,.73,1.93,2.7,2.7,0,0,0,1.82.84,3.09,3.09,0,0,0,2.29-.61,2.39,2.39,0,0,0,.56-.68C23,41.13,23,41,22.91,40.86Z"/><ellipse class="cls-2" cx="19.95" cy="19.34" rx="9.72" ry="5.65"/><path class="cls-2" d="M36.15,17.26c0,9.53-8.09,17.26-18.08,17.26S0,26.79,0,17.26,8.09,0,18.07,0,36.15,7.73,36.15,17.26ZM18,28.59c7.91,0,14.32-3.68,14.32-8.21s-6.41-8.2-14.32-8.2S3.64,15.85,3.64,20.38,10.05,28.59,18,28.59ZM9.47,7.67l1.31,2.7s.46.5.51-.16,0-1.36.34-1.4.82.94.89,1.09.55.33.55-.41V6.79s-.14-1-2.18-.49S9.47,7.67,9.47,7.67Z"/><path class="cls-3" d="M18,11.64c.4,0,.79,0,1.18,0l1.38-6A.54.54,0,0,0,20,5H17a.54.54,0,0,0-.53.42L15,11.82A23.89,23.89,0,0,1,18,11.64Z"/><path class="cls-3" d="M14.17,15.41l-1.58,6.87a.54.54,0,0,0,.52.66h3a.54.54,0,0,0,.53-.42l1.89-8.21A13.81,13.81,0,0,0,14.17,15.41Z"/><path class="cls-3" d="M21.45,14.31,20,20.58a.55.55,0,0,0,.53.66h3a.56.56,0,0,0,.53-.42l1.28-5.58A14.06,14.06,0,0,0,21.45,14.31Z"/><path class="cls-3" d="M25.85,13l2.08-9a.54.54,0,0,0-.52-.66h-3a.53.53,0,0,0-.52.42L22,12A20.18,20.18,0,0,1,25.85,13Z"/></g></g></svg>