<?xml version="1.0" encoding="utf-8"?>
<!-- Generator: Adobe Illustrator 25.4.1, SVG Export Plug-In . SVG Version: 6.00 Build 0)  -->
<svg version="1.1" id="Capa_1" xmlns="http://www.w3.org/2000/svg" xmlns:xlink="http://www.w3.org/1999/xlink" x="0px" y="0px"
	 viewBox="0 0 135 46" style="enable-background:new 0 0 135 46;" xml:space="preserve">
<style type="text/css">
	.st0{fill:#38444E;}
	.st1{fill:#E64860;}
	.st2{fill:#808791;}
	.st3{clip-path:url(#SVGID_00000060012878042219801770000004550288372857793974_);fill:#E64860;}
	.st4{fill:none;stroke:#E64860;stroke-width:0.6287;stroke-miterlimit:10;}
	.st5{fill:#194374;}
	.st6{fill:#00659B;}
	.st7{fill:#DC0D6E;}
	.st8{fill:#004D80;}
	.st9{fill:#7EA9D6;}
	.st10{fill:#B6D4EF;}
	.st11{fill:#058DC7;}
	.st12{fill:#00559F;}
	.st13{fill:#134A83;}
	.st14{fill:#B51975;}
	.st15{fill:#2497D0;}
	.st16{fill:#D80F3B;}
	.st17{fill:#9BC338;}
	.st18{fill:#008541;}
	.st19{fill:#9DC438;}
	
		.st20{clip-path:url(#SVGID_00000024708735472324746980000017496324775767907977_);fill:url(#SVGID_00000013897298605096157230000016778967866725858452_);}
	
		.st21{clip-path:url(#SVGID_00000083065059865239631210000002120114550010268600_);fill:url(#SVGID_00000124131536029637647530000004612712061946481079_);}
	
		.st22{clip-path:url(#SVGID_00000171701137664385148640000004169742324971973517_);fill:url(#SVGID_00000146497201682919233740000014294352719243483831_);}
	.st23{fill:#F9BE12;}
	.st24{clip-path:url(#SVGID_00000096737524096042248160000010564652897907404730_);}
	.st25{clip-path:url(#SVGID_00000102523478057504564850000012157949028110861219_);}
	.st26{clip-path:url(#SVGID_00000147928512054505958190000012610092232056813483_);}
	.st27{clip-path:url(#SVGID_00000095330402646036188250000015837219273171016586_);}
	.st28{clip-path:url(#SVGID_00000018934600798895853250000001146606702223604366_);}
	.st29{clip-path:url(#SVGID_00000034089034536791856700000002379798998416747440_);}
	.st30{clip-path:url(#SVGID_00000064321186787461593400000008388656214854342335_);}
	.st31{clip-path:url(#SVGID_00000024717255187398573570000004524751831427596417_);}
	.st32{clip-path:url(#SVGID_00000119803421444783503850000012482882479539408312_);}
	
		.st33{clip-path:url(#SVGID_00000041259294780311873120000000770180347156273027_);fill:url(#SVGID_00000041280609586137658400000011755457275148639123_);}
	.st34{clip-path:url(#SVGID_00000030472715236669812210000001176595940501116598_);}
	.st35{clip-path:url(#SVGID_00000031900282934474431390000000556851613018613127_);}
	.st36{clip-path:url(#SVGID_00000161590996296710427050000007280363463077114520_);}
	.st37{clip-path:url(#SVGID_00000132050585118341864490000013041820647180362631_);}
	.st38{clip-path:url(#SVGID_00000144314022717130554160000010373336690951950493_);}
	.st39{clip-path:url(#SVGID_00000073698471875835737700000016271992382504380852_);}
	.st40{fill:#009BDA;}
	.st41{fill:#CE1620;}
	.st42{fill:#171915;}
	.st43{fill:#E30750;}
	.st44{fill:#5775B5;}
	.st45{fill:none;stroke:#5775B5;stroke-width:0.5802;}
	.st46{fill:#5A595C;}
	.st47{fill:#FFFFFF;}
	.st48{fill:#364F8F;}
	.st49{fill:none;stroke:#364F8F;stroke-width:0.3873;}
	.st50{fill:none;stroke:#364F8F;stroke-width:1.3345;stroke-linecap:round;}
	.st51{fill:#656362;}
	.st52{fill:#C8D44A;}
	.st53{fill:#E42E38;}
	.st54{fill:none;stroke:#FFFFFF;stroke-width:0.4523;stroke-miterlimit:10;}
	.st55{fill:#51B054;}
	.st56{fill:#0079BB;}
	.st57{fill:#086EB0;}
	.st58{fill:#99A4AB;}
	.st59{fill:#B2A7A5;}
	.st60{fill:#931340;}
	.st61{fill:#DFDCD9;}
	.st62{fill:#27A1D7;}
	.st63{fill:none;stroke:#000000;stroke-width:0.1494;stroke-linejoin:bevel;stroke-miterlimit:22.926;}
	.st64{fill:none;stroke:#000000;stroke-width:0.1585;stroke-miterlimit:22.926;}
	.st65{fill:#EA3D36;stroke:#ED1C24;stroke-width:0.1417;stroke-linejoin:round;}
	.st66{fill:#EA3D36;}
</style>
<g>
	<path class="st15" d="M11.2,20.5v-1h1.5v-1.6c0-0.8,0.2-1.5,0.5-2c0.3-0.5,0.9-0.7,1.7-0.7c0.2,0,0.4,0,0.5,0c0.2,0,0.3,0,0.5,0.1
		v1.1c-0.3-0.1-0.5-0.1-0.7-0.1c-0.3,0-0.5,0.1-0.7,0.2c-0.2,0.1-0.3,0.3-0.4,0.5c-0.1,0.2-0.1,0.4-0.2,0.6c0,0.2,0,0.5,0,0.7v1.3h2
		v1h-2v9.4h-1.2v-9.4H11.2z"/>
	<path class="st15" d="M19.1,29.9h-1.2V19.5h1.2v1.9h0c0.3-0.8,0.8-1.4,1.3-1.7c0.5-0.3,1.2-0.5,2.1-0.5v1.3c-0.7,0-1.2,0.1-1.7,0.3
		c-0.4,0.2-0.8,0.5-1.1,0.9c-0.3,0.4-0.4,0.8-0.5,1.4c-0.1,0.5-0.2,1.1-0.2,1.6V29.9z"/>
	<path class="st15" d="M29.3,23.9c0.2,0,0.5-0.1,0.8-0.1c0.3-0.1,0.6-0.1,0.8-0.2c0.2-0.1,0.3-0.3,0.4-0.5c0-0.2,0.1-0.4,0.1-0.6
		c0-0.6-0.2-1.1-0.6-1.5c-0.4-0.4-1.1-0.6-2-0.6c-0.4,0-0.8,0-1.1,0.1c-0.3,0.1-0.7,0.2-0.9,0.4c-0.3,0.2-0.5,0.4-0.6,0.7
		c-0.2,0.3-0.3,0.7-0.3,1.1h-1.2c0-0.6,0.2-1.1,0.4-1.6c0.2-0.4,0.5-0.8,0.9-1.1c0.4-0.3,0.8-0.5,1.3-0.6c0.5-0.1,1-0.2,1.6-0.2
		c0.5,0,1,0.1,1.5,0.2c0.5,0.1,0.9,0.3,1.2,0.5c0.3,0.2,0.6,0.6,0.8,1c0.2,0.4,0.3,0.9,0.3,1.5v5.6c0,0.5,0.1,0.8,0.3,0.9
		c0.2,0.1,0.5,0.1,1-0.1v0.9c-0.1,0-0.2,0.1-0.4,0.1c-0.2,0.1-0.4,0.1-0.5,0.1c-0.2,0-0.4,0-0.5-0.1c-0.2,0-0.4-0.1-0.5-0.2
		c-0.1-0.1-0.2-0.2-0.3-0.4c-0.1-0.1-0.1-0.3-0.2-0.5c0-0.2,0-0.3,0-0.5c-0.5,0.6-1.1,1-1.7,1.3c-0.7,0.3-1.4,0.4-2.1,0.4
		c-0.5,0-0.9-0.1-1.3-0.2c-0.4-0.1-0.8-0.3-1.1-0.6c-0.3-0.3-0.6-0.6-0.8-0.9c-0.2-0.4-0.3-0.8-0.3-1.3c0-1.8,1.2-2.8,3.6-3.1
		L29.3,23.9z M31.3,24.5c-0.5,0.2-1,0.4-1.5,0.4c-0.5,0.1-1,0.1-1.6,0.2c-0.9,0.1-1.6,0.3-2.2,0.6c-0.5,0.3-0.8,0.9-0.8,1.6
		c0,0.3,0.1,0.6,0.2,0.8c0.1,0.2,0.3,0.4,0.5,0.6c0.2,0.2,0.4,0.3,0.7,0.3c0.3,0.1,0.5,0.1,0.8,0.1c0.5,0,0.9-0.1,1.4-0.2
		c0.5-0.1,0.9-0.3,1.2-0.6c0.4-0.2,0.6-0.6,0.9-0.9c0.2-0.4,0.3-0.8,0.3-1.4V24.5z"/>
	<path class="st15" d="M36.8,29.9h-1.2V19.5h1.2V21c0.5-0.5,1-0.9,1.5-1.2c0.5-0.3,1.1-0.5,1.9-0.5c0.6,0,1.2,0.1,1.8,0.3
		c0.5,0.2,1,0.6,1.4,1.2c0.3,0.4,0.4,0.8,0.4,1.1c0,0.4,0.1,0.8,0.1,1.2v6.8h-1.2v-6.8c0-0.9-0.2-1.6-0.6-2.1
		c-0.4-0.5-1.1-0.7-2.1-0.7c-0.4,0-0.7,0.1-1,0.2c-0.3,0.1-0.6,0.3-0.8,0.4c-0.2,0.2-0.5,0.4-0.6,0.6c-0.2,0.2-0.3,0.5-0.4,0.8
		c-0.1,0.3-0.2,0.7-0.2,1c0,0.3,0,0.6,0,1V29.9z"/>
	<path class="st15" d="M46.7,29.9V15.5h1.2v9l5.1-4.9h1.6l-3.9,3.7l4.3,6.6h-1.3l-3.9-5.8l-2,1.9v3.9H46.7z"/>
	<path class="st16" d="M62.1,28.4c0,0.3-0.1,0.6-0.2,0.9c-0.1,0.3-0.3,0.6-0.5,0.8c-0.2,0.2-0.5,0.4-0.8,0.5
		c-0.3,0.1-0.6,0.2-0.9,0.2c-0.3,0-0.6-0.1-0.9-0.2c-0.3-0.1-0.6-0.3-0.8-0.5c-0.2-0.2-0.4-0.5-0.5-0.8c-0.1-0.3-0.2-0.6-0.2-0.9
		c0-0.3,0.1-0.7,0.2-0.9c0.1-0.3,0.3-0.6,0.5-0.8c0.2-0.2,0.5-0.4,0.8-0.5c0.3-0.1,0.6-0.2,0.9-0.2c0.3,0,0.7,0.1,0.9,0.2
		c0.3,0.1,0.6,0.3,0.8,0.5c0.2,0.2,0.4,0.5,0.5,0.8C62.1,27.7,62.1,28,62.1,28.4z"/>
	<path class="st15" d="M70.7,19.4c0.5,0.3,0.9,0.7,1.2,1.2v-5.1h2.8v14.4H72v-1.5c-0.4,0.6-0.8,1.1-1.4,1.4
		c-0.5,0.3-1.1,0.4-1.9,0.4c-1.2,0-2.3-0.5-3.1-1.5c-0.9-1-1.3-2.3-1.3-3.9c0-1.8,0.4-3.2,1.3-4.3c0.8-1,2-1.6,3.4-1.6
		C69.6,19,70.2,19.1,70.7,19.4z M71.4,27c0.4-0.6,0.6-1.3,0.6-2.3c0-1.3-0.3-2.2-1-2.8c-0.4-0.3-0.9-0.5-1.4-0.5
		c-0.8,0-1.4,0.3-1.8,0.9c-0.4,0.6-0.6,1.4-0.6,2.3c0,1,0.2,1.8,0.6,2.4c0.4,0.6,1,0.9,1.8,0.9C70.4,27.9,71,27.6,71.4,27z"/>
	<path class="st15" d="M84.7,19.5c0.7,0.3,1.4,0.9,1.8,1.6c0.4,0.6,0.7,1.4,0.8,2.2c0.1,0.5,0.1,1.2,0.1,2.1h-7.8
		c0,1.1,0.4,1.8,1.1,2.2c0.4,0.3,0.9,0.4,1.5,0.4c0.6,0,1.1-0.2,1.5-0.5c0.2-0.2,0.4-0.4,0.6-0.7h2.8c-0.1,0.6-0.4,1.3-1,1.9
		c-1,1-2.3,1.6-4,1.6c-1.4,0-2.7-0.4-3.7-1.3c-1.1-0.9-1.6-2.3-1.6-4.3c0-1.8,0.5-3.3,1.5-4.2c1-1,2.2-1.5,3.8-1.5
		C83.1,19,84,19.1,84.7,19.5z M80.6,21.9c-0.4,0.4-0.6,1-0.7,1.6h4.8c-0.1-0.7-0.3-1.3-0.7-1.7c-0.4-0.4-1-0.6-1.7-0.6
		C81.5,21.3,80.9,21.5,80.6,21.9z"/>
	<path class="st15" d="M98,19.9c0.7,0.6,1,1.5,1,2.9v7.2h-2.9v-6.5c0-0.6-0.1-1-0.2-1.3c-0.3-0.5-0.8-0.8-1.6-0.8
		c-0.9,0-1.6,0.4-1.9,1.2c-0.2,0.4-0.3,1-0.3,1.6v5.8h-2.8V19.3h2.7v1.6c0.4-0.5,0.7-0.9,1-1.2c0.6-0.4,1.3-0.6,2.2-0.6
		C96.4,19,97.3,19.3,98,19.9z"/>
	<path class="st15" d="M101,21.3v-2h1.5v-3h2.8v3h1.7v2h-1.7V27c0,0.4,0.1,0.7,0.2,0.8c0.1,0.1,0.4,0.2,1,0.2c0.1,0,0.2,0,0.3,0
		c0.1,0,0.2,0,0.3,0V30l-1.3,0c-1.3,0-2.2-0.2-2.7-0.7c-0.3-0.3-0.5-0.8-0.5-1.5v-6.6H101z"/>
	<path class="st15" d="M113.5,23.4c0.5-0.1,0.9-0.1,1.1-0.2c0.4-0.2,0.6-0.4,0.6-0.8c0-0.4-0.2-0.7-0.5-0.9
		c-0.3-0.2-0.8-0.2-1.4-0.2c-0.7,0-1.1,0.2-1.4,0.5c-0.2,0.2-0.3,0.6-0.4,1h-2.7c0.1-0.9,0.3-1.7,0.8-2.3c0.7-0.9,2-1.4,3.8-1.4
		c1.2,0,2.2,0.2,3.1,0.7c0.9,0.5,1.4,1.3,1.4,2.6v4.9c0,0.3,0,0.7,0,1.2c0,0.4,0.1,0.6,0.2,0.7c0.1,0.1,0.2,0.2,0.4,0.3v0.4h-3
		c-0.1-0.2-0.1-0.4-0.2-0.6c0-0.2-0.1-0.4-0.1-0.6c-0.4,0.4-0.8,0.8-1.3,1.1c-0.6,0.3-1.3,0.5-2,0.5c-1,0-1.8-0.3-2.4-0.8
		c-0.6-0.6-0.9-1.3-0.9-2.3c0-1.3,0.5-2.3,1.5-2.8c0.6-0.3,1.4-0.5,2.5-0.7L113.5,23.4z M115.2,24.7c-0.2,0.1-0.4,0.2-0.5,0.3
		c-0.2,0.1-0.4,0.1-0.7,0.2l-0.6,0.1c-0.6,0.1-1,0.2-1.3,0.4c-0.4,0.3-0.7,0.6-0.7,1.2c0,0.5,0.1,0.8,0.4,1c0.3,0.2,0.6,0.3,1,0.3
		c0.6,0,1.2-0.2,1.7-0.5c0.5-0.4,0.8-1,0.8-1.9V24.7z"/>
	<path class="st15" d="M123.8,29.9H121V15.5h2.8V29.9z"/>
</g>
</svg>
