<?xml version="1.0" encoding="utf-8"?>
<!-- Generator: Adobe Illustrator 25.4.1, SVG Export Plug-In . SVG Version: 6.00 Build 0)  -->
<svg version="1.1" id="Capa_1" xmlns="http://www.w3.org/2000/svg" xmlns:xlink="http://www.w3.org/1999/xlink" x="0px" y="0px"
	 viewBox="0 0 135 46" style="enable-background:new 0 0 135 46;" xml:space="preserve">
<style type="text/css">
	.st0{fill:#38444E;}
	.st1{fill:#E64860;}
	.st2{fill:#808791;}
	.st3{clip-path:url(#SVGID_00000178174374571263215910000010996729042204412333_);fill:#E64860;}
	.st4{fill:none;stroke:#E64860;stroke-width:0.6287;stroke-miterlimit:10;}
	.st5{fill:#194374;}
	.st6{fill:#00659B;}
	.st7{fill:#DC0D6E;}
	.st8{fill:#004D80;}
	.st9{fill:#7EA9D6;}
	.st10{fill:#B6D4EF;}
	.st11{fill:#058DC7;}
	.st12{fill:#00559F;}
	.st13{fill:#134A83;}
	.st14{fill:#B51975;}
	.st15{fill:#2497D0;}
	.st16{fill:#D80F3B;}
	.st17{fill:#9BC338;}
	.st18{fill:#008541;}
	.st19{fill:#9DC438;}
	
		.st20{clip-path:url(#SVGID_00000146488967762521677430000001449470109336015772_);fill:url(#SVGID_00000098197359301315104260000008393555874244925093_);}
	
		.st21{clip-path:url(#SVGID_00000124872655820230113540000002300004597283539072_);fill:url(#SVGID_00000081615512007197820300000009737762547545025430_);}
	
		.st22{clip-path:url(#SVGID_00000001631787032992340520000014983443877209243014_);fill:url(#SVGID_00000138545229199160725920000003768403649286011291_);}
	.st23{fill:#F9BE12;}
	.st24{clip-path:url(#SVGID_00000085956937672598427330000001501534774277766539_);}
	.st25{clip-path:url(#SVGID_00000036947132911534868910000001983772563671635339_);}
	.st26{clip-path:url(#SVGID_00000094588789145924046490000010104275543083329961_);}
	.st27{clip-path:url(#SVGID_00000136410703357922911950000012940164441319427755_);}
	.st28{clip-path:url(#SVGID_00000166666119131765871490000010715850323335651715_);}
	.st29{clip-path:url(#SVGID_00000178894127779208172600000009588096131651256456_);}
	.st30{clip-path:url(#SVGID_00000136411677863209953740000011589592986492819877_);}
	.st31{clip-path:url(#SVGID_00000142881885143805148730000013086266083070136763_);}
	.st32{clip-path:url(#SVGID_00000002357320336788986270000016695066411742003625_);}
	
		.st33{clip-path:url(#SVGID_00000013884437073658999680000001015616167409498499_);fill:url(#SVGID_00000122000778198466001570000003662181731866532762_);}
	.st34{clip-path:url(#SVGID_00000153686845892094270140000006205931975568214410_);}
	.st35{clip-path:url(#SVGID_00000035531061910767201000000009696051629836580787_);}
	.st36{clip-path:url(#SVGID_00000042703237749335271600000008335796304153323194_);}
	.st37{clip-path:url(#SVGID_00000059284759014103161820000015202521527771491774_);}
	.st38{clip-path:url(#SVGID_00000181805237442595304560000007885390920715378819_);}
	.st39{clip-path:url(#SVGID_00000142135707394296828140000009956162135874156723_);}
	.st40{fill:#009BDA;}
	.st41{fill:#CE1620;}
	.st42{fill:#171915;}
	.st43{fill:#E30750;}
	.st44{fill:#5775B5;}
	.st45{fill:none;stroke:#5775B5;stroke-width:0.5802;}
	.st46{fill:#5A595C;}
	.st47{fill:#FFFFFF;}
	.st48{fill:#364F8F;}
	.st49{fill:none;stroke:#364F8F;stroke-width:0.3873;}
	.st50{fill:none;stroke:#364F8F;stroke-width:1.3345;stroke-linecap:round;}
	.st51{fill:#656362;}
	.st52{fill:#C8D44A;}
	.st53{fill:#E42E38;}
	.st54{fill:none;stroke:#FFFFFF;stroke-width:0.4523;stroke-miterlimit:10;}
	.st55{fill:#51B054;}
	.st56{fill:#0079BB;}
	.st57{fill:#086EB0;}
	.st58{fill:#99A4AB;}
	.st59{fill:#B2A7A5;}
	.st60{fill:#931340;}
	.st61{fill:#DFDCD9;}
	.st62{fill:#27A1D7;}
	.st63{fill:none;stroke:#000000;stroke-width:0.1494;stroke-linejoin:bevel;stroke-miterlimit:22.926;}
	.st64{fill:none;stroke:#000000;stroke-width:0.1585;stroke-miterlimit:22.926;}
	.st65{fill:#EA3D36;stroke:#ED1C24;stroke-width:0.1417;stroke-linejoin:round;}
	.st66{fill:#EA3D36;}
</style>
<g>
	<path class="st9" d="M41.2,23.4c0-0.3,0-0.7,0-1C41.3,15,36,8.9,29,7.6C34.2,12.3,39.6,20.8,41.2,23.4"/>
	<path class="st10" d="M22.2,36.8c1.3,0.4,2.6,0.5,4,0.5c5.7,0,10.6-3.2,13.2-7.8C34.1,33,25.9,35.7,22.2,36.8"/>
	<path class="st11" d="M16.9,28.7c-0.3,0-2-0.3-2-2.7c0-2.4,1.4-4.8,1.4-4.8c0.4-0.6,0.3,0,0.3,0.2c-0.3,3.1,1.4,4.6,1.4,5.9
		C18,28.5,17.2,28.7,16.9,28.7 M24.7,13.6c-1.6,0.9-6.3,4-7.3,4.7c-1,0.7-1.6,0.9-0.2-1.3c1.2-1.8,4.7-6.8,7.5-9.6
		c-7.6,0.8-13.5,7.2-13.5,14.9c0,4.4,1.9,8.4,5,11.2c2.3-4.5,9.1-17.9,9.6-19C26.5,13.2,26.3,12.7,24.7,13.6"/>
	<path class="st12" d="M122.7,29.2h1v-1h-1V29.2z M119.2,29.2h2.9v-1h-1.8v-4.8h-1.1V29.2z M117.1,29.2h1v-1h-1V29.2z M112.5,27.5
		c0,1,0.9,1.8,1.9,1.8c1,0,1.9-0.8,1.9-1.8c0-0.6-0.2-1-0.6-1.3c-0.3-0.3-0.7-0.4-1.1-0.5c-0.3-0.1-0.7-0.3-0.7-0.7
		c0-0.3,0.2-0.6,0.6-0.6c0.3,0,0.6,0.2,0.7,0.6h1.1c0-0.9-0.8-1.6-1.7-1.6c-0.9,0-1.7,0.7-1.7,1.6c0,0.4,0.2,0.8,0.5,1.1
		c0.3,0.3,0.6,0.4,1,0.5c0.5,0.2,1,0.3,1,1c0,0.4-0.3,0.7-0.8,0.7c-0.4,0-0.8-0.3-0.8-0.7H112.5z M105.9,29.2h1v-2
		c0-0.3,0-0.8,0.2-1.1c0.1-0.2,0.4-0.4,0.7-0.4c0.3,0,0.5,0.1,0.7,0.4c0.2,0.3,0.2,0.7,0.2,1.1v2.1h1v-2.3c0-0.6,0-1.1-0.3-1.6
		c0,0-0.1-0.1-0.1-0.1c-0.3-0.3-0.8-0.5-1.2-0.5c-0.5,0-0.9,0.2-1.2,0.5h0v-0.4h-1V29.2z M101.8,26.5c0.2-0.5,0.7-0.8,1.2-0.8
		c0.5,0,1,0.3,1.2,0.8H101.8z M105.2,27.5c0-0.2,0.1-0.3,0.1-0.5c0-1.2-1-2.3-2.2-2.3c-1.3,0-2.3,1.1-2.3,2.3c0,1.3,1,2.3,2.3,2.3
		c0.9,0,1.8-0.6,2.1-1.4h-1.2c-0.2,0.2-0.6,0.4-1,0.4c-0.5,0-1-0.3-1.1-0.8H105.2z M98,25.7c0.7,0,1.2,0.6,1.2,1.3
		c0,0.7-0.5,1.3-1.2,1.3c-0.8,0-1.3-0.6-1.3-1.4C96.7,26.2,97.3,25.7,98,25.7 M95.7,29.2h1v-0.6h0c0.3,0.5,0.9,0.7,1.5,0.7
		c0.6,0,1.2-0.3,1.6-0.7c0.3-0.4,0.6-1.1,0.6-1.6c0-1.2-0.9-2.3-2.2-2.3c-0.5,0-1.1,0.2-1.3,0.6h0v-1.9h-1V29.2z M93.2,29.2h1v-2.3
		c0-0.4,0-0.7,0.3-0.9c0.2-0.1,0.4-0.2,0.6-0.2v-1h-0.1c-0.4,0-0.7,0.2-0.9,0.5h0v-0.4h-0.9V29.2z M91.4,27c0,0.7-0.5,1.3-1.3,1.3
		c-0.7,0-1.3-0.5-1.3-1.3c0-0.8,0.5-1.3,1.3-1.3C90.9,25.7,91.4,26.3,91.4,27 M92.4,24.8h-1v0.6c-0.3-0.5-0.9-0.8-1.5-0.8
		c-0.6,0-1.2,0.2-1.6,0.8c-0.4,0.5-0.6,1-0.6,1.6c0,0.6,0.2,1.2,0.5,1.6c0.4,0.4,0.9,0.7,1.6,0.7c0.5,0,1.2-0.3,1.5-0.7h0v0.6h1
		V24.8z M86.1,29.2h1v-5.8h-1V29.2z M84.3,27.6c-0.4,0.4-0.9,0.7-1.5,0.7c-1,0-1.9-0.9-1.9-2c0-1.1,0.8-2,1.9-2
		c0.6,0,1.2,0.3,1.5,0.7h1.2c-0.4-1.1-1.6-1.8-2.8-1.8c-1.6,0-3,1.4-3,3c0,1.7,1.3,3,3,3c1.1,0,2.3-0.7,2.7-1.7H84.3z M74.5,27.9
		c0,0.7,0.6,1.4,1.3,1.4c0.8,0,1.4-0.6,1.4-1.4c0-0.8-0.6-1.1-1.2-1.3c-0.4-0.1-0.8-0.2-0.8-0.7c0-0.3,0.3-0.6,0.6-0.6
		c0.4,0,0.7,0.2,0.7,0.6h0.6c0-0.6-0.5-1.2-1.2-1.2c-0.7,0-1.2,0.5-1.2,1.2c0,0.3,0.1,0.6,0.3,0.8c0.2,0.2,0.5,0.3,0.8,0.4
		c0.4,0.1,0.8,0.3,0.8,0.8c0,0.4-0.3,0.7-0.8,0.7c-0.4,0-0.8-0.4-0.8-0.8H74.5z M71.8,25.3c0.4,0,0.8,0.2,1.1,0.5
		c0.3,0.3,0.5,0.7,0.5,1.2c0,0.9-0.7,1.7-1.7,1.7c-0.9,0-1.7-0.7-1.7-1.7C70.1,26.1,70.8,25.3,71.8,25.3 M71.8,24.8
		c-1.3,0-2.3,1-2.3,2.3c0,1.2,1,2.2,2.3,2.2c1.2,0,2.2-1.1,2.2-2.3C74,25.8,73,24.8,71.8,24.8 M68.1,24.4h0.6v-1h-0.6V24.4z
		 M68.1,29.2h0.6v-4.3h-0.6V29.2z M65.7,29.2h0.6v-2.4c0-0.5,0-0.8,0.4-1.1c0.2-0.2,0.5-0.3,0.8-0.3v-0.6c-0.5,0-1,0.2-1.2,0.7h0
		v-0.6h-0.5V29.2z M62.7,25.3c0.4,0,0.8,0.2,1.1,0.5c0.3,0.3,0.5,0.7,0.5,1.2c0,0.9-0.7,1.7-1.7,1.7C61.8,28.7,61,28,61,27
		C61,26.1,61.7,25.3,62.7,25.3 M62.7,24.8c-1.3,0-2.3,1-2.3,2.3c0,1.2,1,2.2,2.3,2.2c1.2,0,2.2-1.1,2.2-2.3
		C64.9,25.8,63.9,24.8,62.7,24.8 M58.4,29.2H59v-3.8h1v-0.5h-1v-1.5h-0.6v1.5h-0.9v0.5h0.9V29.2z M54.7,25.3c1,0,1.7,0.8,1.7,1.7
		c0,0.9-0.8,1.7-1.7,1.7C53.8,28.7,53,28,53,27C53,26.1,53.8,25.3,54.7,25.3 M57,24.9h-0.6v0.8h0c-0.3-0.6-1-0.9-1.7-0.9
		c-0.7,0-1.3,0.3-1.7,0.7c-0.4,0.4-0.6,0.9-0.6,1.5c0,0.7,0.3,1.2,0.4,1.4c0.5,0.6,1.2,0.9,1.9,0.9c0.7,0,1.3-0.3,1.7-0.9h0v0.8H57
		V24.9z M50.2,29.2h0.6v-2.4c0-0.5,0-0.8,0.4-1.1c0.2-0.2,0.5-0.3,0.8-0.3v-0.6c-0.5,0-1,0.2-1.2,0.7h0v-0.6h-0.5V29.2z M47.2,25.3
		c0.4,0,0.8,0.2,1.1,0.5c0.3,0.3,0.5,0.7,0.5,1.2c0,0.9-0.7,1.7-1.7,1.7c-0.9,0-1.7-0.7-1.7-1.7C45.5,26.1,46.2,25.3,47.2,25.3
		 M47.2,24.8c-1.3,0-2.3,1-2.3,2.3c0,1.2,1,2.2,2.3,2.2c1.2,0,2.2-1.1,2.2-2.3C49.4,25.8,48.3,24.8,47.2,24.8 M41.9,25.3
		c1,0,1.7,0.7,1.7,1.7c0,0.9-0.8,1.7-1.7,1.7c-0.9,0-1.7-0.7-1.7-1.7c0-0.5,0.1-0.9,0.5-1.2C41,25.5,41.5,25.3,41.9,25.3 M39.7,29.2
		h0.5v-0.7c0.3,0.6,1.1,0.8,1.7,0.8c0.6,0,1.2-0.2,1.8-0.8c0.2-0.3,0.5-0.8,0.5-1.4c0-1.3-1.1-2.2-2.3-2.2c-0.6,0-1.3,0.3-1.6,0.9
		v-2.3h-0.6V29.2z M36.5,25.3c1,0,1.7,0.8,1.7,1.7c0,0.9-0.8,1.7-1.7,1.7c-0.9,0-1.7-0.7-1.7-1.7C34.8,26.1,35.5,25.3,36.5,25.3
		 M38.7,24.9h-0.6v0.8h0c-0.3-0.6-1-0.9-1.7-0.9c-0.7,0-1.3,0.3-1.7,0.7c-0.4,0.4-0.6,0.9-0.6,1.5c0,0.7,0.3,1.2,0.4,1.4
		c0.5,0.6,1.2,0.9,1.9,0.9c0.7,0,1.3-0.3,1.6-0.9h0v0.8h0.6V24.9z M30.8,29.2h3v-0.5h-2.4v-5.3h-0.6V29.2z"/>
</g>
</svg>
