<?xml version="1.0" encoding="utf-8"?>
<!-- Generator: Adobe Illustrator 25.4.1, SVG Export Plug-In . SVG Version: 6.00 Build 0)  -->
<svg version="1.1" id="Capa_1" xmlns="http://www.w3.org/2000/svg" xmlns:xlink="http://www.w3.org/1999/xlink" x="0px" y="0px"
	 viewBox="0 0 135 46" style="enable-background:new 0 0 135 46;" xml:space="preserve">
<style type="text/css">
	.st0{fill:#38444E;}
	.st1{fill:#E64860;}
	.st2{fill:#808791;}
	.st3{clip-path:url(#SVGID_00000061472776982122988590000001764873477218101160_);fill:#E64860;}
	.st4{fill:none;stroke:#E64860;stroke-width:0.6287;stroke-miterlimit:10;}
	.st5{fill:#194374;}
	.st6{fill:#00659B;}
	.st7{fill:#DC0D6E;}
	.st8{fill:#004D80;}
	.st9{fill:#7EA9D6;}
	.st10{fill:#B6D4EF;}
	.st11{fill:#058DC7;}
	.st12{fill:#00559F;}
	.st13{fill:#134A83;}
	.st14{fill:#B51975;}
	.st15{fill:#2497D0;}
	.st16{fill:#D80F3B;}
	.st17{fill:#9BC338;}
	.st18{fill:#008541;}
	.st19{fill:#9DC438;}
	
		.st20{clip-path:url(#SVGID_00000035522730032613359720000011712508266764004016_);fill:url(#SVGID_00000176030311666730995440000015717523748400618372_);}
	
		.st21{clip-path:url(#SVGID_00000052082598566075605470000015773329760212886712_);fill:url(#SVGID_00000137852405036054451760000010149443808587396018_);}
	
		.st22{clip-path:url(#SVGID_00000013904988761182403960000013011486757056349067_);fill:url(#SVGID_00000182514769596035508760000015568992310112667529_);}
	.st23{fill:#F9BE12;}
	.st24{clip-path:url(#SVGID_00000099643422417274676790000005605012894290810300_);}
	.st25{clip-path:url(#SVGID_00000143595820257499639870000000569779009589407155_);}
	.st26{clip-path:url(#SVGID_00000078733209058842364010000015702183801543703965_);}
	.st27{clip-path:url(#SVGID_00000061463820981673315440000014594478074599129729_);}
	.st28{clip-path:url(#SVGID_00000173863727572498853770000003517628678732107413_);}
	.st29{clip-path:url(#SVGID_00000055699377033799974020000007177114050652012467_);}
	.st30{clip-path:url(#SVGID_00000179613070074891851140000010625884186958952086_);}
	.st31{clip-path:url(#SVGID_00000085933309817977495190000009681201067538733460_);}
	.st32{clip-path:url(#SVGID_00000116916172887895097730000015096961802579308940_);}
	
		.st33{clip-path:url(#SVGID_00000106117606576079635360000008222902883769061276_);fill:url(#SVGID_00000100342152388230390200000007727138169647218316_);}
	.st34{clip-path:url(#SVGID_00000098923015866879458260000004694949678064174746_);}
	.st35{clip-path:url(#SVGID_00000067946453836132276120000005492243959208629939_);}
	.st36{clip-path:url(#SVGID_00000051347098004094298160000016189009298850819772_);}
	.st37{clip-path:url(#SVGID_00000036242184753744595910000009695752238457274796_);}
	.st38{clip-path:url(#SVGID_00000055689088777707392550000004130000267658874041_);}
	.st39{clip-path:url(#SVGID_00000089540894724206955430000005796416597274448568_);}
	.st40{fill:#009BDA;}
	.st41{fill:#CE1620;}
	.st42{fill:#171915;}
	.st43{fill:#E30750;}
	.st44{fill:#5775B5;}
	.st45{fill:none;stroke:#5775B5;stroke-width:0.5802;}
	.st46{fill:#5A595C;}
	.st47{fill:#FFFFFF;}
	.st48{fill:#364F8F;}
	.st49{fill:none;stroke:#364F8F;stroke-width:0.3873;}
	.st50{fill:none;stroke:#364F8F;stroke-width:1.3345;stroke-linecap:round;}
	.st51{fill:#656362;}
	.st52{fill:#C8D44A;}
	.st53{fill:#E42E38;}
	.st54{fill:none;stroke:#FFFFFF;stroke-width:0.4523;stroke-miterlimit:10;}
	.st55{fill:#51B054;}
	.st56{fill:#0079BB;}
	.st57{fill:#086EB0;}
	.st58{fill:#99A4AB;}
	.st59{fill:#B2A7A5;}
	.st60{fill:#931340;}
	.st61{fill:#DFDCD9;}
	.st62{fill:#27A1D7;}
	.st63{fill:none;stroke:#000000;stroke-width:0.1494;stroke-linejoin:bevel;stroke-miterlimit:22.926;}
	.st64{fill:none;stroke:#000000;stroke-width:0.1585;stroke-miterlimit:22.926;}
	.st65{fill:#EA3D36;stroke:#ED1C24;stroke-width:0.1417;stroke-linejoin:round;}
	.st66{fill:#EA3D36;}
</style>
<g>
	<polygon class="st8" points="28.1,8.5 34.8,8.5 34.8,19.4 43.2,8.5 51.5,8.5 42,19.7 52.7,36.9 44.4,36.9 37.5,24.9 34.8,28.1 
		34.8,36.9 28.1,36.9 	"/>
	<path class="st8" d="M57.1,24.4c0.4-2.5,1.8-4.2,3.9-4.2c2,0,3.5,1.9,3.6,4.2H57.1z M70.7,28.2c0.3-7-3-12.5-9.7-12.5
		c-5.5,0-10,4.5-10,10.8c0,6.9,4.1,11,10.1,11c4.1,0,8.1-2.1,9.2-6.8h-5.7c-0.6,1.5-2,2.3-3.5,2.3c-2.6,0-4-1.9-4.1-4.7H70.7z"/>
	<path class="st8" d="M72.8,16.3h5.9v3.6h0.1c0.9-2.6,3-4,5.6-4c0.5,0,1,0,1.4,0.2v6.2c-0.8-0.2-1.5-0.4-2.3-0.4
		c-3,0-4.6,2.3-4.6,4.9v10.2h-6.1V16.3z"/>
	<path class="st8" d="M87.6,16.3h5.9v3.6h0.1c0.9-2.6,3-4,5.6-4c0.5,0,1,0,1.4,0.2v6.2c-0.8-0.2-1.5-0.4-2.3-0.4
		c-3,0-4.6,2.3-4.6,4.9v10.2h-6.1V16.3z"/>
	<path class="st8" d="M103.8,14.7h-0.7v2h-0.4v-2H102v-0.3h1.8V14.7z M106.9,16.7h-0.4v-1.9h0l-0.8,1.9h-0.2l-0.8-1.9h0v1.9h-0.4
		v-2.3h0.6l0.7,1.8l0.7-1.8h0.6V16.7z"/>
</g>
</svg>
