<?xml version="1.0" encoding="utf-8"?>
<!-- Generator: Adobe Illustrator 25.4.1, SVG Export Plug-In . SVG Version: 6.00 Build 0)  -->
<svg version="1.1" id="Capa_1" xmlns="http://www.w3.org/2000/svg" xmlns:xlink="http://www.w3.org/1999/xlink" x="0px" y="0px"
	 viewBox="0 0 135 46" style="enable-background:new 0 0 135 46;" xml:space="preserve">
<style type="text/css">
	.st0{fill:#38444E;}
	.st1{fill:#E64860;}
	.st2{fill:#808791;}
	.st3{clip-path:url(#SVGID_00000041276828542613600630000005739656582899774859_);fill:#E64860;}
	.st4{fill:none;stroke:#E64860;stroke-width:0.6287;stroke-miterlimit:10;}
	.st5{fill:#194374;}
	.st6{fill:#00659B;}
	.st7{fill:#DC0D6E;}
	.st8{fill:#004D80;}
	.st9{fill:#7EA9D6;}
	.st10{fill:#B6D4EF;}
	.st11{fill:#058DC7;}
	.st12{fill:#00559F;}
	.st13{fill:#134A83;}
	.st14{fill:#B51975;}
	.st15{fill:#2497D0;}
	.st16{fill:#D80F3B;}
	.st17{fill:#9BC338;}
	.st18{fill:#008541;}
	.st19{fill:#9DC438;}
	
		.st20{clip-path:url(#SVGID_00000163759164989896661890000008698409144603843761_);fill:url(#SVGID_00000164498736049601748200000001209155323338526653_);}
	
		.st21{clip-path:url(#SVGID_00000093137378316669160510000002145713447291546768_);fill:url(#SVGID_00000087392785316892155350000013882563886004661158_);}
	
		.st22{clip-path:url(#SVGID_00000081631769601745491630000011923197560857254534_);fill:url(#SVGID_00000087371290104629417210000015367122135737955757_);}
	.st23{fill:#F9BE12;}
	.st24{clip-path:url(#SVGID_00000049213973361970460860000003987733456605423785_);}
	.st25{clip-path:url(#SVGID_00000044136774330217827630000017563631117966331520_);}
	.st26{clip-path:url(#SVGID_00000005947585459275757810000007269255577686949030_);}
	.st27{clip-path:url(#SVGID_00000178163571214796961650000012004097776863275912_);}
	.st28{clip-path:url(#SVGID_00000155115999505324560440000012594732462775849096_);}
	.st29{clip-path:url(#SVGID_00000084502333555204837380000017673705616644204419_);}
	.st30{clip-path:url(#SVGID_00000091708750858077570590000008091618574596590246_);}
	.st31{clip-path:url(#SVGID_00000168797201549215706530000016961382607358479286_);}
	.st32{clip-path:url(#SVGID_00000060726898465817706110000008660894455529616040_);}
	
		.st33{clip-path:url(#SVGID_00000044164870653282632270000018080715025949813182_);fill:url(#SVGID_00000171697032796730765870000018398852164402655883_);}
	.st34{clip-path:url(#SVGID_00000155867628939521235370000012692178102870927507_);}
	.st35{clip-path:url(#SVGID_00000006701789343453755940000004156290553008791180_);}
	.st36{clip-path:url(#SVGID_00000157272029468024405330000005658668370132772232_);}
	.st37{clip-path:url(#SVGID_00000129207425266142500660000014584677563440032416_);}
	.st38{clip-path:url(#SVGID_00000078019320541520755920000006323688454082946488_);}
	.st39{clip-path:url(#SVGID_00000018197873181421856190000014136948546482011287_);}
	.st40{fill:#009BDA;}
	.st41{fill:#CE1620;}
	.st42{fill:#171915;}
	.st43{fill:#E30750;}
	.st44{fill:#5775B5;}
	.st45{fill:none;stroke:#5775B5;stroke-width:0.5802;}
	.st46{fill:#5A595C;}
	.st47{fill:#FFFFFF;}
	.st48{fill:#364F8F;}
	.st49{fill:none;stroke:#364F8F;stroke-width:0.3873;}
	.st50{fill:none;stroke:#364F8F;stroke-width:1.3345;stroke-linecap:round;}
	.st51{fill:#656362;}
	.st52{fill:#C8D44A;}
	.st53{fill:#E42E38;}
	.st54{fill:none;stroke:#FFFFFF;stroke-width:0.4523;stroke-miterlimit:10;}
	.st55{fill:#51B054;}
	.st56{fill:#0079BB;}
	.st57{fill:#086EB0;}
	.st58{fill:#99A4AB;}
	.st59{fill:#B2A7A5;}
	.st60{fill:#931340;}
	.st61{fill:#DFDCD9;}
	.st62{fill:#27A1D7;}
	.st63{fill:none;stroke:#000000;stroke-width:0.1494;stroke-linejoin:bevel;stroke-miterlimit:22.926;}
	.st64{fill:none;stroke:#000000;stroke-width:0.1585;stroke-miterlimit:22.926;}
	.st65{fill:#EA3D36;stroke:#ED1C24;stroke-width:0.1417;stroke-linejoin:round;}
	.st66{fill:#EA3D36;}
</style>
<g>
	<polygon class="st58" points="29.2,30.9 29.9,30.9 32.5,40.6 32.5,40.6 35.1,30.9 35.7,30.9 32.9,41.3 32.1,41.3 	"/>
	<polygon class="st58" points="36.6,30.9 41.6,30.9 41.6,31.4 37.2,31.4 37.2,35.6 41.3,35.6 41.3,36.1 37.2,36.1 37.2,40.7 
		41.7,40.7 41.7,41.3 36.6,41.3 	"/>
	<path class="st58" d="M45.4,35.9c1.2,0,2.5-0.4,2.5-2.4c0-1.4-0.8-2.2-2.1-2.2h-2.4v4.6H45.4z M42.8,30.9h3.1
		c1.4,0,2.6,0.8,2.6,2.7c0,1.4-0.7,2.4-2.1,2.6v0c1.7,0.1,2,1.2,2,2.6v1.1c0,0.6,0.1,1,0.4,1.4H48c-0.2-0.3-0.3-0.8-0.3-1.4v-1.1
		c0-1.5-0.4-2.4-2.1-2.4h-2.2v4.8h-0.6V30.9z"/>
	<polygon class="st58" points="51.8,31.4 49,31.4 49,30.9 55.2,30.9 55.2,31.4 52.4,31.4 52.4,41.3 51.8,41.3 	"/>
	<polygon class="st58" points="58.1,37 55.3,30.9 56,30.9 58.4,36.3 61,30.9 61.6,30.9 58.7,37 58.7,41.3 58.1,41.3 	"/>
	<path class="st58" d="M62.8,38.6c0,1.3,0.9,2.4,2.4,2.4c1.4,0,2.4-1,2.4-2.4c0-1.4-0.7-1.8-1.9-2.2l-1.2-0.4
		c-1.4-0.5-2.1-1.1-2.1-2.6c0-1.7,1.2-2.7,2.8-2.7c1.9,0,2.8,1.1,2.8,2.8h-0.6c0-1.4-0.6-2.3-2.1-2.3c-1.2,0-2.2,0.5-2.2,2.2
		c0,1.2,0.6,1.7,1.5,2l1.5,0.5c1.3,0.5,2.1,1.1,2.1,2.7c0,1.9-1.4,2.9-3,2.9c-2.4,0-3-1.7-3-2.7v-0.7h0.6V38.6z"/>
	<polygon class="st58" points="71.6,37 68.8,30.9 69.5,30.9 72,36.3 74.5,30.9 75.1,30.9 72.3,37 72.3,41.3 71.6,41.3 	"/>
	<path class="st58" d="M76.3,38.6c0,1.3,0.9,2.4,2.4,2.4c1.4,0,2.4-1,2.4-2.4c0-1.4-0.7-1.8-1.9-2.2L78,35.9
		c-1.4-0.5-2.1-1.1-2.1-2.6c0-1.7,1.2-2.7,2.8-2.7c1.9,0,2.8,1.1,2.8,2.8h-0.6c0-1.4-0.6-2.3-2.1-2.3c-1.2,0-2.2,0.5-2.2,2.2
		c0,1.2,0.6,1.7,1.5,2l1.5,0.5c1.3,0.5,2.1,1.1,2.1,2.7c0,1.9-1.4,2.9-3,2.9c-2.4,0-3-1.7-3-2.7v-0.7h0.6V38.6z"/>
	<polygon class="st58" points="85,31.4 82.2,31.4 82.2,30.9 88.4,30.9 88.4,31.4 85.6,31.4 85.6,41.3 85,41.3 	"/>
	<polygon class="st58" points="89.3,30.9 94.3,30.9 94.3,31.4 89.9,31.4 89.9,35.6 94,35.6 94,36.1 89.9,36.1 89.9,40.7 94.4,40.7 
		94.4,41.3 89.3,41.3 	"/>
	<polygon class="st58" points="102.7,31.6 102.7,31.6 99.7,41.3 99.1,41.3 96.1,31.6 96.1,31.6 96.1,41.3 95.5,41.3 95.5,30.9 
		96.4,30.9 99.4,40.2 99.4,40.2 102.3,30.9 103.3,30.9 103.3,41.3 102.7,41.3 	"/>
	<path class="st59" d="M104.8,31.2h0.4c0.2,0,0.4-0.1,0.4-0.3c0-0.2-0.1-0.3-0.3-0.3h-0.4V31.2z M104.6,30.6h0.5
		c0.3,0,0.5,0.1,0.5,0.4c0,0.2-0.2,0.3-0.4,0.4l0.4,0.6h-0.1l-0.4-0.6h-0.4V32h-0.1V30.6z M105.1,32.3c0.6,0,1.1-0.5,1.1-1.1
		s-0.5-1.1-1.1-1.1c-0.6,0-1.1,0.5-1.1,1.1S104.5,32.3,105.1,32.3 M105.1,30.1c0.7,0,1.2,0.5,1.2,1.2c0,0.7-0.5,1.2-1.2,1.2
		c-0.7,0-1.2-0.5-1.2-1.2C103.9,30.6,104.4,30.1,105.1,30.1"/>
	<rect x="87.5" y="7.7" class="st59" width="12.2" height="18.9"/>
	<path class="st58" d="M68.6,18.1c-0.6,0.6-1.5,0.6-2.1,0c-0.6-0.6-0.6-1.5,0-2.1c0.6-0.6,1.5-0.6,2.1,0
		C69.1,16.6,69.1,17.6,68.6,18.1 M76.7,25.6c4.5-4.8,4.5-12.3,0-17.1l-5.1,5.1L71,13l5.1-5.1c-4.8-4.5-12.3-4.5-17.1,0l5.1,5.1
		l-0.6,0.6l-5.1-5.1c-4.5,4.8-4.5,12.3,0,17.1l5.1-5.1l0.6,0.6L59,26.3c4.8,4.5,12.3,4.5,17.1,0L71,21.2l0.6-0.6L76.7,25.6z"/>
	<path class="st60" d="M42,26.6h-1.6L34.5,9.4h1.3l5.4,16.1h0.1l5.4-16.1H48L42,26.6z M41.3,4.6c-6.9,0-12.5,5.6-12.5,12.6
		c0,6.9,5.6,12.5,12.5,12.5c6.9,0,12.5-5.6,12.5-12.5C53.8,10.2,48.2,4.6,41.3,4.6"/>
	<path class="st61" d="M93.7,26.3c-4.8,0-5.9-2.9-5.9-4.6v-1.2h1.2v0.9c0,2.3,1.7,4,4.7,4c2.9,0,4.8-1.8,4.8-4
		c0-2.3-1.5-3.1-3.8-3.8l-2.4-0.7c-2.7-0.8-4.2-1.9-4.2-4.4c0-2.9,2.3-4.6,5.6-4.6c3.8,0,5.6,1.9,5.6,4.8H98c0-2.4-1.3-4-4.2-4
		c-2.3,0-4.5,0.9-4.5,3.7c0,2,1.3,2.9,3.1,3.4l3.1,0.9c2.7,0.8,4.2,1.9,4.2,4.5C99.7,24.5,96.9,26.3,93.7,26.3 M93.7,4.5
		c-6.9,0-12.5,5.6-12.5,12.5c0,6.9,5.6,12.6,12.5,12.6c6.9,0,12.6-5.6,12.6-12.6C106.3,10.2,100.6,4.5,93.7,4.5"/>
</g>
</svg>
