<svg id="Capa_1" data-name="Capa 1" xmlns="http://www.w3.org/2000/svg" viewBox="0 0 135 46"><defs><style>.cls-1{fill:#dc0d6e;}</style></defs><path class="cls-1" d="M63.59,32.44h0a1.21,1.21,0,0,1-1.22-1.21V14.79s0,0,0,0a1.2,1.2,0,0,1,1.21-1.21h.85v-2H56.31v2h.85a1.21,1.21,0,0,1,1.22,1.21V31.22a1.21,1.21,0,0,1-1.21,1.21h-1.3v2h8.84v-2H63.59"/><path class="cls-1" d="M50.71,14.65,47.1,28.58,43.44,15.1h0a1.55,1.55,0,0,1,0-.31,1.23,1.23,0,0,1,1.21-1.21h.91v-2h-8.9v2h1.12a1.22,1.22,0,0,1,1.17.89v0h0L44.3,34.36l0,.06h3.59l0-.06,5.14-19.85"/><path class="cls-1" d="M53.08,14.51a1.2,1.2,0,0,1,1.13-.94h1v-2H48.69v2h1.19a.88.88,0,0,1,.61.25.86.86,0,0,1,.25.61.83.83,0,0,1,0,.22"/><path class="cls-1" d="M80.41,11.57H65.47V17h2.28V14.78a1.19,1.19,0,0,1,.35-.86,1.21,1.21,0,0,1,.86-.35h2V31.22a1.21,1.21,0,0,1-1.21,1.21h-1.3v2h8.82v-2H76.17a1.17,1.17,0,0,1-.85-.35,1.2,1.2,0,0,1-.36-.86V13.57H77a1.17,1.17,0,0,1,.85.35,1.2,1.2,0,0,1,.36.86V17H80.5V11.57"/><path class="cls-1" d="M84.43,24.38h0l2.79-10.74h0l2.9,10.74H84.43m12,7.07L91,11.63l0-.06h-5.6l0,.07L80.27,31.46l0,.05a1.24,1.24,0,0,1-1.18.92h-.81v2H85v-2H83.91a1.21,1.21,0,0,1-.86-.35,1.19,1.19,0,0,1-.35-.85,1.06,1.06,0,0,1,0-.31h0s1-4,1.17-4.52h6.76l.23.87.94,3.64v0a1.55,1.55,0,0,1,0,.31,1.21,1.21,0,0,1-1.21,1.2H89.59v2h8.8v-2h-.76a1.25,1.25,0,0,1-1.19-.92Z"/></svg>