<svg id="Capa_1" data-name="Capa 1" xmlns="http://www.w3.org/2000/svg" viewBox="0 0 135 46"><defs><style>.cls-1{fill:#171915;}.cls-2{fill:#fff;}.cls-3{fill:#51b054;}</style></defs><path class="cls-1" d="M104,36.51a10.94,10.94,0,0,1-3.35-.6,2.08,2.08,0,0,1-1.32-1.6A1.62,1.62,0,0,1,99.76,33,6.16,6.16,0,0,1,104,31.82v1a2.64,2.64,0,0,0-.81.12,1.06,1.06,0,0,0-.7.88c0,.63,0,1.32.59,1.61a2.48,2.48,0,0,0,.92.21Zm3.62-.65a8.29,8.29,0,0,1-3.62.65v-.92a1.85,1.85,0,0,0,1.24-.4,1.81,1.81,0,0,0,0-2,1.52,1.52,0,0,0-1.24-.46v-1h.92c1.47.19,3.29.42,3.75,2.16a1.94,1.94,0,0,1-1,1.88"/><path class="cls-1" d="M57.5,32.91V35c.35.53,1.23.28,1.86.32v1c-1.61,0-3.33.32-4.38-.35a.93.93,0,0,1-.39-.57V33s-1.47,0-1.47,0V31.87h1.47V31.2l2.88-.61v1.28h1.89v1Z"/><path class="cls-1" d="M98,36.41s-2.93,0-2.93,0V33.9a1.41,1.41,0,0,0-.54-.9,3.07,3.07,0,0,0-1.65.06,1,1,0,0,0-.42.92v2.43H89.51V33.06c-.05-.38-.07-.78-.11-1.13h2.93l0,.71a5.45,5.45,0,0,1,5.07-.19c1,1,.36,2.64.56,4"/><path class="cls-1" d="M84.88,36.3a18.29,18.29,0,0,0-.13-3c-.42-.48-1.19-.38-1.82-.27a.8.8,0,0,0-.56.46,25.56,25.56,0,0,0-.11,2.87H79.39V30H82.3v2.45A3.74,3.74,0,0,1,83.46,32a5.46,5.46,0,0,1,3.72.38,1.84,1.84,0,0,1,.67,1.23V36.3Z"/><path class="cls-1" d="M75.12,33.41a.81.81,0,0,0-.6-.71A1.7,1.7,0,0,0,73,33a2,2,0,0,0-.21,1.92c.21.53.77.57,1.26.63a1.09,1.09,0,0,0,.87-.36.64.64,0,0,0,.19-.52H78a1,1,0,0,1-.42.86c-1.42,1.09-3.53,1-5.29.79a3.76,3.76,0,0,1-2.54-1.46,2.18,2.18,0,0,1,.09-1.7c1.44-1.71,4-1.5,6.11-1.23.82.21,1.8.52,2.09,1.53Z"/><path class="cls-1" d="M42.72,33.16c-1,0-2.22,0-2.73,1,0,.67,0,2.15,0,2.11H37.08c0-1.48.07-3-.1-4.44l2.89.05v.94a3.66,3.66,0,0,1,2.85-1v1.34Z"/><path class="cls-1" d="M30.89,36.3a5.16,5.16,0,0,1-1.43-.5v2.14h-3V32.7c0-.35-.1-.67-.14-.94l3,0v.63a4.46,4.46,0,0,1,1.55-.59v.86a1.55,1.55,0,0,0-1.3.57A1.66,1.66,0,0,0,29.8,35a1.54,1.54,0,0,0,1.09.33Zm3.49-.44a5.5,5.5,0,0,1-3.49.44v-.94a2.24,2.24,0,0,0,.86-.17c.79-.31.62-1.25.42-1.92a1.27,1.27,0,0,0-1-.57h-.29v-.86a6.17,6.17,0,0,1,3.6.44,2.05,2.05,0,0,1-.11,3.58"/><path class="cls-1" d="M47.93,36.41a8.74,8.74,0,0,1-3.79-.78,2,2,0,0,1-.8-1.86c.74-1.9,2.73-2,4.59-2v.86a1.55,1.55,0,0,0-1.26.42,2.28,2.28,0,0,0-.23,1.44c.13.32.23.67.59.78a2.27,2.27,0,0,0,.9.19Zm3.6-.71a8.73,8.73,0,0,1-3.6.71v-.94a2,2,0,0,0,1.21-.38,1.85,1.85,0,0,0,.17-1.67c0-.36-.38-.57-.67-.68a6.75,6.75,0,0,0-.71-.1v-.86l1,0c1.39.17,3.21.42,3.56,2a2,2,0,0,1-1,1.93"/><path class="cls-1" d="M63.13,34.46a.74.74,0,0,0,.06.57,1.6,1.6,0,0,0,1.34.54v.86a6,6,0,0,1-3.47-.88,1.94,1.94,0,0,1-.59-2c.61-1.67,2.45-1.78,4.06-1.82v.84a1.81,1.81,0,0,0-1.15.4c-.15.16-.29.33-.21.52l1.36,0v.92Zm1.4-2.7h0c1.49.06,3.1.06,3.9,1.47a2.21,2.21,0,0,1,.25,1.23H64.53v-.92l1.38,0v-.23a.89.89,0,0,0-.52-.58,2.78,2.78,0,0,0-.86-.15Zm0,3.81c.23,0,.48,0,.71,0a1,1,0,0,0,.78-.61h2.63c-.25.82-1.13,1.09-1.8,1.3a17.09,17.09,0,0,1-2.32.21Z"/><path class="cls-1" d="M79.35,23.22a64.83,64.83,0,0,1-19.22,3.87,2.3,2.3,0,0,1-1.88-1.27c-.78-2.91-4.12-2.5-6-4.19-1.55-1.09-2.84-2.74-2.43-4.71S52.3,13.69,54,13c2.34-1,4.39-1.61,6.63-2.34A93.25,93.25,0,0,1,74.87,8.06,2.27,2.27,0,0,1,76.73,9.4c.42,3.23,4,2.74,5.93,4.46a5.09,5.09,0,0,1,2.6,3.48c0,3.2-3.48,4.85-5.91,5.88"/><path class="cls-2" d="M67.8,21.48a7,7,0,0,1-2.31-.79v3.56h-5s0-5.95,0-5.95-2.64,0-3.83,0v-.82h3.85s0-3.37,0-3.37h4.65a8.17,8.17,0,0,1,0,1,11,11,0,0,1,2.66-.94v1.46a2.46,2.46,0,0,0-2,.78A3,3,0,0,0,65.7,19a2,2,0,0,0,1.26.88,5.83,5.83,0,0,0,.84.06Zm7.45-3.18a3.75,3.75,0,0,1-2.74,2.87,10.5,10.5,0,0,1-4.71.31V19.93a2.68,2.68,0,0,0,1.94-.69,2.52,2.52,0,0,0,.38-1.72,2,2,0,0,0-1.05-1.69,4.07,4.07,0,0,0-1.27-.21V14.16a1.41,1.41,0,0,1,.35-.05c2.49-.21,5.13-.06,6.66,2a3.84,3.84,0,0,1,.44,1.34h4.56a6.07,6.07,0,0,0,0,.88Z"/><path class="cls-3" d="M67.08,20.85a7.46,7.46,0,0,1-2.3-.79V23.6h-5V17.67s-2.64,0-3.83,0v-.78H59.8s0-3.36,0-3.36h4.63a7.36,7.36,0,0,1,0,.94,12.4,12.4,0,0,1,2.65-.94V15a2.67,2.67,0,0,0-2,.77,3.08,3.08,0,0,0-.11,2.6,1.76,1.76,0,0,0,1.28.88,3.71,3.71,0,0,0,.81.08Zm7.48-3.22c-.11,1.44-1.51,2.49-2.74,2.91a10.49,10.49,0,0,1-4.74.31V19.28a2.52,2.52,0,0,0,2-.67,2.72,2.72,0,0,0,.4-1.76,2,2,0,0,0-1.07-1.69A4,4,0,0,0,67.08,15V13.49c.13,0,.26,0,.38-.05,2.49-.16,5.13,0,6.64,2a3.38,3.38,0,0,1,.46,1.34l4.54,0a6.17,6.17,0,0,0,0,.88Z"/></svg>