<?xml version="1.0" encoding="utf-8"?>
<!-- Generator: Adobe Illustrator 25.4.1, SVG Export Plug-In . SVG Version: 6.00 Build 0)  -->
<svg version="1.1" id="Capa_1" xmlns="http://www.w3.org/2000/svg" xmlns:xlink="http://www.w3.org/1999/xlink" x="0px" y="0px"
	 viewBox="0 0 135 46" style="enable-background:new 0 0 135 46;" xml:space="preserve">
<style type="text/css">
	.st0{fill:#38444E;}
	.st1{fill:#E64860;}
	.st2{fill:#808791;}
	.st3{clip-path:url(#SVGID_00000088099205889878328770000001085273615511204248_);fill:#E64860;}
	.st4{fill:none;stroke:#E64860;stroke-width:0.6287;stroke-miterlimit:10;}
	.st5{fill:#194374;}
	.st6{fill:#00659B;}
	.st7{fill:#DC0D6E;}
	.st8{fill:#004D80;}
	.st9{fill:#7EA9D6;}
	.st10{fill:#B6D4EF;}
	.st11{fill:#058DC7;}
	.st12{fill:#00559F;}
	.st13{fill:#134A83;}
	.st14{fill:#B51975;}
	.st15{fill:#2497D0;}
	.st16{fill:#D80F3B;}
	.st17{fill:#9BC338;}
	.st18{fill:#008541;}
	.st19{fill:#9DC438;}
	
		.st20{clip-path:url(#SVGID_00000181083330125542023310000005552299097334625956_);fill:url(#SVGID_00000038372295036396191090000008685022488321774262_);}
	
		.st21{clip-path:url(#SVGID_00000166673819938245170040000003790932764563516607_);fill:url(#SVGID_00000182519877160537742060000005017721934967583924_);}
	
		.st22{clip-path:url(#SVGID_00000075868956353619848580000005983874027605122693_);fill:url(#SVGID_00000151530798890064103700000018380161874491583897_);}
	.st23{fill:#F9BE12;}
	.st24{clip-path:url(#SVGID_00000123437518745655485130000007998208057380224904_);}
	.st25{clip-path:url(#SVGID_00000090986953955494824760000009687904356610733714_);}
	.st26{clip-path:url(#SVGID_00000069374430235643783390000001451084760014497169_);}
	.st27{clip-path:url(#SVGID_00000070082294856056308630000013479643935907027604_);}
	.st28{clip-path:url(#SVGID_00000075127264466556755340000000350144459637821103_);}
	.st29{clip-path:url(#SVGID_00000044866284234396148730000016171347973729512630_);}
	.st30{clip-path:url(#SVGID_00000147943000973200700110000000841361468352124048_);}
	.st31{clip-path:url(#SVGID_00000150095855659945258420000006196451006927314072_);}
	.st32{clip-path:url(#SVGID_00000107558039482555919170000003349127692275761818_);}
	
		.st33{clip-path:url(#SVGID_00000121237108008039886470000007145376045967668625_);fill:url(#SVGID_00000157276725667199646390000017126840362305990334_);}
	.st34{clip-path:url(#SVGID_00000106110327882763778950000003645725187257852330_);}
	.st35{clip-path:url(#SVGID_00000016759892205246167160000006929239254178537610_);}
	.st36{clip-path:url(#SVGID_00000067954156654969151690000016001624769676813963_);}
	.st37{clip-path:url(#SVGID_00000125576372201338535010000004201722047686411965_);}
	.st38{clip-path:url(#SVGID_00000005232371462479694940000016308527635450333066_);}
	.st39{clip-path:url(#SVGID_00000115481440229053429440000005812070255969424794_);}
	.st40{fill:#009BDA;}
	.st41{fill:#CE1620;}
	.st42{fill:#171915;}
	.st43{fill:#E30750;}
	.st44{fill:#5775B5;}
	.st45{fill:none;stroke:#5775B5;stroke-width:0.5802;}
	.st46{fill:#5A595C;}
	.st47{fill:#FFFFFF;}
	.st48{fill:#364F8F;}
	.st49{fill:none;stroke:#364F8F;stroke-width:0.3873;}
	.st50{fill:none;stroke:#364F8F;stroke-width:1.3345;stroke-linecap:round;}
	.st51{fill:#656362;}
	.st52{fill:#C8D44A;}
	.st53{fill:#E42E38;}
	.st54{fill:none;stroke:#FFFFFF;stroke-width:0.4523;stroke-miterlimit:10;}
	.st55{fill:#51B054;}
	.st56{fill:#0079BB;}
	.st57{fill:#086EB0;}
	.st58{fill:#99A4AB;}
	.st59{fill:#B2A7A5;}
	.st60{fill:#931340;}
	.st61{fill:#DFDCD9;}
	.st62{fill:#27A1D7;}
	.st63{fill:none;stroke:#000000;stroke-width:0.1494;stroke-linejoin:bevel;stroke-miterlimit:22.926;}
	.st64{fill:none;stroke:#000000;stroke-width:0.1585;stroke-miterlimit:22.926;}
	.st65{fill:#EA3D36;stroke:#ED1C24;stroke-width:0.1417;stroke-linejoin:round;}
	.st66{fill:#EA3D36;}
</style>
<g>
	<polygon class="st53" points="109.6,31.4 115.2,31.4 115.2,18.7 120.3,18.7 120.3,14.4 104.5,14.4 104.5,18.7 109.6,18.7 	"/>
	<polygon class="st54" points="109.6,31.4 115.2,31.4 115.2,18.7 120.3,18.7 120.3,14.4 104.5,14.4 104.5,18.7 109.6,18.7 	"/>
	<polygon class="st53" points="74.6,31.5 86.8,31.5 86.8,27.8 80.2,27.8 80.2,24.7 86.2,24.7 86.2,21.1 80.2,21.1 80.2,18.1 
		86.7,18.1 86.7,14.5 74.6,14.5 	"/>
	<polygon class="st54" points="74.6,31.5 86.8,31.5 86.8,27.8 80.2,27.8 80.2,24.7 86.2,24.7 86.2,21.1 80.2,21.1 80.2,18.1 
		86.7,18.1 86.7,14.5 74.6,14.5 	"/>
	<path class="st53" d="M47.3,25.7l2.5-6.7l2.6,6.7H47.3z M39.6,31.5h5.6l1.1-2.8h7.4l1.1,2.8h5.6l-7.5-17h-5.9L39.6,31.5z"/>
	<path class="st54" d="M47.3,25.7l2.5-6.7l2.6,6.7H47.3z M39.6,31.5h5.6l1.1-2.8h7.4l1.1,2.8h5.6l-7.5-17h-5.9L39.6,31.5z"/>
	<path class="st53" d="M14.7,30.6c1.6,0.8,3.4,1.2,5.4,1.2c2.1,0,3.3-0.4,4.4-1.3c1.1-0.9,1.7-2.2,1.7-3.7c0-1.3-0.4-2.3-1.2-3.2
		c-0.6-0.6-1-1-2.6-1.8c-2-1.1-2.4-1.4-2.4-2.1c0-0.8,0.6-1.2,1.6-1.2c1.2,0,2.5,0.7,4,2.2v-4.5c-1.6-1.2-3.2-1.8-5-1.8
		c-3.4,0-5.8,2-5.8,5.1c0,1.4,0.5,2.6,1.5,3.6c0.7,0.6,1.2,1,2.8,1.8c1.4,0.8,1.7,1.1,1.7,1.7c0,0.7-0.6,1.2-1.6,1.2
		c-1.3,0-2.8-0.6-4.4-1.7V30.6z"/>
	<path class="st54" d="M14.7,30.6c1.6,0.8,3.4,1.2,5.4,1.2c2.1,0,3.3-0.4,4.4-1.3c1.1-0.9,1.7-2.2,1.7-3.7c0-1.3-0.4-2.3-1.2-3.2
		c-0.6-0.6-1-1-2.6-1.8c-2-1.1-2.4-1.4-2.4-2.1c0-0.8,0.6-1.2,1.6-1.2c1.2,0,2.5,0.7,4,2.2v-4.5c-1.6-1.2-3.2-1.8-5-1.8
		c-3.4,0-5.8,2-5.8,5.1c0,1.4,0.5,2.6,1.5,3.6c0.7,0.6,1.2,1,2.8,1.8c1.4,0.8,1.7,1.1,1.7,1.7c0,0.7-0.6,1.2-1.6,1.2
		c-1.3,0-2.8-0.6-4.4-1.7V30.6z"/>
	<polygon class="st53" points="35.3,31.5 47.3,31.5 47.3,27.2 40.9,27.2 40.9,14.5 35.3,14.5 	"/>
	<polygon class="st54" points="35.3,31.5 47.3,31.5 47.3,27.2 40.9,27.2 40.9,14.5 35.3,14.5 	"/>
	<path class="st53" d="M64.7,27.4v-8.9h1.3c2.8,0,4.2,1.5,4.2,4.5c0,3-1.3,4.4-4.1,4.4H64.7z M59.1,31.5h8.8c1.7,0,3-0.3,4.2-0.9
		c2.4-1.3,3.9-4.2,3.9-7.4c0-2.4-0.8-4.5-2.3-6.1c-1.7-1.8-3.8-2.6-6.7-2.6h-7.9V31.5z"/>
	<path class="st54" d="M64.7,27.4v-8.9h1.3c2.8,0,4.2,1.5,4.2,4.5c0,3-1.3,4.4-4.1,4.4H64.7z M59.1,31.5h8.8c1.7,0,3-0.3,4.2-0.9
		c2.4-1.3,3.9-4.2,3.9-7.4c0-2.4-0.8-4.5-2.3-6.1c-1.7-1.8-3.8-2.6-6.7-2.6h-7.9V31.5z"/>
	<polygon class="st53" points="88.4,31.5 94.2,31.5 93.8,22.8 102,31.5 106.9,31.5 106.9,14.4 101.2,14.4 101.5,23.2 93.3,14.5 
		88.4,14.5 	"/>
	<polygon class="st54" points="88.4,31.5 94.2,31.5 93.8,22.8 102,31.5 106.9,31.5 106.9,14.4 101.2,14.4 101.5,23.2 93.3,14.5 
		88.4,14.5 	"/>
	<path class="st53" d="M28.7,17.5c0,1,0.8,1.8,1.8,1.8c1,0,1.8-0.8,1.8-1.8c0-1-0.8-1.8-1.8-1.8C29.5,15.6,28.7,16.5,28.7,17.5
		 M27.6,14.5h5.7v17h-5.7V14.5z"/>
	<path class="st54" d="M28.7,17.5c0,1,0.8,1.8,1.8,1.8c1,0,1.8-0.8,1.8-1.8c0-1-0.8-1.8-1.8-1.8C29.5,15.6,28.7,16.5,28.7,17.5
		 M27.6,14.5h5.7v17h-5.7V14.5z"/>
</g>
</svg>
