<svg id="Capa_1" data-name="Capa 1" xmlns="http://www.w3.org/2000/svg" viewBox="0 0 135 46"><defs><style>.cls-1{fill:#e22e21;}</style></defs><path class="cls-1" d="M24.87,20.2l-.13.11L28.93,19h-.19Z"/><path class="cls-1" d="M24,21.07l6.08-1.92-.12,0L24.08,21l-.07.09"/><path class="cls-1" d="M23.54,21.75l7.39-2.33-.09,0-7.26,2.29s0,0,0,.08"/><path class="cls-1" d="M23.2,22.38l8.39-2.64-.07,0-8.28,2.61a.25.25,0,0,0,0,.07"/><path class="cls-1" d="M23,23l9.18-2.89-.07-.05L23,22.92,23,23"/><path class="cls-1" d="M26.48,22.34,22.8,23.51a.64.64,0,0,0,0,.07l3.63-1.15a.71.71,0,0,0,.07-.09"/><polygon class="cls-1" points="36.12 19.31 35.31 19.56 35.31 19.63 36.33 19.31 36.12 19.31"/><path class="cls-1" d="M29.2,21.56l3.39-1.07s0,0-.05,0l-3.48,1.09.14,0"/><path class="cls-1" d="M30,21.84l3-.95,0-.05-3,.95.08.05"/><path class="cls-1" d="M26,23l-3.35,1.06a.64.64,0,0,0,0,.07l3.33-1A.3.3,0,0,0,26,23"/><polygon class="cls-1" points="37.81 19.3 35.31 20.09 35.31 20.16 37.93 19.33 37.93 19.3 37.81 19.3"/><path class="cls-1" d="M30.49,22.21l2.81-.89,0-.05-2.82.89s0,0,0,.05"/><path class="cls-1" d="M25.79,23.62l-3.21,1a.15.15,0,0,0,0,.07l3.2-1a.14.14,0,0,0,0-.07"/><polygon class="cls-1" points="35.31 20.62 35.31 20.69 38.01 19.84 38 19.77 35.31 20.62"/><path class="cls-1" d="M42.18,19l-3.07,1a.4.4,0,0,0-.12.1L42.36,19h-.18"/><path class="cls-1" d="M30.82,22.63l2.76-.87,0-.05-2.77.87,0,.05"/><path class="cls-1" d="M25.7,24.18l-3.18,1v.06l3.17-1a.2.2,0,0,1,0-.07"/><polygon class="cls-1" points="35.31 21.15 35.31 21.22 38.08 20.35 38.07 20.28 35.31 21.15"/><path class="cls-1" d="M26.23,24.55,22.5,25.72v.07l3.94-1.24Z"/><path class="cls-1" d="M31.06,23.09l2.76-.87,0-.06L31,23l0,.06"/><polygon class="cls-1" points="35.31 21.68 35.31 21.75 38.15 20.85 38.14 20.79 35.31 21.68"/><path class="cls-1" d="M43.31,19.16l-4.9,1.55-.07.08,5.08-1.6-.11,0"/><path class="cls-1" d="M35.31,22.28l8.82-2.78-.07,0-8.75,2.75Z"/><path class="cls-1" d="M27.91,24.55l-5.4,1.7v.07l5.61-1.77Z"/><path class="cls-1" d="M31.21,23.57,34,22.69l0-.06-2.8.88v.06"/><path class="cls-1" d="M35.31,22.81l9.36-2.95-.06-.05-9.3,2.93Z"/><path class="cls-1" d="M29.59,24.55l-7,2.22s0,0,0,.06l7.25-2.28Z"/><path class="cls-1" d="M31.3,24.07l2.88-.91V23.1L31.29,24a.13.13,0,0,1,0,.06"/><path class="cls-1" d="M48.69,19.05l-1.22.39-.31.16L49.05,19l-.36,0"/><path class="cls-1" d="M35.31,23.34l9.78-3.08s0,0-.05-.05l-9.73,3.06Z"/><path class="cls-1" d="M31.34,24.55h-.07l-8.66,2.73v.06l11.69-3.69s0,0,0-.06l-3,.93v0"/><path class="cls-1" d="M35.31,23.87l3.91-1.23.08-.09-4,1.25Z"/><path class="cls-1" d="M41.81,21.82l3.6-1.14,0-.05-3.69,1.16.12,0"/><path class="cls-1" d="M50.43,19l-4.22,1.33-.08.09,4.44-1.4-.14,0"/><path class="cls-1" d="M22.71,27.84l3-.94v-.06h.2l8.5-2.68s0-.05,0-.07L22.7,27.78s0,0,0,.06"/><path class="cls-1" d="M35.31,24.4l3.53-1.11,0-.08-3.56,1.12Z"/><path class="cls-1" d="M22.84,28.33l2.88-.91v-.06l-2.89.91s0,0,0,.06"/><path class="cls-1" d="M42.42,22.16l9-2.85-.09,0L45.7,21.06l0,.06,0,0-3.27,1s0,0,.05.05"/><path class="cls-1" d="M27.58,26.84l6.88-2.17a.2.2,0,0,0,0-.07l-7.08,2.24Z"/><path class="cls-1" d="M35.31,24.93l3.31-1a.24.24,0,0,1,0-.08l-3.33,1.05Z"/><path class="cls-1" d="M23,28.81l2.81-.89s0,0,0-.06L23,28.75a.14.14,0,0,0,0,.06"/><path class="cls-1" d="M42.75,22.59l9.34-2.95-.07,0-9.31,2.93s0,0,0,.06"/><path class="cls-1" d="M29.26,26.84l5.23-1.65v-.07l-5.44,1.72Z"/><path class="cls-1" d="M30.94,26.84l3.55-1.12v-.07l-3.76,1.19Z"/><path class="cls-1" d="M23.21,29.28,26,28.4s0,0,0-.06l-2.78.88,0,.06"/><path class="cls-1" d="M42.92,23.06l9.65-3L52.51,20,42.9,23s0,0,0,.06"/><path class="cls-1" d="M35.31,25.46l3.18-1,0-.07-3.2,1Z"/><path class="cls-1" d="M48.73,21.72h.11l4.1-1.3,0-.05-4.28,1.35h.11"/><path class="cls-1" d="M32.62,26.84l1.86-.59v-.06l-2.07.65Z"/><path class="cls-1" d="M23.44,29.73l2.78-.87,0-.06-2.77.88,0,.05"/><path class="cls-1" d="M35.31,26l3.13-1v-.06l-3.13,1Z"/><path class="cls-1" d="M43,23.56l4.37-1.38.17-.11L43,23.5s0,0,0,.06"/><polygon class="cls-1" points="35.31 26.52 38.43 25.54 38.43 25.47 35.31 26.45 35.31 26.52"/><path class="cls-1" d="M49.82,21.94l3.42-1.07a.21.21,0,0,1,0-.06l-3.46,1.1.08,0"/><path class="cls-1" d="M23.72,30.18l2.82-.89s0,0-.05-.05l-2.81.88a.21.21,0,0,0,0,.06"/><path class="cls-1" d="M34.3,26.84l.16-.05v-.07l-.37.12Z"/><path class="cls-1" d="M43,24.08l3.72-1.17a.35.35,0,0,1,.05-.08L43,24v.06"/><path class="cls-1" d="M24,30.61,27,29.68l-.06-.05L24,30.55l.05.06"/><polygon class="cls-1" points="35.31 27.05 38.43 26.07 38.43 26 35.31 26.98 35.31 27.05"/><path class="cls-1" d="M43,24.61l3.42-1.08,0-.07L43,24.55Z"/><path class="cls-1" d="M50.29,22.33l3.17-1s0,0,0-.06l-3.19,1,0,0"/><path class="cls-1" d="M43,25.14l3.25-1s0-.05,0-.07l-3.27,1Z"/><path class="cls-1" d="M24.41,31l3.17-1-.09,0-3.13,1,.05.05"/><path class="cls-1" d="M32.27,28.47,31,28.88A.25.25,0,0,0,31,29l1.52-.48Z"/><path class="cls-1" d="M50.54,22.78l3.09-1,0-.06-3.09,1a.14.14,0,0,0,0,.06"/><polygon class="cls-1" points="35.31 27.58 38.43 26.6 38.43 26.53 35.31 27.52 35.31 27.58"/><polygon class="cls-1" points="35.31 28.11 38.43 27.13 38.43 27.06 35.31 28.05 35.31 28.11"/><path class="cls-1" d="M50.67,23.27l3.08-1v-.06l-3.08,1s0,.05,0,.07"/><path class="cls-1" d="M24.84,31.41l3.81-1.2h-.2l-3.66,1.16.05,0"/><path class="cls-1" d="M34,28.47l-3.41,1.08,0,0-.07.07,3.72-1.18Z"/><path class="cls-1" d="M43,25.67l3.16-1v-.07l-3.16,1Z"/><path class="cls-1" d="M43,26.2l3.13-1v-.07l-3.13,1Z"/><path class="cls-1" d="M25.34,31.78,34,29l0-.07-8.79,2.77.07,0"/><polygon class="cls-1" points="35.31 28.64 38.43 27.66 38.43 27.59 35.31 28.58 35.31 28.64"/><path class="cls-1" d="M50.73,23.78l3.1-1a.13.13,0,0,0,0-.06l-3.09,1v.07"/><path class="cls-1" d="M50.75,24.27v0l3.12-1v-.07l-3.12,1Z"/><polygon class="cls-1" points="43.04 26.73 46.17 25.75 46.17 25.68 43.04 26.67 43.04 26.73"/><polygon class="cls-1" points="35.31 29.17 38.43 28.19 38.43 28.12 35.31 29.11 35.31 29.17"/><path class="cls-1" d="M25.93,32.13l7.89-2.49,0-.07-8,2.52a.2.2,0,0,1,.08,0"/><polygon class="cls-1" points="35.31 29.7 38.43 28.72 38.43 28.65 35.31 29.64 35.31 29.7"/><path class="cls-1" d="M26.66,32.43l6.82-2.15.05-.08-7,2.2.1,0"/><polygon class="cls-1" points="50.75 24.83 53.87 23.85 53.87 23.78 50.75 24.77 50.75 24.83"/><polygon class="cls-1" points="43.04 27.26 46.17 26.28 46.17 26.21 43.04 27.2 43.04 27.26"/><polygon class="cls-1" points="50.75 25.36 53.87 24.38 53.87 24.31 50.75 25.3 50.75 25.36"/><path class="cls-1" d="M27.62,32.66,33,31l.06-.07s0,0,0,0l-5.59,1.76.14,0"/><polygon class="cls-1" points="35.31 30.23 38.43 29.25 38.43 29.18 35.31 30.17 35.31 30.23"/><polygon class="cls-1" points="43.04 27.79 46.17 26.81 46.17 26.74 43.04 27.73 43.04 27.79"/><path class="cls-1" d="M29.11,32.72,32,31.79l.17-.12-3.34,1.06h.24"/><polygon class="cls-1" points="35.31 30.76 38.43 29.78 38.43 29.71 35.31 30.7 35.31 30.76"/><polygon class="cls-1" points="50.75 25.89 53.87 24.91 53.87 24.84 50.75 25.83 50.75 25.89"/><polygon class="cls-1" points="43.04 28.32 46.17 27.34 46.17 27.27 43.04 28.26 43.04 28.32"/><polygon class="cls-1" points="50.75 26.42 53.87 25.44 53.87 25.37 50.75 26.36 50.75 26.42"/><polygon class="cls-1" points="35.31 31.29 38.43 30.31 38.43 30.24 35.31 31.23 35.31 31.29"/><polygon class="cls-1" points="43.04 28.86 46.17 27.87 46.17 27.8 43.04 28.79 43.04 28.86"/><polygon class="cls-1" points="50.75 26.95 53.87 25.97 53.87 25.9 50.75 26.89 50.75 26.95"/><polygon class="cls-1" points="35.31 31.82 38.43 30.84 38.43 30.77 35.31 31.76 35.31 31.82"/><polygon class="cls-1" points="43.04 29.39 46.17 28.4 46.17 28.33 43.04 29.32 43.04 29.39"/><polygon class="cls-1" points="43.04 29.91 46.17 28.93 46.17 28.86 43.04 29.85 43.04 29.91"/><polygon class="cls-1" points="35.31 32.35 38.43 31.37 38.43 31.3 35.31 32.29 35.31 32.35"/><polygon class="cls-1" points="50.75 27.48 53.87 26.5 53.87 26.43 50.75 27.42 50.75 27.48"/><polygon class="cls-1" points="50.75 28.02 53.87 27.03 53.87 26.96 50.75 27.95 50.75 28.02"/><polygon class="cls-1" points="36.62 32.4 36.83 32.4 38.43 31.9 38.43 31.83 36.62 32.4"/><polygon class="cls-1" points="43.04 30.45 46.17 29.46 46.17 29.39 43.04 30.38 43.04 30.45"/><polygon class="cls-1" points="43.04 30.98 46.17 29.99 46.17 29.93 43.04 30.91 43.04 30.98"/><polygon class="cls-1" points="50.75 28.55 53.87 27.56 53.87 27.49 50.75 28.48 50.75 28.55"/><polygon class="cls-1" points="38.3 32.4 38.43 32.4 38.43 32.36 38.3 32.4"/><polygon class="cls-1" points="43.04 31.5 46.17 30.52 46.17 30.45 43.04 31.44 43.04 31.5"/><polygon class="cls-1" points="50.75 29.07 53.87 28.09 53.87 28.02 50.75 29.01 50.75 29.07"/><polygon class="cls-1" points="50.75 29.61 53.87 28.62 53.87 28.55 50.75 29.54 50.75 29.61"/><polygon class="cls-1" points="43.04 32.04 46.17 31.05 46.17 30.98 43.04 31.97 43.04 32.04"/><polygon class="cls-1" points="43.34 32.4 43.55 32.4 46.16 31.58 46.16 31.52 43.34 32.4"/><polygon class="cls-1" points="50.75 30.14 53.87 29.15 53.87 29.09 50.75 30.07 50.75 30.14"/><polygon class="cls-1" points="45.02 32.4 45.23 32.4 46.16 32.11 46.16 32.04 45.02 32.4"/><polygon class="cls-1" points="50.75 30.66 53.87 29.68 53.87 29.61 50.75 30.6 50.75 30.66"/><polygon class="cls-1" points="50.75 31.2 53.87 30.21 53.87 30.14 50.75 31.13 50.75 31.2"/><polygon class="cls-1" points="50.75 31.73 53.87 30.74 53.87 30.67 50.75 31.66 50.75 31.73"/><polygon class="cls-1" points="50.75 32.26 53.87 31.27 53.87 31.2 50.75 32.19 50.75 32.26"/><polygon class="cls-1" points="51.75 32.4 51.96 32.4 53.87 31.8 53.87 31.74 51.75 32.4"/><polygon class="cls-1" points="53.43 32.4 53.64 32.4 53.87 32.33 53.87 32.27 53.43 32.4"/><path class="cls-1" d="M63.76,24.55H58.09a3.23,3.23,0,0,1,.68-2A3,3,0,0,1,63,22.25a3.42,3.42,0,0,1,.8,2.3M66.91,26a7.44,7.44,0,0,0-1.13-4.57A5.56,5.56,0,0,0,61,19a5.66,5.66,0,0,0-4.18,1.66,7.34,7.34,0,0,0-1.89,5.24,7.14,7.14,0,0,0,2,5.24,5.75,5.75,0,0,0,4.14,1.61,5.59,5.59,0,0,0,4.4-1.84,5,5,0,0,0,1.11-2.42h-3a2.35,2.35,0,0,1-.63,1.11,2.42,2.42,0,0,1-1.91.63,2.78,2.78,0,0,1-1.94-.8,3.46,3.46,0,0,1-1-2.57h8.77c0-.28,0-.88,0-.88"/><polygon class="cls-1" points="79 19.31 75.55 19.31 72.7 23.54 69.78 19.31 66.16 19.31 70.77 25.73 66.18 32.4 69.63 32.4 72.5 28.02 75.43 32.4 78.98 32.4 74.49 25.75 79 19.31"/><path class="cls-1" d="M102.2,27.77H99.1A2.62,2.62,0,0,1,98.72,29a2.3,2.3,0,0,1-2,1,2.59,2.59,0,0,1-1.91-.83,4.79,4.79,0,0,1-.88-3.3,4.89,4.89,0,0,1,.88-3.33,2.57,2.57,0,0,1,1.91-.8,2.3,2.3,0,0,1,2,1,2.62,2.62,0,0,1,.38,1.21h3.1a5.25,5.25,0,0,0-1-2.85A5.75,5.75,0,0,0,96.7,19,6,6,0,0,0,92.14,21a7.56,7.56,0,0,0-1.43,4.79,7.56,7.56,0,0,0,1.43,4.79,6,6,0,0,0,4.56,2.06,5.75,5.75,0,0,0,4.49-2.06,5.28,5.28,0,0,0,1-2.85"/><path class="cls-1" d="M109.89,32.23V29.58a15.81,15.81,0,0,1-2,.13c-1,0-1.46-.43-1.46-1.44V21.9h3.3V19.31h-3.3V16.73h-3.15V28.55c0,2.52,1.31,4,4,4a11,11,0,0,0,2.69-.35"/><path class="cls-1" d="M86.65,27.19c0,1.94-1.39,3-3.36,3a1.72,1.72,0,0,1-1.86-1.64,1.83,1.83,0,0,1,1.89-1.71l3.33-.25Zm3.07,5.21V24.29a7.17,7.17,0,0,0-.38-2.64c-.76-2-2.67-2.67-4.91-2.67-2.92,0-5.27,1.31-5.44,4.26H82c.07-1.21.93-1.87,2.39-1.87,1.79,0,2.22.83,2.22,2.07v.8l-3.86.28c-2.49.18-4.43,1.61-4.43,4.11,0,2.14,1.61,4.1,4.73,4.1a4.57,4.57,0,0,0,4-2l.11,1.63Z"/><path class="cls-1" d="M111.13,14.69a.27.27,0,0,0-.1-.21.37.37,0,0,0-.23-.07h-.37V15h.37a.36.36,0,0,0,.24-.07.26.26,0,0,0,.09-.23m0,1.3-.31-.69h-.38V16h-.32V14.1h.69a1.09,1.09,0,0,1,.26,0,.72.72,0,0,1,.21.12.65.65,0,0,1,.15.18.7.7,0,0,1,0,.25.67.67,0,0,1-.08.33.52.52,0,0,1-.26.22l.35.75Zm1-.92a1.63,1.63,0,0,0-.1-.59,1.39,1.39,0,0,0-.3-.48,1.38,1.38,0,0,0-.46-.31,1.55,1.55,0,0,0-.59-.11,1.59,1.59,0,0,0-.59.11,1.27,1.27,0,0,0-.46.32,1.33,1.33,0,0,0-.29.47,1.69,1.69,0,0,0,0,1.2,1.33,1.33,0,0,0,.29.47,1.25,1.25,0,0,0,.46.31,1.41,1.41,0,0,0,.59.11,1.37,1.37,0,0,0,1.35-.9,1.64,1.64,0,0,0,.1-.6m.33,0a1.83,1.83,0,0,1-.13.71,1.94,1.94,0,0,1-.38.58,1.71,1.71,0,0,1-.56.39,1.87,1.87,0,0,1-1.42,0,1.77,1.77,0,0,1-.93-1,1.87,1.87,0,0,1,0-1.42,1.85,1.85,0,0,1,.37-.58,1.8,1.8,0,0,1,2.54,0,1.74,1.74,0,0,1,.51,1.28"/></svg>