<?xml version="1.0" encoding="utf-8"?>
<!-- Generator: Adobe Illustrator 25.4.1, SVG Export Plug-In . SVG Version: 6.00 Build 0)  -->
<svg version="1.1" id="Capa_1" xmlns="http://www.w3.org/2000/svg" xmlns:xlink="http://www.w3.org/1999/xlink" x="0px" y="0px"
	 viewBox="0 0 135 46" style="enable-background:new 0 0 135 46;" xml:space="preserve">
<style type="text/css">
	.st0{fill:#38444E;}
	.st1{fill:#E64860;}
	.st2{fill:#808791;}
	.st3{clip-path:url(#SVGID_00000064321693740482665380000002063035193270291610_);fill:#E64860;}
	.st4{fill:none;stroke:#E64860;stroke-width:0.6287;stroke-miterlimit:10;}
	.st5{fill:#194374;}
	.st6{fill:#00659B;}
	.st7{fill:#DC0D6E;}
	.st8{fill:#004D80;}
	.st9{fill:#7EA9D6;}
	.st10{fill:#B6D4EF;}
	.st11{fill:#058DC7;}
	.st12{fill:#00559F;}
	.st13{fill:#134A83;}
	.st14{fill:#B51975;}
	.st15{fill:#2497D0;}
	.st16{fill:#D80F3B;}
	.st17{fill:#9BC338;}
	.st18{fill:#008541;}
	.st19{fill:#9DC438;}
	
		.st20{clip-path:url(#SVGID_00000000187615816935558340000012896182969818491294_);fill:url(#SVGID_00000164516026668727294340000004944961615699428493_);}
	
		.st21{clip-path:url(#SVGID_00000040552639377804947980000003012809525668152711_);fill:url(#SVGID_00000011736232978813804580000009517576434418794926_);}
	
		.st22{clip-path:url(#SVGID_00000127752219462181466610000005688221955141021110_);fill:url(#SVGID_00000080914550302444912700000012219618370927933575_);}
	.st23{fill:#F9BE12;}
	.st24{clip-path:url(#SVGID_00000107550174762464832310000016025542500904004761_);}
	.st25{clip-path:url(#SVGID_00000140694070448187013370000015852072429994437270_);}
	.st26{clip-path:url(#SVGID_00000021803158713656409540000015181350411948528821_);}
	.st27{clip-path:url(#SVGID_00000164514957623655052120000011071766621406948021_);}
	.st28{clip-path:url(#SVGID_00000063601891625044132880000009126123498172641210_);}
	.st29{clip-path:url(#SVGID_00000025406638620711483450000018404328151282405766_);}
	.st30{clip-path:url(#SVGID_00000008147394352105108160000004393206006826346639_);}
	.st31{clip-path:url(#SVGID_00000019645184986373996220000004066759569032533640_);}
	.st32{clip-path:url(#SVGID_00000005234495720025915870000003176182905313160872_);}
	
		.st33{clip-path:url(#SVGID_00000146465446908930324920000011183456607981057448_);fill:url(#SVGID_00000111903823048867602650000001368078266816662669_);}
	.st34{clip-path:url(#SVGID_00000077326472513225347360000005441130450542766010_);}
	.st35{clip-path:url(#SVGID_00000071546827040232373130000001203593451747873698_);}
	.st36{clip-path:url(#SVGID_00000078022014698518182460000013187917400033137288_);}
	.st37{clip-path:url(#SVGID_00000119103044085016805930000008598782253580944281_);}
	.st38{clip-path:url(#SVGID_00000162352431147125591160000001292763706607121803_);}
	.st39{clip-path:url(#SVGID_00000002367111518767287330000006467652657189978293_);}
	.st40{fill:#009BDA;}
	.st41{fill:#CE1620;}
	.st42{fill:#171915;}
	.st43{fill:#E30750;}
	.st44{fill:#5775B5;}
	.st45{fill:none;stroke:#5775B5;stroke-width:0.5802;}
	.st46{fill:#5A595C;}
	.st47{fill:#FFFFFF;}
	.st48{fill:#364F8F;}
	.st49{fill:none;stroke:#364F8F;stroke-width:0.3873;}
	.st50{fill:none;stroke:#364F8F;stroke-width:1.3345;stroke-linecap:round;}
	.st51{fill:#656362;}
	.st52{fill:#C8D44A;}
	.st53{fill:#E42E38;}
	.st54{fill:none;stroke:#FFFFFF;stroke-width:0.4523;stroke-miterlimit:10;}
	.st55{fill:#51B054;}
	.st56{fill:#0079BB;}
	.st57{fill:#086EB0;}
	.st58{fill:#99A4AB;}
	.st59{fill:#B2A7A5;}
	.st60{fill:#931340;}
	.st61{fill:#DFDCD9;}
	.st62{fill:#27A1D7;}
	.st63{fill:none;stroke:#000000;stroke-width:0.1494;stroke-linejoin:bevel;stroke-miterlimit:22.926;}
	.st64{fill:none;stroke:#000000;stroke-width:0.1585;stroke-miterlimit:22.926;}
	.st65{fill:#EA3D36;stroke:#ED1C24;stroke-width:0.1417;stroke-linejoin:round;}
	.st66{fill:#EA3D36;}
</style>
<g>
	<rect x="41.3" y="33" class="st13" width="25.7" height="2.5"/>
	<path class="st14" d="M90.2,5.6L90.2,5.6L90.2,5.6L90.2,5.6L90.2,5.6L90.2,5.6z M91.1,6.9L91.1,6.9L91.1,6.9L91.1,6.9L91.1,6.9
		L91.1,6.9z M72.1,7.7L72.1,7.7L72.1,7.7L72.1,7.7L72.1,7.7z M77.2,5.7L77.2,5.7L77.2,5.7L77.2,5.7L77.2,5.7z M57.7,17.1L57.7,17.1
		L57.7,17.1L57.7,17.1L57.7,17.1L57.7,17.1L57.7,17.1z M62.8,23.8L62.8,23.8L62.8,23.8L62.8,23.8L62.8,23.8L62.8,23.8L62.8,23.8z
		 M89.2,5.9L89.2,5.9L89.2,5.9L89.2,5.9L89.2,5.9z M65.4,11.3L65.4,11.3L65.4,11.3L65.4,11.3L65.4,11.3z M79.3,13.6L79.3,13.6
		L79.3,13.6L79.3,13.6L79.3,13.6z M93.6,6.2L93.6,6.2L93.6,6.2L93.6,6.2L93.6,6.2z M80.5,10.1L80.5,10.1L80.5,10.1L80.5,10.1
		L80.5,10.1z M68.5,9.4L68.5,9.4l0.1-0.1v0.1L68.5,9.4L68.5,9.4z M80.7,9.9h0.1V9.8L80.7,9.9L80.7,9.9z M81.1,5.2L81.1,5.2l0.1,0.1
		h-0.1V5.2z M59.8,13.2L59.8,13.2l0.1,0v0.1L59.8,13.2L59.8,13.2L59.8,13.2z M56.2,16.6L56.2,16.6L56.2,16.6h0.1v0.1L56.2,16.6
		L56.2,16.6L56.2,16.6L56.2,16.6z M91.2,6.2L91.2,6.2L91.2,6.2h0.1V6.1L91.2,6.2L91.2,6.2z M69.2,11.5h0.2v0.1L69.2,11.5L69.2,11.5z
		 M59,15.4h0.2v0.1L59,15.4L59,15.4z M79.6,13.6L79.6,13.6l0.2-0.1v0.1l-0.1,0L79.6,13.6L79.6,13.6z M61.8,12.2L61.8,12.2l0.2-0.1
		l0,0v0.1H61.8z M78.3,4.5L78.3,4.5L78.3,4.5h0.1l0,0v0L78.3,4.5l0.1,0.1h-0.1V4.5z M71.4,7.4L71.4,7.4l0.1,0l0,0v0.1L71.4,7.4
		L71.4,7.4z M90.2,4.3L90.2,4.3l0.2,0v0.2h-0.1L90.2,4.3L90.2,4.3L90.2,4.3L90.2,4.3z M78.4,14.6L78.4,14.6l0.2-0.1l0,0l0,0v0h-0.1
		v0.1L78.4,14.6L78.4,14.6L78.4,14.6z M79.1,13.6L79.1,13.6l0.2,0v0.1l0,0l0,0h-0.1L79.1,13.6L79.1,13.6L79.1,13.6z M69.9,11.1
		L69.9,11.1L69.9,11.1H70l0,0v0.1l0,0h-0.2L69.9,11.1L69.9,11.1z M77.5,4.6L77.5,4.6L77.5,4.6l0.2-0.1l0,0v0.1l0,0l-0.1,0L77.5,4.6
		L77.5,4.6L77.5,4.6L77.5,4.6z M71.1,11.6L71.1,11.6l0.2,0l0,0v0.1L71.1,11.6L71.1,11.6z M65.7,8.3L65.7,8.3l0.2,0l0,0v0.1l0,0
		L65.7,8.3L65.7,8.3z M83.5,10.7L83.5,10.7L83.5,10.7L83.5,10.7h0.2l0,0v0.1l-0.1,0h-0.1L83.5,10.7L83.5,10.7z M90.9,4L90.9,4
		L90.9,4v0.1h0.2l0,0V4L90.9,4L90.9,4z M77.9,6.2l0.1,0h0.1v0.2H78L77.9,6.2L77.9,6.2z M83,11L83,11l0.2,0l0,0l0,0v0l0,0l0,0H83V11
		L83,11L83,11z M90.6,4.2L90.6,4.2l0.2,0v0.2l-0.1,0h-0.1V4.2z M59.6,14.7L59.6,14.7l0.2,0v0.1l0,0l0,0l-0.1,0h-0.1v0L59.6,14.7
		L59.6,14.7z M88.1,6.1L88.1,6.1l0.2-0.1l0,0.1v0.1l0,0h-0.2L88.1,6.1L88.1,6.1z M87.4,9.1L87.4,9.1l0.3,0v0.1l0,0L87.4,9.1
		L87.4,9.1z M61.9,11.7L61.9,11.7l0.2,0l0,0l0,0v0H62v0.1l-0.1,0h-0.1l0,0L61.9,11.7L61.9,11.7L61.9,11.7z M84.6,3.2L84.6,3.2
		L84.6,3.2l0.3,0.1l0.1,0V3.2l-0.1,0L84.6,3.2L84.6,3.2z M64.4,9.2L64.4,9.2l0.1,0l0,0v0.1l0,0l-0.1,0h-0.1L64.4,9.2L64.4,9.2
		L64.4,9.2z M90.8,6L90.8,6L90.8,6L90.8,6l-0.1,0.2h0.2l0.1,0l0,0V6l0,0l0,0L90.8,6L90.8,6z M70.2,10.9L70.2,10.9l0.2,0v0.1l0,0
		L70.2,10.9l0,0.2l-0.1,0h-0.1v-0.1L70.2,10.9L70.2,10.9z M82.8,4.2L82.8,4.2L82.8,4.2l0.2-0.1l0,0v0.1l-0.1,0h-0.1L82.8,4.2
		L82.8,4.2z M75.7,7.2L75.7,7.2l0.1,0l0.1,0v0.1l0,0h-0.1v0.1h0l0,0l-0.1,0L75.7,7.2L75.7,7.2z M71.6,15.8L71.6,15.8l0.2,0l0.1,0
		l0,0v0h-0.1V16l0,0h-0.2V15.8z M80.4,13.3L80.4,13.3l0.2,0v0.2l-0.1,0h-0.2l0,0L80.4,13.3L80.4,13.3z M92.1,3.5L92.1,3.5l0,0.1h0.2
		l0,0l0,0V3.5L92.1,3.5L92.1,3.5z M71.4,10.1V10h0.3l0,0v0.1l0,0l0,0l-0.1,0L71.4,10.1L71.4,10.1L71.4,10.1z M82.7,11.9v-0.2H83v0.1
		l0,0l0,0l-0.1,0L82.7,11.9L82.7,11.9z M68.8,8L68.8,8L68.8,8L69.1,8v0.2H69v0.1h-0.1l0,0V8z M64.5,12.2L64.5,12.2L64.5,12.2
		l0.2-0.1l0,0v0.1l-0.1,0l-0.1,0l0,0h-0.1l0-0.1L64.5,12.2L64.5,12.2z M81.5,12.6L81.5,12.6L81.5,12.6L81.5,12.6l0.1,0v0.1h-0.1v0.1
		h-0.3l0,0v-0.1l0,0l0,0L81.5,12.6z M91.1,6.6L91.1,6.6L91.1,6.6L91,6.7l0,0.1h0.1V6.7h0.1l0,0l0.1,0V6.6L91.1,6.6L91.1,6.6z
		 M77.4,5.4L77.4,5.4l0.2,0l0.1,0v0.1l0,0l-0.1,0l-0.1,0h-0.1l0,0L77.4,5.4L77.4,5.4z M62.5,10.6L62.5,10.6l0.2,0l0,0v0.1l0,0.1
		h-0.3L62.5,10.6L62.5,10.6L62.5,10.6z M89.7,6.8L89.7,6.8l0.3,0l0,0v0.1l-0.1,0l-0.1,0h-0.1l0,0V6.8z M84.4,5.4L84.4,5.4l0.4-0.1
		v0.1l0,0l-0.1,0h-0.2V5.4z M84.5,5.9L84.5,5.9l0.2,0l0,0v0l0,0l0,0.1l0,0l0,0l0,0h-0.3V6l0.1,0L84.5,5.9L84.5,5.9L84.5,5.9
		L84.5,5.9z M84.4,7.2L84.4,7.2l0.2,0l0.1,0l0,0l0,0v0h-0.1v0.1l0,0h-0.3l0,0L84.4,7.2L84.4,7.2z M62.6,11.5L62.6,11.5L62.6,11.5
		l0.1,0.2l0,0l0,0h-0.1v0.1l0,0h-0.2v-0.2l0.1,0L62.6,11.5L62.6,11.5L62.6,11.5z M78,5L78,5l0.2,0l0.1,0v0.1l0,0l-0.1,0H78l-0.1,0
		L78,5L78,5z M91.4,3.6L91.4,3.6l-0.2,0.1v0.2h0.1l0.2,0l0,0l0,0V3.6l0,0l0,0L91.4,3.6L91.4,3.6z M74.2,6.3L74.2,6.3L74.2,6.3
		l0.3-0.1v0.1l0,0l-0.1,0l0,0.1l-0.2,0H74V6.4L74.2,6.3L74.2,6.3L74.2,6.3z M78.1,7.6h0.2V7.6h0.1l0,0v0.1l0,0l0,0l0,0h-0.1v0.1
		l-0.2,0H78l0,0V7.8L78.1,7.6L78.1,7.6L78.1,7.6L78.1,7.6z M71.3,8.1L71.3,8.1L71.3,8.1h0.2l0,0v0.1h0.1l0,0v0.1h-0.1v0.1h-0.4
		L71.3,8.1L71.3,8.1L71.3,8.1z M70.7,8.5L70.7,8.5L71,8.4l0,0.1v0l0,0.1l-0.1,0h-0.1v0.1l-0.1,0h-0.2l0,0l0,0V8.6l0,0l0,0L70.7,8.5
		L70.7,8.5z M74.9,5.8L74.9,5.8L74.9,5.8L75,5.7l0,0l0,0V6l0,0H75v0.1l0,0l-0.1,0h-0.2l0,0V6l0,0l0,0l0,0L74.9,5.8L74.9,5.8
		L74.9,5.8z M70.8,10.4L70.8,10.4l0.2,0l0,0v0.2l0,0l0,0l0,0h-0.2v0.1l0,0l-0.1,0h-0.1l-0.1,0v-0.1h0.1v-0.1l0.1,0l0.1,0L70.8,10.4
		L70.8,10.4L70.8,10.4z M69.6,9.2L69.6,9.2l0.4,0l0,0v0.1l0,0h-0.1v0.1l0,0l-0.1,0l-0.1,0l0,0h-0.3l0-0.1V9.4l0,0l0,0L69.6,9.2
		L69.6,9.2L69.6,9.2z M89.2,7.5L89.2,7.5L89.2,7.5l0.3-0.1v0.2l0,0l0,0l-0.1,0l-0.1,0l0,0l0,0l-0.1,0h-0.2V7.8l0-0.1l0.1,0L89.2,7.5
		L89.2,7.5L89.2,7.5z M77.8,14.9l0.1,0h0.2v0.2l-0.1,0l-0.1,0h-0.1v0.1l-0.1,0l-0.1,0h-0.1l-0.1,0v-0.1h-0.1V15l0.1,0L77.8,14.9
		L77.8,14.9z M73.6,17.6L73.6,17.6l0.3,0l0.1,0l0.1,0v0.1l0,0l0,0l0,0l-0.1,0l-0.1,0h-0.1l-0.1,0l-0.1,0v-0.2L73.6,17.6L73.6,17.6
		L73.6,17.6z M70.5,20.2L70.5,20.2l0.3,0l0,0v0.1h0.1v0.2l0,0l0,0l-0.1,0h-0.4l-0.1,0v-0.2l0.1,0L70.5,20.2L70.5,20.2L70.5,20.2z
		 M76.1,6.3L76.1,6.3L76.1,6.3l0.2-0.1l0,0v0.2h-0.1v0.1l0,0l-0.1,0l0,0.1l-0.1,0h-0.1v0.1h-0.2V6.5l0.1,0l0,0h0.1V6.3L76.1,6.3
		L76.1,6.3z M62.5,11L62.5,11l0.4,0v0.1h0.1l0.1,0v0.2l-0.1,0l-0.1,0l0,0l-0.2,0h-0.1l0,0v-0.1h-0.1l0,0L62.5,11L62.5,11L62.5,11z
		 M83,6.2L83,6.2l0.4,0v0.1l0,0h-0.1v0.1l-0.1,0l-0.1,0H83v0.1l0,0h-0.1v0.1h-0.2V6.5h-0.1V6.4h0.1V6.3L83,6.2L83,6.2L83,6.2L83,6.2
		z M79.1,4.4L79.1,4.4l0.1,0l0.1,0v0.1l-0.1,0h-0.1v0.1l0,0l0,0l-0.1,0h-0.1v0.1l-0.1,0l-0.1,0h-0.3V4.7l0,0l0,0l0,0l0,0h0.1V4.5
		l0.1,0L79.1,4.4L79.1,4.4L79.1,4.4z M70.6,6.9L70.6,6.9l0.2,0V7l0,0l0,0l0,0h-0.1v0.1l0,0l0,0h-0.1v0.1l-0.1,0h-0.1v0.1h-0.1V7.4
		H70V7.2l0,0l0,0l0,0h0.1V7.1l0,0l0.1,0L70.6,6.9L70.6,6.9L70.6,6.9z M74.7,16.9L74.7,16.9l0.2,0l0,0l0,0v0h-0.1V17l-0.2,0l0,0l0,0
		l0,0h-0.1v0.2h0.1v0.1h-0.4l-0.1,0v-0.2l0,0l0.1,0l0.1,0l0,0l0,0l0.1,0L74.7,16.9L74.7,16.9z M81,5.6L81,5.6l0.2-0.1l0,0l0,0v0.1
		h-0.1v0.1l-0.1,0H81v0.1l0,0l-0.1,0l-0.2,0l0,0h-0.1V6h-0.1l0,0V5.9h-0.2V5.8h0.1l0,0h0.1l0.2,0l0.2,0l0,0L81,5.6L81,5.6z
		 M86.8,6.7L86.8,6.7l0.3,0l0,0l0,0v0h-0.1v0.1l0,0l0,0h-0.2v0.1l0,0l0,0h-0.1v0.1l0,0l-0.1,0h-0.1v0.1h-0.2V7.1h-0.1V7l0.1,0l0,0
		l0,0l0.1,0l0.1,0l0.1,0l0,0h0h0L86.8,6.7L86.8,6.7L86.8,6.7L86.8,6.7z M82.2,4L82.2,4L82.2,4l0.3-0.1l0,0v0.1l-0.1,0l-0.1,0l0,0
		l-0.1,0l-0.1,0h-0.1v0.1l-0.1,0H82v0.1l-0.1,0l-0.1,0l0,0l-0.1,0h-0.2l0,0V4.4l0,0l0,0l0,0l0,0l0.1,0l0.1,0h0.1V4.2l0.1,0l0.1,0
		h0.1L82.2,4L82.2,4L82.2,4z M86.4,9L86.4,9l0.3,0v0.2l-0.1,0l-0.1,0l0,0l0,0l0,0l-0.1,0h-0.1v0.1l0,0l-0.1,0h-0.3v0.2l0,0l0,0
		l-0.2,0l0,0h-0.2l0,0l0,0V9.6l0.1,0l0,0l0.1,0l0.2,0h0.1V9.4l0-0.1h0.1V9.2l0.1,0l0.1,0h0.1V9.1l0,0L86.4,9L86.4,9L86.4,9z
		 M69.7,7.6L69.7,7.6l0.5,0l0,0v0.2l0,0l0,0l-0.1,0l-0.1,0h-0.1V8l-0.1,0l0,0l0,0l0,0l0,0l-0.1,0l0,0l-0.1,0l0,0h-0.1v0.1h-0.2l0,0
		V8.1l0,0l0,0l0,0h0.1V8l0,0l0,0h0.1V7.8L69.7,7.6L69.7,7.6L69.7,7.6L69.7,7.6z M90.6,3.3L90.6,3.3l-0.2,0.1l0,0l-0.1,0l-0.1,0
		l-0.1,0l0,0l-0.1,0l-0.2,0l0,0l0,0l-0.1,0l-0.1,0v0.1l0,0h0.1l0.1,0l0,0l0.1,0l0.1,0l0.4,0l0,0l0.1,0l0.1,0V3.6h0.1l0.1,0l0.1,0
		V3.5h0.1l0.1,0l0,0V3.3l0,0l0,0L90.6,3.3L90.6,3.3L90.6,3.3z M75.6,16.1L75.6,16.1l0.2,0l0,0v0.1h-0.1v0.1l0,0.1l0,0l0,0l0,0.1
		l0,0.1h-0.1v0.1l0,0l-0.2,0l0,0.1l0,0H75l0,0l0,0l-0.1,0l-0.1,0v-0.1l0.1,0H75v-0.1l0.1,0l0.1,0l0.1,0l0,0l0-0.1l0,0l0-0.1l0,0l0,0
		L75.6,16.1L75.6,16.1z M79.3,6.9h0.2V6.8h0.1l0,0v0.1l0,0l0,0l0,0h-0.1v0.1l-0.1,0l-0.1,0l0,0.1l-0.2,0l0,0.1l0,0h-0.1v0.1l0,0l0,0
		h-0.1v0.1h-0.1l0-0.1V7.3h-0.1l0-0.1l-0.1,0V7.1h0.1V7.1l0,0l0.2,0l0-0.1l0.1,0L79.3,6.9z M79.6,6.3L79.6,6.3L79.6,6.3L80,6.2l0,0
		l0.1,0v0.1l0,0l0,0l0,0l-0.1,0l-0.1,0l0,0l0,0v0.1l0,0l0,0l0,0h-0.4V6.7h-0.3V6.6h-0.1V6.5h0.1V6.5l0.1,0l0.2,0h0.2V6.3l0,0
		L79.6,6.3z M68.7,8.4L68.7,8.4l0.4,0v0l0,0l0,0.1l0,0.1l0,0h-0.1v0.1l-0.1,0l0,0h-0.1v0.1l-0.1,0l0,0l0,0l-0.1,0h-0.1l0,0l0,0
		l-0.1,0h0l-0.2,0l0,0h0V8.9h-0.1V8.8l0,0l0,0l0,0l0-0.1l0.1,0l0.1,0h0.1V8.5l0.1,0H68.7L68.7,8.4z M76.9,15.3L76.9,15.3l0.2,0
		l0.1,0v0.1h0.2v0.1l0,0l-0.1,0l-0.2,0h-0.2v0.1h-0.1l0,0.1V16l0,0h-0.1v0.1h-0.2c0-0.1-0.3-0.1-0.3,0h-0.1V16l0-0.1H76v-0.1l0.1,0
		l0.1,0l0-0.1l0,0l0.1,0l0,0l0.1,0l0.1,0l0.1,0l0,0l0,0L76.9,15.3L76.9,15.3L76.9,15.3z M72.4,5.7L72.4,5.7l0.2,0l0,0l0,0v0.1h-0.1
		v0.1l0,0l-0.1,0l0,0.1h-0.1v0.1l0,0l-0.1,0l-0.1,0l0,0l-0.1,0l-0.1,0l-0.1,0l0,0l0,0.1l0,0.1l0,0.1h-0.1v0.1l-0.1,0l0,0l0,0l-0.1,0
		l0,0l-0.3,0l0,0h0l0,0l0,0h-0.1V6.7l0.1,0h0.1V6.6l0,0l0.1,0h0.1V6.5l0.1,0l0,0l0.1,0l0,0l0,0h0.1V6.2l0-0.1l0,0h0.1V6l0.1,0l0.1,0
		l0.1,0l0,0h0v0.1h0.1L72.4,5.7L72.4,5.7z M85.9,6.3L85.9,6.3l0.3,0l0.1,0l0,0l0,0l0.2,0l0,0v0.2l0,0l0,0l0,0h-0.2l0,0l-0.1,0h-0.2
		l0,0l0,0l0,0l0,0h-0.1v0.1l-0.1,0H85l-0.1,0V6.7h-0.1V6.7l0.1,0h0.2V6.6l0.4,0l0.1,0l0.1,0l0,0l0.1,0L85.9,6.3L85.9,6.3L85.9,6.3
		L85.9,6.3z M73.9,8.3L73.9,8.3l0.2,0l0.1,0v0.1l0,0l0,0l-0.1,0H74v0.1l-0.1,0l0,0h-0.1v0.1l-0.1,0l0,0h-0.1v0.1l-0.1,0l0,0l-0.1,0
		l-0.1,0l0,0v0.1l0,0l-0.1,0l0,0l-0.1,0l0,0l-0.1,0l0,0l-0.1,0l-0.1,0l0,0.1l0,0l-0.1,0l0,0h-0.2V9.5h-0.1v0l0,0l0,0l0,0l0-0.1
		l0.2,0l0,0l0,0l0,0l0.1,0h0.1V9.1l0,0l0.1,0l0-0.1l0.2,0l0-0.1h0.1V8.7l0-0.1l0.2,0l0,0l0,0l0,0h0.1V8.5l0,0L73.9,8.3L73.9,8.3
		L73.9,8.3L73.9,8.3z M91.5,5.2L91.5,5.2l0.3,0v0.1h0.1v0l0,0l0,0l0,0l0,0l0,0l-0.1,0h-0.1v0.1l-0.1,0l-0.2,0h-0.1v0.1l-0.1,0
		l-0.1,0h-0.3v0.1h-0.1v0.1l0,0l-0.1,0l0,0l0,0l-0.2,0l-0.2,0h-0.1v0.1l-0.1,0h-0.2l0,0V6.1l0,0h0.1V6l0.1,0l0.1,0l0.1,0l0,0l0.1,0
		h0.1V5.7l0.2,0h0.2V5.6l0,0l0,0h0.1V5.4l0.1,0l0.1,0h0.2V5.3L91.5,5.2L91.5,5.2z M85,4.5L85,4.5l0.2,0v0.1h0.1v0.1l-0.1,0l0,0.1
		l-0.1,0l0,0h-0.1v0.1l-0.1,0l-0.1,0l0,0l0,0l-0.1,0l-0.1,0h-0.1v0.1l-0.1,0l-0.2,0l0,0l-0.1,0l-0.1,0h-0.1v0.1l-0.1,0l-0.1,0h-0.1
		v0.1l-0.2,0l-0.1,0h-0.1v0.1l-0.1,0l-0.1,0H83v0.1l-0.2,0h-0.3V5.6l0.2,0l0.1,0l0.1,0l0,0l0,0l0,0l0,0l0,0l0.1,0h0.1V5.2l0.1,0l0,0
		h0.1V5.1l0.1,0l0.1,0h0.2V4.9l0.1,0l0.1,0l0-0.1l0.1,0l0,0h0.1V4.7l0.1,0l0.1,0l0.1,0l0,0l0.2,0L85,4.5z M77.1,5.1L77.1,5.1l0.2,0
		v0.1h0.1v0.2l-0.1,0l-0.1,0h-0.1v0.1l-0.1,0h-0.2v0.1l0,0l0,0l0,0.1l-0.1,0l-0.1,0h-0.1v0.1l0,0h-0.1v0.1l0,0l-0.1,0l-0.1,0l0,0
		l0,0l0,0H76v0.1l-0.1,0l-0.1,0l0,0l0,0l0,0l0,0l0,0l0,0l0,0l0,0h-0.1v0.1l-0.1,0h-0.1v0.1l0,0l0,0h-0.1v0.1l0,0l0,0h-0.2v0.1h-0.4
		l0,0V6.8l0,0h0.1V6.7l0,0l0.2,0l0,0l0.1,0l0,0H75V6.5l0-0.1l-0.1,0l0,0V6.2l0.1,0h0.2h0.1h0.1V6.1l0.1,0h0.1V6l0.1,0l0.1,0l0.1,0
		l0,0l0.1,0l0,0h0.1V5.7l0,0l0.1,0l0,0l0,0l0.1,0l0.1,0l0.1,0l0,0l0.1,0h0.1V5.3l0,0h0.1V5.2L77.1,5.1L77.1,5.1z M73.1,18.1
		L73.1,18.1l-0.2,0.1l0,0l0,0l0,0l0,0l0,0l0,0v0.1h-0.1l-0.3,0l0,0l0,0v0.1h-0.1l0,0l0,0v0.1H72l0,0.1V19h-0.1l0,0l-0.1,0l0,0.1
		l-0.1,0l0,0v0.1h-0.1l0,0.1l-0.1,0l0,0v0.1h-0.1l0,0l0,0v0.1h-0.1l0,0.1l0,0l0,0l-0.1,0l0,0v0.1h-0.1l0,0l0,0.1v0.1H71l0.1,0l0,0
		l0,0l0,0l0.1,0l0,0l0.1,0l0,0l0,0v-0.1h0.1l0.1,0l0-0.1l0.1,0l0,0l0,0v-0.1h0.1l0,0l0.1,0l0-0.1l0.1,0l0,0l0-0.1v-0.1h0.1l0.1,0
		l0,0l0.1,0l0,0l0.1,0l0,0l0,0l0-0.1v-0.1h0.1l0.1,0v-0.1H73v-0.1h0.1l0.1,0l0,0l0,0l0-0.1l0.1,0l0,0l0,0v-0.1l0,0l0,0h-0.1v0.1
		H73.1z M61.4,11.9L61.4,11.9l0.2,0l0,0l0.1,0v0.2l0,0l0,0l-0.1,0l0,0l0,0l0,0l0,0l0,0h-0.1v0.1l0,0l0,0h-0.1v0.1l0,0.1l-0.1,0l0,0
		l-0.1,0l0,0l0,0l0,0l0,0l0,0l0,0.1l0,0l0,0.2l-0.2,0h-0.1v0.2l-0.2,0l-0.1,0l0,0.1l0,0l0,0.1l0,0l0,0.1l-0.1,0l0,0.2h-0.1v0.1
		l-0.1,0h-0.3l0,0l0,0V14l0,0l0,0l0-0.2l0,0l0,0l0,0l0,0l0,0l0,0l0,0l0,0l0,0l0,0l0,0l0,0l0,0l0.1,0l0.1,0l0-0.1v-0.1v-0.2l0.1,0
		l0,0h0.1v-0.1l0,0l0,0l0,0l0,0l0-0.1l0,0l0.1,0l0,0l0.1,0l0.1,0l0-0.1l0.1,0l0,0l0,0l0,0l0.1,0l0-0.1l0,0h0.1L61.4,11.9L61.4,11.9
		L61.4,11.9z M89.9,4.2L89.9,4.2L89.9,4.2h0.1l0.1,0v0.4l0,0l0,0l-0.1,0l-0.1,0l-0.2,0l0,0h-0.1l0,0h-0.2l0,0h-0.1V5l-0.1,0h-0.2
		l0,0h0l-0.1,0l0,0l0,0l0,0l-0.1,0v0.1v0h-0.1v0.1l0,0.1l0,0l-0.1,0l-0.1,0l-0.1,0l0,0H88v0.1l-0.1,0l0,0l-0.1,0l-0.1,0l0,0.1
		l-0.1,0h-0.1v0.1l-0.1,0l-0.1,0l-0.1,0l0,0l-0.1,0l-0.1,0l-0.1,0l0,0l-0.1,0l-0.2,0h-0.1l0,0V6.2l0,0l0,0l0,0l0,0l0-0.1l0.1,0
		l0.1,0l0.1,0l0,0l0.1,0l0.1,0h0.1l0-0.1V5.5l0,0h0.1V5.4l0.1,0l0.1,0l0.1,0l0,0l0,0l0,0l0,0l0.1,0l0.1,0l0-0.1l0,0l0.1,0l0,0l0,0
		l0.1,0l0.2,0l0.1,0l0,0h0.3V4.7l0-0.1l0,0l0.1,0h0.2V4.5h0.1V4.5l0,0l0,0l0,0l0.1,0l0,0l0.1,0l0.1,0L89.9,4.2z M85.5,7.3L85.5,7.3
		L85.5,7.3l-0.2,0.1l0,0l0,0v0.1h-0.1h-0.1h-0.1l-0.1,0v0.1h-0.1l0,0v0.1h-0.3l-0.1,0V8h-0.1l0,0l-0.2,0l-0.1,0v0.2h-0.1l-0.3,0v0.1
		h-0.1l-0.1,0l0,0l0,0.1v0.1h-0.1v0.1h-0.1l0,0v0.1H83l0,0l-0.1,0v0.1h-0.1l-0.1,0V9h-0.1l-0.1,0l-0.1,0v0.1h-0.2l-0.1,0l-0.1,0v0.1
		h-0.1l0,0v0.1l0,0.1l0,0l0,0h0.2l0.2,0V9.4h0.2l0.1,0l0,0l0,0l0.1,0l0.1,0l0,0V9.2H83l0,0l0.1,0l0,0l0,0l0.1,0l0.1,0l0,0l0,0l0,0
		l0,0l0.4,0l0.1,0l0,0l0-0.1l0,0l0,0l0,0l0.1,0l0.1,0V8.4h0.1l0,0l0.1,0V8.3h0.1l0,0V8.2V8.1V8h0.1l0.4,0l0,0V7.9h0.1V7.8h0.1l0.1,0
		l0-0.1l0.1,0l0,0l0.1,0V7.5H86l0,0V7.4l0-0.1l-0.1,0L85.5,7.3L85.5,7.3z M88.9,4.1L88.9,4.1L88.9,4.1l-0.1,0.1l0,0.1h-0.1l-0.3,0
		v0.1h-0.1l-0.1,0l0,0l0,0l0,0l0,0v0.1H88l-0.2,0l-0.1,0v0.1h-0.1l-0.1,0l-0.1,0l0,0l-0.2,0l-0.1,0l-0.1,0l0,0l-0.2,0l-0.1,0v0.1
		h-0.1l-0.1,0l-0.1,0v0.1h-0.2l0,0v0.1h-0.1l0,0l0,0v0.1H86l0,0l0,0v0.1h-0.1l0,0l-0.1,0v0.1h-0.1l-0.1,0l0,0v0.1h-0.1l-0.1,0
		l-0.2,0V6H85V6h-0.1V6h-0.1l0,0v0.1h-0.1l-0.1,0l0,0v0.1h-0.1l-0.2,0l-0.1,0l0,0l0,0l0,0l0,0l0,0v0.1H84l-0.1,0l0,0l-0.1,0l-0.1,0
		l0,0l0,0l-0.1,0l-0.1,0v0.1h-0.1h-0.2H83l-0.2,0h0h-0.1l-0.1,0v0.1l0,0h0.1l0.1,0V7h0.1H83H83v0.1l0,0.1H83l0,0l-0.1,0v0.1h-0.1
		l0,0l-0.1,0l0,0l-0.1,0l-0.2,0l-0.2,0V7.4h0.1l0,0V7.3h0.1l0.1,0l0,0V7.1l0-0.1l-0.4,0l0-0.1l0.1,0l0,0V6.9h0.1v0l0,0l0,0H82
		l-0.1,0v0.1h-0.1l0,0l-0.1,0V7h-0.1l-0.1,0l-0.1,0l0,0l0,0.1l0,0v0.1h-0.1l-0.1,0l-0.1,0l0,0.1l0,0l0,0.1l0,0v0.1h-0.1l-0.2,0l0,0
		v0.1h-0.1l0,0l0,0v0.1h-0.1l-0.1,0l-0.1,0l0,0l-0.1,0l0,0l-0.1,0l0,0l-0.1,0l-0.1,0v0.1h-0.2l0,0l0,0.1l-0.1,0l-0.1,0v0.1H79l0,0
		l0,0v0.1h-0.1l-0.1,0l-0.1,0v0.1h-0.1l0,0l-0.1,0l0,0l-0.1,0l0,0V9h-0.1l-0.1,0H78L78,9l0.1,0l0,0V8.9l0,0H78v0.1l-0.2,0l0-0.1
		l0-0.1l0.1,0l0.1,0V8.7h0.1l0.1,0h0.1h0.2l0-0.1l0,0l0.1,0l0-0.2l0,0l0.1,0l0,0V8.1h0.1l0,0l0-0.1l0.1,0l0.2,0l0-0.1l0.1,0l0-0.1
		l0,0l0.1,0l0.1,0V7.6h0.2l0.1,0l0.1,0V7.4H80l0.3,0V7.3h0.1l0,0l0,0V7.1h0.1l0.2,0l0.1,0V7H81L81,7l0-0.1l0,0l0,0l0.1,0V6.7h0.1
		l0.1,0l0.1,0l0,0l0.1,0l0,0l0-0.1l0.1,0l0,0V6.4H82V6.3l0.1,0l0.2,0l0,0V6.1l-0.1,0h-0.3l-0.1,0v0.1h-0.3l-0.1,0l-0.1,0l0,0.1
		l-0.1,0l0,0l0,0.1v0.1h-0.1l0,0.1l-0.1,0l-0.2,0l0,0l-0.1,0l-0.1,0l-0.2,0l0,0l-0.1,0l-0.1,0l0,0.1l-0.1,0l0,0V7H80L80,7l-0.1,0
		l0,0l-0.1,0l0,0l-0.1,0l0,0l-0.1,0l-0.1,0l-0.2,0l0,0l-0.1,0l-0.1,0l0,0v0.1H79l0,0l0,0.1v0.1h-0.1v0.1h-0.1l-0.1,0l-0.1,0v0.1
		h-0.1l0,0l0,0V8h-0.1l-0.1,0l-0.1,0l0,0l-0.1,0l-0.1,0v0.1h-0.1h-0.1h-0.1V8.2l0,0l0,0l0,0h-0.2h-0.1h-0.1l-0.2,0l0,0l-0.1,0
		l-0.2,0l0,0l0,0l-0.1,0l0,0l0,0.1l-0.1,0v0.1h-0.4l-0.3,0h0l0-0.2H76l0,0l0,0l0.3,0l0.1,0l0.1,0V8.1l-0.1,0l0-0.1V7.9l0.1,0l0,0
		l0.1,0l0.1,0V7.6l-0.1,0l0-0.1h-0.1l0-0.1V7.3h0.1l0.2,0H77l0,0h0.5V7.2h0.1c0-0.1,0.1-0.1,0.2,0h0.1V7.1H78v0l0,0l-0.1,0h-0.2V7
		h0.1l0.1,0L78,7h0.1v0.1h0.3l0,0l0.1,0l0,0V6.7V6.6l0-0.1l0-0.1l0,0l0,0l0.1,0l0.1,0l0,0l0.1,0l0.1,0l0,0l0,0l0,0l0,0l0,0l0,0
		l0.1,0l0.1,0l0.1,0l0,0l0.1,0l0.1,0V5.8h0.1l0,0l0,0l0,0l0,0l0,0l0,0l0,0l0.1,0l0.1,0l0.1,0l0,0l0.1,0l0,0l0.1,0V5.2h0.2l0,0l0,0
		V5.1h0.1l0,0V4.9l0,0l0,0h-0.1l0,0l-0.1,0l-0.1,0l0,0V5h-0.1l-0.1,0l0,0l0,0.1l-0.1,0l0,0l0,0l-0.1,0l0,0l0,0l-0.1,0l-0.1,0l0,0
		l0,0l-0.1,0l-0.1,0l-0.1,0v0.1h-0.1l-0.1,0l-0.1,0v0.1l0,0V5.6h0l0,0l-0.2,0l-0.1,0l-0.1,0l0,0l-0.1,0l0,0l0,0v0.1h-0.1l-0.1,0l0,0
		l0,0v0.1h0.3l0,0v0.1h-0.1l-0.1,0l-0.2,0v0L78,6.5l-0.1,0l0-0.2h-0.3l0,0.1l-0.1,0l-0.1,0l-0.1,0v0.1h-0.1l0,0l0,0l0,0l0,0l0,0l0,0
		l0,0v0.1h-0.1l0,0.1l-0.1,0l0,0.1l-0.1,0l-0.1,0l-0.1,0v0.1h-0.1l-0.1,0l0,0l0,0l-0.2,0l-0.1,0v0.1h-0.1l-0.1,0v0.1h-0.1l-0.1,0
		v0.1h-0.1h-0.1h-0.1V7.6l-0.1,0h-0.1l-0.2,0v0.1h-0.1l0,0l0,0v0.1h-0.1v0.1H75l0.3,0c0-0.1,0.2-0.1,0.3,0h0.1v0.1l-0.3,0h-0.2
		l-0.1,0L75,8V8h-0.1l0,0l0,0v0.1h-0.1l0,0v0.1h-0.1l-0.1,0l-0.1,0l0,0.1l-0.1,0l0,0l0,0l-0.1,0l-0.1,0l-0.1,0v0.1H74l-0.1,0l0,0
		v0.1h-0.1l-0.1,0l0,0l0,0l0,0l-0.2,0l0,0l0,0l0,0l-0.1,0l0,0.1l-0.1,0l-0.1,0l0,0l0,0l-0.1,0l0,0.1l0,0l0,0l-0.1,0v0.1h-0.1v0.1
		h-0.1l0,0l-0.1,0l0,0v0.1h-0.1l0,0v0.1h-0.1l-0.2,0l0,0l0,0v0.1h-0.1l0,0l0,0l0,0l0,0v0.1h-0.1l0,0l-0.1,0l0,0l-0.1,0l-0.1,0l0,0
		l-0.1,0l-0.1,0l-0.1,0l0,0.1v0.1h-0.1l0,0l-0.2,0l-0.1,0l-0.1,0l0,0.1v0.1h-0.1l0,0v0.1h-0.1v0.1h-0.1l0,0l-0.1,0v0.1h-0.1l-0.1,0
		v0.1h-0.1l0,0l0,0v0.1h-0.1l-0.1,0v0.1h-0.1l0,0l0,0l0,0l0,0l0,0l0,0l0,0l0,0l-0.4,0l0,0l0,0v0.3h-0.1l-0.2,0l0,0v0.1l0,0l0,0
		l0.1,0h-0.2v-0.1v-0.1l0,0v-0.2h-0.1l0,0l0,0l-0.2,0l-0.2,0l-0.2,0l0-0.1l0-0.1l0,0l0-0.1l0,0v-0.1h0.1l0,0l0.1,0l0,0l0,0V12H68
		l0,0l0.1,0l0.1,0l0.1,0l0-0.1l0,0l0,0l0.1,0l0,0v-0.1h0.1l0,0l0.1,0l0,0l0.1,0l0,0l0.1,0l0-0.1l0,0l0,0l0.2,0l0,0l0-0.1V11h0.1l0,0
		l0,0v-0.1h0.1l0,0l0,0v-0.1h0.1l0.2,0l0,0l0.1,0l0,0l0,0l0-0.1l0.1,0l0,0l0,0l0.1,0l0.1,0v-0.1h0.1l0.1,0l0,0l0,0l0-0.1l0,0l0,0
		l0.2,0l0,0l0.1,0V9.8h0.1l0-0.1V9.5h0.1l0.1,0h0h0.3l0-0.1l0.1,0l0,0V9.3h0.1l0,0V9.2H72l0,0l0.1,0l0,0l0.1,0l0.1,0l0.1,0V8.9h0.1
		l0-0.1l0.1,0l0.1,0V8.7h0.1l0,0l0,0V8.5H73l0.2,0l0,0l0.1,0l0,0l0-0.1l0-0.2l0,0l0,0l0,0V7.9h0.2l0.1,0l0.1,0V7.7h0.1l0.1,0V7.6
		h0.1l0,0l0.1,0V7.5h0.1l0,0l0,0l0,0l0.1,0l0.1,0V7.3H75l0,0V7.1l-0.1,0h-0.1l-0.2,0l0,0l-0.1,0V7.1l0,0l0,0h-0.1V6.9h-0.3l0,0l0,0
		l0,0.1l0,0v0.1h-0.1l-0.1,0l0,0l0,0l-0.1,0l-0.1,0l0,0l-0.2,0l-0.1,0v0.1h-0.1l0,0l0,0l-0.2,0l0,0v0.1h-0.1h-0.2h-0.3l0,0.1l-0.1,0
		H72l-0.2,0l0,0h-0.1l0,0l0,0V8h0.1v0.1h0h0l0.1,0l0,0.1v0.1H72v0.1v0.1l-0.1,0l0,0v0.1h-0.1l-0.1,0h-0.2h-0.4l0,0v0.2l0,0l0,0v0.1
		l-0.2,0l-0.1,0l0,0.1v0.1h-0.1l0,0l0,0v0.1h-0.1l0,0l-0.2,0v0.1h-0.3l-0.1,0v0.1l0,0l0,0.1h-0.2l0,0l0,0l0,0h-0.3h-0.2H69h-0.2
		l-0.2,0l-0.1,0l0,0l0,0.1l0,0v0.1h-0.1l-0.1,0l0,0l0,0l0,0l-0.1,0l-0.1,0v0.1h-0.1l0,0l-0.1,0l0,0l-0.1,0l0,0v0.1h-0.1l0,0.1v0.1
		h-0.1l-0.1,0l0,0v0.1h-0.1l0,0V11H67V11H67l0,0l-0.1,0l-0.1,0l-0.1,0l0,0l-0.1,0l0,0v0.1h-0.1l0,0l0,0v0.1h-0.1l-0.1,0l0,0.1l0,0
		l0,0l0,0l0,0v0.1h-0.1l-0.1,0l-0.2,0l0,0l-0.2,0l0,0v0.1h-0.1l-0.1,0l-0.1,0v0.1H65l-0.1,0l0,0l0,0l-0.1,0l-0.1,0l0,0l0,0.1l0,0
		l0,0l0,0l0,0l-0.1,0v0.1h-0.1l0,0v0.1h-0.1l-0.1,0l0,0l0,0l-0.1,0L64,13l0,0l0,0l0,0l0,0l-0.1,0l0,0l0,0l0,0l0,0l0,0l0,0l0,0l0,0
		l-0.1,0l-0.1,0l0,0l0,0.1l-0.1,0l0,0l0,0l0,0l0,0.1v0.1h-0.1l0,0l-0.1,0l0,0.1l0,0l0,0.1l-0.1,0l0,0l0,0.1l0,0v0.1h-0.1l0,0v0.1
		h-0.1l0,0v0.1h-0.1v0.1h-0.1v0.1h-0.1l-0.1,0v0.1H62l0,0l0,0.1l-0.1,0l0,0l0,0.1l-0.1,0l0,0l0,0.1l-0.1,0l0,0l0,0.1l0,0l0,0l-0.1,0
		l-0.1,0l-0.3,0l0.1,0v-0.2h0.1l0,0l0-0.1l0-0.2l0,0l0-0.1l0.1,0l0,0l0-0.1l0.3,0l0.1,0v-0.1h0.1v-0.1v-0.1l0-0.2l0.1,0l0,0v-0.1
		h0.1l0,0l0,0l0,0l0,0l0,0l0,0l0,0l0,0l0,0l0,0l0-0.2l0,0l0,0l0,0l0.1,0l0,0l0.1,0v-0.1h0.1l0,0l0-0.1v-0.1H63l0.1,0l0-0.1l0-0.1
		l0,0l0-0.1l0-0.1l0,0l0.1,0v-0.1h0.1l0.3,0l0,0l0,0v-0.1l0,0l0-0.1h0.1l0.2,0v-0.1h0.3l0.1,0l0,0v-0.2l-0.2,0l0.1,0l0.1,0l0.1,0
		l0,0l0,0v-0.1h0.4l0.1,0v-0.1h0.1l0.1,0l0.1,0v-0.1h0.1v-0.1l0,0l-0.3,0l0,0l0,0l0,0l0,0l0.1,0v-0.1h0.1l0,0l0.1,0l0,0l0-0.1V11
		h0.1l0.1,0l0.1,0l0-0.1l0.1,0l0,0v-0.1H66l0.1,0l0.1,0l0,0l0,0l0,0l0,0l0,0l0,0l0,0l0.1,0l0-0.1l0.1,0l0-0.1l0,0l0,0l0,0l0,0l0.1,0
		l0.1,0V9.9h0.1l0,0V9.8h0.1l0.1,0l0.1,0V9.7h0.1l0.1,0l0.1,0V9.5h0.1l0.1,0l0,0l0,0l0.1,0l0,0V9.3h0.1V9.2H68V9.1l-0.1,0h-0.1
		l-0.2,0l-0.1,0v0.1h-0.1l-0.2,0v0.1h-0.1l-0.3,0v0.1h-0.1l-0.2,0l0,0l0,0l-0.1,0l0,0l-0.1,0v0.1h-0.1v0.2h0.1V10h-0.1l0,0l0,0
		l-0.2,0h-0.1H66l0,0l-0.2,0v0.1h-0.1l-0.1,0l0,0l0,0l0,0l0,0.1l0,0v0.1h-0.1v0.1h-0.1l-0.1,0l-0.1,0v0.1l0,0h0.2v-0.1h0.1v-0.1h0.1
		v-0.1h0.1l0.2,0l0,0h-0.1l0,0l-0.1,0l0,0.1l-0.1,0l0,0.1l-0.1,0h-0.2l-0.1,0h-0.2l-0.1,0l-0.1,0l0,0l0,0.1v0.1l0,0l0,0l0,0h0.2v0.1
		h-0.1h-0.2h-0.2l0,0v0.1h-0.1l-0.1,0l0,0v0.1H64l0,0v0.2l0,0l0.1,0H64h-0.3l0,0v0.1h-0.2l-0.1,0l0,0l0,0l-0.1,0v0.1h-0.1l-0.1,0
		l0,0l0,0l0,0l-0.1,0l0,0v0.1h-0.1l0,0l0,0v0.1h-0.1v0.1h-0.1v0.1h-0.1l0,0l0,0v0.1h-0.1v0.1h-0.1l0,0l0,0V13h-0.1l0,0l-0.1,0l0,0.1
		l0,0.1l0,0l0,0l0,0l0,0l0,0l-0.1,0l-0.1,0v0.1h-0.1l0,0v0.1h-0.1l-0.1,0l0,0l0,0l0,0l0,0.1v0.1h-0.1l-0.1,0V14h-0.1l0,0l-0.1,0l0,0
		l0,0v0.1h-0.1l0,0l0,0l0,0l-0.1,0l0,0.1l0,0l0,0.1l0,0.1l-0.1,0l0,0v0.1h-0.1l0,0v0.1H60l0,0.1v0.1l0.3,0l0,0.1l0,0l-0.2,0l0-0.1
		h-0.3l-0.1,0l0,0l0,0l0,0.1l0,0.1l0,0l0,0.1l0,0l0,0l0,0l0,0l-0.1,0l0,0.1l-0.1,0l-0.1,0l0,0l0,0l0,0l0,0l0,0l0,0.1l0,0v0.1h-0.1
		l0,0l0,0v0.1h-0.1l0,0l0,0v0.1h-0.1v0.1h-0.1l0,0l0,0v0.1h-0.1l0,0.1l0,0l0,0l-0.1,0l0,0.1l0,0l0,0l0,0.1l0,0v0.1h-0.1l-0.1,0v0.1
		h-0.1l0,0v0.1h-0.1l0,0.1l0,0l-0.1,0l0,0h0h-0.1v0.1h-0.2l0,0.1v0.1l0,0h0.1V18h-0.1l0,0v0.1H57l0,0l-0.1,0l0,0l0,0.1l0,0l0,0
		l0,0.1l-0.1,0l0,0l0,0l0,0v0.2h-0.1l0,0l0,0v0.1h-0.1l-0.1,0V19h-0.1l0,0.1v0.1h-0.1l0,0.1l0,0.1v0.1H56l0,0v0.1h-0.1l-0.1,0l0,0
		l0,0h0l0,0l0-0.2l0-0.1v-0.1h0.1l0,0l0-0.1v-0.2H56l0,0l0,0l0,0l0-0.1l0,0v-0.1h0.1l0,0l0-0.1l0,0l0,0l0,0l0-0.1v-0.1h0.1l0-0.2
		l0-0.1l0.1,0l0,0l0-0.1l0.1,0l0-0.1l0-0.1l0,0l0-0.1l0,0v-0.1H57l0,0l0,0v-0.1h0.1l0,0l0,0l0-0.1l0,0l0-0.1l0-0.1l0.1,0l0.1,0v-0.1
		h0.1l0,0v-0.1h0.1l0-0.1l0-0.1l0,0l0,0l0,0l0,0l0,0l0,0l0,0l0-0.1V16H58l0,0l0,0l0,0l0,0l0,0v-0.2h0.1v-0.1h0.1l0.1,0v-0.1h0.1l0,0
		l0-0.1v-0.1h0.1l0.1,0l0,0l0,0l0.1,0l0.1,0l0-0.1l0-0.1l0,0l0,0l0.1,0v-0.2h0.1l0-0.1v-0.1l0,0h-0.1l0,0l-0.1,0v0.1h-0.1l-0.1,0
		l0,0l0,0.1l0,0l0,0l0,0l0,0l0,0l0,0l0,0l0,0l0,0l0,0.1l0,0.1h0h-0.2l0,0l0,0.1l0,0.1l0,0l0,0l0,0l0,0l0,0l-0.1,0l-0.1,0v0.1h-0.1
		l-0.1,0l-0.1,0v0.1h-0.1l0,0v0.1h-0.1l0,0l0,0.1V16h-0.1l-0.1,0l0,0l0,0l-0.1,0l0,0l0,0.1l0,0l0,0l0,0l0,0v0.1h-0.1l0,0.1l0,0.1
		v0.1h-0.1l0,0l0,0V17h-0.1l0,0.1v0.1h-0.1l0,0l-0.1,0l-0.1,0l0,0h-0.1l-0.1,0v0.2h0.1v-0.1l0.1,0l0,0.2l-0.1,0l-0.1,0l0,0l0,0.1
		l0,0.1l0,0l0,0l-0.1,0v0.1h-0.1v0.1h-0.1l0,0.1l0,0l0,0l0,0.1l0,0l-0.1,0v0.1H55l0,0.1l0,0.2v0.1h-0.1l0,0l0,0V19h-0.1l0,0.1l0,0.1
		l0,0l0,0.1l0,0.1l-0.1,0l0,0.1l0,0.1l0,0l0,0.1l0,0.1v0.1h-0.1l0,0l0,0.1l0,0l0,0l-0.1,0v0.1h-0.1v0l0,0l0,0.1h-0.1l0,0v0.1h-0.1
		l0,0l-0.2,0v0.1h-0.1l0,0l0,0V21h-0.1l0,0.1l0,0v0.1h-0.1l0,0.3v0.2v0.2l0,0.1l0,0.1l0,0l0,0.2v0.4l0,0.1h0.4v0.1l0,0l0,0l0.2,0
		v0.2l0,0.1l0,0.1l0,0l0,0.1l0,0.1l0,0l0,0l0,0l0,0.1v0.2h-0.1l0,0.1l0,0.1v0.3l0,0.1l0,0l0,0l0,0l0,0l0,0l0,0l0,0l0,0.1l0,0l0.1,0
		l0.3,0l0,0l0,0l0,0.8l0,0.1V26v0.2l0.1,0l0.1,0l0,0l0,0l0,0l0.1,0l0.1,0v0.4l0,0l0,0h0.1v0.1l0.1,0l0.3,0h0.1V27h0.3l0,0h0.1l0,0
		l0.1,0l0.1,0l0.1,0l0,0.1l0.1,0l0,0.1l0,0.1l0,0l0,0l0,0l0,0l0,0.1l0,0.1l0,0l0,0l0,0l0,0l0,0l0,0l0.1,0l0.1,0l0,0.1l0.1,0l0,0.1
		l0,0.1l0,0l0,0.2l0,0l0,0l0,0l0,0.4l0,0h0.1v0.1l0,0.1l0.1,0l0.1,0l0,0l0,0l0,0.2l0,0.1l0,0h0.1v0.1l0,0l0,0l0,0l0,0l0,0l0,0l0.1,0
		l0,0h0.1v0.1l0.1,0l0.1,0l0,0l0,0l0,0l0.1,0h0.1v0.1l0.1,0h0.1v0.1l0,0l0,0.1l0,0l0,0.1l0,0.1l0,0l0,0h0.3v-0.1h0.2l0.1,0l0,0
		l0-0.1l0.1,0l0,0l0-0.1l0-0.1v-0.1h0.1l0,0l0.1,0l0-0.1l0,0l0-0.2l0,0l0-0.1l0-0.1l0,0l0,0l0,0h0.4h0.1v0.3h-0.1l0,0.1l0,0.2l0,0
		v0.1l0,0l0,0l0,0.1l0,0.1l0,0l0,0.1l0,0.1l0,0.2l0,0l0,0l0,0h0.1v0.2l0,0.1l0,0.1H61v0.1h0.5l0,0l0.1,0h0.1l0.1,0l0,0l0,0l0,0h0.1
		v0.1h0.2l0,0l0.1,0l0.1,0l0-0.1l0-0.2v-0.1h0.1l0,0l0-0.1l0.1,0l0-0.1l0,0l0,0l0,0l0,0l0,0l0,0l0,0l0,0l0,0l0,0l0,0l0,0l0-0.1l0,0
		l0-0.1l0-0.1V30v-0.3l0-0.1l0,0l0,0l0-0.2v-0.1h0.1l0-0.3l0,0v-0.1h0.1l0-0.1l0.1,0l0-0.1l0-0.1l0-0.1l0,0l0-0.3l0,0v-0.1h0.1
		l0-0.2l0-0.1v-0.1h0.1l0,0l0,0v-0.1h0.1l0-0.1l0-0.1l0-0.1l0,0l0-0.1l0,0l0,0l0,0l0-0.1v-0.1h0.1l0-0.1l0,0l0,0l0,0l0-0.1l0,0
		l0-0.1l0,0l0-0.1v-0.1h0.1l0,0l0-0.1V26h0.1l0-0.1l0,0l0-0.2l0,0l0.1,0v-0.1h0.1l0,0l0,0v-0.1h0.1l0,0l0.1,0l0-0.2l0.1,0l0-0.1
		v-0.1h0.1l0,0l0.1,0l0,0l0.1,0l0,0l0,0v-0.1h0.1l0-0.2v-0.1h0.1l0.1,0l0-0.1l0-0.1l0,0v-0.1h-0.3h-0.2l-0.1,0l0-0.1l0,0l0,0l0,0
		l0,0l0.1,0l0-0.1v-0.1h0.1h0.2l0,0.1h-0.1l0,0l0,0l0,0v0.1l0,0l0,0H67l0,0l0,0l0-0.1l0,0l0,0l0,0v-0.1h0.1l0,0l0,0v-0.1h0.1l0,0
		l0-0.1l0-0.1l0,0l0.1,0l0,0l0,0v-0.1h0.1l0,0l0,0V23h0.1v-0.1H68l0.1,0l0,0l0-0.1l0,0l0,0l0,0l0,0l0.1,0v-0.1h0.1l0,0l0-0.2l0,0
		l0.1,0l0,0l0,0l0,0l0,0l0,0l0,0l0.1,0l0-0.1l0,0l0,0l0,0l0.1,0v-0.1h0.1l0,0l0,0l0,0l0,0l0-0.1v-0.1h0.1l0.1,0v-0.1h0.1l0,0l0-0.1
		l0.1,0l0,0v-0.1h0.1l0,0l0,0l0,0l0,0l0,0l0,0l0,0l0,0l0,0l0,0l0,0l0,0l0,0v-0.2l0,0H70l-0.1,0l0,0l0,0v0.1h-0.1v0.1h-0.1l0,0
		l-0.1,0l0,0l-0.1,0l-0.1,0l0,0.1l-0.1,0l0,0v0.2h-0.2l0,0l0,0l-0.1,0l0,0l0,0v0.1h-0.1l0,0.1l-0.1,0l0,0.1l0,0l0,0l0,0l0,0.1
		l-0.1,0V22h-0.2l0,0l0,0.2v0.1h-0.1l0,0l0,0v0.1h-0.1v0.1h-0.1l-0.1,0l0,0v0.1h-0.1l0,0l0,0.1l0,0l0,0l0,0l-0.1,0l-0.1,0v-0.1v-0.1
		v-0.1h0.1l0.1,0v-0.1h0.1l0,0l0,0l0,0l0-0.1l0,0l0-0.1l0,0l0,0l0.1,0l0.1,0v-0.1h0.1l0,0l0,0v-0.2h0.1l0.1,0l0,0l0-0.1l0,0l0,0l0,0
		l0.1,0l0,0l0,0l0,0l0.1,0v-0.1h0.1l0-0.1l0,0v-0.1H69l0,0l0-0.1l0.1,0l0,0l0,0l0.1,0l0,0l0,0v-0.1h0.1l0.1,0v-0.1h0.1l0.1,0l0.1,0
		l0-0.1v-0.1h0.1l0.1,0l0,0v-0.1h0.1l0,0v-0.1h0.1l0,0l0-0.1v-0.1h0.1l0.1,0l0,0l0,0l0.1,0l0.1,0l0.1,0v-0.1h0.1l0,0l0-0.1l0,0l0,0
		l0,0l0-0.1l0.1,0l0-0.1l0,0l0,0l0-0.1l0,0V19h0.1l0.1,0l0,0l0,0l0,0l0,0l0.1,0v-0.1h0.1l0.1,0l0.1,0v-0.1h0.1l0.1,0v-0.2h0.1l0,0
		l0,0l0,0l0,0l0,0l0,0l0,0l0-0.1l0,0l0.1,0l0.1,0l0,0l0,0l0.2,0v-0.1H73l0.1,0l0.1,0v-0.1h0.1l0,0l0.1,0l0-0.1l0-0.3h0.4H74l0,0
		l0-0.1l0,0v-0.1h0.1l0.1,0l0.1,0v-0.1h0.1l0.1,0l0.1,0l0,0v-0.1l0,0l0,0v-0.1l0.1,0l0,0l0,0l0-0.1l0,0l0,0l0,0v-0.1H75l0.1,0l0,0
		l0-0.1l0.1,0l0.1,0l0,0l0,0l0.1,0l0,0v-0.1h0.1l0.1,0v-0.1h0.1l0.1,0l0.1,0v-0.1H76l0,0v-0.1h0.1l0,0l0.1,0v-0.1h0.1l0,0l0,0v-0.1
		h0.1l0,0l0.1,0l0,0l0.1,0l0.1,0l0.1,0v-0.1H77l0.1,0l0.1,0l0-0.1l0,0v-0.1h0.1l0.1,0v-0.1h0.2l0,0l0,0l0,0l0,0l0-0.1v-0.1h0.1
		l0.1,0l0,0l0,0l0.1,0l0,0V14h0.1l0,0l0,0v-0.1h0.1l0,0l0,0l0,0l0.1,0l0.1,0l0.1,0v-0.1h0.1l0,0l0,0l0,0l0,0l0.1,0l0,0l0-0.1l0.1,0
		l0-0.1l0-0.1l0,0l0,0l0.1,0l0.1,0l0,0l0.1,0l0.1,0l0.1,0v-0.1h0.1l0.1,0l0.1,0v-0.1h0.1l0,0l0,0v-0.1h0.1v-0.1h0.1l0.1,0l0,0v-0.1
		h0.1l0.1,0l0.1,0l0,0l0,0l0.1,0l0,0v-0.1h0.1l0,0l0,0l0,0l0.1,0l0,0l0.1,0l0-0.1l0.3,0l0,0l0.1,0h0.1h0.2l0.1,0l0,0l0,0l0,0l0.1,0
		l0,0v-0.2h-0.2l-0.2,0v0.1H82l-0.1,0l-0.1,0v-0.2h0.2l0.1,0l0.1,0l0-0.1l0,0l0,0l0,0l0.2,0l0,0l0.2,0l0.1,0l0,0v-0.1H83l0.2,0
		l0.1,0l0,0l0,0l0.1,0l0,0l0-0.1l0.1,0v-0.1h0.1l0-0.1l0-0.1v-0.1h0.1l0.1,0l0.1,0l0,0l0.1,0l0.1,0l0.1,0l0,0l0.1,0l0.1,0l0,0V9.8
		h0.1l0.1,0l0.1,0l0,0l0,0l0,0l0.1,0l0,0l0.3,0l0.1,0l0-0.1l0,0l0,0l0,0l0.1,0l0.1,0l0.1,0V9.2h0.1l0.1,0V9h0.1V9h0.2V8.9h0.1l0.1,0
		V8.8h0.1l0.1,0l0.1,0l0,0l0,0V8.6l-0.1,0l-0.1,0h0.4l0.1,0V8.4H87l0.1,0l0.1,0V8.3h0.1l0.3,0l0,0l0,0l0,0l0,0l0,0l0,0l0.1,0L88,8
		l0,0l0,0v0l0,0l-0.1,0l0,0l-0.1,0h0.2l0.1,0V7.5l-0.1,0l0.1,0l0.1,0V7.4h0.1l0.1,0V7.3h0.1v0.1h0.3l0,0l0,0v0l0,0l0,0l0,0V7.1V7
		l0,0l0-0.1l-0.1,0v0l0.1,0l0,0l0.1,0l0.1,0l0.1,0l0-0.1V6.5l0.2,0l0,0.1l0,0l0,0l0,0l0,0l-0.1,0l-0.1,0v0.1l0,0l0,0h0.3l0.1,0V6.9
		h0.1l0.1,0l0,0l0,0l0-0.1l0.1,0l0,0l0,0l0.3,0V6.5h0.1l0.1,0l0.1,0V6.4h0.2l0.1,0l0-0.1V6.2l0,0h-0.3l-0.1,0l-0.1,0v0.1H90l-0.1,0
		l0,0l0,0l-0.1,0l-0.1,0h0h-0.1V6.4l0-0.1l-0.1,0h-0.2l-0.1,0l0,0.1l-0.1,0v0.1h-0.1l0,0l-0.1,0l-0.1,0l0,0l0,0l0,0l-0.2,0l-0.1,0
		l0,0l0,0l0,0v0.1H88l-0.2,0l-0.1,0V7h-0.1v0.1h-0.1l0,0l0,0l0,0l0,0l0,0l-0.1,0l0,0l0,0v0h0.1v0.1h-0.2l-0.1,0l0,0l-0.1,0l-0.2,0
		l0,0l-0.2,0l-0.2,0l0,0l0,0l0,0l0,0.1v0.1h-0.1l-0.1,0l-0.1,0v0.1l0,0h0.1v0.2l0.4,0l0,0.1l-0.1,0l-0.4,0V8.4h0.1V8.3l-0.1,0l0-0.1
		l0,0l-0.1,0l0,0h-0.1l0,0l0,0l-0.1,0v0.1h-0.1l-0.1,0l-0.1,0v0.1H85l0,0.1v0.1h-0.1l-0.1,0l0,0l0,0l-0.1,0l0,0l-0.1,0l0,0l-0.1,0
		l0,0l-0.1,0v0.1h-0.1L84,9V9h-0.2l-0.1,0l-0.1,0l0,0.1l-0.1,0l0,0v0.1h-0.1l-0.1,0v0.1h-0.1l-0.1,0l-0.1,0l0,0l0,0l0,0l-0.1,0
		l0,0.1v0.1h-0.1l-0.1,0l0,0v0.1h-0.2l-0.1,0l-0.1,0v0.1H82l0,0.1v0.1h-0.1l0,0l0,0l0,0l0,0l-0.1,0l-0.2,0l0,0l-0.2,0l-0.1,0v0.2
		h-0.2v-0.1v0l0,0l0,0l0,0v0c-0.1,0-0.1-0.1,0-0.2l0,0v-0.1h0.1l0.1,0l0,0l0-0.1V9.9h0.3l0.1,0l0.1,0l0,0l0.1,0l0,0V9.6h-0.3l-0.2,0
		l-0.2,0h-0.1V9.5l0,0l-0.1,0H81V9.4l0,0l-0.1,0h0.1l0,0l0,0l0,0V9.1l0,0l0,0l0,0h-0.2l0-0.1l0.1,0l0,0V8.8H81v0.1h0.1v0.1l0,0l0,0
		l0,0l0,0l0,0h0.1l0,0l0.1,0l0.1,0l0.1,0l0,0l0.1,0V8.8h0.1l0.1,0l0.1,0V8.7h0.1l0,0l0,0l0,0l0,0l0.1,0l0.2,0V8.4h0.1V8.3V8.1h0.2
		H83l0.2,0V8h0.1l0.1,0l0,0l0-0.1l0.1,0l0,0l0-0.1V7.7h-0.1l-0.1,0l0,0l-0.4,0l-0.1,0l-0.1,0l0,0l-0.1,0l0,0h-0.3l0-0.1h0.1l0.1,0
		l0,0l0.2,0l0.1,0h0H83l0.1,0V7.6h0.1l0.1,0l0,0l0,0l0,0l0.1,0l0.1,0V7.4h0.1l0.1,0V7.3h0.1l0.1,0l0,0V7.1H84l0,0l0,0l0.2,0h-0.1
		v0.1h0.2h0h0.1l0.1,0l0,0V7l0,0l0,0l-0.1,0l0,0l0,0l0.1,0V6.7h0.1l0,0V6.6h0.1l0.1,0V6.5h0.1l0.1,0l0.1,0V6.4h0.1l0.1,0l0.1,0l0,0
		l0,0l0.1,0l0.1,0l0,0l0.1,0l0,0l0.1,0V6h0.1l0.1,0l0.1,0V5.9h0.1l0,0V5.8h0.1l0.1,0l0.1,0V5.6h0.1l0.1,0l0.1,0V5.5h0.2l0.1,0l0,0
		V5.4h0.1l0.1,0l0.1,0l0,0l0.1,0l0.1,0l0,0l0-0.1l0.2,0V5h0.1l0,0l0.1,0l0,0l0.1,0l0.1,0l0.1,0V4.7h0.1l0,0l0,0l0,0l0.2,0l0.1,0
		l0.1,0l0,0l0.1,0l0.2,0V4.4h0.1l0,0l0,0V4.2h0.2l0.1,0l0,0l0-0.1V4h-0.2l0,0.1h-0.4l0-0.1L88.9,4.1L88.9,4.1z M78.5,6.1L78.5,6.1
		L78.5,6.1L78.5,6.1z M81.9,7.8L81.9,7.8l-0.2,0l0,0V7.6h0.2H82v0v0.1H81.9z M80.7,7.8L80.7,7.8L80.7,7.8L80.7,7.8L80.6,8v0.1h-0.1
		l-0.1,0l0,0l-0.1,0l-0.1,0v0.1h-0.1l-0.1,0l0-0.1l0.1,0V8.1h0.1l0,0V8h0.1l0.2,0l0-0.1L80.7,7.8L80.7,7.8L80.7,7.8L80.7,7.8z
		 M80.9,8.3L80.9,8.3L80.9,8.3L80.9,8.3L80.9,8.3l0.2-0.1l0,0.1v0.1H80.9z M79.9,8.5L79.9,8.5l-0.1,0.1l0,0.1l-0.1,0v0.1h-0.1l0,0.1
		l-0.1,0l0,0l-0.1,0v0l0-0.1V8.7h0.1l0.1,0l0,0l0,0l0,0l0.1,0H79.9L79.9,8.5L79.9,8.5L79.9,8.5L79.9,8.5z M77,8.7
		c0-0.1,0.2-0.3,0.4-0.3h0c0.1,0,0.1,0,0.1,0.1c0,0-0.4,0.3-0.5,0.3h-0.1v0.1h-0.1c-0.1,0-0.1,0-0.1-0.1l0.2,0L77,8.7z M85.6,8.7
		L85.6,8.7L85.6,8.7l-0.1,0.2l-0.1,0l-0.2,0l0-0.1V8.6h0.1L85.6,8.7L85.6,8.7l0.2-0.1l0,0.1v0.1H85.6z M75.2,9.1L75.2,9.1l0.1,0
		l0.1,0v0.1h0.1h0.3l0.1,0l0,0l0-0.3h-0.2l0,0l0,0l0-0.1h-0.2l-0.1,0l0-0.1l-0.2,0l-0.1,0h-0.1v0.1l-0.1,0l-0.1,0l-0.1,0l0,0l-0.1,0
		h-0.1V9l0,0h-0.1v0.1l0,0l-0.2,0h-0.1v0.1l-0.1,0l-0.1,0l-0.1,0l0,0l0,0h-0.1v0.1l0,0.2l0,0l0,0l-0.1,0l-0.1,0l0,0l0,0l0,0l-0.1,0
		l-0.1,0l0,0.1l-0.2,0h-0.1v0.1l0,0l0,0h-0.1v0.1l0,0l0,0l0,0l0,0l0,0l-0.2,0l0,0l0,0l0,0h-0.1v0.1v0.1l0.1,0l0,0v0.1h0.2h0.2h0.1
		v-0.1l0,0l0-0.1l0,0l0.1,0l0.3,0h0.1v-0.1l0,0l0,0l0,0l0-0.1l0.1,0l0,0l0-0.1l-0.1,0v-0.1h-0.1V10l0,0h0.2H74h0.1V9.9l0,0l0.4,0
		h0.1V9.7l0.1,0h0.1l0-0.1l0,0l0,0l-0.1,0l-0.1,0V9.3l0.1,0h0.1V9.2h0l0,0h0.1l0,0L75.2,9.1L75.2,9.1L75.2,9.1z M79.1,9.2L79.1,9.2
		L79.1,9.2l0-0.1H79l0,0l-0.1,0l0,0.1l-0.2,0l0,0l0,0l0,0h0.1v0.1h0.1l0,0h0.1L79.1,9.2L79.1,9.2L79.1,9.2z M78.6,9.2L78.6,9.2
		L78.6,9.2L78.6,9.2z M77.5,9.4L77.5,9.4L77.5,9.4L77.5,9.4z M84.1,9.5h-0.3v0L84.1,9.5L84.1,9.5L84.1,9.5L84.1,9.5z M77.4,9.5
		L77.4,9.5L77.4,9.5l-0.2,0.1l-0.1,0h-0.1h-0.2V9.6h-0.1V9.5h0.1l0-0.1h0.3h0.1v0.1H77.4L77.4,9.5l0.1-0.1L77.4,9.5L77.4,9.5z
		 M80.8,9.7L80.8,9.7l0.3,0.1l0.1,0l0,0h-0.1v0.1H81v0.1H81l-0.1,0l-0.1,0l0,0l0,0l-0.1,0l0,0.1l0,0l-0.2,0l0,0v0.1h-0.1l0,0l0,0
		v0.1h-0.1H80l0,0l0.1,0l0,0v-0.1l0,0H80l0,0l0,0v0.1h-0.1l-0.1,0l-0.1,0v0.1h-0.1l0,0v0.1h-0.1v0.1h0.3l0.1,0l0.1,0v-0.1h0.1l0,0.1
		v0.1l0,0.1h0.5h0.3l0,0v0.1l0,0l0,0l-0.1,0v0.1h-0.2h0h-0.1l-0.1,0l-0.1,0l0,0l-0.1,0v-0.1h-0.1v0.1h-0.1l-0.1,0v0.1h-0.1v0.1h0.1
		v0.1h-0.1l-0.1,0l-0.1,0v0.1h-0.1l0,0v0.1h-0.2l0,0l-0.1,0l0,0h-0.2l0-0.1l-0.1,0h0.1l0.1,0v0.1l0,0H79l0,0l0,0v-0.1h0.3l0.1,0
		v-0.1l0,0l-0.1,0v-0.1l0.1,0l0,0l0,0l0-0.1v-0.1h0.1l0.2,0l0,0v-0.1h0.1V11h-0.1v-0.1h-0.1V11h-0.2V11h-0.1l0,0l-0.1,0v0.1h-0.1
		v0.1H79l0,0v0.1h-0.1l-0.1,0l0,0v0.1h-0.1l-0.1,0v-0.1h0.1l0,0l0.1,0l0.1,0l0,0v-0.1h0.1l0.1,0l0.1,0l0-0.1v-0.2h-0.2l0,0.1l-0.1,0
		l0,0v0.1h-0.1l0,0l0,0l0,0l0,0v0.1h-0.2l-0.1,0l0,0v0.1H78l0,0h-0.2l0-0.1h0.1l0.1,0v-0.1H78v0l0,0l0,0l0-0.1H78l0.1,0v-0.1h0.1
		l0.1,0V11h0.1l0,0l0.1,0l0-0.1l0.1,0l0.1,0l0,0l0,0l0-0.1l0-0.1h0.1h0.3l0.1,0v-0.1h0.1l0-0.1l0,0v-0.2h0.1l0.2,0l0,0l0.1,0V9.9
		h-0.1V9.9h0.1l0,0l0,0l0.1,0l0.1,0l0,0V9.6h0.1h0.1L80.8,9.7L80.8,9.7L80.8,9.7z M78.3,9.8L78.3,9.8l-0.3,0h-0.1V9.8L78.3,9.8z
		 M76.5,9.9c0.1,0,0.2,0,0.2,0.1c-0.2,0-0.3,0.1-0.3-0.1H76.5z M75,10h0.1H75L75,10L75,10L75,10z M68.9,10.3L68.9,10.3L68.9,10.3
		l-0.1,0.1v0.1h-0.1l0,0v0.1h-0.1l-0.2,0v0.1l-0.1,0l0-0.1l0-0.1v-0.1h0.1l0,0l0.1,0l0,0l0,0l0-0.1L68.9,10.3l0.1-0.1L68.9,10.3
		L68.9,10.3L68.9,10.3z M75.6,10.3L75.6,10.3l-0.1,0.1L75.6,10.3L75.6,10.3L75.6,10.3l0.1-0.1H76l0.2,0v0.1h-0.1v0.1H75.6z
		 M78.5,10.5L78.5,10.5L78.5,10.5l-0.3,0.1l-0.1,0v0.1H78l-0.2,0l0.1,0l0,0l0,0v-0.1H78l0,0l0.1,0l0-0.1l0.1,0l0.1,0v-0.1h0.2
		L78.5,10.5L78.5,10.5L78.5,10.5z M79.9,10.6L79.9,10.6L79.9,10.6L79.9,10.6z M82.4,10.6L82.4,10.6L82.4,10.6L82.4,10.6l-0.1,0
		L82.4,10.6l0.2-0.1L82.4,10.6L82.4,10.6z M72.2,11.2L72.2,11.2l0.2,0V11h-0.1l0,0l-0.1,0l0,0.1l-0.1,0h-0.1v0.1h-0.2
		c0-0.1-0.1-0.1-0.2,0l-0.1,0l0,0h-0.1v0.1l-0.1,0l0,0h-0.1v0.1l0,0l0,0h-0.1v0.1l0,0l0,0.1h-0.1v0.1l0,0.1l-0.3,0l-0.1,0l0,0
		l-0.1,0l0,0h-0.1v0.1v0.1l0,0l0,0l0,0l0,0v0.1l0,0.1l0,0h0.1l0,0l0,0l0,0l0.1,0l0,0l0,0l0-0.1l0.1,0l0,0l0,0l0.2,0l0.1,0h0.1v-0.2
		l0.1,0h0.1v-0.1l0.1,0l0,0c0.1,0,0.1-0.1,0-0.2v-0.2l0.1,0h0.2v-0.1L72.2,11.2L72.2,11.2L72.2,11.2z M74,11.4l0.2,0h0.1l0.1,0
		c0,0.1,0.2,0.1,0.2,0l0.1,0h0.1v-0.1h-0.1l0,0v-0.1h-0.1l0,0v-0.2l-0.2,0h-0.1V11l-0.1,0l0,0l0,0l0,0l-0.1,0h-0.1v0.1L74,11.4
		L74,11.4l-0.1,0l0,0l0,0.1L74,11.4L74,11.4z M75.1,11.6l-0.3,0l0-0.1v-0.1l0.2,0L75.1,11.6l0.1-0.1l0-0.1l0.2,0v0.1L75.1,11.6z
		 M77.5,11.8L77.5,11.8l-0.1,0.1l-0.1,0l0,0l0,0l0,0l-0.1,0v0.1h-0.2h0V12V12H77l0,0l0,0l0,0v-0.1h0.1v-0.1h0.1L77.5,11.8L77.5,11.8
		L77.5,11.8z M77.8,12.1L77.8,12.1L77.8,12.1l0.1-0.1l-0.3,0l0,0l0,0l-0.1,0l0,0.1l0,0.1l-0.1,0l0,0.1l-0.1,0l0,0.1l0,0l0,0h0.2
		v-0.1l0,0l0.1,0h0.1l0.1,0l0,0h0.1l0.3,0l0-0.1l0,0l0.1,0h0.1V12l-0.1,0l-0.4,0l0,0l0,0L77.8,12.1L77.8,12.1z M76.7,12.3L76.7,12.3
		l0.1-0.1L76.7,12.3l-0.2-0.1h-0.2l0,0l-0.1,0l0,0.1l-0.1,0l0,0.1l-0.1,0l0,0.2l0,0l-0.1,0l0,0.1h-0.1v0.1h0.1v-0.1l0.1,0l0.1,0l0,0
		l0,0l0,0l0,0l0,0l0,0l0.1,0h0.2v-0.1L76.7,12.3L76.7,12.3L76.7,12.3z M72.9,12.4L72.9,12.4L72.9,12.4L72.9,12.4l-0.3,0.1l0,0l0,0
		h-0.1l-0.1,0l-0.1,0l0-0.1l0,0l0,0l0.1,0l0.1,0l0.1,0v-0.1L72.9,12.4L72.9,12.4L72.9,12.4z M63.3,12.3l0.2,0v0.1L63.3,12.3
		L63.3,12.3L63.3,12.3z M77.1,12.4L77.1,12.4L77.1,12.4L77.1,12.4z M78.8,12.5L78.8,12.5L78.8,12.5l0.1-0.1l0.2,0v0.1l0,0.1h-0.1
		L78.8,12.5z M70,12.8L70,12.8l-0.2,0.1l-0.1,0l0,0l-0.1,0l-0.1,0l0,0v0.1h-0.1l0,0.1v0.1h-0.1l-0.1,0l-0.1,0v-0.1h0.1v-0.1h0.1l0,0
		l0.1,0l0,0l0-0.1v-0.1h0.1l0.1,0l0.1,0v-0.1L70,12.8L70,12.8l0-0.2h0.1L70,12.8L70,12.8L70,12.8z M67.3,12.9L67.3,12.9l0,0.1h-0.1
		l0,0l0,0v0.1h-0.2l-0.1,0l0,0l0,0l0,0v0.1h-0.1l0,0l0,0l0,0v0.1h-0.1l0,0l0,0v0.1h-0.1l0,0.1v0.1l0,0h0h0.3c0,0.1-0.1,0.1-0.2,0.1
		l-0.1,0.2l-0.1,0l0.1-0.2l0-0.1h-0.2l0,0.1l-0.1,0l0,0l0,0V14h-0.1l0,0l-0.1,0l0,0.1l-0.1,0l0,0.1l-0.2,0l0,0l0,0.1l-0.2,0l0-0.1
		v-0.1h0.1l0.1,0l0.1,0l0,0l0.1,0l0,0l0,0l0-0.1l0.1,0l0,0l0,0l0,0v-0.1h0.1l0,0l0,0v-0.1H66l0.1,0l0,0l0.1,0l0,0l0.1,0l0,0l0.1,0
		l0,0l0,0l0,0l0,0l0.1,0l0-0.1l0,0l0.1,0V13h0.1l0.1,0l0,0v-0.1H67.3L67.3,12.9L67.3,12.9L67.3,12.9l0.1-0.1l0.1,0l0.1,0v0.1
		L67.3,12.9L67.3,12.9L67.3,12.9z M68.2,12.8L68.2,12.8L68.2,12.8L68.2,12.8z M77.8,12.9L77.8,12.9L77.6,13l-0.1,0l0,0l0,0l0,0
		l-0.1,0l-0.1,0v0.1h-0.1l0,0h-0.3h-0.1v-0.1h0.1l0.1,0l0,0l0,0V13V13h0.3h0.1l0.1,0l0,0L77.8,12.9L77.8,12.9L77.8,12.9L77.8,12.9z
		 M62.4,13.1L62.4,13.1L62.4,13.1L62.4,13.1l0.1-0.1h0v0v0.1H62.4z M75.4,13.2l-0.1,0v0.1h-0.1l0,0.1v0.3h0.1h0.2v0l-0.1,0l0,0.1
		l-0.1,0l0,0l0,0.1l-0.1,0v-0.1l0,0v-0.1l-0.1,0h-0.1l-0.2,0l-0.1,0l0,0l-0.1,0l0,0l0,0v0.1h-0.1l0,0l0,0V14h-0.1l0,0h-0.2l0,0l0,0
		l0,0l0,0l0-0.1l0-0.1l0.1,0l0,0v-0.1h0.1l0-0.1l0.3,0l0.1,0v-0.1h0.1l0,0l0-0.1l0.1,0l0.1,0v-0.1h0.2L75.4,13.2L75.4,13.2
		L75.4,13.2L75.4,13.2z M61.9,13.6L61.9,13.6L61.9,13.6z M68.6,13.7L68.6,13.7L68.6,13.7l-0.1,0.1l-0.1,0l-0.1,0l0,0l-0.1,0l-0.1,0
		v-0.2h0.1l0,0v-0.1h0.2l0,0L68.6,13.7L68.6,13.7v-0.1h0.2l0,0.1h-0.1v0.1H68.6z M74.4,14.2L74.4,14.2L74.4,14.2L74.4,14.2z
		 M74.3,14.4L74.3,14.4L74.3,14.4l0.1-0.2h-0.1v0.1L74.3,14.4l-0.1-0.1l-0.1,0l0,0h-0.2l0,0v-0.2l-0.2,0h-0.2v0.1h-0.1l0,0l0,0
		l-0.1,0l-0.1,0l0,0l0,0l0,0l0,0l0,0.1l0.1,0h0h0.3v-0.1l0,0l0-0.1l0,0l0.1,0h0.2l0,0l0,0.1v0.1l0,0l-0.1,0l0,0.1l-0.1,0l0,0.1
		l-0.1,0l0,0l0,0l0,0l0,0l0,0.1l-0.3,0.2l-0.3,0.1v0.2h-0.2v0.1l-0.1,0l0,0l-0.1,0l0,0h-0.2v-0.1h-0.1h-0.3h-0.1v0.1l-0.1,0l0,0
		h-0.1v0.1l-0.1,0l0,0.2h0.2l0.1,0l0.1,0h0.1l0.3,0l0,0l0.1,0l0-0.1l0.1,0l0.1,0l0,0l0,0l0.1,0h0.1v-0.1l0.1,0h0.1v-0.2h0
		c0.2,0,0.4-0.3,0.5-0.4v0l0.1,0l0.1,0h0.1v-0.1l0.1,0l0,0l0,0l0.2,0l0,0l0,0l0,0l0,0l0,0h0.1v-0.1h0.1l0,0.1h0.1v0L74.3,14.4
		L74.3,14.4L74.3,14.4L74.3,14.4z M67.5,14.6l-0.2,0l0-0.1l0-0.1L67.5,14.6L67.5,14.6L67.5,14.6z M64.8,14.9L64.8,14.9L64.8,14.9
		L64.7,15h-0.2h-0.1v-0.1l0,0l0,0l0,0v0l0,0l0.4,0l0.2,0l0,0.1L64.8,14.9L64.8,14.9z M67.1,14.9L67.1,14.9L67.1,14.9l0.1-0.1
		L67.1,14.9L67.1,14.9l-0.2,0l0,0.1h-0.1v0.1l0,0l0.1,0L67.1,14.9L67.1,14.9z M66.8,15.1L66.8,15.1L66.8,15.1L66.8,15.1z M63.6,15.9
		L63.6,15.9L63.6,16h-0.2V16h0.1l0,0L63.6,15.9L63.6,15.9L63.6,15.9l0.1-0.1l0.1,0L63.6,15.9L63.6,15.9L63.6,15.9z M73.3,15.9
		l-0.2,0v-0.1L73.3,15.9L73.3,15.9l-0.1-0.2h0.1l0.2,0v0.2h-0.1L73.3,15.9z M63.1,16.4L63.1,16.4L63,16.4l-0.1,0v0.1l-0.1,0l0-0.1
		v-0.1H63l0,0L63.1,16.4l0.1-0.1L63.1,16.4L63.1,16.4z M72.6,16.4L72.6,16.4L72.6,16.4l-0.1,0.1h-0.1h-0.3h-0.1v-0.1l0,0h-0.1v-0.1
		H72h0.2l0.1,0h0.1H72.6l0.1-0.1L72.6,16.4L72.6,16.4z M70.5,16.6L70.5,16.6l0.4,0l0,0l0,0v0.1H71v0.1l0,0l0-0.1h0.2v-0.1l0,0l0.1,0
		l0-0.1l-0.2,0v-0.1h-0.1l-0.1,0l0,0l0,0l0,0h-0.3h-0.1v0.1h-0.1v0.1h-0.1v0.1l0,0.1l0,0.1h-0.1v0.1l0,0l-0.1,0l-0.1,0l0,0l0,0
		l-0.1,0l0,0.1l0,0l-0.1,0l0,0l0,0l-0.1,0h-0.1v0.1l0,0l0,0h-0.1v0.1l0,0l0,0h-0.1v0.1l-0.1,0l-0.1,0h-0.1v0.1l0,0.1l0,0.1l-0.1,0
		l0.1,0h0.1l0.1,0l0,0l0,0l0-0.1l0,0l0.1,0h0.1v-0.1l0,0l0,0h0.1v-0.1l0.1,0l0.1,0l0,0l0,0h0.1v-0.1l0-0.1h0.1V17l0-0.1h0.1v-0.1
		l0.1,0l0-0.1l0,0l0.1,0L70.5,16.6L70.5,16.6L70.5,16.6z M71,16.8L71,16.8L71,16.8L71,16.8z M70.2,17.5L70.2,17.5L70.2,17.5
		l-0.3,0.1v-0.1H70l0,0L70.2,17.5v-0.2h0.1v0.1L70.2,17.5L70.2,17.5z M70.9,17.7L70.9,17.7L70.9,17.7l0.2-0.1l0.1,0v0.1L70.9,17.7
		L70.9,17.7L70.9,17.7L70.9,17.7z M70.6,18L70.6,18L70.6,18l-0.1,0.1l-0.1,0l-0.1,0v0.1h-0.1h0v-0.1v-0.1h0.1l0,0l0.1,0l0,0l0,0
		l0.1,0L70.6,18L70.6,18L70.6,18L70.6,18z M69.3,18.1l0.1,0h0.1V18L69.3,18.1L69.3,18.1L69.3,18.1L69.3,18.1L69.3,18.1l-0.2,0.1l0,0
		l0,0l0,0l-0.1,0v0.1v0.1l0.2,0l0,0l0-0.1v0v-0.1L69.3,18.1L69.3,18.1L69.3,18.1z M68.2,18.4L68.2,18.4L68.2,18.4L68.2,18.4
		L68.2,18.4l-0.1-0.1H68v0.1l-0.1,0l-0.1,0l0,0.1l0,0.1l0,0l0,0l-0.1,0h-0.1v0.1l0,0l-0.1,0l-0.1,0l0,0l0,0l0,0h-0.1V19l0,0h-0.1
		v0.1l0,0.1l0,0l0,0l0,0l0,0l0,0l0,0l0,0l0,0l0,0l0,0h-0.1v0.1l0,0l0,0l-0.1,0l0,0.1l-0.1,0l0,0.1l0,0.1l0,0l0,0l0,0.1l0,0l0,0l0,0
		H66v0.1l0,0l0,0h-0.1v0.1l-0.1,0h-0.1v0.1l0,0l0,0h-0.1v0.1l0,0.1l0,0.1l-0.1,0l0,0l0,0l-0.1,0h-0.1v0.1l0,0l0,0l0,0l0,0l0,0.1h0.4
		l0,0h0l0,0l0,0l0,0.1v0.1h0.1l0,0l0.1,0l0-0.1l0.1,0h0.1v-0.1l0,0l0,0l0,0l0-0.1v-0.2l0,0l-0.1,0l0-0.1l0,0v-0.1l0,0l0,0l0,0h0.2
		h0.3h0.1v-0.1h0.1v-0.1l0,0l0,0l0.1,0h0.1v-0.1l-0.1,0l-0.1,0h-0.1v0.1h-0.2v-0.1h-0.1l-0.1,0v-0.1l0,0l0,0l0.1,0h0.1v-0.1l0.1,0
		h0.1v-0.1l0,0l0,0l0.1,0l0,0h0.1v-0.1l0.1,0l0,0l0.1,0l0.1,0l0,0l0,0l0-0.1l-0.1,0v-0.1l0-0.1h0.1v-0.1l0.2,0l0.1,0v0v-0.1V19v0
		h0.1v-0.1l0.1,0l0.1,0v-0.1l0,0l0-0.1l0.1,0h0.2L68.2,18.4L68.2,18.4L68.2,18.4z M69.7,18.5L69.7,18.5l0,0.1L69.7,18.5l-0.1,0.1
		l-0.1,0l0-0.1L69.7,18.5z M68.1,19.3L68.1,19.3L68.1,19.3L68,19.4v0.1h-0.1l0,0l-0.1,0v0.1h-0.1l0,0.1l-0.1,0l-0.1,0l0,0v-0.1l0,0
		l0-0.1l0,0l0.1,0l0.1,0v-0.1h0.1l0.1,0v-0.1L68.1,19.3l0.1-0.1L68.1,19.3L68.1,19.3z M67,20.2h0.1c0.1,0,0.1,0,0.1,0.1l-0.1,0.1
		l-0.2,0L67,20.2L67,20.2L67,20.2z M64.9,21.8L64.9,21.8l0.1-0.2l0-0.1l-0.1,0v0.1l-0.1,0l-0.1,0l0,0l0,0l0,0h-0.1v0.1l0,0l0,0h-0.1
		v0.1l0,0l0,0l0,0.1l0,0l-0.1,0l0,0.1l0,0h-0.1v0.1l0,0l0,0h-0.1v0.1l0,0l0,0h-0.1v0.1l0,0h-0.1v0.1l0,0l-0.1,0l0,0.1l0,0.1h-0.1V23
		l0,0l0,0l0,0l0,0h-0.1v0.1l0,0l0,0l0,0.1l0,0l-0.1,0l0,0h-0.1v0.1l0,0.1l0,0.1l-0.1,0l0,0.1l0,0h-0.1v0.1V24v0.1l0,0.1l0,0l0,0
		h-0.1v0.1l0,0.1l0,0l0,0l0,0l-0.1,0l0,0l0,0l0,0v0.1h0.1h0.1v-0.1l0.1,0l0-0.1l0.1,0l0,0l0,0l0-0.1l-0.1,0v0l0,0l0,0l0-0.1l0,0
		l0.1,0l0,0l0.1,0l0.1,0h0.2l0.1,0l0,0v0.1v0.1h0l0,0l0,0l0.1,0l0-0.1h0.1V24l0,0h0.1v-0.1l0.1,0H64v-0.1l0-0.1l0,0l0-0.1l0-0.1
		l0-0.1h0.1v-0.1h0.1v-0.1h-0.2v0.1h-0.1v0.1l0,0.1l0,0h-0.1v0.1l-0.1,0l0,0h-0.1v0.1h-0.1l0-0.1v-0.1l0-0.2l0-0.1h0.1v-0.1h0.1
		v-0.1l0,0l0,0h0.1V23l0-0.1H64l0-0.1v-0.1l0,0h0.1v-0.1l0.1,0l0.1,0l0.1,0l0,0l0,0l0,0l0,0v-0.1l0,0v-0.1l0-0.1l0,0l0,0l0.1,0h0.2
		v-0.1l0-0.1l0,0l0,0L64.9,21.8L64.9,21.8z M63.1,24.5l0.1,0L63.1,24.5v0.1l0,0v0.1l-0.1,0l0-0.1v-0.1L63.1,24.5l-0.2,0l0-0.1
		L63.1,24.5z M62.1,25.4L62.1,25.4L62.1,25.4L62.1,25.4l-0.3,0.1l0,0l0,0l0,0v0.1l0.1,0l0.1,0l0,0l0,0V26l0,0h0.1l0,0l0.1,0v-0.1
		h0.2l0-0.1v-0.1h0.1l0-0.1l0,0v0v0.1h-0.1l0,0v0.1h-0.1l0,0.1l0,0l0,0l0,0.1l0,0.2l-0.2,0V26l-0.1,0h0l0,0l0,0v0.1l0.1,0l0,0.1l0,0
		l0,0.1l-0.1,0v0.1h-0.1l-0.1,0l-0.1,0v0.1h-0.1l0,0.2l0,0.1l-0.3,0l0-0.1l0,0l0-0.1l0,0v-0.1h0.1l0-0.3l0,0v-0.1h0.1l0-0.1l0-0.1
		v-0.1h0.1l0-0.1l0,0l0.1,0l0-0.1l0-0.1l0,0l0.1,0l0,0l0,0l0,0l0,0l0,0l0.1,0l0-0.1v-0.1H62l0,0l0.1,0l0,0l0.1,0v0.1v0.1L62.1,25.4
		L62.1,25.4z"/>
	<path class="st13" d="M41.3,9.5c6,0,10.8,4.8,10.8,10.8s-4.8,10.8-10.8,10.8V9.5z"/>
	<path class="st13" d="M68.2,42.7h-1l-0.5-1.4h-1.7l-0.5,1.4h-1l1.9-5h0.9L68.2,42.7z M66.4,40.5l-0.6-1.6l-0.6,1.6H66.4z
		 M61.6,39.3c0-0.1-0.1-0.2-0.1-0.3c-0.1-0.1-0.1-0.2-0.2-0.3c-0.1-0.1-0.2-0.1-0.3-0.2c-0.1,0-0.2-0.1-0.4-0.1
		c-0.2,0-0.4,0-0.6,0.1c-0.2,0.1-0.3,0.2-0.4,0.3c-0.1,0.1-0.2,0.3-0.3,0.5c-0.1,0.2-0.1,0.5-0.1,0.7c0,0.3,0,0.5,0.1,0.7
		c0.1,0.2,0.2,0.4,0.3,0.5c0.1,0.1,0.3,0.3,0.4,0.3c0.2,0.1,0.4,0.1,0.6,0.1c0.3,0,0.5-0.1,0.7-0.2c0.2-0.2,0.3-0.4,0.4-0.7h0.9
		c0,0.3-0.1,0.5-0.2,0.7c-0.1,0.2-0.3,0.4-0.4,0.5c-0.2,0.1-0.4,0.3-0.6,0.3c-0.2,0.1-0.5,0.1-0.8,0.1c-0.4,0-0.7-0.1-1-0.2
		c-0.3-0.1-0.5-0.3-0.7-0.5c-0.2-0.2-0.4-0.5-0.5-0.8c-0.1-0.3-0.2-0.7-0.2-1.1c0-0.4,0.1-0.7,0.2-1.1c0.1-0.3,0.3-0.6,0.5-0.8
		c0.2-0.2,0.4-0.4,0.7-0.5c0.3-0.1,0.6-0.2,0.9-0.2c0.3,0,0.5,0,0.7,0.1c0.2,0.1,0.4,0.2,0.6,0.3c0.2,0.1,0.3,0.3,0.4,0.5
		c0.1,0.2,0.2,0.4,0.2,0.7H61.6z M57,42.7h-0.9v-5H57V42.7z M54.3,40.2c0-0.2,0-0.5-0.1-0.7c0-0.2-0.1-0.4-0.3-0.5
		c-0.1-0.1-0.3-0.2-0.5-0.3c-0.2-0.1-0.5-0.1-0.8-0.1H52v3.2h0.7c0.3,0,0.6,0,0.8-0.1c0.2-0.1,0.4-0.2,0.5-0.3
		c0.1-0.1,0.2-0.3,0.3-0.5C54.3,40.7,54.3,40.5,54.3,40.2 M55.2,40.2c0,1.7-0.8,2.5-2.5,2.5h-1.6v-5h1.6
		C54.4,37.8,55.2,38.6,55.2,40.2 M50.2,42.7h-3.7v-5h3.6v0.9h-2.7v1.1h2.5v0.8h-2.5v1.3h2.8V42.7z M45.9,42.7H45v-3.2L44,42.7h-0.8
		l-1-3.2v3.2h-0.9v-5h1.2l1.1,3.5l1.1-3.5h1.2V42.7z"/>
	<path class="st13" d="M91.2,42.7h-3.7l1.1-5h3.6L92,38.6h-2.7L89,39.7h2.5l-0.2,0.8h-2.5l-0.3,1.3h2.8L91.2,42.7z M84.3,42.7h-0.9
		L82,39.4l-0.7,3.3h-0.9l1.1-5h0.9l1.5,3.3l0.7-3.3h0.9L84.3,42.7z M77.2,42.7h-0.9l1.1-5h0.9L77.2,42.7z M73.5,42.7h-3.2l1.1-5h0.9
		l-0.9,4.1h2.2L73.5,42.7z"/>
</g>
</svg>
