<svg xmlns="http://www.w3.org/2000/svg" viewBox="0 0 73.65 12.43"><defs><style>.cls-1{fill:#e42e38;}.cls-2{fill:none;stroke:#fff;stroke-miterlimit:10;stroke-width:0.31px;}</style></defs><g id="Capa_2" data-name="Capa 2"><g id="Capa_1-2" data-name="Capa 1"><polygon class="cls-1" points="66.03 12.07 69.97 12.07 69.97 3.21 73.5 3.21 73.5 0.25 62.54 0.25 62.54 3.21 66.03 3.21 66.03 12.07"/><polygon class="cls-2" points="66.03 12.07 69.97 12.07 69.97 3.21 73.5 3.21 73.5 0.25 62.54 0.25 62.54 3.21 66.03 3.21 66.03 12.07"/><polygon class="cls-1" points="41.75 12.12 50.24 12.12 50.24 9.57 45.64 9.57 45.64 7.37 49.79 7.37 49.79 4.91 45.64 4.91 45.64 2.79 50.19 2.79 50.19 0.3 41.75 0.3 41.75 12.12"/><polygon class="cls-2" points="41.75 12.12 50.24 12.12 50.24 9.57 45.64 9.57 45.64 7.37 49.79 7.37 49.79 4.91 45.64 4.91 45.64 2.79 50.19 2.79 50.19 0.3 41.75 0.3 41.75 12.12"/><path class="cls-1" d="M22.8,8.06l1.73-4.68,1.8,4.68Zm-5.37,4.06h3.86L22,10.2h5.12l.74,1.92H31.8L26.61.3H22.49Z"/><path class="cls-2" d="M22.8,8.06l1.73-4.68,1.8,4.68Zm-5.37,4.06h3.86L22,10.2h5.12l.74,1.92H31.8L26.61.3H22.49Z"/><path class="cls-1" d="M.16,11.46a8.49,8.49,0,0,0,3.72.82,4.21,4.21,0,0,0,3.06-.92A3.29,3.29,0,0,0,8.11,8.79a3.15,3.15,0,0,0-.85-2.23A5.84,5.84,0,0,0,5.43,5.29C4,4.54,3.75,4.28,3.75,3.83S4.18,3,4.88,3A4.37,4.37,0,0,1,7.67,4.53V1.41A5.37,5.37,0,0,0,4.18.16c-2.39,0-4,1.42-4,3.54A3.32,3.32,0,0,0,1.21,6.19,7.23,7.23,0,0,0,3.12,7.46c1,.53,1.2.76,1.2,1.16s-.42.81-1.13.81a5.47,5.47,0,0,1-3-1.17Z"/><path class="cls-2" d="M.16,11.46a8.49,8.49,0,0,0,3.72.82,4.21,4.21,0,0,0,3.06-.92A3.29,3.29,0,0,0,8.11,8.79a3.15,3.15,0,0,0-.85-2.23A5.84,5.84,0,0,0,5.43,5.29C4,4.54,3.75,4.28,3.75,3.83S4.18,3,4.88,3A4.37,4.37,0,0,1,7.67,4.53V1.41A5.37,5.37,0,0,0,4.18.16c-2.39,0-4,1.42-4,3.54A3.32,3.32,0,0,0,1.21,6.19,7.23,7.23,0,0,0,3.12,7.46c1,.53,1.2.76,1.2,1.16s-.42.81-1.13.81a5.47,5.47,0,0,1-3-1.17Z"/><polygon class="cls-1" points="14.44 12.12 22.79 12.12 22.79 9.16 18.37 9.16 18.37 0.3 14.44 0.3 14.44 12.12"/><polygon class="cls-2" points="14.44 12.12 22.79 12.12 22.79 9.16 18.37 9.16 18.37 0.3 14.44 0.3 14.44 12.12"/><path class="cls-1" d="M34.9,9.3V3.1h.92c2,0,2.94,1.05,2.94,3.13S37.85,9.3,35.94,9.3ZM31,12.12h6.11A5.85,5.85,0,0,0,40,11.5a5.75,5.75,0,0,0,2.71-5.13,6.12,6.12,0,0,0-1.6-4.25A6,6,0,0,0,36.42.3H31Z"/><path class="cls-2" d="M34.9,9.3V3.1h.92c2,0,2.94,1.05,2.94,3.13S37.85,9.3,35.94,9.3ZM31,12.12h6.11A5.85,5.85,0,0,0,40,11.5a5.75,5.75,0,0,0,2.71-5.13,6.12,6.12,0,0,0-1.6-4.25A6,6,0,0,0,36.42.3H31Z"/><polygon class="cls-1" points="51.36 12.12 55.33 12.12 55.09 6.05 60.8 12.12 64.2 12.12 64.2 0.25 60.21 0.25 60.46 6.38 54.74 0.3 51.36 0.3 51.36 12.12"/><polygon class="cls-2" points="51.36 12.12 55.33 12.12 55.09 6.05 60.8 12.12 64.2 12.12 64.2 0.25 60.21 0.25 60.46 6.38 54.74 0.3 51.36 0.3 51.36 12.12"/><path class="cls-1" d="M9.85,2.38a1.28,1.28,0,1,0,1.28-1.29A1.28,1.28,0,0,0,9.85,2.38M9.14.3h3.94V12.12H9.14Z"/><path class="cls-2" d="M9.85,2.38a1.28,1.28,0,1,0,1.28-1.29A1.28,1.28,0,0,0,9.85,2.38M9.14.3h3.94V12.12H9.14Z"/></g></g></svg>