<svg id="Capa_1" data-name="Capa 1" xmlns="http://www.w3.org/2000/svg" viewBox="0 0 135 46"><defs><style>.cls-1{fill:#e42e38;}.cls-2{fill:none;stroke:#fff;stroke-miterlimit:10;stroke-width:0.38px;}</style></defs><polygon class="cls-1" points="102.55 30.02 107.27 30.02 107.27 19.39 111.5 19.39 111.5 15.83 98.36 15.83 98.36 19.39 102.55 19.39 102.55 30.02"/><polygon class="cls-2" points="102.55 30.02 107.27 30.02 107.27 19.39 111.5 19.39 111.5 15.83 98.36 15.83 98.36 19.39 102.55 19.39 102.55 30.02"/><polygon class="cls-1" points="73.41 30.09 83.59 30.09 83.59 27.03 78.08 27.03 78.08 24.38 83.06 24.38 83.06 21.43 78.08 21.43 78.08 18.89 83.53 18.89 83.53 15.9 73.41 15.9 73.41 30.09"/><polygon class="cls-2" points="73.41 30.09 83.59 30.09 83.59 27.03 78.08 27.03 78.08 24.38 83.06 24.38 83.06 21.43 78.08 21.43 78.08 18.89 83.53 18.89 83.53 15.9 73.41 15.9 73.41 30.09"/><path class="cls-1" d="M50.67,25.22l2.08-5.62,2.16,5.62Zm-6.44,4.86h4.62l.89-2.3h6.15l.89,2.3h4.69L55.24,15.9H50.3Z"/><path class="cls-2" d="M50.67,25.22l2.08-5.62,2.16,5.62Zm-6.44,4.86h4.62l.89-2.3h6.15l.89,2.3h4.69L55.24,15.9H50.3Z"/><path class="cls-1" d="M23.5,29.3a10.26,10.26,0,0,0,4.46,1,5,5,0,0,0,3.68-1.1A3.94,3.94,0,0,0,33,26.09a3.75,3.75,0,0,0-1-2.68,7,7,0,0,0-2.2-1.52c-1.66-.9-2-1.21-2-1.75s.52-1,1.37-1,2,.6,3.34,1.83V17.23a6.46,6.46,0,0,0-4.19-1.5c-2.87,0-4.82,1.7-4.82,4.24a4,4,0,0,0,1.26,3,8.42,8.42,0,0,0,2.29,1.52c1.19.64,1.45.91,1.45,1.39,0,.63-.52,1-1.37,1a6.57,6.57,0,0,1-3.63-1.41Z"/><path class="cls-2" d="M23.5,29.3a10.26,10.26,0,0,0,4.46,1,5,5,0,0,0,3.68-1.1A3.94,3.94,0,0,0,33,26.09a3.75,3.75,0,0,0-1-2.68,7,7,0,0,0-2.2-1.52c-1.66-.9-2-1.21-2-1.75s.52-1,1.37-1,2,.6,3.34,1.83V17.23a6.46,6.46,0,0,0-4.19-1.5c-2.87,0-4.82,1.7-4.82,4.24a4,4,0,0,0,1.26,3,8.42,8.42,0,0,0,2.29,1.52c1.19.64,1.45.91,1.45,1.39,0,.63-.52,1-1.37,1a6.57,6.57,0,0,1-3.63-1.41Z"/><polygon class="cls-1" points="40.63 30.09 50.65 30.09 50.65 26.53 45.35 26.53 45.35 15.9 40.63 15.9 40.63 30.09"/><polygon class="cls-2" points="40.63 30.09 50.65 30.09 50.65 26.53 45.35 26.53 45.35 15.9 40.63 15.9 40.63 30.09"/><path class="cls-1" d="M65.19,26.69V19.27H66.3c2.33,0,3.52,1.25,3.52,3.74s-1.09,3.68-3.38,3.68Zm-4.72,3.39H67.8a7,7,0,0,0,3.48-.74,6.9,6.9,0,0,0,3.26-6.16,7.34,7.34,0,0,0-1.92-5.1A7.17,7.17,0,0,0,67,15.9H60.47Z"/><path class="cls-2" d="M65.19,26.69V19.27H66.3c2.33,0,3.52,1.25,3.52,3.74s-1.09,3.68-3.38,3.68Zm-4.72,3.39H67.8a7,7,0,0,0,3.48-.74,6.9,6.9,0,0,0,3.26-6.16,7.34,7.34,0,0,0-1.92-5.1A7.17,7.17,0,0,0,67,15.9H60.47Z"/><polygon class="cls-1" points="84.94 30.09 89.71 30.09 89.41 22.8 96.27 30.09 100.34 30.09 100.34 15.84 95.56 15.84 95.86 23.2 89 15.9 84.94 15.9 84.94 30.09"/><polygon class="cls-2" points="84.94 30.09 89.71 30.09 89.41 22.8 96.27 30.09 100.34 30.09 100.34 15.84 95.56 15.84 95.86 23.2 89 15.9 84.94 15.9 84.94 30.09"/><path class="cls-1" d="M35.13,18.39a1.54,1.54,0,1,0,1.53-1.54,1.53,1.53,0,0,0-1.53,1.54m-.85-2.49H39V30.08H34.28Z"/><path class="cls-2" d="M35.13,18.39a1.54,1.54,0,1,0,1.53-1.54,1.53,1.53,0,0,0-1.53,1.54m-.85-2.49H39V30.08H34.28Z"/></svg>