<svg id="Capa_1" data-name="Capa 1" xmlns="http://www.w3.org/2000/svg" viewBox="0 0 135 46"><defs><style>.cls-1{fill:#38444e;}</style></defs><path class="cls-1" d="M56.51,36h-.37l.2-.77h.35a.45.45,0,0,1,.34.11.28.28,0,0,1,.08.21c0,.29-.24.45-.6.45m.2-1.26h-.78l-.66,2.5h.54l.2-.76h.47c.68,0,1.2-.35,1.2-1a.69.69,0,0,0-.19-.52,1,1,0,0,0-.78-.25m-1.9,0-.37,1.41a1.15,1.15,0,0,1-.24.47.58.58,0,0,1-.41.15.39.39,0,0,1-.43-.41,1.1,1.1,0,0,1,0-.27l.36-1.35h-.54l-.35,1.3a1.44,1.44,0,0,0-.06.4.82.82,0,0,0,.93.84,1.12,1.12,0,0,0,.84-.3,1.66,1.66,0,0,0,.38-.75l.4-1.49Zm-3.79,2a.6.6,0,0,1-.63-.64.93.93,0,0,1,.86-.94.59.59,0,0,1,.63.64.93.93,0,0,1-.86.94m.29-2.09a1.49,1.49,0,0,0-1.48,1.49A1.08,1.08,0,0,0,51,37.32a1.49,1.49,0,0,0,1.48-1.49,1.07,1.07,0,0,0-1.13-1.11m-2.38,1.1a.66.66,0,0,1-.49.16H48l.19-.72h.46a.5.5,0,0,1,.36.11.26.26,0,0,1,.08.2.33.33,0,0,1-.11.25m-.3-1h-.9l-.66,2.5h.54l.21-.8h.41l.38.8h.62l-.42-.85a1.2,1.2,0,0,0,.57-.3.87.87,0,0,0,.23-.6.67.67,0,0,0-.2-.5,1,1,0,0,0-.78-.25M46,35.23a.8.8,0,0,1,.65.29l.41-.36a1.21,1.21,0,0,0-1-.44,1.54,1.54,0,0,0-1.55,1.51,1.08,1.08,0,0,0,1.17,1.09,1.7,1.7,0,0,0,.89-.24l.35-1.25H45.84l-.13.48h.55l-.12.4a1,1,0,0,1-.44.1.58.58,0,0,1-.63-.6,1,1,0,0,1,.93-1m12.83-3.87h-.54l-.66,2.5H59.4l.14-.5H58.3ZM56.51,32l.11.82H56Zm-.87,1.31h1l.07.56h.56l-.39-2.52h-.52l-1.73,2.52h.59Zm-1.56.56.53-2h.75l.14-.5h-2l-.14.5h.76l-.53,2Zm-2.67-2.5h-.5l-.67,2.5h.54l.43-1.64L52,33.86h.47l.66-2.5h-.54L52.13,33Zm-2.85,2,.15-.53h1.14l.13-.48H48.84l.13-.51h1.31l.13-.49H48.56l-.66,2.5h1.86l.13-.49Zm-1.35-.94a.88.88,0,0,1-.25.63,1.16,1.16,0,0,1-.82.31h-.31l.4-1.52h.27a.72.72,0,0,1,.56.19.5.5,0,0,1,.15.39m-1.39-1.07-.67,2.5h.92a1.76,1.76,0,0,0,1.3-.46,1.4,1.4,0,0,0,.4-1,1,1,0,0,0-.26-.73,1.3,1.3,0,0,0-1-.32ZM64,24.18h0ZM68.49,29,70,22.28a.53.53,0,0,0,0-.13.57.57,0,0,0-.57-.58H63.92a.43.43,0,0,0-.38.29.62.62,0,0,0,0,.13L64,23.86l.06.31c0,.19.29.29.52.29h1.34a.26.26,0,0,1,.26.3h0l-.46,2a.69.69,0,0,1-.44.46,4.09,4.09,0,0,1-1.66.32,3.12,3.12,0,0,1-1.5-.33c-1.33-.67-1.58-2.58-1.2-4.23.66-2.88,1.74-4.35,4.35-4.35h4a1.35,1.35,0,0,0,1.19-.58l.15-.28.85-1.63a.24.24,0,0,0,0-.12.3.3,0,0,0-.3-.29H65.89c-5.55,0-7.44,3.24-8.34,7.24a5.89,5.89,0,0,0,2.55,6.6,7.44,7.44,0,0,0,3.69.79,9.85,9.85,0,0,0,4.12-.81.94.94,0,0,0,.58-.59m2.34,1.31h2.64a.43.43,0,0,0,.4-.29l2.4-10.45s0-.07.06-.07,0,0,0,.07l.49,7.55c0,.17.09.29.25.29h3a1.43,1.43,0,0,0,.81-.29,1.91,1.91,0,0,0,.51-.58l.15-.29,3.36-6.38.14-.28v0s0-.06.08-.06,0,0,0,.07l-.06.29-2.29,10,0,.21a.26.26,0,0,0,.27.29h2.64a.43.43,0,0,0,.4-.29l.07-.3,3.06-13.35.07-.29A.26.26,0,0,0,89,15.8H84.6a1.43,1.43,0,0,0-.81.29,1.91,1.91,0,0,0-.51.58l-.13.24-3.09,5.89a.07.07,0,0,1-.07,0,.08.08,0,0,1-.08-.08l-.37-5.52,0-.32a1.11,1.11,0,0,0-.31-.75,1.48,1.48,0,0,0-1.09-.38h-4a.36.36,0,0,0-.34.28l-.07.3L70.57,30a.25.25,0,0,0,.26.3M70.19,9.2h.25A.3.3,0,0,0,70.71,9a.18.18,0,0,0-.17-.23h-.28q-1.35-.06-2.73-.06C50.17,8.65,36.08,15,36.06,22.92c0,2.66,1.58,5.15,4.34,7.28l.07.05a.11.11,0,0,0,.09,0,.22.22,0,0,0,.21-.17.17.17,0,0,0,0-.14l-.08-.07c-2.09-2.05-3-4.44-2.43-7,1.71-7.55,16-13.65,32-13.73M54.6,24.14h0Zm3.65-8a.51.51,0,0,0,0-.13.28.28,0,0,0-.29-.29H49.65a.75.75,0,0,0-.71.57L45.87,29.66l-.06.28a.25.25,0,0,0,.26.29h2.64a.43.43,0,0,0,.4-.29l0-.11,1.19-5.17a.37.37,0,0,1,.34-.24H54a.7.7,0,0,0,.6-.29l.16-.31,1-1.89a.27.27,0,0,0,0-.12.29.29,0,0,0-.29-.29H51.33a.22.22,0,0,1-.22-.29v0l.53-2.3a.36.36,0,0,1,.34-.27h4.07a1.35,1.35,0,0,0,1.19-.58l.14-.28Zm36.35-.4a.18.18,0,0,1-.07-.05.24.24,0,0,0-.09,0,.21.21,0,0,0-.21.17.15.15,0,0,0,0,.13l.08.08c2.08,2.05,3,4.43,2.43,7-1.71,7.54-16,13.65-32,13.72h-.25a.3.3,0,0,0-.27.23.18.18,0,0,0,.17.23h.28q1.35.06,2.73.06c17.36,0,31.45-6.33,31.47-14.24,0-2.65-1.58-5.14-4.34-7.28"/></svg>