<?xml version="1.0" encoding="utf-8"?>
<!-- Generator: Adobe Illustrator 25.4.1, SVG Export Plug-In . SVG Version: 6.00 Build 0)  -->
<svg version="1.1" id="Capa_1" xmlns="http://www.w3.org/2000/svg" xmlns:xlink="http://www.w3.org/1999/xlink" x="0px" y="0px"
	 viewBox="0 0 135 46" style="enable-background:new 0 0 135 46;" xml:space="preserve">
<style type="text/css">
	.st0{fill:#FFED0C;}
	.st1{fill:#FFED0C;stroke:#FFED0C;stroke-width:0.4833;}
</style>
<rect x="46.3" y="31.4" class="st0" width="22.5" height="2.2"/>
<path class="st0" d="M89,7.5L89,7.5L89,7.5L89,7.5L89,7.5L89,7.5z M89.8,8.7L89.8,8.7L89.8,8.7L89.8,8.7L89.8,8.7L89.8,8.7z
	 M73.1,9.3L73.1,9.3L73.1,9.3L73.1,9.3L73.1,9.3z M77.6,7.6L77.6,7.6L77.6,7.6L77.6,7.6L77.6,7.6z M60.6,17.6L60.6,17.6L60.6,17.6
	L60.6,17.6L60.6,17.6L60.6,17.6L60.6,17.6z M65.1,23.4L65.1,23.4L65.1,23.4L65.1,23.4L65.1,23.4L65.1,23.4L65.1,23.4z M88.1,7.8
	L88.1,7.8L88.1,7.8L88.1,7.8L88.1,7.8z M67.3,12.5L67.3,12.5L67.3,12.5L67.3,12.5L67.3,12.5z M79.5,14.5L79.5,14.5L79.5,14.5
	L79.5,14.5L79.5,14.5z M91.9,8.1L91.9,8.1L91.9,8.1L91.9,8.1L91.9,8.1z M80.5,11.4L80.5,11.4L80.5,11.4L80.5,11.4L80.5,11.4z
	 M70,10.8L70,10.8l0.1-0.1v0.1L70,10.8L70,10.8z M80.6,11.3h0.1v-0.1L80.6,11.3L80.6,11.3z M81.1,7.1L81.1,7.1l0.1,0.1h-0.1V7.1z
	 M62.4,14.2L62.4,14.2l0.1,0v0.1L62.4,14.2L62.4,14.2L62.4,14.2z M59.3,17.2L59.3,17.2L59.3,17.2h0.1v0.1L59.3,17.2L59.3,17.2
	L59.3,17.2L59.3,17.2z M89.8,8.1L89.8,8.1L89.8,8.1h0.1V8L89.8,8.1L89.8,8.1z M70.7,12.7h0.1v0.1L70.7,12.7L70.7,12.7z M61.7,16.1
	h0.1v0.1L61.7,16.1L61.7,16.1z M79.7,14.5L79.7,14.5l0.2-0.1v0.1l-0.1,0L79.7,14.5L79.7,14.5z M64.2,13.3L64.2,13.3l0.1-0.1l0,0v0.1
	H64.2z M78.6,6.6L78.6,6.6L78.6,6.6h0.1l0,0v0L78.6,6.6l0.1,0.1h-0.1V6.6z M72.5,9.1L72.5,9.1l0.1,0l0,0v0.1L72.5,9.1L72.5,9.1z
	 M89,6.4L89,6.4l0.1,0v0.1H89L89,6.4L89,6.4L89,6.4L89,6.4z M78.6,15.4L78.6,15.4l0.1-0.1l0,0l0,0v0h-0.1v0.1L78.6,15.4L78.6,15.4
	L78.6,15.4z M79.3,14.5L79.3,14.5l0.2,0v0.1l0,0l0,0h-0.1L79.3,14.5L79.3,14.5L79.3,14.5z M71.2,12.3L71.2,12.3L71.2,12.3h0.1l0,0
	v0.1l0,0h-0.1L71.2,12.3L71.2,12.3z M77.9,6.6L77.9,6.6L77.9,6.6L78,6.6l0,0v0.1l0,0l-0.1,0L77.9,6.6L77.9,6.6L77.9,6.6L77.9,6.6z
	 M72.2,12.8L72.2,12.8l0.2,0l0,0v0.1L72.2,12.8L72.2,12.8z M67.6,9.9L67.6,9.9l0.2,0l0,0V10l0,0L67.6,9.9L67.6,9.9z M83.1,12
	L83.1,12L83.1,12L83.1,12h0.2l0,0v0.1l-0.1,0h-0.1L83.1,12L83.1,12z M89.6,6.2L89.6,6.2L89.6,6.2v0.1h0.1l0,0V6.1L89.6,6.2L89.6,6.2
	z M78.2,8l0.1,0h0.1v0.1h-0.2L78.2,8L78.2,8z M82.7,12.3L82.7,12.3l0.1,0l0,0l0,0v0l0,0l0,0h-0.1V12.3L82.7,12.3L82.7,12.3z
	 M89.3,6.3L89.3,6.3l0.2,0v0.1l-0.1,0h-0.1V6.3z M62.2,15.5L62.2,15.5l0.2,0v0.1l0,0l0,0l-0.1,0h-0.1v0L62.2,15.5L62.2,15.5z
	 M87.1,8L87.1,8l0.2-0.1l0,0.1v0.1l0,0h-0.1L87.1,8L87.1,8z M86.5,10.6L86.5,10.6l0.3,0v0.1l0,0L86.5,10.6L86.5,10.6z M64.2,12.8
	L64.2,12.8l0.1,0l0,0l0,0v0h-0.1v0.1l-0.1,0h-0.1l0,0L64.2,12.8L64.2,12.8L64.2,12.8z M84.1,5.5L84.1,5.5L84.1,5.5l0.3,0.1l0.1,0
	V5.5l-0.1,0L84.1,5.5L84.1,5.5z M66.4,10.7L66.4,10.7l0.1,0l0,0v0.1l0,0l-0.1,0h-0.1L66.4,10.7L66.4,10.7L66.4,10.7z M89.5,7.8
	L89.5,7.8L89.5,7.8L89.5,7.8L89.4,8h0.2l0.1,0l0,0V7.9l0,0l0,0L89.5,7.8L89.5,7.8z M71.5,12.1L71.5,12.1l0.1,0v0.1l0,0L71.5,12.1
	l0,0.1l-0.1,0h-0.1v-0.1L71.5,12.1L71.5,12.1z M82.5,6.3L82.5,6.3L82.5,6.3l0.2-0.1l0,0v0.1l-0.1,0h-0.1L82.5,6.3L82.5,6.3z
	 M76.3,8.9L76.3,8.9l0.1,0l0.1,0v0.1l0,0h-0.1v0.1h0l0,0l-0.1,0L76.3,8.9L76.3,8.9z M72.7,16.5L72.7,16.5l0.2,0l0.1,0l0,0v0h-0.1
	v0.1l0,0h-0.2V16.5z M80.4,14.2L80.4,14.2l0.2,0v0.1l-0.1,0h-0.1l0,0L80.4,14.2L80.4,14.2z M90.6,5.7L90.6,5.7l0,0.1h0.2l0,0l0,0
	V5.7L90.6,5.7L90.6,5.7z M72.5,11.5v-0.1h0.2l0,0v0.1l0,0l0,0l-0.1,0L72.5,11.5L72.5,11.5L72.5,11.5z M82.4,13.1v-0.1h0.3V13l0,0
	l0,0l-0.1,0L82.4,13.1L82.4,13.1z M70.3,9.7L70.3,9.7L70.3,9.7l0.3-0.1v0.1h-0.1v0.1h-0.1l0,0V9.7z M66.5,13.3L66.5,13.3L66.5,13.3
	l0.2-0.1l0,0v0.1l-0.1,0l-0.1,0l0,0h-0.1l0-0.1L66.5,13.3L66.5,13.3z M81.4,13.6L81.4,13.6L81.4,13.6L81.4,13.6l0.1,0v0.1h-0.1v0.1
	h-0.2l0,0v-0.1l0,0l0,0L81.4,13.6z M89.7,8.4L89.7,8.4L89.7,8.4l-0.1,0.1l0,0.1h0.1V8.5h0.1l0,0l0.1,0V8.4L89.7,8.4L89.7,8.4z
	 M77.8,7.3L77.8,7.3l0.2,0l0.1,0v0.1l0,0l-0.1,0l-0.1,0h-0.1l0,0L77.8,7.3L77.8,7.3z M64.8,11.9L64.8,11.9l0.2,0l0,0V12l0,0.1h-0.3
	L64.8,11.9L64.8,11.9L64.8,11.9z M88.5,8.6L88.5,8.6l0.3,0l0,0v0.1l-0.1,0l-0.1,0h-0.1l0,0V8.6z M83.9,7.3L83.9,7.3l0.3-0.1v0.1l0,0
	l-0.1,0h-0.2V7.3z M84,7.7L84,7.7l0.2,0l0,0v0l0,0l0,0.1l0,0l0,0l0,0h-0.2V7.9l0.1,0L84,7.7L84,7.7L84,7.7L84,7.7z M83.9,8.9
	L83.9,8.9l0.1,0l0.1,0l0,0l0,0v0h-0.1v0.1l0,0h-0.2l0,0L83.9,8.9L83.9,8.9z M64.8,12.7L64.8,12.7L64.8,12.7l0.1,0.1l0,0l0,0h-0.1
	v0.1l0,0h-0.2v-0.1l0.1,0L64.8,12.7L64.8,12.7L64.8,12.7z M78.3,7L78.3,7l0.2,0l0.1,0v0.1l0,0l-0.1,0h-0.1l-0.1,0L78.3,7L78.3,7z
	 M90,5.7L90,5.7l-0.1,0.1V6h0.1l0.2,0l0,0l0,0V5.8l0,0l0,0L90,5.7L90,5.7z M75,8.1L75,8.1L75,8.1L75.3,8v0.1l0,0l-0.1,0l0,0.1
	l-0.1,0h-0.1V8.2L75,8.1L75,8.1L75,8.1z M78.4,9.3h0.2V9.3h0.1l0,0v0.1l0,0l0,0l0,0h-0.1v0.1l-0.1,0h-0.1l0,0V9.4L78.4,9.3L78.4,9.3
	L78.4,9.3L78.4,9.3z M72.4,9.7L72.4,9.7L72.4,9.7h0.2l0,0v0.1h0.1l0,0v0.1h-0.1v0.1h-0.3L72.4,9.7L72.4,9.7L72.4,9.7z M72,10.1
	L72,10.1l0.2-0.1l0,0.1v0l0,0.1l-0.1,0H72v0.1l-0.1,0h-0.1l0,0l0,0v-0.1l0,0l0,0L72,10.1L72,10.1z M75.6,7.7L75.6,7.7L75.6,7.7
	l0.1-0.1l0,0l0,0v0.2l0,0h-0.1v0.1l0,0l-0.1,0h-0.1l0,0V7.9l0,0l0,0l0,0L75.6,7.7L75.6,7.7L75.6,7.7z M72,11.7L72,11.7l0.2,0l0,0
	v0.1l0,0l0,0l0,0h-0.2V12l0,0l-0.1,0h-0.1l-0.1,0V12h0.1v-0.1l0.1,0l0.1,0L72,11.7L72,11.7L72,11.7z M70.9,10.7L70.9,10.7l0.4,0l0,0
	v0.1l0,0h-0.1v0.1l0,0l-0.1,0l-0.1,0l0,0h-0.2l0-0.1v-0.1l0,0L70.9,10.7L70.9,10.7L70.9,10.7L70.9,10.7z M88.1,9.2L88.1,9.2
	L88.1,9.2l0.3-0.1v0.1l0,0l0,0l-0.1,0l-0.1,0l0,0l0,0l-0.1,0h-0.2V9.4l0-0.1l0.1,0L88.1,9.2L88.1,9.2L88.1,9.2z M78.1,15.7l0.1,0
	h0.2v0.1l-0.1,0l-0.1,0h-0.1v0.1l-0.1,0l-0.1,0H78l-0.1,0v-0.1h-0.1v-0.1l0.1,0L78.1,15.7L78.1,15.7z M74.5,18L74.5,18l0.2,0l0.1,0
	l0.1,0v0.1l0,0l0,0l0,0l-0.1,0l-0.1,0h-0.1l-0.1,0l-0.1,0v-0.1L74.5,18L74.5,18L74.5,18z M71.7,20.2L71.7,20.2l0.3,0l0,0v0.1h0.1
	v0.1l0,0l0,0l-0.1,0h-0.4l-0.1,0v-0.1l0.1,0L71.7,20.2L71.7,20.2L71.7,20.2z M76.6,8.1L76.6,8.1L76.6,8.1L76.8,8l0,0v0.1h-0.1v0.1
	l0,0l-0.1,0l0,0.1l-0.1,0h-0.1v0.1h-0.2V8.3l0.1,0l0,0h0.1V8.2L76.6,8.1L76.6,8.1z M64.8,12.3L64.8,12.3l0.3,0v0.1h0.1l0.1,0v0.1
	l-0.1,0l-0.1,0l0,0l-0.1,0h-0.1l0,0v-0.1h-0.1l0,0L64.8,12.3L64.8,12.3L64.8,12.3z M82.7,8L82.7,8L83,8v0.1l0,0h-0.1v0.1l-0.1,0
	l-0.1,0h-0.1v0.1l0,0h-0.1v0.1h-0.2V8.3h-0.1V8.2h0.1V8.1L82.7,8L82.7,8L82.7,8L82.7,8z M79.3,6.5L79.3,6.5l0.1,0l0.1,0v0.1l-0.1,0
	h-0.1v0.1l0,0l0,0l-0.1,0h-0.1v0.1l-0.1,0l-0.1,0h-0.3V6.8l0,0l0,0l0,0l0,0H79V6.6l0.1,0L79.3,6.5L79.3,6.5L79.3,6.5z M71.8,8.7
	L71.8,8.7l0.2,0v0.1l0,0l0,0l0,0h-0.1v0.1l0,0l0,0h-0.1v0.1l-0.1,0h-0.1v0.1h-0.1V9.1h-0.1V9l0,0l0,0l0,0h0.1V8.8l0,0l0.1,0
	L71.8,8.7L71.8,8.7L71.8,8.7z M75.4,17.4L75.4,17.4l0.1,0l0,0l0,0v0h-0.1v0.1l-0.1,0l0,0l0,0l0,0h-0.1v0.1h0.1v0.1H75l-0.1,0v-0.2
	l0,0l0.1,0l0.1,0l0,0l0,0l0.1,0L75.4,17.4L75.4,17.4z M80.9,7.5L80.9,7.5l0.1-0.1l0,0l0,0v0.1H81v0.1l-0.1,0h-0.1v0.1l0,0l-0.1,0
	l-0.1,0l0,0h-0.1V7.9h-0.1l0,0V7.7h-0.1V7.7h0.1l0,0h0.1l0.1,0l0.1,0l0,0L80.9,7.5L80.9,7.5z M86,8.5L86,8.5l0.2,0l0,0l0,0v0h-0.1
	v0.1l0,0l0,0H86v0.1l0,0l0,0h-0.1v0.1l0,0l-0.1,0h-0.1v0.1h-0.2V8.9h-0.1V8.8l0.1,0l0,0l0,0l0.1,0l0.1,0l0.1,0l0,0h0h0L86,8.5
	L86,8.5L86,8.5L86,8.5z M82,6.1L82,6.1L82,6.1L82.3,6l0,0v0.1l-0.1,0l-0.1,0l0,0l-0.1,0l-0.1,0h-0.1v0.1l-0.1,0h-0.1v0.1l-0.1,0
	l-0.1,0l0,0l-0.1,0h-0.1l0,0V6.5l0,0l0,0l0,0l0,0l0.1,0l0.1,0h0.1V6.3l0.1,0l0.1,0h0.1L82,6.1L82,6.1L82,6.1z M85.6,10.5L85.6,10.5
	l0.3,0v0.1l-0.1,0l-0.1,0l0,0l0,0l0,0l-0.1,0h-0.1v0.1l0,0l-0.1,0h-0.2V11l0,0l0,0l-0.2,0l0,0h-0.2l0,0l0,0V11l0.1,0l0,0l0.1,0
	l0.2,0h0.1v-0.1l0-0.1h0.1v-0.1l0.1,0l0.1,0h0.1v-0.1l0,0L85.6,10.5L85.6,10.5L85.6,10.5z M71,9.3L71,9.3l0.4,0l0,0v0.2l0,0l0,0
	l-0.1,0l-0.1,0h-0.1v0.1l-0.1,0l0,0l0,0l0,0l0,0l-0.1,0l0,0l-0.1,0l0,0h-0.1v0.1h-0.1l0,0V9.7l0,0l0,0l0,0h0.1V9.6l0,0l0,0h0.1V9.5
	L71,9.3L71,9.3L71,9.3L71,9.3z M89.3,5.5L89.3,5.5l-0.2,0.1l0,0l-0.1,0l-0.1,0l-0.1,0l0,0l-0.1,0l-0.1,0l0,0l0,0l-0.1,0l-0.1,0V6
	l0,0h0.1l0.1,0l0,0l0.1,0l0.1,0l0.3,0l0,0l0.1,0l0.1,0V5.8h0.1l0.1,0l0.1,0V5.7h0.1l0.1,0l0,0V5.5l0,0l0,0L89.3,5.5L89.3,5.5
	L89.3,5.5z M76.2,16.7L76.2,16.7l0.2,0l0,0v0.1h-0.1v0.1l0,0.1l0,0l0,0l0,0.1l0,0.1h-0.1v0.1l0,0l-0.2,0l0,0.1l0,0h-0.2l0,0l0,0
	l-0.1,0l-0.1,0v-0.1l0.1,0h0.1v-0.1l0.1,0l0.1,0l0.1,0l0,0l0-0.1l0,0l0-0.1l0,0l0,0L76.2,16.7L76.2,16.7z M79.4,8.6h0.2V8.6h0.1l0,0
	v0.1l0,0l0,0l0,0h-0.1v0.1l-0.1,0l-0.1,0l0,0.1l-0.2,0l0,0.1l0,0h-0.1v0.1l0,0l0,0H79v0.1h-0.1l0-0.1V9.1h-0.1l0-0.1l-0.1,0V8.9h0.1
	V8.8l0,0l0.2,0l0-0.1l0.1,0L79.4,8.6z M79.7,8.1L79.7,8.1L79.7,8.1L80,8l0,0l0.1,0v0.1l0,0l0,0l0,0l-0.1,0l-0.1,0l0,0l0,0v0.1l0,0
	l0,0l0,0h-0.4V8.5h-0.3V8.4h-0.1V8.3h0.1V8.3l0.1,0l0.2,0h0.2V8.2l0,0L79.7,8.1z M70.2,10L70.2,10l0.4,0v0l0,0l0,0.1l0,0.1l0,0h-0.1
	v0.1l-0.1,0l0,0h-0.1v0.1l-0.1,0l0,0l0,0l-0.1,0h-0.1l0,0l0,0l-0.1,0h0l-0.1,0l0,0h0v-0.1h-0.1v-0.1l0,0l0,0l0,0l0-0.1l0.1,0l0.1,0
	h0.1V10l0.1,0H70.2L70.2,10z M77.3,16L77.3,16l0.2,0l0.1,0v0.1h0.2v0.1l0,0l-0.1,0l-0.2,0h-0.2v0.1h-0.1l0,0.1v0.1l0,0H77v0.1h-0.2
	c0-0.1-0.2-0.1-0.3,0h-0.1v-0.1l0-0.1h0.1v-0.1l0.1,0l0.1,0l0-0.1l0,0l0.1,0l0,0l0.1,0l0.1,0l0.1,0l0,0l0,0L77.3,16L77.3,16L77.3,16
	z M73.4,7.6L73.4,7.6l0.2,0l0,0l0,0v0.1h-0.1v0.1l0,0l-0.1,0l0,0.1h-0.1v0.1l0,0l-0.1,0l-0.1,0l0,0l-0.1,0l-0.1,0l-0.1,0l0,0l0,0.1
	l0,0.1l0,0.1h-0.1v0.1l-0.1,0l0,0l0,0l-0.1,0l0,0l-0.2,0l0,0h0l0,0l0,0h-0.1V8.5l0.1,0h0.1V8.4l0,0l0.1,0h0.1V8.3l0.1,0l0,0l0.1,0
	l0,0l0,0h0.1V8l0-0.1l0,0h0.1V7.8l0.1,0l0.1,0l0.1,0l0,0h0v0.1h0.1L73.4,7.6L73.4,7.6z M85.3,8.1L85.3,8.1l0.3,0l0.1,0l0,0l0,0
	l0.1,0l0,0v0.1l0,0l0,0l0,0h-0.2l0,0l-0.1,0h-0.2l0,0l0,0l0,0l0,0H85v0.1l-0.1,0h-0.5l-0.1,0V8.5h-0.1V8.5l0.1,0h0.1V8.4l0.3,0
	l0.1,0l0.1,0l0,0l0.1,0L85.3,8.1L85.3,8.1L85.3,8.1L85.3,8.1z M74.7,9.9L74.7,9.9l0.2,0l0.1,0V10l0,0l0,0l-0.1,0h-0.1v0.1l-0.1,0
	l0,0h-0.1v0.1l-0.1,0l0,0h-0.1v0.1l-0.1,0l0,0l-0.1,0l-0.1,0l0,0v0.1l0,0l-0.1,0l0,0l-0.1,0l0,0l-0.1,0l0,0l-0.1,0l-0.1,0l0,0.1l0,0
	l-0.1,0l0,0h-0.1V11h-0.1v0l0,0l0,0l0,0l0-0.1l0.2,0l0,0l0,0l0,0l0.1,0h0.1v-0.1l0,0l0.1,0l0-0.1l0.2,0l0-0.1h0.1v-0.1l0-0.1l0.1,0
	l0,0l0,0l0,0h0.1V10l0,0L74.7,9.9L74.7,9.9L74.7,9.9L74.7,9.9z M90.1,7.2L90.1,7.2l0.3,0v0.1h0.1v0l0,0l0,0l0,0l0,0l0,0l-0.1,0h-0.1
	v0.1l-0.1,0l-0.1,0h-0.1v0.1l-0.1,0l-0.1,0h-0.2v0.1h-0.1v0.1l0,0l-0.1,0l0,0l0,0l-0.1,0l-0.2,0h-0.1V8l-0.1,0h-0.1l0,0V7.9l0,0h0.1
	V7.8l0.1,0l0.1,0l0.1,0l0,0l0.1,0H89V7.6l0.2,0h0.2V7.5l0,0l0,0h0.1V7.4l0.1,0l0.1,0h0.1V7.3L90.1,7.2L90.1,7.2z M84.4,6.5L84.4,6.5
	l0.2,0v0.1h0.1v0.1l-0.1,0l0,0.1l-0.1,0l0,0h-0.1v0.1l-0.1,0l-0.1,0l0,0l0,0l-0.1,0L84,7h-0.1v0.1l-0.1,0l-0.1,0l0,0l-0.1,0l-0.1,0
	h-0.1v0.1l-0.1,0l-0.1,0h-0.1v0.1l-0.2,0l-0.1,0h-0.1v0.1l-0.1,0l-0.1,0h-0.1v0.1l-0.1,0h-0.3V7.5l0.1,0l0.1,0l0.1,0l0,0l0,0l0,0
	l0,0l0,0l0.1,0h0.1V7.2l0.1,0l0,0h0.1V7.1l0.1,0l0.1,0h0.2V6.9l0.1,0l0.1,0l0-0.1l0.1,0l0,0h0.1V6.7l0.1,0l0.1,0l0.1,0l0,0l0.1,0
	L84.4,6.5z M77.5,7.1L77.5,7.1l0.2,0v0.1h0.1v0.1l-0.1,0l-0.1,0h-0.1v0.1l-0.1,0h-0.1v0.1l0,0l0,0l0,0.1l-0.1,0l-0.1,0H77v0.1l0,0
	h-0.1v0.1l0,0l-0.1,0l-0.1,0l0,0l0,0l0,0h-0.1V8l-0.1,0l-0.1,0l0,0l0,0l0,0l0,0l0,0l0,0l0,0l0,0h-0.1v0.1l-0.1,0h-0.1v0.1l0,0l0,0
	h-0.1v0.1l0,0l0,0h-0.2v0.1h-0.3l0,0V8.6l0,0h0.1V8.5l0,0l0.2,0l0,0l0.1,0l0,0h0.1V8.3l0-0.1l-0.1,0l0,0V8l0.1,0h0.2h0.1H76V7.9
	l0.1,0h0.1V7.8l0.1,0l0.1,0l0.1,0l0,0l0.1,0l0,0h0.1V7.6l0,0l0.1,0l0,0l0,0l0.1,0l0.1,0l0.1,0l0,0l0.1,0h0.1V7.3l0,0h0.1V7.1
	L77.5,7.1L77.5,7.1z M74.1,18.4L74.1,18.4l-0.2,0.1l0,0l0,0l0,0l0,0l0,0l0,0v0.1h-0.1l-0.2,0l0,0l0,0V19h-0.1l0,0l0,0v0.1h-0.1
	l0,0.1v0.1H73l0,0l-0.1,0l0,0.1l-0.1,0l0,0v0.1h-0.1l0,0.1l-0.1,0l0,0v0.1h-0.1l0,0l0,0v0.1h-0.1l0,0.1l0,0l0,0l-0.1,0l0,0V20H72
	l0,0l0,0.1v0.1h0.3l0.1,0l0,0l0,0l0,0l0.1,0l0,0l0.1,0l0,0l0,0v-0.1h0.1l0.1,0l0-0.1l0.1,0l0,0l0,0v-0.1H73l0,0l0.1,0l0-0.1l0.1,0
	l0,0l0-0.1v-0.1h0.1l0.1,0l0,0l0.1,0l0,0l0.1,0l0,0l0,0l0-0.1V19h0.1l0.1,0v-0.1H74v-0.1h0.1l0.1,0l0,0l0,0l0-0.1l0.1,0l0,0l0,0
	v-0.1l0,0l0,0h-0.1v0.1H74.1z M63.8,13L63.8,13l0.2,0l0,0l0.1,0v0.1l0,0l0,0l-0.1,0l0,0l0,0l0,0l0,0l0,0h-0.1v0.1l0,0l0,0h-0.1v0.1
	l0,0.1l-0.1,0l0,0l-0.1,0l0,0l0,0l0,0l0,0l0,0l0,0.1l0,0l0,0.2l-0.2,0H63v0.2l-0.2,0l-0.1,0l0,0.1l0,0l0,0.1l0,0l0,0.1l-0.1,0l0,0.2
	h-0.1V15l-0.1,0h-0.2l0,0l0,0v-0.1l0,0l0,0l0-0.1l0,0l0,0l0,0l0,0l0,0l0,0l0,0l0,0l0,0l0,0l0,0l0,0l0,0l0.1,0l0.1,0l0-0.1v-0.1v-0.1
	l0.1,0l0,0h0.1v-0.1l0,0l0,0l0,0l0,0l0-0.1l0,0l0.1,0l0,0l0.1,0l0.1,0l0-0.1l0.1,0l0,0l0,0l0,0l0.1,0l0-0.1l0,0h0.1L63.8,13L63.8,13
	L63.8,13z M88.7,6.3L88.7,6.3L88.7,6.3h0.1l0.1,0v0.3l0,0l0,0l-0.1,0l-0.1,0l-0.1,0l0,0h-0.1l0,0h-0.2l0,0h-0.1V7L88,7h-0.2l0,0h0
	l-0.1,0l0,0l0,0l0,0l-0.1,0v0.1v0h-0.1v0.1l0,0.1l0,0l-0.1,0l-0.1,0l-0.1,0l0,0H87v0.1l-0.1,0l0,0l-0.1,0l-0.1,0l0,0.1l-0.1,0h-0.1
	v0.1l-0.1,0l-0.1,0l-0.1,0l0,0l-0.1,0l-0.1,0l-0.1,0l0,0l-0.1,0l-0.2,0h-0.1l0,0V8l0,0l0,0l0,0l0,0l0-0.1l0.1,0l0.1,0l0.1,0l0,0
	l0.1,0l0.1,0h0.1l0-0.1V7.5l0,0h0.1V7.4l0.1,0l0.1,0l0.1,0l0,0l0,0l0,0l0,0l0.1,0l0.1,0l0-0.1l0,0l0.1,0l0,0l0,0l0.1,0l0.2,0l0.1,0
	l0,0h0.2V6.8l0-0.1l0,0l0.1,0h0.2V6.6h0.1V6.5l0,0l0,0l0,0l0.1,0l0,0l0.1,0l0.1,0L88.7,6.3z M84.9,9L84.9,9L84.9,9l-0.1,0.1l0,0l0,0
	v0.1h-0.1h-0.1h-0.1l-0.1,0v0.1h-0.1l0,0v0.1h-0.2l-0.1,0v0.1h-0.1l0,0l-0.1,0l-0.1,0v0.2h-0.1l-0.2,0V10h-0.1L83,10l0,0l0,0.1v0.1
	h-0.1v0.1h-0.1l0,0v0.1h-0.1l0,0l-0.1,0v0.1h-0.1l-0.1,0v0.1h-0.1l-0.1,0l-0.1,0v0.1h-0.1l-0.1,0l-0.1,0v0.1h-0.1l0,0v0.1l0,0.1l0,0
	l0,0H82l0.1,0v-0.1h0.2l0.1,0l0,0l0,0l0.1,0l0.1,0l0,0v-0.1h0.1l0,0l0.1,0l0,0l0,0l0.1,0l0.1,0l0,0l0,0l0,0l0,0l0.4,0l0.1,0l0,0
	l0-0.1l0,0l0,0l0,0l0.1,0l0.1,0V10H84l0,0l0.1,0V9.9h0.1l0,0V9.8V9.7V9.7h0.1l0.3,0l0,0V9.5h0.1V9.4h0.1l0.1,0l0-0.1l0.1,0l0,0
	l0.1,0V9.2h0.1l0,0V9.1l0-0.1l-0.1,0L84.9,9L84.9,9z M87.9,6.2L87.9,6.2L87.9,6.2l-0.1,0.1l0,0.1h-0.1l-0.3,0v0.1h-0.1l-0.1,0l0,0
	l0,0l0,0l0,0v0.1H87l-0.1,0l-0.1,0v0.1h-0.1l-0.1,0l-0.1,0l0,0l-0.1,0l-0.1,0l-0.1,0l0,0L86,7L86,7v0.1h-0.1l-0.1,0l-0.1,0v0.1h-0.2
	l0,0v0.1h-0.1l0,0l0,0v0.1h-0.1l0,0l0,0v0.1h-0.1l0,0l-0.1,0v0.1h-0.1l-0.1,0l0,0v0.1h-0.1l-0.1,0l-0.2,0v0.1h-0.1V7.8h-0.1v0.1
	h-0.1l0,0V8h-0.1l-0.1,0l0,0v0.1H84l-0.1,0l-0.1,0l0,0l0,0l0,0l0,0l0,0v0.1h-0.1l-0.1,0l0,0l-0.1,0l-0.1,0l0,0l0,0l-0.1,0l-0.1,0
	v0.1H83h-0.2h-0.1l-0.2,0h0h-0.1l-0.1,0v0.1l0,0h0.1l0.1,0V8.8h0.1h0.1h0.1v0.1l0,0.1h-0.1l0,0l-0.1,0V9h-0.1l0,0l-0.1,0l0,0l-0.1,0
	l-0.2,0l-0.1,0V9.1H82l0,0V9h0.1l0.1,0l0,0V8.9l0-0.1l-0.3,0l0-0.1l0.1,0l0,0V8.6h0.1v0l0,0l0,0h-0.2l-0.1,0v0.1h-0.1l0,0l-0.1,0
	v0.1h-0.1l-0.1,0l-0.1,0l0,0l0,0.1l0,0V9H81l-0.1,0l-0.1,0l0,0.1l0,0l0,0.1l0,0v0.1h-0.1l-0.2,0l0,0v0.1h-0.1l0,0l0,0v0.1h-0.1
	l-0.1,0l-0.1,0l0,0l-0.1,0l0,0l-0.1,0l0,0l-0.1,0l-0.1,0v0.1h-0.1l0,0l0,0.1l-0.1,0l-0.1,0v0.1h-0.1l0,0l0,0v0.1H79l-0.1,0l-0.1,0
	v0.1h-0.1l0,0l-0.1,0l0,0l-0.1,0l0,0v0.1h-0.1l-0.1,0h-0.1l0-0.1l0.1,0l0,0v-0.1l0,0h-0.1v0.1l-0.2,0l0-0.1l0-0.1l0.1,0l0.1,0v-0.1
	h0.1l0.1,0h0.1h0.2l0-0.1l0,0l0.1,0l0-0.2l0,0l0.1,0l0,0V9.7h0.1l0,0l0-0.1l0.1,0l0.2,0l0-0.1l0.1,0l0-0.1l0,0l0.1,0l0.1,0V9.3h0.2
	l0.1,0l0.1,0V9.1h0.1l0.3,0V9h0.1l0,0l0,0V8.9h0.1l0.1,0l0.1,0V8.8h0.1l0.1,0l0-0.1l0,0l0,0l0.1,0V8.5h0.1l0.1,0l0.1,0l0,0l0.1,0
	l0,0l0-0.1l0.1,0l0,0V8.2h0.1V8.1l0.1,0l0.2,0l0,0V7.9l-0.1,0h-0.3l-0.1,0V8h-0.3l-0.1,0l-0.1,0l0,0.1l-0.1,0l0,0l0,0.1v0.1h-0.1
	l0,0.1l-0.1,0l-0.1,0l0,0l-0.1,0l-0.1,0l-0.1,0l0,0l-0.1,0l-0.1,0l0,0.1l-0.1,0l0,0v0.1h-0.1l-0.1,0l-0.1,0l0,0l-0.1,0l0,0l-0.1,0
	l0,0l-0.1,0l-0.1,0l-0.1,0l0,0l-0.1,0l-0.1,0l0,0v0.1h-0.1l0,0l0,0.1v0.1h-0.1v0.1H79l-0.1,0l-0.1,0v0.1h-0.1l0,0l0,0v0.1h-0.1
	l-0.1,0l-0.1,0l0,0l-0.1,0l-0.1,0v0.1h-0.1h-0.1H78V9.8l0,0l0,0l0,0h-0.2h-0.1h-0.1l-0.1,0l0,0l-0.1,0l-0.1,0l0,0l0,0l-0.1,0l0,0
	l0,0.1l-0.1,0v0.1h-0.3l-0.2,0h0l0-0.2h0.3l0,0l0,0l0.2,0l0.1,0l0.1,0V9.7l-0.1,0l0-0.1V9.5l0.1,0l0,0l0.1,0l0.1,0V9.3l-0.1,0l0-0.1
	l-0.1,0l0-0.1V9h0.1l0.1,0h0.2l0,0h0.5V8.9H78c0-0.1,0.1-0.1,0.1,0h0.1V8.9h0.1v0l0,0l-0.1,0h-0.1V8.7h0.1l0.1,0l0,0.1h0.1v0.1h0.3
	l0,0l0.1,0l0,0V8.5V8.4l0-0.1l0-0.1l0,0l0,0l0.1,0l0.1,0l0,0l0.1,0l0.1,0l0,0l0,0l0,0l0,0l0,0l0,0l0.1,0l0.1,0l0.1,0l0,0l0.1,0
	l0.1,0V7.7H80l0,0l0,0l0,0l0,0l0,0l0,0l0,0l0.1,0l0.1,0l0.1,0l0,0l0.1,0l0,0l0.1,0V7.2h0.1l0,0l0,0V7.1h0.1l0,0V6.9l0,0l0,0h-0.1
	l0,0l-0.1,0l-0.1,0l0,0V7h-0.1l-0.1,0l0,0l0,0.1l-0.1,0l0,0l0,0l-0.1,0l0,0l0,0l-0.1,0l-0.1,0l0,0l0,0l-0.1,0l-0.1,0l-0.1,0v0.1
	h-0.1l-0.1,0l-0.1,0v0.1l0,0V7.5h0l0,0l-0.1,0l-0.1,0l-0.1,0l0,0l-0.1,0l0,0l0,0v0.1h-0.1l-0.1,0l0,0l0,0V8h0.2l0,0v0.1h-0.1l-0.1,0
	l-0.1,0v0l-0.1,0.1l-0.1,0l0-0.2H78l0,0.1l-0.1,0l-0.1,0l-0.1,0v0.1h-0.1l0,0l0,0l0,0l0,0l0,0l0,0l0,0v0.1h-0.1l0,0.1l-0.1,0l0,0.1
	l-0.1,0l-0.1,0l-0.1,0v0.1h-0.1l-0.1,0l0,0l0,0l-0.1,0l-0.1,0v0.1h-0.1l-0.1,0v0.1h-0.1l-0.1,0v0.1h-0.1h-0.1H76V9.3l-0.1,0h-0.1
	l-0.1,0v0.1h-0.1l0,0l0,0v0.1h-0.1v0.1h0.2l0.2,0c0-0.1,0.2-0.1,0.2,0h0.1v0.1l-0.3,0h-0.2l-0.1,0l-0.1,0v0.1h-0.1l0,0l0,0v0.1h-0.1
	l0,0v0.1h-0.1l-0.1,0l-0.1,0l0,0.1l-0.1,0l0,0l0,0l-0.1,0l-0.1,0l-0.1,0v0.1h-0.1l-0.1,0l0,0v0.1h-0.1l-0.1,0l0,0l0,0l0,0l-0.1,0
	l0,0l0,0l0,0l-0.1,0l0,0.1l-0.1,0l-0.1,0l0,0l0,0l-0.1,0l0,0.1l0,0l0,0l-0.1,0V11h-0.1v0.1h-0.1l0,0l-0.1,0l0,0v0.1h-0.1l0,0v0.1
	h-0.1l-0.2,0l0,0l0,0v0.1h-0.1l0,0l0,0l0,0l0,0v0.1h-0.1l0,0l-0.1,0l0,0l-0.1,0l-0.1,0l0,0l-0.1,0l-0.1,0l-0.1,0l0,0.1V12h-0.1l0,0
	l-0.1,0l-0.1,0l-0.1,0l0,0.1v0.1h-0.1l0,0v0.1h-0.1v0.1h-0.1l0,0l-0.1,0v0.1h-0.1l-0.1,0v0.1h-0.1l0,0l0,0v0.1H71l-0.1,0V13h-0.1
	l0,0l0,0l0,0l0,0l0,0l0,0l0,0l0,0l-0.4,0l0,0l0,0v0.2H70l-0.2,0l0,0v0.1l0,0l0,0l0.1,0h-0.2v-0.1v-0.1l0,0v-0.2h-0.1l0,0l0,0l-0.1,0
	l-0.1,0l-0.1,0l0-0.1l0-0.1l0,0l0-0.1l0,0v-0.1h0.1l0,0l0.1,0l0,0l0,0v-0.1h0.1l0,0l0.1,0l0.1,0l0.1,0l0-0.1l0,0l0,0l0.1,0l0,0v-0.1
	h0.1l0,0l0.1,0l0,0l0.1,0l0,0l0.1,0l0-0.1l0,0l0,0l0.2,0l0,0l0-0.1v-0.1h0.1l0,0l0,0v-0.1H71l0,0l0,0V12h0.1l0.1,0l0,0l0.1,0l0,0
	l0,0l0-0.1l0.1,0l0,0l0,0l0.1,0l0.1,0v-0.1h0.1l0.1,0l0,0l0,0l0-0.1l0,0l0,0l0.2,0l0,0l0.1,0v-0.1h0.1l0-0.1V11h0.1l0.1,0h0h0.3
	l0-0.1l0.1,0l0,0v-0.1H73l0,0v-0.1h0.1l0,0l0.1,0l0,0l0.1,0l0.1,0l0.1,0v-0.1h0.1l0-0.1l0.1,0l0.1,0v-0.1h0.1l0,0l0,0v-0.1H74l0.2,0
	l0,0l0.1,0l0,0l0-0.1l0-0.1l0,0l0,0l0,0V9.5h0.2l0.1,0l0.1,0V9.4h0.1l0.1,0V9.3h0.1l0,0l0.1,0V9.2h0.1l0,0l0,0l0,0l0.1,0l0.1,0V9
	h0.1l0,0V8.8l-0.1,0h-0.1l-0.2,0l0,0l-0.1,0V8.8l0,0l0,0h-0.1V8.7h-0.3l0,0l0,0l0,0.1l0,0v0.1h-0.1l-0.1,0l0,0l0,0l-0.1,0l-0.1,0
	l0,0l-0.2,0l-0.1,0v0.1H74l0,0l0,0l-0.1,0l0,0v0.1h-0.1h-0.1h-0.2l0,0.1l-0.1,0h-0.1l-0.2,0l0,0h-0.1l0,0l0,0v0.1h0.1v0.1h0h0l0.1,0
	l0,0.1v0.1h0.1v0.1V10L73,10l0,0v0.1h-0.1l-0.1,0h-0.1h-0.4l0,0v0.1l0,0l0,0v0.1l-0.2,0l-0.1,0l0,0.1v0.1H72l0,0l0,0v0.1h-0.1l0,0
	l-0.1,0v0.1h-0.2l-0.1,0V11l0,0l0,0.1h-0.2l0,0l0,0l0,0h-0.3h-0.2h-0.3h-0.2l-0.2,0l-0.1,0l0,0l0,0.1l0,0v0.1h-0.1l-0.1,0l0,0l0,0
	l0,0l-0.1,0l-0.1,0v0.1h-0.1l0,0l-0.1,0l0,0l-0.1,0l0,0v0.1h-0.1l0,0.1V12h-0.1L69,12l0,0v0.1h-0.1l0,0v0.1h-0.1v0.1h-0.1l0,0
	l-0.1,0l-0.1,0l-0.1,0l0,0l-0.1,0l0,0v0.1h-0.1l0,0l0,0v0.1H68l-0.1,0l0,0.1l0,0l0,0l0,0l0,0V13h-0.1l-0.1,0l-0.1,0l0,0l-0.2,0l0,0
	v0.1h-0.1l-0.1,0l-0.1,0v0.1H67l-0.1,0l0,0l0,0l-0.1,0l-0.1,0l0,0l0,0.1l0,0l0,0l0,0l0,0l-0.1,0v0.1h-0.1l0,0v0.1h-0.1l-0.1,0l0,0
	l0,0l-0.1,0L66,14l0,0l0,0l0,0l0,0l-0.1,0l0,0l0,0l0,0l0,0l0,0l0,0l0,0l0,0l-0.1,0l-0.1,0l0,0l0,0.1l-0.1,0l0,0l0,0l0,0l0,0.1v0.1
	h-0.1l0,0l-0.1,0l0,0.1l0,0l0,0.1l-0.1,0l0,0l0,0.1l0,0v0.1h-0.1l0,0v0.1h-0.1l0,0v0.1h-0.1v0.1h-0.1v0.1h-0.1l-0.1,0v0.1h-0.1l0,0
	l0,0.1l-0.1,0l0,0l0,0.1l-0.1,0l0,0l0,0.1L64,16l0,0l0,0.1l0,0l0,0l-0.1,0l-0.1,0l-0.3,0l0.1,0v-0.2h0.1l0,0l0-0.1l0-0.1l0,0l0-0.1
	l0.1,0l0,0l0-0.1l0.2,0l0.1,0v-0.1h0.1v-0.1v-0.1l0-0.1l0.1,0l0,0v-0.1h0.1l0,0l0,0l0,0l0,0l0,0l0,0l0,0l0,0l0,0l0,0l0-0.1l0,0l0,0
	l0,0l0.1,0l0,0l0.1,0v-0.1h0.1l0,0l0-0.1v-0.1h0.1l0.1,0l0-0.1l0-0.1l0,0l0-0.1l0-0.1l0,0l0.1,0v-0.1h0.1l0.3,0l0,0l0,0v-0.1l0,0
	l0-0.1H66l0.1,0v-0.1h0.2l0.1,0l0,0v-0.1l-0.2,0l0.1,0l0.1,0l0.1,0l0,0l0,0V13h0.3l0.1,0v-0.1h0.1l0.1,0l0.1,0v-0.1h0.1v-0.1l0,0
	l-0.3,0l0,0l0,0l0,0l0,0l0.1,0v-0.1h0.1l0,0l0.1,0l0,0l0-0.1v-0.1h0.1l0.1,0l0.1,0l0-0.1l0.1,0l0,0V12h0.1l0.1,0l0.1,0l0,0l0,0l0,0
	l0,0l0,0l0,0l0,0l0.1,0l0-0.1l0.1,0l0-0.1l0,0l0,0l0,0l0,0l0.1,0l0.1,0v-0.1h0.1l0,0v-0.1h0.1l0.1,0l0.1,0v-0.1h0.1l0.1,0l0.1,0V11
	h0.1l0.1,0l0,0l0,0l0.1,0l0,0v-0.1h0.1v-0.1h-0.1v-0.1l-0.1,0h-0.1l-0.1,0l-0.1,0v0.1h-0.1l-0.2,0v0.1h-0.1l-0.2,0v0.1h-0.1l-0.1,0
	l0,0l0,0l-0.1,0l0,0l-0.1,0v0.1h-0.1v0.2h0.1v0.1h-0.1l0,0l0,0l-0.2,0h-0.1h-0.1l0,0l-0.2,0v0.1h-0.1l-0.1,0l0,0l0,0l0,0l0,0.1l0,0
	v0.1h-0.1v0.1h-0.1l-0.1,0l-0.1,0V12l0,0h0.1V12h0.1v-0.1h0.1v-0.1h0.1l0.1,0l0,0h-0.1l0,0l-0.1,0l0,0.1l-0.1,0l0,0.1l-0.1,0H67
	l-0.1,0h-0.2l-0.1,0l-0.1,0l0,0l0,0.1v0.1l0,0l0,0l0,0h0.1v0.1h-0.1h-0.2h-0.1l0,0v0.1h-0.1l-0.1,0l0,0v0.1h-0.1l0,0v0.1l0,0l0.1,0
	h-0.1h-0.3l0,0V13h-0.1l-0.1,0l0,0l0,0l-0.1,0v0.1h-0.1l-0.1,0l0,0l0,0l0,0l-0.1,0l0,0v0.1H65l0,0l0,0v0.1h-0.1v0.1h-0.1v0.1h-0.1
	l0,0l0,0v0.1h-0.1v0.1h-0.1l0,0l0,0V14h-0.1l0,0l-0.1,0l0,0.1l0,0.1l0,0l0,0l0,0l0,0l0,0l-0.1,0l-0.1,0v0.1h-0.1l0,0v0.1h-0.1
	l-0.1,0l0,0l0,0l0,0l0,0.1v0.1h-0.1l-0.1,0v0.1h-0.1l0,0l-0.1,0l0,0l0,0v0.1h-0.1l0,0l0,0l0,0l-0.1,0l0,0.1l0,0l0,0.1l0,0.1l-0.1,0
	l0,0v0.1h-0.1l0,0v0.1h-0.1l0,0.1v0.1l0.3,0l0,0.1l0,0l-0.1,0l0-0.1h-0.2l-0.1,0l0,0l0,0l0,0.1l0,0.1l0,0l0,0.1l0,0l0,0l0,0l0,0
	l-0.1,0l0,0.1l-0.1,0l-0.1,0l0,0l0,0l0,0l0,0l0,0l0,0.1l0,0v0.1h-0.1l0,0l0,0v0.1h-0.1l0,0l0,0V17h-0.1v0.1h-0.1l0,0l0,0v0.1h-0.1
	l0,0.1l0,0l0,0l-0.1,0l0,0.1l0,0l0,0l0,0.1l0,0v0.1h-0.1l-0.1,0v0.1h-0.1l0,0v0.1h-0.1l0,0.1l0,0l-0.1,0l0,0h0h-0.1v0.1h-0.2l0,0.1
	v0.1l0,0h0.1v0.1h-0.1l0,0v0.1H60l0,0l-0.1,0l0,0l0,0.1l0,0l0,0l0,0.1l-0.1,0l0,0l0,0l0,0V19h-0.1l0,0l0,0v0.1h-0.1l-0.1,0v0.1h-0.1
	l0,0.1v0.1h-0.1l0,0.1l0,0.1v0.1h-0.1l0,0v0.1H59l-0.1,0l0,0l0,0h0l0,0l0-0.2l0-0.1v-0.1H59l0,0l0-0.1v-0.2h0.1l0,0l0,0l0,0l0-0.1
	l0,0v-0.1h0.1l0,0l0-0.1l0,0l0,0l0,0l0-0.1v-0.1h0.1l0-0.1l0-0.1l0.1,0l0,0l0-0.1l0.1,0l0-0.1l0-0.1l0,0l0-0.1l0,0v-0.1H60l0,0l0,0
	v-0.1h0.1l0,0l0,0l0-0.1l0,0l0-0.1l0-0.1l0.1,0l0.1,0v-0.1h0.1l0,0v-0.1h0.1l0-0.1l0-0.1l0,0l0,0l0,0l0,0l0,0l0,0l0,0l0-0.1v-0.1
	h0.1l0,0l0,0l0,0l0,0l0,0v-0.2h0.1v-0.1h0.1l0.1,0v-0.1h0.1l0,0l0-0.1v-0.1h0.1l0.1,0l0,0l0,0l0.1,0l0.1,0l0-0.1l0-0.1l0,0l0,0
	l0.1,0v-0.2H62l0-0.1v-0.1l0,0h-0.1l0,0l-0.1,0v0.1h-0.1l-0.1,0l0,0l0,0.1l0,0l0,0l0,0l0,0l0,0l0,0l0,0l0,0l0,0l0,0.1l0,0.1h0H61
	l0,0l0,0.1l0,0.1l0,0l0,0l0,0l0,0l0,0l-0.1,0l-0.1,0v0.1h-0.1l-0.1,0l-0.1,0v0.1h-0.1l0,0v0.1h-0.1l0,0l0,0.1v0.1h-0.1l-0.1,0l0,0
	l0,0l-0.1,0l0,0l0,0.1l0,0l0,0l0,0l0,0v0.1h-0.1l0,0.1l0,0.1v0.1h-0.1l0,0l0,0v0.1h-0.1l0,0.1v0.1h-0.1l0,0l-0.1,0l-0.1,0l0,0H59
	l-0.1,0v0.1H59v-0.1h0.1l0,0.2l-0.1,0l-0.1,0l0,0l0,0.1l0,0.1l0,0l0,0l-0.1,0v0.1h-0.1v0.1h-0.1l0,0.1l0,0l0,0l0,0.1l0,0l-0.1,0v0.1
	h-0.1l0,0.1l0,0.2v0.1h-0.1l0,0l0,0v0.1H58l0,0.1l0,0.1l0,0l0,0.1l0,0.1l-0.1,0l0,0.1l0,0.1l0,0l0,0.1l0,0.1V20h-0.1l0,0l0,0.1l0,0
	l0,0l-0.1,0v0.1h-0.1v0l0,0l0,0.1h-0.1l0,0v0.1h-0.1l0,0l-0.1,0v0.1H57l0,0l0,0V21h-0.1l0,0.1l0,0v0.1h-0.1l0,0.2v0.2v0.1l0,0.1
	l0,0.1l0,0l0,0.2v0.4l0,0.1h0.3v0.1l0,0l0,0l0.2,0v0.1l0,0.1l0,0.1l0,0l0,0.1l0,0.1l0,0l0,0l0,0l0,0.1v0.2h-0.1l0,0.1l0,0.1V24
	l0,0.1l0,0l0,0l0,0l0,0l0,0l0,0l0,0l0,0.1l0,0l0.1,0l0.2,0l0,0l0,0l0,0.7l0,0.1v0.1v0.1l0.1,0l0.1,0l0,0l0,0l0,0l0.1,0l0.1,0V26l0,0
	l0,0h0.1v0.1l0.1,0l0.3,0h0.1v0.1h0.3l0,0h0.1l0,0l0.1,0l0.1,0l0.1,0l0,0.1l0.1,0l0,0.1l0,0.1l0,0l0,0l0,0l0,0l0,0.1l0,0.1l0,0l0,0
	l0,0l0,0l0,0l0,0l0.1,0l0.1,0l0,0.1l0.1,0l0,0.1l0,0.1l0,0l0,0.1l0,0l0,0l0,0l0,0.3l0,0h0.1V28l0,0.1l0.1,0l0.1,0l0,0l0,0l0,0.2
	l0,0.1l0,0h0.1v0.1l0,0l0,0l0,0l0,0l0,0l0,0l0.1,0l0,0h0.1v0.1l0.1,0l0.1,0l0,0l0,0l0,0l0.1,0h0.1v0.1l0.1,0h0.1v0.1l0,0l0,0.1l0,0
	l0,0.1l0,0.1l0,0l0,0h0.2v-0.1H62l0.1,0l0,0l0-0.1l0.1,0l0,0l0-0.1l0-0.1v-0.1h0.1l0,0l0.1,0l0-0.1l0,0l0-0.1l0,0l0-0.1l0-0.1l0,0
	l0,0l0,0H63h0.1v0.3h-0.1l0,0.1l0,0.1l0,0v0.1l0,0l0,0l0,0.1l0,0.1l0,0l0,0.1l0,0.1l0,0.1l0,0l0,0l0,0h0.1v0.2l0,0.1l0,0.1h0.1v0.1
	h0.5l0,0l0.1,0h0.1l0.1,0l0,0l0,0l0,0h0.1v0.1h0.1l0,0l0.1,0l0.1,0l0-0.1l0-0.2v-0.1H65l0,0l0-0.1l0.1,0l0-0.1l0,0l0,0l0,0l0,0l0,0
	l0,0l0,0l0,0l0,0l0,0l0,0l0,0l0-0.1l0,0l0-0.1l0-0.1v-0.2v-0.3l0-0.1l0,0l0,0l0-0.2v-0.1h0.1l0-0.3l0,0v-0.1h0.1l0-0.1l0.1,0l0-0.1
	l0-0.1l0-0.1l0,0l0-0.2l0,0V27h0.1l0-0.2l0-0.1v-0.1h0.1l0,0l0,0v-0.1h0.1l0-0.1l0-0.1l0-0.1l0,0l0-0.1l0,0l0,0l0,0l0-0.1v-0.1h0.1
	l0-0.1l0,0l0,0l0,0l0-0.1l0,0l0-0.1l0,0l0-0.1v-0.1h0.1l0,0l0-0.1v-0.1h0.1l0-0.1l0,0l0-0.1l0,0l0.1,0V25h0.1l0,0l0,0v-0.1h0.1l0,0
	l0.1,0l0-0.2l0.1,0l0-0.1v-0.1H68l0,0l0.1,0l0,0l0.1,0l0,0l0,0v-0.1h0.1l0-0.2v-0.1h0.1l0.1,0l0-0.1l0-0.1l0,0v-0.1h-0.2h-0.2
	l-0.1,0l0-0.1l0,0l0,0l0,0l0,0l0.1,0l0-0.1v-0.1h0.1h0.2l0,0.1h-0.1l0,0l0,0l0,0v0.1l0,0l0,0h0.2l0,0l0,0l0-0.1l0,0l0,0l0,0v-0.1H69
	l0,0l0,0v-0.1h0.1l0,0l0-0.1l0-0.1l0,0l0.1,0l0,0l0,0v-0.1h0.1l0,0l0,0v-0.1h0.1v-0.1h0.1l0.1,0l0,0l0-0.1l0,0l0,0l0,0l0,0l0.1,0
	v-0.1H70l0,0l0-0.1l0,0l0.1,0l0,0l0,0l0,0l0,0l0,0l0,0l0.1,0l0-0.1l0,0l0,0l0,0l0.1,0v-0.1h0.1l0,0l0,0l0,0l0,0l0-0.1v-0.1h0.1
	l0.1,0v-0.1H71l0,0l0-0.1l0.1,0l0,0v-0.1h0.1l0,0l0,0l0,0l0,0l0,0l0,0l0,0l0,0l0,0l0,0l0,0l0,0l0,0v-0.1l0,0h-0.2l-0.1,0l0,0l0,0
	v0.1h-0.1v0.1h-0.1l0,0l-0.1,0l0,0l-0.1,0l-0.1,0l0,0.1l-0.1,0l0,0v0.2h-0.1l0,0l0,0l-0.1,0l0,0l0,0v0.1h-0.1l0,0.1l-0.1,0l0,0.1
	l0,0l0,0l0,0l0,0.1l-0.1,0v0.1h-0.2l0,0l0,0.1v0.1h-0.1l0,0l0,0v0.1h-0.1v0.1h-0.1l-0.1,0l0,0v0.1h-0.1l0,0l0,0.1l0,0l0,0l0,0
	l-0.1,0l-0.1,0v-0.1v-0.1v-0.1H69l0.1,0v-0.1h0.1l0,0l0,0l0,0l0-0.1l0,0l0-0.1l0,0l0,0l0.1,0l0.1,0V22h0.1l0,0l0,0v-0.2h0.1l0.1,0
	l0,0l0-0.1l0,0l0,0l0,0l0.1,0l0,0l0,0l0,0l0.1,0v-0.1h0.1l0-0.1l0,0v-0.1h0.1l0,0l0-0.1l0.1,0l0,0l0,0l0.1,0l0,0l0,0v-0.1h0.1l0.1,0
	v-0.1H71l0.1,0l0.1,0l0-0.1v-0.1h0.1l0.1,0l0,0v-0.1h0.1l0,0v-0.1h0.1l0,0l0-0.1V20h0.1l0.1,0l0,0l0,0l0.1,0l0.1,0l0.1,0v-0.1h0.1
	l0,0l0-0.1l0,0l0,0l0,0l0-0.1l0.1,0l0-0.1l0,0l0,0l0-0.1l0,0v-0.1h0.1l0.1,0l0,0l0,0l0,0l0,0l0.1,0V19h0.1l0.1,0l0.1,0v-0.1h0.1
	l0.1,0v-0.2h0.1l0,0l0,0l0,0l0,0l0,0l0,0l0,0l0-0.1l0,0l0.1,0l0.1,0l0,0l0,0l0.1,0v-0.1H74l0.1,0l0.1,0V18h0.1l0,0l0.1,0l0-0.1
	l0-0.2h0.3h0.1l0,0l0-0.1l0,0v-0.1H75l0.1,0l0.1,0v-0.1h0.1l0.1,0l0.1,0l0,0v-0.1l0,0l0,0V17l0.1,0l0,0l0,0l0-0.1l0,0l0,0l0,0v-0.1
	h0.1l0.1,0l0,0l0-0.1l0.1,0l0.1,0l0,0l0,0l0.1,0l0,0v-0.1h0.1l0.1,0v-0.1h0.1l0.1,0l0.1,0v-0.1h0.1l0,0v-0.1h0.1l0,0l0.1,0V16h0.1
	l0,0l0,0v-0.1H77l0,0l0.1,0l0,0l0.1,0l0.1,0l0.1,0v-0.1h0.1l0.1,0l0.1,0l0-0.1l0,0v-0.1h0.1l0.1,0v-0.1H78l0,0l0,0l0,0l0,0l0-0.1
	v-0.1h0.1l0.1,0l0,0l0,0l0.1,0l0,0v-0.1h0.1l0,0l0,0v-0.1h0.1l0,0l0,0l0,0l0.1,0l0.1,0l0.1,0v-0.1H79l0,0l0,0l0,0l0,0l0.1,0l0,0
	l0-0.1l0.1,0l0-0.1l0-0.1l0,0l0,0l0.1,0l0.1,0l0,0l0.1,0l0.1,0l0.1,0v-0.1H80l0.1,0l0.1,0v-0.1h0.1l0,0l0,0v-0.1h0.1v-0.1h0.1l0.1,0
	l0,0v-0.1h0.1l0.1,0l0.1,0l0,0l0,0l0.1,0l0,0v-0.1H81l0,0l0,0l0,0l0.1,0l0,0l0.1,0l0-0.1l0.2,0l0,0l0.1,0h0.1h0.2l0.1,0l0,0l0,0l0,0
	l0.1,0l0,0v-0.1h-0.2l-0.1,0v0.1h-0.1l-0.1,0l-0.1,0v-0.2h0.2l0.1,0l0.1,0l0-0.1l0,0l0,0l0,0l0.1,0l0,0l0.2,0l0.1,0l0,0v-0.1h0.1
	l0.1,0l0.1,0l0,0l0,0l0.1,0l0,0l0-0.1l0.1,0v-0.1h0.1l0-0.1l0-0.1v-0.1h0.1l0.1,0l0.1,0l0,0l0.1,0l0.1,0l0.1,0l0,0l0.1,0l0.1,0l0,0
	v-0.1H84l0.1,0l0.1,0l0,0l0,0l0,0l0.1,0l0,0l0.3,0l0.1,0l0-0.1l0,0l0,0l0,0l0.1,0l0.1,0l0.1,0v-0.1h0.1l0.1,0v-0.1h0.1v-0.1h0.2
	v-0.1h0.1l0.1,0v-0.1h0.1l0.1,0l0.1,0l0,0l0,0v-0.1l-0.1,0l-0.1,0H86l0.1,0V10h0.1l0.1,0l0.1,0V9.9h0.1l0.3,0l0,0l0,0l0,0l0,0l0,0
	l0,0l0.1,0l0.1,0l0,0l0,0v0l0,0l-0.1,0l0,0l-0.1,0h0.2l0.1,0V9.2l-0.1,0l0.1,0l0.1,0V9.1h0.1l0.1,0V9h0.1v0.1h0.2l0,0l0,0v0l0,0l0,0
	l0,0V8.8V8.8l0,0l0-0.1l-0.1,0v0l0.1,0l0,0l0.1,0l0.1,0l0.1,0l0-0.1V8.3l0.2,0l0,0.1l0,0l0,0l0,0l0,0l-0.1,0l-0.1,0v0.1l0,0l0,0H88
	l0.1,0V8.6h0.1l0.1,0l0,0l0,0l0-0.1l0.1,0l0,0l0,0l0.3,0V8.3h0.1l0.1,0l0.1,0V8.2h0.2l0.1,0l0-0.1V8l0,0h-0.2L89,8l-0.1,0v0.1h-0.1
	l-0.1,0l0,0l0,0l-0.1,0l-0.1,0h0h-0.1V8.2l0-0.1l-0.1,0h-0.1l-0.1,0l0,0.1l-0.1,0v0.1h-0.1l0,0l-0.1,0l-0.1,0l0,0l0,0l0,0l-0.2,0
	l-0.1,0l0,0l0,0l0,0v0.1H87l-0.1,0l-0.1,0v0.1h-0.1v0.1h-0.1l0,0l0,0l0,0l0,0l0,0l-0.1,0l0,0l0,0v0h0.1v0.1h-0.1l-0.1,0l0,0l-0.1,0
	l-0.1,0l0,0l-0.2,0l-0.2,0l0,0l0,0l0,0l0,0.1v0.1h-0.1l-0.1,0l-0.1,0v0.1l0,0h0.1v0.2l0.4,0l0,0.1l-0.1,0l-0.4,0V10h0.1V9.9l-0.1,0
	l0-0.1l0,0l-0.1,0l0,0h-0.1l0,0l0,0l-0.1,0v0.1h-0.1l-0.1,0l-0.1,0V10h-0.1l0,0.1v0.1h-0.1l-0.1,0l0,0l0,0l-0.1,0l0,0l-0.1,0l0,0
	l-0.1,0l0,0l-0.1,0v0.1h-0.1l-0.1,0v0.1h-0.1l-0.1,0l-0.1,0l0,0.1l-0.1,0l0,0v0.1h-0.1l-0.1,0v0.1h-0.1l-0.1,0l-0.1,0l0,0l0,0l0,0
	l-0.1,0l0,0.1v0.1h-0.1l-0.1,0l0,0v0.1h-0.1l-0.1,0l-0.1,0v0.1h-0.1l0,0.1v0.1h-0.1l0,0l0,0l0,0l0,0l-0.1,0l-0.2,0l0,0l-0.2,0
	l-0.1,0V12h-0.1v-0.1v0l0,0l0,0l0,0v0c-0.1,0-0.1-0.1,0-0.1l0,0v-0.1h0.1l0.1,0l0,0l0-0.1v-0.1h0.3l0.1,0l0.1,0l0,0l0.1,0l0,0V11
	h-0.3l-0.1,0l-0.1,0h-0.1v-0.1l0,0l-0.1,0h-0.1v-0.1l0,0l-0.1,0h0.1l0,0l0,0l0,0v-0.1l0,0l0,0l0,0l-0.1,0l0-0.1l0.1,0l0,0v-0.1H81
	v0.1h0.1v0.1l0,0l0,0l0,0l0,0l0,0h0.1l0,0l0.1,0l0.1,0l0.1,0l0,0l0.1,0v-0.1h0.1l0.1,0l0.1,0v-0.1H82l0,0l0,0l0,0l0,0l0.1,0l0.2,0
	V10h0.1V9.9V9.7h0.1h0.1l0.2,0V9.7H83l0.1,0l0,0l0-0.1l0.1,0l0,0l0-0.1V9.3h-0.1l-0.1,0l0,0l-0.4,0l-0.1,0l-0.1,0l0,0l-0.1,0l0,0
	h-0.3l0-0.1h0.1l0.1,0l0,0l0.1,0l0.1,0h0h0.1l0.1,0V9.3h0.1l0.1,0l0,0l0,0l0,0l0.1,0l0.1,0V9.1h0.1l0.1,0V9h0.1l0.1,0l0,0V8.9h0.1
	l0,0l0,0l0.2,0h-0.1v0.1h0.1h0h0.1l0.1,0l0,0V8.8l0,0l0,0l-0.1,0l0,0l0,0l0.1,0V8.5h0.1l0,0V8.4h0.1l0.1,0V8.3h0.1l0.1,0l0.1,0V8.2
	h0.1l0.1,0l0.1,0l0,0l0,0l0.1,0l0.1,0l0,0L85,8l0,0l0.1,0V7.9h0.1l0.1,0l0.1,0V7.7h0.1l0,0V7.7h0.1l0.1,0l0.1,0V7.5h0.1l0.1,0l0.1,0
	V7.4h0.2l0.1,0l0,0V7.3h0.1l0.1,0l0.1,0l0,0l0.1,0l0.1,0l0,0l0-0.1l0.2,0V7H87l0,0l0.1,0l0,0l0.1,0l0.1,0l0.1,0V6.8h0.1l0,0l0,0l0,0
	l0.1,0l0.1,0l0.1,0l0,0l0.1,0l0.2,0V6.4h0.1l0,0l0,0V6.3h0.2l0.1,0l0,0l0-0.1V6.2h-0.2l0,0.1H88l0-0.1L87.9,6.2L87.9,6.2z M78.7,8
	L78.7,8L78.7,8L78.7,8z M81.7,9.4L81.7,9.4l-0.1,0l0,0V9.3h0.2h0.1v0v0.1H81.7z M80.7,9.5L80.7,9.5L80.7,9.5L80.7,9.5l-0.1,0.1v0.1
	h-0.1l-0.1,0l0,0l-0.1,0l-0.1,0v0.1h-0.1l-0.1,0l0-0.1l0.1,0V9.7h0.1l0,0V9.6h0.1l0.1,0l0-0.1L80.7,9.5L80.7,9.5L80.7,9.5L80.7,9.5z
	 M80.9,9.9L80.9,9.9L80.9,9.9L80.9,9.9L80.9,9.9l0.2-0.1l0,0.1v0.1H80.9z M80,10.1L80,10.1l-0.1,0.1l0,0.1l-0.1,0v0.1h-0.1v0.1
	l-0.1,0l0,0l-0.1,0v0l0-0.1v-0.1h0.1l0.1,0l0,0l0,0l0,0l0.1,0H80L80,10.1L80,10.1L80,10.1L80,10.1z M77.5,10.2
	c0-0.1,0.2-0.2,0.3-0.2h0c0.1,0,0.1,0,0.1,0.1c0,0-0.4,0.3-0.5,0.3h-0.1v0.1h-0.1c-0.1,0-0.1,0-0.1-0.1l0.2,0L77.5,10.2z M84.9,10.2
	L84.9,10.2L84.9,10.2l-0.1,0.2l-0.1,0l-0.1,0l0-0.1v-0.1h0.1L84.9,10.2L84.9,10.2l0.1-0.1l0,0.1v0.1H84.9z M75.9,10.6L75.9,10.6
	l0.1,0l0.1,0v0.1h0.1h0.3l0.1,0l0,0l0-0.3h-0.2l0,0l0,0l0-0.1h-0.1l-0.1,0l0-0.1l-0.1,0l-0.1,0h-0.1v0.1l-0.1,0l-0.1,0l-0.1,0l0,0
	l-0.1,0h-0.1v0.1l0,0h-0.1v0.1l0,0l-0.2,0h-0.1v0.1l-0.1,0l-0.1,0l-0.1,0l0,0l0,0h-0.1v0.1l0,0.1l0,0l0,0l-0.1,0l-0.1,0l0,0l0,0l0,0
	l-0.1,0l-0.1,0l0,0.1l-0.2,0h-0.1v0.1l0,0l0,0h-0.1v0.1l0,0l0,0l0,0l0,0l0,0l-0.1,0l0,0l0,0l0,0h-0.1v0.1V12l0.1,0l0,0v0.1h0.2h0.2
	h0.1V12l0,0l0-0.1l0,0l0.1,0l0.3,0h0.1v-0.1l0,0l0,0l0,0l0-0.1l0.1,0l0,0l0-0.1l-0.1,0v-0.1h-0.1v-0.1l0,0h0.1h0.2h0.1v-0.1l0,0
	l0.3,0h0.1v-0.1l0.1,0h0.1l0-0.1l0,0l0,0l-0.1,0l-0.1,0v-0.1l0.1,0h0.1v-0.1h0l0,0h0.1l0,0L75.9,10.6L75.9,10.6L75.9,10.6z
	 M79.3,10.7L79.3,10.7L79.3,10.7l0-0.1h-0.1l0,0l-0.1,0l0,0.1l-0.2,0l0,0l0,0l0,0h0.1v0.1H79l0,0h0.1L79.3,10.7L79.3,10.7L79.3,10.7
	z M78.8,10.7L78.8,10.7L78.8,10.7L78.8,10.7z M77.9,10.9L77.9,10.9L77.9,10.9L77.9,10.9z M83.6,10.9h-0.2v0L83.6,10.9L83.6,10.9
	L83.6,10.9L83.6,10.9z M77.8,10.9L77.8,10.9L77.8,10.9L77.6,11l-0.1,0h-0.1h-0.2V11h-0.1v-0.1h0.1l0-0.1h0.2h0.1v0.1H77.8L77.8,10.9
	l0.1-0.1L77.8,10.9L77.8,10.9z M80.8,11.1L80.8,11.1l0.2,0.1l0.1,0l0,0h-0.1v0.1H81v0.1h-0.1l-0.1,0l-0.1,0l0,0l0,0l-0.1,0l0,0.1
	l0,0l-0.2,0l0,0v0.1h-0.1l0,0l0,0v0.1h-0.1h-0.1l0,0l0.1,0l0,0v-0.1l0,0h-0.1l0,0l0,0v0.1h-0.1l-0.1,0l-0.1,0v0.1h-0.1l0,0v0.1h-0.1
	V12h0.2l0.1,0l0.1,0v-0.1H80l0,0.1V12l0,0.1h0.5h0.3l0,0v0.1l0,0l0,0l-0.1,0v0.1h-0.2h0h-0.1l-0.1,0l-0.1,0l0,0l-0.1,0v-0.1h-0.1
	v0.1h-0.1l-0.1,0v0.1h-0.1v0.1h0.1v0.1h-0.1l-0.1,0l-0.1,0v0.1h-0.1l0,0V13h-0.2l0,0l-0.1,0l0,0H79l0-0.1l-0.1,0H79l0.1,0V13l0,0
	h0.1l0,0l0,0v-0.1h0.2l0.1,0v-0.1l0,0l-0.1,0v-0.1l0.1,0l0,0l0,0l0-0.1v-0.1h0.1l0.1,0l0,0v-0.1h0.1v-0.1h-0.1v-0.1h-0.1v0.1h-0.2
	v0.1h-0.1l0,0l-0.1,0v0.1h-0.1v0.1h-0.1l0,0v0.1h-0.1l-0.1,0l0,0v0.1h-0.1l-0.1,0v-0.1h0.1l0,0l0.1,0l0.1,0l0,0v-0.1h0.1l0.1,0
	l0.1,0l0-0.1v-0.1h-0.2l0,0.1l-0.1,0l0,0v0.1h-0.1l0,0l0,0l0,0l0,0v0.1h-0.2l-0.1,0l0,0v0.1h-0.1l0,0h-0.1l0-0.1h0.1l0.1,0v-0.1h0.1
	v0l0,0l0,0l0-0.1h0.1l0.1,0v-0.1h0.1l0.1,0v-0.1h0.1l0,0l0.1,0l0-0.1l0.1,0l0.1,0l0,0l0,0l0-0.1l0-0.1h0.1h0.2l0.1,0v-0.1h0.1l0-0.1
	l0,0v-0.1h0.1l0.1,0l0,0l0.1,0v-0.1h-0.1v-0.1H80l0,0l0,0l0.1,0l0.1,0l0,0v-0.1h0.1h0.1L80.8,11.1L80.8,11.1L80.8,11.1z M78.6,11.2
	L78.6,11.2l-0.3,0h-0.1v-0.1L78.6,11.2z M77,11.3c0.1,0,0.1,0,0.1,0.1c-0.1,0-0.2,0.1-0.3-0.1H77z M75.7,11.4h0.1H75.7L75.7,11.4
	L75.7,11.4L75.7,11.4z M70.4,11.6L70.4,11.6L70.4,11.6l-0.1,0.1v0.1h-0.1l0,0v0.1H70l-0.2,0V12l-0.1,0l0-0.1l0-0.1v-0.1h0.1l0,0
	l0.1,0l0,0l0,0l0-0.1L70.4,11.6l0.1-0.1L70.4,11.6L70.4,11.6L70.4,11.6z M76.2,11.7L76.2,11.7l-0.1,0.1L76.2,11.7L76.2,11.7
	L76.2,11.7l0.1-0.1h0.3l0.2,0v0.1h-0.1v0.1H76.2z M78.7,11.8L78.7,11.8L78.7,11.8l-0.2,0.1l-0.1,0V12h-0.1l-0.2,0l0.1,0l0,0l0,0
	v-0.1h0.1l0,0l0.1,0l0-0.1l0.1,0l0.1,0v-0.1h0.1L78.7,11.8L78.7,11.8L78.7,11.8z M80,11.9L80,11.9L80,11.9L80,11.9z M82.2,11.9
	L82.2,11.9L82.2,11.9L82.2,11.9l-0.1,0L82.2,11.9l0.2-0.1L82.2,11.9L82.2,11.9z M73.2,12.4L73.2,12.4l0.2,0v-0.1h-0.1l0,0l-0.1,0
	l0,0.1l-0.1,0H73v0.1h-0.2c0-0.1-0.1-0.1-0.1,0l-0.1,0l0,0h-0.1v0.1l-0.1,0l0,0h-0.1v0.1l0,0l0,0h-0.1v0.1l0,0l0,0.1H72v0.1l0,0.1
	l-0.3,0l-0.1,0l0,0l-0.1,0l0,0h-0.1v0.1v0.1l0,0l0,0l0,0l0,0v0.1l0,0.1l0,0h0.1l0,0l0,0l0,0l0.1,0l0,0l0,0l0-0.1l0.1,0l0,0l0,0
	l0.2,0l0.1,0h0.1V13l0.1,0h0.1v-0.1l0.1,0l0,0c0.1,0,0.1-0.1,0-0.1v-0.2l0.1,0h0.1v-0.1L73.2,12.4L73.2,12.4L73.2,12.4z M74.9,12.6
	l0.2,0h0.1l0.1,0c0,0.1,0.1,0.1,0.2,0l0.1,0h0.1v-0.1h-0.1l0,0v-0.1h-0.1l0,0v-0.2l-0.1,0h-0.1v0.1l-0.1,0l0,0l0,0l0,0l-0.1,0h-0.1
	v0.1L74.9,12.6L74.9,12.6l-0.1,0l0,0l0,0.1L74.9,12.6L74.9,12.6z M75.8,12.8l-0.2,0l0-0.1l0-0.1l0.2,0L75.8,12.8l0.1-0.1v-0.1l0.2,0
	v0.1L75.8,12.8z M77.9,12.9L77.9,12.9L77.8,13l-0.1,0l0,0l0,0l0,0l-0.1,0v0.1h-0.1h0v-0.1v-0.1h0.1l0,0l0,0l0,0v-0.1h0.1v-0.1h0.1
	L77.9,12.9L77.9,12.9L77.9,12.9z M78.2,13.2L78.2,13.2L78.2,13.2l0.1-0.1l-0.3,0l0,0l0,0l-0.1,0l0,0.1l0,0.1l-0.1,0l0,0.1l-0.1,0
	l0,0.1l0,0l0,0h0.2v-0.1l0,0l0.1,0H78l0.1,0l0,0h0.1l0.3,0l0-0.1l0,0l0.1,0h0.1v-0.1l-0.1,0l-0.3,0l0,0l0,0L78.2,13.2L78.2,13.2z
	 M77.2,13.4L77.2,13.4L77.2,13.4L77.2,13.4L77,13.3h-0.1l0,0l-0.1,0l0,0.1l-0.1,0l0,0.1l-0.1,0l0,0.1l0,0l-0.1,0l0,0.1h-0.1v0.1h0.1
	v-0.1l0.1,0l0.1,0l0,0l0,0l0,0l0,0l0,0l0,0l0.1,0H77v-0.1L77.2,13.4L77.2,13.4L77.2,13.4z M73.8,13.4L73.8,13.4L73.8,13.4L73.8,13.4
	l-0.2,0.1l0,0l0,0h-0.1l-0.1,0l-0.1,0l0-0.1l0,0l0,0l0.1,0l0.1,0l0.1,0l0-0.1L73.8,13.4L73.8,13.4L73.8,13.4z M65.5,13.4l0.1,0v0.1
	L65.5,13.4L65.5,13.4L65.5,13.4z M77.5,13.5L77.5,13.5L77.5,13.5L77.5,13.5z M79,13.6L79,13.6L79,13.6l0.1-0.1l0.2,0v0.1l0,0.1h-0.1
	L79,13.6z M71.3,13.8L71.3,13.8l-0.1,0.1l-0.1,0l0,0L71,14L71,14l0,0v0.1h-0.1l0,0.1v0.1h-0.1l-0.1,0l-0.1,0v-0.1h0.1v-0.1h0.1l0,0
	l0.1,0l0,0l0-0.1v-0.1H71l0.1,0l0.1,0v-0.1L71.3,13.8L71.3,13.8l0-0.1h0.1L71.3,13.8L71.3,13.8L71.3,13.8z M68.9,13.9L68.9,13.9
	l0,0.1h-0.1l0,0l0,0v0.1h-0.1l-0.1,0l0,0l0,0l0,0v0.1h-0.1l0,0l0,0l0,0v0.1h-0.1l0,0l0,0v0.1h-0.1l0,0.1v0.1l0,0h0h0.2
	c0,0.1-0.1,0.1-0.2,0.1l-0.1,0.1l-0.1,0l0.1-0.1l0-0.1H68l0,0.1l-0.1,0l0,0l0,0v0.1h-0.1l0,0l-0.1,0l0,0.1l-0.1,0l0,0.1l-0.1,0l0,0
	l0,0.1l-0.1,0l0-0.1v-0.1h0.1l0.1,0l0.1,0l0,0l0.1,0l0,0l0,0l0-0.1l0.1,0l0,0l0,0l0,0v-0.1h0.1l0,0l0,0v-0.1h0.1l0.1,0l0,0l0.1,0
	l0,0l0.1,0l0,0l0.1,0l0,0l0,0l0,0l0,0l0.1,0l0-0.1l0,0l0.1,0V14h0.1l0.1,0l0,0v-0.1H68.9L68.9,13.9L68.9,13.9L68.9,13.9l0.1-0.1
	l0.1,0l0.1,0v0.1L68.9,13.9L68.9,13.9L68.9,13.9z M69.8,13.8L69.8,13.8L69.8,13.8L69.8,13.8z M78.1,13.9L78.1,13.9L78,14l-0.1,0l0,0
	l0,0l0,0l-0.1,0l-0.1,0v0.1h-0.1l0,0h-0.3h-0.1v-0.1h0.1l0.1,0l0,0l0,0V14v-0.1h0.3h0.1l0.1,0l0,0L78.1,13.9L78.1,13.9L78.1,13.9
	L78.1,13.9z M64.7,14.1L64.7,14.1L64.7,14.1L64.7,14.1l0.1-0.1h0v0v0.1H64.7z M76,14.1l-0.1,0v0.1h-0.1l0,0.1v0.2h0.1H76v0l-0.1,0
	l0,0.1l-0.1,0l0,0l0,0.1l-0.1,0v-0.1l0,0v-0.1l-0.1,0h-0.1l-0.2,0l-0.1,0l0,0l-0.1,0l0,0l0,0v0.1h-0.1l0,0l0,0v0.1h-0.1l0,0h-0.2
	l0,0l0,0l0,0l0,0l0-0.1l0-0.1l0.1,0l0,0v-0.1h0.1l0-0.1l0.2,0l0.1,0v-0.1h0.1l0,0l0-0.1l0.1,0l0.1,0v-0.1h0.2L76,14.1L76,14.1
	L76,14.1L76,14.1z M64.2,14.5L64.2,14.5L64.2,14.5z M70.1,14.6L70.1,14.6L70.1,14.6L70,14.8l-0.1,0l-0.1,0l0,0l-0.1,0l-0.1,0v-0.2
	h0.1l0,0v-0.1H70l0,0L70.1,14.6L70.1,14.6v-0.1h0.1l0,0.1h-0.1v0.1H70.1z M75.2,15.1L75.2,15.1L75.2,15.1L75.2,15.1z M75.1,15.3
	L75.1,15.3L75.1,15.3l0.1-0.2h-0.1v0.1L75.1,15.3L75,15.2l-0.1,0l0,0h-0.2l0,0v-0.2l-0.1,0h-0.1v0.1h-0.1l0,0l0,0l-0.1,0l-0.1,0l0,0
	l0,0l0,0l0,0l0,0.1l0.1,0h0h0.3v-0.1l0,0l0-0.1l0,0l0.1,0h0.1l0,0l0,0.1v0.1l0,0l-0.1,0l0,0.1l-0.1,0l0,0.1l-0.1,0l0,0l0,0l0,0l0,0
	l0,0.1l-0.2,0.2L73.6,16v0.2h-0.1v0.1l-0.1,0l0,0l-0.1,0l0,0H73v-0.1H73h-0.2h-0.1v0.1l-0.1,0l0,0h-0.1v0.1l-0.1,0l0,0.1h0.2l0.1,0
	l0.1,0h0.1l0.3,0l0,0l0.1,0l0-0.1l0.1,0l0.1,0l0,0l0,0l0.1,0h0.1v-0.1l0.1,0h0.1v-0.1h0c0.2,0,0.3-0.2,0.5-0.3v0l0.1,0l0.1,0h0.1
	v-0.1l0.1,0l0,0l0,0l0.1,0l0,0l0,0l0,0l0,0l0,0h0.1v-0.1H75l0,0.1h0.1v0L75.1,15.3L75.1,15.3L75.1,15.3L75.1,15.3z M69.2,15.4
	l-0.2,0l0-0.1l0-0.1L69.2,15.4L69.2,15.4L69.2,15.4z M66.8,15.7L66.8,15.7L66.8,15.7l-0.1,0.1h-0.2h-0.1v-0.1l0,0l0,0l0,0v0l0,0
	l0.3,0l0.2,0l0,0.1L66.8,15.7L66.8,15.7z M68.8,15.7L68.8,15.7L68.8,15.7l0.1-0.1L68.8,15.7L68.8,15.7l-0.2,0l0,0.1h-0.1v0.1l0,0
	l0.1,0L68.8,15.7L68.8,15.7z M68.6,15.8L68.6,15.8L68.6,15.8L68.6,15.8z M65.8,16.5L65.8,16.5l-0.1,0.1h-0.1v-0.1h0.1l0,0L65.8,16.5
	L65.8,16.5L65.8,16.5l0.1-0.1l0.1,0L65.8,16.5L65.8,16.5L65.8,16.5z M74.2,16.6l-0.2,0v-0.1L74.2,16.6L74.2,16.6l-0.1-0.1h0.1l0.2,0
	v0.1h-0.1L74.2,16.6z M65.3,16.9L65.3,16.9L65.2,17l-0.1,0v0.1l-0.1,0l0-0.1v-0.1h0.1l0,0L65.3,16.9l0.1-0.1L65.3,16.9L65.3,16.9z
	 M73.6,17L73.6,17L73.6,17l-0.1,0.1h-0.1h-0.3h-0.1V17l0,0H73v-0.1h0.1h0.1l0.1,0h0.1H73.6L73.6,17L73.6,17L73.6,17z M71.8,17.1
	L71.8,17.1l0.3,0l0,0l0,0v0.1h0.1v0.1l0,0l0-0.1h0.1v-0.1l0,0l0.1,0l0-0.1l-0.1,0V17h-0.1l-0.1,0l0,0l0,0l0,0h-0.3h-0.1v0.1h-0.1V17
	h-0.1V17l0,0.1l0,0.1h-0.1v0.1l0,0l-0.1,0l-0.1,0l0,0l0,0l-0.1,0l0,0.1l0,0l-0.1,0l0,0l0,0l-0.1,0h-0.1v0.1l0,0l0,0h-0.1v0.1l0,0
	l0,0h-0.1v0.1l-0.1,0l-0.1,0h-0.1V18l0,0.1l0,0.1l-0.1,0l0.1,0h0.1l0.1,0l0,0l0,0l0-0.1l0,0l0.1,0h0.1v-0.1l0,0l0,0h0.1v-0.1l0.1,0
	l0.1,0l0,0l0,0h0.1v-0.1l0-0.1h0.1v-0.1l0-0.1h0.1v-0.1l0.1,0l0-0.1l0,0l0.1,0L71.8,17.1L71.8,17.1L71.8,17.1z M72.2,17.3L72.2,17.3
	L72.2,17.3L72.2,17.3z M71.5,17.9L71.5,17.9L71.5,17.9L71.2,18v-0.1h0.1l0,0L71.5,17.9v-0.1h0.1v0.1L71.5,17.9L71.5,17.9z
	 M72.1,18.1L72.1,18.1L72.1,18.1l0.1-0.1l0.1,0V18L72.1,18.1L72.1,18.1L72.1,18.1L72.1,18.1z M71.8,18.3L71.8,18.3L71.8,18.3
	l-0.1,0.1l-0.1,0l-0.1,0v0.1h-0.1h0v-0.1v-0.1h0.1l0,0l0.1,0l0,0l0,0l0.1,0L71.8,18.3L71.8,18.3L71.8,18.3L71.8,18.3z M70.7,18.4
	l0.1,0h0.1v-0.1L70.7,18.4L70.7,18.4L70.7,18.4L70.7,18.4L70.7,18.4l-0.1,0.1l0,0l0,0l0,0l-0.1,0v0.1v0.1l0.2,0l0,0l0-0.1v0v-0.1
	L70.7,18.4L70.7,18.4L70.7,18.4z M69.8,18.7L69.8,18.7L69.8,18.7L69.8,18.7L69.8,18.7l-0.1-0.1h-0.1v0.1l-0.1,0l-0.1,0l0,0.1l0,0.1
	l0,0l0,0l-0.1,0h-0.1V19l0,0l-0.1,0l-0.1,0l0,0l0,0l0,0h-0.1v0.1l0,0h-0.1v0.1l0,0.1l0,0l0,0l0,0l0,0l0,0l0,0l0,0l0,0l0,0l0,0h-0.1
	v0.1l0,0l0,0l-0.1,0l0,0.1l-0.1,0l0,0.1l0,0.1l0,0l0,0l0,0.1l0,0l0,0l0,0h-0.1v0.1l0,0l0,0h-0.1v0.1l-0.1,0h-0.1v0.1l0,0l0,0h-0.1
	v0.1l0,0.1l0,0.1l-0.1,0l0,0l0,0l-0.1,0h-0.1V21l0,0l0,0l0,0l0,0l0,0.1h0.3l0,0h0l0,0l0,0l0,0.1v0.1h0.1l0,0l0.1,0l0-0.1l0.1,0h0.1
	v-0.1l0,0l0,0l0,0l0-0.1v-0.1l0,0l-0.1,0l0-0.1l0,0v-0.1l0,0l0,0l0,0h0.2h0.3h0.1v-0.1h0.1v-0.1l0,0l0,0l0.1,0h0.1v-0.1l-0.1,0
	l-0.1,0h-0.1v0.1h-0.2v-0.1H68l-0.1,0v-0.1l0,0l0,0l0.1,0h0.1v-0.1l0.1,0h0.1v-0.1l0,0l0,0l0.1,0l0,0h0.1V20l0.1,0l0,0l0.1,0l0.1,0
	l0,0l0,0l0-0.1l-0.1,0v-0.1l0-0.1h0.1v-0.1l0.2,0l0.1,0v0v-0.1v-0.1v0h0.1v-0.1l0.1,0l0.1,0V19l0,0l0-0.1l0.1,0h0.2L69.8,18.7
	L69.8,18.7L69.8,18.7z M71.1,18.8L71.1,18.8v0.1V18.8l-0.1,0.1l-0.1,0l0-0.1L71.1,18.8z M69.7,19.5L69.7,19.5L69.7,19.5l-0.1,0.1
	v0.1h-0.1l0,0l-0.1,0v0.1h-0.1l0,0.1l-0.1,0l-0.1,0l0,0v-0.1l0,0l0-0.1l0,0l0.1,0l0.1,0v-0.1h0.1l0.1,0v-0.1L69.7,19.5l0.1-0.1
	L69.7,19.5L69.7,19.5z M68.7,20.2h0.1c0.1,0,0.1,0,0.1,0.1l-0.1,0.1l-0.2,0L68.7,20.2L68.7,20.2L68.7,20.2z M66.9,21.7L66.9,21.7
	l0.1-0.2l0-0.1l-0.1,0v0.1l-0.1,0l-0.1,0l0,0l0,0l0,0h-0.1v0.1l0,0l0,0h-0.1v0.1l0,0l0,0l0,0.1l0,0l-0.1,0l0,0.1l0,0h-0.1v0.1l0,0
	l0,0H66v0.1l0,0l0,0h-0.1v0.1l0,0h-0.1v0.1l0,0l-0.1,0l0,0.1l0,0.1h-0.1v0.1l0,0l0,0l0,0l0,0h-0.1v0.1l0,0l0,0l0,0.1l0,0l-0.1,0l0,0
	h-0.1v0.1l0,0.1l0,0.1l-0.1,0l0,0.1l0,0h-0.1v0.1v0.1v0.1l0,0.1l0,0l0,0h-0.1v0.1l0,0.1l0,0l0,0l0,0l-0.1,0l0,0l0,0l0,0v0.1h0.1h0.1
	v-0.1l0.1,0l0-0.1l0.1,0l0,0l0,0l0-0.1l-0.1,0v0l0,0l0,0l0-0.1l0,0l0.1,0l0,0l0.1,0l0.1,0h0.2l0.1,0l0,0v0.1v0.1h0l0,0l0,0l0.1,0
	l0-0.1h0.1v-0.1l0,0h0.1v-0.1l0.1,0H66v-0.1l0-0.1l0,0l0-0.1l0-0.1l0-0.1h0.1V23h0.1V23h-0.2V23H66v0.1l0,0.1l0,0h-0.1v0.1l-0.1,0
	l0,0h-0.1v0.1h-0.1l0-0.1v-0.1l0-0.2l0-0.1h0.1v-0.1h0.1v-0.1l0,0l0,0H66v-0.1l0-0.1h0.1l0-0.1v-0.1l0,0h0.1v-0.1l0.1,0l0.1,0l0.1,0
	l0,0l0,0l0,0l0,0v-0.1l0,0v-0.1l0-0.1l0,0l0,0l0.1,0h0.2v-0.1l0-0.1l0,0l0,0L66.9,21.7L66.9,21.7z M65.3,24.1L65.3,24.1L65.3,24.1
	v0.1l0,0v0.1l-0.1,0l0-0.1v-0.1L65.3,24.1l-0.1,0V24L65.3,24.1z M64.4,24.8L64.4,24.8L64.4,24.8L64.4,24.8L64.2,25l0,0l0,0l0,0v0.1
	l0.1,0l0.1,0l0,0l0,0v0.1l0,0h0.1l0,0l0.1,0v-0.1h0.2l0-0.1v-0.1h0.1l0-0.1l0,0v0v0.1h-0.1l0,0v0.1h-0.1l0,0.1l0,0l0,0l0,0.1l0,0.2
	l-0.1,0v-0.3l-0.1,0h0l0,0l0,0v0.1l0.1,0l0,0.1l0,0l0,0.1l-0.1,0v0.1h-0.1l-0.1,0l-0.1,0v0.1h-0.1l0,0.1l0,0.1l-0.2,0l0-0.1l0,0
	l0-0.1l0,0v-0.1h0.1l0-0.2l0,0v-0.1h0.1l0-0.1l0-0.1v-0.1h0.1l0-0.1l0,0l0.1,0l0-0.1l0-0.1l0,0l0.1,0l0,0l0,0l0,0l0,0l0,0l0.1,0
	l0-0.1v-0.1h0.1l0,0l0.1,0l0,0l0.1,0v0.1v0.1L64.4,24.8L64.4,24.8z"/>
<path class="st0" d="M46.3,10.9c5.2,0,9.5,4.2,9.5,9.5c0,5.2-4.2,9.5-9.5,9.5V10.9z"/>
<path class="st1" d="M70.4,39.9h-0.9l-0.5-1.2h-1.5l-0.4,1.2h-0.8l1.6-4.3h0.8L70.4,39.9z M68.8,38l-0.5-1.4L67.8,38H68.8z M64.7,37
	c0-0.1-0.1-0.2-0.1-0.3c-0.1-0.1-0.1-0.2-0.2-0.2c-0.1-0.1-0.2-0.1-0.3-0.1c-0.1,0-0.2,0-0.3,0c-0.2,0-0.3,0-0.5,0.1
	c-0.1,0.1-0.3,0.2-0.4,0.3c-0.1,0.1-0.2,0.3-0.2,0.5c-0.1,0.2-0.1,0.4-0.1,0.6c0,0.2,0,0.5,0.1,0.6c0.1,0.2,0.1,0.3,0.2,0.5
	c0.1,0.1,0.2,0.2,0.4,0.3c0.1,0.1,0.3,0.1,0.5,0.1c0.3,0,0.5-0.1,0.6-0.2c0.2-0.1,0.3-0.3,0.3-0.6h0.8c0,0.2-0.1,0.5-0.2,0.6
	c-0.1,0.2-0.2,0.3-0.4,0.5c-0.2,0.1-0.3,0.2-0.5,0.3C64.2,40,64,40,63.7,40c-0.3,0-0.6-0.1-0.8-0.2c-0.2-0.1-0.5-0.3-0.6-0.4
	c-0.2-0.2-0.3-0.4-0.4-0.7c-0.1-0.3-0.1-0.6-0.1-0.9c0-0.3,0-0.6,0.1-0.9c0.1-0.3,0.2-0.5,0.4-0.7c0.2-0.2,0.4-0.3,0.6-0.4
	c0.2-0.1,0.5-0.2,0.8-0.2c0.2,0,0.4,0,0.6,0.1c0.2,0.1,0.4,0.2,0.5,0.3c0.2,0.1,0.3,0.3,0.4,0.5c0.1,0.2,0.2,0.4,0.2,0.6H64.7z
	 M60.7,39.9h-0.8v-4.3h0.8V39.9z M58.3,37.8c0-0.2,0-0.4-0.1-0.6c0-0.2-0.1-0.3-0.2-0.4c-0.1-0.1-0.2-0.2-0.4-0.3
	c-0.2-0.1-0.4-0.1-0.7-0.1h-0.6v2.8h0.6c0.3,0,0.5,0,0.7-0.1c0.2-0.1,0.3-0.2,0.4-0.3c0.1-0.1,0.2-0.3,0.2-0.5
	C58.3,38.2,58.3,38,58.3,37.8 M59.1,37.8c0,1.5-0.7,2.2-2.2,2.2h-1.4v-4.3h1.4C58.4,35.6,59.1,36.3,59.1,37.8 M54.7,39.9h-3.3v-4.3
	h3.2v0.7h-2.4v1h2.2v0.7h-2.2v1.1h2.5V39.9z M50.5,39.9h-0.8v-2.8l-0.9,2.8h-0.7l-0.9-2.8v2.8h-0.8v-4.3h1l1,3.1l1-3.1h1V39.9z"/>
<path class="st1" d="M90.5,39.9h-3.3l0.9-4.3h3.2l-0.2,0.7h-2.4l-0.2,1h2.2l-0.2,0.7h-2.2l-0.2,1.1h2.5L90.5,39.9z M84.5,39.9h-0.7
	l-1.3-2.9l-0.6,2.9h-0.8l0.9-4.3h0.8l1.3,2.9l0.6-2.9h0.8L84.5,39.9z M78.3,39.9h-0.8l0.9-4.3h0.8L78.3,39.9z M75,39.9h-2.8l0.9-4.3
	H74l-0.8,3.6h2L75,39.9z"/>
</svg>
