<svg xmlns="http://www.w3.org/2000/svg" viewBox="0 0 60.38 23.31"><defs><style>.cls-1{fill:#ce1620;}</style></defs><g id="Capa_2" data-name="Capa 2"><g id="Capa_1-2" data-name="Capa 1"><path class="cls-1" d="M0,4.58S16.23,0,30.19,0C49.87,0,60.38,4.89,60.38,4.89h-7A88.1,88.1,0,0,0,30.19,2.05,198,198,0,0,0,0,4.58"/><path class="cls-1" d="M60.38,18.41s-16.23,4.9-30.19,4.9C10.51,23.31,0,18.41,0,18.41H6.88a88.84,88.84,0,0,0,23.31,2.85,176.46,176.46,0,0,0,30.19-2.85"/><path class="cls-1" d="M19.36,11.25H16.18c.14-.74.67-1.12,1.6-1.12s1.52.48,1.58,1.12m2.54,1.33c0-2.9-1.82-3.75-4.35-3.75S13.48,10,13.48,12s1.56,3.13,4.31,3.13a6.26,6.26,0,0,0,2.77-.52,2.3,2.3,0,0,0,1.3-1.34H19.09a1.55,1.55,0,0,1-1.36.49c-1.15,0-1.58-.72-1.58-1.13Z"/><path class="cls-1" d="M22.75,9.06h2.53v.72h0a3,3,0,0,1,2.36-.88c1.44,0,2.53.66,2.53,2.27v3.68H27.58v-3a.91.91,0,0,0-1-1c-.69,0-1.22.41-1.22,1.37v2.67H22.75Z"/><path class="cls-1" d="M32.18,10.63H31V9.1h1.21V8.45c.1-.95.63-1.49,2.31-1.49A16.75,16.75,0,0,1,36.2,7V8.27h-.78c-.48,0-.63.19-.63.62V9.1H36.2v1.53H34.79v4.22H32.18Z"/><path class="cls-1" d="M45.85,9.06h2.53v1.11h0A3,3,0,0,1,50.83,8.9a4.35,4.35,0,0,1,1,.16l-.34,2.31c-.61-.19-.69-.39-1.17-.39-.93,0-1.84.23-1.84,1.48v2.39H45.85Z"/><path class="cls-1" d="M52.21,9.1h1.21V8.32L56,7.2V9.1h1.41v1.57H56v2.09c0,.54.22.57.78.57l.7,0v1.54a12.57,12.57,0,0,1-1.9.13c-1.59,0-2.19-.31-2.19-1.89V10.67H52.21Z"/><path class="cls-1" d="M42.54,11.24H39.36c.14-.75.68-1.12,1.6-1.12s1.53.48,1.58,1.12m2.54,1.32c0-2.89-1.82-3.74-4.35-3.74s-4.07,1.12-4.07,3.12,1.57,3.13,4.31,3.13a6.11,6.11,0,0,0,2.77-.53,2.31,2.31,0,0,0,1.31-1.33H42.27a1.53,1.53,0,0,1-1.36.48c-1.15,0-1.58-.71-1.58-1.13Z"/><path class="cls-1" d="M9.85,9.91c0,.48-.14.85-.88.85H6.88V9.1H8.93c.49,0,.92.24.92.81M13,9.55a2.28,2.28,0,0,0-1-1.7A4.69,4.69,0,0,0,9.69,7.3H4v7.56H6.88V12.43H8.82l1.07,2.43H13.2l-1.64-2.71A2.52,2.52,0,0,0,13,9.55"/></g></g></svg>