<svg xmlns="http://www.w3.org/2000/svg" viewBox="0 0 57.61 20.26"><defs><style>.cls-1{fill:#00659b;}</style></defs><g id="Capa_2" data-name="Capa 2"><g id="Capa_1-2" data-name="Capa 1"><polygon class="cls-1" points="55.15 2.98 48.86 2.98 41.46 10.4 43.09 2.98 37.49 2.98 33.72 19.86 39.3 19.86 40.96 12.71 44.99 19.86 51.38 19.86 46.73 11.44 55.15 2.98"/><path class="cls-1" d="M25.15,0c-5.55,0-8.58,2.58-9.77,8-.31,1.41-1,4.44-1,4.44S10.87,6.13,9.24,3H3.74L0,19.86H5.47l2.18-9.41,5.16,9.41h5.25S19.9,11.79,20.7,8.15c.86-3.91,3.32-6.59,8.59-6.59H56.05L57.61,0H25.15"/><path class="cls-1" d="M24.3,4.53a5,5,0,0,0-.8,5.94,8.93,8.93,0,0,0,3.47,3c.68.4,1.15,1,.87,1.76-.18.52-.76,1.2-2.2.93a16.32,16.32,0,0,1-4.46-1.89l-1,4.55c4.49,1.94,9.94,2.38,12.43-1.38A4.78,4.78,0,0,0,32.3,12a9.43,9.43,0,0,0-3.24-2.59,1.41,1.41,0,0,1-.78-1.95c1-1.78,4.16-.24,6.1,1.46l1-4.42a9.68,9.68,0,0,0-5.72-1.88,6.91,6.91,0,0,0-5.33,2"/></g></g></svg>