<svg id="Capa_1" data-name="Capa 1" xmlns="http://www.w3.org/2000/svg" viewBox="0 0 135 46"><defs><style>.cls-1{fill:#656362;}.cls-2{fill:#c8d44a;}.cls-3{fill:#fff;}</style></defs><rect class="cls-1" x="46.28" y="11.75" width="0.23" height="22.5"/><path class="cls-1" d="M70,18v5a7.41,7.41,0,0,1-.2,2.23,2.1,2.1,0,0,1-2.3,1.44h0A2.18,2.18,0,0,1,65.07,25,9.68,9.68,0,0,1,65,23V18H63v6.23c0,2.26,1.42,4.14,4.45,4.14h0c3,0,4.45-1.92,4.45-4.14V18Z"/><polygon class="cls-1" points="92.12 28.25 83.36 28.25 83.36 26.59 89.7 19.62 83.52 19.62 83.52 17.98 92.12 17.98 92.12 19.54 85.88 26.61 92.12 26.61 92.12 28.25"/><polygon class="cls-1" points="55.3 33.6 55.3 31.36 55.29 31.36 54.61 33.6 54.4 33.6 53.71 31.36 53.7 31.36 53.7 33.6 53.46 33.6 53.46 31.15 53.88 31.15 54.5 33.13 54.51 33.13 55.12 31.15 55.55 31.15 55.55 33.6 55.3 33.6"/><rect class="cls-1" x="56.51" y="31.15" width="0.27" height="2.44"/><polygon class="cls-1" points="58.45 31.38 58.45 33.6 58.18 33.6 58.18 31.38 57.45 31.38 57.45 31.15 59.18 31.15 59.18 31.38 58.45 31.38"/><path class="cls-1" d="M60.94,31.78a.55.55,0,0,0-.56-.43c-.29,0-.46.13-.46.38,0,.53,1.37.4,1.37,1.18,0,.36-.2.72-.82.72A.91.91,0,0,1,59.6,33l.24-.08a.68.68,0,0,0,.64.49c.36,0,.54-.19.54-.44,0-.62-1.37-.44-1.37-1.21a.66.66,0,0,1,.73-.63.81.81,0,0,1,.81.6Z"/><path class="cls-1" d="M62.3,31.15v1.73a.59.59,0,0,0,1.17,0V31.15h.27v1.71a.86.86,0,0,1-1.71,0V31.15Z"/><rect class="cls-1" x="64.71" y="31.15" width="0.27" height="2.44"/><path class="cls-1" d="M68.71,32.87a.85.85,0,0,1-.86.76c-.55,0-.93-.4-.93-1.25s.34-1.26.93-1.26a.8.8,0,0,1,.83.71l-.25.07c-.09-.34-.25-.55-.61-.55s-.63.32-.63,1,.28,1,.68,1,.52-.28.6-.58Z"/><polygon class="cls-1" points="71.09 31.15 71.09 33.6 70.82 33.6 70.82 32.43 69.65 32.43 69.65 33.6 69.38 33.6 69.38 31.15 69.65 31.15 69.65 32.2 70.82 32.2 70.82 31.15 71.09 31.15"/><polygon class="cls-1" points="73.46 31.15 73.46 31.38 72.26 31.38 72.26 32.2 73.11 32.2 73.11 32.43 72.26 32.43 72.26 33.37 73.52 33.37 73.52 33.6 71.99 33.6 71.99 31.15 73.46 31.15"/><polygon class="cls-1" points="76.07 33.6 76.07 31.36 76.06 31.36 75.38 33.6 75.17 33.6 74.48 31.36 74.47 31.36 74.47 33.6 74.23 33.6 74.23 31.15 74.65 31.15 75.27 33.13 75.28 33.13 75.89 31.15 76.32 31.15 76.32 33.6 76.07 33.6"/><rect class="cls-1" x="77.28" y="31.15" width="0.27" height="2.44"/><path class="cls-1" d="M80.08,32.87a.85.85,0,0,1-.86.76c-.54,0-.93-.4-.93-1.25s.35-1.26.93-1.26a.8.8,0,0,1,.83.71l-.25.07c-.09-.34-.24-.55-.61-.55s-.63.32-.63,1,.28,1,.68,1,.53-.28.6-.58Z"/><path class="cls-1" d="M81.05,32.6h.74l-.35-1.26h0Zm-.58,1,.75-2.45h.4l.75,2.45h-.28l-.23-.77H81l-.23.77Z"/><polygon class="cls-1" points="82.99 33.6 82.99 31.15 83.26 31.15 83.26 33.37 84.42 33.37 84.42 33.6 82.99 33.6"/><path class="cls-1" d="M86.19,31.78a.55.55,0,0,0-.57-.43c-.28,0-.45.13-.46.38,0,.53,1.38.4,1.38,1.18,0,.36-.2.72-.82.72a.91.91,0,0,1-.88-.64l.25-.08a.67.67,0,0,0,.64.49c.36,0,.54-.19.54-.44,0-.62-1.38-.44-1.38-1.21a.67.67,0,0,1,.74-.63.8.8,0,0,1,.8.6Z"/><path class="cls-1" d="M90.1,32.42V33.6h-.23v-.23h0a.76.76,0,0,1-.64.26c-.56,0-1-.4-1-1.25s.39-1.26,1-1.26a.86.86,0,0,1,.88.72l-.26.05c-.12-.39-.32-.54-.61-.54s-.69.24-.69,1,.33,1,.69,1a.52.52,0,0,0,.59-.54v-.21h-.55v-.23Z"/><path class="cls-1" d="M91.15,32.26h.49c.37,0,.57-.14.57-.45s-.23-.43-.57-.43h-.49Zm-.27,1.34V31.15h.78c.53,0,.82.24.82.65a.63.63,0,0,1-.49.63l.52,1.17h-.3l-.49-1.11h-.57V33.6Z"/><path class="cls-1" d="M94.09,33.4c.43,0,.69-.33.69-1s-.26-1-.69-1-.68.33-.68,1,.25,1,.68,1m0-2.28c.6,0,1,.44,1,1.26s-.36,1.25-1,1.25-1-.44-1-1.25.35-1.26,1-1.26"/><path class="cls-1" d="M96,31.15v1.73a.59.59,0,0,0,1.17,0V31.15h.27v1.71a.86.86,0,0,1-1.71,0V31.15Z"/><path class="cls-1" d="M98.61,32.28h.46c.45,0,.6-.16.6-.45s-.17-.45-.53-.45h-.53Zm-.27,1.32V31.15h.86a.65.65,0,0,1,.74.69c0,.4-.28.67-.89.67h-.44V33.6Z"/><polygon class="cls-1" points="95.55 26.57 95.55 24.05 101.57 24.05 101.57 22.49 95.55 22.49 95.55 19.66 102.05 19.66 102.05 17.98 93.63 17.98 93.63 28.25 95.55 28.25 102.19 28.25 102.19 26.57 95.55 26.57"/><path class="cls-1" d="M110.24,23.68a2.53,2.53,0,0,0,1.88-2.63c0-1.69-1-3.07-3.28-3.07h-5.09v1.58h4.75c1.13,0,1.66.51,1.66,1.48s-.47,1.43-2,1.43h-4.41v5.76h2v-4.2h2.69l1.94,4.2h2.17Z"/><rect class="cls-1" x="53.46" y="17.98" width="1.96" height="10.27"/><polygon class="cls-1" points="73.76 28.25 73.76 17.98 75.72 17.98 75.72 26.61 81.99 26.61 81.99 28.25 73.76 28.25"/><polygon class="cls-1" points="58.27 23.04 61.66 17.98 59.55 17.98 56.52 22.58 56.52 23.49 60.13 28.25 62.3 28.25 58.27 23.04"/><path class="cls-2" d="M31,31.34a8.5,8.5,0,1,1,8.5-8.5,8.5,8.5,0,0,1-8.5,8.5"/><path class="cls-3" d="M31,19.51c-.72,0-1.57-.43-2.45-.43a1.39,1.39,0,0,0-1.58,1,11.69,11.69,0,0,0,.42,6.62c.69,1.64,2.37-2.35,3.61-2.35s3.05,4,3.73,2.35A11.52,11.52,0,0,0,35,20c-.28-.78-.72-1-1.61-1s-1.69.43-2.41.43"/></svg>