<svg id="Capa_1" data-name="Capa 1" xmlns="http://www.w3.org/2000/svg" xmlns:xlink="http://www.w3.org/1999/xlink" viewBox="0 0 135 46"><defs><style>.cls-1{fill:url(#Degradado_sin_nombre_3);}.cls-2{fill:url(#Degradado_sin_nombre_3-2);}.cls-3{fill:url(#Degradado_sin_nombre_3-3);}.cls-4{fill:#0072b6;}.cls-5{fill:#fbcf0d;}</style><linearGradient id="Degradado_sin_nombre_3" x1="54.62" y1="24.74" x2="54.62" y2="36.59" gradientUnits="userSpaceOnUse"><stop offset="0" stop-color="#0072b6"/><stop offset="0.09" stop-color="#036eae"/><stop offset="0.41" stop-color="#0b6097"/><stop offset="0.72" stop-color="#105889"/><stop offset="0.98" stop-color="#125584"/><stop offset="1" stop-color="#125584"/></linearGradient><linearGradient id="Degradado_sin_nombre_3-2" x1="90.37" y1="24.77" x2="90.37" y2="36.59" xlink:href="#Degradado_sin_nombre_3"/><linearGradient id="Degradado_sin_nombre_3-3" x1="69.5" y1="14.57" x2="69.5" y2="38.48" xlink:href="#Degradado_sin_nombre_3"/></defs><path class="cls-1" d="M48.42,36.59h12.4V32.44H52.7V27.13h7.77v-.8a113.91,113.91,0,0,1-12-1.59Z"/><path class="cls-2" d="M84.18,26.34h0V36.59h12.4V32.43H88.45v-5.3h7.77V24.77a119.4,119.4,0,0,1-12,1.57"/><path class="cls-3" d="M60.82,14.63,72.5,38.48l5.69-11.6c-1.54.05-3.1.07-4.67.07-2.28,0-4.53-.05-6.71-.14l-6-12.24Z"/><path class="cls-4" d="M96.57,17.67V13.51H84.75l1.65-3.38H79.91l-7.4,15.78h0v0L65.09,10.13H58.64l1.66,3.39,0,0v0H48.42V24.74a113.91,113.91,0,0,0,12,1.59V23H52.7V17.67h8.12v-3l0,0,0,0,6,12.24c2.18.09,4.43.14,6.71.14,1.57,0,3.13,0,4.67-.07l5.26-10.73.72-1.46V26.34c1.19-.09,2.35-.2,3.5-.33,3-.32,5.89-.74,8.55-1.24V23H88.45v-5.3Zm-12.4-3Z"/><polygon class="cls-5" points="66.28 10.15 72.5 23.82 78.63 10.15 66.28 10.15"/></svg>