<svg id="Capa_1" data-name="Capa 1" xmlns="http://www.w3.org/2000/svg" viewBox="0 0 135 46"><defs><style>.cls-1{fill:#2497d0;}.cls-2{fill:#d80f3b;}</style></defs><path class="cls-1" d="M30,21.35v-.66h1v-1.1a2.25,2.25,0,0,1,.33-1.3,1.28,1.28,0,0,1,1.13-.48h.35l.32,0v.73a2.24,2.24,0,0,0-.48-.06,1,1,0,0,0-.48.11.65.65,0,0,0-.25.3,1.18,1.18,0,0,0-.1.42,3.7,3.7,0,0,0,0,.47v.86h1.33v.66H31.83V27.6H31V21.35Z"/><path class="cls-1" d="M35.24,27.6h-.8V20.69h.8V22h0a2.31,2.31,0,0,1,.86-1.15,2.58,2.58,0,0,1,1.39-.33v.87a2.34,2.34,0,0,0-1.12.21,1.89,1.89,0,0,0-.7.61,2.6,2.6,0,0,0-.36.92,5.63,5.63,0,0,0-.1,1.1Z"/><path class="cls-1" d="M42,23.57l.54-.08a2.52,2.52,0,0,0,.52-.15.42.42,0,0,0,.24-.31,1.53,1.53,0,0,0,0-.41,1.39,1.39,0,0,0-.39-1,1.85,1.85,0,0,0-1.33-.39,4.47,4.47,0,0,0-.76.07,1.76,1.76,0,0,0-.61.26,1.4,1.4,0,0,0-.42.48,2,2,0,0,0-.22.75h-.82a2.54,2.54,0,0,1,.28-1.05,2.21,2.21,0,0,1,.62-.7,2.62,2.62,0,0,1,.88-.4,4.11,4.11,0,0,1,1.06-.13,4.32,4.32,0,0,1,1,.11,2.35,2.35,0,0,1,.8.36,1.75,1.75,0,0,1,.54.66,2.41,2.41,0,0,1,.19,1v3.76c0,.31.06.51.17.59s.33.07.67-.06v.63l-.27.08a1.49,1.49,0,0,1-.36.05,1.47,1.47,0,0,1-.36,0,.71.71,0,0,1-.32-.12.88.88,0,0,1-.19-.24,1.12,1.12,0,0,1-.1-.31,2,2,0,0,1,0-.35,3.38,3.38,0,0,1-2.57,1.14,3.15,3.15,0,0,1-.87-.12,2.06,2.06,0,0,1-.74-.37,1.91,1.91,0,0,1-.51-.62,2,2,0,0,1-.19-.87c0-1.18.81-1.87,2.42-2.09Zm1.35.4a4.26,4.26,0,0,1-1,.28l-1,.11a2.89,2.89,0,0,0-1.43.41,1.18,1.18,0,0,0-.51,1.05,1.22,1.22,0,0,0,.12.56,1.24,1.24,0,0,0,.34.38,1.53,1.53,0,0,0,.48.23,2,2,0,0,0,.55.07,3.59,3.59,0,0,0,.93-.12,2.5,2.5,0,0,0,.81-.36,1.91,1.91,0,0,0,.57-.63,1.81,1.81,0,0,0,.21-.9Z"/><path class="cls-1" d="M47.05,27.6h-.8V20.69h.8v1a5,5,0,0,1,1-.83,2.3,2.3,0,0,1,1.23-.32,3.11,3.11,0,0,1,1.19.22,2,2,0,0,1,.92.77,1.68,1.68,0,0,1,.3.76,7.37,7.37,0,0,1,.05.82V27.6h-.8V23.09a2,2,0,0,0-.42-1.4,1.74,1.74,0,0,0-1.37-.47,2.06,2.06,0,0,0-.68.11,2.49,2.49,0,0,0-.56.3,2.44,2.44,0,0,0-.42.43,2,2,0,0,0-.26.51,2.57,2.57,0,0,0-.15.64c0,.2,0,.43,0,.66Z"/><path class="cls-1" d="M53.62,27.6V18h.8v6l3.38-3.28h1.1l-2.59,2.49L59.2,27.6h-.89l-2.59-3.86L54.42,25V27.6Z"/><path class="cls-2" d="M63.93,26.58a1.6,1.6,0,0,1-.13.62,1.7,1.7,0,0,1-.35.52,1.75,1.75,0,0,1-.53.35,1.71,1.71,0,0,1-1.26,0,1.78,1.78,0,0,1-.51-.35,1.7,1.7,0,0,1-.35-.52,1.6,1.6,0,0,1-.13-.62,1.7,1.7,0,0,1,.13-.64,1.83,1.83,0,0,1,.35-.52,1.6,1.6,0,0,1,.51-.35,1.59,1.59,0,0,1,1.26,0,1.58,1.58,0,0,1,.53.35,1.83,1.83,0,0,1,.35.52A1.7,1.7,0,0,1,63.93,26.58Z"/><path class="cls-1" d="M69.64,20.61a2.27,2.27,0,0,1,.81.79V18h1.88V27.6h-1.8v-1a2.65,2.65,0,0,1-.9.92,2.57,2.57,0,0,1-1.27.29,2.64,2.64,0,0,1-2.09-1,3.84,3.84,0,0,1-.85-2.58,4.45,4.45,0,0,1,.84-2.86,2.71,2.71,0,0,1,2.23-1A2.3,2.3,0,0,1,69.64,20.61Zm.45,5.06a2.55,2.55,0,0,0,.41-1.52,2.31,2.31,0,0,0-.65-1.86,1.4,1.4,0,0,0-.94-.34,1.33,1.33,0,0,0-1.2.62,2.86,2.86,0,0,0-.38,1.52,2.79,2.79,0,0,0,.39,1.57,1.3,1.3,0,0,0,1.18.59A1.35,1.35,0,0,0,70.09,25.67Z"/><path class="cls-1" d="M79,20.64a3,3,0,0,1,1.23,1.05,3.53,3.53,0,0,1,.56,1.47,9,9,0,0,1,.06,1.41H75.66a1.73,1.73,0,0,0,.74,1.5,2,2,0,0,0,1,.26,1.42,1.42,0,0,0,1.41-.81h1.89a2.34,2.34,0,0,1-.68,1.28,3.46,3.46,0,0,1-2.67,1,3.82,3.82,0,0,1-2.5-.88,3.42,3.42,0,0,1-1.09-2.84,3.86,3.86,0,0,1,1-2.83,3.44,3.44,0,0,1,2.54-1A4.08,4.08,0,0,1,79,20.64ZM76.2,22.25a1.94,1.94,0,0,0-.49,1.09h3.2a1.57,1.57,0,0,0-.5-1.12,1.65,1.65,0,0,0-1.1-.38A1.43,1.43,0,0,0,76.2,22.25Z"/><path class="cls-1" d="M87.83,20.91a2.35,2.35,0,0,1,.69,1.91V27.6h-1.9V23.28a2,2,0,0,0-.15-.86,1,1,0,0,0-1-.55,1.29,1.29,0,0,0-1.29.8A2.83,2.83,0,0,0,84,23.75V27.6H82.12V20.51h1.79v1a3.14,3.14,0,0,1,.68-.79A2.3,2.3,0,0,1,86,20.33,2.72,2.72,0,0,1,87.83,20.91Z"/><path class="cls-1" d="M89.85,21.89V20.56h1v-2h1.84v2h1.15v1.33H92.68v3.75a.86.86,0,0,0,.11.54,1.22,1.22,0,0,0,.68.11h.36v1.39l-.88,0a2.4,2.4,0,0,1-1.8-.45,1.41,1.41,0,0,1-.31-1V21.89Z"/><path class="cls-1" d="M98.17,23.28a3.11,3.11,0,0,0,.74-.16.58.58,0,0,0,.4-.53A.61.61,0,0,0,99,22a1.91,1.91,0,0,0-.9-.17,1.16,1.16,0,0,0-.94.33,1.29,1.29,0,0,0-.27.65H95.1a2.8,2.8,0,0,1,.52-1.53,3.05,3.05,0,0,1,2.54-.94,4.49,4.49,0,0,1,2.08.46,1.77,1.77,0,0,1,.91,1.75v3.25c0,.23,0,.5,0,.82a1.15,1.15,0,0,0,.11.5.69.69,0,0,0,.28.21v.28h-2a1.86,1.86,0,0,1-.12-.41,4.28,4.28,0,0,1,0-.43,3.62,3.62,0,0,1-.89.71,2.7,2.7,0,0,1-1.36.35,2.37,2.37,0,0,1-1.6-.55,1.94,1.94,0,0,1-.64-1.56,2,2,0,0,1,1-1.9,4.58,4.58,0,0,1,1.64-.45Zm1.13.86a1.51,1.51,0,0,1-.36.18,2.72,2.72,0,0,1-.5.13l-.42.08a2.81,2.81,0,0,0-.85.25.85.85,0,0,0-.44.79.82.82,0,0,0,.27.69,1,1,0,0,0,.65.21,2,2,0,0,0,1.12-.35,1.49,1.49,0,0,0,.53-1.29Z"/><path class="cls-1" d="M105,27.6h-1.86V18H105Z"/></svg>