<svg id="Capa_1" data-name="Capa 1" xmlns="http://www.w3.org/2000/svg" viewBox="0 0 135 46"><defs><style>.cls-1{fill:#ce1620;}</style></defs><path class="cls-1" d="M31.27,14.51S50.75,9,67.5,9c23.61,0,36.23,5.87,36.23,5.87H95.38S84.11,11.47,67.5,11.47a237.3,237.3,0,0,0-36.23,3"/><path class="cls-1" d="M103.73,31.11S84.25,37,67.5,37c-23.61,0-36.23-5.87-36.23-5.87h8.26s11.36,3.42,28,3.42a211.91,211.91,0,0,0,36.23-3.42"/><path class="cls-1" d="M54.5,22.52H50.69q.26-1.35,1.92-1.35c1.1,0,1.83.58,1.89,1.35m3,1.59c.05-3.47-2.18-4.5-5.22-4.5S47.44,21,47.44,23.36s1.88,3.76,5.18,3.76a7.27,7.27,0,0,0,3.32-.64,2.79,2.79,0,0,0,1.57-1.6H54.18a1.85,1.85,0,0,1-1.63.58c-1.38,0-1.9-.86-1.9-1.35Z"/><path class="cls-1" d="M58.57,19.89h3v.86h0a3.68,3.68,0,0,1,2.84-1.05c1.73,0,3,.79,3,2.72v4.42H64.37v-3.6A1.11,1.11,0,0,0,63.16,22c-.82,0-1.45.5-1.45,1.66v3.2H58.57Z"/><path class="cls-1" d="M69.89,21.77H68.44V19.94h1.45v-.79c.12-1.14.75-1.78,2.77-1.78.6,0,1.4,0,2.06.08v1.49h-1c-.57,0-.75.23-.75.74v.26h1.7v1.83H73v5.07H69.89Z"/><path class="cls-1" d="M86.29,19.89h3v1.33h0a3.55,3.55,0,0,1,2.92-1.52,5.78,5.78,0,0,1,1.18.19L93,22.66c-.74-.23-.83-.47-1.4-.47-1.12,0-2.21.28-2.21,1.78v2.87H86.29Z"/><path class="cls-1" d="M93.92,19.94h1.45V19l3.14-1.35v2.29h1.69v1.88H98.51v2.5c0,.65.26.69.94.69l.84,0v1.86A17.55,17.55,0,0,1,98,27c-1.91,0-2.64-.37-2.64-2.26V21.82H93.92Z"/><path class="cls-1" d="M82.32,22.5H78.51c.17-.89.81-1.34,1.92-1.34s1.83.58,1.89,1.34m3.05,1.59c0-3.47-2.18-4.5-5.22-4.5s-4.89,1.35-4.89,3.75,1.88,3.76,5.18,3.76a7.28,7.28,0,0,0,3.32-.63,2.78,2.78,0,0,0,1.57-1.61H82a1.83,1.83,0,0,1-1.63.59c-1.38,0-1.9-.86-1.9-1.36Z"/><path class="cls-1" d="M43.09,20.91c0,.57-.17,1-1.05,1H39.53v-2H42c.59,0,1.1.28,1.1,1m3.73-.44a2.71,2.71,0,0,0-1.2-2,5.55,5.55,0,0,0-2.72-.67H36v9.07h3.5v-2.9h2.32l1.29,2.91h4l-2-3.24a3.07,3.07,0,0,0,1.67-3.13"/></svg>