<svg xmlns="http://www.w3.org/2000/svg" viewBox="0 0 73.13 15.55"><defs><style>.cls-1{fill:#fff;}.cls-2{fill:#f9be12;}.cls-3{fill:#364f8f;}.cls-4,.cls-5{fill:none;stroke:#364f8f;}.cls-4{stroke-width:0.27px;}.cls-5{stroke-linecap:round;stroke-width:0.93px;}</style></defs><g id="Capa_2" data-name="Capa 2"><g id="Capa_1-2" data-name="Capa 1"><path class="cls-1" d="M48.21,6.72h3.14c0-1,1.42-1.75,3.18-1.75s3.18.78,3.18,1.75-1.42,1.75-3.18,1.75l-4.21,0v2h4.19c1.77,0,3.2.79,3.2,1.75S56.28,14,54.51,14s-3.21-.78-3.21-1.75H48.21c0,1.81,2.82,3.32,6.3,3.32s6.3-1.47,6.3-3.27c0-1.17-1.19-2.2-3-2.78l-.09.06C59.59,9,60.81,8,60.81,6.76c0-1.8-2.82-3.27-6.3-3.27S48.21,5,48.21,6.76"/><path class="cls-1" d="M41.21,10.51c-1.74,0-3.16.78-3.16,1.74S39.47,14,41.21,14s3.17-.78,3.17-1.75S43,10.51,41.21,10.51m0-5.56c-1.74,0-3.16.78-3.16,1.75s1.42,1.74,3.16,1.74,3.17-.78,3.17-1.74S43,5,41.21,5M44.6,9.48c1.8.57,3,1.6,3,2.77,0,1.81-2.85,3.28-6.36,3.28s-6.37-1.47-6.37-3.28c0-1.18,1.22-2.21,3-2.79h-.09c-1.77-.58-3-1.6-3-2.76,0-1.81,2.85-3.28,6.37-3.28S47.6,4.89,47.6,6.7c0,1.19-1.23,2.23-3.08,2.8Z"/><path class="cls-2" d="M40.45,9.56c-1.74,0-3.16.79-3.16,1.75s1.42,1.75,3.16,1.75,3.16-.78,3.16-1.75S42.2,9.56,40.45,9.56m0-5.56c-1.74,0-3.16.79-3.16,1.75S38.71,7.5,40.45,7.5s3.16-.78,3.16-1.75S42.2,4,40.45,4m3.39,4.53c1.8.58,3,1.61,3,2.78,0,1.81-2.85,3.28-6.37,3.28s-6.36-1.47-6.36-3.28c0-1.18,1.22-2.21,3-2.79h-.09c-1.77-.58-3-1.61-3-2.77,0-1.8,2.85-3.27,6.36-3.27S46.84,4,46.84,5.75c0,1.19-1.24,2.24-3.09,2.81Z"/><path class="cls-3" d="M35.52,8.13a3.7,3.7,0,0,0,.59.5l.21-.1A7.46,7.46,0,0,1,35.52,8.13Z"/><path class="cls-3" d="M40.45,4.28c-1.56,0-2.88.68-2.88,1.47a1.07,1.07,0,0,0,.51.83C38.19,5.67,39.54,5,41.21,5a4.88,4.88,0,0,1,2,.4A3.32,3.32,0,0,0,40.45,4.28Z"/><path class="cls-3" d="M47.08,5.4a2.09,2.09,0,0,1,0,.35c0,1.11-.92,2.12-2.49,2.78a7.21,7.21,0,0,1,1,.53c1.21-.6,2-1.43,2-2.36A2,2,0,0,0,47.08,5.4Z"/><path class="cls-3" d="M47.12,11.31c0,2-2.92,3.55-6.65,3.55a10,10,0,0,1-4.94-1.16c1,1.08,3.2,1.83,5.71,1.83,3.51,0,6.36-1.47,6.36-3.28A2,2,0,0,0,47.08,11,2.09,2.09,0,0,1,47.12,11.31Z"/><path class="cls-3" d="M38.08,12.13c.11-.9,1.46-1.62,3.13-1.62a4.88,4.88,0,0,1,2,.4,3.32,3.32,0,0,0-2.76-1.07c-1.56,0-2.88.67-2.88,1.47A1.06,1.06,0,0,0,38.08,12.13Z"/><path class="cls-2" d="M47.63,5.81h3.14c0-1,1.43-1.75,3.18-1.75s3.19.79,3.19,1.75S55.71,7.56,54,7.56l-4.21.05v2h4.19c1.77,0,3.21.78,3.21,1.75s-1.44,1.75-3.21,1.75-3.2-.79-3.2-1.75h-3.1c0,1.8,2.82,3.32,6.3,3.32s6.3-1.47,6.3-3.28c0-1.17-1.18-2.19-3-2.77l-.08.06c1.82-.57,3-1.61,3-2.8,0-1.81-2.82-3.27-6.3-3.27s-6.3,1.46-6.3,3.27"/><path class="cls-3" d="M51.35,6.72c0-1,1.42-1.75,3.18-1.75a4.74,4.74,0,0,1,2.25.51C56.47,4.84,55.3,4.34,54,4.34c-1.57,0-2.9.67-2.9,1.47v.28H48.34a1.91,1.91,0,0,0-.13.63Z"/><path class="cls-3" d="M48.21,6.76v0h0Z"/><path class="cls-3" d="M60.5,5.75s0,.07,0,.11c0,1.1-.89,2.09-2.41,2.76a5.4,5.4,0,0,1,.86.46c1.14-.6,1.85-1.41,1.85-2.32A2,2,0,0,0,60.5,5.75Z"/><path class="cls-3" d="M60.51,11.37c0,2-2.89,3.55-6.58,3.55a9.19,9.19,0,0,1-5.25-1.44c.94,1.2,3.19,2.07,5.83,2.07,3.48,0,6.3-1.47,6.3-3.27a2,2,0,0,0-.31-1S60.51,11.34,60.51,11.37Z"/><path class="cls-3" d="M53.93,9.85H50.32v.63h4.19a4.82,4.82,0,0,1,2.27.52C56.47,10.35,55.29,9.85,53.93,9.85Z"/><path class="cls-4" d="M65,1.86A1.73,1.73,0,1,1,63.24.13,1.74,1.74,0,0,1,65,1.86Z"/><path class="cls-3" d="M62.69,1.71h.56a.67.67,0,0,0,.31-.05.3.3,0,0,0,.16-.28.28.28,0,0,0-.15-.26.55.55,0,0,0-.26-.06h-.62ZM62.44.85h.86a1,1,0,0,1,.39.05.5.5,0,0,1,.3.48c0,.32-.21.48-.55.53h0a.85.85,0,0,1,.37.36l.34.53h-.32l-.26-.4c-.28-.44-.37-.46-.58-.46h-.3V2.8h-.25Z"/><path class="cls-3" d="M69.27,13.14a.31.31,0,0,1-.31-.32V9.65a.31.31,0,0,1,.31-.31.32.32,0,0,1,.32.31v3.17A.32.32,0,0,1,69.27,13.14Z"/><path class="cls-3" d="M69.28,11.13l-.13,0a.32.32,0,0,1-.16-.42,1.8,1.8,0,0,1,2.1-1.12.33.33,0,0,1,.22.39.31.31,0,0,1-.39.22,1.18,1.18,0,0,0-1.36.77A.31.31,0,0,1,69.28,11.13Z"/><path class="cls-3" d="M72.82,13.22a.31.31,0,0,1-.31-.32V8.31a.31.31,0,1,1,.62,0V12.9A.31.31,0,0,1,72.82,13.22Z"/><path class="cls-3" d="M2.8,14a.49.49,0,0,1-.49-.49V9.94H1.22a.5.5,0,0,1-.47-.51A.5.5,0,0,1,1.25,9H2.31v-1h-1a.5.5,0,0,1-.49-.5.49.49,0,0,1,.49-.49H2.31v-2a1,1,0,0,1,.91-1h7.22a3,3,0,0,1,.16,6L13,12.84a.48.48,0,0,1-.06.69.5.5,0,0,1-.69-.06L9.32,9.94h-6v3.57A.5.5,0,0,1,2.8,14ZM9.78,9h.66a2,2,0,1,0,0-4.06H3.28v2h3.8a1.7,1.7,0,0,1,1.52.61ZM3.29,9H8.5l-.68-.82A.87.87,0,0,0,7.1,7.9H3.28Zm11.58,4a1.56,1.56,0,0,1-1.55-1.56v-.94a.54.54,0,0,1,0-.22,1.18,1.18,0,0,1,1.31-.81h.75V6.86a.49.49,0,0,1,.49-.49.5.5,0,0,1,.5.49v2.6h3V6.8a.5.5,0,0,1,1,0v5.69a.5.5,0,1,1-1,0v-2h-3v1A1.56,1.56,0,0,1,14.87,13Zm-.56-2.4v.84a.56.56,0,1,0,1.12,0v-1h-.81s-.27,0-.3.09A.43.43,0,0,0,14.31,10.59ZM26,12.9H23.46a1.15,1.15,0,0,1-1.16-1.16V10.27a.5.5,0,0,1,0-.69V7.5a1.1,1.1,0,0,1,1-1.09H26a.5.5,0,1,1,0,1H23.33s0,.06,0,.1V9.43h2.62a.5.5,0,0,1,0,1H23.29v1.31c0,.19.11.19.17.19H26a.49.49,0,0,1,0,1Z"/><path class="cls-3" d="M23.3,10.42a1,1,0,1,1-1-1,1,1,0,0,1,1,1"/><path class="cls-5" d="M1.52,9.5a1.06,1.06,0,1,1,0-2.11"/><path class="cls-3" d="M28.93,13a.49.49,0,0,1-.49-.49V6.76a.49.49,0,1,1,1,0v5.7A.49.49,0,0,1,28.93,13Z"/><path class="cls-3" d="M28.86,8.42h-.05a1.07,1.07,0,0,1-1.07-1.07,1.11,1.11,0,0,1,1.1-1.09"/><path class="cls-3" d="M31.44,13.15a.49.49,0,0,1-.49-.49V6.78a.49.49,0,0,1,.49-.49.5.5,0,0,1,.27.08.45.45,0,0,1,.17.11L35,9.5V6.85a.5.5,0,0,1,1,0v3.62l.72.71a.5.5,0,1,1-.69.71l0,0v.09a.5.5,0,0,1-1,0v-1l-3-3v4.74A.49.49,0,0,1,31.44,13.15Z"/><path class="cls-3" d="M37,12a1,1,0,1,1-1-1,1,1,0,0,1,1,1"/><path class="cls-3" d="M63.77,12.27a.47.47,0,0,1,0-.16.35.35,0,0,1,.35-.34.32.32,0,0,1,.23.08v0a1.59,1.59,0,0,0,1.4.65c.72,0,1.29-.3,1.29-.86s-.52-.72-1.58-1c-.67-.15-1.69-.38-1.69-1.39,0-.78.66-1.39,1.82-1.39a1.89,1.89,0,0,1,1.79.86l0,0a.34.34,0,0,1,0,.17.33.33,0,0,1-.33.33.33.33,0,0,1-.3-.18l0-.06c-.15-.26-.46-.48-1.12-.48-.45,0-1.2.12-1.2.75,0,.43.29.6,1.24.8s2,.44,2,1.55c0,.84-.74,1.5-1.92,1.5a2.1,2.1,0,0,1-2-.85"/></g></g></svg>