<svg id="Capa_1" data-name="Capa 1" xmlns="http://www.w3.org/2000/svg" viewBox="0 0 135 46"><defs><style>.cls-1{fill:#fff;}.cls-2{fill:#f9be12;}.cls-3{fill:#364f8f;}.cls-4,.cls-5{fill:none;stroke:#364f8f;}.cls-4{stroke-width:0.27px;}.cls-5{stroke-linecap:round;stroke-width:0.93px;}</style></defs><path class="cls-1" d="M78.91,21.88h3.14c0-1,1.42-1.75,3.18-1.75s3.18.78,3.18,1.75S87,23.62,85.23,23.62L81,23.67v2h4.19c1.77,0,3.2.78,3.2,1.75s-1.43,1.75-3.2,1.75S82,28.36,82,27.39H78.91c0,1.81,2.82,3.32,6.3,3.32s6.3-1.47,6.3-3.28c0-1.17-1.19-2.19-3-2.77l-.09.06c1.83-.57,3.05-1.61,3.05-2.8,0-1.81-2.82-3.27-6.3-3.27s-6.3,1.46-6.3,3.27"/><path class="cls-1" d="M71.92,25.66c-1.75,0-3.17.79-3.17,1.75s1.42,1.75,3.17,1.75,3.16-.78,3.16-1.75-1.42-1.75-3.16-1.75m0-5.55c-1.75,0-3.17.78-3.17,1.74s1.42,1.75,3.17,1.75,3.16-.78,3.16-1.75-1.42-1.74-3.16-1.74m3.38,4.52c1.8.58,3,1.61,3,2.78,0,1.81-2.85,3.27-6.36,3.27s-6.37-1.46-6.37-3.27c0-1.18,1.22-2.22,3.05-2.79h-.1c-1.77-.59-3-1.61-3-2.77,0-1.8,2.85-3.27,6.37-3.27s6.36,1.47,6.36,3.27c0,1.19-1.23,2.24-3.08,2.81Z"/><path class="cls-2" d="M71.15,24.72c-1.74,0-3.16.78-3.16,1.75s1.42,1.75,3.16,1.75,3.16-.78,3.16-1.75-1.41-1.75-3.16-1.75m0-5.56c-1.74,0-3.16.79-3.16,1.75s1.42,1.75,3.16,1.75,3.16-.78,3.16-1.75-1.41-1.75-3.16-1.75m3.39,4.53c1.8.58,3,1.61,3,2.78,0,1.81-2.85,3.27-6.36,3.27s-6.37-1.46-6.37-3.27c0-1.18,1.22-2.22,3-2.79h-.09c-1.77-.58-3-1.6-3-2.76,0-1.81,2.85-3.27,6.37-3.27s6.36,1.46,6.36,3.27c0,1.19-1.23,2.23-3.08,2.81Z"/><path class="cls-3" d="M66.22,23.28a3.74,3.74,0,0,0,.59.51l.21-.1A6,6,0,0,1,66.22,23.28Z"/><path class="cls-3" d="M71.15,19.44c-1.56,0-2.88.67-2.88,1.47a1.06,1.06,0,0,0,.51.82c.11-.91,1.46-1.62,3.14-1.62a4.83,4.83,0,0,1,2,.4A3.32,3.32,0,0,0,71.15,19.44Z"/><path class="cls-3" d="M77.78,20.56a1.34,1.34,0,0,1,0,.35c0,1.11-.92,2.12-2.49,2.78a7.21,7.21,0,0,1,1,.53c1.21-.6,2-1.44,2-2.37A2,2,0,0,0,77.78,20.56Z"/><path class="cls-3" d="M77.82,26.47c0,2-2.92,3.55-6.64,3.55a10,10,0,0,1-5-1.16c1,1.08,3.2,1.82,5.71,1.82,3.51,0,6.36-1.46,6.36-3.27a2,2,0,0,0-.52-1.29A2,2,0,0,1,77.82,26.47Z"/><path class="cls-3" d="M68.78,27.29c.11-.91,1.46-1.63,3.14-1.63a4.83,4.83,0,0,1,2,.41A3.32,3.32,0,0,0,71.15,25c-1.56,0-2.88.67-2.88,1.47A1.06,1.06,0,0,0,68.78,27.29Z"/><path class="cls-2" d="M78.33,21h3.14c0-1,1.43-1.75,3.18-1.75S87.84,20,87.84,21s-1.43,1.75-3.19,1.75l-4.21,0v2h4.19c1.77,0,3.21.78,3.21,1.75s-1.44,1.74-3.21,1.74-3.2-.78-3.2-1.74h-3.1c0,1.8,2.82,3.31,6.3,3.31s6.3-1.46,6.3-3.27c0-1.17-1.18-2.2-3-2.78l-.08.07c1.82-.58,3-1.62,3-2.8,0-1.81-2.82-3.28-6.3-3.28s-6.3,1.47-6.3,3.28"/><path class="cls-3" d="M82.05,21.88c0-1,1.42-1.75,3.18-1.75a4.74,4.74,0,0,1,2.25.51C87.17,20,86,19.5,84.65,19.5c-1.57,0-2.9.67-2.9,1.47v.28H79a1.91,1.91,0,0,0-.13.63Z"/><path class="cls-3" d="M78.91,21.92v0h0Z"/><path class="cls-3" d="M91.2,20.91s0,.07,0,.11c0,1.09-.89,2.09-2.41,2.75a7.69,7.69,0,0,1,.86.46,2.86,2.86,0,0,0,1.85-2.31A1.9,1.9,0,0,0,91.2,20.91Z"/><path class="cls-3" d="M91.21,26.53c0,2-2.89,3.55-6.58,3.55a9.21,9.21,0,0,1-5.25-1.44c.94,1.2,3.19,2.07,5.83,2.07,3.48,0,6.3-1.47,6.3-3.28a1.92,1.92,0,0,0-.31-1S91.21,26.5,91.21,26.53Z"/><path class="cls-3" d="M84.63,25H81v.63h4.19a4.79,4.79,0,0,1,2.27.52C87.17,25.51,86,25,84.63,25Z"/><path class="cls-4" d="M95.67,17a1.73,1.73,0,1,1-1.73-1.73A1.72,1.72,0,0,1,95.67,17Z"/><path class="cls-3" d="M93.39,16.87H94a.67.67,0,0,0,.31-.05.31.31,0,0,0,.17-.28.29.29,0,0,0-.15-.26.51.51,0,0,0-.27-.06h-.62ZM93.14,16H94a1,1,0,0,1,.39,0,.5.5,0,0,1,.3.48c0,.31-.21.48-.54.53h0a.9.9,0,0,1,.36.36l.34.53h-.32l-.26-.41c-.27-.43-.36-.45-.58-.45h-.3V18h-.25Z"/><path class="cls-3" d="M100,28.29a.31.31,0,0,1-.31-.31V24.81a.32.32,0,0,1,.63,0V28A.31.31,0,0,1,100,28.29Z"/><path class="cls-3" d="M100,26.29a.32.32,0,0,1-.29-.44,1.81,1.81,0,0,1,2.1-1.12.33.33,0,0,1,.22.39.32.32,0,0,1-.38.22,1.16,1.16,0,0,0-1.36.77A.33.33,0,0,1,100,26.29Z"/><path class="cls-3" d="M103.52,28.38a.31.31,0,0,1-.31-.32V23.47a.31.31,0,0,1,.31-.32.32.32,0,0,1,.32.32v4.59A.32.32,0,0,1,103.52,28.38Z"/><path class="cls-3" d="M33.5,29.16a.49.49,0,0,1-.49-.49V25.1H31.92a.49.49,0,0,1,0-1H33V23.06H32a.49.49,0,0,1,0-1h1V20a1,1,0,0,1,.91-1h7.22a3,3,0,0,1,.16,6L43.72,28a.5.5,0,0,1-.07.7.49.49,0,0,1-.69-.07L40,25.1H34v3.57A.49.49,0,0,1,33.5,29.16Zm7-5.05h.66a2,2,0,1,0,0-4.06H34v2h3.8a1.68,1.68,0,0,1,1.52.61Zm-6.49,0H39.2l-.68-.82a.81.81,0,0,0-.72-.23H34Zm11.58,4A1.56,1.56,0,0,1,44,26.59v-.94a.54.54,0,0,1,0-.22,1.17,1.17,0,0,1,1.31-.81h.75V22a.5.5,0,1,1,1,0v2.6h3V22a.49.49,0,1,1,1,0v5.69a.49.49,0,0,1-1,0v-2h-3v1A1.56,1.56,0,0,1,45.57,28.15ZM45,25.74v.85a.56.56,0,1,0,1.12,0v-1h-.81s-.27,0-.3.09A.43.43,0,0,1,45,25.74Zm11.64,2.32H54.16A1.15,1.15,0,0,1,53,26.9V25.43a.53.53,0,0,1-.14-.35.55.55,0,0,1,.14-.35V22.66a1.1,1.1,0,0,1,1-1.09H56.7a.49.49,0,0,1,.49.49.5.5,0,0,1-.49.5H54s0,.06,0,.1v1.93h2.62a.49.49,0,0,1,0,1H54v1.32c0,.19.11.19.17.19h2.49a.49.49,0,1,1,0,1Z"/><path class="cls-3" d="M54,25.57a1,1,0,1,1-1.93,0,1,1,0,0,1,1.93,0"/><path class="cls-5" d="M32.22,24.66a1.06,1.06,0,1,1,0-2.11"/><path class="cls-3" d="M59.63,28.11a.49.49,0,0,1-.49-.5V21.92a.49.49,0,1,1,1,0v5.69A.49.49,0,0,1,59.63,28.11Z"/><path class="cls-3" d="M59.56,23.58h-.05a1.06,1.06,0,0,1-1.07-1.06,1.11,1.11,0,0,1,1.1-1.09"/><path class="cls-3" d="M62.14,28.31a.49.49,0,0,1-.49-.49V21.94a.49.49,0,0,1,.49-.49.5.5,0,0,1,.27.08.59.59,0,0,1,.17.1l3.08,3V22a.5.5,0,0,1,1,0v3.62l.72.71a.49.49,0,0,1,0,.7.5.5,0,0,1-.7,0l0,0v.09a.5.5,0,0,1-1,0V26l-3-3v4.75A.5.5,0,0,1,62.14,28.31Z"/><path class="cls-3" d="M67.72,27.12a1,1,0,1,1-1-1,1,1,0,0,1,1,1"/><path class="cls-3" d="M94.47,27.42a.37.37,0,0,1,0-.15.34.34,0,0,1,.34-.34A.32.32,0,0,1,95,27h0a1.57,1.57,0,0,0,1.4.66c.72,0,1.29-.3,1.29-.86s-.52-.72-1.57-1c-.68-.15-1.7-.38-1.7-1.39,0-.78.67-1.39,1.82-1.39a1.9,1.9,0,0,1,1.79.85l0,0a.34.34,0,0,1,0,.17.33.33,0,0,1-.33.33.34.34,0,0,1-.3-.18l0-.06a1.16,1.16,0,0,0-1.12-.49c-.45,0-1.2.13-1.2.76,0,.43.29.59,1.24.8s2,.44,2,1.55c0,.83-.74,1.5-1.92,1.5a2.1,2.1,0,0,1-2-.85"/></svg>