<?xml version="1.0" encoding="utf-8"?>
<!-- Generator: Adobe Illustrator 25.4.1, SVG Export Plug-In . SVG Version: 6.00 Build 0)  -->
<svg version="1.1" id="Capa_1" xmlns="http://www.w3.org/2000/svg" xmlns:xlink="http://www.w3.org/1999/xlink" x="0px" y="0px"
	 viewBox="0 0 135 46" style="enable-background:new 0 0 135 46;" xml:space="preserve">
<style type="text/css">
	.st0{fill:#38444E;}
	.st1{fill:#E64860;}
	.st2{fill:#808791;}
	.st3{clip-path:url(#SVGID_00000041269391944243576330000006711331680808856986_);fill:#E64860;}
	.st4{fill:none;stroke:#E64860;stroke-width:0.6287;stroke-miterlimit:10;}
	.st5{fill:#194374;}
	.st6{fill:#00659B;}
	.st7{fill:#DC0D6E;}
	.st8{fill:#004D80;}
	.st9{fill:#7EA9D6;}
	.st10{fill:#B6D4EF;}
	.st11{fill:#058DC7;}
	.st12{fill:#00559F;}
	.st13{fill:#134A83;}
	.st14{fill:#B51975;}
	.st15{fill:#2497D0;}
	.st16{fill:#D80F3B;}
	.st17{fill:#9BC338;}
	.st18{fill:#008541;}
	.st19{fill:#9DC438;}
	
		.st20{clip-path:url(#SVGID_00000178194022538324280940000003522584696527186090_);fill:url(#SVGID_00000053535091883334250710000010945100150806692513_);}
	
		.st21{clip-path:url(#SVGID_00000161609055562709269900000002349937202656832944_);fill:url(#SVGID_00000018957885175164632290000012016503704046676110_);}
	
		.st22{clip-path:url(#SVGID_00000181087569292517653790000011626548508880263300_);fill:url(#SVGID_00000083793608291455966840000008473282206411013254_);}
	.st23{fill:#F9BE12;}
	.st24{clip-path:url(#SVGID_00000104706964241144834370000011156966925314362262_);}
	.st25{clip-path:url(#SVGID_00000070093202043785619100000008429017203328518811_);}
	.st26{clip-path:url(#SVGID_00000077293535712859259070000004911729809996577714_);}
	.st27{clip-path:url(#SVGID_00000023267159299428184380000010675393695413986989_);}
	.st28{clip-path:url(#SVGID_00000163047585539568926270000008298414169897265067_);}
	.st29{clip-path:url(#SVGID_00000138533420274373593630000003913796496347881892_);}
	.st30{clip-path:url(#SVGID_00000049905467204620104260000014559861037739575461_);}
	.st31{clip-path:url(#SVGID_00000109006378913018299540000009158725032529878437_);}
	.st32{clip-path:url(#SVGID_00000002375545606944310380000002216296937051316135_);}
	
		.st33{clip-path:url(#SVGID_00000084518000825051909790000013366177835973925783_);fill:url(#SVGID_00000078039024664412390670000009692003827443593903_);}
	.st34{clip-path:url(#SVGID_00000078018630200195121190000014824185839032541321_);}
	.st35{clip-path:url(#SVGID_00000039117237276181695720000002296597838921818509_);}
	.st36{clip-path:url(#SVGID_00000064340863637370333380000008214126553727399344_);}
	.st37{clip-path:url(#SVGID_00000107567201090424152690000007288839286291166911_);}
	.st38{clip-path:url(#SVGID_00000148655060906593919930000015191465269184660884_);}
	.st39{clip-path:url(#SVGID_00000165235813575961684490000006899173766823311797_);}
	.st40{fill:#009BDA;}
	.st41{fill:#CE1620;}
	.st42{fill:#171915;}
	.st43{fill:#E30750;}
	.st44{fill:#5775B5;}
	.st45{fill:none;stroke:#5775B5;stroke-width:0.5802;}
	.st46{fill:#5A595C;}
	.st47{fill:#FFFFFF;}
	.st48{fill:#364F8F;}
	.st49{fill:none;stroke:#364F8F;stroke-width:0.3873;}
	.st50{fill:none;stroke:#364F8F;stroke-width:1.3345;stroke-linecap:round;}
	.st51{fill:#656362;}
	.st52{fill:#C8D44A;}
	.st53{fill:#E42E38;}
	.st54{fill:none;stroke:#FFFFFF;stroke-width:0.4523;stroke-miterlimit:10;}
	.st55{fill:#51B054;}
	.st56{fill:#0079BB;}
	.st57{fill:#086EB0;}
	.st58{fill:#99A4AB;}
	.st59{fill:#B2A7A5;}
	.st60{fill:#931340;}
	.st61{fill:#DFDCD9;}
	.st62{fill:#27A1D7;}
	.st63{fill:none;stroke:#000000;stroke-width:0.1494;stroke-linejoin:bevel;stroke-miterlimit:22.926;}
	.st64{fill:none;stroke:#000000;stroke-width:0.1585;stroke-miterlimit:22.926;}
	.st65{fill:#EA3D36;stroke:#ED1C24;stroke-width:0.1417;stroke-linejoin:round;}
	.st66{fill:#EA3D36;}
</style>
<g>
	<g>
		<path class="st40" d="M38.6,31.8L38.2,33c0,0,0,0.1-0.1,0.1c0,0-0.1,0-0.1,0h-0.3c0,0-0.1,0-0.1,0c0,0,0-0.1,0-0.1l-0.5-2.6
			c0,0,0,0,0,0c0,0,0-0.1,0-0.1c0,0,0,0,0.1,0h0.3c0,0,0.1,0,0.1,0c0,0,0,0,0,0.1l0.3,1.8l0.3-1.1c0,0,0,0,0-0.1c0,0,0.1,0,0.1,0
			h0.3c0,0,0.1,0,0.1,0c0,0,0,0.1,0,0.1l0.3,1.1l0.3-1.8c0,0,0-0.1,0-0.1c0,0,0.1,0,0.1,0h0.3c0,0,0.1,0,0.1,0c0,0,0,0,0,0.1
			c0,0,0,0,0,0L39.5,33c0,0,0,0.1,0,0.1c0,0-0.1,0-0.1,0h-0.3c0,0-0.1,0-0.1,0c0,0,0-0.1-0.1-0.1L38.6,31.8z"/>
		<path class="st40" d="M43.4,32.6C43.4,32.6,43.4,32.7,43.4,32.6c0.1,0.1,0.1,0.1,0.1,0.1V33c0,0,0,0.1,0,0.1c0,0,0,0-0.1,0h-1.8
			c0,0-0.1,0-0.1,0c0,0,0,0,0-0.1v-2.7c0,0,0-0.1,0-0.1c0,0,0,0,0.1,0h1.7c0,0,0.1,0,0.1,0c0,0,0,0,0,0.1v0.3c0,0,0,0.1,0,0.1
			c0,0,0,0-0.1,0H42v0.7h1.2c0,0,0.1,0,0.1,0c0,0,0,0,0,0.1v0.3c0,0,0,0.1,0,0.1c0,0,0,0-0.1,0H42v0.7H43.4z"/>
		<path class="st40" d="M48.6,30.2C48.6,30.2,48.7,30.2,48.6,30.2c0.1,0.1,0.1,0.1,0.1,0.1v0.3c0,0,0,0.1,0,0.1c0,0,0,0-0.1,0h-0.7
			V33c0,0,0,0.1,0,0.1c0,0,0,0-0.1,0h-0.3c0,0-0.1,0-0.1,0c0,0,0,0,0-0.1v-2.3h-0.7c0,0-0.1,0-0.1,0c0,0,0,0,0-0.1v-0.3
			c0,0,0-0.1,0-0.1c0,0,0,0,0.1,0H48.6z"/>
		<path class="st40" d="M51.4,32.1l-0.4-1.2l-0.4,1.2H51.4z M51.1,30.2C51.2,30.2,51.2,30.3,51.1,30.2c0.1,0.1,0.1,0.1,0.2,0.1
			l1,2.6c0,0,0,0,0,0c0,0,0,0.1,0,0.1c0,0,0,0-0.1,0h-0.3c-0.1,0-0.1,0-0.1,0c0,0,0,0,0-0.1l-0.2-0.5h-1.3l-0.2,0.5c0,0,0,0,0,0.1
			c0,0-0.1,0-0.1,0h-0.3c0,0-0.1,0-0.1,0c0,0,0,0,0-0.1c0,0,0,0,0,0l1-2.6c0,0,0-0.1,0.1-0.1c0,0,0.1,0,0.1,0H51.1z"/>
		<path class="st40" d="M55.8,33C55.8,33,55.8,33,55.8,33C55.8,33,55.8,33,55.8,33c0,0.1,0,0.1,0,0.1c0,0,0,0-0.1,0h-0.4
			c-0.1,0-0.1,0-0.1,0c0,0-0.1,0-0.1-0.1L54.2,32V33c0,0,0,0.1,0,0.1c0,0,0,0-0.1,0h-0.3c0,0-0.1,0-0.1,0c0,0,0,0,0-0.1v-2.7
			c0,0,0-0.1,0-0.1c0,0,0,0,0.1,0h0.3c0,0,0.1,0,0.1,0c0,0,0,0,0,0.1v1l0.9-1c0,0,0.1-0.1,0.1-0.1c0,0,0.1,0,0.1,0h0.4
			c0,0,0.1,0,0.1,0c0,0,0,0,0,0.1c0,0,0,0,0,0.1l-1.1,1.2L55.8,33z"/>
		<path class="st40" d="M59,32.6C59,32.6,59.1,32.7,59,32.6c0.1,0.1,0.1,0.1,0.1,0.1V33c0,0,0,0.1,0,0.1c0,0,0,0-0.1,0h-1.8
			c0,0-0.1,0-0.1,0c0,0,0,0,0-0.1v-2.7c0,0,0-0.1,0-0.1c0,0,0,0,0.1,0H59c0,0,0.1,0,0.1,0c0,0,0,0,0,0.1v0.3c0,0,0,0.1,0,0.1
			c0,0,0,0-0.1,0h-1.3v0.7h1.2c0,0,0.1,0,0.1,0c0,0,0,0,0,0.1v0.3c0,0,0,0.1,0,0.1c0,0,0,0-0.1,0h-1.2v0.7H59z"/>
		<path class="st40" d="M64.2,32.2C64.2,32.2,64.2,32.2,64.2,32.2c0.1-0.1,0.1-0.1,0.1-0.1h0.3c0,0,0.1,0,0.1,0c0,0,0,0,0,0.1
			c0,0.1,0,0.2-0.1,0.3c0,0.1-0.1,0.2-0.2,0.3c-0.1,0.1-0.2,0.2-0.4,0.2c-0.1,0.1-0.3,0.1-0.5,0.1c-0.2,0-0.4,0-0.5-0.1
			c-0.1-0.1-0.3-0.1-0.4-0.2c-0.1-0.1-0.2-0.2-0.2-0.4c-0.1-0.1-0.1-0.3-0.1-0.5c0-0.1,0-0.2,0-0.4c0-0.1,0-0.2,0-0.4
			c0-0.2,0-0.3,0.1-0.5c0.1-0.1,0.1-0.3,0.2-0.4c0.1-0.1,0.2-0.2,0.4-0.2c0.1-0.1,0.3-0.1,0.5-0.1c0.2,0,0.4,0,0.5,0.1
			c0.1,0.1,0.3,0.1,0.4,0.2c0.1,0.1,0.2,0.2,0.2,0.3c0,0.1,0.1,0.2,0.1,0.3c0,0,0,0.1,0,0.1c0,0,0,0-0.1,0h-0.3c0,0-0.1,0-0.1,0
			c0,0,0,0,0-0.1c0-0.1,0-0.1-0.1-0.2c0-0.1-0.1-0.1-0.1-0.1c-0.1,0-0.1-0.1-0.2-0.1c-0.1,0-0.2,0-0.3,0c-0.1,0-0.2,0-0.3,0.1
			c-0.1,0-0.1,0.1-0.2,0.1C63.1,31,63,31,63,31.1c0,0.1,0,0.2-0.1,0.2c0,0.1,0,0.2,0,0.4c0,0.1,0,0.2,0,0.4c0,0.1,0,0.2,0.1,0.2
			c0,0.1,0.1,0.1,0.1,0.2c0.1,0.1,0.1,0.1,0.2,0.1c0.1,0,0.2,0.1,0.3,0.1c0.1,0,0.2,0,0.3,0c0.1,0,0.1-0.1,0.2-0.1
			c0.1,0,0.1-0.1,0.1-0.1C64.2,32.3,64.2,32.3,64.2,32.2"/>
		<path class="st40" d="M67.8,32.1l-0.4-1.2l-0.4,1.2H67.8z M67.5,30.2C67.6,30.2,67.6,30.3,67.5,30.2c0.1,0.1,0.1,0.1,0.2,0.1
			l1,2.6c0,0,0,0,0,0c0,0,0,0.1,0,0.1c0,0,0,0-0.1,0h-0.3c-0.1,0-0.1,0-0.1,0c0,0,0,0,0-0.1l-0.2-0.5h-1.3l-0.2,0.5c0,0,0,0,0,0.1
			c0,0-0.1,0-0.1,0H66c0,0-0.1,0-0.1,0c0,0,0,0,0-0.1c0,0,0,0,0,0l1-2.6c0,0,0-0.1,0.1-0.1c0,0,0.1,0,0.1,0H67.5z"/>
		<path class="st40" d="M70.6,31.6h0.6c0.2,0,0.3,0,0.4-0.1c0.1-0.1,0.1-0.2,0.1-0.3c0-0.2,0-0.3-0.1-0.3c-0.1-0.1-0.2-0.1-0.4-0.1
			h-0.6V31.6z M71.2,30.2c0.3,0,0.6,0.1,0.8,0.2c0.2,0.2,0.3,0.4,0.3,0.7c0,0.2,0,0.4-0.1,0.5c-0.1,0.1-0.2,0.3-0.4,0.3l0.6,1
			c0,0,0,0,0,0c0,0,0,0,0,0.1c0,0,0,0-0.1,0h-0.3c-0.1,0-0.1,0-0.1,0c0,0,0-0.1-0.1-0.1l-0.5-1h-0.5v1c0,0,0,0.1,0,0.1
			c0,0,0,0-0.1,0h-0.3c0,0-0.1,0-0.1,0c0,0,0,0,0-0.1v-2.7c0,0,0-0.1,0-0.1c0,0,0,0,0.1,0H71.2z"/>
		<path class="st40" d="M75.6,32.6C75.6,32.6,75.6,32.7,75.6,32.6c0.1,0.1,0.1,0.1,0.1,0.1V33c0,0,0,0.1,0,0.1c0,0,0,0-0.1,0h-1.8
			c0,0-0.1,0-0.1,0c0,0,0,0,0-0.1v-2.7c0,0,0-0.1,0-0.1c0,0,0,0,0.1,0h1.7c0,0,0.1,0,0.1,0c0,0,0,0,0,0.1v0.3c0,0,0,0.1,0,0.1
			c0,0,0,0-0.1,0h-1.3v0.7h1.2c0,0,0.1,0,0.1,0c0,0,0,0,0,0.1v0.3c0,0,0,0.1,0,0.1c0,0,0,0-0.1,0h-1.2v0.7H75.6z"/>
		<path class="st40" d="M80.8,31.3c0-0.2-0.1-0.4-0.2-0.5c-0.1-0.1-0.3-0.2-0.5-0.2c-0.2,0-0.3,0.1-0.5,0.2
			c-0.1,0.1-0.2,0.3-0.2,0.5c0,0.1,0,0.2,0,0.4c0,0.1,0,0.2,0,0.4c0,0.2,0.1,0.4,0.2,0.5c0.1,0.1,0.3,0.2,0.5,0.2
			c0.2,0,0.3-0.1,0.5-0.2c0.1-0.1,0.2-0.3,0.2-0.5c0-0.1,0-0.2,0-0.4C80.8,31.6,80.8,31.5,80.8,31.3 M79,31.3c0-0.2,0-0.3,0.1-0.4
			c0.1-0.1,0.1-0.3,0.2-0.4c0.1-0.1,0.2-0.2,0.4-0.2c0.1-0.1,0.3-0.1,0.5-0.1c0.2,0,0.4,0,0.5,0.1c0.1,0.1,0.3,0.1,0.4,0.2
			c0.1,0.1,0.2,0.2,0.2,0.4c0.1,0.1,0.1,0.3,0.1,0.4c0,0.1,0,0.1,0,0.2c0,0.1,0,0.1,0,0.2c0,0.1,0,0.1,0,0.2c0,0.1,0,0.1,0,0.2
			c0,0.2,0,0.3-0.1,0.4c-0.1,0.1-0.1,0.3-0.2,0.4c-0.1,0.1-0.2,0.2-0.4,0.2c-0.1,0.1-0.3,0.1-0.5,0.1c-0.2,0-0.4,0-0.5-0.1
			c-0.1-0.1-0.3-0.1-0.4-0.2c-0.1-0.1-0.2-0.2-0.2-0.4C79,32.4,79,32.2,79,32.1c0-0.1,0-0.1,0-0.2c0-0.1,0-0.1,0-0.2
			c0-0.1,0-0.1,0-0.2C78.9,31.4,79,31.4,79,31.3"/>
		<path class="st40" d="M84.7,30.2C84.7,30.2,84.7,30.2,84.7,30.2c0.1,0.1,0.1,0.1,0.1,0.1v0.3c0,0,0,0.1,0,0.1c0,0,0,0-0.1,0h-1.3
			v0.8h1.2c0,0,0.1,0,0.1,0c0,0,0,0,0,0.1V32c0,0,0,0.1,0,0.1c0,0,0,0-0.1,0h-1.2v1c0,0,0,0.1,0,0.1c0,0,0,0-0.1,0h-0.3
			c0,0-0.1,0-0.1,0c0,0,0,0,0-0.1v-2.7c0,0,0-0.1,0-0.1c0,0,0,0,0.1,0H84.7z"/>
		<path class="st40" d="M90.1,30.2C90.1,30.2,90.1,30.2,90.1,30.2c0.1,0.1,0.1,0.1,0.1,0.1c0,0,0,0,0,0l-1,1.7V33c0,0,0,0.1,0,0.1
			c0,0,0,0-0.1,0h-0.3c0,0-0.1,0-0.1,0c0,0,0,0,0-0.1v-0.9l-1-1.7c0,0,0,0,0,0c0,0,0-0.1,0-0.1c0,0,0,0,0.1,0h0.3c0.1,0,0.1,0,0.1,0
			c0,0,0,0,0,0.1l0.7,1.2l0.7-1.2c0,0,0,0,0-0.1c0,0,0.1,0,0.1,0H90.1z"/>
		<path class="st40" d="M93.2,31.3c0-0.2-0.1-0.4-0.2-0.5c-0.1-0.1-0.3-0.2-0.5-0.2c-0.2,0-0.3,0.1-0.5,0.2
			c-0.1,0.1-0.2,0.3-0.2,0.5c0,0.1,0,0.2,0,0.4c0,0.1,0,0.2,0,0.4c0,0.2,0.1,0.4,0.2,0.5c0.1,0.1,0.3,0.2,0.5,0.2
			c0.2,0,0.3-0.1,0.5-0.2c0.1-0.1,0.2-0.3,0.2-0.5c0-0.1,0-0.2,0-0.4C93.2,31.6,93.2,31.5,93.2,31.3 M91.3,31.3c0-0.2,0-0.3,0.1-0.4
			c0.1-0.1,0.1-0.3,0.2-0.4c0.1-0.1,0.2-0.2,0.4-0.2c0.1-0.1,0.3-0.1,0.5-0.1c0.2,0,0.4,0,0.5,0.1c0.1,0.1,0.3,0.1,0.4,0.2
			c0.1,0.1,0.2,0.2,0.2,0.4c0.1,0.1,0.1,0.3,0.1,0.4c0,0.1,0,0.1,0,0.2c0,0.1,0,0.1,0,0.2c0,0.1,0,0.1,0,0.2c0,0.1,0,0.1,0,0.2
			c0,0.2,0,0.3-0.1,0.4c-0.1,0.1-0.1,0.3-0.2,0.4c-0.1,0.1-0.2,0.2-0.4,0.2c-0.1,0.1-0.3,0.1-0.5,0.1c-0.2,0-0.4,0-0.5-0.1
			c-0.1-0.1-0.3-0.1-0.4-0.2c-0.1-0.1-0.2-0.2-0.2-0.4c-0.1-0.1-0.1-0.3-0.1-0.4c0-0.1,0-0.1,0-0.2c0-0.1,0-0.1,0-0.2
			c0-0.1,0-0.1,0-0.2C91.3,31.4,91.3,31.4,91.3,31.3"/>
		<path class="st40" d="M97.4,30.2C97.4,30.2,97.5,30.2,97.4,30.2c0.1,0.1,0.1,0.1,0.1,0.1v1.7c0,0.2,0,0.3-0.1,0.5
			c0,0.1-0.1,0.3-0.2,0.4c-0.1,0.1-0.2,0.2-0.4,0.2c-0.1,0.1-0.3,0.1-0.5,0.1c-0.2,0-0.4,0-0.5-0.1c-0.1-0.1-0.3-0.1-0.4-0.2
			c-0.1-0.1-0.2-0.2-0.2-0.4c0-0.1-0.1-0.3-0.1-0.5v-1.7c0,0,0-0.1,0-0.1c0,0,0,0,0.1,0h0.3c0,0,0.1,0,0.1,0c0,0,0,0,0,0.1V32
			c0,0.1,0,0.2,0,0.3c0,0.1,0.1,0.1,0.1,0.2c0.1,0.1,0.1,0.1,0.2,0.1c0.1,0,0.2,0,0.2,0c0.1,0,0.2,0,0.2,0c0.1,0,0.1-0.1,0.2-0.1
			c0.1-0.1,0.1-0.1,0.1-0.2s0-0.2,0-0.3v-1.7c0,0,0-0.1,0-0.1c0,0,0,0,0.1,0H97.4z"/>
		<path class="st40" d="M99.7,31.6h0.6c0.2,0,0.3,0,0.4-0.1c0.1-0.1,0.1-0.2,0.1-0.3c0-0.2,0-0.3-0.1-0.3c-0.1-0.1-0.2-0.1-0.4-0.1
			h-0.6V31.6z M100.3,30.2c0.3,0,0.6,0.1,0.8,0.2c0.2,0.2,0.3,0.4,0.3,0.7c0,0.2,0,0.4-0.1,0.5c-0.1,0.1-0.2,0.3-0.4,0.3l0.6,1
			c0,0,0,0,0,0c0,0,0,0,0,0.1c0,0,0,0-0.1,0h-0.3c-0.1,0-0.1,0-0.1,0c0,0,0-0.1-0.1-0.1l-0.5-1h-0.5v1c0,0,0,0.1,0,0.1
			c0,0,0,0-0.1,0h-0.3c0,0-0.1,0-0.1,0c0,0,0,0,0-0.1v-2.7c0,0,0-0.1,0-0.1c0,0,0,0,0.1,0H100.3z"/>
		<path class="st40" d="M105.6,30.2c0.2,0,0.3,0,0.5,0.1c0.1,0.1,0.3,0.1,0.3,0.2c0.1,0.1,0.2,0.2,0.2,0.2c0,0.1,0.1,0.2,0.1,0.3
			c0,0,0,0.1,0,0.1c0,0,0,0-0.1,0h-0.3c0,0-0.1,0-0.1,0c0,0,0,0-0.1-0.1c0-0.1-0.1-0.1-0.2-0.2c-0.1-0.1-0.2-0.1-0.4-0.1
			c-0.1,0-0.1,0-0.2,0c-0.1,0-0.1,0-0.2,0.1c0,0-0.1,0.1-0.1,0.1c0,0,0,0.1,0,0.1c0,0.1,0,0.1,0,0.2c0,0,0.1,0.1,0.1,0.1
			c0.1,0,0.1,0.1,0.2,0.1c0.1,0,0.2,0.1,0.4,0.1c0.2,0,0.3,0.1,0.4,0.1c0.1,0,0.2,0.1,0.3,0.2c0.1,0.1,0.1,0.1,0.2,0.2
			c0,0.1,0.1,0.2,0.1,0.3c0,0.1,0,0.2-0.1,0.3c-0.1,0.1-0.1,0.2-0.2,0.3c-0.1,0.1-0.2,0.1-0.4,0.2c-0.1,0-0.3,0.1-0.5,0.1
			c-0.2,0-0.3,0-0.4-0.1c-0.1,0-0.3-0.1-0.4-0.2c-0.1-0.1-0.2-0.2-0.3-0.3c-0.1-0.1-0.1-0.2-0.1-0.3c0,0,0-0.1,0-0.1c0,0,0,0,0.1,0
			h0.3c0,0,0.1,0,0.1,0c0,0,0,0,0.1,0.1c0,0,0,0.1,0.1,0.1c0,0,0.1,0.1,0.1,0.1c0,0,0.1,0.1,0.2,0.1c0.1,0,0.2,0,0.3,0
			c0.1,0,0.2,0,0.2,0c0.1,0,0.1,0,0.2-0.1c0.1,0,0.1-0.1,0.1-0.1c0,0,0.1-0.1,0.1-0.2c0-0.1,0-0.1-0.1-0.2c0,0-0.1-0.1-0.2-0.1
			c-0.1,0-0.2-0.1-0.3-0.1c-0.1,0-0.2-0.1-0.4-0.1c-0.1,0-0.3-0.1-0.4-0.1c-0.1,0-0.2-0.1-0.3-0.2c-0.1-0.1-0.1-0.1-0.1-0.2
			c0-0.1,0-0.2,0-0.3c0-0.1,0-0.2,0.1-0.3c0.1-0.1,0.1-0.2,0.2-0.3c0.1-0.1,0.2-0.1,0.3-0.2C105.4,30.2,105.5,30.2,105.6,30.2"/>
		<path class="st40" d="M109.6,31.7l0.8-1.4c0,0,0,0,0.1-0.1c0,0,0.1,0,0.1,0h0.3c0,0,0.1,0,0.1,0c0,0,0,0,0,0.1V33c0,0,0,0.1,0,0.1
			c0,0,0,0-0.1,0h-0.3c0,0-0.1,0-0.1,0c0,0,0,0,0-0.1v-1.6l-0.5,0.9c0,0,0,0-0.1,0.1c0,0-0.1,0-0.1,0h-0.2c0,0-0.1,0-0.1,0
			c0,0,0,0-0.1-0.1l-0.5-0.9V33c0,0,0,0.1,0,0.1c0,0,0,0-0.1,0h-0.3c0,0-0.1,0-0.1,0c0,0,0,0,0-0.1v-2.7c0,0,0-0.1,0-0.1
			c0,0,0,0,0.1,0h0.3c0.1,0,0.1,0,0.1,0c0,0,0,0.1,0.1,0.1L109.6,31.7z"/>
		<path class="st40" d="M112.6,33.2C112.6,33.2,112.6,33.1,112.6,33.2c-0.1-0.1-0.1-0.1-0.1-0.1v-2.7c0,0,0-0.1,0-0.1c0,0,0,0,0.1,0
			h0.3c0,0,0.1,0,0.1,0c0,0,0,0,0,0.1V33c0,0,0,0.1,0,0.1c0,0,0,0-0.1,0H112.6z"/>
		<path class="st40" d="M116.5,32.6C116.6,32.6,116.6,32.7,116.5,32.6c0.1,0.1,0.1,0.1,0.1,0.1V33c0,0,0,0.1,0,0.1c0,0,0,0-0.1,0
			h-1.8c0,0-0.1,0-0.1,0c0,0,0,0,0-0.1v-2.7c0,0,0-0.1,0-0.1c0,0,0,0,0.1,0h0.3c0,0,0.1,0,0.1,0c0,0,0,0,0,0.1v2.3H116.5z"/>
		<path class="st40" d="M119.9,32.6C119.9,32.6,120,32.7,119.9,32.6c0.1,0.1,0.1,0.1,0.1,0.1V33c0,0,0,0.1,0,0.1c0,0,0,0-0.1,0h-1.8
			c0,0-0.1,0-0.1,0c0,0,0,0,0-0.1v-2.7c0,0,0-0.1,0-0.1c0,0,0,0,0.1,0h1.7c0,0,0.1,0,0.1,0c0,0,0,0,0,0.1v0.3c0,0,0,0.1,0,0.1
			c0,0,0,0-0.1,0h-1.3v0.7h1.2c0,0,0.1,0,0.1,0c0,0,0,0,0,0.1v0.3c0,0,0,0.1,0,0.1c0,0,0,0-0.1,0h-1.2v0.7H119.9z"/>
		<path class="st40" d="M39.7,15.5v3.6h3c0.6,0,1.1-0.1,1.4-0.2c0.5-0.3,0.8-0.8,0.8-1.5c0-0.8-0.3-1.4-0.8-1.7
			c-0.3-0.2-0.7-0.2-1.3-0.2H39.7z M45.5,13.5c0.5,0.2,0.9,0.5,1.3,0.9c0.3,0.3,0.5,0.7,0.7,1.1c0.2,0.4,0.3,0.9,0.3,1.4
			c0,0.6-0.2,1.3-0.5,1.9c-0.3,0.6-0.9,1.1-1.6,1.3c0.6,0.3,1.1,0.6,1.3,1.1c0.3,0.5,0.4,1.2,0.4,2.1v0.9c0,0.6,0,1,0.1,1.3
			c0.1,0.3,0.2,0.6,0.5,0.8v0.3h-3.1c-0.1-0.3-0.1-0.5-0.2-0.7c-0.1-0.4-0.1-0.8-0.1-1.2l0-1.3c0-0.9-0.2-1.4-0.4-1.7
			c-0.3-0.3-0.8-0.4-1.6-0.4h-2.8v5.3h-2.8V13.2h6.5C44.3,13.2,45,13.3,45.5,13.5"/>
		<path class="st40" d="M51.9,16.7v6c0,0.6,0.1,1,0.2,1.3c0.2,0.5,0.7,0.8,1.4,0.8c0.9,0,1.5-0.4,1.8-1.1c0.2-0.4,0.3-0.9,0.3-1.6
			v-5.4h2.7v10h-2.5v-1.4c0,0-0.1,0.1-0.2,0.3c-0.1,0.2-0.2,0.3-0.3,0.4c-0.4,0.4-0.8,0.6-1.2,0.8c-0.4,0.1-0.8,0.2-1.3,0.2
			c-1.5,0-2.5-0.5-3-1.6c-0.3-0.6-0.4-1.5-0.4-2.6v-6H51.9z"/>
		<path class="st40" d="M58.8,18.6v-1.9h1.4V14h2.6v2.8h1.6v1.9h-1.6v5.3c0,0.4,0.1,0.7,0.2,0.8c0.1,0.1,0.4,0.2,1,0.2
			c0.1,0,0.2,0,0.3,0c0.1,0,0.2,0,0.3,0v2l-1.2,0c-1.2,0-2.1-0.2-2.5-0.6c-0.3-0.3-0.4-0.8-0.4-1.4v-6.2H58.8z"/>
		<path class="st40" d="M72.4,16.7c0.5,0.2,0.9,0.5,1.2,1c0.3,0.4,0.4,0.8,0.5,1.2c0.1,0.4,0.1,1,0.1,1.9v5.9h-2.7v-6.1
			c0-0.5-0.1-1-0.3-1.3c-0.2-0.5-0.7-0.7-1.3-0.7c-0.7,0-1.2,0.2-1.6,0.7c-0.4,0.5-0.5,1.1-0.5,2v5.4h-2.6V13.2h2.6V18
			c0.4-0.6,0.8-1,1.3-1.2c0.5-0.2,1-0.3,1.6-0.3C71.3,16.4,71.9,16.5,72.4,16.7"/>
	</g>
	<path class="st40" d="M75.8,16.7h2.7v10h-2.7V16.7z M78.4,15.5h-2.7v-2.4h2.7V15.5z"/>
	<g>
		<path class="st40" d="M88.1,17.3c0.7,0.5,1,1.4,1,2.7v6.7h-2.7v-6.1c0-0.5-0.1-0.9-0.2-1.2c-0.3-0.5-0.7-0.8-1.5-0.8
			c-0.9,0-1.5,0.4-1.8,1.1c-0.2,0.4-0.3,0.9-0.3,1.5v5.4h-2.6v-10h2.5v1.5c0.3-0.5,0.7-0.9,1-1.1c0.5-0.4,1.2-0.6,2-0.6
			C86.6,16.4,87.4,16.7,88.1,17.3"/>
	</g>
	<path class="st40" d="M90.6,16.7h2.7v10h-2.7V16.7z M93.3,15.5h-2.7v-2.4h2.7V15.5z"/>
	<g>
		<path class="st40" d="M97.5,16.7v6c0,0.6,0.1,1,0.2,1.3c0.2,0.5,0.7,0.8,1.4,0.8c0.9,0,1.5-0.4,1.8-1.1c0.2-0.4,0.3-0.9,0.3-1.6
			v-5.4h2.7v10h-2.5v-1.4c0,0-0.1,0.1-0.2,0.3c-0.1,0.2-0.2,0.3-0.3,0.4c-0.4,0.4-0.8,0.6-1.2,0.8c-0.4,0.1-0.8,0.2-1.3,0.2
			c-1.5,0-2.5-0.5-3-1.6c-0.3-0.6-0.4-1.5-0.4-2.6v-6H97.5z"/>
		<path class="st40" d="M117.9,16.7c0.4,0.2,0.8,0.5,1.2,0.9c0.3,0.3,0.5,0.8,0.6,1.3c0.1,0.3,0.1,0.8,0.1,1.5l0,6.3h-2.7v-6.4
			c0-0.4-0.1-0.7-0.2-0.9c-0.2-0.5-0.7-0.7-1.3-0.7c-0.7,0-1.2,0.3-1.5,0.9c-0.1,0.3-0.2,0.7-0.2,1.1v6h-2.6v-6c0-0.6-0.1-1-0.2-1.3
			c-0.2-0.5-0.7-0.7-1.3-0.7c-0.7,0-1.2,0.2-1.5,0.7c-0.1,0.3-0.2,0.7-0.2,1.2v6h-2.7v-10h2.5v1.5c0.3-0.5,0.6-0.9,0.9-1.1
			c0.5-0.4,1.2-0.6,2-0.6c0.8,0,1.4,0.2,1.9,0.5c0.4,0.3,0.7,0.7,0.9,1.2c0.3-0.6,0.8-1,1.3-1.3c0.5-0.3,1.1-0.4,1.8-0.4
			C117.1,16.5,117.5,16.6,117.9,16.7"/>
		<path class="st40" d="M121.5,15.7c-0.1,0-0.1,0-0.2,0h-0.1v0.5h0.2c0.1,0,0.2,0,0.2-0.1c0.1,0,0.1-0.1,0.1-0.2
			C121.6,15.8,121.6,15.7,121.5,15.7 M120.7,17v-1.6c0.1,0,0.2,0,0.4,0c0.2,0,0.3,0,0.3,0c0.1,0,0.2,0,0.3,0.1
			c0.1,0.1,0.2,0.2,0.2,0.4c0,0.1,0,0.2-0.1,0.3c-0.1,0.1-0.2,0.1-0.3,0.1c0.1,0,0.2,0.1,0.2,0.1c0.1,0.1,0.1,0.2,0.1,0.4v0.1
			c0,0,0,0,0,0c0,0,0,0,0,0l0,0h-0.4c0-0.1,0-0.1,0-0.2c0-0.1,0-0.2,0-0.2c0-0.1-0.1-0.1-0.1-0.1c0,0-0.1,0-0.1,0l-0.1,0h-0.1V17
			H120.7z M120.5,15.3c-0.2,0.2-0.3,0.5-0.3,0.8c0,0.3,0.1,0.6,0.3,0.9c0.2,0.2,0.5,0.4,0.8,0.4c0.3,0,0.6-0.1,0.8-0.4
			c0.2-0.2,0.3-0.5,0.3-0.9c0-0.3-0.1-0.6-0.3-0.8c-0.2-0.2-0.5-0.4-0.8-0.4C121,15,120.8,15.1,120.5,15.3 M122.4,17.2
			c-0.3,0.3-0.6,0.4-1,0.4c-0.4,0-0.7-0.1-1-0.4c-0.3-0.3-0.4-0.6-0.4-1c0-0.4,0.1-0.8,0.4-1.1c0.3-0.3,0.6-0.4,1-0.4
			c0.4,0,0.7,0.1,1,0.4c0.3,0.3,0.4,0.6,0.4,1C122.8,16.6,122.7,16.9,122.4,17.2"/>
		<path class="st40" d="M30.5,23.7h-3c0.1-1.6-0.4-4.4-2-6c-1.6-1.6-3.8-2.1-5.9-2v-3c2.9-0.1,5.8,0.7,8,2.9
			C29.7,17.7,30.6,20.9,30.5,23.7 M29.1,33c-0.8,0-1.4-0.6-1.4-1.4c0-0.8,0.6-1.4,1.4-1.4c0.8,0,1.4,0.6,1.4,1.4
			C30.4,32.3,29.8,33,29.1,33 M26.3,30.2c-0.8,0-1.4-0.6-1.4-1.4c0-0.8,0.6-1.4,1.4-1.4c0.8,0,1.4,0.6,1.4,1.4
			C27.7,29.6,27.1,30.2,26.3,30.2 M23.5,27.4c-0.8,0-1.4-0.6-1.4-1.4s0.6-1.4,1.4-1.4c0.7,0,1.4,0.6,1.4,1.4S24.3,27.4,23.5,27.4
			 M20.9,24.4c-0.8,0-1.4-0.6-1.4-1.4c0-0.8,0.6-1.4,1.4-1.4c0.8,0,1.4,0.6,1.4,1.4C22.2,23.8,21.6,24.4,20.9,24.4 M12.2,33.5h21
			v-21h-21V33.5z"/>
	</g>
</g>
</svg>
