<svg id="Capa_1" data-name="Capa 1" xmlns="http://www.w3.org/2000/svg" viewBox="0 0 135 46"><defs><style>.cls-1{fill:#086eb0;}.cls-2{fill:#fff;}</style></defs><path class="cls-1" d="M92.42,19.42c0,7-11.14,12.71-24.89,12.71S42.65,26.44,42.65,19.42,53.79,6.72,67.53,6.72s24.89,5.69,24.89,12.7"/><polygon class="cls-2" points="57.56 24.36 85.99 24.36 86.86 22.59 86.66 22.6 74.46 22.6 51.77 22.6 51.83 22.26 56.01 11.9 52.11 11.9 47.26 24.25 47.2 24.36 47.94 24.36 57.56 24.36"/><path class="cls-2" d="M71.4,21.54H74l1.5-3.64a1.05,1.05,0,0,1,.76-.64L77,17s.59-.08.28.44l-1.61,4v.12h2.85l1.83-4.88s.45-1.47-.73-1.52a3.73,3.73,0,0,0-1.63.27l-1.43.66-.35.07.42-1H73.9l-2.67,6.35Z"/><path class="cls-2" d="M57.9,17.86l.05-.13.58-1.19s-.12-.13.49-.12h1.24s.15,0,.05.31l-.56,1.17-.1.11a.58.58,0,0,1-.24.09H58a.31.31,0,0,1-.07-.24m-3.5,2.43a1.1,1.1,0,0,0,1,1.31h5.67l.13-.3a1.76,1.76,0,0,0,.21-.78H57.15c-.42-.54.32-1.15.32-1.15h3.94c.69,0,.74-.47.74-.47l.77-2.24c.32-1.55-1.28-1.4-1.28-1.4H57.89a1.84,1.84,0,0,0-1.78.78L54.48,20Z"/><path class="cls-2" d="M65.69,20.1l1.37-3.39s.07-.24.47-.22H68.6s.2,0,.05.35l-1.4,3.41s0,.22-.38.22h-1s-.16,0-.17-.19l0-.08Zm-1.81,1.5h4.18a1.76,1.76,0,0,0,1.88-1.08l1.62-4a1.05,1.05,0,0,0-1-1.27H66.06a1.85,1.85,0,0,0-1.44,1L63,20.15a1,1,0,0,0,.9,1.45"/><path class="cls-2" d="M84,17.82l.05-.14.58-1.18s-.12-.14.49-.12h1.24s.15,0,.05.3l-.56,1.17-.1.12a.58.58,0,0,1-.24.09H84a.31.31,0,0,1-.07-.24m-2.52,3.74h5.67l.13-.3a1.76,1.76,0,0,0,.21-.78H83.21c-.42-.54.32-1.16.32-1.16h3.94c.69,0,.74-.47.74-.47L89,16.62c.32-1.55-1.28-1.4-1.28-1.4H84a1.82,1.82,0,0,0-1.78.77L80.54,19.9l-.08.35a1.1,1.1,0,0,0,1,1.31"/><path class="cls-1" d="M41.31,36.36a.73.73,0,0,0-.23.55.71.71,0,0,0,.23.53.78.78,0,0,0,.57.22.8.8,0,0,0,.57-.22.78.78,0,0,0,.22-.54.74.74,0,0,0-.22-.54.86.86,0,0,0-.57-.23.77.77,0,0,0-.57.23M43,38a1.58,1.58,0,0,1-1.11.42A1.61,1.61,0,0,1,40.76,38a1.48,1.48,0,0,1,0-2.11,1.61,1.61,0,0,1,1.12-.42,1.58,1.58,0,0,1,1.11.42A1.46,1.46,0,0,1,43,38"/><path class="cls-1" d="M43.84,36.42h.68v.3a.65.65,0,0,1,.26-.26.86.86,0,0,1,.36-.07h.13V37A.74.74,0,0,0,45,37a.44.44,0,0,0-.31.1.58.58,0,0,0-.15.43v.81h-.68Z"/><polygon class="cls-1" points="46.39 36.97 46.39 38.31 45.71 38.31 45.71 36.97 45.49 36.97 45.49 36.42 45.71 36.42 45.71 35.79 46.39 35.79 46.39 36.42 46.77 36.42 46.77 36.97 46.39 36.97"/><path class="cls-1" d="M47.78,37.05a.46.46,0,0,0-.13.31.48.48,0,0,0,.13.3.46.46,0,0,0,.31.13.43.43,0,0,0,.3-.13.39.39,0,0,0,.13-.3.45.45,0,0,0-.13-.31.47.47,0,0,0-.3-.12.5.5,0,0,0-.31.12m1.15,1a1.11,1.11,0,0,1-.84.31,1.13,1.13,0,0,1-.85-.31.94.94,0,0,1-.29-.7.91.91,0,0,1,.29-.69,1.16,1.16,0,0,1,.85-.32,1.17,1.17,0,0,1,.84.32.91.91,0,0,1,.3.69,1,1,0,0,1-.3.7"/><path class="cls-1" d="M51,37.68a.43.43,0,0,0,.14-.32.56.56,0,0,0-.12-.31.43.43,0,0,0-.31-.12.38.38,0,0,0-.3.12.47.47,0,0,0-.14.32.44.44,0,0,0,.14.3.41.41,0,0,0,.59,0m.8.63h-.68V38.1a.68.68,0,0,1-.57.27.94.94,0,0,1-.67-.26,1,1,0,0,1-.3-.75,1,1,0,0,1,.31-.75,1,1,0,0,1,.67-.26.74.74,0,0,1,.56.25V35.22h.68Z"/><path class="cls-1" d="M53,37.05a.46.46,0,0,0-.13.31.48.48,0,0,0,.13.3.48.48,0,0,0,.31.13.44.44,0,0,0,.43-.43.5.5,0,0,0-.13-.31.47.47,0,0,0-.3-.12.5.5,0,0,0-.31.12m1.15,1a1.11,1.11,0,0,1-.84.31,1.13,1.13,0,0,1-.85-.31.94.94,0,0,1-.29-.7.91.91,0,0,1,.29-.69,1.16,1.16,0,0,1,.85-.32,1.17,1.17,0,0,1,.84.32.91.91,0,0,1,.29.69.94.94,0,0,1-.29.7"/><path class="cls-1" d="M54.82,36.42h.67v.23a.81.81,0,0,1,1.16-.07.65.65,0,0,1,.18.53v1.2h-.68v-1a.55.55,0,0,0-.08-.37.32.32,0,0,0-.22-.08.4.4,0,0,0-.25.09.5.5,0,0,0-.11.3v1h-.67Z"/><path class="cls-1" d="M58.73,38.27a1,1,0,0,1-.47.1,1,1,0,0,1-.75-.29,1,1,0,0,1-.29-.7,1.05,1.05,0,0,1,.3-.74,1.09,1.09,0,0,1,.77-.28,1,1,0,0,1,.44.1V37a.64.64,0,0,0-.36-.12A.44.44,0,0,0,58,37a.45.45,0,0,0-.13.32.49.49,0,0,0,.12.32.44.44,0,0,0,.35.15.51.51,0,0,0,.35-.13Z"/><path class="cls-1" d="M59.79,38.31h-.68V36.42h.68Zm-.34-3.06a.38.38,0,1,1-.38.38.38.38,0,0,1,.38-.38"/><path class="cls-1" d="M61,37.05a.42.42,0,0,0-.14.31.46.46,0,0,0,.13.31.46.46,0,0,0,.31.13.43.43,0,0,0,.3-.13.43.43,0,0,0,.13-.31.44.44,0,0,0-.13-.31.44.44,0,0,0-.31-.12.42.42,0,0,0-.29.12m.71-.63h.68v1.89h-.68V38.1a.7.7,0,0,1-.59.27,1,1,0,0,1-1-1,1,1,0,0,1,.29-.76,1,1,0,0,1,.68-.27.74.74,0,0,1,.57.25Z"/><path class="cls-1" d="M65.24,37.1a.61.61,0,0,0-.11-.21.46.46,0,0,0-.28-.1.37.37,0,0,0-.28.1.38.38,0,0,0-.1.21Zm.62.39H64.45a.49.49,0,0,0,.12.32.38.38,0,0,0,.28.09.74.74,0,0,0,.22,0,.28.28,0,0,0,.11-.13h.65a.86.86,0,0,1-.23.39,1,1,0,0,1-.77.26,1,1,0,0,1-.78-.29,1,1,0,0,1-.28-.71,1,1,0,0,1,.28-.73,1.19,1.19,0,0,1,1.51,0,1.08,1.08,0,0,1,.3.8Z"/><rect class="cls-1" x="67.3" y="35.48" width="0.73" height="2.83"/><path class="cls-1" d="M68.56,36.42h.68v.22a.74.74,0,0,1,.57-.26.71.71,0,0,1,.36.09.52.52,0,0,1,.26.27.64.64,0,0,1,.26-.26.77.77,0,0,1,.4-.1.71.71,0,0,1,.52.18.68.68,0,0,1,.18.52v1.23h-.68v-.94A.57.57,0,0,0,71,37a.23.23,0,0,0-.18-.07.26.26,0,0,0-.2.08.47.47,0,0,0-.13.36v1h-.67v-.94a.62.62,0,0,0-.09-.4.26.26,0,0,0-.21-.08.21.21,0,0,0-.18.07.54.54,0,0,0-.12.41v.94h-.68Z"/><path class="cls-1" d="M73.05,37.06a.42.42,0,0,0,0,.61.43.43,0,0,0,.3.13.44.44,0,0,0,.31-.13.42.42,0,0,0,0-.61.4.4,0,0,0-.31-.13.39.39,0,0,0-.3.13m-.11,2.22h-.68V36.41h.68v.21a.7.7,0,0,1,.58-.27.91.91,0,0,1,.67.28,1,1,0,0,1,.29.73,1,1,0,0,1-.3.75.91.91,0,0,1-.65.26.8.8,0,0,1-.59-.24Z"/><rect class="cls-1" x="74.87" y="35.22" width="0.68" height="3.09"/><path class="cls-1" d="M76.77,37.05a.42.42,0,0,0-.14.31.46.46,0,0,0,.13.31.46.46,0,0,0,.31.13.43.43,0,0,0,.3-.13.43.43,0,0,0,.13-.31.44.44,0,0,0-.13-.31.44.44,0,0,0-.31-.12.42.42,0,0,0-.29.12m.71-.63h.68v1.89h-.68V38.1a.7.7,0,0,1-.59.27,1,1,0,0,1-1-1,1,1,0,0,1,.29-.76,1,1,0,0,1,.68-.27.74.74,0,0,1,.57.25Z"/><path class="cls-1" d="M78.62,36.42h.68v.23a.74.74,0,0,1,.6-.28.76.76,0,0,1,.56.21.65.65,0,0,1,.18.53v1.2H80v-1a.55.55,0,0,0-.08-.37.33.33,0,0,0-.22-.08.38.38,0,0,0-.25.09.44.44,0,0,0-.11.3v1h-.68Z"/><polygon class="cls-1" points="81.85 36.97 81.85 38.31 81.17 38.31 81.17 36.97 80.96 36.97 80.96 36.42 81.17 36.42 81.17 35.79 81.85 35.79 81.85 36.42 82.24 36.42 82.24 36.97 81.85 36.97"/><path class="cls-1" d="M83.25,37.05a.42.42,0,0,0-.13.31.44.44,0,0,0,.43.43.46.46,0,0,0,.31-.13.43.43,0,0,0,.13-.3.43.43,0,0,0-.44-.43.47.47,0,0,0-.3.12m1.15,1a1.31,1.31,0,0,1-1.69,0,.94.94,0,0,1-.29-.7.91.91,0,0,1,.29-.69,1.13,1.13,0,0,1,.84-.32,1.2,1.2,0,0,1,.85.32.91.91,0,0,1,.29.69.94.94,0,0,1-.29.7"/><rect class="cls-1" x="85.08" y="35.22" width="0.68" height="3.09"/><path class="cls-1" d="M87,37.05a.42.42,0,0,0-.13.31.42.42,0,0,0,.73.3.41.41,0,0,0,.14-.3.46.46,0,0,0-.14-.31.45.45,0,0,0-.3-.12.47.47,0,0,0-.3.12m1.15,1a1.13,1.13,0,0,1-.85.31,1.11,1.11,0,0,1-.84-.31,1,1,0,0,1-.3-.7.91.91,0,0,1,.3-.69,1.13,1.13,0,0,1,.84-.32,1.2,1.2,0,0,1,.85.32.91.91,0,0,1,.29.69,1,1,0,0,1-.29.7"/><path class="cls-1" d="M89.56,37.05a.44.44,0,0,0-.13.31.43.43,0,0,0,.13.31.43.43,0,0,0,.61,0,.47.47,0,0,0,.13-.3.49.49,0,0,0-.14-.31.43.43,0,0,0-.3-.13.41.41,0,0,0-.3.13m1.38-.63v1.77a1,1,0,0,1-.26.78,1.11,1.11,0,0,1-.83.31,1.16,1.16,0,0,1-.89-.34.68.68,0,0,1-.21-.39h.76c0,.08.09.2.32.2a.45.45,0,0,0,.3-.11.47.47,0,0,0,.13-.35V38.1a.73.73,0,0,1-.57.25.93.93,0,0,1-.69-.27,1,1,0,0,1-.27-.69,1.1,1.1,0,0,1,.28-.74,1,1,0,0,1,.69-.29.75.75,0,0,1,.56.25v-.19Z"/><path class="cls-1" d="M92.41,35.53l-.66.58-.31-.24.54-.65Zm-.33,2.78H91.4V36.42h.68Z"/><path class="cls-1" d="M93.29,37.05a.45.45,0,0,0-.13.31.42.42,0,0,0,.13.31.46.46,0,0,0,.3.13.48.48,0,0,0,.31-.13.43.43,0,0,0,.13-.31.44.44,0,0,0-.44-.43.45.45,0,0,0-.3.12m.71-.63h.68v1.89H94V38.1a.68.68,0,0,1-.58.27.92.92,0,0,1-.69-.3,1,1,0,0,1-.27-.69,1,1,0,0,1,.29-.76,1,1,0,0,1,.69-.27.73.73,0,0,1,.56.25Z"/><path class="cls-1" d="M91.53,12.5a.42.42,0,0,0-.17,0h-.07v.32h.11a.34.34,0,0,0,.16,0,.15.15,0,0,0,.06-.13.12.12,0,0,0-.09-.13m-.53.89V12.28h.53a.48.48,0,0,1,.22.05.29.29,0,0,1,.15.27.25.25,0,0,1-.08.2.36.36,0,0,1-.19.07.48.48,0,0,1,.16.07.3.3,0,0,1,.09.24v.1a0,0,0,0,0,0,0v.07h-.27a.63.63,0,0,1,0-.16.35.35,0,0,0,0-.13.11.11,0,0,0-.08-.08l-.1,0h-.12v.39Zm-.14-1.13a.78.78,0,0,0-.24.57.81.81,0,0,0,.24.59.81.81,0,0,0,1.15,0,.83.83,0,0,0,0-1.16.77.77,0,0,0-.58-.25.76.76,0,0,0-.58.25m1.27,1.29a1,1,0,0,1-1.4,0,1,1,0,0,1-.28-.71,1,1,0,0,1,.3-.72,1,1,0,0,1,.69-.27,1,1,0,0,1,1,1,1,1,0,0,1-.3.72"/></svg>