<?xml version="1.0" encoding="UTF-8"?>
<svg xmlns="http://www.w3.org/2000/svg" width="135" height="45" viewBox="0 0 135 45" fill="none">
  <path d="M125.811 18.5675C125.287 18.5675 124.856 18.1417 124.856 17.6168C124.856 17.0919 125.287 16.6611 125.811 16.6611C126.336 16.6611 126.767 17.0919 126.767 17.6168C126.767 18.1417 126.336 18.5675 125.811 18.5675ZM125.811 16.4283C125.158 16.4283 124.623 16.9631 124.623 17.6168C124.623 18.2704 125.158 18.8052 125.811 18.8052C126.465 18.8052 127 18.2704 127 17.6168C127 16.9631 126.465 16.4283 125.811 16.4283Z" fill="#9B95AD"></path>
  <path d="M125.891 17.5674L125.638 17.5723L125.633 17.2653H125.886C125.98 17.2603 126.054 17.3198 126.054 17.4138C126.059 17.5079 125.985 17.5674 125.891 17.5674ZM126.302 17.4089C126.297 17.2009 126.153 17.0524 125.92 17.0524L125.391 17.0623L125.405 18.1814H125.648L125.643 17.7803H125.816L126.044 18.1764L126.317 18.1715L126.059 17.7456C126.178 17.7159 126.302 17.607 126.302 17.4089Z" fill="#9B95AD"></path>
  <path d="M33.9636 25.5448H30.993V18.6946H33.8824C34.6618 18.6946 35.1485 19.1977 35.1485 19.8795C35.1485 20.5614 34.6618 21.0481 33.8824 21.0481H30.5795V23.0288H33.9636C34.8727 23.0288 35.3595 23.6131 35.3595 24.2945C35.3595 25.0739 34.8401 25.5448 33.9636 25.5448ZM35.6353 21.9573C36.6583 21.7463 37.5026 20.8372 37.5026 19.474C37.5026 18.029 36.4474 16.7144 34.3855 16.7144H28.688V27.5414H34.5642C36.6257 27.5414 37.7131 26.2425 37.7131 24.6193C37.7131 23.2556 36.7881 22.136 35.6353 21.9573Z" fill="#9B95AD"></path>
  <path d="M44.4605 21.665H41.9685V23.6942H43.7302L45.8565 27.5413H48.5022L46.0674 23.4179C47.2365 23.1421 48.4373 22.1196 48.4373 20.2042M48.4373 20.2042C48.4373 18.1913 47.0577 16.7142 44.8012 16.7142H39.7366V27.5413H42.0416V18.7435H44.4605C45.386 18.7435 46.0837 19.2951 46.0837 20.2042C46.0837 21.1134 45.386 21.665 44.4605 21.665" fill="#9B95AD"></path>
  <path d="M65.9614 23.678L67.6495 19.0194L69.338 23.678H65.9614ZM66.205 16.7144L62.0168 27.5414H64.6462L65.3281 25.7072H69.9709L70.6364 27.5414H73.2663L69.0944 16.7144H66.205Z" fill="#9B95AD"></path>
  <path d="M79.527 25.5123H77.5626V18.7432H79.527C81.7508 18.7432 82.9194 20.2203 82.9194 22.1362C82.9194 23.9703 81.6696 25.5123 79.527 25.5123ZM79.527 16.7145H75.2576V27.5415H79.527C82.9194 27.5415 85.273 25.3989 85.273 22.1362C85.273 18.8734 82.9194 16.7145 79.527 16.7145Z" fill="#9B95AD"></path>
  <path d="M120.194 16.7122L117.355 21.3024L114.516 16.7122H111.968V27.5412H114.273V20.4636L116.755 24.2378C117.039 24.6691 117.671 24.6691 117.955 24.2378L120.438 20.4636V27.5412H122.743V16.7122H120.194Z" fill="#9B95AD"></path>
  <path d="M55.747 25.6258C53.8301 25.6258 52.2768 24.072 52.2768 22.1557C52.2768 20.2388 53.8301 18.685 55.747 18.685C57.6633 18.685 59.2172 20.2388 59.2172 22.1557C59.2172 24.072 57.6633 25.6258 55.747 25.6258ZM55.747 16.4473C52.5942 16.4473 50.0386 19.0029 50.0386 22.1557C50.0386 25.3079 52.5942 27.8635 55.747 27.8635C58.8993 27.8635 61.4553 25.3079 61.4553 22.1557C61.4553 19.0029 58.8993 16.4473 55.747 16.4473Z" fill="#9B95AD"></path>
  <path d="M95.6474 23.8347C95.0556 24.9023 93.9182 25.6257 92.611 25.6257C90.6946 25.6257 89.1408 24.0719 89.1408 22.1555C89.1408 20.2387 90.6946 18.6853 92.611 18.6853C93.9073 18.6853 95.0358 19.3974 95.6315 20.4506L97.2508 18.8319C96.2149 17.3885 94.5233 16.4471 92.611 16.4471C89.4582 16.4471 86.9031 19.0027 86.9031 22.1555C86.9031 25.3078 89.4582 27.8639 92.611 27.8639C94.5337 27.8639 96.2337 26.9122 97.2676 25.4549L95.6474 23.8347Z" fill="#9B95AD"></path>
  <path d="M104.63 25.6258C102.713 25.6258 101.16 24.072 101.16 22.1557C101.16 20.2388 102.713 18.685 104.63 18.685C106.546 18.685 108.1 20.2388 108.1 22.1557C108.1 24.072 106.546 25.6258 104.63 25.6258ZM104.63 16.4473C101.477 16.4473 98.9214 19.0029 98.9214 22.1557C98.9214 25.3079 101.477 27.8635 104.63 27.8635C107.782 27.8635 110.338 25.3079 110.338 22.1557C110.338 19.0029 107.782 16.4473 104.63 16.4473Z" fill="#9B95AD"></path>
  <path fill-rule="evenodd" clip-rule="evenodd" d="M24.5164 22.2354C24.5164 26.6754 20.9169 30.2748 16.4766 30.2748C12.0363 30.2748 8.43677 26.6754 8.43677 22.2354C8.43677 17.7954 12.0363 14.196 16.4766 14.196C20.9169 14.196 24.5164 17.7954 24.5164 22.2354ZM20.9553 24.6751C21.799 24.1636 22.6408 24.0408 23.5604 24.4072C23.7589 24.4865 23.9543 24.5751 24.1405 24.6647C24.0132 25.0639 23.8552 25.4568 23.67 25.8257C23.4665 25.7257 23.2534 25.6264 23.0355 25.562C22.7216 25.4694 22.3992 25.4644 22.0877 25.5689C21.8131 25.6609 21.5657 25.8171 21.3216 25.9713C21.2964 25.9873 21.2711 26.0032 21.2459 26.019L21.2451 26.0196C20.7387 26.3378 20.165 26.6984 19.4351 26.6984C18.3526 26.6984 17.5925 26.0522 17.3499 24.9252C17.1622 24.0517 16.4759 20.7568 16.4759 20.7568C16.208 22.1017 15.7911 24.0517 15.6029 24.9252C15.3603 26.0522 14.6007 26.6984 13.5182 26.6984C12.7882 26.6984 12.2146 26.3378 11.7082 26.0196L11.7074 26.019C11.6821 26.0032 11.6569 25.9873 11.6316 25.9713C11.3876 25.8171 11.1402 25.6609 10.8656 25.5689C10.5536 25.4644 10.2317 25.4694 9.91779 25.562C9.69991 25.6264 9.48648 25.7256 9.28296 25.8256C9.09826 25.4567 8.93984 25.0639 8.81258 24.6648C8.99876 24.5752 9.19434 24.4865 9.3929 24.4072C10.312 24.0408 11.1542 24.1636 11.9975 24.6751C11.9975 24.6751 12.3055 24.8628 12.3976 24.9207L12.4034 24.9243C12.7944 25.1696 13.1634 25.4011 13.5182 25.4011C13.8584 25.4011 14.1931 25.3099 14.3348 24.6519C14.5556 23.6254 15.0944 21.1029 15.3296 19.8536C15.4677 19.1193 15.5435 18.7236 15.6222 18.4547C15.7599 17.9848 16.0119 17.7278 16.3684 17.6852C16.3684 17.6852 16.4308 17.6763 16.4764 17.6763C16.5224 17.6763 16.5789 17.6842 16.5789 17.6842C16.9389 17.7253 17.1924 17.9823 17.3311 18.4547C17.4098 18.7236 17.4856 19.1193 17.6237 19.8536C17.8589 21.1029 18.3977 23.6254 18.6185 24.6519C18.7601 25.3099 19.0949 25.4011 19.4351 25.4011C19.7899 25.4011 20.1589 25.1696 20.5499 24.9243L20.5557 24.9207C20.6478 24.8628 20.9553 24.6751 20.9553 24.6751Z" fill="#9B95AD"></path>
</svg>
