<?xml version="1.0" encoding="UTF-8"?>
<svg xmlns="http://www.w3.org/2000/svg" width="135" height="45" viewBox="0 0 135 45" fill="none">
  <path d="M73.5357 26.0363C73.5357 31.347 70.6288 32.0178 67.7218 32.0178C62.7465 32.0178 61.6844 29.4463 61.6844 25.8127V15.4707H59.8396V14.4645H66.8274V15.4707H64.8708V25.4772C64.8708 28.9991 65.7653 30.788 68.3368 30.788C70.9083 30.788 72.194 29.5022 72.194 25.8127V15.4707H70.3493V14.4645H75.3246V15.4707H73.6475L73.5357 26.0363ZM78.3992 30.788V15.4707H76.4426V14.4645H84.1572C87.4554 14.4645 89.0766 16.3092 89.0766 18.4894C89.0766 20.8373 86.9523 22.1231 85.1075 22.5144C88.7412 22.8498 89.7474 25.1977 89.7474 26.9307C89.7474 30.4526 86.7287 31.7942 83.8218 31.7942H76.3308V30.788H78.3992ZM85.9461 18.713C85.9461 17.0919 85.1075 15.4707 83.2627 15.4707H81.2502V22.1231H83.0391C85.0516 22.1231 85.9461 20.5019 85.9461 18.713ZM86.6169 26.9866C86.6169 24.6946 85.6106 23.1293 83.3186 23.1293H81.3621V30.8439H82.9832C85.387 30.788 86.6169 29.3345 86.6169 26.9866ZM97.5179 15.2471C95.6731 15.2471 94.4991 16.3092 94.4991 18.2099C94.4991 19.887 96.3439 20.7255 98.1328 21.3405C99.1949 21.7318 100.537 22.2349 101.487 23.0734C102.493 24.0238 103.052 25.3095 102.996 26.9307C102.94 29.9494 100.816 32.0178 97.0707 32.0178C95.6731 32.0178 93.4929 31.6824 92.2071 30.9557L92.0394 26.4276H93.1575C93.2693 29.5022 94.6668 31.0675 97.1825 31.0675C99.1949 31.0675 100.313 29.7258 100.313 27.6574C100.313 25.8686 98.8595 25.1418 96.6234 24.3592C95.8967 24.1356 94.4432 23.5766 93.437 22.5703C92.5425 21.6759 92.0953 20.5019 92.0953 19.328C92.0953 15.8061 94.6109 14.2408 97.7415 14.2408C98.9713 14.2408 100.816 14.6881 101.934 15.303L102.046 19.2721H100.928C100.76 16.4769 99.5304 15.2471 97.5179 15.2471Z" fill="#9B95AD"></path>
  <path d="M51.0627 17.9863L50.6155 18.3776L51.1186 19.9988L49.6652 19.2162L49.1621 19.6075L50.7832 20.5019L49.0503 21.8995L48.603 21.2845L49.218 20.7814L48.7707 20.2224L48.1558 20.7255L47.6527 20.0547L48.2676 19.5516L47.8204 18.9366L44.6899 21.5641L47.7086 23.9679L48.2676 23.297C48.6589 23.297 48.9385 23.6324 49.1062 23.9679L48.5471 24.6387L48.8825 24.9182C49.6093 24.2474 50.6155 23.8002 51.6218 23.8002C53.7461 23.8002 55.3672 25.5331 55.3672 27.6574C55.3672 28.3283 55.1995 29.1109 54.8082 29.7258L55.3672 30.173C55.3672 30.5644 54.9759 31.0116 54.5846 31.1234L54.0256 30.6762C53.2988 31.4029 52.2926 31.7942 51.2864 31.7942C49.1621 31.7942 47.5409 30.1171 47.5409 27.9928C47.5409 27.322 47.7645 26.5953 48.044 25.9804L47.6527 25.7008L47.0937 26.4276C46.7024 26.3717 46.3669 26.0922 46.2551 25.7008L46.8142 25.0859L44.2985 22.9616V26.3158H45.1371C45.2489 26.4835 45.3048 26.6512 45.3048 26.8189C45.3048 26.9866 45.2489 27.2102 45.1371 27.3779H44.2985V27.7692C46.1433 28.1046 47.7086 29.6699 47.7086 31.5706C47.7086 33.5272 46.1992 35.0925 44.2985 35.4279V36.0987C44.1308 36.2105 43.9072 36.2664 43.6836 36.2664C43.46 36.2664 43.1805 36.2105 43.0128 36.0987V35.4279C41.1121 35.1484 39.6586 33.5272 39.6586 31.5706C39.6586 29.6699 41.1121 28.1046 43.0128 27.8251V27.3779H42.1183C42.0065 27.2102 41.9506 27.0425 41.9506 26.8189C41.9506 26.5953 42.0065 26.4276 42.1183 26.2599H43.0128V22.9057L40.4413 25.03L41.0003 25.6449C40.8885 26.0363 40.5531 26.3158 40.1618 26.3717L39.6027 25.6449L39.2673 25.9804C39.6027 26.5953 39.8263 27.2661 39.8263 27.9928C39.8263 30.1171 38.1493 31.7942 36.0809 31.7942C35.0746 31.7942 34.0684 31.4029 33.3417 30.6762L32.7826 31.1234C32.4472 31.0116 32.0559 30.5644 32 30.173L32.559 29.7258C32.2236 29.1109 32 28.3842 32 27.6574C32 25.5331 33.6212 23.8002 35.7455 23.8002C36.7517 23.8002 37.758 24.2474 38.4847 24.9182L38.8201 24.6946L38.2611 24.0238C38.3729 23.6884 38.7083 23.4088 39.0996 23.3529L39.6586 24.0238L42.6774 21.62L39.5468 18.9925L39.0996 19.6075L39.7145 20.1106L39.2673 20.7255L38.6524 20.2224L38.2052 20.7814L38.7083 21.1727L38.2611 21.7877L36.584 20.3901L38.1493 19.4957L37.7021 19.1043L36.2486 19.887L36.6958 18.3776L36.2486 17.9863L35.6896 19.7193L33.9566 18.3217L34.4038 17.7627L35.0187 18.2658L35.5219 17.7068L34.9069 17.1478L35.3541 16.5887L35.9691 17.036L36.4163 16.4769L35.0746 15.4707C35.1864 15.0235 35.466 14.6881 35.9132 14.4085L43.0128 20.2224V16.3651H42.2861V17.0919H41.5593V16.3651H40.8326V17.0919H40.1059V14.9117L41.7829 15.6384V15.0235L40.2177 14.3526L41.7829 13.7377V13.1787L40.1059 13.8495V11.6134H40.8326V12.3961H41.5593V11.6134H42.2861V12.3961H43.0128V10.6631C43.2364 10.6072 43.46 10.5513 43.6836 10.5513C43.9072 10.5513 44.1308 10.6072 44.2985 10.6631V20.2224L51.3982 14.4085C51.7895 14.6881 52.069 15.0235 52.2367 15.4707L50.895 16.5328L51.3423 17.0919L51.9572 16.6446L52.4044 17.2037L51.7895 17.7627L52.2367 18.3217L52.8516 17.8186L53.2988 18.3776L51.5659 19.7752L51.0627 17.9863ZM36.584 28.496C36.584 29.1109 37.0312 29.5022 37.5902 29.5581L36.6958 30.2289C36.0809 30.0053 35.5219 29.2786 35.5219 28.6078C35.5219 28.3842 35.5778 28.2724 35.6337 28.1046H35.466C34.6274 28.1046 33.9566 27.322 33.7889 26.5394L34.7392 25.8126V26.0922C34.7392 26.5953 35.2423 27.0425 35.7455 27.0425C36.3045 27.0425 36.8076 26.5953 36.8076 26.0363C36.8076 25.3654 36.3045 24.9182 35.6337 24.9182C34.4038 24.9182 33.174 26.1481 33.174 27.7133C33.174 28.1605 33.2858 28.6078 33.4535 28.9991L34.0125 28.5519C34.4038 28.7196 34.6833 29.1109 34.7951 29.5581L34.2361 30.0053C34.7951 30.4526 35.466 30.6762 36.1368 30.6762C37.5902 30.6762 38.7083 29.5022 38.7083 28.496C38.7083 27.881 38.317 27.3779 37.7021 27.3779C37.0312 27.4897 36.584 27.9369 36.584 28.496ZM44.1867 30.7321C44.1867 31.2911 44.634 31.7383 45.193 31.7383C45.5843 31.7383 45.752 31.5706 46.0315 31.347V32.5209C45.752 32.6886 45.4725 32.7446 45.1371 32.7446C44.5222 32.7446 44.019 32.5768 43.6836 32.0178C43.3482 32.5768 42.7892 32.7446 42.1743 32.7446C41.8947 32.7446 41.5593 32.6886 41.2798 32.5209V31.347C41.5593 31.6265 41.727 31.7383 42.1183 31.7383C42.6774 31.7383 43.1246 31.2911 43.1246 30.7321C43.1246 30.173 42.7892 29.7258 42.1743 29.7258C41.1121 29.7258 40.6649 30.7321 40.6649 31.6824C40.6649 33.0241 41.6711 34.198 42.9569 34.4216V33.7508C43.1805 33.639 43.4041 33.639 43.5718 33.639C43.7954 33.639 44.019 33.639 44.2426 33.7508V34.4216C45.4725 34.2539 46.5346 32.9682 46.5346 31.6824C46.5346 30.7321 46.1433 29.7258 45.0253 29.7258C44.5781 29.6699 44.1867 30.173 44.1867 30.7321ZM50.5596 26.0922C50.5596 26.5953 51.1186 27.0984 51.6218 27.0984C52.1249 27.0984 52.628 26.6512 52.628 26.1481V25.8685L53.5225 26.5953C53.3547 27.4897 52.5721 28.2165 51.6777 28.1605C51.7336 28.3283 51.7336 28.496 51.7336 28.6637C51.7336 29.3345 51.1745 30.0612 50.5596 30.2848L49.7211 29.5581C50.2801 29.5022 50.7273 29.1109 50.7273 28.496C50.7273 27.881 50.2242 27.4897 49.6652 27.4897C49.0503 27.4897 48.6589 27.9928 48.6589 28.6078C48.6589 29.3345 49.5534 30.788 51.2864 30.788C51.9572 30.788 52.628 30.5644 53.1311 30.1171L52.5721 29.6699C52.6839 29.2227 52.9634 28.8314 53.3547 28.6637L53.9138 29.1109C54.1374 28.7196 54.2492 28.2724 54.2492 27.8251C54.2492 26.5953 53.2988 25.03 51.7895 25.03C51.1186 25.03 50.5596 25.4213 50.5596 26.0922Z" fill="#9B95AD"></path>
</svg>
