<?xml version="1.0" encoding="UTF-8"?>
<svg xmlns="http://www.w3.org/2000/svg" width="135" height="45" viewBox="0 0 135 45" fill="none">
  <path d="M50.7382 14.4783C50.5468 14.4783 50.3842 14.6172 50.3543 14.8064L48.1387 28.8566C48.1307 28.908 48.1339 28.9604 48.148 29.0104C48.1622 29.0604 48.187 29.1067 48.2208 29.1462C48.2545 29.1857 48.2964 29.2174 48.3436 29.2391C48.3908 29.2609 48.4421 29.2721 48.4941 29.2721H51.1215C51.3126 29.2721 51.4755 29.1329 51.5054 28.944L52.1562 24.818C52.1859 24.6291 52.3487 24.4899 52.5401 24.4899H54.9289C57.72 24.4899 60.0893 22.4534 60.5221 19.6939C60.9585 16.911 58.7844 14.4843 55.703 14.4783H50.7382ZM53.2923 17.6148H55.2035C56.777 17.6148 57.2895 18.5433 57.1274 19.57C56.9654 20.599 56.1696 21.3569 54.6475 21.3569H52.7021L53.2923 17.6148ZM65.8659 18.5699C65.2025 18.5724 64.4391 18.7083 63.5821 19.0653C61.6161 19.8847 60.6721 21.5782 60.2711 22.8128C60.2711 22.8128 58.995 26.5796 61.8781 28.649C61.8781 28.649 64.552 30.6413 67.5619 28.5263L67.51 28.8566C67.502 28.9079 67.5051 28.9603 67.5192 29.0103C67.5334 29.0602 67.5581 29.1065 67.5918 29.146C67.6255 29.1855 67.6674 29.2172 67.7145 29.239C67.7616 29.2607 67.8129 29.272 67.8648 29.2721H70.359C70.5504 29.2721 70.713 29.1329 70.7429 28.944L72.2602 19.3223C72.2683 19.271 72.2652 19.2185 72.2511 19.1685C72.237 19.1185 72.2123 19.0721 72.1786 19.0326C72.1448 18.9931 72.103 18.9613 72.0558 18.9395C72.0086 18.9177 71.9573 18.9064 71.9054 18.9063H69.4111C69.2197 18.9063 69.0569 19.0455 69.0272 19.2344L68.9457 19.7524C68.9457 19.7524 67.8566 18.5625 65.8659 18.5699ZM65.9475 21.609C66.2339 21.609 66.4959 21.6485 66.731 21.724C67.8071 22.0695 68.4173 23.1034 68.2407 24.224C68.023 25.6039 66.8913 26.62 65.44 26.62C65.1539 26.62 64.8919 26.5807 64.6566 26.5052C63.5807 26.1597 62.9667 25.1258 63.1432 24.0052C63.361 22.6253 64.4962 21.609 65.9475 21.609Z" fill="#9B95AD"></path>
  <path d="M86.6566 14.4783C86.4652 14.4783 86.3027 14.6172 86.2727 14.8064L84.0572 28.8566C84.0492 28.908 84.0523 28.9604 84.0665 29.0104C84.0806 29.0604 84.1054 29.1067 84.1392 29.1462C84.173 29.1857 84.2149 29.2174 84.2621 29.2391C84.3093 29.2609 84.3606 29.2721 84.4125 29.2721H87.04C87.2311 29.2721 87.3939 29.1329 87.4239 28.944L88.0747 24.818C88.1043 24.6291 88.2672 24.4899 88.4586 24.4899H90.8474C93.6385 24.4899 96.0075 22.4534 96.44 19.6939C96.8766 16.911 94.7029 14.4843 91.6215 14.4783H86.6566ZM89.2107 17.6148H91.122C92.6955 17.6148 93.2079 18.5433 93.0459 19.57C92.8839 20.599 92.0883 21.3569 90.5659 21.3569H88.6206L89.2107 17.6148ZM101.784 18.5699C101.121 18.5724 100.357 18.7083 99.5002 19.0653C97.5343 19.8847 96.5902 21.5782 96.1893 22.8128C96.1893 22.8128 94.9138 26.5796 97.7968 28.649C97.7968 28.649 100.47 30.6413 103.48 28.5263L103.428 28.8566C103.42 28.908 103.424 28.9604 103.438 29.0104C103.452 29.0604 103.477 29.1067 103.51 29.1462C103.544 29.1857 103.586 29.2174 103.633 29.2391C103.681 29.2609 103.732 29.2721 103.784 29.2721H106.278C106.469 29.2721 106.632 29.1329 106.662 28.944L108.179 19.3223C108.188 19.271 108.184 19.2184 108.17 19.1684C108.156 19.1183 108.131 19.0719 108.098 19.0324C108.064 18.9928 108.022 18.9611 107.975 18.9393C107.927 18.9176 107.876 18.9063 107.824 18.9063H105.33C105.138 18.9063 104.976 19.0455 104.946 19.2344L104.864 19.7524C104.864 19.7524 103.775 18.5625 101.784 18.5699ZM101.866 21.609C102.152 21.609 102.414 21.6485 102.649 21.724C103.725 22.0695 104.336 23.1034 104.159 24.224C103.941 25.6039 102.81 26.62 101.358 26.62C101.072 26.62 100.81 26.5807 100.575 26.5052C99.4989 26.1597 98.8848 25.1258 99.0614 24.0052C99.2792 22.6253 100.414 21.609 101.866 21.609Z" fill="#9B95AD"></path>
  <path d="M73.4438 18.9064C73.2461 18.9064 73.1055 19.0995 73.1659 19.2876L75.9004 27.7732L73.4279 31.772C73.3078 31.9661 73.4474 32.2168 73.6756 32.2168H76.5979C76.6815 32.2168 76.7636 32.1951 76.8364 32.1541C76.9092 32.113 76.9701 32.0538 77.0134 31.9823L84.6505 19.3485C84.7677 19.1544 84.6277 18.9061 84.4009 18.9061H81.4788C81.3944 18.9062 81.3115 18.9282 81.2382 18.9701C81.1649 19.0119 81.1038 19.0721 81.0608 19.1448L78.0547 24.22L76.5287 19.1824C76.479 19.0184 76.3277 18.9061 76.1566 18.9061L73.4438 18.9064Z" fill="#9B95AD"></path>
  <path d="M111.013 14.4783C110.822 14.4783 110.659 14.6175 110.629 14.8064L108.413 28.8561C108.405 28.9075 108.408 28.96 108.422 29.01C108.437 29.0601 108.461 29.1065 108.495 29.146C108.529 29.1856 108.571 29.2173 108.618 29.2391C108.665 29.2609 108.717 29.2721 108.769 29.2721H111.396C111.587 29.2721 111.75 29.1329 111.78 28.944L113.996 14.8938C114.004 14.8425 114 14.7901 113.986 14.7401C113.972 14.6902 113.947 14.6439 113.914 14.6044C113.88 14.5649 113.838 14.5332 113.791 14.5114C113.744 14.4897 113.693 14.4784 113.641 14.4783H111.013Z" fill="#9B95AD"></path>
  <path d="M28.834 14.4783C28.6647 14.4784 28.5011 14.5389 28.3724 14.6489C28.2438 14.7589 28.1585 14.9111 28.1321 15.0783L26.9658 22.4751C27.0202 22.1296 27.3179 21.8751 27.6677 21.8751H31.0852C34.5246 21.8751 37.4431 19.366 37.9764 15.9658C38.0161 15.712 38.0386 15.4557 38.0437 15.1988C37.1696 14.7405 36.1429 14.4783 35.0178 14.4783H28.834Z" fill="#9B95AD"></path>
  <path d="M38.8323 16.0223C38.8271 16.2792 38.8046 16.5355 38.765 16.7893C38.2317 20.1895 35.3129 22.6986 31.8737 22.6986H28.4563C28.1067 22.6986 27.8087 22.9528 27.7544 23.2986L26.682 30.0956L26.0103 34.3597C25.9972 34.4421 26.0021 34.5263 26.0248 34.6066C26.0474 34.6869 26.0871 34.7614 26.1413 34.8248C26.1955 34.8882 26.2628 34.9392 26.3385 34.9741C26.4143 35.009 26.4967 35.027 26.5802 35.027H30.2895C30.4588 35.0269 30.6224 34.9664 30.7511 34.8564C30.8797 34.7464 30.9649 34.5942 30.9914 34.427L31.9685 28.23C31.9949 28.0627 32.0802 27.9104 32.209 27.8004C32.3378 27.6904 32.5016 27.6299 32.6709 27.6299H34.8549C38.2943 27.6299 41.2128 25.1209 41.7461 21.7207C42.1248 19.3075 40.9094 17.1114 38.8323 16.0223Z" fill="#9B95AD"></path>
  <path d="M24.6199 9.54785C24.2703 9.54785 23.9724 9.80214 23.918 10.1473L21.0072 28.6052C20.952 28.9556 21.2227 29.2725 21.5775 29.2725H25.8941L26.9659 22.4755L28.1321 15.0787C28.1586 14.9115 28.2438 14.7593 28.3724 14.6493C28.5011 14.5393 28.6647 14.4788 28.834 14.4787H35.0178C36.1432 14.4787 37.1697 14.7412 38.0437 15.1992C38.1036 12.1036 35.5492 9.54785 32.0373 9.54785H24.6199Z" fill="#9B95AD"></path>
</svg>
